<svg width="56" height="25" viewBox="0 0 56 25" fill="none" xmlns="http://www.w3.org/2000/svg">
<path d="M0.530254 15.5915C1.39514 15.498 1.95617 15.346 2.22498 15.124C2.4938 14.9019 2.62233 14.3526 2.62233 13.4526V2.89865C2.62233 2.03376 2.49381 1.47275 2.23668 1.22731C1.97955 0.981871 1.41852 0.829929 0.530254 0.759803V0.315674H6.92346C9.08568 0.315674 10.909 0.6663 12.3933 1.37925C15.0815 2.65321 16.4255 4.93231 16.4255 8.21655C16.4255 9.397 16.1801 10.519 15.7009 11.5943C15.2217 12.6579 14.4853 13.5578 13.5153 14.2942C12.8958 14.7617 12.253 15.1123 11.5868 15.346C10.3713 15.7902 8.88696 16.0239 7.11043 16.0239H0.518555V15.5798L0.530254 15.5915ZM5.31055 14.9604C5.49756 15.0889 5.89488 15.1473 6.49095 15.1473C8.34929 15.1473 9.86875 14.785 11.0726 14.0487C12.9075 12.915 13.8309 10.9865 13.8309 8.2633C13.8309 5.83226 13.0712 3.9973 11.5634 2.77009C10.2661 1.7182 8.54805 1.19225 6.4092 1.19225C5.87156 1.19225 5.50918 1.25068 5.32218 1.36756C5.13518 1.48444 5.04169 1.74157 5.04169 2.12726V14.2006C5.04169 14.5863 5.13518 14.8435 5.32218 14.9604H5.31055Z" fill="#F85F11"/>
<path d="M17.6753 15.5914C18.6454 15.5213 19.2649 15.381 19.5571 15.159C19.8493 14.9369 19.9895 14.3759 19.9895 13.4526V2.89857C19.9895 2.02199 19.8493 1.46098 19.5571 1.21554C19.2766 0.970096 18.6454 0.818159 17.6753 0.771409V0.327271H24.6996V0.771409C23.7295 0.818159 23.1101 0.970096 22.8179 1.21554C22.5374 1.47267 22.3855 2.03368 22.3855 2.89857V13.4526C22.3855 14.3642 22.5257 14.9369 22.8179 15.159C23.1101 15.381 23.7295 15.5213 24.6996 15.5914V16.0355H17.6753V15.5914Z" fill="#F85F11"/>
<path d="M25.4599 15.5914C26.3365 15.4979 26.8975 15.346 27.1547 15.1239C27.4118 14.9018 27.5403 14.3525 27.5403 13.4526V2.89857C27.5403 2.05705 27.4118 1.50773 27.1547 1.2506C26.8975 0.99347 26.3365 0.829847 25.4482 0.771409V0.327271H32.1453V0.771409C31.2687 0.818159 30.6843 0.958406 30.3921 1.20385C30.0999 1.44929 29.948 1.95186 29.948 2.74662V14.1538C29.948 14.4226 29.9948 14.6213 30.0766 14.7733C30.1701 14.9252 30.3571 15.0187 30.661 15.0538C30.8363 15.0771 31.0233 15.0888 31.222 15.1005C31.4207 15.1005 31.783 15.1122 32.3323 15.1122C34.4478 15.1122 35.8737 14.9369 36.61 14.5863C37.358 14.2356 38.071 13.3474 38.7722 11.9215H39.38L38.2229 16.0355H25.4482V15.5914H25.4599Z" fill="#F85F11"/>
<path d="M42.7925 2.09216C44.2535 0.689636 46.0534 6.10352e-05 48.1805 6.10352e-05C50.3077 6.10352e-05 52.1193 0.701326 53.5803 2.10385C55.1698 3.62325 55.9528 5.65691 55.9528 8.19314C55.9528 10.7294 55.1347 12.8098 53.4984 14.3409C52.0258 15.6966 50.261 16.3862 48.1805 16.3862C45.9599 16.3862 44.1132 15.6382 42.6406 14.1305C41.1446 12.5877 40.4082 10.6125 40.4082 8.20483C40.4082 5.6686 41.203 3.63494 42.7925 2.10385V2.09216ZM44.569 13.7214C45.5508 14.9136 46.7547 15.5096 48.1922 15.5096C49.6298 15.5096 50.7869 14.9252 51.7803 13.7682C52.7738 12.6111 53.2764 10.7411 53.2764 8.18145C53.2764 5.62184 52.7738 3.72843 51.7687 2.57135C50.7635 1.41427 49.5714 0.841576 48.1922 0.841576C46.8131 0.841576 45.5625 1.43765 44.5807 2.62979C43.599 3.82194 43.0964 5.66859 43.0964 8.18145C43.0964 10.6943 43.5873 12.5176 44.569 13.7214Z" fill="#F85F11"/>
<path d="M0.251465 24.7663C0.485219 24.7429 0.637164 24.6962 0.695603 24.626C0.754041 24.5559 0.789124 24.3923 0.789124 24.1352V21.4236C0.789124 21.2015 0.754041 21.0613 0.695603 20.9912C0.625477 20.921 0.48523 20.8743 0.263164 20.8626V20.7457H1.9111C2.43704 20.7457 2.84616 20.8509 3.12666 21.0496C3.40717 21.26 3.5474 21.5288 3.5474 21.8677C3.5474 22.2885 3.39543 22.6041 3.07987 22.7911C2.7643 22.9781 2.3786 23.0833 1.9111 23.0833C1.84097 23.0833 1.75919 23.0833 1.654 23.0833C1.54881 23.0833 1.46698 23.0833 1.42023 23.0833V24.217C1.42023 24.4507 1.45526 24.6027 1.52538 24.6611C1.59551 24.7195 1.75918 24.7663 2.00462 24.778V24.8949H0.251465V24.778V24.7663ZM2.36693 21.0964C2.19162 21.0145 1.96953 20.9795 1.68903 20.9795C1.56046 20.9795 1.47864 20.9912 1.45526 21.0145C1.43188 21.0379 1.40854 21.0964 1.40854 21.1899V22.8261C1.52541 22.8261 1.59554 22.8378 1.6306 22.8495C1.66567 22.8495 1.70076 22.8495 1.73582 22.8495C2.02802 22.8495 2.25003 22.8144 2.41366 22.7326C2.71754 22.5807 2.8578 22.3119 2.8578 21.9028C2.8578 21.5171 2.69419 21.26 2.36693 21.1197V21.0964Z" fill="#F85F11"/>
<path d="M3.69918 24.7663C3.94462 24.7429 4.08488 24.6962 4.14332 24.626C4.20176 24.5559 4.23677 24.3923 4.23677 24.1352V21.4236C4.23677 21.2015 4.20176 21.0613 4.14332 20.9912C4.07319 20.921 3.93293 20.8743 3.69918 20.8626V20.7457H5.42894C5.79125 20.7457 6.09516 20.7925 6.32891 20.886C6.78473 21.0613 7.01844 21.3769 7.01844 21.8444C7.01844 22.1599 6.91324 22.3937 6.71455 22.5573C6.51586 22.721 6.2354 22.8378 5.88477 22.8846L7.17039 24.4741C7.2522 24.5676 7.33403 24.6377 7.40416 24.6845C7.48597 24.7312 7.59117 24.7546 7.70805 24.7663V24.8832H6.70292L5.13674 22.9547H4.85625V24.2053C4.85625 24.439 4.89127 24.5793 4.9614 24.6494C5.03153 24.7079 5.18348 24.7546 5.41724 24.778V24.8949H3.67578V24.778L3.69918 24.7663ZM5.83798 22.6041C6.16523 22.4638 6.34061 22.2067 6.34061 21.8327C6.34061 21.4587 6.18866 21.2249 5.89647 21.0964C5.73284 21.0262 5.52242 20.9912 5.26529 20.9912C5.08997 20.9912 4.98482 21.0029 4.93807 21.0262C4.90301 21.0496 4.87965 21.108 4.87965 21.2015V22.7443C5.33547 22.7326 5.65098 22.6859 5.84967 22.6041H5.83798Z" fill="#F85F11"/>
<path d="M8.61943 21.2132C9.00512 20.8392 9.47267 20.6639 10.0454 20.6639C10.6181 20.6639 11.0855 20.8509 11.4712 21.2249C11.892 21.6223 12.1024 22.1599 12.1024 22.8261C12.1024 23.4923 11.892 24.0416 11.4595 24.4507C11.0738 24.813 10.6064 24.9883 10.0571 24.9883C9.47268 24.9883 8.9818 24.7896 8.5961 24.3923C8.19872 23.9832 8.01172 23.4689 8.01172 22.8261C8.01172 22.1599 8.22207 21.6223 8.64283 21.2132H8.61943ZM9.08697 24.2754C9.3441 24.5909 9.65967 24.7429 10.0454 24.7429C10.4311 24.7429 10.7349 24.5909 10.9921 24.2871C11.2492 23.9832 11.3894 23.4923 11.3894 22.8144C11.3894 22.1365 11.2609 21.634 10.9921 21.3301C10.7232 21.0262 10.4077 20.8743 10.0454 20.8743C9.68305 20.8743 9.35578 21.0262 9.08697 21.3418C8.82984 21.6573 8.70125 22.1482 8.70125 22.8027C8.70125 23.4572 8.82984 23.9481 9.08697 24.2637V24.2754Z" fill="#F85F11"/>
<path d="M12.4297 24.7663C12.6634 24.743 12.8037 24.6962 12.8738 24.6378C12.944 24.5793 12.979 24.4391 12.979 24.1936V21.412C12.979 21.1899 12.944 21.038 12.8738 20.9678C12.8037 20.8977 12.6518 20.8626 12.4297 20.851V20.7341H14.1127C14.6854 20.7341 15.1646 20.8276 15.5503 21.0146C16.2632 21.3535 16.6139 21.9496 16.6139 22.8145C16.6139 23.1301 16.5554 23.4222 16.4269 23.7027C16.2983 23.9833 16.1113 24.217 15.8542 24.4157C15.6905 24.5326 15.5269 24.6261 15.3516 24.6962C15.036 24.8131 14.6387 24.8715 14.1711 24.8715H12.4297V24.7546V24.7663ZM13.6803 24.6027C13.6803 24.6027 13.8322 24.6495 13.9959 24.6495C14.4868 24.6495 14.8841 24.556 15.1997 24.3573C15.6789 24.0651 15.9243 23.5508 15.9243 22.8262C15.9243 22.1833 15.7257 21.7042 15.3283 21.3769C14.9893 21.0964 14.5335 20.9561 13.9725 20.9561C13.8322 20.9561 13.7387 20.9678 13.692 21.0029C13.6452 21.038 13.6219 21.0964 13.6219 21.2016V24.3806C13.6219 24.4858 13.6452 24.5559 13.692 24.5793L13.6803 24.6027Z" fill="#F85F11"/>
<path d="M18.7071 20.7457V20.8626C18.4617 20.8743 18.3098 20.921 18.2397 20.9795C18.1696 21.0379 18.1345 21.1899 18.1345 21.4236V23.4222C18.1345 23.7495 18.1812 24.0066 18.263 24.1936C18.4266 24.5325 18.7422 24.6962 19.2097 24.6962C19.724 24.6962 20.0629 24.5209 20.2382 24.1819C20.3317 23.9949 20.3902 23.691 20.3902 23.2936V21.6691C20.3902 21.3301 20.3551 21.1197 20.2733 21.0262C20.1915 20.9444 20.0395 20.886 19.8058 20.8626V20.7457H21.2551V20.8626C21.0096 20.886 20.8577 20.9444 20.7759 21.0379C20.7058 21.1314 20.659 21.3418 20.659 21.6691V23.2936C20.659 23.7261 20.5889 24.065 20.4603 24.3105C20.2149 24.7546 19.7473 24.9767 19.0695 24.9767C18.3916 24.9767 17.9358 24.7546 17.6903 24.3222C17.5618 24.0884 17.4917 23.7728 17.4917 23.3871V21.4353C17.4917 21.2132 17.4566 21.0613 17.3864 20.9912C17.3163 20.921 17.1644 20.886 16.9307 20.8626V20.7457H18.7071Z" fill="#F85F11"/>
<path d="M24.3752 20.7691C24.609 20.8392 24.7492 20.8743 24.7725 20.8743C24.831 20.8743 24.8894 20.8626 24.9362 20.8275C24.9946 20.7924 25.0297 20.7457 25.0414 20.6756H25.17L25.2284 22.0781H25.0881C25.0063 21.7976 24.9011 21.5755 24.7608 21.4002C24.5037 21.0729 24.1531 20.921 23.7207 20.921C23.2882 20.921 22.9259 21.0963 22.6454 21.4353C22.3649 21.7742 22.2246 22.2534 22.2246 22.8612C22.2246 23.4222 22.3766 23.8663 22.6688 24.1936C22.961 24.5208 23.335 24.6961 23.7791 24.6961C24.1064 24.6961 24.3986 24.6143 24.6791 24.4624C24.831 24.3689 25.0063 24.2403 25.1933 24.065L25.3102 24.1819C25.1699 24.3572 24.9946 24.5091 24.7959 24.6377C24.4453 24.8598 24.0713 24.9766 23.6506 24.9766C22.9727 24.9766 22.4467 24.7663 22.0494 24.3338C21.687 23.9364 21.5 23.4456 21.5 22.8495C21.5 22.2534 21.687 21.7275 22.0727 21.3184C22.4818 20.8859 23.0077 20.6639 23.6506 20.6639C23.8726 20.6639 24.1064 20.6989 24.3518 20.7691H24.3752Z" fill="#F85F11"/>
<path d="M25.6605 20.7457H29.2019L29.2369 21.8093H29.085C29.0149 21.4704 28.9214 21.26 28.8045 21.1548C28.6876 21.0496 28.4539 21.0029 28.0916 21.0029H27.7409V24.2053C27.7409 24.4507 27.776 24.591 27.8578 24.6494C27.9279 24.7079 28.1032 24.7429 28.3486 24.7663V24.8832H26.5254V24.7663C26.7942 24.7429 26.9579 24.7079 27.0163 24.6377C27.0747 24.5676 27.1098 24.404 27.1098 24.1352V21.0029H26.7591C26.4085 21.0029 26.1748 21.0496 26.0462 21.1548C25.9176 21.26 25.8242 21.4704 25.7657 21.8093H25.6138L25.6488 20.7457H25.6605Z" fill="#F85F11"/>
<path d="M29.7628 23.6209C29.868 23.9014 29.9965 24.1234 30.1368 24.2988C30.3822 24.5909 30.6978 24.7312 31.0601 24.7312C31.2588 24.7312 31.4341 24.6728 31.5744 24.5442C31.7146 24.4156 31.7964 24.2403 31.7964 24.0183C31.7964 23.8196 31.7263 23.6326 31.5744 23.4806C31.4809 23.3871 31.2821 23.2352 30.9666 23.0482L30.429 22.7209C30.2654 22.6157 30.1368 22.5105 30.0433 22.417C29.868 22.2183 29.7745 21.9963 29.7745 21.7625C29.7745 21.447 29.8796 21.1898 30.09 20.9794C30.3004 20.7691 30.5809 20.6639 30.9199 20.6639C31.0601 20.6639 31.2354 20.6989 31.4341 20.7691C31.6328 20.8392 31.7497 20.8743 31.773 20.8743C31.8548 20.8743 31.9016 20.8509 31.9367 20.8158C31.9601 20.7808 31.9951 20.7223 32.0068 20.6639H32.1354L32.2757 21.9963H32.1237C32.0185 21.5989 31.8549 21.3184 31.6328 21.1548C31.4107 20.9911 31.1886 20.921 30.9666 20.921C30.7913 20.921 30.6511 20.9678 30.5225 21.0729C30.3939 21.1781 30.3355 21.3184 30.3355 21.4937C30.3355 21.6573 30.3822 21.7976 30.4874 21.9028C30.5809 22.0196 30.7329 22.1365 30.9433 22.2651L31.4925 22.604C31.8315 22.8144 32.0769 23.0131 32.2172 23.1884C32.3574 23.3637 32.4275 23.5741 32.4275 23.8196C32.4275 24.1468 32.299 24.4273 32.0536 24.6377C31.8082 24.8598 31.4926 24.965 31.1069 24.965C30.9082 24.965 30.7095 24.9299 30.4991 24.8598C30.2887 24.7896 30.1719 24.7546 30.1368 24.7546C30.0667 24.7546 30.0199 24.7779 29.9849 24.8247C29.9615 24.8714 29.9381 24.9182 29.9381 24.965H29.7978L29.6108 23.6326H29.7511L29.7628 23.6209Z" fill="#F85F11"/>
<path d="M37.4412 20.7692C37.6749 20.8393 37.8151 20.8743 37.8502 20.8743C37.9437 20.8743 38.0022 20.8627 38.0372 20.8276C38.0723 20.7925 38.1073 20.7458 38.1307 20.6757H38.2709L38.3177 21.9964H38.1775C38.0489 21.6925 37.9203 21.4704 37.7801 21.3185C37.5346 21.0613 37.2074 20.9328 36.8217 20.9328C36.436 20.9328 36.062 21.0847 35.7581 21.3886C35.4542 21.6925 35.3023 22.1951 35.3023 22.8963C35.3023 23.469 35.4542 23.9248 35.7581 24.2521C36.062 24.5793 36.436 24.743 36.8801 24.743C36.9502 24.743 37.0438 24.743 37.149 24.7196C37.2542 24.6962 37.3477 24.6845 37.4412 24.6495C37.5931 24.6027 37.6866 24.556 37.7216 24.5209C37.7567 24.4858 37.7801 24.4274 37.7801 24.369V23.3755C37.7801 23.1301 37.745 22.9781 37.6749 22.9197C37.6048 22.8613 37.4529 22.8262 37.2308 22.8145V22.6976H38.832V22.8145C38.6801 22.8145 38.5749 22.8496 38.5281 22.8963C38.4463 22.9664 38.3996 23.095 38.3996 23.2937V24.5209C38.3996 24.591 38.2242 24.6962 37.8619 24.8131C37.4996 24.93 37.1606 25.0001 36.8217 25.0001C36.2139 25.0001 35.6996 24.8248 35.2789 24.4625C34.8114 24.0651 34.5894 23.5391 34.5894 22.8846C34.5894 22.3002 34.7763 21.7977 35.1386 21.3886C35.5477 20.9328 36.0854 20.699 36.7516 20.699C36.997 20.699 37.2307 20.7341 37.4645 20.8042L37.4412 20.7692Z" fill="#F85F11"/>
<path d="M38.9956 24.7663C39.241 24.7429 39.3812 24.6962 39.4396 24.626C39.4981 24.5559 39.5332 24.3923 39.5332 24.1352V21.4236C39.5332 21.2015 39.4981 21.0613 39.4396 20.9912C39.3695 20.921 39.2293 20.8743 38.9956 20.8626V20.7457H40.7253C41.0876 20.7457 41.3915 20.7925 41.6253 20.886C42.0811 21.0613 42.3148 21.3769 42.3148 21.8444C42.3148 22.1599 42.2096 22.3937 42.0109 22.5573C41.8122 22.721 41.5318 22.8378 41.1812 22.8846L42.4668 24.4741C42.5486 24.5676 42.6304 24.6377 42.7005 24.6845C42.7824 24.7312 42.8876 24.7546 43.0044 24.7663V24.8832H41.9992L40.4331 22.9547H40.1526V24.2053C40.1526 24.439 40.1877 24.5793 40.2578 24.6494C40.3279 24.7079 40.4799 24.7546 40.7136 24.778V24.8949H38.9722V24.778L38.9956 24.7663ZM41.1344 22.6041C41.4616 22.4638 41.6369 22.2067 41.6369 21.8327C41.6369 21.4587 41.485 21.2249 41.1928 21.0964C41.0292 21.0262 40.8188 20.9912 40.5617 20.9912C40.3864 20.9912 40.2812 21.0029 40.2345 21.0262C40.1994 21.0496 40.176 21.108 40.176 21.2015V22.7443C40.6318 22.7326 40.9474 22.6859 41.1461 22.6041H41.1344Z" fill="#F85F11"/>
<path d="M43.9164 21.2132C44.3021 20.8392 44.7696 20.6639 45.3423 20.6639C45.915 20.6639 46.3825 20.8509 46.7682 21.2249C47.1889 21.6223 47.3993 22.1599 47.3993 22.8261C47.3993 23.4923 47.1889 24.0416 46.7565 24.4507C46.3708 24.813 45.9033 24.9883 45.3539 24.9883C44.7696 24.9883 44.2787 24.7896 43.893 24.3923C43.4956 23.9832 43.3086 23.4689 43.3086 22.8261C43.3086 22.1599 43.519 21.6223 43.9398 21.2132H43.9164ZM44.3839 24.2754C44.641 24.5909 44.9566 24.7429 45.3423 24.7429C45.728 24.7429 46.0319 24.5909 46.289 24.2871C46.5461 23.9832 46.6864 23.4923 46.6864 22.8144C46.6864 22.1365 46.5578 21.634 46.289 21.3301C46.0202 21.0262 45.7046 20.8743 45.3423 20.8743C44.98 20.8743 44.6527 21.0262 44.3839 21.3418C44.1268 21.6573 43.9982 22.1482 43.9982 22.8027C43.9982 23.4572 44.1268 23.9481 44.3839 24.2637V24.2754Z" fill="#F85F11"/>
<path d="M49.4797 20.7457V20.8626C49.2342 20.8743 49.0823 20.921 49.0121 20.9795C48.942 21.0379 48.907 21.1899 48.907 21.4236V23.4222C48.907 23.7495 48.9537 24.0066 49.0355 24.1936C49.1992 24.5325 49.5147 24.6962 49.9822 24.6962C50.4965 24.6962 50.8354 24.5209 51.0108 24.1819C51.1043 23.9949 51.1627 23.691 51.1627 23.2936V21.6691C51.1627 21.3301 51.1277 21.1197 51.0459 21.0262C50.964 20.9444 50.8121 20.886 50.5783 20.8626V20.7457H52.0276V20.8626C51.7821 20.886 51.6302 20.9444 51.5484 21.0379C51.4783 21.1314 51.4315 21.3418 51.4315 21.6691V23.2936C51.4315 23.7261 51.3614 24.065 51.2328 24.3105C50.9874 24.7546 50.5199 24.9767 49.842 24.9767C49.1641 24.9767 48.7083 24.7546 48.4629 24.3222C48.3343 24.0884 48.2642 23.7728 48.2642 23.3871V21.4353C48.2642 21.2132 48.2291 21.0613 48.159 20.9912C48.0888 20.921 47.9369 20.886 47.7031 20.8626V20.7457H49.4797Z" fill="#F85F11"/>
<path d="M52.25 24.7663C52.4838 24.7429 52.6357 24.6962 52.6941 24.626C52.7526 24.5559 52.7877 24.3923 52.7877 24.1352V21.4236C52.7877 21.2015 52.7526 21.0613 52.6941 20.9912C52.624 20.921 52.4838 20.8743 52.2617 20.8626V20.7457H53.9096C54.4356 20.7457 54.8447 20.8509 55.1252 21.0496C55.4057 21.26 55.5459 21.5288 55.5459 21.8677C55.5459 22.2885 55.394 22.6041 55.0784 22.7911C54.7628 22.9781 54.3771 23.0833 53.9096 23.0833C53.8395 23.0833 53.7577 23.0833 53.6525 23.0833C53.5473 23.0833 53.4655 23.0833 53.4188 23.0833V24.217C53.4188 24.4507 53.4539 24.6027 53.524 24.6611C53.5941 24.7195 53.7577 24.7663 54.0032 24.778V24.8949H52.25V24.778V24.7663ZM54.3538 21.0964C54.1785 21.0145 53.9564 20.9795 53.6759 20.9795C53.5474 20.9795 53.4655 20.9912 53.4422 21.0145C53.4188 21.0379 53.3954 21.0964 53.3954 21.1899V22.8261C53.5122 22.8261 53.5824 22.8378 53.6174 22.8495C53.6525 22.8495 53.6876 22.8495 53.7227 22.8495C54.0149 22.8495 54.2369 22.8144 54.4006 22.7326C54.7044 22.5807 54.8447 22.3119 54.8447 21.9028C54.8447 21.5171 54.681 21.26 54.3538 21.1197V21.0964Z" fill="#F85F11"/>
</svg>
