<svg width="97" height="25" viewBox="0 0 97 25" fill="none" xmlns="http://www.w3.org/2000/svg">
<g clip-path="url(#clip0_1255_29809)">
<path d="M20.9429 2.723L20.8872 1.64288C20.8872 1.04957 21.0748 0.785883 21.303 0.598256L21.6326 0.36499H19.2797L18.2857 2.723H18.301L15.4105 9.57391L14.0718 6.18649L11.7797 0.36499H9.52307C9.52307 0.36499 9.53321 0.370061 9.53321 0.375132H9.52307L9.77662 0.552617C10.0251 0.755457 10.2432 1.02929 10.2736 1.51611C10.2736 1.53639 10.2736 1.5516 10.2736 1.57189L10.086 5.59826H10.0809L9.83747 10.7808C9.83747 11.5871 9.447 11.9522 9.07682 12.2413L8.91455 12.3579H11.8253H11.8202H11.8405C11.4298 12.0638 10.9531 11.866 10.9075 10.9279L11.2979 3.46844L14.944 12.9867L19.0109 3.36702L19.2087 6.81529L19.2949 8.27574L19.4571 11.1003C19.447 11.8356 19.0413 12.1196 18.6965 12.363H22.1245L21.7797 12.1196C21.5768 11.9522 21.4095 11.724 21.374 11.2676L20.948 2.72807L20.9429 2.723Z" fill="#231F20"/>
<path d="M8.53424 9.77678C7.98657 10.9532 7.2817 11.3133 6.23708 11.3133H6.20158H2.70767V6.69868H5.20767V6.68854H5.87704C6.87602 6.68854 7.00787 7.25649 7.21578 7.61653V4.74128C7.01294 5.09625 6.74418 5.64392 5.87704 5.64392H4.92876H2.71274V1.45527H6.25229C6.34357 1.45527 6.42978 1.46035 6.51091 1.47049C6.53627 1.47049 6.56162 1.47049 6.59205 1.47049C7.23606 1.47049 7.77866 1.91673 7.92572 2.51511V0.405579H-0.000244141C0.293873 0.547566 0.522068 0.785903 0.653914 1.08509C0.689411 1.15609 0.719837 1.23722 0.73505 1.34878C0.750263 1.43499 0.760405 1.5212 0.760405 1.61248C0.760405 1.63783 0.760405 1.66319 0.760405 1.68347V12.3478L8.03221 12.363L8.54438 9.77678H8.53424Z" fill="#231F20"/>
<path d="M72.3833 12.3783C72.6723 12.1704 73.0222 11.998 73.0222 11.2931V1.46555C73.0222 0.882384 72.6723 0.598409 72.3833 0.395569H75.2738C74.9796 0.60348 74.6348 0.775893 74.6348 1.46555V11.2931C74.6348 11.9726 74.9796 12.1755 75.2738 12.3783H72.3833Z" fill="#231F20"/>
<path d="M38.4937 12.3783C38.7827 12.1704 39.1326 11.998 39.1326 11.2931V1.46555C39.1326 0.882384 38.7827 0.598409 38.4937 0.395569H41.3841C41.09 0.60348 40.7452 0.775893 40.7452 1.46555V11.2931C40.7452 11.9726 41.09 12.1755 41.3841 12.3783H38.4937Z" fill="#231F20"/>
<path d="M58.2858 1.09537H55.877V11.2931C55.877 12.0284 56.2219 12.1704 56.5312 12.3733H53.6357C53.9247 12.1704 54.2898 12.0284 54.2898 11.2931V1.09537H51.876C51.0748 1.09537 50.5779 1.41991 50.3547 1.98279V0.395569H59.8071V1.98279C59.5839 1.41991 59.087 1.09537 58.2858 1.09537Z" fill="#231F20"/>
<path d="M94.5433 1.09537H92.1346V11.2931C92.1346 12.0284 92.4794 12.1704 92.7888 12.3733H89.8932C90.1823 12.1704 90.5474 12.0284 90.5474 11.2931V1.09537H88.1336C87.3324 1.09537 86.8354 1.41991 86.6123 1.98279V0.395569H96.0646V1.98279C95.8415 1.41991 95.3446 1.09537 94.5433 1.09537Z" fill="#231F20"/>
<path d="M70.0759 12.3783C69.2189 12.3783 68.3214 12.1703 67.2666 10.7454L64.148 6.25249H64.797C66.0293 6.25249 67.1601 5.22308 67.1601 3.59529C67.1601 2.06893 66.0648 1.10544 64.3508 1.10544H62.8599V11.2931C62.8599 11.6734 62.8549 11.9979 63.4989 12.3783H60.6084C61.151 12.1146 61.2473 11.6734 61.2473 11.2931V1.49083C61.2473 0.821461 60.9583 0.56284 60.6084 0.40564H64.7768C67.4492 0.40564 68.8741 1.62268 68.8741 3.58008C68.8741 4.90361 67.8295 6.17136 66.2524 6.55168C66.2524 6.55168 68.2048 9.40158 68.722 10.147C69.8985 11.8407 72.1145 12.3833 72.1145 12.3833H70.0759V12.3783Z" fill="#231F20"/>
<path d="M31.3994 12.3783H27.7483V1.43004C27.7483 1.05478 27.5251 0.694742 27.2361 0.471619H31.3994C35.375 0.471619 37.5758 2.96148 37.5758 6.42496C37.5758 9.88845 35.1519 12.3783 31.3994 12.3783ZM31.0596 1.12071H29.3355V11.7444H31.0596C33.8588 11.7444 35.8872 9.50813 35.8872 6.42496C35.8872 3.3418 34.0261 1.12071 31.0596 1.12071Z" fill="#231F20"/>
<path d="M44.9642 12.7688C44.2086 12.7688 43.1792 12.3935 42.378 12.1653V10.4665C42.875 11.4503 43.8182 12.003 45.0149 12.003C46.6275 12.003 48.0271 11.07 48.0271 9.64503C48.0271 8.52434 47.2918 7.76876 45.2786 6.75456C43.306 5.75558 42.2512 4.72109 42.2512 3.28093C42.2512 0.897566 44.1427 0 46.5971 0C47.4541 0 48.5088 0.177485 49.1072 0.456389V2.05375C48.7066 1.28296 47.8496 0.669371 46.5565 0.669371C44.7816 0.669371 43.808 1.58215 43.808 2.77383C43.808 4.08722 45.2837 4.8073 46.4196 5.37018C49.1681 6.71907 49.7056 8.00203 49.7056 9.3357C49.7056 11.7039 47.4186 12.7738 44.9642 12.7738V12.7688Z" fill="#231F20"/>
<path d="M82.2566 12.5101C78.8185 12.5101 75.9736 9.91887 75.9736 6.34382C75.9736 2.76877 78.783 0.17749 82.2566 0.17749C83.4533 0.17749 84.5639 0.38033 85.5629 0.770796V2.51522C85.1166 1.3641 83.8844 0.836719 82.5051 0.836719C79.7819 0.836719 77.6673 3.31136 77.6673 6.34382C77.6673 9.37627 79.8276 11.8154 82.5051 11.8154C83.9858 11.8154 85.1471 11.3235 85.5629 10.2231V11.9168C84.5639 12.3073 83.4533 12.5101 82.2566 12.5101Z" fill="#231F20"/>
<path d="M7.32262 14.6451C7.32262 14.6451 7.19585 14.6806 7.08936 14.7212C6.89159 14.7973 6.35406 15.0153 5.74554 15.3449C5.07617 15.705 4.43723 16.0853 3.80335 16.6228C3.16948 17.1604 2.73337 17.7182 2.89058 18.2912C3.03256 18.8084 3.66137 19.0366 4.39159 19.0062C4.39159 19.0062 4.11776 19.1837 3.72729 19.4829C3.33682 19.777 2.93114 20.1624 2.53054 20.6492C1.68875 21.6735 1.1208 22.8399 1.72425 23.9758C2.03865 24.564 2.62688 24.8733 3.35204 24.9748C4.15325 25.0812 5.08632 24.924 5.86218 24.5691C7.33784 23.8896 7.85508 22.9109 7.87536 22.8804C7.89058 22.85 7.89058 22.8247 7.88043 22.8196C7.87029 22.8094 7.83987 22.8399 7.80944 22.8754C7.77901 22.9109 7.20092 23.6411 6.29321 24.0163C5.3855 24.3916 4.27496 24.4981 3.4636 24.0062C2.65731 23.5143 2.7283 22.6167 2.87536 21.9879C3.08327 21.0752 3.76279 19.8277 4.96461 18.9403C4.96461 18.9403 5.74047 18.7881 6.34899 18.5042C6.9068 18.2405 7.064 18.0072 7.04879 17.9058C7.03865 17.7993 6.81552 17.703 6.27293 17.9311C5.68469 18.1746 5.01532 18.6056 4.78206 18.7476C4.78206 18.7476 4.57415 18.7932 4.37131 18.7374C4.18368 18.6867 4.01127 18.5752 3.89463 18.3825C3.73236 18.1137 3.71715 17.7841 3.81857 17.4748C3.92506 17.1604 4.1279 16.8612 4.33074 16.633C4.79727 16.1056 5.38043 15.7405 5.93824 15.4007C6.53155 15.0407 7.04372 14.8023 7.15021 14.7516C7.26684 14.6959 7.33784 14.6654 7.32769 14.6553L7.32262 14.6451Z" fill="#979797"/>
<path d="M25.9129 23.1999C25.994 23.1391 26.0955 23.0732 26.0955 22.8906L25.9535 20.4413L24.7314 23.3318L23.631 20.4515L23.4991 22.8906C23.4991 23.0985 23.6005 23.1391 23.6817 23.1999H23.1086C23.1898 23.1391 23.2912 23.0732 23.2912 22.8906L23.4332 20.1016C23.4332 19.8835 23.3216 19.8429 23.2354 19.7973H23.7729L24.8683 22.5661L26.0346 19.7973H26.5924C26.5113 19.8582 26.4099 19.8937 26.4099 20.1016L26.5518 22.8906C26.5518 23.0985 26.6482 23.1391 26.7344 23.1999H25.9129Z" fill="#231F20"/>
<path d="M11.4962 21.8156H11.0296V22.8906C11.0296 23.0985 11.126 23.1391 11.2122 23.1999H10.3958C10.4769 23.1391 10.5783 23.0732 10.5783 22.8906V20.1066C10.5783 19.9291 10.482 19.8632 10.3958 19.8024H11.4962C12.196 19.8024 12.6574 20.2182 12.6574 20.8267C12.6574 21.3947 12.2162 21.8156 11.4962 21.8156ZM11.3795 19.9799H11.0296V21.6178H11.4454C11.8359 21.6178 12.1605 21.3237 12.1605 20.8014C12.1605 20.3348 11.8359 19.9799 11.3745 19.9799H11.3795Z" fill="#231F20"/>
<path d="M12.8906 21.5012C12.8906 20.5275 13.4332 19.7365 14.3714 19.7365C15.3095 19.7365 15.8521 20.5225 15.8521 21.5012C15.8521 22.4799 15.3146 23.2659 14.3714 23.2659C13.4282 23.2659 12.8906 22.4799 12.8906 21.5012ZM13.3977 21.6076C13.4129 22.4596 13.7121 23.0934 14.3257 23.0782C15.1421 23.058 15.3501 22.1097 15.3348 21.3896C15.3196 20.5427 15.0204 19.9038 14.4069 19.919C13.5904 19.9393 13.3825 20.8926 13.3977 21.6076Z" fill="#231F20"/>
<path d="M19.1787 23.1999C19.2598 23.1391 19.3613 23.0934 19.3613 22.8906V20.1066C19.3613 19.9393 19.2649 19.8632 19.1787 19.8024H20.0002C19.9191 19.8632 19.8177 19.9089 19.8177 20.1066V22.8906C19.8177 23.0833 19.914 23.1391 20.0002 23.1999H19.1787Z" fill="#231F20"/>
<path d="M18.7072 23.1999C18.4638 23.1999 18.2103 23.1391 17.9111 22.7385L17.0287 21.4656H17.2113C17.5612 21.4656 17.8806 21.1715 17.8806 20.7101C17.8806 20.279 17.5713 20.0052 17.0845 20.0052H16.6636V22.8957C16.6636 23.0022 16.6636 23.0934 16.8462 23.205H16.0247C16.1768 23.1289 16.2072 23.0022 16.2072 22.8957V20.1168C16.2072 19.9241 16.1261 19.8531 16.0247 19.8074H17.2062C17.9668 19.8074 18.3675 20.1523 18.3675 20.7101C18.3675 21.0853 18.0683 21.4454 17.622 21.5519C17.622 21.5519 18.1748 22.3581 18.3218 22.5711C18.6565 23.0529 19.2853 23.205 19.2853 23.205H18.7072V23.1999Z" fill="#231F20"/>
<path d="M6.43023 22.5204C6.27303 22.8551 6.07526 22.9565 5.77607 22.9565H4.67566V21.5519H5.67465C5.95862 21.5519 5.99412 21.7091 6.05497 21.8156V21.0752C5.99919 21.1766 5.92313 21.3338 5.67465 21.3338H4.68073V20.0458H5.78114C5.91299 20.0458 5.97384 20.0508 6.04483 20.0863C6.15639 20.1421 6.22739 20.2435 6.25274 20.345V19.8024H4.00122C4.04179 19.8227 4.11785 19.8683 4.16349 19.9494C4.2142 20.0356 4.2142 20.1016 4.2142 20.1675V23.1999H6.28317L6.43023 22.5204Z" fill="#231F20"/>
<path d="M9.80759 20.1624C9.80759 19.9951 9.85829 19.919 9.92422 19.8683L10.0155 19.8024H9.42726L8.29136 22.4494L7.24166 19.8024H6.6585C6.6585 19.8024 6.68892 19.8227 6.72949 19.8531C6.77513 19.8886 6.82077 19.9393 6.84105 19.9951C6.87148 20.0661 6.87148 20.1371 6.87148 20.1421L6.74978 22.7537C6.73456 22.992 6.63821 23.0884 6.53172 23.1695L6.48608 23.1999H7.27716C7.16053 23.1137 7.01854 23.0427 7.01347 22.7943L7.12503 20.6442L8.19501 23.3825L9.34612 20.6543L9.4729 22.845C9.47797 23.0377 9.35627 23.134 9.25992 23.205H10.1575L10.0611 23.134C10.0054 23.0884 9.95464 23.0224 9.9445 22.8906L9.80759 20.1675V20.1624Z" fill="#231F20"/>
<path d="M22.8299 20.0965V22.0843C22.8096 22.8095 22.3988 23.2608 21.6534 23.2608C20.7355 23.2608 20.4313 22.6573 20.4262 22.1147V20.0965C20.4262 19.919 20.3299 19.8582 20.2437 19.7973H21.0956C21.0094 19.8531 20.913 19.9291 20.913 20.0965V22.1198C20.908 22.5965 21.0854 23.0427 21.6635 23.0427C22.2416 23.0427 22.5814 22.6827 22.5814 22.0742V20.1016C22.5814 19.9291 22.485 19.8632 22.3988 19.8024H23.0885C23.0073 19.8582 22.8248 19.9139 22.8248 20.1016L22.8299 20.0965Z" fill="#231F20"/>
<path fill-rule="evenodd" clip-rule="evenodd" d="M37.901 23.1796C38.327 23.6918 39.1586 23.778 39.8331 23.6005C40.5328 23.4179 41.4913 22.8246 42.1758 21.9372C42.8604 21.0498 43.2103 20.0457 43.2002 19.0417C43.19 18.0224 42.8047 17.2415 42.47 16.8155C42.186 16.4605 41.6485 15.9991 40.8625 15.9991C40.188 15.9991 39.2144 16.2526 38.2053 17.1806C37.1911 18.1086 36.5268 19.3764 36.4811 20.6543C36.4406 21.8612 36.8817 22.3581 37.2164 22.5457C37.328 22.6066 37.4548 22.6624 37.6272 22.6776C37.6982 22.8652 37.7894 23.0326 37.9061 23.1745L37.901 23.1796ZM37.6829 21.7851C37.7844 21.0295 38.1545 20.35 38.5349 19.8023C38.9253 19.2394 39.5694 18.4737 40.1474 18.1695C40.6951 17.8804 41.0653 17.8855 41.2326 18.0934C41.3848 18.2861 41.4608 18.6664 41.2225 19.3865C40.9842 20.1015 40.3351 20.994 39.7925 21.4859C39.255 21.9727 38.6262 22.3581 38.1495 22.495C37.9872 22.5407 37.8401 22.5609 37.7134 22.5559C37.6576 22.3429 37.6475 22.0843 37.688 21.78L37.6829 21.7851ZM37.5765 22.5457C37.3939 22.5153 37.2418 22.4342 37.1099 22.3074C36.8158 22.0386 36.6687 21.5163 36.689 20.9027C36.7144 20.2891 36.9375 19.5944 37.2063 19.0721C37.475 18.5447 38.0176 17.7182 38.829 17.0539C39.6353 16.3946 40.3756 16.1411 40.9385 16.1411C41.4507 16.1411 42.1454 16.3946 42.399 17.3835C42.6576 18.3875 42.4548 19.5133 41.9578 20.5173C41.4659 21.5011 40.4771 22.5711 39.7367 22.9818C39.0014 23.3926 38.4487 23.3571 38.1698 23.1948C37.9821 23.0883 37.8351 22.9159 37.7438 22.6776C37.972 22.6776 38.2712 22.6066 38.6819 22.424C39.6556 21.9879 40.4162 21.207 40.8574 20.5224C41.2986 19.8328 41.5572 19.1532 41.5572 18.5346C41.5572 17.9159 41.2022 17.5356 40.7813 17.5255C40.4162 17.5153 39.7925 17.6522 39.042 18.3977C38.3016 19.1279 37.8655 19.8835 37.6221 20.7709C37.4446 21.3997 37.4345 22.0336 37.5815 22.5457H37.5765Z" fill="#979797"/>
<path fill-rule="evenodd" clip-rule="evenodd" d="M42.8502 24.2902C42.8502 24.2902 42.764 24.3561 42.6829 24.3916C42.6068 24.422 42.48 24.4677 42.191 24.4829C41.9019 24.4981 41.3796 24.4575 41.121 24.4271C40.8725 24.3967 40.0713 24.3105 39.6149 24.2851C39.1585 24.2598 38.7376 24.2851 38.3269 24.3663C37.911 24.4525 37.6829 24.5995 37.6271 24.6401C37.5713 24.6807 37.5307 24.7212 37.5409 24.7364C37.5459 24.7466 37.5662 24.7466 37.6017 24.7314C37.622 24.7212 37.6423 24.7111 37.6676 24.7009C37.764 24.6553 37.9161 24.5945 38.1545 24.5894C38.4841 24.5792 38.7731 24.635 39.052 24.6857C39.3309 24.7364 39.8989 24.8226 40.3502 24.8683C40.7762 24.9139 41.2275 24.9291 41.5774 24.8936C41.9121 24.8581 42.2113 24.777 42.4496 24.6553C42.693 24.5336 42.8096 24.4271 42.8654 24.3663C42.9009 24.3257 42.911 24.2851 42.9009 24.275C42.8908 24.2598 42.8756 24.275 42.8502 24.2953V24.2902Z" fill="#979797"/>
<path d="M51.5674 23.1949C51.324 23.1949 51.0704 23.134 50.7712 22.7334L49.8889 21.4606H50.0765C50.4264 21.4606 50.7459 21.1665 50.7459 20.705C50.7459 20.274 50.4365 20.0001 49.9497 20.0001H49.5288V22.8906C49.5288 22.9971 49.5288 23.0884 49.7114 23.1999H48.8899C49.042 23.1239 49.0724 22.9971 49.0724 22.8906V20.1066C49.0724 19.9139 48.9913 19.8429 48.8899 19.7973H50.0714C50.8321 19.7973 51.2327 20.1421 51.2327 20.6999C51.2327 21.0752 50.9335 21.4352 50.4873 21.5417C50.4873 21.5417 51.04 22.3531 51.1871 22.561C51.5217 23.0427 52.1505 23.1949 52.1505 23.1949H51.5724H51.5674Z" fill="#231F20"/>
<path d="M48.4942 23.1949C48.3421 23.1949 48.1849 23.0833 48.0987 22.8653L47.8451 22.2212H46.5013L46.2275 22.9109C46.1261 23.1594 46.2326 23.1543 46.2731 23.1999H45.7356C45.7914 23.1594 45.8979 23.1442 45.9638 23.0022L47.2822 19.7314C47.2822 19.7314 48.3218 22.3277 48.3979 22.4951C48.7173 23.1847 49.0165 23.1949 49.0165 23.1949H48.4942ZM47.1707 20.5275L46.5774 22.0235H47.7691L47.1758 20.5275H47.1707Z" fill="#231F20"/>
<path d="M45.9233 20.0914V22.0843C45.903 22.8095 45.4923 23.2608 44.7418 23.2608C43.8239 23.2608 43.5197 22.6573 43.5146 22.1147V20.0965C43.5146 19.919 43.4182 19.8582 43.332 19.7973H44.184C44.0978 19.8531 44.0014 19.9291 44.0014 20.0965V22.1198C43.9963 22.5965 44.1738 23.0427 44.7519 23.0427C45.33 23.0427 45.6698 22.6827 45.6748 22.0742V20.0965C45.6748 19.9241 45.5785 19.8582 45.4923 19.7973H46.1819C46.1008 19.8531 45.9182 19.9089 45.9182 20.0965L45.9233 20.0914Z" fill="#231F20"/>
<path d="M54.1938 23.1949C54.275 23.134 54.3764 23.0884 54.3764 22.8855V20.0965C54.3764 19.9292 54.2801 19.8531 54.1938 19.7922H55.0153C54.9342 19.8531 54.8328 19.8987 54.8328 20.0965V22.8855C54.8328 23.0782 54.9291 23.134 55.0153 23.1949H54.1938Z" fill="#231F20"/>
<path d="M53.5502 19.99H52.8656V22.8805C52.8656 23.0884 52.9619 23.129 53.0532 23.1898H52.2317C52.3128 23.134 52.4193 23.0935 52.4193 22.8805V19.99H51.7347C51.5065 19.99 51.3646 20.0813 51.3037 20.2436V19.7922H53.9863V20.2436C53.9203 20.0813 53.7834 19.99 53.5552 19.99H53.5502Z" fill="#231F20"/>
<path d="M60.1171 23.1949C59.8737 23.1949 59.6202 23.134 59.321 22.7334L58.4386 21.4606H58.6212C58.9711 21.4606 59.2906 21.1715 59.2906 20.705C59.2906 20.274 58.9812 20.0001 58.4944 20.0001H58.0735V22.8906C58.0735 22.9971 58.0735 23.0884 58.2561 23.1999H57.4346C57.5867 23.1239 57.6171 22.9971 57.6171 22.8906V20.1066C57.6171 19.9139 57.536 19.8429 57.4346 19.7973H58.6161C59.3768 19.7973 59.7774 20.1421 59.7774 20.6999C59.7774 21.0752 59.4782 21.4352 59.0319 21.5417C59.0319 21.5417 59.5847 22.3531 59.7317 22.561C60.0664 23.0427 60.6952 23.1949 60.6952 23.1949H60.1171Z" fill="#231F20"/>
<path d="M32.7439 22.5154C32.5867 22.8501 32.389 22.9515 32.0898 22.9515H30.9894V21.5469H31.9884C32.2723 21.5469 32.3078 21.7091 32.3687 21.8105V21.0702C32.3129 21.1716 32.2368 21.3288 31.9884 21.3288H30.9945V20.0408H32.0949C32.2267 20.0408 32.2876 20.0458 32.3586 20.0813C32.4701 20.1371 32.5411 20.2385 32.5665 20.34V19.7974H30.3149C30.3555 19.8176 30.4316 19.8633 30.4772 19.9444C30.5279 20.0306 30.5279 20.0966 30.5279 20.1625V23.2H32.5969L32.7439 22.5205V22.5154Z" fill="#231F20"/>
<path d="M36.1211 20.1574C36.1211 19.9901 36.1718 19.914 36.2377 19.8633L36.3341 19.7974H35.7459L34.61 22.4444L33.5603 19.7974H32.9771C32.9771 19.7974 33.0075 19.8176 33.0481 19.8481C33.0937 19.8836 33.1394 19.9343 33.1597 19.9901C33.1901 20.0611 33.1901 20.132 33.1901 20.1371L33.0684 22.7487C33.0532 22.987 32.9568 23.0834 32.8503 23.1645L32.8047 23.1949H33.5958C33.4791 23.1087 33.3371 23.0377 33.3321 22.7892L33.4436 20.6341L34.5187 23.3724L35.6698 20.6442L35.7966 22.84C35.8016 23.0327 35.6799 23.129 35.5836 23.2H36.4812L36.3848 23.129C36.329 23.0834 36.2783 23.0174 36.2682 22.8856L36.1313 20.1574H36.1211Z" fill="#231F20"/>
<path d="M55.3654 23.1949V20.1016C55.3654 19.8886 55.269 19.8582 55.1777 19.7922H57.1808V20.2486C57.1199 20.0864 56.9779 19.99 56.7548 19.99H55.8218V21.3287H56.7295C56.8917 21.3287 56.9424 21.2273 56.983 21.1563V21.704C56.9424 21.633 56.9171 21.5265 56.7295 21.5265H55.8218V22.992H56.8816C57.0794 22.992 57.2163 22.921 57.3177 22.6979L57.2213 23.1898H55.3654V23.1949Z" fill="#231F20"/>
<path fill-rule="evenodd" clip-rule="evenodd" d="M74.4427 19.7721V20.4516H71.7094V21.1463H74.4376V23.1697H71.0451V22.5003H73.7733V21.8106H71.04V19.7721H74.4376H74.4427Z" fill="#231F20"/>
<path fill-rule="evenodd" clip-rule="evenodd" d="M82.2925 19.7721V23.1697H85.6748V22.4952H82.9619V21.8056H85.6748V21.1413H82.9619V20.4465H85.6748V19.767H82.2975L82.2925 19.7721Z" fill="#231F20"/>
<path fill-rule="evenodd" clip-rule="evenodd" d="M63.5654 19.7722V23.1698H66.9376V22.5055H64.2348V21.8057H66.9427V21.1414H64.2348V20.4416H66.9478V19.7722H63.5705H63.5654Z" fill="#231F20"/>
<path fill-rule="evenodd" clip-rule="evenodd" d="M70.6851 23.1697H70.0157V20.4567H69.3058V23.1697H68.6618V20.4567H67.9518V23.1697H67.3027C67.3027 23.1697 67.3027 23.1443 67.3027 23.1291C67.3027 22.0185 67.3027 20.908 67.3027 19.7974C67.3027 19.7924 67.3027 19.7822 67.3027 19.7772H70.6902V23.1747L70.6851 23.1697Z" fill="#231F20"/>
<path fill-rule="evenodd" clip-rule="evenodd" d="M93.1239 19.7719V20.4362H90.4363V21.1411H93.1188V21.8104H90.4363V22.49H93.1188V23.1745H89.772V19.777H93.1239V19.7719Z" fill="#231F20"/>
<path fill-rule="evenodd" clip-rule="evenodd" d="M74.7979 19.7721V23.1646C74.7979 23.1646 75.239 23.1646 75.4672 23.1646V21.8056H78.1751V19.7721H74.8029H74.7979ZM77.5108 21.1413H75.4672V20.4567H77.5108V21.1413Z" fill="#231F20"/>
<path fill-rule="evenodd" clip-rule="evenodd" d="M78.535 23.1697H79.2146V21.8106H81.2582V23.1646H81.9326V19.767H81.2531V21.1362H79.2095V19.767H78.5249V23.1646L78.535 23.1697Z" fill="#231F20"/>
<path d="M88.1339 21.8155H89.4118V19.777H86.0244V23.1745H86.709V21.8155H87.1755L88.5853 23.1745H89.5437L88.139 21.8155H88.1339ZM86.6887 21.1411V20.4514H88.7475V21.1411H86.6887Z" fill="#231F20"/>
</g>
<defs>
<clipPath id="clip0_1255_29809">
<rect width="96.0649" height="25" fill="white"/>
</clipPath>
</defs>
</svg>
