<svg width="26" height="25" viewBox="0 0 26 25" fill="none" xmlns="http://www.w3.org/2000/svg">
<rect x="0.952637" width="25" height="25" rx="4" fill="black"/>
<path d="M12.1937 3.49396C8.41406 3.49396 5.3501 6.55792 5.3501 10.3376C5.3501 13.7096 7.78907 16.513 11.0002 17.0781H11.0015L11.6592 20.7808H12.7574L13.3895 17.077C16.6006 16.5109 19.0379 13.7096 19.0379 10.3376C19.0379 6.55792 15.9734 3.49396 12.1937 3.49396ZM12.1937 15.2649C9.47399 15.2649 7.26828 13.0592 7.26828 10.3384C7.26828 7.61758 9.47399 5.41079 12.1937 5.41079C13.5005 5.41079 14.7537 5.92989 15.6777 6.8539C16.6017 7.7779 17.1208 9.03113 17.1208 10.3379C17.1208 11.6446 16.6017 12.8978 15.6777 13.8218C14.7537 14.7458 13.5005 15.2649 12.1937 15.2649Z" fill="#FCB13C"/>
<path d="M9.125 18.3724H9.87608V20.2056H11.0483V20.8041H9.125V18.3724Z" fill="white"/>
<path d="M14.8352 19.0422H15.4666V20.7053L15.4685 20.7831C15.4689 20.8923 15.4448 21.0002 15.3981 21.0989C15.3554 21.1934 15.2912 21.2766 15.2107 21.3419C15.123 21.4085 15.0215 21.4546 14.9137 21.4769C14.7785 21.5058 14.6405 21.5195 14.5023 21.5177C14.1486 21.5177 13.9056 21.4647 13.7733 21.3587C13.7091 21.3082 13.6577 21.2433 13.6233 21.1692C13.5888 21.0951 13.5724 21.014 13.5752 20.9324C13.5752 20.9102 13.5752 20.8805 13.5784 20.843L14.2447 20.8514C14.242 20.9191 14.2612 21.0166 14.3098 21.0436C14.3655 21.0796 14.4309 21.0975 14.4972 21.0949C14.5943 21.0949 14.667 21.0689 14.715 21.0169C14.7631 20.9648 14.787 20.8744 14.7868 20.7455V20.4785C14.7238 20.5599 14.6425 20.6253 14.5495 20.6694C14.4565 20.7134 14.3544 20.735 14.2515 20.7323C14.0161 20.7323 13.8259 20.6295 13.681 20.424C13.5782 20.2778 13.5269 20.085 13.5269 19.8454C13.5269 19.5711 13.5932 19.3622 13.7258 19.2185C13.8585 19.0749 14.032 19.0029 14.2463 19.0026C14.3835 19.0026 14.4965 19.0258 14.5854 19.0722C14.6854 19.1285 14.7709 19.2074 14.8352 19.3025V19.0422ZM14.1332 19.8962C14.1332 20.0234 14.1602 20.1177 14.2142 20.1789C14.2414 20.2082 14.2745 20.2315 14.3112 20.2474C14.3479 20.2632 14.3875 20.2712 14.4275 20.2709C14.4675 20.2706 14.507 20.262 14.5435 20.2456C14.58 20.2292 14.6127 20.2053 14.6394 20.1756C14.6965 20.1119 14.7249 20.016 14.7247 19.8878C14.7246 19.7597 14.6948 19.6616 14.6354 19.5935C14.6088 19.5613 14.5753 19.5354 14.5375 19.5177C14.4996 19.5001 14.4582 19.4911 14.4164 19.4915C14.3771 19.49 14.338 19.4978 14.3023 19.514C14.2665 19.5303 14.2349 19.5546 14.2102 19.5852C14.1582 19.6478 14.1322 19.7515 14.1324 19.8962H14.1332Z" fill="white"/>
<path d="M15.8746 18.3724H16.5495V19.2677C16.6272 19.1829 16.7204 19.1137 16.8241 19.0638C16.9257 19.0208 17.0353 18.9999 17.1456 19.0026C17.3292 19.0026 17.4737 19.0584 17.5792 19.1699C17.6847 19.2815 17.7375 19.4525 17.7377 19.6829V20.802H17.0584V19.8349C17.0584 19.7242 17.0379 19.6459 16.9971 19.6003C16.9752 19.5767 16.9483 19.5582 16.9184 19.5462C16.8885 19.5341 16.8563 19.5288 16.8241 19.5306C16.786 19.5295 16.7481 19.5374 16.7136 19.5535C16.679 19.5696 16.6487 19.5936 16.6251 19.6235C16.5743 19.6852 16.549 19.7963 16.549 19.9567V20.8022H15.874L15.8746 18.3724Z" fill="white"/>
<path d="M18.9536 18.3724V19.0422H19.3251V19.5363H18.9536V20.1602C18.9536 20.2353 18.9608 20.285 18.9752 20.3093C19.0046 20.3851 19.26 20.3859 19.3531 20.3762V20.8244C18.9212 20.8654 18.6264 20.8422 18.5103 20.7785C18.4307 20.735 18.3684 20.6657 18.3337 20.5819C18.2954 20.4943 18.2763 20.3522 18.2765 20.1556V19.5363H18.0278V19.0422H18.2765V18.3724H18.9536Z" fill="white"/>
</svg>
