<svg width="36" height="36" viewBox="0 0 36 36" fill="none" xmlns="http://www.w3.org/2000/svg">
<g clip-path="url(#clip0_1143_2503)">
<path d="M19.1883 9.54141C18.8648 9.19687 18.4148 9 17.9438 9C17.4023 9.02109 16.9523 9.20391 16.6992 9.54844L10.5645 16.2984C10.1109 16.7977 9.99844 17.5078 10.2727 18.1195C10.5398 18.7313 11.1445 19.125 11.7492 19.125H15.6867L15.75 25.3125C15.75 26.2441 16.5059 27 17.4375 27H18.5625C19.4941 27 20.1867 26.2441 20.1867 25.3125V19.125H24.1242C24.7944 19.125 25.4011 18.7273 25.6711 18.1139C25.9391 17.4987 25.8182 16.7843 25.3633 16.2921L19.1883 9.54141ZM18 0C8.05781 0 0 8.05781 0 18C0 27.9422 8.05781 36 18 36C27.9422 36 36 27.9422 36 18C36 8.05781 27.9422 0 18 0ZM18 32.625C9.93516 32.625 3.375 26.0641 3.375 18C3.375 9.93586 9.93516 3.375 18 3.375C26.0648 3.375 32.625 9.93586 32.625 18C32.625 26.0641 26.0648 32.625 18 32.625Z" fill="white"/>
</g>
<defs>
<clipPath id="clip0_1143_2503">
<rect width="36" height="36" fill="white"/>
</clipPath>
</defs>
</svg>
