<svg width="22" height="24" viewBox="0 0 22 24" fill="none" xmlns="http://www.w3.org/2000/svg">
<path fill-rule="evenodd" clip-rule="evenodd" d="M14.9926 10.2426C13.8674 11.3679 12.3413 12 10.75 12C9.1587 12 7.63258 11.3679 6.50736 10.2426C5.38214 9.11742 4.75 7.5913 4.75 6C4.75 4.4087 5.38214 2.88258 6.50736 1.75736C7.63258 0.632141 9.1587 0 10.75 0C12.3413 0 13.8674 0.632141 14.9926 1.75736C16.1179 2.88258 16.75 4.4087 16.75 6C16.75 7.5913 16.1179 9.11742 14.9926 10.2426ZM2.25 17.1815C1.00287 18.6414 0.25 20.5364 0.25 22.6078C0.25 23.3766 0.873438 24 1.64219 24H2.25V17.1815ZM19.25 24H19.8578C20.6266 24 21.25 23.3766 21.25 22.6078C21.25 20.5364 20.4971 18.6414 19.25 17.1815V24ZM3.25 15.2C3.25 13.9866 4.09082 13 5.125 13H16.375C17.4092 13 18.25 13.9866 18.25 15.2V24H16.375V24H5.125V24H3.25V15.2ZM12.5775 19.0817C12.3002 19.4488 12.0215 19.8179 11.8864 20.25V20.2486H9.61364C9.47869 19.8139 9.19602 19.4406 8.91477 19.0701C8.84091 18.973 8.76705 18.876 8.69602 18.7775C8.41477 18.3893 8.25 17.9162 8.25 17.4062C8.25 16.0773 9.36932 15 10.75 15C12.1307 15 13.25 16.0773 13.25 17.4076C13.25 17.9176 13.0852 18.3893 12.804 18.7789C12.733 18.8773 12.6591 18.9744 12.5852 19.0715L12.5775 19.0817ZM11.8864 20.9062C11.8864 21.5105 11.3778 22 10.75 22C10.1222 22 9.61364 21.5105 9.61364 20.9062V20.6875H11.8864V20.9062ZM9.38636 17.625C9.51136 17.625 9.61364 17.5266 9.61364 17.4062C9.61364 16.802 10.1222 16.3125 10.75 16.3125C10.875 16.3125 10.9773 16.2141 10.9773 16.0938C10.9773 15.9734 10.875 15.875 10.75 15.875C9.87074 15.875 9.15909 16.56 9.15909 17.4062C9.15909 17.5266 9.26136 17.625 9.38636 17.625Z" fill="#8E8E8E"/>
</svg>
