<svg width="49" height="43" viewBox="0 0 49 43" fill="none" xmlns="http://www.w3.org/2000/svg">
<path d="M20.9844 12.3047C18.5755 12.9232 16.6549 14.1927 15.2227 16.1133C13.8229 18.0013 13.123 20.3288 13.123 23.0957H20.9844V42.4805H0.818359V24.2188C0.818359 21.9727 1.11133 19.5801 1.69727 17.041C2.2832 14.4694 3.32487 12.028 4.82227 9.7168C6.31966 7.4056 8.37044 5.37109 10.9746 3.61328C13.5788 1.85547 16.9154 0.651042 20.9844 0V12.3047ZM48.1816 12.3047C45.7728 12.9232 43.8522 14.1927 42.4199 16.1133C41.0202 18.0013 40.3203 20.3288 40.3203 23.0957H48.1816V42.4805H28.0156V24.2188C28.0156 21.9727 28.3086 19.5801 28.8945 17.041C29.4805 14.4694 30.5221 12.028 32.0195 9.7168C33.5169 7.4056 35.5677 5.37109 38.1719 3.61328C40.776 1.85547 44.1126 0.651042 48.1816 0V12.3047Z" fill="#534CFE"/>
</svg>
