<svg width="25" height="24" viewBox="0 0 25 24" fill="none" xmlns="http://www.w3.org/2000/svg">
<path fill-rule="evenodd" clip-rule="evenodd" d="M3.25 0C1.59531 0 0.25 1.34531 0.25 3V14.8096C1.41789 13.6888 3.00351 13 4.75 13C8.33985 13 11.25 15.9101 11.25 19.5C11.25 21.2465 10.5612 22.8321 9.44043 24H15.25C16.9047 24 18.25 22.6547 18.25 21V18.6875C18.0706 18.7918 17.8787 18.8749 17.6784 18.9345L14.1502 19.9726C13.9038 20.043 13.6369 19.9756 13.4551 19.7937C13.2733 19.6119 13.2058 19.3451 13.2791 19.0958L14.3174 15.5678C14.4405 15.1543 14.6634 14.776 14.9685 14.471L18.25 11.1883V7.5H12.25C11.4203 7.5 10.75 6.82969 10.75 6V0H3.25ZM12.25 6H18.25L12.25 0V6ZM2.90625 9C2.54381 9 2.25 9.33579 2.25 9.75C2.25 10.1642 2.54381 10.5 2.90625 10.5H8.59375C8.95619 10.5 9.25 10.1642 9.25 9.75C9.25 9.33579 8.95619 9 8.59375 9H2.90625ZM2.25 6.75C2.25 6.33579 2.54381 6 2.90625 6H8.59375C8.95619 6 9.25 6.33579 9.25 6.75C9.25 7.16421 8.95619 7.5 8.59375 7.5H2.90625C2.54381 7.5 2.25 7.16421 2.25 6.75ZM21.3416 9.36658L20.3952 10.3128L22.937 12.8545L23.8834 11.9082C24.3722 11.4194 24.3722 10.6276 23.8834 10.1388L23.113 9.36658C22.6242 8.87781 21.8323 8.87781 21.3435 9.36658H21.3416ZM19.9533 10.7547L15.3956 15.314C15.1923 15.5173 15.0437 15.7695 14.9616 16.0452L14.2694 18.3972C14.2205 18.5634 14.2655 18.7413 14.3867 18.8625C14.508 18.9837 14.6859 19.0287 14.8501 18.9818L17.2023 18.2897C17.478 18.2075 17.7302 18.059 17.9336 17.8556L22.4952 13.2963L19.9533 10.7547ZM9.22505 17.2545C9.28473 17.4245 9.23438 17.614 9.10569 17.7351L8.29815 18.5048C8.31867 18.6669 8.32985 18.833 8.32985 19.001C8.32985 19.169 8.31867 19.335 8.29815 19.4972L9.10569 20.2668C9.23438 20.388 9.28473 20.5775 9.22505 20.7474C9.14299 20.9799 9.04415 21.2026 8.93038 21.4175L8.84273 21.5757C8.71964 21.7906 8.58163 21.9937 8.43056 22.1852C8.32053 22.3258 8.13776 22.3727 7.97364 22.318L6.93484 21.9723C6.68493 22.1735 6.40891 22.3415 6.11424 22.4685L5.88112 23.5839C5.84382 23.7617 5.71327 23.9023 5.54169 23.9316C5.28432 23.9766 5.01949 24 4.74907 24C4.47864 24 4.21381 23.9766 3.95645 23.9316C3.78487 23.9023 3.65432 23.7617 3.61702 23.5839L3.38389 22.4685C3.08922 22.3415 2.8132 22.1735 2.5633 21.9723L1.52636 22.32C1.36224 22.3747 1.17947 22.3258 1.06944 22.1871C0.918372 21.9957 0.780362 21.7925 0.657273 21.5777L0.569618 21.4194C0.455853 21.2045 0.357009 20.9818 0.274949 20.7494C0.215269 20.5794 0.265624 20.3899 0.394309 20.2688L1.20185 19.4991C1.18134 19.335 1.17015 19.169 1.17015 19.001C1.17015 18.833 1.18134 18.6669 1.20185 18.5048L0.394309 17.7351C0.265624 17.614 0.215269 17.4245 0.274949 17.2545C0.357009 17.0221 0.455853 16.7994 0.569618 16.5845L0.657273 16.4263C0.780362 16.2114 0.918372 16.0082 1.06944 15.8168C1.17947 15.6761 1.36224 15.6292 1.52636 15.6839L2.56516 16.0297C2.81507 15.8285 3.09109 15.6605 3.38576 15.5335L3.61888 14.4181C3.65618 14.2403 3.78673 14.0996 3.95831 14.0703C4.21568 14.0234 4.48051 14 4.75093 14C5.02136 14 5.28619 14.0234 5.54356 14.0684C5.71513 14.0977 5.84568 14.2383 5.88298 14.4161L6.11611 15.5315C6.41078 15.6585 6.6868 15.8265 6.93671 16.0277L7.97551 15.682C8.13963 15.6273 8.32239 15.6761 8.43243 15.8148C8.58349 16.0063 8.7215 16.2094 8.84459 16.4243L8.93225 16.5825C9.04601 16.7974 9.14486 17.0201 9.22692 17.2526L9.22505 17.2545ZM4.75093 20.5638C5.14663 20.5638 5.52613 20.3991 5.80593 20.106C6.08574 19.813 6.24293 19.4155 6.24293 19.001C6.24293 18.5865 6.08574 18.189 5.80593 17.8959C5.52613 17.6028 5.14663 17.4382 4.75093 17.4382C4.35523 17.4382 3.97574 17.6028 3.69593 17.8959C3.41613 18.189 3.25894 18.5865 3.25894 19.001C3.25894 19.4155 3.41613 19.813 3.69593 20.106C3.97574 20.3991 4.35523 20.5638 4.75093 20.5638Z" fill="#8E8E8E"/>
</svg>
