<svg width="45" height="45" viewBox="0 0 45 45" fill="none" xmlns="http://www.w3.org/2000/svg">
<rect x="0.5" y="0.5" width="44" height="44" rx="22" stroke="white"/>
<path d="M32.7763 13.5H26.7981C24.7411 13.5 22.9536 14.9309 22.5046 16.9505C22.0513 14.9309 20.2681 13.5 18.2112 13.5H12.2372C11.104 13.5 10.1846 14.4238 10.1846 15.5625V26.1245C10.1846 27.2632 11.104 28.187 12.2372 28.187H16.0731C20.4435 28.187 21.7477 29.2355 22.3721 31.4098C22.402 31.5301 22.5944 31.5301 22.6286 31.4098C23.2573 29.2355 24.5615 28.187 28.9277 28.187H32.7635C33.8967 28.187 34.8161 27.2632 34.8161 26.1245V15.5668C34.8161 14.4324 33.9053 13.5086 32.7763 13.5ZM20.5333 24.9042C20.5333 24.9858 20.4691 25.0545 20.3836 25.0545H13.5286C13.4474 25.0545 13.379 24.9901 13.379 24.9042V23.9201C13.379 23.8385 13.4431 23.7698 13.5286 23.7698H20.3879C20.4691 23.7698 20.5375 23.8342 20.5375 23.9201V24.9042H20.5333ZM20.5333 22.2873C20.5333 22.3689 20.4691 22.4377 20.3836 22.4377H13.5286C13.4474 22.4377 13.379 22.3732 13.379 22.2873V21.3033C13.379 21.2217 13.4431 21.1529 13.5286 21.1529H20.3879C20.4691 21.1529 20.5375 21.2174 20.5375 21.3033V22.2873H20.5333ZM20.5333 19.6704C20.5333 19.7521 20.4691 19.8208 20.3836 19.8208H13.5286C13.4474 19.8208 13.379 19.7564 13.379 19.6704V18.6864C13.379 18.6048 13.4431 18.536 13.5286 18.536H20.3879C20.4691 18.536 20.5375 18.6005 20.5375 18.6864V19.6704H20.5333ZM31.6217 24.8999C31.6217 24.9815 31.5576 25.0502 31.4721 25.0502H24.6171C24.5359 25.0502 24.4675 24.9858 24.4675 24.8999V23.9159C24.4675 23.8342 24.5316 23.7655 24.6171 23.7655H31.4763C31.5576 23.7655 31.626 23.8299 31.626 23.9159V24.8999H31.6217ZM31.6217 22.283C31.6217 22.3646 31.5576 22.4334 31.4721 22.4334H24.6171C24.5359 22.4334 24.4675 22.3689 24.4675 22.283V21.299C24.4675 21.2174 24.5316 21.1486 24.6171 21.1486H31.4763C31.5576 21.1486 31.626 21.2131 31.626 21.299V22.283H31.6217ZM31.6217 19.6661C31.6217 19.7478 31.5576 19.8165 31.4721 19.8165H24.6171C24.5359 19.8165 24.4675 19.7521 24.4675 19.6661V18.6864C24.4675 18.6048 24.5316 18.536 24.6171 18.536H31.4763C31.5576 18.536 31.626 18.6005 31.626 18.6864V19.6661H31.6217Z" fill="white"/>
</svg>
