<svg width="91" height="41" viewBox="0 0 91 41" fill="none" xmlns="http://www.w3.org/2000/svg">
<g opacity="0.95">
<path d="M1.35873 25.9334C2.74619 25.7865 3.64396 25.5417 4.06836 25.1989C4.49276 24.8561 4.68864 23.942 4.68864 22.5382V5.57857C4.68864 4.19111 4.47644 3.29334 4.06836 2.88526C3.64396 2.49351 2.74622 2.23234 1.34244 2.15073V1.44884H11.6096C15.0538 1.44884 18.0082 2.02014 20.3914 3.16275C24.7007 5.20313 26.8554 8.8595 26.8554 14.1482C26.8554 16.0416 26.4636 17.8535 25.6964 19.5674C24.9292 21.2813 23.754 22.7178 22.2033 23.893C21.2076 24.6276 20.1955 25.1826 19.1182 25.5906C17.1758 26.3088 14.7926 26.6843 11.9361 26.6843H1.34244V25.9661H1.35873V25.9334ZM9.03058 24.9377C9.32439 25.1499 9.961 25.2315 10.9241 25.2315C13.8949 25.2315 16.3433 24.6602 18.2694 23.4686C21.2076 21.6568 22.693 18.5554 22.693 14.1808C22.693 10.2633 21.4851 7.32513 19.053 5.35005C16.9636 3.65245 14.205 2.81997 10.7772 2.81997C9.91204 2.81997 9.34073 2.91792 9.04692 3.09747C8.7531 3.27702 8.58988 3.70142 8.58988 4.3217V23.7135C8.58988 24.3338 8.7531 24.7255 9.04692 24.9377H9.03058Z" fill="white"/>
<path d="M28.8797 25.9335C30.4304 25.8192 31.4261 25.5907 31.8831 25.2316C32.3402 24.8888 32.585 23.9747 32.585 22.5056V5.54599C32.585 4.15853 32.3565 3.26075 31.8831 2.83635C31.4261 2.4446 30.4304 2.18343 28.8797 2.11814V1.41624H40.1589V2.11814C38.6082 2.18343 37.6125 2.4446 37.1555 2.83635C36.6985 3.22811 36.4536 4.12588 36.4536 5.54599V22.5056C36.4536 23.9584 36.6821 24.8888 37.1555 25.2316C37.6125 25.5744 38.6082 25.8029 40.1589 25.9335V26.6517H28.8797V25.9335Z" fill="white"/>
<path d="M41.3829 25.9342C42.8031 25.7873 43.7008 25.5424 44.1089 25.1996C44.5169 24.8569 44.7292 23.9428 44.7292 22.539V5.57935C44.7292 4.24086 44.5169 3.32676 44.1089 2.93501C43.6845 2.51061 42.7867 2.26577 41.3829 2.16783V1.46594H52.1235V2.16783C50.736 2.23313 49.7893 2.46164 49.2996 2.86971C48.8099 3.26147 48.5814 4.07763 48.5814 5.35082V23.649C48.5814 24.0734 48.6467 24.4161 48.7936 24.6447C48.9405 24.8732 49.2506 25.0364 49.7403 25.1017C50.0178 25.1507 50.3116 25.167 50.6381 25.167H52.4173C55.7962 25.167 58.0978 24.8895 59.2893 24.3345C60.4972 23.7795 61.6235 22.3431 62.7662 20.0416H63.7455L61.8847 26.6361H41.3829V25.9179H41.3666L41.3829 25.9342Z" fill="white"/>
<path d="M69.1981 4.25724C71.5323 2.00466 74.4378 0.894684 77.8657 0.894684C81.2935 0.894684 84.1827 2.0373 86.5332 4.27355C89.0796 6.72201 90.3528 9.97031 90.3528 14.0511C90.3528 18.1318 89.0306 21.4617 86.4189 23.9265C84.0521 26.0975 81.2119 27.1911 77.8657 27.1911C74.2909 27.1911 71.3364 25.9832 68.9696 23.5511C66.5864 21.07 65.3785 17.9196 65.3785 14.0511C65.3785 9.97031 66.6518 6.73834 69.1981 4.25724ZM72.0383 22.9471C73.6054 24.8732 75.5641 25.82 77.8493 25.82C80.1346 25.82 82.0117 24.8896 83.6114 23.0124C85.211 21.1353 85.9945 18.1645 85.9945 14.0511C85.9945 9.93766 85.1784 6.90157 83.5624 5.04074C81.9464 3.17991 80.0366 2.26583 77.8167 2.26583C75.5968 2.26583 73.6054 3.21257 72.0057 5.13869C70.4224 7.06481 69.6225 10.0193 69.6225 14.0347C69.6225 18.0502 70.406 21.0047 71.9894 22.9308H72.0383V22.9471Z" fill="white"/>
<path d="M0.918671 40.6736C1.31042 40.6246 1.53895 40.5593 1.63689 40.4451C1.73483 40.3308 1.78379 40.0696 1.78379 39.6616V35.3033C1.78379 34.9605 1.73481 34.732 1.62055 34.6014C1.50629 34.4872 1.27778 34.4219 0.918671 34.3892V34.2097H3.563C4.42812 34.2097 5.06472 34.3729 5.50544 34.6994C5.94617 35.0258 6.17469 35.4665 6.17469 35.9889C6.17469 36.6908 5.91351 37.1641 5.44014 37.4743C4.95045 37.7681 4.29753 37.9313 3.563 37.9313H2.77952V39.7595C2.77952 40.1349 2.84479 40.3798 2.95905 40.4777C3.07331 40.5757 3.3345 40.6409 3.74258 40.6573V40.8368H0.93501V40.6573H0.918671V40.6736ZM4.31389 34.7646C4.0364 34.6504 3.66095 34.5851 3.22023 34.5851C3.00803 34.5851 2.89375 34.5851 2.84478 34.6504C2.79581 34.6994 2.77952 34.7973 2.77952 34.9279V37.5396C2.95908 37.5396 3.07332 37.5559 3.12229 37.5559H3.28553C3.74258 37.5559 4.11798 37.4906 4.37915 37.3763C4.86884 37.1478 5.09737 36.6745 5.09737 36.0379C5.09737 35.4013 4.83623 34.9932 4.31389 34.7646Z" fill="white"/>
<path d="M6.45201 40.6736C6.84377 40.6246 7.07229 40.5593 7.17023 40.4451C7.26817 40.3308 7.31713 40.0696 7.31713 39.6616V35.3033C7.31713 34.9605 7.26815 34.732 7.15389 34.6014C7.03963 34.4872 6.81112 34.4219 6.45201 34.3892V34.2097H9.2269C9.79821 34.2097 10.2879 34.275 10.6633 34.4219C11.3979 34.6994 11.757 35.2054 11.757 35.9562C11.757 36.4623 11.5937 36.8377 11.2673 37.1152C10.9408 37.3927 10.5001 37.5559 9.94512 37.6538L12.0018 40.2002C12.1161 40.3635 12.263 40.4777 12.3772 40.543C12.4915 40.6083 12.6711 40.6573 12.867 40.6899V40.8695H11.251L8.75357 37.7681H8.31281V39.7758C8.31281 40.1513 8.36179 40.3798 8.47605 40.4777C8.59032 40.5757 8.81886 40.641 9.21061 40.6899V40.8695H6.40305V40.6899H6.45201V40.6736ZM9.91249 37.1968C10.4512 36.9846 10.7286 36.5765 10.7286 35.9726C10.7286 35.3686 10.5001 34.9932 10.0104 34.7973C9.74926 34.683 9.40648 34.6341 8.9984 34.6341C8.72091 34.6341 8.54133 34.6341 8.45972 34.6994C8.39442 34.7483 8.36178 34.8463 8.36178 34.9769V37.458C9.08 37.4416 9.61868 37.36 9.91249 37.2294V37.1968Z" fill="white"/>
<path d="M14.3527 34.9436C14.973 34.3397 15.7402 34.0622 16.6216 34.0622C17.5031 34.0622 18.2866 34.356 18.9068 34.96C19.5761 35.6129 19.9026 36.4617 19.9026 37.539C19.9026 38.6163 19.5598 39.4814 18.8579 40.1344C18.2376 40.7057 17.4868 40.9995 16.6053 40.9995C15.6586 40.9995 14.8914 40.673 14.2711 40.0527C13.6508 39.3998 13.3244 38.5673 13.3244 37.5553C13.3244 36.5433 13.6671 35.6292 14.3364 34.9763L14.3527 34.9436ZM15.1199 39.8732C15.5443 40.3792 16.0503 40.6404 16.6543 40.6404C17.2582 40.6404 17.7479 40.3792 18.1887 39.9058C18.6131 39.4161 18.8089 38.6326 18.8089 37.539C18.8089 36.4454 18.5967 35.6618 18.156 35.1558C17.7316 34.6661 17.2256 34.4213 16.6543 34.4213C16.083 34.4213 15.5443 34.6825 15.1199 35.1885C14.6955 35.6945 14.4996 36.478 14.4996 37.5227C14.4996 38.5673 14.7118 39.3509 15.1199 39.8569V39.8732Z" fill="white"/>
<path d="M20.4733 40.6733C20.8488 40.6243 21.0773 40.5591 21.1915 40.4611C21.3058 40.3632 21.3547 40.1347 21.3547 39.7592V35.2867C21.3547 34.9113 21.3058 34.6827 21.1915 34.5848C21.0773 34.4705 20.8488 34.4216 20.4733 34.4053V34.2257H23.183C24.0807 34.2257 24.8805 34.3726 25.5008 34.6664C26.6434 35.2051 27.2148 36.1681 27.2148 37.5556C27.2148 38.0616 27.1168 38.535 26.9209 38.992C26.7087 39.4491 26.4149 39.8245 25.9905 40.1346C25.7294 40.3142 25.4519 40.4774 25.1744 40.5754C24.6684 40.7549 24.0318 40.8529 23.2809 40.8529H20.4733V40.6733ZM22.481 40.4121C22.481 40.4121 22.7422 40.4774 22.987 40.4774C23.7705 40.4774 24.4235 40.3142 24.9295 40.0204C25.713 39.5307 26.0885 38.7309 26.0885 37.5719C26.0885 36.5273 25.762 35.7601 25.1091 35.2541C24.5541 34.8133 23.8358 34.5848 22.9381 34.5848C22.7096 34.5848 22.5626 34.6011 22.481 34.6501C22.4157 34.6991 22.3668 34.8133 22.3668 34.9766V40.102C22.3668 40.2652 22.4157 40.3795 22.481 40.4285V40.4121Z" fill="white"/>
<path d="M30.5453 34.2097V34.3893C30.1536 34.4056 29.9251 34.4872 29.8108 34.5688C29.6965 34.6668 29.6476 34.9116 29.6476 35.287V38.5027C29.6476 39.0413 29.7129 39.4331 29.8598 39.7269C30.1373 40.2656 30.6433 40.5431 31.3941 40.5431C32.2103 40.5431 32.7652 40.2656 33.0427 39.7106C33.206 39.4168 33.2713 38.9271 33.2713 38.2905V35.6788C33.2713 35.1238 33.206 34.7973 33.0917 34.6668C32.9448 34.5199 32.7163 34.4382 32.3572 34.4056V34.226H34.675V34.4056C34.2833 34.4546 34.0221 34.5525 33.9078 34.6831C33.7936 34.83 33.7283 35.1728 33.7283 35.6951V38.3068C33.7283 39.0087 33.614 39.531 33.4018 39.9228C33.0101 40.641 32.2592 40.9838 31.1492 40.9838C30.0393 40.9838 29.3211 40.641 28.9293 39.9228C28.7171 39.5474 28.6029 39.0413 28.6029 38.4211V35.2707C28.6029 34.8953 28.5539 34.6668 28.4397 34.5688C28.3254 34.4709 28.0969 34.4056 27.7051 34.3566V34.1771H30.578L30.5453 34.2097Z" fill="white"/>
<path d="M39.653 34.2583C40.0284 34.3726 40.2569 34.4215 40.3059 34.4215C40.4038 34.4215 40.4855 34.4052 40.5834 34.3562C40.6814 34.3073 40.7303 34.2093 40.763 34.0951H40.9752L41.0731 36.3477H40.8445C40.6976 35.9069 40.5508 35.5315 40.3059 35.254C39.8815 34.748 39.3265 34.4868 38.641 34.4868C37.9554 34.4868 37.3677 34.7643 36.927 35.3193C36.4863 35.8743 36.2578 36.6415 36.2578 37.6045C36.2578 38.5023 36.4863 39.2205 36.9597 39.7592C37.4167 40.2978 38.0207 40.5753 38.7389 40.5753C39.2449 40.5753 39.7346 40.4611 40.1753 40.1999C40.4365 40.053 40.714 39.8571 41.0078 39.547L41.1874 39.7265C40.9588 40.004 40.6813 40.2652 40.3549 40.4611C39.7999 40.8365 39.1796 40.9997 38.5267 40.9997C37.4331 40.9997 36.5842 40.6569 35.9476 39.955C35.3763 39.3348 35.0662 38.5186 35.0662 37.5719C35.0662 36.6251 35.36 35.76 35.9966 35.1234C36.6495 34.4215 37.4984 34.0788 38.543 34.0788C38.9185 34.0788 39.2776 34.1277 39.653 34.242V34.2583Z" fill="white"/>
<path d="M41.7097 34.2095H47.3902L47.4391 35.9234H47.2106C47.0964 35.3847 46.9331 35.0419 46.7699 34.8787C46.5903 34.7155 46.2149 34.6176 45.6273 34.6176H45.0723V39.7593C45.0723 40.1511 45.1376 40.3796 45.2519 40.4775C45.3661 40.5755 45.6436 40.6408 46.0354 40.6571V40.8366H43.1135V40.6571C43.5379 40.6408 43.8154 40.5591 43.8971 40.4449C43.995 40.3306 44.0602 40.0694 44.0602 39.6287V34.6012H43.5053C42.9503 34.6012 42.5749 34.6665 42.3627 34.8297C42.1505 34.993 42.0199 35.3358 41.9056 35.8744H41.6445L41.7097 34.1605H41.6934L41.7097 34.2095Z" fill="white"/>
<path d="M48.3039 38.8449C48.4671 39.2856 48.6793 39.661 48.9079 39.9385C49.2996 40.3956 49.8056 40.6404 50.3933 40.6404C50.7197 40.6404 50.9972 40.5425 51.2258 40.3466C51.4543 40.1344 51.5685 39.8569 51.5685 39.4815C51.5685 39.155 51.4543 38.8775 51.2258 38.6164C51.0625 38.4531 50.7361 38.2246 50.2464 37.9145L49.3812 37.3758C49.1201 37.2126 48.9242 37.0494 48.761 36.8861C48.4835 36.5597 48.3366 36.2169 48.3366 35.8414C48.3366 35.3354 48.4998 34.911 48.8426 34.5683C49.1854 34.2255 49.6261 34.0622 50.1811 34.0622C50.4096 34.0622 50.6871 34.1112 51.0136 34.2255C51.34 34.3397 51.5196 34.3887 51.5685 34.3887C51.6828 34.3887 51.7807 34.3724 51.8297 34.2907C51.8787 34.2255 51.9277 34.1438 51.944 34.0296H52.1562L52.3847 36.1679H52.1562C51.993 35.515 51.7318 35.0743 51.3727 34.8294C50.9972 34.5682 50.6545 34.454 50.3117 34.454C50.0342 34.454 49.8057 34.5193 49.5935 34.6825C49.3813 34.8457 49.2997 35.0743 49.2997 35.3517C49.2997 35.6129 49.3649 35.8414 49.5281 36.021C49.6914 36.2006 49.9199 36.3964 50.2627 36.5923L51.1441 37.1473C51.6991 37.4901 52.0909 37.8002 52.3031 38.0777C52.5316 38.3552 52.6295 38.698 52.6295 39.0897C52.6295 39.6284 52.4173 40.0691 52.0256 40.4119C51.6338 40.7547 51.1278 40.9506 50.4912 40.9506C50.1974 40.9506 49.8709 40.8853 49.5118 40.771C49.169 40.6567 48.9732 40.5914 48.9405 40.5914C48.8263 40.5914 48.761 40.6404 48.712 40.7057C48.663 40.771 48.6467 40.8526 48.6467 40.9342H48.4182L48.1244 38.7959H48.3529H48.3039V38.8449Z" fill="white"/>
<path d="M60.6278 34.2583C61.0032 34.3726 61.2317 34.4216 61.2807 34.4216C61.4276 34.4216 61.5419 34.4052 61.5745 34.3236C61.6235 34.2583 61.6888 34.1767 61.7378 34.0951H61.9663L62.0316 36.2008H61.8031C61.5909 35.7111 61.3786 35.3357 61.1501 35.1071C60.7583 34.6827 60.2524 34.4869 59.5994 34.4869C58.9465 34.4869 58.3915 34.748 57.9018 35.2214C57.4121 35.7111 57.1673 36.5109 57.1673 37.6372C57.1673 38.5676 57.4285 39.2858 57.9018 39.8082C58.3915 40.3142 58.9954 40.5917 59.7137 40.5917C59.8279 40.5917 59.9748 40.5917 60.1381 40.5754C60.3013 40.559 60.4645 40.5101 60.5951 40.4611C60.8236 40.3958 60.9869 40.3142 61.0359 40.2489C61.1012 40.1999 61.1338 40.102 61.1338 39.9877V38.3881C61.1338 37.9963 61.0848 37.7678 60.9706 37.6699C60.8563 37.5719 60.6278 37.5066 60.2524 37.4903V37.3108H62.8314V37.4903C62.5702 37.4903 62.407 37.5556 62.3417 37.6046C62.1948 37.7188 62.1295 37.931 62.1295 38.2575V40.2326C62.1295 40.3468 61.852 40.5101 61.2807 40.6896C60.7094 40.8692 60.1381 40.9834 59.6157 40.9834C58.6363 40.9834 57.8039 40.7059 57.1346 40.1183C56.4001 39.498 56.0247 38.6329 56.0247 37.5719C56.0247 36.6415 56.3185 35.8417 56.9061 35.1561C57.5591 34.4216 58.4079 34.0461 59.5015 34.0461C59.8933 34.0461 60.2687 34.0951 60.6604 34.2094H60.6441L60.6278 34.2583Z" fill="white"/>
<path d="M63.1254 40.6736C63.5171 40.6246 63.7457 40.5593 63.8436 40.4451C63.9415 40.3308 63.9905 40.0696 63.9905 39.6616V35.3033C63.9905 34.9605 63.9415 34.732 63.8273 34.6014C63.713 34.4872 63.4845 34.4219 63.1254 34.3892V34.2097H65.9003C66.4716 34.2097 66.9613 34.275 67.3367 34.4219C68.0712 34.6994 68.4304 35.2054 68.4304 35.9562C68.4304 36.4623 68.2671 36.8377 67.9407 37.1152C67.6142 37.3927 67.1735 37.5559 66.6185 37.6538L68.6752 40.2002C68.7895 40.3635 68.9363 40.4777 69.0506 40.543C69.1649 40.6083 69.3445 40.6573 69.5403 40.6899V40.8695H67.9244L65.4269 37.7681H64.9862V39.7758C64.9862 40.1513 65.0352 40.3798 65.1494 40.4777C65.2637 40.5757 65.4922 40.641 65.884 40.6899V40.8695H63.0764V40.6899H63.1254V40.6736ZM66.5532 37.1968C67.0918 36.9846 67.3693 36.5765 67.3693 35.9726C67.3693 35.3686 67.1408 34.9932 66.6511 34.7973C66.3899 34.683 66.0472 34.6341 65.6391 34.6341C65.3616 34.6341 65.1821 34.6341 65.1005 34.6994C65.0352 34.7483 65.0025 34.8463 65.0025 34.9769V37.458C65.7207 37.4416 66.2594 37.36 66.5532 37.2294V37.1968Z" fill="white"/>
<path d="M71.0256 34.9436C71.6458 34.3397 72.413 34.0622 73.2944 34.0622C74.1759 34.0622 74.9594 34.356 75.5796 34.96C76.2489 35.6129 76.5754 36.4617 76.5754 37.539C76.5754 38.6163 76.2326 39.4814 75.5307 40.1344C74.9104 40.7057 74.1596 40.9995 73.2781 40.9995C72.3314 40.9995 71.5642 40.673 70.9439 40.0527C70.3236 39.3998 69.9972 38.5673 69.9972 37.5553C69.9972 36.5433 70.34 35.6292 71.0092 34.9763L71.0256 34.9436ZM71.7764 39.8732C72.2008 40.3792 72.7068 40.6404 73.3108 40.6404C73.9147 40.6404 74.4044 40.3792 74.8451 39.9058C75.2695 39.4161 75.4654 38.6326 75.4654 37.539C75.4654 36.4454 75.2532 35.6618 74.8125 35.1558C74.3881 34.6661 73.8821 34.4213 73.3108 34.4213C72.7395 34.4213 72.2008 34.6825 71.7764 35.1885C71.352 35.6945 71.1561 36.478 71.1561 37.5227C71.1561 38.5673 71.3683 39.3509 71.7764 39.8569V39.8732Z" fill="white"/>
<path d="M79.9549 34.2097V34.3893C79.5631 34.4056 79.3346 34.4872 79.2203 34.5688C79.106 34.6668 79.0571 34.9116 79.0571 35.287V38.5027C79.0571 39.0413 79.1224 39.4331 79.2693 39.7269C79.5468 40.2656 80.0528 40.5431 80.8036 40.5431C81.6198 40.5431 82.1748 40.2656 82.4523 39.7106C82.6155 39.4168 82.6808 38.9271 82.6808 38.2905V35.6788C82.6808 35.1238 82.6155 34.7973 82.5013 34.6668C82.3544 34.5199 82.1258 34.4382 81.7667 34.4056V34.226H84.0846V34.4056C83.6928 34.4546 83.4317 34.5525 83.3174 34.6831C83.2032 34.83 83.1378 35.1728 83.1378 35.6951V38.3068C83.1378 39.0087 83.0236 39.531 82.8114 39.9228C82.4196 40.641 81.6688 40.9838 80.5588 40.9838C79.4488 40.9838 78.7306 40.641 78.3389 39.9228C78.1267 39.5474 78.0124 39.0413 78.0124 38.4211V35.2707C78.0124 34.8953 77.9634 34.6668 77.8492 34.5688C77.7349 34.4709 77.5064 34.4056 77.1146 34.3566V34.1771H79.9875L79.9549 34.2097Z" fill="white"/>
<path d="M84.3945 40.6736C84.7863 40.6246 85.0148 40.5593 85.1127 40.4451C85.2107 40.3308 85.2596 40.0696 85.2596 39.6616V35.3033C85.2596 34.9605 85.2106 34.732 85.0964 34.6014C84.9821 34.4872 84.7536 34.4219 84.3945 34.3892V34.2097H87.0388C87.9039 34.2097 88.5406 34.3729 88.9813 34.6994C89.422 35.0258 89.6505 35.4665 89.6505 35.9889C89.6505 36.6908 89.3893 37.1641 88.916 37.4743C88.4263 37.7681 87.7734 37.9313 87.0388 37.9313H86.2553V39.7595C86.2553 40.1349 86.3206 40.3798 86.4349 40.4777C86.5491 40.5757 86.8103 40.6409 87.2184 40.6573V40.8368H84.4108V40.6573H84.3945V40.6736ZM87.7897 34.7646C87.5122 34.6504 87.1368 34.5851 86.6961 34.5851C86.4839 34.5851 86.3696 34.5851 86.3206 34.6504C86.2716 34.6994 86.2553 34.7973 86.2553 34.9279V37.5396C86.4349 37.5396 86.5491 37.5559 86.5981 37.5559H86.7613C87.2184 37.5559 87.5938 37.4906 87.855 37.3763C88.3447 37.1478 88.5732 36.6745 88.5732 36.0379C88.5732 35.4013 88.312 34.9932 87.7897 34.7646Z" fill="white"/>
</g>
</svg>
