<svg width="117" height="117" viewBox="0 0 117 117" fill="none" xmlns="http://www.w3.org/2000/svg">
<circle cx="58.5" cy="58.5" r="58" stroke="#8E8E8E"/>
<path d="M71.5716 54.429C71.5716 54.7214 71.46 55.014 71.2367 55.2368L64.3796 62.0937C63.9332 62.5401 63.21 62.5401 62.7635 62.0937C62.3171 61.6473 62.3171 60.9241 62.7635 60.4777L68.8144 54.429L62.7644 48.3793C62.318 47.9329 62.318 47.2097 62.7644 46.7633C63.2109 46.3169 63.9341 46.3169 64.3805 46.7633L71.2376 53.6201C71.4609 53.8433 71.5716 54.1362 71.5716 54.429Z" fill="white"/>
<path d="M46.4284 54.429C46.4284 54.7214 46.54 55.014 46.7633 55.2368L53.6204 62.0937C54.0668 62.5401 54.79 62.5401 55.2365 62.0937C55.6829 61.6473 55.6829 60.9241 55.2365 60.4777L49.1856 54.429L55.2356 48.3793C55.682 47.9329 55.682 47.2097 55.2356 46.7633C54.7891 46.3169 54.0659 46.3169 53.6195 46.7633L46.7624 53.6201C46.5391 53.8433 46.4284 54.1362 46.4284 54.429Z" fill="white"/>
<path d="M76.1429 41.8571V65.8571H41.8571V41.8571H76.1429ZM41.8571 35C38.075 35 35 38.075 35 41.8571V65.8571C35 69.6393 38.075 72.7143 41.8571 72.7143H54.425L53.2786 76.1429H45.2857C43.3893 76.1429 41.8571 77.675 41.8571 79.5714C41.8571 81.4679 43.3893 83 45.2857 83H72.7143C74.6107 83 76.1429 81.4679 76.1429 79.5714C76.1429 77.675 74.6107 76.1429 72.7143 76.1429H64.7107L63.5643 72.7143H76.1429C79.925 72.7143 83 69.6393 83 65.8571V41.8571C83 38.075 79.925 35 76.1429 35H41.8571Z" fill="white"/>
</svg>
