<svg width="117" height="117" viewBox="0 0 117 117" fill="none" xmlns="http://www.w3.org/2000/svg">
<circle cx="58.5" cy="58.5" r="58" stroke="#8E8E8E"/>
<path fill-rule="evenodd" clip-rule="evenodd" d="M37.2857 35C34.9188 35 33 36.9188 33 39.2857V71.8571C33 74.2241 34.9188 76.1429 37.2857 76.1429H53.3421C55.709 76.1429 57.6278 74.2241 57.6278 71.8571V39.2857C57.6278 36.9188 55.709 35 53.3421 35H37.2857ZM36.4286 41.8571C35.9552 41.8571 35.5714 42.2409 35.5714 42.7143C35.5714 43.1877 35.9552 43.5714 36.4286 43.5714H53.5714C54.0448 43.5714 54.4286 43.1877 54.4286 42.7143C54.4286 42.2409 54.0448 41.8571 53.5714 41.8571H36.4286ZM35.5714 46.1429C35.5714 45.6695 35.9552 45.2857 36.4286 45.2857H53.5714C54.0448 45.2857 54.4286 45.6695 54.4286 46.1429C54.4286 46.6162 54.0448 47 53.5714 47H36.4286C35.9552 47 35.5714 46.6162 35.5714 46.1429ZM36.4286 48.7143C35.9552 48.7143 35.5714 49.098 35.5714 49.5714C35.5714 50.0448 35.9552 50.4286 36.4286 50.4286H53.5714C54.0448 50.4286 54.4286 50.0448 54.4286 49.5714C54.4286 49.098 54.0448 48.7143 53.5714 48.7143H36.4286ZM35.5714 57.2857C35.5714 56.8123 35.9552 56.4286 36.4286 56.4286H43.2857C43.7591 56.4286 44.1429 56.8123 44.1429 57.2857C44.1429 57.7591 43.7591 58.1429 43.2857 58.1429H36.4286C35.9552 58.1429 35.5714 57.7591 35.5714 57.2857ZM46.7143 56.4286C46.2409 56.4286 45.8571 56.8123 45.8571 57.2857C45.8571 57.7591 46.2409 58.1429 46.7143 58.1429H53.5714C54.0448 58.1429 54.4286 57.7591 54.4286 57.2857C54.4286 56.8123 54.0448 56.4286 53.5714 56.4286H46.7143ZM35.5714 60.7143C35.5714 60.2409 35.9552 59.8571 36.4286 59.8571H43.2857C43.7591 59.8571 44.1429 60.2409 44.1429 60.7143C44.1429 61.1877 43.7591 61.5714 43.2857 61.5714H36.4286C35.9552 61.5714 35.5714 61.1877 35.5714 60.7143ZM46.7143 59.8571C46.2409 59.8571 45.8571 60.2409 45.8571 60.7143C45.8571 61.1877 46.2409 61.5714 46.7143 61.5714H53.5714C54.0448 61.5714 54.4286 61.1877 54.4286 60.7143C54.4286 60.2409 54.0448 59.8571 53.5714 59.8571H46.7143ZM35.5714 64.1429C35.5714 63.6695 35.9552 63.2857 36.4286 63.2857H53.5714C54.0448 63.2857 54.4286 63.6695 54.4286 64.1429C54.4286 64.6162 54.0448 65 53.5714 65H36.4286C35.9552 65 35.5714 64.6162 35.5714 64.1429ZM59.5714 46.1429C59.5714 43.7759 61.4902 41.8571 63.8572 41.8571H79.9135C82.2804 41.8571 84.1992 43.7759 84.1992 46.1429V78.7143C84.1992 81.0812 82.2804 83 79.9135 83H63.8572C61.4902 83 59.5714 81.0812 59.5714 78.7143V46.1429ZM62.1429 49.5714C62.1429 49.098 62.5266 48.7143 63 48.7143C63.4734 48.7143 63.8572 49.098 63.8572 49.5714C63.8572 50.0448 63.4734 50.4286 63 50.4286C62.5266 50.4286 62.1429 50.0448 62.1429 49.5714ZM65.5714 48.7143C65.0981 48.7143 64.7143 49.098 64.7143 49.5714C64.7143 50.0448 65.0981 50.4286 65.5714 50.4286H80.1429C80.6163 50.4286 81 50.0448 81 49.5714C81 49.098 80.6163 48.7143 80.1429 48.7143H65.5714ZM62.1429 53C62.1429 52.5266 62.5266 52.1429 63 52.1429H80.1429C80.6163 52.1429 81 52.5266 81 53C81 53.4734 80.6163 53.8571 80.1429 53.8571H63C62.5266 53.8571 62.1429 53.4734 62.1429 53ZM63 55.5714C62.5266 55.5714 62.1429 55.9552 62.1429 56.4286C62.1429 56.902 62.5266 57.2857 63 57.2857H80.1429C80.6163 57.2857 81 56.902 81 56.4286C81 55.9552 80.6163 55.5714 80.1429 55.5714H63ZM62.1429 64.1429C62.1429 63.6695 62.5266 63.2857 63 63.2857H69.8572C70.3305 63.2857 70.7143 63.6695 70.7143 64.1429C70.7143 64.6162 70.3305 65 69.8572 65H63C62.5266 65 62.1429 64.6162 62.1429 64.1429ZM73.2857 63.2857C72.8123 63.2857 72.4286 63.6695 72.4286 64.1429C72.4286 64.6162 72.8123 65 73.2857 65H80.1429C80.6163 65 81 64.6162 81 64.1429C81 63.6695 80.6163 63.2857 80.1429 63.2857H73.2857ZM62.1429 67.5714C62.1429 67.098 62.5266 66.7143 63 66.7143H75C75.4734 66.7143 75.8572 67.098 75.8572 67.5714C75.8572 68.0448 75.4734 68.4286 75 68.4286H63C62.5266 68.4286 62.1429 68.0448 62.1429 67.5714ZM77.5714 66.7143C77.0981 66.7143 76.7143 67.098 76.7143 67.5714C76.7143 68.0448 77.0981 68.4286 77.5714 68.4286H80.1429C80.6163 68.4286 81 68.0448 81 67.5714C81 67.098 80.6163 66.7143 80.1429 66.7143H77.5714ZM62.1429 71C62.1429 70.5266 62.5266 70.1429 63 70.1429H80.1429C80.6163 70.1429 81 70.5266 81 71C81 71.4734 80.6163 71.8571 80.1429 71.8571H63C62.5266 71.8571 62.1429 71.4734 62.1429 71Z" fill="white"/>
</svg>
