<svg width="117" height="117" viewBox="0 0 117 117" fill="none" xmlns="http://www.w3.org/2000/svg">
<circle cx="58.5" cy="58.5" r="58" stroke="#8E8E8E"/>
<g clip-path="url(#clip0_1695_31780)">
<path d="M57.6594 35.3188C58.5031 34.897 59.4969 34.897 60.3406 35.3188L75.3406 42.8188C76.8219 43.5595 77.4219 45.3595 76.6813 46.8407C76.1562 47.8907 75.0969 48.5001 74 48.5001V56.0001C74 57.6595 72.6594 59.0001 71 59.0001H70.5406L73.5406 77.0001H80C81.6594 77.0001 83 78.3407 83 80.0001C83 81.6595 81.6594 83.0001 80 83.0001H71.0469C71.0094 83.0001 70.9719 83.0001 70.9437 83.0001H47.0563C47.0188 83.0001 46.9812 83.0001 46.9531 83.0001H38C36.3406 83.0001 35 81.6595 35 80.0001C35 78.3407 36.3406 77.0001 38 77.0001H44.4594L47.4594 59.0001H47C45.3406 59.0001 44 57.6595 44 56.0001V48.5001C42.9031 48.5001 41.8438 47.8907 41.3188 46.8407C40.5781 45.3595 41.1781 43.5595 42.6594 42.8188L57.6594 35.3188ZM64.4844 77.0001L59 72.4251L53.5156 77.0001H64.4844ZM53.5438 59.0001L53.1031 61.6532L59 66.5751L64.8969 61.6532L64.4563 59.0001H53.5438ZM52.2406 66.8001L51.1906 73.0813L55.4844 69.5001L52.2406 66.8001ZM62.5156 69.5001L66.8094 73.072L65.7594 66.7907L62.5156 69.5001ZM51.5 47.0001C50.675 47.0001 50 47.6751 50 48.5001C50 49.3251 50.675 50.0001 51.5 50.0001H66.5C67.325 50.0001 68 49.3251 68 48.5001C68 47.6751 67.325 47.0001 66.5 47.0001H51.5Z" fill="white"/>
</g>
<defs>
<clipPath id="clip0_1695_31780">
<rect width="48" height="48" fill="white" transform="translate(35 35)"/>
</clipPath>
</defs>
</svg>
