<svg width="117" height="117" viewBox="0 0 117 117" fill="none" xmlns="http://www.w3.org/2000/svg">
<circle cx="58.5" cy="58.5" r="58" stroke="#8E8E8E"/>
<path d="M76.1895 36.8228C76.1895 35.8161 77.0055 35 78.0122 35C79.0189 35 79.835 35.8161 79.835 36.8228V81.1772C79.835 82.1839 79.0189 83 78.0122 83C77.0055 83 76.1895 82.1839 76.1895 81.1772V36.8228Z" fill="white"/>
<path d="M21 49.8354C21 49.374 21.8954 49 23 49C24.1046 49 25 49.374 25 49.8354V70.1646C25 70.626 24.1046 71 23 71C21.8954 71 21 70.626 21 70.1646V49.8354Z" fill="white"/>
<path d="M91.3937 49.2914C91.8623 48.8228 92.5307 48.7314 92.8866 49.0873C93.2426 49.4432 93.1512 50.1117 92.6826 50.5803L90.137 53.1259C89.6683 53.5945 88.9999 53.6859 88.644 53.33C88.2881 52.974 88.3794 52.3056 88.8481 51.837L91.3937 49.2914Z" fill="white"/>
<path d="M92.8 58.9744C93.4627 58.9744 94 59.3824 94 59.8858C94 60.3891 93.4627 60.7972 92.8 60.7972L89.2 60.7971C88.5373 60.7971 88 60.3891 88 59.8858C88 59.3824 88.5373 58.9744 89.2 58.9744L92.8 58.9744Z" fill="white"/>
<path d="M91.3937 70.4803C91.8623 70.949 92.5307 71.0403 92.8866 70.6844C93.2426 70.3285 93.1512 69.6601 92.6826 69.1914L90.137 66.6458C89.6683 66.1772 88.9999 66.0858 88.644 66.4418C88.2881 66.7977 88.3794 67.4661 88.8481 67.9347L91.3937 70.4803Z" fill="white"/>
<path fill-rule="evenodd" clip-rule="evenodd" d="M74.9747 35L23.3291 53.2278V66.8987L42.5432 72.776C42.2976 73.5063 42.1645 74.2882 42.1645 75.1013C42.1645 79.128 45.4289 82.3924 49.4557 82.3924C52.8109 82.3924 55.6367 80.1261 56.486 77.0408L74.9747 82.6962V35ZM46.0329 73.8434L52.9963 75.9734C52.6054 77.5656 51.1685 78.7468 49.4557 78.7468C47.4423 78.7468 45.8101 77.1147 45.8101 75.1013C45.8101 74.6592 45.8888 74.2355 46.0329 73.8434Z" fill="white"/>
</svg>
