<svg width="117" height="117" viewBox="0 0 117 117" fill="none" xmlns="http://www.w3.org/2000/svg">
<circle cx="58.5" cy="58.5" r="58" stroke="#8E8E8E"/>
<path d="M59.3187 42.9875L50.2438 50.3375C48.7344 51.5562 48.4438 53.75 49.5875 55.3156C50.7969 56.9844 53.15 57.3125 54.7719 56.0469L64.0813 48.8094C64.7375 48.3031 65.675 48.4156 66.1906 49.0719C66.7063 49.7281 66.5844 50.6656 65.9281 51.1812L63.9688 52.7L80.5813 68H84.5C86.9844 68 89 65.9844 89 63.5V51.5C89 49.0156 86.9844 47 84.5 47H77.375H77H76.9344L76.5687 46.7656L69.7625 42.4062C68.3281 41.4875 66.65 41 64.9437 41C62.9 41 60.9125 41.7031 59.3187 42.9875ZM61.4563 54.65L56.6094 58.4187C53.6562 60.725 49.3719 60.125 47.1594 57.0875C45.0781 54.2281 45.6031 50.2344 48.35 48.0125L56.15 41.7031C55.0625 41.2437 53.8906 41.0094 52.7 41.0094C50.9375 41 49.2219 41.525 47.75 42.5L41 47H33.5C31.0156 47 29 49.0156 29 51.5V63.5C29 65.9844 31.0156 68 33.5 68H43.6437L52.2125 75.8187C54.05 77.4969 56.8906 77.3656 58.5687 75.5281C59.0844 74.9562 59.4312 74.2906 59.6094 73.5969L61.2031 75.0594C63.0312 76.7375 65.8812 76.6156 67.5594 74.7875C67.9812 74.3281 68.2906 73.7937 68.4875 73.2406C70.3063 74.4594 72.7812 74.2062 74.3094 72.5375C75.9875 70.7094 75.8656 67.8594 74.0375 66.1812L61.4563 54.65Z" fill="white"/>
</svg>
