<svg width="117" height="117" viewBox="0 0 117 117" fill="none" xmlns="http://www.w3.org/2000/svg">
<circle cx="58.5" cy="58.5" r="58" stroke="#8E8E8E"/>
<g clip-path="url(#clip0_1695_31771)">
<path d="M59 35C60.6594 35 62 36.3406 62 38V41.2531C69.5375 42.5094 75.4906 48.4625 76.7469 56H80C81.6594 56 83 57.3406 83 59C83 60.6594 81.6594 62 80 62H76.7469C75.4906 69.5375 69.5375 75.4906 62 76.7469V80C62 81.6594 60.6594 83 59 83C57.3406 83 56 81.6594 56 80V76.7469C48.4625 75.4906 42.5094 69.5375 41.2531 62H38C36.3406 62 35 60.6594 35 59C35 57.3406 36.3406 56 38 56H41.2531C42.5094 48.4625 48.4625 42.5094 56 41.2531V38C56 36.3406 57.3406 35 59 35ZM47 59C47 62.1826 48.2643 65.2348 50.5147 67.4853C52.7652 69.7357 55.8174 71 59 71C62.1826 71 65.2348 69.7357 67.4853 67.4853C69.7357 65.2348 71 62.1826 71 59C71 55.8174 69.7357 52.7652 67.4853 50.5147C65.2348 48.2643 62.1826 47 59 47C55.8174 47 52.7652 48.2643 50.5147 50.5147C48.2643 52.7652 47 55.8174 47 59ZM59 51.5C60.9891 51.5 62.8968 52.2902 64.3033 53.6967C65.7098 55.1032 66.5 57.0109 66.5 59C66.5 60.9891 65.7098 62.8968 64.3033 64.3033C62.8968 65.7098 60.9891 66.5 59 66.5C57.0109 66.5 55.1032 65.7098 53.6967 64.3033C52.2902 62.8968 51.5 60.9891 51.5 59C51.5 57.0109 52.2902 55.1032 53.6967 53.6967C55.1032 52.2902 57.0109 51.5 59 51.5Z" fill="white"/>
</g>
<defs>
<clipPath id="clip0_1695_31771">
<rect width="48" height="48" fill="white" transform="translate(35 35)"/>
</clipPath>
</defs>
</svg>
