<svg width="117" height="117" viewBox="0 0 117 117" fill="none" xmlns="http://www.w3.org/2000/svg">
<circle cx="58.5" cy="58.5" r="58" stroke="#8E8E8E"/>
<g clip-path="url(#clip0_1695_31683)">
<path d="M61.925 35.4502C62.225 35.2627 62.5438 35.1408 62.8625 35.0658C63.3031 34.9721 63.7625 34.9814 64.1844 35.0752C64.9062 35.2439 65.5719 35.6846 66.0031 36.3502L77.2437 53.2064C78.0687 54.4346 78.5 55.8877 78.5 57.3689V64.2596C78.5 64.9064 78.9125 65.4783 79.5219 65.6845L86.9469 68.1595C88.175 68.5627 89 69.7064 89 71.0002V80.0002C89 80.9283 88.5687 81.8095 87.8281 82.3814C87.0875 82.9533 86.1312 83.1408 85.2312 82.897L69.4062 78.6783C64.1562 77.2814 60.5 72.5189 60.5 67.0814V56.0002C60.5 54.3408 61.8406 53.0002 63.5 53.0002C65.1594 53.0002 66.5 54.3408 66.5 56.0002V63.5002C66.5 64.3252 67.175 65.0002 68 65.0002C68.825 65.0002 69.5 64.3252 69.5 63.5002V55.5408C69.5 54.8846 69.3313 54.2471 69.0031 53.6846L60.9031 39.5096C60.7437 39.2283 60.6313 38.9377 60.5656 38.6377C60.4719 38.1971 60.4719 37.7377 60.575 37.3158C60.7531 36.5658 61.2125 35.8908 61.9156 35.4502H61.925ZM56.075 35.4502C56.7781 35.8814 57.2375 36.5658 57.4156 37.3158C57.5188 37.7471 57.5281 38.1971 57.425 38.6377C57.3594 38.9377 57.2469 39.2283 57.0875 39.5096L48.9969 53.6846C48.6688 54.2471 48.5 54.8939 48.5 55.5408V63.5002C48.5 64.3252 49.175 65.0002 50 65.0002C50.825 65.0002 51.5 64.3252 51.5 63.5002V56.0002C51.5 54.3408 52.8406 53.0002 54.5 53.0002C56.1594 53.0002 57.5 54.3408 57.5 56.0002V67.0908C57.5 72.5283 53.8438 77.2814 48.5938 78.6877L32.7781 82.9064C31.8781 83.1502 30.9125 82.9533 30.1813 82.3908C29.45 81.8283 29 80.9377 29 80.0002V71.0002C29 69.7064 29.825 68.5627 31.0531 68.1502L38.4781 65.6752C39.0875 65.4689 39.5 64.897 39.5 64.2502V57.3596C39.5 55.8783 39.9406 54.4346 40.7563 53.1971L51.9875 36.3596C52.4187 35.6939 53.0844 35.2533 53.8063 35.0846C54.2375 34.9814 54.6875 34.9721 55.1281 35.0752C55.4563 35.1502 55.775 35.2721 56.0656 35.4596L56.075 35.4502Z" fill="white"/>
</g>
<defs>
<clipPath id="clip0_1695_31683">
<rect width="60" height="48" fill="white" transform="translate(29 35)"/>
</clipPath>
</defs>
</svg>
