<svg width="43" height="42" viewBox="0 0 43 42" fill="none" xmlns="http://www.w3.org/2000/svg">
<path d="M18.7002 18.4587L17.6992 21.6542H21.0295L20.0092 18.4587C19.8062 17.82 19.6295 17.1182 19.4667 16.476L19.3547 16.0332H19.3162C19.2509 16.2922 19.1844 16.5635 19.1167 16.847C18.9872 17.3895 18.8525 17.953 18.7002 18.4587Z" fill="white"/>
<path fill-rule="evenodd" clip-rule="evenodd" d="M12.3486 5.38919C18.4316 4.71532 24.5705 4.71532 30.6536 5.38919C33.9768 5.76019 36.6561 8.37645 37.0463 11.7119C37.7672 17.8801 37.7672 24.1113 37.0463 30.2794C36.6561 33.6149 33.9768 36.2312 30.6553 36.6039C24.5717 37.278 18.4322 37.278 12.3486 36.6039C9.02531 36.2312 6.34606 33.6149 5.95581 30.2812C5.23478 24.1124 5.23478 17.8807 5.95581 11.7119C6.34606 8.37645 9.02531 5.76019 12.3486 5.38919ZM28.3821 17.7459V27.1207H25.9951V17.7459H28.3821ZM25.8621 15.1279C25.8621 14.3964 26.3993 13.8382 27.1886 13.8382C27.9988 13.8382 28.4993 14.3964 28.5186 15.1279C28.5186 15.8402 27.9971 16.3984 27.1711 16.3984C26.3818 16.3984 25.8621 15.8402 25.8621 15.1279ZM22.6106 27.1207L21.4363 23.4439H17.3168L16.2003 27.1207H13.7556L17.9136 14.1462H20.9358L25.1516 27.1207H22.6106Z" fill="white"/>
</svg>
