<svg width="43" height="42" viewBox="0 0 43 42" fill="none" xmlns="http://www.w3.org/2000/svg">
<g clip-path="url(#clip0_2_4656)">
<path d="M21.5 -0.00390625C9.90275 -0.00390625 0.5 9.39884 0.5 20.9961C0.5 32.5933 9.90275 41.9961 21.5 41.9961C33.0972 41.9961 42.5 32.5933 42.5 20.9961C42.5 9.39884 33.0972 -0.00390625 21.5 -0.00390625ZM12.6835 13.4361C14.003 13.4361 15.0232 14.3968 15.1422 15.5361C15.263 16.5563 14.843 17.4558 13.7038 17.9966C13.1035 18.2958 12.8637 18.2976 12.743 18.1173C12.6835 17.9966 12.743 17.8776 12.8638 17.7568C13.9435 16.8573 13.9435 16.1363 13.8228 15.1178C13.7632 14.4563 13.2838 14.0363 12.8025 14.0363C10.7025 14.0363 7.703 18.7158 8.123 22.1371C8.30325 23.4566 9.08375 25.0176 10.7638 25.0176C11.3027 25.0176 11.9012 24.8373 12.4437 24.5976C13.3187 24.1356 13.842 23.7751 14.3635 23.1976C14.2358 21.6488 15.5955 19.6171 17.6027 19.6171C18.504 19.6171 19.2232 19.9758 19.2827 20.6373C19.4018 21.5368 18.623 21.6558 18.3832 21.6558C18.1435 21.6558 17.7217 21.5963 17.7217 21.3583C17.6622 21.1168 18.2625 21.2358 18.203 20.6968C18.1418 20.3363 17.783 20.2173 17.4225 20.2173C16.1625 20.2173 15.4432 21.9568 15.6217 23.0366C15.683 23.5178 15.9228 23.9973 16.404 23.9973C16.7628 23.9973 17.3035 23.4548 17.4837 22.6761C17.6028 22.1371 18.084 21.7766 18.504 21.7766C18.6825 21.7766 18.8015 21.8361 18.8628 22.0758V22.3173C18.8032 22.5571 18.623 23.2763 18.6842 23.4566C18.6842 23.5773 18.7437 23.7558 18.9818 23.7558C19.1427 23.7558 19.7448 23.4408 20.3415 22.9526C20.5463 21.9201 20.7842 20.6811 20.7842 20.5778C20.8438 20.1578 21.024 19.7378 21.864 19.7378C22.0443 19.7378 22.1632 19.7973 22.2227 20.0371V20.2786L21.9848 21.3583C22.7635 20.3381 23.9045 19.6188 24.6237 19.6188C24.9247 19.6188 25.1645 19.7973 25.1645 20.0983C25.1645 20.2786 25.1645 20.5778 25.0437 20.8788C24.804 21.5386 24.503 22.5588 24.3228 23.4583C24.3228 23.6981 24.384 23.9378 24.685 23.9378C24.986 23.9378 25.8838 23.5773 26.603 22.6183L26.6152 22.6113C26.6117 22.4923 26.603 22.3768 26.603 22.2578C26.603 21.5386 26.6643 20.9383 26.785 20.5183C26.904 20.0388 27.5042 19.6188 27.8647 19.6188C28.045 19.6188 28.2235 19.7396 28.2235 19.9181C28.2235 19.9793 28.2235 20.0983 28.164 20.1578C27.9242 20.9383 27.744 21.6576 27.744 22.3786C27.744 22.7986 27.8035 23.3971 27.9225 23.7576C27.9225 23.8171 27.9837 23.8783 28.045 23.8783C28.164 23.8783 29.004 23.0996 29.6025 22.0793C29.0635 21.7188 28.7625 21.1186 28.7625 20.3993C28.7625 19.1393 29.543 18.4796 30.264 18.4796C30.8642 18.4796 31.3438 18.8996 31.3438 19.7396C31.3438 20.2786 31.1635 20.8771 30.8643 21.4196H31.0427C31.2331 21.4258 31.4226 21.3916 31.5988 21.3192C31.7749 21.2468 31.9338 21.1378 32.0648 20.9996C32.1204 20.9092 32.2022 20.8378 32.2992 20.7948C32.8855 20.0511 33.7517 19.4998 34.7668 19.4998C35.6068 19.4998 36.3838 19.8586 36.445 20.5183C36.564 21.4196 35.7835 21.5998 35.5438 21.5998L35.5403 21.5963C35.2988 21.5963 34.8805 21.5351 34.8805 21.2953C34.8805 21.0556 35.4212 21.1763 35.36 20.6373C35.3005 20.2768 34.94 20.1561 34.5795 20.1561C33.379 20.1561 32.602 21.7153 32.7805 22.9753C32.84 23.4566 33.0798 23.9956 33.5592 23.9956C33.9198 23.9956 34.4605 23.4566 34.7002 22.6761C34.8192 22.1966 35.3005 21.7766 35.7205 21.7766C35.9007 21.7766 36.018 21.8361 36.0793 22.0758C36.0793 22.1966 36.0793 22.4363 35.8395 23.2168C35.542 23.7558 35.5402 24.0568 35.5997 24.2966C35.6592 24.7761 35.899 25.1366 36.1405 25.3168C36.2 25.3763 36.2595 25.4953 36.2595 25.4953C36.2595 25.6161 36.2 25.7368 36.0198 25.7368C35.9603 25.7368 35.9007 25.7368 35.8395 25.6756C34.94 25.3168 34.5795 24.7166 34.4588 24.1163C34.1 24.5363 33.68 24.7761 33.1987 24.7761C32.42 24.7761 31.6413 24.0568 31.5188 23.1556C31.4839 22.772 31.5286 22.3854 31.65 22.0198C31.2947 22.2473 30.9115 22.3751 30.5597 22.3751H30.2622C29.48 23.5161 28.64 24.2966 28.0398 24.6553C27.8358 24.7636 27.6106 24.8258 27.38 24.8373C27.261 24.8373 27.0807 24.7761 27.0212 24.6553C26.855 24.3893 26.7482 23.9693 26.6835 23.4881C25.8417 24.4103 24.6798 24.8968 24.1407 24.8968C23.5405 24.8968 23.1817 24.5363 23.1222 23.9343V23.2763C23.3008 21.9568 23.782 21.1763 23.782 20.9366C23.7804 20.9049 23.7672 20.875 23.7449 20.8524C23.7226 20.8298 23.6929 20.8162 23.6612 20.8141C23.2412 20.8141 21.8623 22.2561 21.6208 23.2168L21.4405 23.9956C21.3215 24.5363 20.7808 24.8968 20.422 24.8968C20.2417 24.8968 20.121 24.8356 20.0615 24.5958V24.3561L20.142 23.9483C19.3808 24.4908 18.6195 24.8373 18.2607 24.8373C17.7218 24.8373 17.4207 24.5363 17.3612 24.1163C17.0007 24.5958 16.5825 24.8373 16.0417 24.8373C15.4257 24.8373 14.8238 24.4173 14.5332 23.7996C14.1062 24.2808 13.618 24.7673 13.0422 25.1366C12.2022 25.6773 11.2432 26.0973 10.1023 26.0973C9.08375 26.0973 8.1825 25.5566 7.703 25.0771C6.982 24.4173 6.56375 23.3971 6.5025 22.4363C6.14375 19.4963 7.94275 15.7163 10.7025 14.0363C11.364 13.6776 12.0237 13.4361 12.6835 13.4361ZM29.781 19.1953C29.599 19.1953 29.48 19.4963 29.48 19.7956C29.48 20.2751 29.7197 20.8158 30.0207 21.1168C30.1394 20.7898 30.1999 20.4445 30.1993 20.0966C30.1993 19.4963 29.9613 19.1953 29.781 19.1953Z" fill="white"/>
</g>
<defs>
<clipPath id="clip0_2_4656">
<rect width="42" height="42" fill="white" transform="translate(0.5 -0.00390625)"/>
</clipPath>
</defs>
</svg>
