<svg width="43" height="42" viewBox="0 0 43 42" fill="none" xmlns="http://www.w3.org/2000/svg">
<path d="M21.2827 0.220215V27.3444M21.2827 27.3444V33.7266C21.2827 34.9889 20.9128 36.2228 20.2197 37.2723C19.5267 38.3219 18.5416 39.1399 17.3891 39.6229C16.2366 40.106 14.9684 40.2324 13.7448 39.9861C12.5213 39.7399 11.3975 39.132 10.5154 38.2395C9.63326 37.3469 9.03254 36.2097 8.78917 34.9717C8.54579 33.7337 8.6707 32.4504 9.14809 31.2842C9.62548 30.1181 10.4339 29.1213 11.4712 28.42C12.5084 27.7187 13.7279 27.3444 14.9753 27.3444M21.2827 27.3444H14.9753M14.9753 27.3444C13.3025 27.3444 11.6982 26.672 10.5154 25.4751C9.3325 24.2782 8.66797 22.6549 8.66797 20.9623C8.66797 19.2696 9.3325 17.6463 10.5154 16.4494C11.6982 15.2525 13.3025 14.5801 14.9753 14.5801M14.9753 14.5801H21.2827M14.9753 14.5801H27.5901M14.9753 14.5801C13.3025 14.5801 11.6982 13.9077 10.5154 12.7108C9.3325 11.5139 8.66797 9.89058 8.66797 8.19792C8.66797 6.50527 9.3325 4.88194 10.5154 3.68505C11.6982 2.48816 13.3025 1.81576 14.9753 1.81576H27.5901C29.2629 1.81576 30.8672 2.48816 32.0501 3.68505C33.233 4.88194 33.8975 6.50527 33.8975 8.19792C33.8975 9.89058 33.233 11.5139 32.0501 12.7108C30.8672 13.9077 29.2629 14.5801 27.5901 14.5801M27.5901 14.5801C29.2629 14.5801 30.8672 15.2525 32.0501 16.4494C33.233 17.6463 33.8975 19.2696 33.8975 20.9623C33.8975 22.6549 33.233 24.2782 32.0501 25.4751C30.8672 26.672 29.2629 27.3444 27.5901 27.3444C25.9173 27.3444 24.313 26.672 23.1301 25.4751C21.9473 24.2782 21.2827 22.6549 21.2827 20.9623C21.2827 19.2696 21.9473 17.6463 23.1301 16.4494C24.313 15.2525 25.9173 14.5801 27.5901 14.5801Z" stroke="white" stroke-width="3.44531"/>
</svg>
