<svg width="43" height="42" viewBox="0 0 43 42" fill="none" xmlns="http://www.w3.org/2000/svg">
<path d="M26.273 10.4961H36.773L26.273 -0.00390625V10.4961ZM26.273 11.7683H25.0008V-0.00390625H9.09327C7.50952 -0.00390625 6.22852 1.27709 6.22852 2.85909V39.1331C6.22852 40.7151 7.50952 41.9961 9.09152 41.9961H33.91C35.492 41.9961 36.773 40.7151 36.773 39.1331V11.7683H26.273ZM14.3433 30.3026C14.155 30.3025 13.9687 30.2653 13.7949 30.1932C13.621 30.121 13.4631 30.0154 13.3301 29.8822C13.1971 29.749 13.0916 29.591 13.0197 29.417C12.9477 29.2431 12.9108 29.0567 12.9109 28.8685C12.911 28.6803 12.9482 28.4939 13.0203 28.3201C13.0925 28.1462 13.1981 27.9883 13.3313 27.8553C13.4645 27.7223 13.6225 27.6168 13.7965 27.5449C13.9704 27.4729 14.1568 27.436 14.345 27.4361C14.7251 27.4361 15.0897 27.5871 15.3585 27.8559C15.6273 28.1247 15.7783 28.4892 15.7783 28.8693C15.7783 29.2495 15.6273 29.614 15.3585 29.8828C15.0897 30.1516 14.7234 30.3026 14.3433 30.3026ZM14.3433 24.5748C14.1509 24.5814 13.9593 24.5493 13.7797 24.4802C13.6 24.4111 13.4362 24.3066 13.2978 24.1728C13.1595 24.0391 13.0495 23.8788 12.9744 23.7017C12.8993 23.5245 12.8607 23.334 12.8608 23.1416C12.8609 22.9491 12.8998 22.7587 12.9751 22.5816C13.0504 22.4045 13.1606 22.2444 13.2991 22.1108C13.4376 21.9772 13.6016 21.8729 13.7813 21.8041C13.961 21.7352 14.1527 21.7033 14.345 21.7101C14.7162 21.7231 15.0679 21.8797 15.326 22.1469C15.584 22.4141 15.7282 22.771 15.7282 23.1425C15.7282 23.5139 15.584 23.8709 15.326 24.1381C15.0679 24.4053 14.7145 24.5619 14.3433 24.5748ZM14.3433 18.8488C14.155 18.8487 13.9687 18.8115 13.7949 18.7394C13.621 18.6673 13.4631 18.5616 13.3301 18.4284C13.1971 18.2953 13.0916 18.1372 13.0197 17.9633C12.9477 17.7893 12.9108 17.6029 12.9109 17.4147C12.911 17.2265 12.9482 17.0401 13.0203 16.8663C13.0925 16.6925 13.1981 16.5345 13.3313 16.4015C13.4645 16.2685 13.6225 16.163 13.7965 16.0911C13.9704 16.0192 14.1568 15.9822 14.345 15.9823C14.7251 15.9823 15.0897 16.1333 15.3585 16.4021C15.6273 16.6709 15.7783 17.0355 15.7783 17.4156C15.7783 17.7957 15.6273 18.1603 15.3585 18.4291C15.0897 18.6978 14.7234 18.8488 14.3433 18.8488ZM30.0933 30.0646H18.1618V27.6776H30.0933V30.0646ZM30.0933 24.3368H18.1618V21.9498H30.0933V24.3368ZM30.0933 18.6091H18.1618V16.2238H30.0933V18.6091Z" fill="white"/>
</svg>
