<svg width="43" height="42" viewBox="0 0 43 42" fill="none" xmlns="http://www.w3.org/2000/svg">
<g clip-path="url(#clip0_2_4661)">
<path d="M28.6583 26.7238H14.3433V18.6091H28.6583V26.7238ZM31.6823 11.8086H36.7748V39.1331C36.7748 40.7151 35.492 41.9961 33.91 41.9961H9.09152C8.71554 41.9961 8.34325 41.922 7.99589 41.7782C7.64854 41.6343 7.33292 41.4234 7.06707 41.1575C6.53015 40.6206 6.22852 39.8924 6.22852 39.1331V2.85909C6.22852 1.27709 7.50952 -0.00390625 9.09152 -0.00390625H24.9605V11.8086H31.6823ZM31.047 16.2238H11.9545V29.1091H31.047V16.2238ZM26.273 5.76059V10.4961H36.7748L26.2748 -0.00390625L26.273 5.76059Z" fill="white"/>
</g>
<defs>
<clipPath id="clip0_2_4661">
<rect width="42" height="42" fill="white" transform="translate(0.5 -0.00390625)"/>
</clipPath>
</defs>
</svg>
