<svg width="46" height="47" viewBox="0 0 46 47" fill="none" xmlns="http://www.w3.org/2000/svg">
<path fill-rule="evenodd" clip-rule="evenodd" d="M8.85714 7.61719C7.27919 7.61719 6 8.89637 6 10.4743V32.1886C6 33.7666 7.27918 35.0458 8.85714 35.0458H19.5614C21.1393 35.0458 22.4185 33.7666 22.4185 32.1886V10.4743C22.4185 8.89637 21.1393 7.61719 19.5614 7.61719H8.85714ZM8.28572 12.1886C7.97012 12.1886 7.71429 12.4445 7.71429 12.76C7.71429 13.0756 7.97012 13.3315 8.28572 13.3315H19.7143C20.0299 13.3315 20.2857 13.0756 20.2857 12.76C20.2857 12.4445 20.0299 12.1886 19.7143 12.1886H8.28572ZM7.71429 15.0458C7.71429 14.7302 7.97012 14.4743 8.28572 14.4743H19.7143C20.0299 14.4743 20.2857 14.7302 20.2857 15.0458C20.2857 15.3614 20.0299 15.6172 19.7143 15.6172H8.28572C7.97012 15.6172 7.71429 15.3614 7.71429 15.0458ZM8.28572 16.76C7.97012 16.76 7.71429 17.0159 7.71429 17.3315C7.71429 17.6471 7.97012 17.9029 8.28572 17.9029H19.7143C20.0299 17.9029 20.2857 17.6471 20.2857 17.3315C20.2857 17.0159 20.0299 16.76 19.7143 16.76H8.28572ZM7.71429 22.4743C7.71429 22.1587 7.97012 21.9029 8.28572 21.9029H12.8571C13.1727 21.9029 13.4286 22.1587 13.4286 22.4743C13.4286 22.7899 13.1727 23.0458 12.8571 23.0458H8.28572C7.97012 23.0458 7.71429 22.7899 7.71429 22.4743ZM15.1429 21.9029C14.8273 21.9029 14.5714 22.1587 14.5714 22.4743C14.5714 22.7899 14.8273 23.0458 15.1429 23.0458H19.7143C20.0299 23.0458 20.2857 22.7899 20.2857 22.4743C20.2857 22.1587 20.0299 21.9029 19.7143 21.9029H15.1429ZM7.71429 24.76C7.71429 24.4445 7.97012 24.1886 8.28572 24.1886H12.8571C13.1727 24.1886 13.4286 24.4445 13.4286 24.76C13.4286 25.0756 13.1727 25.3315 12.8571 25.3315H8.28572C7.97012 25.3315 7.71429 25.0756 7.71429 24.76ZM15.1429 24.1886C14.8273 24.1886 14.5714 24.4445 14.5714 24.76C14.5714 25.0756 14.8273 25.3315 15.1429 25.3315H19.7143C20.0299 25.3315 20.2857 25.0756 20.2857 24.76C20.2857 24.4445 20.0299 24.1886 19.7143 24.1886H15.1429ZM7.71429 27.0458C7.71429 26.7302 7.97012 26.4743 8.28572 26.4743H19.7143C20.0299 26.4743 20.2857 26.7302 20.2857 27.0458C20.2857 27.3614 20.0299 27.6172 19.7143 27.6172H8.28572C7.97012 27.6172 7.71429 27.3614 7.71429 27.0458ZM23.7143 15.0458C23.7143 13.4678 24.9935 12.1886 26.5714 12.1886H37.2757C38.8536 12.1886 40.1328 13.4678 40.1328 15.0458V36.76C40.1328 38.338 38.8536 39.6172 37.2757 39.6172H26.5714C24.9935 39.6172 23.7143 38.338 23.7143 36.76V15.0458ZM25.4286 17.3315C25.4286 17.0159 25.6844 16.76 26 16.76C26.3156 16.76 26.5714 17.0159 26.5714 17.3315C26.5714 17.6471 26.3156 17.9029 26 17.9029C25.6844 17.9029 25.4286 17.6471 25.4286 17.3315ZM27.7143 16.76C27.3987 16.76 27.1429 17.0159 27.1429 17.3315C27.1429 17.6471 27.3987 17.9029 27.7143 17.9029H37.4286C37.7442 17.9029 38 17.6471 38 17.3315C38 17.0159 37.7442 16.76 37.4286 16.76H27.7143ZM25.4286 19.6172C25.4286 19.3016 25.6844 19.0458 26 19.0458H37.4286C37.7442 19.0458 38 19.3016 38 19.6172C38 19.9328 37.7442 20.1886 37.4286 20.1886H26C25.6844 20.1886 25.4286 19.9328 25.4286 19.6172ZM26 21.3315C25.6844 21.3315 25.4286 21.5873 25.4286 21.9029C25.4286 22.2185 25.6844 22.4743 26 22.4743H37.4286C37.7442 22.4743 38 22.2185 38 21.9029C38 21.5873 37.7442 21.3315 37.4286 21.3315H26ZM25.4286 27.0458C25.4286 26.7302 25.6844 26.4743 26 26.4743H30.5714C30.887 26.4743 31.1429 26.7302 31.1429 27.0458C31.1429 27.3614 30.887 27.6172 30.5714 27.6172H26C25.6844 27.6172 25.4286 27.3614 25.4286 27.0458ZM32.8572 26.4743C32.5416 26.4743 32.2857 26.7302 32.2857 27.0458C32.2857 27.3614 32.5416 27.6172 32.8572 27.6172H37.4286C37.7442 27.6172 38 27.3614 38 27.0458C38 26.7302 37.7442 26.4743 37.4286 26.4743H32.8572ZM25.4286 29.3315C25.4286 29.0159 25.6844 28.76 26 28.76H34C34.3156 28.76 34.5714 29.0159 34.5714 29.3315C34.5714 29.6471 34.3156 29.9029 34 29.9029H26C25.6844 29.9029 25.4286 29.6471 25.4286 29.3315ZM35.7143 28.76C35.3987 28.76 35.1429 29.0159 35.1429 29.3315C35.1429 29.6471 35.3987 29.9029 35.7143 29.9029H37.4286C37.7442 29.9029 38 29.6471 38 29.3315C38 29.0159 37.7442 28.76 37.4286 28.76H35.7143ZM25.4286 31.6172C25.4286 31.3016 25.6844 31.0458 26 31.0458H37.4286C37.7442 31.0458 38 31.3016 38 31.6172C38 31.9328 37.7442 32.1886 37.4286 32.1886H26C25.6844 32.1886 25.4286 31.9328 25.4286 31.6172Z" fill="white"/>
</svg>
