<svg width="46" height="47" viewBox="0 0 46 47" fill="none" xmlns="http://www.w3.org/2000/svg">
<g clip-path="url(#clip0_2366_31183)">
<path d="M6.0125 12.1609C6.00625 12.1111 6 12.055 6 12.0052C6 11.9989 6 11.9989 6 11.9927C6 11.4446 6.45 10.9961 7 10.9961C7.05625 10.9961 7.11875 11.0023 7.175 11.0086C7.64375 11.0833 8 11.4944 8 11.9865C8 12.5346 7.55 12.9831 7 12.9831C6.50625 12.9831 6.09375 12.6281 6.0125 12.1609ZM3 11.9865C3 13.6621 4.03125 15.0947 5.5 15.6802V22.2455C4.03125 22.831 3 24.2636 3 25.9392C3 28.138 4.79375 29.9257 7 29.9257C8.68125 29.9257 10.1188 28.8979 10.7063 27.4341H23.2938C23.8875 28.8979 25.325 29.9257 27 29.9257C29.2062 29.9257 31 28.138 31 25.9392C31 24.2636 29.9688 22.831 28.5 22.2455V15.6802C29.9688 15.0885 31 13.6558 31 11.9865C31 9.78769 29.2062 8 27 8C25.3188 8 23.8813 9.02777 23.2938 10.4916H10.7063C10.1188 9.02777 8.68125 8 7 8C4.79375 8 3 9.78769 3 11.9865ZM26 11.9865C26 11.7222 26.1054 11.4687 26.2929 11.2818C26.4804 11.0949 26.7348 10.9899 27 10.9899C27.2652 10.9899 27.5196 11.0949 27.7071 11.2818C27.8946 11.4687 28 11.7222 28 11.9865C28 12.2508 27.8946 12.5043 27.7071 12.6912C27.5196 12.8781 27.2652 12.9831 27 12.9831C26.7348 12.9831 26.4804 12.8781 26.2929 12.6912C26.1054 12.5043 26 12.2508 26 11.9865ZM23.2938 13.4814C23.7 14.478 24.5 15.2816 25.5 15.6802V22.2455C24.5 22.6503 23.6938 23.4476 23.2938 24.4443H10.7063C10.3 23.4476 9.5 22.6441 8.5 22.2455V15.6802C9.5 15.2753 10.3063 14.478 10.7063 13.4814H23.2938ZM27 24.9426C27.2652 24.9426 27.5196 25.0476 27.7071 25.2345C27.8946 25.4214 28 25.6749 28 25.9392C28 26.2035 27.8946 26.457 27.7071 26.6439C27.5196 26.8308 27.2652 26.9358 27 26.9358C26.7348 26.9358 26.4804 26.8308 26.2929 26.6439C26.1054 26.457 26 26.2035 26 25.9392C26 25.6749 26.1054 25.4214 26.2929 25.2345C26.4804 25.0476 26.7348 24.9426 27 24.9426ZM8 25.9392C8 26.4313 7.64375 26.8424 7.175 26.9234C7.125 26.9296 7.06875 26.9358 7.01875 26.9358H7.00625C6.45625 26.9358 6.00625 26.4873 6.00625 25.9392C6.00625 25.8831 6.0125 25.8208 6.01875 25.7648C6.09375 25.2976 6.50625 24.9426 7 24.9426C7.55 24.9426 8 25.391 8 25.9392ZM32.4562 23.4476H35.2938C35.7 24.4443 36.5 25.2478 37.5 25.6464V32.2117C36.5 32.6166 35.6938 33.4139 35.2938 34.4105H22.7062C22.3 33.4139 21.5 32.6103 20.5 32.2117V29.9257H17.5V32.2117C16.0312 32.8034 15 34.2361 15 35.9054C15 38.1042 16.7937 39.8919 19 39.8919C20.6812 39.8919 22.1187 38.8641 22.7062 37.4003H35.2938C35.8875 38.8641 37.325 39.8919 39 39.8919C41.2062 39.8919 43 38.1042 43 35.9054C43 34.2298 41.9688 32.7972 40.5 32.2117V25.6464C41.9688 25.0547 43 23.622 43 21.9527C43 19.7539 41.2062 17.9662 39 17.9662C37.3187 17.9662 35.8813 18.994 35.2938 20.4578H31V21.4793C31.6125 22.0274 32.1125 22.6939 32.4562 23.4476ZM38.0125 21.7845C38.0306 21.6516 38.0753 21.5238 38.1441 21.4085C38.2129 21.2933 38.3044 21.1931 38.413 21.1139C38.5215 21.0348 38.645 20.9782 38.7761 20.9477C38.9071 20.9172 39.0429 20.9134 39.1755 20.9365C39.308 20.9595 39.4345 21.009 39.5474 21.082C39.6603 21.1549 39.7573 21.2498 39.8325 21.361C39.9077 21.4721 39.9597 21.5973 39.9852 21.7289C40.0108 21.8606 40.0094 21.996 39.9813 22.1271C39.9632 22.26 39.9184 22.3879 39.8496 22.5031C39.7808 22.6183 39.6894 22.7185 39.5808 22.7977C39.4722 22.8769 39.3487 22.9334 39.2177 22.9639C39.0867 22.9944 38.9508 22.9982 38.8183 22.9752C38.6858 22.9521 38.5592 22.9026 38.4463 22.8297C38.3334 22.7567 38.2365 22.6619 38.1612 22.5507C38.086 22.4395 38.0341 22.3144 38.0085 22.1827C37.9829 22.0511 37.9843 21.9156 38.0125 21.7845ZM19.9875 36.0736C19.9694 36.2065 19.9247 36.3343 19.8559 36.4496C19.7871 36.5648 19.6956 36.665 19.587 36.7442C19.4785 36.8234 19.355 36.8799 19.2239 36.9104C19.0929 36.9409 18.9571 36.9447 18.8245 36.9216C18.692 36.8986 18.5655 36.8491 18.4526 36.7762C18.3397 36.7032 18.2427 36.6083 18.1675 36.4972C18.0923 36.386 18.0403 36.2608 18.0148 36.1292C17.9892 35.9975 17.9906 35.8621 18.0188 35.731C18.0368 35.5981 18.0816 35.4702 18.1504 35.355C18.2192 35.2398 18.3106 35.1396 18.4192 35.0604C18.5278 34.9812 18.6513 34.9247 18.7823 34.8942C18.9133 34.8637 19.0492 34.8599 19.1817 34.8829C19.3142 34.906 19.4408 34.9555 19.5537 35.0284C19.6665 35.1014 19.7635 35.1963 19.8388 35.3074C19.914 35.4186 19.9659 35.5437 19.9915 35.6754C20.0171 35.807 20.0157 35.9425 19.9875 36.0736ZM38.8312 36.8833C38.3625 36.8024 38.0062 36.3913 38.0062 35.8992C38.0062 35.351 38.4562 34.9026 39.0062 34.9026C39.5 34.9026 39.9125 35.2576 39.9938 35.7248V35.731C40 35.7871 40.0062 35.8431 40.0062 35.8992C40.0062 36.4473 39.5562 36.8958 39.0062 36.8958C38.95 36.8958 38.8875 36.8896 38.8312 36.8833Z" fill="white"/>
</g>
<defs>
<clipPath id="clip0_2366_31183">
<rect width="40" height="31.8919" fill="white" transform="translate(3 8)"/>
</clipPath>
</defs>
</svg>
