<svg width="46" height="47" viewBox="0 0 46 47" fill="none" xmlns="http://www.w3.org/2000/svg">
<path d="M31.3804 20.9527C31.3804 21.1476 31.306 21.3427 31.1572 21.4912L26.5858 26.0624C26.2881 26.36 25.806 26.36 25.5084 26.0624C25.2108 25.7648 25.2108 25.2827 25.5084 24.9851L29.5423 20.9527L25.509 16.9195C25.2113 16.6219 25.2113 16.1398 25.509 15.8422C25.8066 15.5446 26.2887 15.5446 26.5863 15.8422L31.1578 20.4134C31.3066 20.5622 31.3804 20.7574 31.3804 20.9527Z" fill="white"/>
<path d="M14.6196 20.9527C14.6196 21.1476 14.694 21.3427 14.8428 21.4912L19.4142 26.0624C19.7119 26.36 20.194 26.36 20.4916 26.0624C20.7892 25.7648 20.7892 25.2827 20.4916 24.9851L16.4577 20.9527L20.491 16.9195C20.7887 16.6219 20.7887 16.1398 20.491 15.8422C20.1934 15.5446 19.7113 15.5446 19.4137 15.8422L14.8422 20.4134C14.6934 20.5622 14.6196 20.7574 14.6196 20.9527Z" fill="white"/>
<path d="M34.4286 12.5714V28.5714H11.5714V12.5714H34.4286ZM11.5714 8C9.05 8 7 10.05 7 12.5714V28.5714C7 31.0929 9.05 33.1429 11.5714 33.1429H19.95L19.1857 35.4286H13.8571C12.5929 35.4286 11.5714 36.45 11.5714 37.7143C11.5714 38.9786 12.5929 40 13.8571 40H32.1429C33.4071 40 34.4286 38.9786 34.4286 37.7143C34.4286 36.45 33.4071 35.4286 32.1429 35.4286H26.8071L26.0429 33.1429H34.4286C36.95 33.1429 39 31.0929 39 28.5714V12.5714C39 10.05 36.95 8 34.4286 8H11.5714Z" fill="white"/>
</svg>
