<svg width="46" height="47" viewBox="0 0 46 47" fill="none" xmlns="http://www.w3.org/2000/svg">
<g clip-path="url(#clip0_2140_15422)">
<path d="M22.1062 7.82959C22.6687 7.54834 23.3312 7.54834 23.8937 7.82959L33.8937 12.8296C34.8812 13.3233 35.2812 14.5233 34.7875 15.5108C34.4375 16.2108 33.7313 16.6171 33 16.6171V21.6171C33 22.7233 32.1063 23.6171 31 23.6171H30.6938L32.6938 35.6171H37C38.1063 35.6171 39 36.5108 39 37.6171C39 38.7233 38.1063 39.6171 37 39.6171H31.0312C31.0063 39.6171 30.9812 39.6171 30.9625 39.6171H15.0375C15.0125 39.6171 14.9875 39.6171 14.9688 39.6171H9C7.89375 39.6171 7 38.7233 7 37.6171C7 36.5108 7.89375 35.6171 9 35.6171H13.3063L15.3062 23.6171H15C13.8938 23.6171 13 22.7233 13 21.6171V16.6171C12.2688 16.6171 11.5625 16.2108 11.2125 15.5108C10.7188 14.5233 11.1187 13.3233 12.1062 12.8296L22.1062 7.82959ZM26.6562 35.6171L23 32.5671L19.3438 35.6171H26.6562ZM19.3625 23.6171L19.0688 25.3858L23 28.6671L26.9312 25.3858L26.6375 23.6171H19.3625ZM18.4937 28.8171L17.7937 33.0046L20.6562 30.6171L18.4937 28.8171ZM25.3438 30.6171L28.2062 32.9983L27.5063 28.8108L25.3438 30.6171ZM18 15.6171C17.45 15.6171 17 16.0671 17 16.6171C17 17.1671 17.45 17.6171 18 17.6171H28C28.55 17.6171 29 17.1671 29 16.6171C29 16.0671 28.55 15.6171 28 15.6171H18Z" fill="white"/>
</g>
<defs>
<clipPath id="clip0_2140_15422">
<rect width="32" height="32" fill="white" transform="translate(7 7.61719)"/>
</clipPath>
</defs>
</svg>
