<svg width="38" height="38" viewBox="0 0 38 38" fill="none" xmlns="http://www.w3.org/2000/svg">
<g clip-path="url(#clip0_2366_30510)">
<path d="M19 0C20.3137 0 21.375 1.06133 21.375 2.375V4.95039C27.3422 5.94492 32.0551 10.6578 33.0496 16.625H35.625C36.9387 16.625 38 17.6863 38 19C38 20.3137 36.9387 21.375 35.625 21.375H33.0496C32.0551 27.3422 27.3422 32.0551 21.375 33.0496V35.625C21.375 36.9387 20.3137 38 19 38C17.6863 38 16.625 36.9387 16.625 35.625V33.0496C10.6578 32.0551 5.94492 27.3422 4.95039 21.375H2.375C1.06133 21.375 0 20.3137 0 19C0 17.6863 1.06133 16.625 2.375 16.625H4.95039C5.94492 10.6578 10.6578 5.94492 16.625 4.95039V2.375C16.625 1.06133 17.6863 0 19 0ZM9.5 19C9.5 21.5196 10.5009 23.9359 12.2825 25.7175C14.0641 27.4991 16.4804 28.5 19 28.5C21.5196 28.5 23.9359 27.4991 25.7175 25.7175C27.4991 23.9359 28.5 21.5196 28.5 19C28.5 16.4804 27.4991 14.0641 25.7175 12.2825C23.9359 10.5009 21.5196 9.5 19 9.5C16.4804 9.5 14.0641 10.5009 12.2825 12.2825C10.5009 14.0641 9.5 16.4804 9.5 19ZM19 13.0625C20.5747 13.0625 22.0849 13.6881 23.1984 14.8016C24.3119 15.9151 24.9375 17.4253 24.9375 19C24.9375 20.5747 24.3119 22.0849 23.1984 23.1984C22.0849 24.3119 20.5747 24.9375 19 24.9375C17.4253 24.9375 15.9151 24.3119 14.8016 23.1984C13.6881 22.0849 13.0625 20.5747 13.0625 19C13.0625 17.4253 13.6881 15.9151 14.8016 14.8016C15.9151 13.6881 17.4253 13.0625 19 13.0625Z" fill="white"/>
</g>
<defs>
<clipPath id="clip0_2366_30510">
<rect width="38" height="38" fill="white"/>
</clipPath>
</defs>
</svg>
