<svg width="46" height="47" viewBox="0 0 46 47" fill="none" xmlns="http://www.w3.org/2000/svg">
<path d="M31.5938 12.5286C31.5938 12.0252 32.0018 11.6172 32.5051 11.6172C33.0085 11.6172 33.4165 12.0252 33.4165 12.5286V34.7058C33.4165 35.2091 33.0085 35.6172 32.5051 35.6172C32.0018 35.6172 31.5938 35.2091 31.5938 34.7058V12.5286Z" fill="white"/>
<path d="M4 19.0349C4 18.8042 4.44772 18.6172 5 18.6172C5.55228 18.6172 6 18.8042 6 19.0349V29.1995C6 29.4302 5.55228 29.6172 5 29.6172C4.44772 29.6172 4 29.4302 4 29.1995V19.0349Z" fill="white"/>
<path d="M39.3937 13.4657C39.8623 12.9971 40.5307 12.9057 40.8866 13.2616C41.2426 13.6176 41.1512 14.286 40.6826 14.7546L38.137 17.3002C37.6683 17.7688 36.9999 17.8602 36.644 17.5043C36.2881 17.1484 36.3794 16.4799 36.8481 16.0113L39.3937 13.4657Z" fill="white"/>
<path d="M40.8 23.1487C41.4627 23.1487 42 23.5567 42 24.0601C42 24.5634 41.4627 24.9715 40.8 24.9715L37.2 24.9715C36.5373 24.9715 36 24.5634 36 24.0601C36 23.5567 36.5373 23.1487 37.2 23.1487L40.8 23.1487Z" fill="white"/>
<path d="M39.3937 34.6546C39.8623 35.1233 40.5307 35.2146 40.8866 34.8587C41.2426 34.5028 41.1512 33.8344 40.6826 33.3657L38.137 30.8202C37.6683 30.3515 36.9999 30.2602 36.644 30.6161C36.2881 30.972 36.3794 31.6404 36.8481 32.1091L39.3937 34.6546Z" fill="white"/>
<path fill-rule="evenodd" clip-rule="evenodd" d="M30.9868 11.6172L5.16406 20.7311V27.5666L14.7711 30.5052C14.6483 30.8703 14.5818 31.2613 14.5818 31.6678C14.5818 33.6812 16.214 35.3134 18.2274 35.3134C19.9049 35.3134 21.3179 34.1803 21.7425 32.6376L30.9868 35.4653V11.6172ZM16.516 31.0389L19.9976 32.1039C19.8022 32.9 19.0838 33.4906 18.2274 33.4906C17.2207 33.4906 16.4046 32.6745 16.4046 31.6678C16.4046 31.4468 16.4439 31.2349 16.516 31.0389Z" fill="white"/>
</svg>
