<svg width="46" height="47" viewBox="0 0 46 47" fill="none" xmlns="http://www.w3.org/2000/svg">
<g clip-path="url(#clip0_2483_38874)">
<path d="M19.4 9.6001H37.4C39.3856 9.6001 41 11.2145 41 13.2001V25.8001C41 27.7857 39.3856 29.4001 37.4 29.4001H19.4C17.4144 29.4001 15.8 27.7857 15.8 25.8001V13.2001C15.8 11.2145 17.4144 9.6001 19.4 9.6001ZM31.775 15.602C31.5219 15.2251 31.1 15.0001 30.65 15.0001C30.2 15.0001 29.7781 15.2251 29.525 15.602L26.375 20.327L25.4019 19.1063C25.1431 18.7857 24.755 18.6001 24.35 18.6001C23.945 18.6001 23.5512 18.7857 23.2981 19.1063L19.6981 23.6063C19.3719 24.0113 19.31 24.5682 19.535 25.0351C19.76 25.502 20.2325 25.8001 20.75 25.8001H25.25H27.95H36.05C36.5506 25.8001 37.0062 25.5245 37.2425 25.0857C37.4787 24.647 37.4506 24.1126 37.175 23.702L31.775 15.602ZM23.9 15.0001C23.9 14.5227 23.7104 14.0649 23.3728 13.7273C23.0352 13.3897 22.5774 13.2001 22.1 13.2001C21.6226 13.2001 21.1648 13.3897 20.8272 13.7273C20.4896 14.0649 20.3 14.5227 20.3 15.0001C20.3 15.4775 20.4896 15.9353 20.8272 16.2729C21.1648 16.6105 21.6226 16.8001 22.1 16.8001C22.5774 16.8001 23.0352 16.6105 23.3728 16.2729C23.7104 15.9353 23.9 15.4775 23.9 15.0001ZM8.6 16.8001H14V31.2001V33.0001C14 33.9957 14.8044 34.8001 15.8 34.8001H23C23.9956 34.8001 24.8 33.9957 24.8 33.0001V31.2001H33.8V34.8001C33.8 36.7857 32.1856 38.4001 30.2 38.4001H8.6C6.61437 38.4001 5 36.7857 5 34.8001V20.4001C5 18.4145 6.61437 16.8001 8.6 16.8001ZM9.05 20.4001C8.555 20.4001 8.15 20.8051 8.15 21.3001V22.2001C8.15 22.6951 8.555 23.1001 9.05 23.1001H9.95C10.445 23.1001 10.85 22.6951 10.85 22.2001V21.3001C10.85 20.8051 10.445 20.4001 9.95 20.4001H9.05ZM9.05 26.2501C8.555 26.2501 8.15 26.6551 8.15 27.1501V28.0501C8.15 28.5451 8.555 28.9501 9.05 28.9501H9.95C10.445 28.9501 10.85 28.5451 10.85 28.0501V27.1501C10.85 26.6551 10.445 26.2501 9.95 26.2501H9.05ZM9.05 32.1001C8.555 32.1001 8.15 32.5051 8.15 33.0001V33.9001C8.15 34.3951 8.555 34.8001 9.05 34.8001H9.95C10.445 34.8001 10.85 34.3951 10.85 33.9001V33.0001C10.85 32.5051 10.445 32.1001 9.95 32.1001H9.05ZM27.95 33.0001V33.9001C27.95 34.3951 28.355 34.8001 28.85 34.8001H29.75C30.245 34.8001 30.65 34.3951 30.65 33.9001V33.0001C30.65 32.5051 30.245 32.1001 29.75 32.1001H28.85C28.355 32.1001 27.95 32.5051 27.95 33.0001Z" fill="white"/>
</g>
<defs>
<clipPath id="clip0_2483_38874">
<rect width="36" height="28.8" fill="white" transform="translate(5 9.6001)"/>
</clipPath>
</defs>
</svg>
