<svg width="46" height="47" viewBox="0 0 46 47" fill="none" xmlns="http://www.w3.org/2000/svg">
<path fill-rule="evenodd" clip-rule="evenodd" d="M6.0801 13.1237C6.0801 10.6808 8.06047 8.70044 10.5034 8.70044H39.2547C41.6976 8.70044 43.678 10.6808 43.678 13.1237V30.8168C43.678 33.2597 41.6976 35.2401 39.2547 35.2401H10.5034C8.06047 35.2401 6.0801 33.2597 6.0801 30.8168V13.1237ZM18.023 13.1237C18.023 12.1466 18.8151 11.3544 19.7923 11.3544H38.8124C39.7895 11.3544 40.5817 12.1466 40.5817 13.1237C40.5817 14.1009 39.7895 14.893 38.8124 14.893H19.7923C18.8151 14.893 18.023 14.1009 18.023 13.1237ZM10.9457 14.893C11.9229 14.893 12.715 14.1009 12.715 13.1237C12.715 12.1466 11.9229 11.3544 10.9457 11.3544C9.96854 11.3544 9.1764 12.1466 9.1764 13.1237C9.1764 14.1009 9.96854 14.893 10.9457 14.893ZM17.1383 13.1237C17.1383 14.1009 16.3462 14.893 15.369 14.893C14.3918 14.893 13.5997 14.1009 13.5997 13.1237C13.5997 12.1466 14.3918 11.3544 15.369 11.3544C16.3462 11.3544 17.1383 12.1466 17.1383 13.1237ZM4.53195 19.7586C4.53195 19.1479 4.03686 18.6528 3.42613 18.6528C2.8154 18.6528 2.32031 19.1479 2.32031 19.7586V31.2592C2.32031 35.5343 5.78596 38.9999 10.0611 38.9999H24.4367C25.0474 38.9999 25.5425 38.5048 25.5425 37.8941C25.5425 37.2834 25.0474 36.7883 24.4367 36.7883H10.0611C7.00741 36.7883 4.53195 34.3128 4.53195 31.2592V19.7586Z" fill="white"/>
</svg>
