<svg width="30" height="30" viewBox="0 0 30 30" fill="none" xmlns="http://www.w3.org/2000/svg">
<path fill-rule="evenodd" clip-rule="evenodd" d="M30 15C30 23.2843 23.2843 30 15 30C6.71573 30 0 23.2843 0 15C0 6.71573 6.71573 0 15 0C23.2843 0 30 6.71573 30 15ZM18.8145 7.31332C17.8189 7.26666 17.5212 7.25777 14.9989 7.25777C12.4789 7.25777 12.1789 7.26888 11.1834 7.31332C10.2634 7.35555 9.76337 7.50888 9.43004 7.63777C8.98782 7.80888 8.67449 8.01332 8.34337 8.34444C8.01226 8.67555 7.80782 8.9911 7.63671 9.4311C7.50782 9.76444 7.35449 10.2644 7.31226 11.1844C7.2656 12.18 7.25671 12.48 7.25671 15C7.25671 17.52 7.26782 17.82 7.31226 18.8155C7.35449 19.7355 7.50782 20.2355 7.63671 20.5689C7.80782 21.0111 8.01226 21.3244 8.34337 21.6555C8.67449 21.9867 8.99004 22.1911 9.43004 22.3622C9.76337 22.4911 10.2634 22.6444 11.1834 22.6867C12.1789 22.7333 12.4767 22.7422 14.9989 22.7422C17.5212 22.7422 17.8189 22.7311 18.8145 22.6867C19.7345 22.6444 20.2345 22.4911 20.5678 22.3622C21.01 22.1911 21.3234 21.9867 21.6545 21.6555C21.9856 21.3244 22.19 21.0089 22.3612 20.5689C22.49 20.2355 22.6434 19.7355 22.6856 18.8155C22.7323 17.82 22.7412 17.52 22.7412 15C22.7412 12.48 22.73 12.18 22.6856 11.1844C22.6434 10.2644 22.49 9.76444 22.3612 9.4311C22.19 8.98888 21.9856 8.67555 21.6545 8.34444C21.3234 8.01332 21.0078 7.80888 20.5678 7.63777C20.2345 7.50888 19.7345 7.35555 18.8145 7.31332ZM11.1056 5.61332C12.1123 5.56666 12.4345 5.55555 14.9989 5.55555C17.5634 5.55555 17.8856 5.56666 18.8923 5.61332C19.8989 5.65999 20.5856 5.81999 21.1856 6.05332C21.8078 6.29332 22.3345 6.61777 22.8589 7.14221C23.3834 7.66888 23.7056 8.19555 23.9478 8.81555C24.1834 9.41777 24.3412 10.1044 24.3878 11.1089C24.4345 12.1155 24.4456 12.4378 24.4456 15.0022C24.4456 17.5667 24.4345 17.8889 24.3878 18.8955C24.3412 19.9022 24.1812 20.5889 23.9478 21.1889C23.7078 21.8111 23.3834 22.3378 22.8589 22.8622C22.3323 23.3867 21.8056 23.7089 21.1856 23.9511C20.5834 24.1867 19.8967 24.3444 18.8923 24.3911C17.8856 24.4378 17.5634 24.4489 14.9989 24.4489C12.4345 24.4489 12.1123 24.4378 11.1056 24.3911C10.0989 24.3444 9.41226 24.1844 8.81226 23.9511C8.19004 23.7111 7.66337 23.3867 7.13893 22.8622C6.61449 22.3355 6.29226 21.8089 6.05004 21.1889C5.81449 20.5867 5.65671 19.9 5.61004 18.8955C5.56337 17.8889 5.55226 17.5667 5.55226 15.0022C5.55226 12.4378 5.56337 12.1155 5.61004 11.1089C5.65671 10.1022 5.81671 9.41555 6.05004 8.81555C6.29004 8.19332 6.61449 7.66666 7.13893 7.14221C7.6656 6.61777 8.19226 6.29555 8.81226 6.05332C9.41448 5.81777 10.1012 5.65999 11.1056 5.61332ZM15.0008 10.1512C12.323 10.1512 10.1519 12.3224 10.1519 15.0001C10.1519 17.6779 12.323 19.849 15.0008 19.849C17.6785 19.849 19.8497 17.6779 19.8497 15.0001C19.8497 12.3224 17.6785 10.1512 15.0008 10.1512ZM15.0008 18.149C13.263 18.149 11.8519 16.7401 11.8519 15.0001C11.8519 13.2601 13.2608 11.8512 15.0008 11.8512C16.7408 11.8512 18.1497 13.2601 18.1497 15.0001C18.1497 16.7401 16.7408 18.149 15.0008 18.149ZM21.1773 9.95877C21.1773 10.5847 20.6699 11.0921 20.044 11.0921C19.418 11.0921 18.9106 10.5847 18.9106 9.95877C18.9106 9.33284 19.418 8.82543 20.044 8.82543C20.6699 8.82543 21.1773 9.33284 21.1773 9.95877Z" fill="#fff"/>
</svg>
