<svg width="51" height="58" viewBox="0 0 51 58" fill="none" xmlns="http://www.w3.org/2000/svg">
<path d="M3.21988 50.8184H1.55493C0.885684 50.8184 0.510254 51.1938 0.510254 51.7651V56.5314C0.510254 57.1027 0.885684 57.4782 1.55493 57.4782H3.21988C5.26026 57.4782 6.51714 56.2213 6.51714 54.6216V53.6749C6.51714 52.0589 5.26026 50.8184 3.21988 50.8184ZM4.36249 54.638C4.36249 55.3072 3.8728 55.7806 3.21988 55.7806H2.5996V52.5323H3.21988C3.88912 52.5323 4.36249 53.022 4.36249 53.6749V54.6216V54.638Z" fill="white"/>
<path d="M12.5563 50.7366C11.8871 50.7366 11.5116 51.112 11.5116 51.6833V54.9316C11.5116 55.6009 11.1362 55.9763 10.5649 55.9763C9.9936 55.9763 9.61817 55.5845 9.61817 54.9316V51.6833C9.61817 51.112 9.24274 50.7366 8.5735 50.7366C7.90425 50.7366 7.52882 51.112 7.52882 51.6833V54.9316C7.52882 56.5476 8.67144 57.6902 10.5812 57.6902C12.491 57.6902 13.6336 56.5476 13.6336 54.9316V51.6833C13.6336 51.112 13.2582 50.7366 12.589 50.7366H12.54H12.5563Z" fill="white"/>
<path d="M19.4608 55.2258C18.6937 55.2258 18.5957 55.8951 17.7959 55.8951C17.1756 55.8951 16.7512 55.4543 16.7512 54.8504V53.5119C16.7512 52.8916 17.1919 52.4672 17.7959 52.4672C18.5141 52.4672 18.612 53.1365 19.3629 53.1365C20.0811 53.1365 20.4076 52.81 20.4076 52.2714C20.4076 51.6021 19.4608 50.6554 17.7959 50.6554C15.8534 50.6554 14.5966 51.8796 14.5966 53.5119V54.8504C14.5966 56.4664 15.8534 57.7069 17.7959 57.7069C19.5588 57.7069 20.5055 56.7602 20.5055 56.091C20.5055 55.5523 20.1791 55.2258 19.4608 55.2258Z" fill="white"/>
<path d="M25.419 53.74L26.7575 52.4668C26.7575 52.4668 27.1329 52.1893 27.1329 51.6997C27.1329 51.1283 26.7575 50.7529 26.1862 50.7529C25.6965 50.7529 25.419 51.0304 25.419 51.0304L23.3133 53.0218V51.6833C23.3133 51.112 22.9379 50.7366 22.2686 50.7366C21.5994 50.7366 21.224 51.112 21.224 51.6833V56.6455C21.224 57.2168 21.5994 57.5923 22.2686 57.5923C22.9379 57.5923 23.3133 57.2168 23.3133 56.6455V55.5519L23.852 55.0622L25.468 57.1189C25.468 57.1189 25.8434 57.6086 26.3657 57.6086C27.035 57.6086 27.4104 57.2332 27.4104 56.6619C27.4104 56.2864 27.035 55.7967 27.035 55.7967L25.419 53.74Z" fill="white"/>
<path d="M35.0983 55.6009H32.813V51.6833C32.813 51.112 32.4376 50.7366 31.7684 50.7366C31.0991 50.7366 30.7237 51.112 30.7237 51.6833V56.5476C30.7237 57.1189 31.0991 57.4943 31.7684 57.4943H35.0983C35.7675 57.4943 36.1429 57.1189 36.1429 56.5476C36.1429 55.9763 35.7675 55.6009 35.0983 55.6009Z" fill="white"/>
<path d="M41.5792 51.7654C41.3017 51.0472 40.861 50.6228 39.9143 50.6228C38.9676 50.6228 38.5268 51.0635 38.2493 51.7654L36.715 55.7645C36.715 55.7645 36.4865 56.3358 36.4865 56.6296C36.4865 57.1683 36.9108 57.5764 37.5311 57.5764C38.0698 57.5764 38.4289 57.2009 38.6737 56.6296L38.9023 56.0583H40.8937L41.1222 56.6296C41.3507 57.2009 41.7425 57.5764 42.2648 57.5764C42.8851 57.5764 43.3095 57.1357 43.3095 56.6296C43.3095 56.3522 43.081 55.7645 43.081 55.7645L41.5466 51.7654H41.5956H41.5792ZM39.3267 54.3444L39.8653 52.908H39.9633L40.5019 54.3444H39.343H39.3267Z" fill="white"/>
<path d="M48.6306 53.9687V53.8708C48.6306 53.8708 49.6752 53.5933 49.6752 52.5813C49.6752 51.5692 48.9081 50.8184 46.9167 50.8184H45.0232C44.3539 50.8184 43.9785 51.1938 43.9785 51.7651V56.5314C43.9785 57.1027 44.3539 57.4782 45.0232 57.4782H47.2268C49.2182 57.4782 50.0833 56.613 50.0833 55.5357C50.0833 54.2462 48.6469 53.9524 48.6469 53.9524L48.6306 53.9687ZM46.0515 52.4343H46.9167C47.2921 52.4343 47.488 52.6139 47.488 52.8751C47.488 53.1362 47.3084 53.3158 46.9167 53.3158H46.0515V52.4507V52.4343ZM47.2105 55.8785H46.0679V54.8338H47.2105C47.6512 54.8338 47.8797 55.0624 47.8797 55.3725C47.8797 55.6826 47.6512 55.9112 47.2105 55.9112V55.8785Z" fill="white"/>
<path d="M47.3247 12.2147C46.7697 11.219 44.8762 12.3127 43.7336 12.2147C43.1133 12.1658 42.3135 11.9372 41.7259 11.725V11.219C41.7259 5.21213 36.8616 0.331543 30.8384 0.331543C24.8152 0.331543 19.9509 5.19581 19.9509 11.219C19.9509 14.4347 21.3384 17.3075 23.5583 19.2989C21.5669 19.9519 19.804 21.0618 18.3676 22.5146C17.7147 23.0206 16.9149 23.7388 15.9355 24.7835C14.9561 25.8281 13.993 26.5953 13.0626 27.1993C12.1975 27.3788 11.414 27.4604 10.8916 27.3135C7.75762 26.4811 6.92515 22.4656 5.97841 23.1185C4.88476 23.8531 6.71295 26.9708 6.71295 26.9708C6.71295 26.9708 7.25161 27.8359 8.00247 28.9785H7.18631C3.82377 28.7663 2.43631 25.3385 1.55486 26.2199C0.689741 27.085 3.25246 30.0721 3.25246 30.0721C3.25246 30.0721 14.6459 44.4854 26.0721 44.6486C26.5781 44.6976 27.0841 44.7139 27.6228 44.7139C34.8049 44.7139 40.6486 38.9029 40.6486 31.6881C40.6486 27.3625 38.5429 23.5266 35.2946 21.1761C37.5145 20.1804 39.3427 18.4665 40.4527 16.3118C41.1219 16.2465 42.4441 16.0343 43.7173 15.5446C45.8719 14.7285 47.9286 13.3247 47.3084 12.1821L47.3247 12.2147Z" fill="white"/>
</svg>
