<svg width="56" height="53" viewBox="0 0 56 53" fill="none" xmlns="http://www.w3.org/2000/svg">
<path d="M5.79471 44.0625C6.52925 44.4379 7.08421 44.9929 7.50861 45.6785C7.90037 46.3804 8.11256 47.1802 8.11256 48.1106C8.11256 49.041 7.90037 49.8409 7.50861 50.5264C7.11686 51.2283 6.52925 51.7507 5.79471 52.1261C5.06018 52.5015 4.19503 52.6811 3.21564 52.6811H0V43.4912H3.21564C4.19503 43.4912 5.04385 43.6708 5.79471 44.0462V44.0625ZM5.41926 50.3142C5.95792 49.7756 6.20279 49.041 6.20279 48.0943C6.20279 47.1476 5.9416 46.3804 5.41926 45.8417C4.8806 45.3031 4.14606 45.0256 3.16668 45.0256H1.84451V51.0977H3.16668C4.14606 51.0977 4.8806 50.8366 5.41926 50.3142Z" fill="white"/>
<path d="M16.3234 49.596H10.9694C11.0184 50.1347 11.1979 50.5428 11.5244 50.8203C11.8509 51.1141 12.2426 51.261 12.7323 51.261C13.4342 51.261 13.9076 50.9672 14.1851 50.3796H16.1765C15.9643 51.0814 15.5562 51.6528 14.9523 52.1098C14.3483 52.5668 13.6138 52.779 12.7486 52.779C12.0467 52.779 11.4101 52.6158 10.8551 52.322C10.3002 52.0282 9.85945 51.5548 9.53299 50.9998C9.20653 50.4285 9.07594 49.7756 9.07594 49.0247C9.07594 48.2739 9.23917 47.6046 9.53299 47.0333C9.8268 46.462 10.2675 46.0213 10.8225 45.7112C11.3775 45.4173 12.0304 45.2541 12.7486 45.2541C13.4668 45.2541 14.0708 45.401 14.6258 45.6948C15.1808 45.9887 15.6052 46.413 15.899 46.968C16.1928 47.523 16.3561 48.1433 16.3561 48.8615C16.3561 49.1227 16.3561 49.3675 16.3071 49.5797L16.3234 49.596ZM14.4626 48.3392C14.4626 47.8821 14.283 47.4741 13.9566 47.1966C13.6301 46.9191 13.222 46.7722 12.7323 46.7722C12.2426 46.7722 11.8998 46.9191 11.5734 47.1966C11.2469 47.4741 11.0674 47.8658 11.0021 48.3555H14.4789L14.4626 48.3392Z" fill="white"/>
<path d="M24.5491 49.596H19.1952C19.2441 50.1347 19.4237 50.5428 19.7502 50.8203C20.0766 51.1141 20.4684 51.261 20.958 51.261C21.6599 51.261 22.1333 50.9672 22.4108 50.3796H24.4022C24.19 51.0814 23.782 51.6528 23.178 52.1098C22.5741 52.5668 21.8395 52.779 20.9744 52.779C20.2725 52.779 19.6359 52.6158 19.0809 52.322C18.5259 52.0282 18.0852 51.5548 17.7587 50.9998C17.4323 50.4285 17.3017 49.7756 17.3017 49.0247C17.3017 48.2739 17.4649 47.6046 17.7587 47.0333C18.0526 46.462 18.4933 46.0213 19.0483 45.7112C19.6033 45.4173 20.2562 45.2541 20.9744 45.2541C21.6926 45.2541 22.2965 45.401 22.8515 45.6948C23.4065 45.9887 23.8309 46.413 24.1247 46.968C24.4185 47.523 24.5818 48.1433 24.5818 48.8615C24.5818 49.1227 24.5818 49.3675 24.5328 49.5797L24.5491 49.596ZM22.672 48.3392C22.672 47.8821 22.4924 47.4741 22.166 47.1966C21.8395 46.9191 21.4314 46.7722 20.9418 46.7722C20.4521 46.7722 20.1092 46.9191 19.7828 47.1966C19.4563 47.4741 19.2768 47.8658 19.2115 48.3555H22.6883L22.672 48.3392Z" fill="white"/>
<path d="M37.2983 46.0868C37.8533 46.6418 38.1308 47.409 38.1308 48.3721V52.665H36.2699V48.6332C36.2699 48.0619 36.123 47.6375 35.8292 47.3111C35.5354 46.9846 35.1273 46.854 34.654 46.854C34.1806 46.854 33.7562 47.0173 33.4461 47.3111C33.1523 47.6049 33.0053 48.0456 33.0053 48.6332V52.665H31.1445V48.6332C31.1445 48.0619 30.9976 47.6375 30.7038 47.3111C30.41 46.9846 30.0019 46.854 29.5285 46.854C29.0551 46.854 28.5981 47.0173 28.3206 47.3111C28.0268 47.6049 27.8799 48.0456 27.8799 48.6332V52.665H26.0191V45.3686H27.8799V46.2501C28.1084 45.9563 28.4349 45.6951 28.8103 45.5319C29.1857 45.3523 29.5938 45.2707 30.0345 45.2707C30.6058 45.2707 31.1282 45.3849 31.5689 45.6461C32.0096 45.8746 32.3524 46.2174 32.6136 46.6908C32.8421 46.2664 33.1849 45.9236 33.6582 45.6788C34.1153 45.4176 34.605 45.3033 35.1436 45.3033C36.0414 45.3033 36.7596 45.5808 37.3146 46.1358V46.0868H37.2983Z" fill="white"/>
<path d="M51.2382 46.0868C51.7932 46.6418 52.0706 47.409 52.0706 48.3721V52.665H50.2098V48.6332C50.2098 48.0619 50.0629 47.6375 49.7691 47.3111C49.4753 46.9846 49.0672 46.854 48.5939 46.854C48.1205 46.854 47.6961 47.0173 47.3859 47.3111C47.0758 47.6049 46.9452 48.0456 46.9452 48.6332V52.665H45.0844V48.6332C45.0844 48.0619 44.9375 47.6375 44.6437 47.3111C44.3498 46.9846 43.9418 46.854 43.4684 46.854C42.995 46.854 42.538 47.0173 42.2605 47.3111C41.9667 47.6049 41.8198 48.0456 41.8198 48.6332V52.665H39.959V45.3686H41.8198V46.2501C42.0483 45.9563 42.3748 45.6951 42.7502 45.5319C43.1256 45.3523 43.5337 45.2707 43.9744 45.2707C44.5457 45.2707 45.0681 45.3849 45.5088 45.6461C45.9495 45.8746 46.2923 46.2174 46.5535 46.6908C46.782 46.2664 47.1248 45.9236 47.5981 45.6788C48.0552 45.4176 48.5449 45.3033 49.0835 45.3033C49.9813 45.3033 50.6995 45.5808 51.2545 46.1358V46.0868H51.2382Z" fill="white"/>
<path d="M54.0126 44.1929C53.8004 43.9807 53.6862 43.7359 53.6862 43.4257C53.6862 43.1156 53.8004 42.8707 54.0126 42.6585C54.2248 42.4463 54.5023 42.3647 54.8287 42.3647C55.1552 42.3647 55.4327 42.4627 55.6449 42.6585C55.8571 42.8707 55.9714 43.1156 55.9714 43.4257C55.9714 43.7359 55.8571 43.9807 55.6449 44.1929C55.4327 44.4051 55.1552 44.4867 54.8287 44.4867C54.5023 44.4867 54.2248 44.3888 54.0126 44.1929ZM55.7428 45.3682V52.6646H53.882V45.3682H55.7428Z" fill="white"/>
<path d="M34.6865 30.988C34.6865 27.7724 37.2983 25.1444 40.5302 25.1444C41.3953 25.1444 42.1788 25.3239 42.9134 25.6504C43.3541 24.7689 43.7458 23.7896 44.0723 22.7286C44.5293 21.3085 45.0843 19.0069 44.8558 16.1993C44.3661 10.4047 40.8893 6.65037 39.9426 5.68731C35.3068 0.969945 29.659 0.170105 28.0594 0.0395203H19.098C19.0328 1.24743 19.196 2.19416 19.3265 2.84709C19.9305 5.39348 21.6608 6.99314 22.4116 7.69503C22.6728 7.9562 22.9013 8.13576 23.0645 8.25002C23.5542 8.13576 28.8755 6.91153 32.9073 10.5189C33.6255 11.1718 36.3189 13.7672 36.2209 17.75C36.123 21.5533 33.5602 24.8832 30.7527 25.9932C28.7123 26.8093 25.6599 26.8093 23.5216 26.8093H22.5912C21.6444 28.2621 20.714 30.025 19.9305 32.0653C19.751 32.5714 19.5551 33.0611 19.4245 33.5507C19.2449 34.171 19.147 34.7586 19.0817 35.2647H27.635C27.635 35.2647 31.2751 35.33 35.2252 33.3875C34.8988 32.6693 34.7192 31.8531 34.7192 31.0043H34.7029L34.6865 30.988Z" fill="white"/>
<path d="M40.5461 35.2808C42.8803 35.2808 44.7901 33.3873 44.7901 31.0368C44.7901 28.6863 42.8967 26.7928 40.5461 26.7928C38.1956 26.7928 36.3022 28.6863 36.3022 31.0368C36.3022 33.3873 38.1956 35.2808 40.5461 35.2808Z" fill="white"/>
<path d="M19.0973 0.0229492H13.221C12.9272 0.18618 10.5277 1.58995 10.3645 4.00576C10.2992 5.00147 10.642 5.88292 10.7889 6.2257C11.3276 7.56419 12.2416 8.38035 12.5518 8.64152C14.4289 10.3391 17.6772 13.2446 18.2812 16.2154C19.1137 20.4757 14.5921 25.5195 13.3026 27.0049C13.3026 27.0049 11.7193 28.7842 10.9358 30.3349C10.2829 31.3469 10.2339 32.6527 10.8379 33.6648C11.6051 34.9869 13.0415 35.2154 13.2047 35.2318H19.13C19.9135 33.224 21.2193 30.2696 23.2107 26.9397C26.6549 21.096 28.7442 19.9207 28.6137 16.9989C28.4504 14.1097 26.2958 13.3589 23.0312 8.15182C20.9908 4.90353 19.8156 1.96539 19.1626 0.0229492H19.1137H19.0973Z" fill="white"/>
</svg>
