<svg width="52" height="58" viewBox="0 0 52 58" fill="none" xmlns="http://www.w3.org/2000/svg">
<path d="M5.19026 56.8051V56.8704H5.1413L5.19026 56.8051ZM7.37755 57.0336V56.8704H7.0021C7.0021 56.8704 6.82257 56.8704 6.72463 56.8541C6.6267 56.8541 6.56138 56.8051 6.49609 56.7561C6.4308 56.7072 6.39814 56.6582 6.38181 56.5766C6.38181 56.5276 6.36553 56.4623 6.36553 56.397V51.5491H6.46346L8.7813 56.952C9.15673 56.0706 9.51588 55.1891 9.89131 54.2913C10.2667 53.4099 10.6258 52.5285 10.9849 51.6307H11.0829V56.8704H10.4136V57.0499H13.1396V56.8867H12.4867V50.7003H13.1396V50.537H11.1971L9.33633 54.9443L7.47548 50.537H5.20655V50.7003H6.07172C6.07172 50.7003 6.08804 50.8145 6.12069 50.9778C6.12069 51.141 6.12066 51.3695 6.13698 51.647V56.1685C6.13698 56.348 6.13701 56.4623 6.12069 56.5439C6.10437 56.7235 6.00642 56.8214 5.85951 56.8377C5.69628 56.8541 5.53303 56.8867 5.32083 56.8541H5.17392V57.0336H7.37755Z" fill="white"/>
<path d="M13.3201 56.8706C13.4833 56.8706 13.6466 56.8706 13.7445 56.8543C13.8588 56.8543 13.9567 56.8053 14.022 56.74C14.0873 56.691 14.1689 56.5931 14.2015 56.5115C14.2505 56.4135 14.2995 56.283 14.3648 56.1197C14.7076 55.173 15.034 54.2263 15.3768 53.2632L16.4215 50.4067H16.8132L19.3433 56.8706H19.8493V57.0338H17.0254V56.8706H17.8089L17.0417 54.8955H14.9851L14.8871 55.0751C14.8871 55.0751 14.7892 55.3036 14.7402 55.4505C14.6913 55.5974 14.626 55.7443 14.577 55.8912C14.528 56.0381 14.4791 56.1687 14.4301 56.3156C14.3811 56.4299 14.3648 56.5278 14.3648 56.5768C14.3648 56.6421 14.4138 56.7237 14.4791 56.7563C14.5443 56.8053 14.6423 56.8216 14.7402 56.8543C14.8382 56.8543 14.9524 56.8706 15.0667 56.8706H15.3442V57.0338H13.2548V56.8706H13.3038H13.3201ZM15.083 54.7323H17.0254L16.0297 52.1532L15.083 54.7323Z" fill="white"/>
<path d="M19.9467 56.8704H20.5017C20.6486 56.8704 20.7302 56.8214 20.7792 56.7725C20.8445 56.7235 20.8771 56.6255 20.8934 56.5113V50.8145L20.7302 50.7003H19.914V50.537H22.2972L25.725 55.1891V51.0267C25.725 50.9125 25.6761 50.8472 25.6271 50.7982C25.5781 50.7492 25.5128 50.7329 25.4149 50.7003H24.7946V50.537H26.933V50.7003H26.28C26.1821 50.7003 26.1168 50.7166 26.0679 50.7982C26.0189 50.8472 26.0025 50.9451 25.9699 51.0267V57.0989H25.3659L21.1219 51.2879V56.446C21.1219 56.5929 21.1709 56.6745 21.2199 56.7398C21.2852 56.8051 21.3831 56.8377 21.4974 56.8541H22.0687V57.0173H19.8977V56.8541H19.914L19.9467 56.8704Z" fill="white"/>
<path d="M33.0386 52.6101H32.81C32.7611 52.3816 32.6958 52.1204 32.6305 51.9082C32.5326 51.6797 32.4183 51.4675 32.2877 51.3043C32.1408 51.1247 31.9613 50.9778 31.7817 50.8799C31.5695 50.782 31.341 50.7167 31.0635 50.7167C30.6228 50.7167 30.2799 50.8309 30.0514 51.0431C29.7903 51.2553 29.6107 51.5002 29.4802 51.8266C29.3332 52.1531 29.268 52.4795 29.219 52.8223C29.17 53.1651 29.1537 53.4916 29.1537 53.8017V54.4057C29.1537 54.6342 29.2026 54.8464 29.2516 55.0749C29.3006 55.3034 29.3659 55.5156 29.4312 55.7278C29.5291 55.94 29.6107 56.1522 29.7576 56.2991C29.9045 56.4624 30.0515 56.593 30.2473 56.6909C30.4269 56.7888 30.6717 56.8541 30.9165 56.8541C31.2593 56.8541 31.5695 56.7562 31.8143 56.593C32.0755 56.4134 32.1898 56.1359 32.1898 55.7278V54.1118H31.4879V53.9486H34.2465V54.1118H33.5446V56.9847C33.4303 56.8215 33.3324 56.7072 33.2508 56.6583C33.1528 56.6093 33.0712 56.5929 32.9733 56.6093C32.8753 56.6093 32.7611 56.6582 32.6468 56.7072C32.5326 56.7562 32.4183 56.8052 32.255 56.8541C32.0265 56.9194 31.798 57.001 31.5532 57.0663C31.3246 57.1153 31.0635 57.1643 30.8186 57.1643C30.3289 57.1643 29.8882 57.099 29.4964 56.9357C29.1047 56.7725 28.7619 56.5603 28.4844 56.2665C28.2069 55.989 27.9784 55.6462 27.8315 55.2545C27.6683 54.8627 27.603 54.422 27.603 53.9323C27.603 53.4916 27.6683 53.0509 27.8315 52.6428C27.9947 52.2184 28.2069 51.8593 28.4844 51.5491C28.7619 51.2227 29.1047 50.9778 29.4964 50.7819C29.8882 50.6024 30.3126 50.5045 30.786 50.5045C30.9655 50.5045 31.1614 50.5208 31.292 50.5697C31.4552 50.6187 31.5858 50.684 31.7327 50.733C31.8796 50.7983 32.0102 50.8472 32.1245 50.8962C32.2387 50.9452 32.3856 50.9615 32.5162 50.9615C32.6305 50.9615 32.6958 50.9452 32.7284 50.8636C32.7448 50.7983 32.7774 50.7167 32.7937 50.635H33.0222V52.6265H33.0386V52.6101Z" fill="white"/>
<path d="M37.8044 50.3901C38.2451 50.3901 38.6695 50.4881 39.0286 50.684C39.404 50.8962 39.7305 51.141 40.008 51.4675C40.2855 51.7939 40.4977 52.1694 40.6283 52.5611C40.7752 52.9855 40.8568 53.3773 40.8568 53.7853C40.8568 54.1934 40.7915 54.6178 40.6283 55.0096C40.4814 55.4013 40.2529 55.7768 40.008 56.0706C39.7305 56.397 39.404 56.6419 39.0286 56.8378C38.6532 57.0173 38.2451 57.1316 37.8044 57.1316C37.3637 57.1316 36.923 57.0336 36.5475 56.8378C36.1721 56.6256 35.8456 56.3807 35.5681 56.0542C35.2906 55.7278 35.0784 55.3523 34.9479 54.9443C34.8009 54.5199 34.7194 54.1118 34.7194 53.6874C34.7194 53.263 34.7846 52.8712 34.9479 52.4795C35.1111 52.0877 35.3233 51.745 35.6171 51.4185C35.8946 51.092 36.2211 50.8635 36.5965 50.6513C36.9719 50.4718 37.3637 50.3575 37.8044 50.3575V50.3901ZM37.8371 50.5371C37.5759 50.5371 37.38 50.586 37.1842 50.7003C37.0046 50.8145 36.8577 50.9614 36.7271 51.141C36.6129 51.3206 36.4986 51.5164 36.4333 51.745C36.368 51.9735 36.2864 52.202 36.2537 52.4468C36.2048 52.6754 36.1884 52.9039 36.1558 53.1487C36.1558 53.3773 36.1395 53.5895 36.1395 53.769V54.3893C36.1395 54.6178 36.1884 54.8463 36.2048 55.0912C36.2537 55.3197 36.3027 55.5482 36.368 55.7931C36.4333 56.0216 36.5312 56.2338 36.6455 56.397C36.7597 56.5766 36.923 56.7235 37.1025 56.8378C37.2821 56.952 37.4943 57.001 37.7718 57.001C38.0493 57.001 38.2615 56.952 38.441 56.8378C38.6206 56.7235 38.7675 56.5766 38.8817 56.397C38.996 56.2175 39.0939 56.0053 39.1592 55.7768C39.2245 55.5482 39.2735 55.3197 39.3061 55.0749C39.3225 54.8463 39.3551 54.6178 39.3714 54.373V53.1651C39.3714 52.9365 39.3225 52.7243 39.3061 52.4632C39.2572 52.2347 39.2082 52.0061 39.1429 51.7613C39.0776 51.5328 38.9797 51.3206 38.8654 51.141C38.7512 50.9614 38.6042 50.8145 38.441 50.7003C38.2778 50.586 38.0656 50.5371 37.8371 50.5371Z" fill="white"/>
<path d="M41.6565 52.0715C41.6729 51.8593 41.7055 51.6471 41.7219 51.4675C41.7219 51.288 41.7708 51.0758 41.7871 50.8636C41.7871 50.7983 41.7871 50.7493 41.8034 50.684C41.8034 50.6187 41.8035 50.5697 41.8198 50.5045H46.3902L45.1007 53.1488C45.1007 53.1488 44.9864 53.361 44.9212 53.5242C44.8559 53.6874 44.7579 53.867 44.66 54.0629C44.562 54.2588 44.4804 54.4546 44.3825 54.6668C44.2845 54.879 44.2193 55.0912 44.1213 55.2708C44.0561 55.4503 43.9744 55.6462 43.9418 55.8094C43.8928 55.9727 43.8765 56.0869 43.8765 56.1849C43.8765 56.2502 43.8928 56.2828 43.9744 56.2828H44.0724C44.0724 56.2828 44.1703 56.2338 44.2193 56.2338C44.3335 56.2338 44.4478 56.2828 44.5131 56.3481C44.611 56.446 44.6274 56.5277 44.6274 56.6419C44.6274 56.9194 44.4804 57.0826 44.1866 57.0826C43.9744 57.0826 43.8438 57.0174 43.7459 56.8541C43.648 56.7072 43.599 56.5277 43.599 56.3481C43.599 56.2012 43.6153 56.0217 43.6969 55.7768C43.7785 55.532 43.8602 55.2381 43.9581 54.9117C44.0724 54.5852 44.1866 54.2588 44.3335 53.9323C44.4804 53.5895 44.5947 53.2631 44.7253 52.9529C44.8722 52.6265 44.9864 52.349 45.0681 52.0878C45.1823 51.8266 45.2476 51.6471 45.3292 51.5165H41.9993C41.9993 51.5165 41.8851 51.6634 41.8524 51.7777C41.8361 51.8919 41.7871 51.9899 41.7545 52.0552H41.575L41.6729 52.1041L41.6565 52.0715Z" fill="white"/>
<path d="M12.2418 50.7812V56.7554H11.3604V51.4014L11.1482 51.3525L11.4093 50.7812H12.2745M7.32858 50.7812L9.10779 55.0252L9.20572 55.2374C9.05881 55.5638 8.92821 55.9066 8.7813 56.2331L6.72463 51.3851L6.6267 51.1729L6.41449 51.2219V50.7649H7.34492M13.1396 50.4874H11.1971L9.33633 54.8946L7.47548 50.4874H5.20655V50.6506H6.07172C6.07172 50.6506 6.08804 50.7648 6.12069 50.9281C6.12069 51.0913 6.12066 51.3198 6.13698 51.5973V56.1188C6.13698 56.2984 6.13701 56.4126 6.12069 56.4942C6.10437 56.6738 6.00642 56.7717 5.85951 56.788C5.74525 56.788 5.59833 56.8044 5.4351 56.8044H5.17392V56.9839H7.37755V56.8207H7.0021C7.0021 56.8207 6.82257 56.8207 6.72463 56.8044C6.6267 56.8044 6.56138 56.7554 6.49609 56.7064C6.4308 56.6575 6.39814 56.6085 6.38181 56.5269C6.38181 56.4779 6.36553 56.4126 6.36553 56.3473V51.4994H6.46346L8.7813 56.9023C9.15673 56.0209 9.51588 55.1394 9.89131 54.2417C10.2667 53.3602 10.6258 52.4788 10.9849 51.581H11.0829V56.8207H10.4136V57.0003H13.1396V56.837H12.4867V50.6506H13.1396V50.4874ZM5.19026 56.788L5.1413 56.8533H5.19026V56.788Z" fill="white"/>
<path d="M16.6336 50.6842L19.0004 56.7563H18.07L17.4008 54.9934L17.2539 54.618L16.2582 52.039L16.1603 51.8104C16.3072 51.4187 16.4377 51.0269 16.5846 50.6515H16.601M16.8132 50.4067H16.4214C16.0786 51.3534 15.7195 52.3001 15.3767 53.2632C15.0339 54.2263 14.6748 55.1567 14.3647 56.1197C14.2994 56.283 14.2504 56.3972 14.2015 56.5115C14.1525 56.6094 14.0872 56.691 14.0219 56.74C13.9566 56.789 13.8587 56.8379 13.7444 56.8543C13.6302 56.8543 13.4832 56.8706 13.32 56.8706V57.0338H15.4094V56.8706H15.1319C15.1319 56.8706 14.9197 56.8706 14.8054 56.8543C14.7075 56.8543 14.6259 56.8053 14.5442 56.7563C14.4789 56.7074 14.43 56.6584 14.43 56.5768C14.43 56.5278 14.43 56.4299 14.4953 56.3156C14.5442 56.2013 14.5933 56.0544 14.6422 55.8912C14.6912 55.7443 14.7564 55.5974 14.8054 55.4505C14.8544 55.3036 14.9033 55.173 14.9523 55.0751L15.0503 54.8955H17.107L17.8742 56.8706H17.0907V57.0338H19.9145V56.8706H19.4085L16.8785 50.4067H16.8295H16.8132ZM15.0829 54.7323L16.0296 52.1532L17.0254 54.7323H15.0829Z" fill="white"/>
<path d="M22.1997 50.7812L25.5296 55.319L25.6929 55.5475V56.8044H25.5133L21.3509 51.1076L21.1877 50.8791V50.8138H22.1834M26.9497 50.4874H24.8114V50.6506H25.4317C25.5296 50.6506 25.5949 50.6669 25.6439 50.7485C25.6929 50.7975 25.7092 50.8954 25.7418 50.977V55.1394L22.314 50.4874H19.9308V50.6506H20.747L20.9102 50.7649V56.4616C20.9102 56.5759 20.8613 56.6738 20.796 56.7228C20.7307 56.7717 20.6327 56.8207 20.5022 56.8207H19.9472V56.9839H22.1181V56.8207H21.5468C21.3999 56.8207 21.3183 56.7717 21.2693 56.7064C21.2041 56.6411 21.1714 56.5432 21.1714 56.4126V51.2545L25.4154 57.0655H26.0193V50.9934C26.0193 50.8791 26.0683 50.8138 26.1173 50.7649C26.1663 50.7159 26.2315 50.6996 26.3295 50.6669H26.9824V50.5037L26.9497 50.4874Z" fill="white"/>
<path d="M29.7247 50.9118C29.4962 51.1404 29.3003 51.4015 29.1697 51.6953C29.0228 52.0218 28.9412 52.3972 28.8922 52.7563C28.8432 53.1318 28.8269 53.4582 28.8269 53.7357V54.3887C28.8269 54.6172 28.8759 54.8457 28.9249 55.0905C28.9739 55.3191 29.0391 55.5476 29.1371 55.7924C29.235 56.0209 29.3493 56.2495 29.5125 56.4453C29.5778 56.5106 29.6594 56.5923 29.7247 56.6576C29.6757 56.6576 29.6268 56.6412 29.6104 56.6086C29.2676 56.4617 28.9412 56.2658 28.68 56.0046C28.4188 55.7435 28.223 55.4333 28.0761 55.0742C27.9292 54.6988 27.8639 54.307 27.8639 53.85C27.8639 53.4256 27.9292 53.0338 28.0761 52.6421C28.223 52.2503 28.4188 51.9239 28.68 51.6301C28.9412 51.3526 29.2513 51.0914 29.6104 50.9282C29.6594 50.9282 29.6757 50.8792 29.7247 50.8792M32.7608 51.173V51.5974C32.6955 51.4505 32.6139 51.3362 32.5323 51.222C32.5323 51.222 32.6955 51.222 32.7608 51.173ZM33.2668 54.2091V56.3474C33.2668 56.3474 33.1036 56.2984 33.0383 56.2984H32.924C32.8097 56.2984 32.6629 56.3637 32.5323 56.4127C32.4343 56.4617 32.3201 56.5106 32.1895 56.527C32.3527 56.3148 32.4506 56.021 32.4506 55.6618V54.1601H33.2831M30.802 50.4221C30.345 50.4221 29.9043 50.5201 29.5125 50.6996C29.1207 50.8792 28.7943 51.1404 28.5005 51.4668C28.223 51.7933 27.9945 52.1361 27.8476 52.5605C27.6843 52.9849 27.619 53.4256 27.619 53.85C27.619 54.3397 27.6843 54.7804 27.8476 55.1722C28.0108 55.5639 28.223 55.9067 28.5005 56.1842C28.778 56.4617 29.1207 56.6902 29.5125 56.8534C29.9043 57.0167 30.345 57.0819 30.8347 57.0819C31.0958 57.0819 31.3407 57.0656 31.5692 56.984C31.7977 56.935 32.0263 56.8698 32.2711 56.7718C32.418 56.7228 32.5486 56.6739 32.6628 56.6249C32.7771 56.5759 32.8914 56.527 32.9893 56.527H33.0546C33.0546 56.527 33.2015 56.527 33.2668 56.5923C33.3647 56.6412 33.4464 56.7555 33.5443 56.9187V54.0459H34.2625V53.8826H31.5039V54.0459H32.2058V55.6618C32.2058 56.0536 32.0916 56.3311 31.8304 56.527C31.5692 56.7065 31.2754 56.7881 30.9326 56.7881C30.6714 56.7881 30.4755 56.7392 30.2633 56.6249C30.0838 56.527 29.9206 56.3964 29.7737 56.2332C29.6268 56.0699 29.5451 55.8904 29.4472 55.6618C29.3493 55.4496 29.3003 55.2211 29.2677 55.0089C29.2187 54.7804 29.2024 54.5682 29.1697 54.3397V53.7357C29.1697 53.4582 29.186 53.1318 29.235 52.7563C29.284 52.4136 29.3493 52.0545 29.4962 51.7606C29.6431 51.4342 29.8226 51.1893 30.0675 50.9771C30.3286 50.7649 30.6714 50.6507 31.0795 50.6507C31.357 50.6507 31.5855 50.6996 31.7977 50.8139C32.0099 50.9282 32.1731 51.0751 32.3037 51.2383C32.4506 51.4179 32.5649 51.6137 32.6465 51.8422C32.7445 52.0708 32.8098 52.2993 32.8261 52.5441H33.0546V50.5527H32.8261C32.8261 50.5527 32.8097 50.716 32.7608 50.7812C32.7444 50.8465 32.6628 50.8792 32.5486 50.8792C32.4017 50.8792 32.2874 50.8629 32.1568 50.8139C32.0426 50.7649 31.8957 50.6996 31.7651 50.6507C31.6182 50.5854 31.4712 50.5364 31.3243 50.4874C31.1611 50.4385 30.9979 50.4221 30.8183 50.4221H30.802Z" fill="white"/>
<path d="M39.1103 51.027C39.3714 51.1902 39.6163 51.4024 39.8121 51.6309C40.0733 51.9248 40.2529 52.2839 40.3835 52.643C40.5304 53.0184 40.5957 53.4101 40.5957 53.7856C40.5957 54.161 40.5304 54.5528 40.3835 54.9282C40.2366 55.3036 40.057 55.6301 39.8121 55.9239C39.6326 56.1361 39.4204 56.3156 39.1919 56.4626C39.3061 56.283 39.3714 56.0708 39.453 55.8586C39.5183 55.6301 39.5673 55.3689 39.5999 55.1241C39.6163 54.8629 39.6489 54.6344 39.6652 54.3895V53.1653C39.6652 52.9368 39.6163 52.7083 39.5999 52.4471C39.551 52.2186 39.502 51.9574 39.4367 51.7125C39.3714 51.4677 39.2735 51.2229 39.1429 51.0433M36.4006 51.1249C36.3027 51.2882 36.2211 51.4677 36.1721 51.6636C36.1068 51.8921 36.0252 52.1533 35.9926 52.3981C35.9436 52.6593 35.9273 52.8878 35.8946 53.1327C35.8946 53.3612 35.8783 53.5734 35.8783 53.7856V54.4385C35.8783 54.667 35.9273 54.9282 35.9436 55.173C35.9926 55.4342 36.0415 55.6627 36.1231 55.9076C36.1884 56.1198 36.2701 56.2993 36.3517 56.4626C36.1395 56.3156 35.9273 56.1361 35.7803 55.9239C35.5192 55.6301 35.3396 55.271 35.209 54.9119C35.0621 54.5364 34.9968 54.1447 34.9968 53.7529C34.9968 53.3775 35.0621 53.0184 35.2254 52.6593C35.3723 52.2839 35.5681 51.9574 35.8293 51.6636C35.9925 51.484 36.1721 51.3208 36.3843 51.1739M37.8044 50.3741C37.38 50.3741 36.9719 50.472 36.5965 50.6679C36.2211 50.8474 35.8946 51.1086 35.6171 51.4351C35.3396 51.7615 35.1111 52.1043 34.9479 52.4961C34.7846 52.8878 34.7194 53.2796 34.7194 53.704C34.7194 54.1284 34.7846 54.5364 34.9479 54.9608C35.0948 55.3852 35.2906 55.7443 35.5681 56.0708C35.8456 56.3973 36.1721 56.6421 36.5475 56.8543C36.923 57.0665 37.331 57.1481 37.8044 57.1481C38.2778 57.1481 38.6695 57.0502 39.0286 56.8543C39.404 56.6748 39.7305 56.4136 40.008 56.0871C40.2855 55.7607 40.4977 55.4179 40.6283 55.0261C40.7752 54.6344 40.8568 54.21 40.8568 53.8019C40.8568 53.3938 40.7915 52.9858 40.6283 52.5777C40.4814 52.1533 40.2529 51.8105 40.008 51.484C39.7305 51.1576 39.404 50.9127 39.0286 50.7005C38.6532 50.4883 38.2451 50.4067 37.8044 50.4067V50.3741ZM37.8044 56.9849C37.5432 56.9849 37.3147 56.9359 37.1352 56.8217C36.9556 56.7074 36.8087 56.5605 36.6781 56.3809C36.5639 56.2014 36.4659 55.9892 36.4006 55.777C36.3353 55.5485 36.2864 55.3199 36.2374 55.0751C36.1884 54.8466 36.1721 54.6181 36.1721 54.3732V53.7529C36.1721 53.5734 36.1721 53.3612 36.1884 53.1327C36.1884 52.9041 36.2374 52.6756 36.2864 52.4308C36.3353 52.2022 36.3843 51.9737 36.4659 51.7289C36.5312 51.5003 36.6455 51.3045 36.7597 51.1249C36.874 50.9454 37.0372 50.7985 37.2168 50.6842C37.3963 50.5699 37.6085 50.521 37.8697 50.521C38.0982 50.521 38.3104 50.5699 38.4736 50.6842C38.6369 50.7985 38.7675 50.9454 38.8981 51.1249C39.0123 51.3045 39.1103 51.5167 39.1756 51.7452C39.2409 51.9737 39.2898 52.2022 39.3388 52.4471C39.3877 52.6756 39.4041 52.9041 39.4041 53.149V54.3569C39.4041 54.5854 39.3877 54.8139 39.3388 55.0588C39.3224 55.2873 39.2735 55.5158 39.1919 55.7607C39.1266 55.9892 39.0287 56.2014 38.9144 56.3809C38.8001 56.5605 38.6369 56.7074 38.4736 56.8217C38.2941 56.9359 38.0819 56.9849 37.8044 56.9849Z" fill="white"/>
<path d="M46.0149 50.7812L45.7864 51.2382H42.0647C42.0647 51.2382 42.081 51.026 42.1137 50.9118V50.7649H46.0312L46.0149 50.7812ZM44.252 56.4942C44.252 56.4942 44.35 56.4942 44.3663 56.5432C44.3826 56.5595 44.4152 56.6085 44.4152 56.6575C44.4152 56.7717 44.4152 56.8207 44.252 56.8207C44.1051 56.8207 44.0725 56.7717 44.0725 56.7228C44.0561 56.6738 44.0235 56.6085 44.0072 56.5595H44.0561C44.0561 56.5595 44.1541 56.5595 44.2194 56.5432H44.2846M46.4229 50.4874H41.8525C41.8525 50.4874 41.8525 50.6016 41.8362 50.6669C41.8362 50.7322 41.8362 50.7812 41.8199 50.8465C41.8036 51.0587 41.7709 51.2709 41.7546 51.4504C41.7546 51.63 41.7056 51.8422 41.6893 52.0544H41.8688C41.8688 52.0544 41.9178 51.8422 41.9668 51.7606C41.9831 51.6626 42.0321 51.581 42.1137 51.4994H45.4436C45.3783 51.6463 45.2967 51.8258 45.1824 52.0707C45.0682 52.3319 44.9539 52.6093 44.8397 52.9358C44.6927 53.2623 44.5785 53.5887 44.4479 53.9152C44.301 54.258 44.1867 54.5844 44.0725 54.8946C43.9582 55.221 43.8603 55.4985 43.8113 55.7597C43.746 56.0209 43.7134 56.2004 43.7134 56.331C43.7134 56.5106 43.7623 56.6738 43.8603 56.837C43.9582 56.9839 44.0888 57.0655 44.301 57.0655C44.5948 57.0655 44.7417 56.9186 44.7417 56.6248C44.7417 56.5106 44.6927 56.4126 44.6274 56.331C44.5295 56.2331 44.4479 56.2167 44.3336 56.2167C44.2846 56.2167 44.2357 56.2167 44.1867 56.2657H44.0888C44.0888 56.2657 43.9908 56.2494 43.9908 56.1678C43.9908 56.0698 44.0072 55.9556 44.0561 55.7923C44.1051 55.6291 44.1704 55.4496 44.2357 55.2537C44.301 55.0741 44.3989 54.8619 44.4968 54.6497C44.5948 54.4375 44.6764 54.2253 44.7743 54.0458C44.8723 53.8662 44.9376 53.6704 45.0355 53.5071C45.1008 53.3439 45.1824 53.2296 45.2151 53.1317L46.5046 50.4874H46.4067H46.4229Z" fill="white"/>
<g style="mix-blend-mode:overlay">
<path d="M31.4559 53.9159V54.0791H32.1578V55.842C32.1578 55.9399 32.1415 56.0215 32.1089 56.1032C32.0436 56.2827 31.9456 56.4459 31.7824 56.5602C31.5213 56.7398 31.2274 56.8214 30.8846 56.8214C30.6235 56.8214 30.4276 56.7724 30.2154 56.6581C30.0358 56.5602 29.8726 56.4296 29.7257 56.2664C29.5788 56.1032 29.4972 55.9236 29.3992 55.6951C29.3013 55.4829 29.2523 55.2544 29.2197 55.0422C29.1707 54.8136 29.1544 54.6014 29.1218 54.3729V53.769C29.1218 53.4915 29.138 53.165 29.187 52.7896C29.236 52.4468 29.3013 52.0877 29.4482 51.7939C29.4972 51.6796 29.5625 51.5654 29.6114 51.4674C29.7094 51.3205 29.791 51.2062 29.9052 51.092C29.9216 51.0757 29.9705 51.043 30.0032 50.994C30.0195 50.9777 30.0685 50.9451 30.1011 50.9288C30.1664 50.8798 30.248 50.8308 30.3296 50.8145C30.3786 50.8145 30.4276 50.7982 30.4439 50.7655C30.6071 50.7166 30.8194 50.7002 31.0152 50.7002C31.2927 50.7002 31.5212 50.7492 31.7334 50.8635C31.8966 50.9288 32.0109 51.043 32.1578 51.1573C32.2068 51.2062 32.2231 51.2552 32.2721 51.2715C32.419 51.4511 32.5332 51.647 32.6149 51.8755C32.6802 52.0387 32.7291 52.2183 32.7781 52.4141C32.7781 52.4794 32.7944 52.5284 32.7944 52.5937H33.0229V50.6023H32.7944C32.7944 50.6023 32.7944 50.7492 32.7455 50.7818V50.8308C32.7455 50.8308 32.6965 50.8798 32.6802 50.8961C32.6312 50.8961 32.6149 50.9124 32.5333 50.9124C32.3864 50.9124 32.2721 50.8961 32.1415 50.8471C32.0272 50.7982 31.8803 50.7329 31.7497 50.6839C31.6028 50.6186 31.4559 50.5696 31.309 50.5207C31.1458 50.4717 30.9826 50.4554 30.803 50.4554H30.6234C30.2807 50.4554 29.9542 50.5533 29.6441 50.6676C29.5951 50.6676 29.5461 50.7165 29.4972 50.7329C29.3176 50.8308 29.1217 50.9451 28.9422 51.0593C28.8442 51.1246 28.779 51.2062 28.7137 51.2715C28.6484 51.3368 28.5504 51.4184 28.4851 51.5001C28.2729 51.7286 28.0934 52.0061 27.9465 52.2836C27.8975 52.3815 27.8486 52.4958 27.7996 52.5774C27.6527 52.9528 27.5874 53.3119 27.571 53.72V54.0628C27.571 54.2423 27.5874 54.4056 27.62 54.5688C27.669 54.781 27.718 54.9932 27.7833 55.1891C27.8812 55.4502 27.9955 55.6461 28.1587 55.8583C28.224 55.9562 28.2729 56.0215 28.3382 56.0868C28.3546 56.1358 28.4035 56.1521 28.4362 56.2011C28.4851 56.2501 28.5015 56.2664 28.5504 56.3154C28.6973 56.4623 28.8442 56.5765 29.0401 56.6581C29.0891 56.6745 29.138 56.7071 29.187 56.7234C29.2849 56.7724 29.3666 56.8214 29.4645 56.8703C29.6767 56.9356 29.8889 57.0173 30.0848 57.0499C30.297 57.0989 30.5418 57.1152 30.7867 57.1152H30.9663C31.1458 57.1152 31.3417 57.0662 31.5212 57.0499C31.7498 57.0009 31.9783 56.9356 32.2231 56.8377C32.37 56.7887 32.5006 56.7398 32.6149 56.6908C32.7291 56.6418 32.8434 56.5929 32.9413 56.5929H33.1046C33.1046 56.5929 33.1535 56.5928 33.1698 56.6092C33.1862 56.6092 33.2351 56.6581 33.2678 56.7071C33.2678 56.7234 33.3168 56.7561 33.3331 56.805C33.3494 56.854 33.3984 56.903 33.4474 56.9683V54.0954H34.1656V53.9322H31.407L31.4559 53.8669V53.9159Z" fill="white"/>
<path d="M40.8088 53.1651C40.7599 52.9529 40.7109 52.7407 40.6456 52.5612C40.4987 52.1368 40.2702 51.794 40.0253 51.4675C39.7478 51.141 39.4213 50.8962 39.0459 50.684C38.6705 50.4718 38.2624 50.3902 37.8217 50.3902C37.3973 50.3902 36.9892 50.4881 36.6138 50.684C36.4342 50.7819 36.2383 50.8962 36.0751 51.0268C35.9119 51.141 35.7487 51.3043 35.6181 51.4512C35.5691 51.5002 35.5528 51.5165 35.5201 51.5654C35.3569 51.7776 35.2264 51.9898 35.0958 52.2184C35.0794 52.2673 35.0468 52.3163 35.0305 52.3653C35.0141 52.4142 34.9815 52.4632 34.9652 52.5122C34.9162 52.6101 34.8999 52.7244 34.8509 52.806C34.7856 53.0672 34.7366 53.312 34.704 53.5405V53.7038C34.704 54.0302 34.753 54.324 34.8183 54.6505C34.8183 54.6995 34.8346 54.7484 34.8672 54.8137C34.8672 54.8627 34.8835 54.9117 34.9162 54.977C34.9652 55.0749 34.9815 55.1892 35.0305 55.2708C35.1774 55.5646 35.3243 55.8258 35.5365 56.0869C35.814 56.4134 36.1404 56.6582 36.5159 56.8704C36.6954 56.9684 36.9076 57.05 37.1198 57.099C37.332 57.1479 37.5442 57.1643 37.7727 57.1643C38.2134 57.1643 38.6378 57.0663 38.9969 56.8704C39.1439 56.8051 39.2744 56.7072 39.3887 56.6093C39.6009 56.4624 39.7804 56.2828 39.96 56.0706C40.2375 55.7441 40.4497 55.4014 40.5803 55.0096C40.6293 54.9117 40.6456 54.7974 40.6782 54.7158C40.6945 54.6179 40.7272 54.5036 40.7435 54.422C40.7435 54.324 40.7598 54.2098 40.7925 54.1282V53.8343C40.7925 53.6221 40.7925 53.41 40.7435 53.2141H40.7925L40.8088 53.1651ZM37.1361 56.8215C36.9566 56.7072 36.8097 56.5603 36.6791 56.3807C36.5648 56.2012 36.4669 55.989 36.4016 55.7768C36.4016 55.7278 36.3853 55.6625 36.3526 55.6136C36.3037 55.4503 36.2547 55.2708 36.2384 55.0749C36.2384 54.9606 36.1894 54.8464 36.1894 54.7321V53.7364C36.1894 53.5569 36.1894 53.3447 36.2057 53.1161V52.9366C36.2057 52.757 36.2547 52.5938 36.271 52.3979C36.32 52.1694 36.3689 51.9409 36.4506 51.696C36.4506 51.6471 36.4995 51.5818 36.5159 51.5328C36.5812 51.3696 36.6627 51.239 36.7444 51.0921C36.8586 50.9125 37.0219 50.7656 37.2014 50.6514C37.3483 50.5861 37.4952 50.5044 37.6584 50.4881H37.838C38.0665 50.4881 38.2787 50.5371 38.442 50.6514C38.6052 50.7656 38.7358 50.9125 38.8664 51.0921C38.9806 51.2716 39.0786 51.4838 39.1439 51.7123C39.1439 51.7776 39.1602 51.8266 39.1928 51.8919C39.2418 52.0715 39.2908 52.2347 39.3071 52.4306C39.3561 52.6591 39.3724 52.8876 39.3724 53.1325V54.2914C39.3724 54.5199 39.3561 54.7484 39.3071 54.9933C39.2908 55.1728 39.2581 55.3361 39.2092 55.5319C39.2092 55.5972 39.1928 55.6462 39.1602 55.7115C39.0949 55.94 38.9969 56.1522 38.8827 56.3318C38.7684 56.5113 38.6052 56.6582 38.442 56.7725C38.2624 56.8868 38.0502 56.9357 37.7727 56.9357C37.5932 56.9357 37.3973 56.9194 37.2667 56.8378C37.2177 56.8378 37.1688 56.7888 37.1198 56.7725V56.8215H37.1361Z" fill="white"/>
<path d="M9.3537 54.9118L7.4929 50.5045H5.22397V50.6678H6.08909V50.7167C6.08909 50.7167 6.08911 50.831 6.10543 50.9453V56.136C6.10543 56.3155 6.10541 56.4298 6.08909 56.5114C6.08909 56.5767 6.07277 56.6257 6.04012 56.6746C5.99115 56.7399 5.92585 56.7889 5.82792 56.8216H5.1097V56.7563L5.06073 56.8216H5.1097V57.0011H7.31332V56.8379H6.93792C6.93792 56.8379 6.75835 56.8379 6.66041 56.8216H6.5951C6.5951 56.8216 6.52985 56.8052 6.48088 56.7726C6.48088 56.7726 6.46451 56.7726 6.43186 56.7563C6.43186 56.7563 6.41554 56.7563 6.38289 56.7073C6.38289 56.7073 6.36657 56.6583 6.33393 56.642V51.5492H6.43186L8.74976 56.9521C8.92931 56.5114 9.12518 56.0707 9.30473 55.63C9.48429 55.1892 9.68016 54.7485 9.85971 54.3078C10.2351 53.4264 10.5943 52.5449 10.9534 51.6472H11.0513V56.8869H10.3821V57.0664H13.108V56.9032H12.4551V50.7167H13.108V50.5535H11.1656L9.30473 54.9607H9.3537V54.9118Z" fill="white"/>
<path d="M16.8137 50.4062H16.422C16.0792 51.353 15.7201 52.2997 15.3773 53.2628C15.0345 54.2258 14.6754 55.1562 14.3653 56.1193C14.3 56.2825 14.251 56.3968 14.2021 56.511C14.1531 56.609 14.0878 56.6906 14.0225 56.7396C13.9736 56.7885 13.9082 56.8049 13.8429 56.8375H13.3533V57.0007H15.4426V56.8375H15.1651C15.1651 56.8375 14.9529 56.8375 14.8387 56.8212C14.7897 56.8212 14.7407 56.8212 14.6918 56.8049C14.6428 56.8049 14.5938 56.7885 14.5775 56.7559C14.5775 56.7559 14.5285 56.7559 14.5285 56.7396C14.5122 56.7232 14.4796 56.6906 14.4796 56.6416V56.5927C14.4796 56.5927 14.4795 56.4457 14.5448 56.3315C14.5938 56.2172 14.6428 56.0703 14.6918 55.9071C14.7407 55.7602 14.806 55.6133 14.855 55.4664C14.9039 55.3195 14.9529 55.1889 15.0019 55.0909L15.0998 54.9114H17.1565L17.9237 56.8865H17.1402V57.0497H19.9641V56.8865H19.4581L16.928 50.4225H16.8301L16.8137 50.4062ZM15.0835 54.7318L16.0302 52.1528L17.026 54.7318H15.0835Z" fill="white"/>
<path d="M24.8116 50.651H25.4319C25.4319 50.651 25.5299 50.651 25.5462 50.6673C25.5625 50.6673 25.6115 50.6836 25.6441 50.7163C25.6604 50.7326 25.6931 50.7652 25.6931 50.8142C25.6931 50.8632 25.7094 50.9121 25.7094 50.9611V55.1235L22.2816 50.4714H19.8984V50.6346H20.7145L20.8778 50.7489V56.4456C20.8778 56.5599 20.8288 56.6578 20.7635 56.7068C20.6983 56.7558 20.6003 56.8047 20.486 56.8047H19.9311V56.968H22.102V56.8047H21.4001C21.4001 56.8047 21.2859 56.7884 21.2532 56.7558C21.2532 56.7558 21.2043 56.7395 21.2043 56.7068C21.1879 56.6905 21.1553 56.6415 21.1389 56.5925C21.1389 56.5436 21.1226 56.4783 21.1226 56.413V51.2549L25.3666 57.0659H25.9706V50.9937C25.9706 50.9937 25.9706 50.8958 25.9869 50.8468C25.9869 50.7979 26.0032 50.7815 26.0359 50.7489C26.0848 50.6999 26.1501 50.6836 26.2481 50.651H26.901V50.4877H24.7627V50.651H24.8116Z" fill="white"/>
<path d="M46.4236 50.4878H41.8532C41.8532 50.4878 41.8532 50.602 41.8368 50.6673C41.8368 50.7326 41.8369 50.7816 41.8206 50.8469C41.8042 51.0591 41.7716 51.2713 41.7552 51.4508C41.7552 51.6304 41.7063 51.8426 41.6899 52.0548H41.8695C41.8695 52.0548 41.9185 51.8426 41.9675 51.761C41.9675 51.7447 41.9675 51.712 41.9838 51.6957C42.0001 51.6304 42.049 51.5488 42.098 51.5161H45.4279C45.4279 51.5161 45.4116 51.5814 45.379 51.6304C45.33 51.7447 45.2647 51.9079 45.1668 52.0874C45.0525 52.3486 44.9383 52.6261 44.824 52.9526C44.6771 53.279 44.5628 53.6055 44.4323 53.9319C44.2853 54.2747 44.1711 54.6012 44.0568 54.9113C43.9589 55.1399 43.8936 55.3684 43.8446 55.5642C43.8446 55.6295 43.7956 55.7112 43.7956 55.7438C43.7303 56.005 43.6977 56.1845 43.6977 56.3151C43.6977 56.4131 43.6977 56.4947 43.714 56.5763C43.714 56.6742 43.763 56.7395 43.812 56.8048C43.8283 56.8538 43.8772 56.9027 43.9262 56.9517C43.9915 57.017 44.1058 57.0497 44.22 57.0497C44.5139 57.0497 44.6607 56.9027 44.6607 56.6089C44.6607 56.4947 44.6118 56.3967 44.5465 56.3151C44.4485 56.2172 44.3669 56.2008 44.2527 56.2008H44.1874C44.1874 56.2008 44.1384 56.2009 44.1221 56.2172H43.9752C43.9752 56.2172 43.9262 56.1682 43.9262 56.1192C43.9262 56.0539 43.9262 55.9723 43.9752 55.8581C43.9752 55.8091 43.9752 55.7928 43.9915 55.7438C44.0405 55.5806 44.1058 55.401 44.1711 55.2052C44.2364 55.0093 44.3343 54.8134 44.4323 54.6012C44.5302 54.389 44.6118 54.1768 44.7097 53.9972C44.8077 53.8177 44.873 53.6218 44.9709 53.4586C45.0362 53.2954 45.1178 53.1811 45.1504 53.0832L46.44 50.4388L46.391 50.4878H46.4236Z" fill="white"/>
</g>
<g style="mix-blend-mode:screen" opacity="0.5">
<path d="M31.4559 53.9159V54.0791H32.1578V55.842C32.1578 55.9399 32.1415 56.0215 32.1089 56.1032C32.0436 56.2827 31.9456 56.4459 31.7824 56.5602C31.5213 56.7398 31.2274 56.8214 30.8846 56.8214C30.6235 56.8214 30.4276 56.7724 30.2154 56.6581C30.0358 56.5602 29.8726 56.4296 29.7257 56.2664C29.5788 56.1032 29.4972 55.9236 29.3992 55.6951C29.3013 55.4829 29.2523 55.2544 29.2197 55.0422C29.1707 54.8136 29.1544 54.6014 29.1218 54.3729V53.769C29.1218 53.4915 29.138 53.165 29.187 52.7896C29.236 52.4468 29.3013 52.0877 29.4482 51.7939C29.4972 51.6796 29.5625 51.5654 29.6114 51.4674C29.7094 51.3205 29.791 51.2062 29.9052 51.092C29.9216 51.0757 29.9705 51.043 30.0032 50.994C30.0195 50.9777 30.0685 50.9451 30.1011 50.9288C30.1664 50.8798 30.248 50.8308 30.3296 50.8145C30.3786 50.8145 30.4276 50.7982 30.4439 50.7655C30.6071 50.7166 30.8194 50.7002 31.0152 50.7002C31.2927 50.7002 31.5212 50.7492 31.7334 50.8635C31.8966 50.9288 32.0109 51.043 32.1578 51.1573C32.2068 51.2062 32.2231 51.2552 32.2721 51.2715C32.419 51.4511 32.5332 51.647 32.6149 51.8755C32.6802 52.0387 32.7291 52.2183 32.7781 52.4141C32.7781 52.4794 32.7944 52.5284 32.7944 52.5937H33.0229V50.6023H32.7944C32.7944 50.6023 32.7944 50.7492 32.7455 50.7818V50.8308C32.7455 50.8308 32.6965 50.8798 32.6802 50.8961C32.6312 50.8961 32.6149 50.9124 32.5333 50.9124C32.3864 50.9124 32.2721 50.8961 32.1415 50.8471C32.0272 50.7982 31.8803 50.7329 31.7497 50.6839C31.6028 50.6186 31.4559 50.5696 31.309 50.5207C31.1458 50.4717 30.9826 50.4554 30.803 50.4554H30.6234C30.2807 50.4554 29.9542 50.5533 29.6441 50.6676C29.5951 50.6676 29.5461 50.7165 29.4972 50.7329C29.3176 50.8308 29.1217 50.9451 28.9422 51.0593C28.8442 51.1246 28.779 51.2062 28.7137 51.2715C28.6484 51.3368 28.5504 51.4184 28.4851 51.5001C28.2729 51.7286 28.0934 52.0061 27.9465 52.2836C27.8975 52.3815 27.8486 52.4958 27.7996 52.5774C27.6527 52.9528 27.5874 53.3119 27.571 53.72V54.0628C27.571 54.2423 27.5874 54.4056 27.62 54.5688C27.669 54.781 27.718 54.9932 27.7833 55.1891C27.8812 55.4502 27.9955 55.6461 28.1587 55.8583C28.224 55.9562 28.2729 56.0215 28.3382 56.0868C28.3546 56.1358 28.4035 56.1521 28.4362 56.2011C28.4851 56.2501 28.5015 56.2664 28.5504 56.3154C28.6973 56.4623 28.8442 56.5765 29.0401 56.6581C29.0891 56.6745 29.138 56.7071 29.187 56.7234C29.2849 56.7724 29.3666 56.8214 29.4645 56.8703C29.6767 56.9356 29.8889 57.0173 30.0848 57.0499C30.297 57.0989 30.5418 57.1152 30.7867 57.1152H30.9663C31.1458 57.1152 31.3417 57.0662 31.5212 57.0499C31.7498 57.0009 31.9783 56.9356 32.2231 56.8377C32.37 56.7887 32.5006 56.7398 32.6149 56.6908C32.7291 56.6418 32.8434 56.5929 32.9413 56.5929H33.1046C33.1046 56.5929 33.1535 56.5928 33.1698 56.6092C33.1862 56.6092 33.2351 56.6581 33.2678 56.7071C33.2678 56.7234 33.3168 56.7561 33.3331 56.805C33.3494 56.854 33.3984 56.903 33.4474 56.9683V54.0954H34.1656V53.9322H31.407L31.4559 53.8669V53.9159Z" fill="white"/>
<path d="M40.8088 53.1651C40.7599 52.9529 40.7109 52.7407 40.6456 52.5612C40.4987 52.1368 40.2702 51.794 40.0253 51.4675C39.7478 51.141 39.4213 50.8962 39.0459 50.684C38.6705 50.4718 38.2624 50.3902 37.8217 50.3902C37.3973 50.3902 36.9892 50.4881 36.6138 50.684C36.4342 50.7819 36.2383 50.8962 36.0751 51.0268C35.9119 51.141 35.7487 51.3043 35.6181 51.4512C35.5691 51.5002 35.5528 51.5165 35.5201 51.5654C35.3569 51.7776 35.2264 51.9898 35.0958 52.2184C35.0794 52.2673 35.0468 52.3163 35.0305 52.3653C35.0141 52.4142 34.9815 52.4632 34.9652 52.5122C34.9162 52.6101 34.8999 52.7244 34.8509 52.806C34.7856 53.0672 34.7366 53.312 34.704 53.5405V53.7038C34.704 54.0302 34.753 54.324 34.8183 54.6505C34.8183 54.6995 34.8346 54.7484 34.8672 54.8137C34.8672 54.8627 34.8835 54.9117 34.9162 54.977C34.9652 55.0749 34.9815 55.1892 35.0305 55.2708C35.1774 55.5646 35.3243 55.8258 35.5365 56.0869C35.814 56.4134 36.1404 56.6582 36.5159 56.8704C36.6954 56.9684 36.9076 57.05 37.1198 57.099C37.332 57.1479 37.5442 57.1643 37.7727 57.1643C38.2134 57.1643 38.6378 57.0663 38.9969 56.8704C39.1439 56.8051 39.2744 56.7072 39.3887 56.6093C39.6009 56.4624 39.7804 56.2828 39.96 56.0706C40.2375 55.7441 40.4497 55.4014 40.5803 55.0096C40.6293 54.9117 40.6456 54.7974 40.6782 54.7158C40.6945 54.6179 40.7272 54.5036 40.7435 54.422C40.7435 54.324 40.7598 54.2098 40.7925 54.1282V53.8343C40.7925 53.6221 40.7925 53.41 40.7435 53.2141H40.7925L40.8088 53.1651ZM37.1361 56.8215C36.9566 56.7072 36.8097 56.5603 36.6791 56.3807C36.5648 56.2012 36.4669 55.989 36.4016 55.7768C36.4016 55.7278 36.3853 55.6625 36.3526 55.6136C36.3037 55.4503 36.2547 55.2708 36.2384 55.0749C36.2384 54.9606 36.1894 54.8464 36.1894 54.7321V53.7364C36.1894 53.5569 36.1894 53.3447 36.2057 53.1161V52.9366C36.2057 52.757 36.2547 52.5938 36.271 52.3979C36.32 52.1694 36.3689 51.9409 36.4506 51.696C36.4506 51.6471 36.4995 51.5818 36.5159 51.5328C36.5812 51.3696 36.6627 51.239 36.7444 51.0921C36.8586 50.9125 37.0219 50.7656 37.2014 50.6514C37.3483 50.5861 37.4952 50.5044 37.6584 50.4881H37.838C38.0665 50.4881 38.2787 50.5371 38.442 50.6514C38.6052 50.7656 38.7358 50.9125 38.8664 51.0921C38.9806 51.2716 39.0786 51.4838 39.1439 51.7123C39.1439 51.7776 39.1602 51.8266 39.1928 51.8919C39.2418 52.0715 39.2908 52.2347 39.3071 52.4306C39.3561 52.6591 39.3724 52.8876 39.3724 53.1325V54.2914C39.3724 54.5199 39.3561 54.7484 39.3071 54.9933C39.2908 55.1728 39.2581 55.3361 39.2092 55.5319C39.2092 55.5972 39.1928 55.6462 39.1602 55.7115C39.0949 55.94 38.9969 56.1522 38.8827 56.3318C38.7684 56.5113 38.6052 56.6582 38.442 56.7725C38.2624 56.8868 38.0502 56.9357 37.7727 56.9357C37.5932 56.9357 37.3973 56.9194 37.2667 56.8378C37.2177 56.8378 37.1688 56.7888 37.1198 56.7725V56.8215H37.1361Z" fill="white"/>
<path d="M9.3537 54.9118L7.4929 50.5045H5.22397V50.6678H6.08909V50.7167C6.08909 50.7167 6.08911 50.831 6.10543 50.9453V56.136C6.10543 56.3155 6.10541 56.4298 6.08909 56.5114C6.08909 56.5767 6.07277 56.6257 6.04012 56.6746C5.99115 56.7399 5.92585 56.7889 5.82792 56.8216H5.1097V56.7563L5.06073 56.8216H5.1097V57.0011H7.31332V56.8379H6.93792C6.93792 56.8379 6.75835 56.8379 6.66041 56.8216H6.5951C6.5951 56.8216 6.52985 56.8052 6.48088 56.7726C6.48088 56.7726 6.46451 56.7726 6.43186 56.7563C6.43186 56.7563 6.41554 56.7563 6.38289 56.7073C6.38289 56.7073 6.36657 56.6583 6.33393 56.642V51.5492H6.43186L8.74976 56.9521C8.92931 56.5114 9.12518 56.0707 9.30473 55.63C9.48429 55.1892 9.68016 54.7485 9.85971 54.3078C10.2351 53.4264 10.5943 52.5449 10.9534 51.6472H11.0513V56.8869H10.3821V57.0664H13.108V56.9032H12.4551V50.7167H13.108V50.5535H11.1656L9.30473 54.9607H9.3537V54.9118Z" fill="white"/>
<path d="M16.8137 50.4062H16.422C16.0792 51.353 15.7201 52.2997 15.3773 53.2628C15.0345 54.2258 14.6754 55.1562 14.3653 56.1193C14.3 56.2825 14.251 56.3968 14.2021 56.511C14.1531 56.609 14.0878 56.6906 14.0225 56.7396C13.9736 56.7885 13.9082 56.8049 13.8429 56.8375H13.3533V57.0007H15.4426V56.8375H15.1651C15.1651 56.8375 14.9529 56.8375 14.8387 56.8212C14.7897 56.8212 14.7407 56.8212 14.6918 56.8049C14.6428 56.8049 14.5938 56.7885 14.5775 56.7559C14.5775 56.7559 14.5285 56.7559 14.5285 56.7396C14.5122 56.7232 14.4796 56.6906 14.4796 56.6416V56.5927C14.4796 56.5927 14.4795 56.4457 14.5448 56.3315C14.5938 56.2172 14.6428 56.0703 14.6918 55.9071C14.7407 55.7602 14.806 55.6133 14.855 55.4664C14.9039 55.3195 14.9529 55.1889 15.0019 55.0909L15.0998 54.9114H17.1565L17.9237 56.8865H17.1402V57.0497H19.9641V56.8865H19.4581L16.928 50.4225H16.8301L16.8137 50.4062ZM15.0835 54.7318L16.0302 52.1528L17.026 54.7318H15.0835Z" fill="white"/>
<path d="M24.8116 50.651H25.4319C25.4319 50.651 25.5299 50.651 25.5462 50.6673C25.5625 50.6673 25.6115 50.6836 25.6441 50.7163C25.6604 50.7326 25.6931 50.7652 25.6931 50.8142C25.6931 50.8632 25.7094 50.9121 25.7094 50.9611V55.1235L22.2816 50.4714H19.8984V50.6346H20.7145L20.8778 50.7489V56.4456C20.8778 56.5599 20.8288 56.6578 20.7635 56.7068C20.6983 56.7558 20.6003 56.8047 20.486 56.8047H19.9311V56.968H22.102V56.8047H21.4001C21.4001 56.8047 21.2859 56.7884 21.2532 56.7558C21.2532 56.7558 21.2043 56.7395 21.2043 56.7068C21.1879 56.6905 21.1553 56.6415 21.1389 56.5925C21.1389 56.5436 21.1226 56.4783 21.1226 56.413V51.2549L25.3666 57.0659H25.9706V50.9937C25.9706 50.9937 25.9706 50.8958 25.9869 50.8468C25.9869 50.7979 26.0032 50.7815 26.0359 50.7489C26.0848 50.6999 26.1501 50.6836 26.2481 50.651H26.901V50.4877H24.7627V50.651H24.8116Z" fill="white"/>
<path d="M46.4236 50.4878H41.8532C41.8532 50.4878 41.8532 50.602 41.8368 50.6673C41.8368 50.7326 41.8369 50.7816 41.8206 50.8469C41.8042 51.0591 41.7716 51.2713 41.7552 51.4508C41.7552 51.6304 41.7063 51.8426 41.6899 52.0548H41.8695C41.8695 52.0548 41.9185 51.8426 41.9675 51.761C41.9675 51.7447 41.9675 51.712 41.9838 51.6957C42.0001 51.6304 42.049 51.5488 42.098 51.5161H45.4279C45.4279 51.5161 45.4116 51.5814 45.379 51.6304C45.33 51.7447 45.2647 51.9079 45.1668 52.0874C45.0525 52.3486 44.9383 52.6261 44.824 52.9526C44.6771 53.279 44.5628 53.6055 44.4323 53.9319C44.2853 54.2747 44.1711 54.6012 44.0568 54.9113C43.9589 55.1399 43.8936 55.3684 43.8446 55.5642C43.8446 55.6295 43.7956 55.7112 43.7956 55.7438C43.7303 56.005 43.6977 56.1845 43.6977 56.3151C43.6977 56.4131 43.6977 56.4947 43.714 56.5763C43.714 56.6742 43.763 56.7395 43.812 56.8048C43.8283 56.8538 43.8772 56.9027 43.9262 56.9517C43.9915 57.017 44.1058 57.0497 44.22 57.0497C44.5139 57.0497 44.6607 56.9027 44.6607 56.6089C44.6607 56.4947 44.6118 56.3967 44.5465 56.3151C44.4485 56.2172 44.3669 56.2008 44.2527 56.2008H44.1874C44.1874 56.2008 44.1384 56.2009 44.1221 56.2172H43.9752C43.9752 56.2172 43.9262 56.1682 43.9262 56.1192C43.9262 56.0539 43.9262 55.9723 43.9752 55.8581C43.9752 55.8091 43.9752 55.7928 43.9915 55.7438C44.0405 55.5806 44.1058 55.401 44.1711 55.2052C44.2364 55.0093 44.3343 54.8134 44.4323 54.6012C44.5302 54.389 44.6118 54.1768 44.7097 53.9972C44.8077 53.8177 44.873 53.6218 44.9709 53.4586C45.0362 53.2954 45.1178 53.1811 45.1504 53.0832L46.44 50.4388L46.391 50.4878H46.4236Z" fill="white"/>
</g>
<path d="M25.7579 11.7369V21.0247C25.7579 21.0247 25.611 15.1158 22.379 11.8675L16.9108 6.39929L11.867 9.27214C10.4958 10.1373 9.61439 11.6063 9.61439 13.206V33.6751C9.61439 36.1725 10.757 38.5557 12.6995 40.139L18.6084 44.9054L6.87213 37.609V11.9981C6.87213 11.6063 6.92109 11.2146 7.01903 10.8228C7.34549 9.59861 8.12901 8.53761 9.27162 7.88469L17.3352 3.31424L25.7416 11.7206H25.7905L25.7579 11.7369Z" fill="white"/>
<path d="M18.6088 44.9382L4.29343 38.5722L0.0331421 36.6787H1.84498C3.18347 36.6787 4.29343 35.5851 4.29343 34.2302V11.5575C4.29343 10.5618 3.50993 9.77833 2.51423 9.77833H0.0331421L4.61992 8.45615C4.79947 8.40718 4.96268 8.39087 5.15855 8.39087C6.21955 8.39087 7.101 9.25598 7.101 10.2843V10.4965C7.101 10.6108 7.08468 10.7251 7.05203 10.8393C6.9541 11.2148 6.90513 11.6065 6.90513 12.0146V37.6254L18.6414 44.9218H18.5924L18.6088 44.9382Z" fill="white"/>
<path d="M9.27148 7.91741C8.12887 8.57033 7.34535 9.63132 7.01889 10.8555C7.03521 10.7413 7.06786 10.627 7.06786 10.5128V10.3006C7.06786 9.2559 6.20273 8.40709 5.12541 8.40709C4.94586 8.40709 4.75 8.42342 4.58677 8.47238L0 9.79456L17.7431 0.0496979L25.7414 8.04798V11.7696L17.3351 3.36327L9.27148 7.93372V7.91741Z" fill="white"/>
<path d="M25.7584 11.7369V21.0247C25.7584 21.0247 25.9053 15.1158 29.1372 11.8675L34.6054 6.39929L39.6493 9.27214C41.0204 10.1373 41.9019 11.6063 41.9019 13.206V33.6751C41.9019 36.1725 40.7593 38.5557 38.8168 40.139L32.9078 44.9054L44.6441 37.609V11.9981C44.6441 11.6063 44.5951 11.2146 44.4972 10.8228C44.1708 9.59861 43.3872 8.53761 42.2446 7.88469L34.181 3.31424L25.7747 11.7206H25.7257L25.7584 11.7369Z" fill="white"/>
<path d="M32.9239 44.9382L47.2392 38.5722L51.4995 36.6787H49.6876C48.3491 36.6787 47.2392 35.5851 47.2392 34.2302V11.5575C47.2392 10.5618 48.0227 9.77833 49.0184 9.77833H51.4995L46.9127 8.45615C46.7332 8.40718 46.5699 8.39087 46.374 8.39087C45.313 8.39087 44.4316 9.25598 44.4316 10.2843V10.4965C44.4316 10.6108 44.448 10.7251 44.4806 10.8393C44.5785 11.2148 44.6275 11.6065 44.6275 12.0146V37.6254L32.8912 44.9218H32.9402L32.9239 44.9382Z" fill="white"/>
<path d="M42.2608 7.91741C43.4035 8.57033 44.187 9.63132 44.5134 10.8555C44.4971 10.7413 44.4645 10.627 44.4645 10.5128V10.3006C44.4645 9.2559 45.3296 8.40709 46.4069 8.40709C46.5865 8.40709 46.7823 8.42342 46.9456 8.47238L51.5323 9.79456L33.7892 0.0496979L25.7909 8.04798V11.7696L34.1973 3.36327L42.2608 7.93372V7.91741Z" fill="white"/>
<path d="M38.6214 13.043L34.9161 16.1443L29.8886 21.1718C29.1051 21.9553 28.0767 23.506 27.2442 24.8608C26.4281 26.1993 25.7915 27.342 25.7589 27.3909V25.8239L27.8645 20.8617C27.9624 20.6495 28.0441 20.421 28.1583 20.2088L28.2073 20.1435C28.9908 18.6418 30.0355 17.2706 31.3087 16.1443L35.1772 12.6675L38.6051 13.0593L38.6214 13.043Z" fill="white"/>
<path d="M25.7742 24.5021V25.7752L23.6686 20.8131C23.5706 20.6009 23.489 20.3723 23.3747 20.1601L23.3258 20.0948C22.5423 18.5931 21.4976 17.222 20.2244 16.0957L16.3558 12.6189L16.7965 9.24001L18.1187 10.5622L21.7098 13.941C23.2605 15.3938 24.3215 17.3199 24.7622 19.4256L25.8069 24.4694H25.7906L25.7742 24.5021Z" fill="white"/>
<path d="M25.7743 25.8073V27.3743C25.7743 27.3743 23.1953 22.7223 21.6446 21.1716L16.6171 16.1441L12.9117 13.0427L16.3396 12.651L20.2081 16.1278C21.4813 17.2704 22.5261 18.6252 23.3096 20.1269L23.3585 20.1922C23.4728 20.4044 23.5707 20.6166 23.6523 20.8451L25.758 25.8073H25.7743Z" fill="white"/>
<path d="M34.752 9.27206L35.1927 12.6509L31.3241 16.1278C30.0509 17.2704 29.0063 18.6252 28.2227 20.1269L28.1738 20.1922C28.0595 20.4044 27.9616 20.6166 27.88 20.8451L25.7743 25.8073V24.5341L26.819 19.4903C27.2434 17.3846 28.3207 15.4911 29.8714 14.0058L33.4625 10.6269L34.7846 9.30472H34.7683L34.752 9.27206Z" fill="white"/>
<path d="M39.7142 26.3305V33.6432C39.7142 36.614 33.8052 42.5229 25.7743 44.6612C34.6867 41.6741 37.4453 35.8305 37.4453 33.2025V16.1122L38.6205 13.0272L35.1927 12.6354L34.752 9.25656L37.886 11.1174C39.0286 11.7866 39.7142 13.0109 39.7142 14.3657V26.3468V26.3305Z" fill="white"/>
<path d="M38.6205 13.0424L37.4453 16.1275V33.2177C37.4453 35.862 34.6867 41.6894 25.7743 44.6765C33.5767 41.6404 35.2907 36.368 35.2907 32.2546V17.1069L38.6205 13.0261V13.0424Z" fill="white"/>
<path d="M16.2577 22.151C16.2577 26.2481 17.9553 31.5367 25.774 34.5728C18.2654 32.0917 14.1031 26.6725 14.1031 23.9792V16.3073L12.9278 13.0101L16.2577 17.0908V22.1347V22.151Z" fill="white"/>
<path d="M14.1033 23.9799C14.1033 26.6733 18.2657 32.0925 25.7743 34.5736C17.7433 32.419 11.8344 26.51 11.8344 23.5555V14.3657C11.8344 13.0435 12.5363 11.8193 13.6626 11.1174L16.7966 9.25656L16.3559 12.6354L12.928 13.0272L14.1033 16.3244V23.9963V23.9799Z" fill="white"/>
<path d="M37.4455 17.7928V19.6699L37.4945 21.5471V30.9328L37.4455 32.81V30.9328L37.4292 29.0557V25.3014V21.5471V17.7928H37.4455Z" fill="white"/>
<path d="M14.104 17.7928C14.104 18.2988 14.1203 18.7885 14.1203 19.2945V23.0488C14.1203 23.31 14.104 23.5548 14.0714 23.7834V19.2945C14.0714 18.7885 14.0713 18.2988 14.0876 17.7928H14.104Z" fill="white"/>
<path d="M44.6439 13.3371V16.1936L44.6602 19.0665V24.7632V30.4926V36.222L44.6113 33.3492V24.7796V19.0828V13.3534L44.6439 13.3371Z" fill="white"/>
<path d="M6.88882 13.3371V16.1936L6.90511 19.0665V24.7632V30.4926V36.222L6.85614 33.3492V24.7796V19.0828V13.3534L6.88882 13.3371Z" fill="white"/>
<path d="M17.89 3.86897C18.494 4.44028 19.0653 5.01159 19.6692 5.5829L21.4321 7.31314L23.1623 9.07603L24.0112 9.95748L24.8763 10.8389L23.9948 9.97379L23.1134 9.10867L21.3505 7.37843L19.6203 5.61554C19.0489 5.04423 18.4613 4.44029 17.9064 3.83633H17.89V3.86897Z" fill="white"/>
<g opacity="0.5">
<path d="M51.4673 9.79383H48.9862C47.9904 9.79383 47.2069 10.5773 47.2069 11.573V14.0215C45.6399 15.0825 43.877 16.1761 41.902 17.2208V13.2217C41.902 11.573 41.0205 10.0876 39.6494 9.23884L34.6055 6.36598L29.1373 11.8342C25.889 15.0825 25.7585 20.9914 25.7585 20.9914C25.7585 20.9914 25.6116 15.0825 22.3796 11.8342L16.9114 6.36598L11.8676 9.23884C10.4964 10.104 9.61497 11.573 9.61497 13.1727V25.7904C7.90105 25.9047 6.12183 26.0026 4.30997 26.0516V11.5241C4.30997 10.5284 3.52647 9.74485 2.53077 9.74485H0.0496826L17.7928 0L25.7911 7.99828L33.7894 0L51.5325 9.74485L51.4836 9.79383H51.4673Z" fill="white"/>
<path d="M39.698 14.3637V18.3628C38.3105 19.0321 36.8252 19.685 35.2745 20.3053V17.1059L38.6044 13.0252L34.899 16.1266L29.8715 21.1541C29.5288 21.4969 29.1533 21.9702 28.7616 22.5252C27.8638 22.7864 26.9497 23.0312 26.003 23.2597L26.7865 19.4401C27.2109 17.3345 28.2882 15.441 29.8389 13.9556L33.43 10.5767L34.7521 9.25456L37.8862 11.1154C39.0288 11.7846 39.7143 13.0089 39.7143 14.3637H39.698Z" fill="white"/>
<path d="M24.7138 19.457L25.53 23.4235C24.9097 23.5867 24.2731 23.7173 23.6529 23.8642C22.951 22.8032 22.2327 21.7748 21.6451 21.1709L16.6176 16.1434L12.9123 13.042L16.2422 17.1228V22.1666C16.2422 23.1133 16.3401 24.109 16.5687 25.1537C15.2465 25.3332 13.8753 25.4965 12.4716 25.6434C12.0308 24.8762 11.8023 24.158 11.8023 23.5867V14.3968C11.8023 13.0746 12.5042 11.8504 13.6305 11.1485L16.7645 9.28769L18.0867 10.6099L21.6778 13.9887C23.2285 15.4415 24.2895 17.3676 24.7302 19.4733L24.7138 19.457Z" fill="white"/>
</g>
<g style="mix-blend-mode:overlay">
<path d="M47.2226 34.2299V11.5572C47.2226 10.5615 48.0061 9.77799 49.0018 9.77799H51.4829L33.7397 0.0331268L25.7414 8.03142L17.7431 0.0331268L0 9.77799H2.48109C3.47679 9.77799 4.26029 10.5615 4.26029 11.5572V34.2299C4.26029 35.5684 3.16665 36.6784 1.81183 36.6784H0L4.26029 38.5718L18.5756 44.9378L12.6667 40.1715C10.7242 38.6045 9.58162 36.205 9.58162 33.7076V13.2548C9.58162 11.6062 10.4631 10.1208 11.8342 9.27197L16.878 6.39912L22.3462 11.8673C25.5945 15.1156 25.7251 21.0246 25.7251 21.0246C25.7251 21.0246 25.872 15.1156 29.104 11.8673L34.5722 6.39912L39.616 9.27197C40.9872 10.1371 41.8686 11.6062 41.8686 13.2058V33.6749C41.8686 36.1724 40.726 38.5555 38.7835 40.1389L32.8746 44.9052L47.1899 38.5392L51.4502 36.6457H49.6383C48.2999 36.6457 47.1899 35.5521 47.1899 34.1973L47.2226 34.2299Z" fill="white"/>
<path d="M35.3074 20.3066V32.2387C35.3074 36.3358 33.6098 41.6245 25.791 44.6606C33.822 42.5059 39.7309 36.597 39.7309 33.6425V14.3487C39.7309 13.0265 39.0291 11.8023 37.9028 11.1004L34.7687 9.23957L33.4466 10.5617L29.8555 13.9406C28.3048 15.3934 27.2438 17.3195 26.8031 19.4251L26.0195 23.2447L25.7584 24.469L25.5299 23.359L24.7137 19.3925C24.2893 17.2868 23.212 15.3934 21.6613 13.908L18.0702 10.5291L16.7481 9.20692L13.6141 11.0678C12.4714 11.737 11.7859 12.9612 11.7859 14.316V23.9793C11.7859 23.9793 11.7859 24.0772 11.8022 24.1262C11.8022 24.1752 11.8022 24.1915 11.8185 24.2405V24.2894C11.8185 24.2894 11.8185 24.3547 11.8349 24.3874V24.4363C11.8349 24.4363 11.8348 24.5016 11.8511 24.5343V24.5832C11.8511 24.5832 11.9001 24.6812 11.9001 24.7301V24.7791C11.9001 24.7791 11.9164 24.8444 11.9491 24.8934C11.9491 24.8934 11.9491 24.9423 11.9654 24.9587C11.9654 24.975 11.9817 25.024 12.0144 25.0566C12.0144 25.0566 12.0144 25.1056 12.0307 25.1219C12.0307 25.1382 12.047 25.1872 12.0797 25.2198C12.0797 25.2198 12.0797 25.2688 12.096 25.2851C12.1123 25.3341 12.145 25.3831 12.1613 25.4484C12.1613 25.4484 12.1776 25.4973 12.2103 25.5136C12.2103 25.53 12.2266 25.5626 12.2592 25.5789C14.0221 28.6803 19.0986 32.81 25.5299 34.5403C19.5067 32.2061 17.1235 28.5334 16.34 25.0892C16.242 24.7138 16.1767 24.3221 16.1278 23.9466C16.1278 23.8324 16.1115 23.7181 16.0788 23.6039V23.5549C16.0788 23.4406 16.0788 23.3427 16.0625 23.2284V22.4939V17.0909L12.7326 13.0102L16.4379 16.1116L21.4654 21.1391C21.4654 21.1391 21.5307 21.2044 21.5797 21.2533C22.1347 21.8573 22.8366 22.8367 23.4569 23.7997C24.5668 25.53 25.5625 27.3255 25.5625 27.3255C25.5625 27.2765 26.2154 26.1502 27.0479 24.7954C27.6192 23.865 28.2722 22.853 28.9088 22.0368C28.9577 21.9389 29.0067 21.8899 29.0557 21.8246C29.0557 21.8246 29.072 21.8083 29.1046 21.7757C29.1536 21.7267 29.1699 21.6777 29.2189 21.6288C29.2189 21.6288 29.2352 21.5798 29.2679 21.5635C29.2842 21.5145 29.3331 21.4982 29.3658 21.4492C29.3658 21.4492 29.3821 21.4002 29.4148 21.3839C29.4311 21.3349 29.48 21.3186 29.5127 21.2697C29.5127 21.2697 29.529 21.2533 29.5617 21.2207C29.6106 21.1717 29.6596 21.1227 29.7086 21.0738L34.7361 16.0463L38.4414 12.9449L35.1115 17.0257V20.225L35.3237 20.3229L35.3074 20.3066Z" fill="white"/>
</g>
<g style="mix-blend-mode:overlay">
<path d="M47.2226 34.2299V11.5572C47.2226 10.5615 48.0061 9.77799 49.0018 9.77799H51.4829L33.7397 0.0331268L25.7414 8.03142L17.7431 0.0331268L0 9.77799H2.48109C3.47679 9.77799 4.26029 10.5615 4.26029 11.5572V34.2299C4.26029 35.5684 3.16665 36.6784 1.81183 36.6784H0L4.26029 38.5718L18.5756 44.9378L12.6667 40.1715C10.7242 38.6045 9.58162 36.205 9.58162 33.7076V13.2548C9.58162 11.6062 10.4631 10.1208 11.8342 9.27197L16.878 6.39912L22.3462 11.8673C25.5945 15.1156 25.7251 21.0246 25.7251 21.0246C25.7251 21.0246 25.872 15.1156 29.104 11.8673L34.5722 6.39912L39.616 9.27197C40.9872 10.1371 41.8686 11.6062 41.8686 13.2058V33.6749C41.8686 36.1724 40.726 38.5555 38.7835 40.1389L32.8746 44.9052L47.1899 38.5392L51.4502 36.6457H49.6383C48.2999 36.6457 47.1899 35.5521 47.1899 34.1973L47.2226 34.2299Z" fill="white"/>
<path d="M35.3074 20.3066V32.2387C35.3074 36.3358 33.6098 41.6245 25.791 44.6606C33.822 42.5059 39.7309 36.597 39.7309 33.6425V14.3487C39.7309 13.0265 39.0291 11.8023 37.9028 11.1004L34.7687 9.23957L33.4466 10.5617L29.8555 13.9406C28.3048 15.3934 27.2438 17.3195 26.8031 19.4251L26.0195 23.2447L25.7584 24.469L25.5299 23.359L24.7137 19.3925C24.2893 17.2868 23.212 15.3934 21.6613 13.908L18.0702 10.5291L16.7481 9.20692L13.6141 11.0678C12.4714 11.737 11.7859 12.9612 11.7859 14.316V23.9793C11.7859 23.9793 11.7859 24.0772 11.8022 24.1262C11.8022 24.1752 11.8022 24.1915 11.8185 24.2405V24.2894C11.8185 24.2894 11.8185 24.3547 11.8349 24.3874V24.4363C11.8349 24.4363 11.8348 24.5016 11.8511 24.5343V24.5832C11.8511 24.5832 11.9001 24.6812 11.9001 24.7301V24.7791C11.9001 24.7791 11.9164 24.8444 11.9491 24.8934C11.9491 24.8934 11.9491 24.9423 11.9654 24.9587C11.9654 24.975 11.9817 25.024 12.0144 25.0566C12.0144 25.0566 12.0144 25.1056 12.0307 25.1219C12.0307 25.1382 12.047 25.1872 12.0797 25.2198C12.0797 25.2198 12.0797 25.2688 12.096 25.2851C12.1123 25.3341 12.145 25.3831 12.1613 25.4484C12.1613 25.4484 12.1776 25.4973 12.2103 25.5136C12.2103 25.53 12.2266 25.5626 12.2592 25.5789C14.0221 28.6803 19.0986 32.81 25.5299 34.5403C19.5067 32.2061 17.1235 28.5334 16.34 25.0892C16.242 24.7138 16.1767 24.3221 16.1278 23.9466C16.1278 23.8324 16.1115 23.7181 16.0788 23.6039V23.5549C16.0788 23.4406 16.0788 23.3427 16.0625 23.2284V22.4939V17.0909L12.7326 13.0102L16.4379 16.1116L21.4654 21.1391C21.4654 21.1391 21.5307 21.2044 21.5797 21.2533C22.1347 21.8573 22.8366 22.8367 23.4569 23.7997C24.5668 25.53 25.5625 27.3255 25.5625 27.3255C25.5625 27.2765 26.2154 26.1502 27.0479 24.7954C27.6192 23.865 28.2722 22.853 28.9088 22.0368C28.9577 21.9389 29.0067 21.8899 29.0557 21.8246C29.0557 21.8246 29.072 21.8083 29.1046 21.7757C29.1536 21.7267 29.1699 21.6777 29.2189 21.6288C29.2189 21.6288 29.2352 21.5798 29.2679 21.5635C29.2842 21.5145 29.3331 21.4982 29.3658 21.4492C29.3658 21.4492 29.3821 21.4002 29.4148 21.3839C29.4311 21.3349 29.48 21.3186 29.5127 21.2697C29.5127 21.2697 29.529 21.2533 29.5617 21.2207C29.6106 21.1717 29.6596 21.1227 29.7086 21.0738L34.7361 16.0463L38.4414 12.9449L35.1115 17.0257V20.225L35.3237 20.3229L35.3074 20.3066Z" fill="white"/>
</g>
</svg>
