<svg width="120" height="32" viewBox="0 0 120 32" fill="none" xmlns="http://www.w3.org/2000/svg">
<path d="M27.3118 0.139458C24.4389 0.237396 21.7293 1.2984 19.6889 3.14291C17.5996 1.26575 14.8247 0.20475 11.8865 0.139458H11.658C8.78513 0.20475 6.05918 1.2984 4.0188 3.14291C3.00677 4.04067 2.20694 5.13432 1.6846 6.34222C1.14594 7.55013 0.901092 8.82332 0.950061 10.1128V17.1154C0.901092 17.5072 0.95006 17.9316 1.06432 18.3233C1.17858 18.7151 1.39078 19.0905 1.6846 19.3843C1.94577 19.6455 2.23958 19.8251 2.56605 19.9556C2.90883 20.1025 3.26793 20.1678 3.62704 20.1678C4.01879 20.1678 4.44319 20.1025 4.8023 19.9556C5.17773 19.8087 5.50419 19.5802 5.78168 19.3354C6.10814 19.0416 6.33667 18.7151 6.51622 18.3233C6.67945 17.9479 6.77739 17.5398 6.74474 17.1481V9.83535C6.90797 8.82332 7.44663 7.89291 8.29543 7.19101C8.73615 6.76662 9.27482 6.47281 9.84612 6.24429C10.4174 6.03209 11.054 5.91782 11.6743 5.91782C12.2946 5.91782 12.9475 6.01576 13.5351 6.24429C14.1064 6.47281 14.6451 6.79927 15.0858 7.22367C15.9673 7.89291 16.5059 8.83964 16.6202 9.88432V17.1644C16.5712 17.5562 16.6202 17.9479 16.7834 18.3233C16.9303 18.6988 17.1588 19.0415 17.4527 19.319C17.7138 19.5965 18.024 19.8087 18.3831 19.9393C18.7259 20.0862 19.1176 20.1678 19.5257 20.1515C19.9174 20.1515 20.3418 20.0862 20.701 19.9393C21.0764 19.7924 21.4028 19.5639 21.6803 19.319C22.2843 18.7477 22.6107 17.9479 22.5781 17.1644V9.85168C22.7413 8.83965 23.2963 7.87659 24.1614 7.20734C25.0592 6.39119 26.3161 5.93415 27.5893 5.93415C28.8625 5.93415 30.1194 6.39119 31.0171 7.20734C31.8496 7.90923 32.3556 8.87229 32.4372 9.90065V17.1807C32.4209 17.6051 32.4535 17.9969 32.6168 18.3886C32.78 18.7804 33.0085 19.1232 33.3187 19.4333C33.5962 19.7108 33.9226 19.923 34.298 20.0536C34.6735 20.2005 35.0652 20.2821 35.4733 20.2658C35.8487 20.2658 36.2079 20.1678 36.567 20.0373C36.9097 19.8904 37.2199 19.6945 37.4484 19.417C37.7259 19.0905 37.9381 18.7477 38.0523 18.356C38.1666 17.9642 38.2156 17.5725 38.1503 17.1807V10.1781C38.1993 8.90494 37.9707 7.63175 37.4484 6.42384C36.9424 5.21594 36.1589 4.1386 35.1795 3.22451C33.237 1.39633 30.5927 0.335339 27.7852 0.221078H27.3444L27.3118 0.139458Z" fill="white"/>
<path d="M43.52 3.1588C42.4753 4.08921 41.6591 5.16652 41.1042 6.37443C40.5492 7.58233 40.2717 8.87186 40.288 10.194C40.288 11.4835 40.5492 12.7894 41.1042 14.0136C41.6591 15.2215 42.4753 16.2988 43.52 17.2293C44.532 18.1597 45.7725 18.8942 47.0947 19.4002C48.4332 19.9062 49.8696 20.1674 51.3061 20.1674C52.7425 20.1674 54.1952 19.9062 55.5174 19.4002C56.8559 18.8942 58.0638 18.1433 59.0922 17.2293C59.386 16.9681 59.6308 16.658 59.794 16.2988C59.9573 15.9561 60.0552 15.5806 60.0552 15.2052C60.0552 14.8298 59.9899 14.4707 59.8267 14.1116C59.6635 13.7525 59.4349 13.4586 59.1248 13.1811C58.8473 12.92 58.5045 12.7241 58.1291 12.5772C57.7537 12.4303 57.3456 12.365 56.9538 12.365C56.5294 12.365 56.1214 12.4303 55.7296 12.5772C55.3379 12.7241 54.9951 12.9526 54.6849 13.1975C54.2442 13.6219 53.7382 13.932 53.1506 14.1442C52.5793 14.3564 51.9427 14.4707 51.3224 14.4707C50.7021 14.4707 50.0655 14.3564 49.5105 14.1442C48.9392 13.932 48.4169 13.6055 47.9762 13.1975C47.5191 12.8057 47.1437 12.3323 46.8825 11.8263C46.6213 11.2877 46.4908 10.7327 46.4908 10.1777C46.4908 9.62272 46.5887 9.03509 46.8335 8.51276C47.0621 7.9741 47.4375 7.51704 47.8782 7.12529C48.3189 6.70089 48.825 6.39076 49.4126 6.17856C49.9839 5.96636 50.6205 5.85209 51.2408 5.85209H51.4203L48.8739 8.28423C48.5801 8.5454 48.3353 8.85553 48.2047 9.18199C48.0414 9.52478 47.9762 9.90021 47.9762 10.2756C47.9762 11.0428 48.3026 11.761 48.9066 12.2834C49.5105 12.822 50.294 13.1159 51.1591 13.1159C51.5835 13.1159 52.0243 13.0506 52.416 12.8873C52.8078 12.7241 53.1506 12.5119 53.4607 12.2181L59.1411 7.12529C59.4186 6.8478 59.6308 6.55398 59.7614 6.19487C59.9083 5.85209 59.9736 5.47666 59.941 5.10123C59.941 4.70948 59.843 4.31773 59.6635 3.9423L59.4839 3.61584L59.0269 3.07718C58.0475 2.13044 56.8559 1.37958 55.5337 0.857242C54.2116 0.351228 52.8078 0.0737305 51.3714 0.0737305C49.9349 0.0737305 48.4822 0.302261 47.1274 0.808275C45.7889 1.31429 44.581 2.06515 43.5526 2.97924" fill="white"/>
<path d="M73.0479 0.155495C70.1261 0.171818 67.3185 1.24914 65.2618 3.14262C64.2008 4.02406 63.3193 5.1177 62.7317 6.30928C62.1278 7.51718 61.8013 8.80671 61.785 10.1289V17.1315C61.785 17.5559 61.8829 17.9966 62.0625 18.3557C62.242 18.7475 62.5195 19.0902 62.846 19.4004C63.4662 19.9554 64.2987 20.2655 65.1802 20.2655C65.6209 20.2655 66.0453 20.2002 66.437 20.0533C66.8288 19.9064 67.2042 19.6779 67.498 19.433C67.8245 19.1392 68.102 18.7801 68.2652 18.3883C68.4448 17.9966 68.5264 17.5722 68.5264 17.1641V9.88403C68.5264 8.90465 68.9508 7.95792 69.6853 7.2397C70.126 6.81531 70.6647 6.50516 71.236 6.29297C71.8073 6.08077 72.4439 5.9665 73.0968 5.99915C73.5212 5.99915 73.9293 5.90121 74.3047 5.73797C74.6802 5.57474 75.023 5.34623 75.3005 5.06874C75.5943 4.80757 75.8391 4.49743 76.0023 4.13832C76.1656 3.77922 76.2309 3.42011 76.2309 3.02836C76.2309 2.65292 76.1656 2.29382 76.0023 1.93471C75.8391 1.57561 75.6106 1.28178 75.3005 1.00429C75.0066 0.726796 74.6475 0.514601 74.2558 0.384016C73.864 0.253432 73.4396 0.171816 73.0316 0.204462V0.155495H73.0479Z" fill="white"/>
<path d="M83.5119 13.2305C83.0711 12.8387 82.6957 12.3654 82.4672 11.843C82.2387 11.337 82.0918 10.7494 82.1244 10.1944C82.1244 9.6231 82.2223 9.05178 82.4672 8.52945C82.6957 7.99079 83.0711 7.53374 83.5119 7.14199C83.9526 6.75024 84.4913 6.42378 85.0626 6.21158C85.6339 5.99938 86.2705 5.88512 86.8907 5.88512C87.511 5.88512 88.1476 5.99938 88.7189 6.21158C89.2902 6.42378 89.8289 6.75024 90.2696 7.14199C90.7103 7.53374 91.0531 8.02343 91.2816 8.52945C91.5102 9.06811 91.6244 9.62309 91.6244 10.1781C91.6244 10.7331 91.5102 11.288 91.2816 11.8267C91.0531 12.3327 90.7103 12.8224 90.2696 13.2142C89.3718 13.9977 88.1639 14.4384 86.9071 14.4384C85.6502 14.4384 84.4586 13.9977 83.5445 13.2142H83.4956L83.5119 13.2305ZM79.0883 3.15917C78.0763 4.08959 77.2765 5.19955 76.7541 6.40746C76.2155 7.61536 75.9706 8.90488 75.9869 10.227C75.9706 11.5166 76.2481 12.8387 76.8031 14.0466C77.3581 15.2546 78.1742 16.3319 79.2189 17.2623C80.2309 18.209 81.4388 18.9599 82.7937 19.4659C84.1322 19.9719 85.5686 20.2331 87.0377 20.2004C88.4251 20.2004 89.7962 20.0209 91.0858 19.5802C90.8572 19.9229 90.5961 20.2331 90.2696 20.5106C89.4535 21.2778 88.3435 21.7348 87.1682 21.7838H86.7275C86.3031 21.7838 85.9114 21.8491 85.5196 22.0123C85.1442 22.1592 84.8014 22.3877 84.5239 22.6652C84.2301 22.9264 83.9852 23.2365 83.822 23.5956C83.6588 23.9547 83.5935 24.3138 83.5935 24.7056C83.6425 25.4728 83.9689 26.191 84.5402 26.746C85.1115 27.301 85.8787 27.6437 86.7112 27.7254C88.2129 27.7417 89.6983 27.4968 91.0858 26.9582C92.4732 26.4195 93.7301 25.636 94.7421 24.6403C96.7499 22.8121 97.8925 20.3473 97.9578 17.7846V9.37825C97.6639 7.09303 96.5213 4.9547 94.7421 3.28975C93.7301 2.35934 92.5222 1.62481 91.1674 1.11879C89.8289 0.612779 88.3925 0.351608 86.956 0.351608C85.5196 0.351608 84.0832 0.612779 82.7447 1.11879C81.4062 1.62481 80.1983 2.37566 79.1699 3.28975" fill="white"/>
<path d="M102.789 3.15898C101.744 4.0894 100.928 5.16671 100.373 6.37461C99.818 7.58252 99.5405 8.87205 99.5569 10.1942C99.5405 11.4837 99.818 12.8059 100.373 14.0138C100.928 15.2217 101.744 16.299 102.789 17.2294C103.801 18.1599 105.041 18.8944 106.364 19.4004C107.702 19.9064 109.138 20.1676 110.575 20.1676C112.011 20.1676 113.464 19.9064 114.786 19.4004C116.125 18.8944 117.333 18.1435 118.361 17.2294C118.655 16.9683 118.9 16.6581 119.063 16.299C119.226 15.9562 119.324 15.5808 119.324 15.2054C119.324 14.83 119.259 14.4709 119.096 14.1117C118.932 13.7526 118.704 13.4588 118.394 13.1813C117.822 12.6427 117.023 12.3652 116.19 12.3489C115.766 12.3489 115.358 12.4141 114.982 12.5774C114.607 12.7243 114.264 12.9202 113.97 13.1976C113.138 13.9648 112.028 14.4219 110.836 14.4545C110.216 14.4545 109.579 14.3566 109.008 14.1281C108.437 13.9159 107.898 13.5894 107.457 13.1813C107.016 12.7896 106.674 12.3162 106.445 11.7939C106.217 11.2878 106.102 10.7002 106.102 10.1452C106.102 9.59026 106.217 9.00263 106.445 8.49661C106.674 7.95795 107.016 7.5009 107.457 7.0765C107.898 6.65211 108.437 6.35829 109.008 6.14609C109.579 5.93389 110.216 5.81964 110.836 5.81964L108.29 8.25177C107.718 8.79043 107.408 9.50864 107.408 10.2432C107.408 10.7982 107.588 11.3531 107.947 11.8102C108.29 12.2672 108.779 12.6427 109.367 12.8549C109.938 13.0671 110.575 13.1324 111.179 13.0344C111.783 12.9365 112.338 12.659 112.795 12.2672L118.426 7.17445C118.72 6.91328 118.965 6.61946 119.128 6.27668C119.291 5.9339 119.389 5.55847 119.357 5.18304C119.357 4.79128 119.259 4.39953 119.079 4.0241L118.9 3.42015L118.573 3.07736C117.577 2.13063 116.402 1.36344 115.047 0.857428C113.725 0.351413 112.289 0.0739194 110.836 0.0902424C109.334 0.0412733 107.849 0.30245 106.462 0.824787C105.074 1.36345 103.817 2.11431 102.805 3.09369H102.821L102.789 3.15898Z" fill="white"/>
<path d="M5.96046 22.9592V29.4884H5.14431V28.7212C4.98108 28.9987 4.71991 29.2109 4.4261 29.3741C4.13228 29.5374 3.80582 29.6027 3.44671 29.6027C3.1529 29.6027 2.84276 29.5047 2.56527 29.3905C2.28778 29.2762 2.02661 29.0966 1.84705 28.8844C1.6675 28.6722 1.50427 28.4274 1.40633 28.1662C1.30839 27.8887 1.29207 27.6113 1.34104 27.3338C1.29207 27.0399 1.34104 26.7625 1.40633 26.4523C1.50427 26.1748 1.6675 25.8973 1.86338 25.6851C2.07558 25.4566 2.32042 25.2607 2.63056 25.1302C2.92437 24.9832 3.23451 24.918 3.56097 24.9016C3.85479 24.9016 4.13228 24.9506 4.4261 25.0649C4.68727 25.1791 4.91578 25.3587 5.04637 25.6035V22.9592H5.94414H5.96046ZM5.07901 26.8114V26.4686C5.01372 26.1911 4.80153 25.93 4.54036 25.7667C4.26287 25.6035 3.93641 25.5382 3.64259 25.5872C2.74482 25.5872 2.15719 26.3054 2.15719 27.3011C2.15719 28.2968 2.64688 28.9497 3.59362 28.9497C3.88743 28.9497 4.19757 28.8518 4.45874 28.6722C4.68727 28.4927 4.85049 28.2479 4.91579 27.9704V27.6276L5.07901 26.7625V26.8114Z" fill="white"/>
<path d="M9.43696 23.7906C9.43696 23.9375 9.37167 24.0518 9.27374 24.1661C9.15947 24.264 9.01256 24.313 8.88197 24.313C8.75139 24.313 8.58816 24.264 8.49022 24.1661C8.37596 24.0681 8.327 23.9375 8.327 23.7906C8.327 23.7253 8.32699 23.6274 8.37596 23.5621C8.39229 23.4968 8.47391 23.4152 8.52288 23.3826C8.58817 23.3336 8.66978 23.2846 8.7514 23.2846H9.01256C9.15947 23.2846 9.27373 23.3499 9.35534 23.4642C9.45328 23.5621 9.4696 23.6764 9.4696 23.7906H9.45329H9.43696ZM8.45758 29.52V25.0312H9.33903V29.52H8.45758Z" fill="white"/>
<path d="M16.0489 25.0154V28.835C16.0978 29.2105 16.0489 29.5696 15.9509 29.9287C15.8367 30.2715 15.6245 30.5979 15.347 30.8754C14.841 31.2508 14.2044 31.4304 13.5351 31.4141C12.9638 31.4141 12.3925 31.2998 11.8865 31.0386L12.0987 30.4184C12.5394 30.6795 13.0291 30.7938 13.5351 30.7938C14.4329 30.7938 15.1185 30.3531 15.1185 29.2431V28.7371C14.9552 28.9656 14.7267 29.1778 14.4492 29.2921C14.1717 29.439 13.8779 29.4716 13.5514 29.4716C13.2576 29.4716 12.9475 29.4063 12.6863 29.2921C12.4088 29.1778 12.1803 29.0146 11.9844 28.8024C11.8049 28.5902 11.6417 28.3617 11.5437 28.1005C11.4458 27.8393 11.4294 27.5618 11.4458 27.317C11.3968 27.0232 11.4458 26.713 11.5111 26.4355C11.609 26.158 11.7722 25.8806 11.9681 25.652C12.1803 25.4235 12.4252 25.2276 12.7353 25.0971C13.0291 24.9501 13.3392 24.8849 13.682 24.8685C13.9758 24.8685 14.3023 24.9175 14.5635 25.0481C14.841 25.195 15.0532 25.3909 15.2164 25.6194V24.9502L16.0326 24.9991L16.0489 25.0154ZM15.1511 26.811C15.1674 26.6967 15.1674 26.5498 15.1511 26.4355C15.0858 26.1744 14.9226 25.9785 14.6941 25.8153C14.4655 25.652 14.188 25.5867 13.9105 25.5867C13.0454 25.5867 12.4741 26.2397 12.4741 27.2517C12.4741 28.2637 12.9638 28.8677 13.9105 28.8677C14.188 28.8677 14.4655 28.7697 14.6777 28.6065C14.9063 28.4433 15.0695 28.2311 15.1348 28.0026C15.1511 27.8556 15.1511 27.7087 15.1348 27.5618V26.7457V26.7947L15.1511 26.811Z" fill="white"/>
<path d="M19.509 23.7906C19.509 23.9375 19.4437 24.0518 19.3458 24.1661C19.2315 24.264 19.0846 24.313 18.954 24.313C18.8235 24.313 18.6602 24.264 18.5623 24.1661C18.448 24.0681 18.399 23.9375 18.399 23.7906C18.399 23.7253 18.399 23.6437 18.448 23.6111C18.4643 23.5458 18.5133 23.4968 18.5623 23.4478C18.6112 23.3989 18.6765 23.3499 18.7418 23.3336C18.8071 23.3173 18.8887 23.2846 18.954 23.2846C19.0193 23.2846 19.1009 23.2846 19.1662 23.3009C19.2315 23.3173 19.3131 23.3662 19.3458 23.4152C19.3948 23.4642 19.4437 23.5295 19.46 23.5784C19.4764 23.6437 19.509 23.7253 19.509 23.7906ZM18.5133 29.52V25.0312H19.4111V29.52H18.5133Z" fill="white"/>
<path d="M22.9699 23.7746V25.0315H24.2594V25.6518H22.9699V28.0839C22.9699 28.6389 23.1494 28.9654 23.6391 28.9654H24.1778V29.5693C23.9166 29.6346 23.6718 29.6836 23.3943 29.6836C23.1821 29.6836 23.0025 29.6673 22.823 29.5693C22.6434 29.504 22.4965 29.3571 22.3823 29.2265C22.1211 28.9001 22.0068 28.492 22.0558 28.0839V25.6518H21.3376V25.0315H22.1211V23.9705L22.9862 23.791L22.9699 23.7746Z" fill="white"/>
<path d="M28.9929 29.5206V28.9657C28.8133 29.1779 28.5685 29.3411 28.3236 29.4553C28.0625 29.5696 27.7686 29.6186 27.4585 29.6186C27.279 29.6186 27.0668 29.6186 26.8872 29.5533C26.7076 29.488 26.5444 29.3901 26.3975 29.2758C26.2506 29.1615 26.1363 28.9983 26.071 28.8351C26.0058 28.6718 25.9568 28.4923 25.9568 28.3291C25.9568 27.2354 27.0178 26.6641 28.9276 26.6804C28.9276 26.5335 28.9276 26.4029 28.8786 26.256C28.8296 26.1091 28.7317 25.9949 28.6501 25.9132C28.5358 25.8153 28.4216 25.7337 28.2583 25.6847C28.0951 25.6357 27.9645 25.6194 27.8013 25.6358C27.3442 25.6358 26.9035 25.75 26.5118 25.9785L26.3322 25.4399C26.8219 25.1624 27.3769 25.0155 27.9319 25.0155C29.4336 25.0155 29.809 25.9622 29.809 26.8763V28.5413C29.7927 28.884 29.7927 29.2595 29.809 29.6023L28.9765 29.5043H29.0255L28.9929 29.5206ZM28.8623 27.2191C27.8666 27.2191 26.7729 27.3334 26.7729 28.2148C26.7729 28.3127 26.7729 28.427 26.8219 28.5086C26.8709 28.6065 26.9198 28.6882 27.0015 28.7698C27.0668 28.8351 27.181 28.9167 27.279 28.933C27.3932 28.982 27.5075 28.982 27.6054 28.982C27.8666 28.982 28.1441 28.9167 28.34 28.8024C28.5522 28.6555 28.7154 28.476 28.797 28.2474V28.0189L28.846 27.2517L28.8623 27.2191Z" fill="white"/>
<path d="M32.1759 22.9592H33.1063V29.4884H32.2086V22.9592H32.1923H32.1759Z" fill="white"/>
<path d="M41.4637 29.5206V28.9657C41.2842 29.1779 41.072 29.3411 40.7945 29.4553C40.5333 29.5696 40.2395 29.6186 39.962 29.6186C39.7824 29.6186 39.5702 29.6186 39.3907 29.5533C39.2111 29.488 39.0479 29.3901 38.901 29.2758C38.7541 29.1615 38.6398 28.9983 38.5745 28.8351C38.5092 28.6718 38.4603 28.4923 38.4603 28.3291C38.4603 27.2354 39.5049 26.6641 41.4311 26.6804C41.4311 26.5335 41.4311 26.4029 41.3821 26.256C41.3331 26.1091 41.2352 25.9949 41.1536 25.9132C41.0393 25.8153 40.925 25.7337 40.7781 25.6847C40.6312 25.6357 40.4843 25.6194 40.3211 25.6358C39.864 25.6358 39.4233 25.75 39.0316 25.9785L38.8194 25.4399C39.3091 25.1624 39.8804 25.0155 40.468 25.0155C41.9697 25.0155 42.3451 25.9622 42.3451 26.8763V28.5413C42.2962 28.884 42.2962 29.2595 42.3451 29.6023L41.48 29.5043L41.4637 29.5206ZM41.4637 27.2191C40.4843 27.2191 39.3744 27.3334 39.3744 28.2148C39.3744 28.3127 39.3744 28.427 39.4233 28.5086C39.4723 28.6065 39.5213 28.6882 39.6029 28.7698C39.7008 28.8351 39.7824 28.9167 39.8804 28.933C39.9946 28.982 40.1089 28.982 40.2232 28.982C40.4843 28.982 40.7292 28.933 40.9577 28.8024C41.1699 28.6555 41.3331 28.476 41.3984 28.2474C41.4147 28.1821 41.4147 28.0842 41.3984 28.0189L41.4474 27.2517L41.4637 27.2191Z" fill="white"/>
<path d="M48.8746 25.0154V28.835C48.9236 29.2105 48.8746 29.5696 48.7767 29.9287C48.6624 30.2715 48.4502 30.5979 48.1727 30.8754C47.6667 31.2508 47.0301 31.4304 46.3609 31.4141C45.7896 31.4141 45.2183 31.2998 44.7122 31.0386L44.9244 30.4184C45.3652 30.6795 45.8549 30.7938 46.3609 30.7938C47.2913 30.7938 47.9605 30.3531 47.9605 29.2431V28.7371C47.7973 28.9656 47.5688 29.1778 47.2913 29.3084C47.0138 29.4553 46.72 29.488 46.3935 29.488C46.0997 29.488 45.8222 29.39 45.5284 29.2758C45.2509 29.1615 45.0224 28.9983 44.8265 28.7861C44.6469 28.5739 44.4837 28.3453 44.3858 28.0842C44.2878 27.823 44.2715 27.5455 44.2878 27.3007C44.2389 27.0068 44.2878 26.7294 44.3531 26.4192C44.4511 26.1417 44.6143 25.8642 44.8102 25.652C45.0224 25.4235 45.2672 25.2276 45.5774 25.0971C45.8712 24.9501 46.1813 24.8849 46.5078 24.8685C46.8016 24.8685 47.1281 24.9175 47.3892 25.0481C47.6667 25.195 47.8789 25.3909 48.0095 25.652V24.9828L48.793 25.0318H48.842L48.8746 25.0154ZM47.9442 26.811C47.9605 26.6967 47.9605 26.5498 47.9442 26.4355C47.8789 26.1744 47.7157 25.9785 47.4872 25.8316C47.2586 25.6684 46.9975 25.6031 46.72 25.6031C45.8548 25.6031 45.2346 26.256 45.2346 27.268C45.2346 28.28 45.7243 28.884 46.671 28.884C46.9485 28.884 47.226 28.7861 47.4545 28.6555C47.683 28.4922 47.8463 28.2801 47.9442 28.0515C47.9605 27.9046 47.9605 27.7577 47.9442 27.6108V26.7947V26.811Z" fill="white"/>
<path d="M51.8611 27.4309C51.8611 27.6431 51.8611 27.8553 51.9591 28.0349C52.0244 28.2144 52.1713 28.4103 52.3345 28.5409C52.4977 28.6878 52.6773 28.802 52.9058 28.8673C53.118 28.9326 53.3465 28.9653 53.5751 28.9653C54.0321 28.9653 54.5218 28.9 54.9462 28.7368L55.1094 29.3081C54.6034 29.5203 54.0484 29.6019 53.4608 29.6019C53.1343 29.6019 52.7916 29.5855 52.4814 29.455C52.1876 29.3407 51.9101 29.1775 51.6653 28.9653C51.4367 28.7531 51.2409 28.5082 51.1592 28.2307C51.045 27.9532 50.996 27.6594 51.0123 27.3493C50.9634 27.0555 51.0123 26.7453 51.1103 26.4515C51.2082 26.1577 51.3715 25.8965 51.6 25.668C51.8122 25.4395 52.0897 25.2436 52.3835 25.1294C52.6773 24.9825 53.0037 24.9172 53.3629 24.9172C53.6567 24.9172 53.9342 24.9824 54.1953 25.0967C54.4565 25.211 54.7013 25.3742 54.8972 25.5538C55.0768 25.7659 55.2237 25.9945 55.3216 26.223C55.4196 26.4842 55.4359 26.729 55.3869 27.0065V27.3983H51.8611V27.4309ZM54.5544 26.8106C54.5544 26.6474 54.5544 26.4842 54.5055 26.3209C54.4565 26.1577 54.3586 26.0271 54.2443 25.8802C54.13 25.766 53.9831 25.6517 53.8036 25.5864C53.6404 25.5211 53.4608 25.4721 53.2649 25.4721C52.8895 25.4721 52.5304 25.6354 52.2529 25.8965C51.9917 26.1577 51.8285 26.4679 51.8285 26.827H54.5381L54.5544 26.8106Z" fill="white"/>
<path d="M57.4116 26.2556C57.4279 25.8638 57.4279 25.4394 57.4116 25.0477H58.2277V25.7822C58.391 25.5047 58.6195 25.2925 58.897 25.1293C59.1745 24.9824 59.5173 24.9008 59.8437 24.9171C60.513 24.9171 61.574 25.3088 61.574 26.8432V29.5039H60.6925V26.9248C60.6925 26.2066 60.3987 25.5863 59.5499 25.5863C59.2724 25.5863 59.0113 25.6843 58.8154 25.8148C58.6032 25.9618 58.4399 26.1576 58.3583 26.3862C58.342 26.5331 58.342 26.6473 58.3583 26.7779V29.4712H57.4606L57.4116 26.2066V26.2556Z" fill="white"/>
<path d="M67.5969 29.3406C67.1561 29.5201 66.6665 29.6181 66.1768 29.6181C65.8503 29.6181 65.5075 29.6017 65.1974 29.4711C64.9036 29.3569 64.6261 29.1937 64.3812 28.9815C64.1527 28.7693 63.9568 28.5244 63.8752 28.2143C63.7773 27.9205 63.712 27.643 63.7283 27.3328C63.712 27.0064 63.7283 26.6799 63.8752 26.3861C63.9895 26.0923 64.2017 25.8148 64.4465 25.5699C64.7077 25.3414 65.0015 25.1455 65.3443 25.0639C65.6871 24.9497 66.0462 24.9007 66.4053 24.917C66.846 24.917 67.2704 24.9823 67.6622 25.1292L67.45 25.7495C67.1235 25.5863 66.7807 25.521 66.4053 25.5373C66.1768 25.5373 65.9156 25.5863 65.7034 25.6842C65.4912 25.7821 65.279 25.8964 65.1321 26.0596C64.9689 26.2229 64.8546 26.4024 64.7567 26.6146C64.6914 26.8268 64.6587 27.039 64.6587 27.2675C64.6587 27.4797 64.6587 27.7082 64.7567 27.8878C64.8219 28.1 64.9689 28.2796 65.1321 28.4428C65.2953 28.606 65.4749 28.7203 65.7034 28.8182C65.9156 28.9162 66.1604 28.9325 66.4053 28.9325C66.7807 28.9325 67.1725 28.8672 67.4989 28.7203L67.5642 29.3732V29.3242L67.5969 29.3406Z" fill="white"/>
<path d="M69.9476 25.032L71.0412 27.6764L71.335 28.6068C71.335 28.3293 71.5146 28.0028 71.6615 27.6764L72.6409 25.032H73.6203L72.2818 28.2314C72.0043 29.2434 71.4493 30.2228 70.6821 31.0063C70.3883 31.2675 69.9802 31.447 69.5885 31.5449L69.3763 30.8757C69.6538 30.7778 69.9313 30.6472 70.1598 30.4513C70.4862 30.2228 70.7637 29.8963 70.9433 29.5535V29.1618L69.1151 25.032H69.9966H69.9476Z" fill="white"/>
</svg>
