<svg width="46" height="59" viewBox="0 0 46 59" fill="none" xmlns="http://www.w3.org/2000/svg">
<path d="M22.232 0.0326406C9.95705 0.0326406 0 9.98971 0 22.2646C0 33.2174 7.91668 42.3257 18.3634 44.1538L20.5017 56.1676H24.0765L26.1332 44.1212C36.5636 42.293 44.4803 33.1848 44.4803 22.232C44.4803 9.95705 34.5233 0 22.2483 0L22.232 0.0326406ZM22.232 38.2775C13.4012 38.2775 6.21908 31.1281 6.21908 22.2646C6.21908 13.4012 13.3686 6.25173 22.232 6.25173C31.0954 6.25173 38.2449 13.4012 38.2449 22.2646C38.2449 31.1281 31.0954 38.2775 22.232 38.2775Z" fill="white"/>
<path d="M12.2585 48.3813H14.6906V54.3393H18.4939V56.2817H12.2422V48.3813H12.2585Z" fill="white"/>
<path d="M30.8178 50.5524H32.8745V56.2002C32.8745 56.5757 32.8092 56.9021 32.646 57.2122C32.4827 57.5387 32.3032 57.7836 32.042 57.9958C31.7809 58.208 31.4707 58.3385 31.0626 58.4365C30.6709 58.5344 30.2302 58.5834 29.7242 58.5834C28.5653 58.5834 27.7817 58.4202 27.3573 58.0774C26.9329 57.7346 26.7044 57.2612 26.7044 56.6899V56.3961H28.8591C28.8591 56.6573 28.908 56.9511 29.0712 57.049C29.2345 57.1633 29.4467 57.2122 29.6752 57.2122C30.0017 57.2122 30.2302 57.1143 30.3934 56.9511C30.5566 56.7878 30.6219 56.494 30.6219 56.0696V55.2208C30.4097 55.482 30.1812 55.6616 29.969 55.7758C29.6262 55.9554 29.2671 56.0533 28.8754 56.0533C28.1082 56.0533 27.4879 55.7268 27.0146 55.0576C26.6881 54.6006 26.5085 53.9476 26.5085 53.1805C26.5085 52.299 26.7207 51.5971 27.1615 51.1401C27.6022 50.683 28.1572 50.4382 28.8591 50.4382C29.2998 50.4382 29.6752 50.5035 29.969 50.6667C30.2628 50.8299 30.524 51.0585 30.7852 51.4012V50.5361H30.8015L30.8178 50.5524ZM28.5326 53.3274C28.5326 53.7518 28.6305 54.0456 28.7938 54.2578C28.957 54.47 29.2181 54.5516 29.4956 54.5516C29.7731 54.5516 30.0016 54.4537 30.1975 54.2578C30.3771 54.0456 30.475 53.7518 30.475 53.3274C30.475 52.903 30.3771 52.5928 30.1812 52.3806C29.969 52.1684 29.7405 52.0542 29.463 52.0542C29.1855 52.0542 28.957 52.1521 28.7938 52.348C28.6305 52.5602 28.5326 52.8866 28.5326 53.36V53.311V53.3274Z" fill="white"/>
<path d="M34.1802 48.3817H36.3838V51.3035C36.6776 51.0097 36.9878 50.7648 37.2653 50.6342C37.5428 50.4873 37.9182 50.422 38.3099 50.422C38.9139 50.422 39.3709 50.6016 39.73 50.9607C40.0728 51.3035 40.236 51.8911 40.236 52.6256V56.2657H38.0324V53.1153C38.0324 52.7399 37.9671 52.5114 37.8202 52.3482C37.6733 52.1849 37.4938 52.1196 37.2653 52.1196C37.0041 52.1196 36.7756 52.2176 36.6123 52.4134C36.4491 52.6256 36.3512 52.9684 36.3512 53.5071V56.2657H34.1476V48.3653H34.1639L34.1802 48.3817Z" fill="white"/>
<path d="M44.2032 48.3813V50.5523H45.4111V52.152H44.2032V54.1923C44.2032 54.4535 44.2195 54.5841 44.2685 54.682C44.3664 54.9432 45.1989 54.9432 45.4927 54.8942V56.347C44.0726 56.4939 43.1259 56.396 42.7668 56.2001C42.5056 56.0532 42.3261 55.8573 42.1955 55.5472C42.0812 55.2697 42.016 54.8126 42.016 54.1597V52.152H41.1998V50.5523H42.016V48.3813H44.2195H44.2032Z" fill="white"/>
</svg>
