<svg width="82" height="67" viewBox="0 0 82 67" fill="none" xmlns="http://www.w3.org/2000/svg">
<path d="M54.6762 4.03C54.6762 4.03 53.8438 4.94409 54.6762 5.77657C54.9537 6.05406 55.2475 6.152 55.5087 6.152C56.031 6.152 56.4228 5.77657 56.4228 5.76024C56.4228 5.76024 57.2553 4.84615 56.4228 4.01368C55.5251 3.13223 56.3739 2.21814 56.4718 2.13653C56.6187 1.98962 56.7982 1.72845 56.8146 1.36934C56.8309 1.10817 56.8145 0.732745 56.4391 0.357315C55.7862 -0.295607 54.9537 0.0961458 54.6925 0.357315C54.5456 0.504222 54.3824 0.765391 54.3171 1.07553C54.2682 1.3367 54.3171 1.72845 54.6925 2.10388C55.2638 2.67519 55.2312 3.37708 54.6273 3.98103L54.6762 4.03Z" fill="white"/>
<path d="M80.9395 17.4156C80.5478 17.2197 80.156 17.2034 80.1234 17.2034H73.6594C73.6594 17.2034 72.9576 17.2034 72.4842 17.6114C72.174 17.8889 72.0271 18.297 72.0271 18.8193C72.0271 19.3907 71.766 19.8314 71.211 20.0925C70.8356 20.2884 70.4438 20.3374 70.3948 20.3374C70.3295 20.3374 69.9541 20.3374 69.6113 20.5333C69.2359 20.7291 68.7952 21.1209 68.7952 21.9534C68.7952 22.7858 69.2359 23.1776 69.6113 23.3735C69.9378 23.5204 70.2642 23.5694 70.3785 23.5694H70.4275C70.5417 23.6183 70.8845 23.7163 71.2436 23.9121C71.7823 24.2386 72.0598 24.6303 72.0598 25.0711C72.0598 25.12 72.0761 25.9035 72.7454 26.3443C72.7454 26.3443 72.8596 26.4259 72.8759 26.5565C72.8759 26.6381 72.8596 26.7523 72.7616 26.8666C72.7616 26.8666 72.7453 26.8829 72.7127 26.9156C72.5984 26.9809 72.3209 27.1931 72.1903 27.6011C72.174 27.6664 72.1251 27.7154 72.0598 27.7317H71.9945C71.9945 27.7317 71.8639 27.6664 71.7986 27.5848L71.7333 27.5032C71.4558 27.0625 71.0477 26.4749 70.052 26.4749C68.6482 26.4749 67.979 25.8383 67.979 24.5324C67.979 23.5041 67.1302 22.6226 66.1182 22.6226C64.8939 22.6226 64.2574 23.5694 64.2574 24.4998C64.2574 25.6097 63.3596 26.4422 62.1843 26.4422C60.8295 26.4422 60.3235 27.6011 60.3235 28.3194V32.139C60.3235 33.8855 59.3115 34.1467 57.9893 34.1467H57.9403C57.3527 34.1467 56.8304 34.3589 56.406 34.7343C55.9652 35.1424 55.7204 35.7463 55.7204 36.4156C55.7204 37.6398 54.741 38.5539 53.4515 38.5539C52.5537 38.5539 52.0151 38.962 51.7213 39.3374C51.3948 39.7455 51.1826 40.3005 51.1826 40.8228V45.2464C51.1826 45.3606 51.1826 45.4912 51.1989 45.6218C51.2152 45.8013 51.2152 45.9483 51.1989 46.0952C51.0683 47.1072 50.1706 47.6295 48.5546 47.6295C48.0975 47.6132 47.0692 47.8254 46.4489 48.919C46.1388 49.4577 45.0778 49.6862 44.0168 49.4414C42.1723 49.0007 41.0133 47.401 40.9317 45.1484C40.9317 45.1321 40.8664 44.5608 40.5563 43.9895C40.2788 43.4508 39.6749 42.8142 38.5649 42.8142C37.863 42.8142 37.3243 43.0264 36.8999 43.4671C36.2796 44.1037 36.198 44.9689 36.2144 45.1647C36.2144 45.1811 36.3939 47.4989 38.5812 47.4989C39.1198 47.4989 40.1482 47.6459 40.8991 48.6089C41.552 49.4904 42.1723 51.2532 41.2092 54.73C41.2092 54.73 40.5237 56.8684 38.5649 57.2275C38.4996 57.2275 37.9446 57.2764 37.4059 57.5539C36.8673 57.8314 36.2307 58.4027 36.2307 59.5943C36.2307 61.8469 38.5486 61.9285 38.5649 61.9612C38.5812 61.9612 39.1525 61.9122 39.7238 61.6184C40.2625 61.3409 40.8991 60.7369 40.8991 59.627C40.8991 58.1416 41.3398 57.1622 43.5271 57.1622C45.2736 57.1622 45.8939 55.5462 45.8939 54.7953V54.6811C45.8939 54.2077 45.8939 53.5058 46.3999 52.9835C46.808 52.5428 47.5425 52.3306 48.5219 52.3306C48.5382 52.3306 49.1096 52.3142 49.6809 52.0041C50.2195 51.7266 50.8561 51.1553 50.8561 49.9964C50.8561 49.1476 50.9377 48.6905 51.1336 48.3641C51.1826 48.2824 51.2642 48.1682 51.3784 48.0539C51.4437 47.9886 51.6559 47.7764 51.9987 47.7275C52.1783 47.7111 52.2599 47.7275 52.5374 47.7928C52.7333 47.8091 53.0107 47.8417 53.3699 47.8091H57.8914C59.1319 47.8091 60.1929 48.6579 60.1929 49.6862C60.1929 50.535 60.601 51.09 60.9601 51.3675C61.3682 51.7429 61.9395 51.9551 62.4455 51.9551C63.0821 51.9551 64.7144 51.5471 64.7144 49.6536C64.7144 49.0007 64.4532 48.413 63.9309 47.9233C63.3596 47.3847 62.5761 47.0745 61.7599 47.0745H57.8914C56.8141 47.0745 56.0469 46.3074 56.0469 45.23C56.0469 44.2507 56.5202 43.0917 57.8914 43.0917H62.4455C62.5924 43.0917 63.7187 43.1733 64.4369 41.9817C64.4859 41.9328 64.6165 41.8022 64.7634 41.8022C64.845 41.8022 64.9593 41.8675 65.0409 41.9817V42.0307C65.5142 42.5694 65.955 43.1244 67.016 43.1244C68.077 43.1244 69.2848 42.2103 69.2848 40.8555C69.2848 39.5006 68.1259 38.5866 67.016 38.5866C65.906 38.5866 65.1551 39.3701 64.9592 39.925C64.8939 39.9903 64.8123 40.0556 64.7144 40.0556C64.6491 40.0556 64.5838 39.9903 64.5348 39.925L64.4696 39.8434C64.1268 39.3211 63.6534 38.6029 62.4292 38.6029C61.5151 38.6029 60.8785 38.3417 60.5031 37.8357C60.2582 37.5092 60.1602 37.0522 60.1602 36.4809C60.1602 36.3666 60.1603 36.2687 60.144 36.1544C60.095 35.8443 60.1439 35.5341 60.2256 35.3056C60.6826 34.2936 61.3029 34.2609 62.1354 34.2609H66.0202C67.1628 34.2609 68.0933 35.0445 68.0933 35.9912C68.0933 37.2644 69.2032 37.8683 69.9541 37.8683C70.2316 37.8683 70.6723 37.7867 71.064 37.5256C71.4068 37.2807 71.8312 36.84 71.8312 35.9912C71.8312 35.4525 71.619 34.9628 71.1946 34.5711C70.7213 34.114 70.0847 33.8692 69.3828 33.8692H66.0202C65.0408 33.8692 64.3389 33.151 64.3389 32.1879C64.3389 31.2902 64.7797 30.2455 66.0202 30.2455H69.9704C70.3132 30.2944 71.113 30.1639 71.6027 29.2987C71.6843 29.1682 71.7496 29.0376 71.7823 28.956C71.8312 28.8091 71.9292 28.4826 72.174 29.0213C72.4842 29.6742 73.2513 29.9843 73.9859 29.8048C74.6225 29.6742 75.1285 29.1192 75.1938 28.4663C75.3081 27.5195 74.6878 27.0298 74.5409 26.9156C74.5409 26.9156 74.5245 26.9156 74.4919 26.8993C74.4429 26.8503 74.3613 26.7523 74.3777 26.6381C74.3777 26.5728 74.4266 26.5075 74.5082 26.4422C74.9653 26.0994 75.1938 25.6913 75.1938 25.1527C75.1938 25.1527 75.1775 24.7609 74.9489 24.3692C74.7531 23.9938 74.3613 23.553 73.5778 23.553C72.3046 23.553 71.9618 23.2102 71.9618 22.0513C71.9618 20.8924 72.3372 20.5496 73.5778 20.5496H80.0744C80.0744 20.5496 80.4824 20.5496 80.8579 20.3374C81.2333 20.1415 81.674 19.7498 81.674 18.9336C81.674 18.1175 81.2333 17.7257 80.8579 17.5298L80.9232 17.4645L80.9395 17.4156ZM60.8621 47.4989H61.8252C62.5434 47.4989 63.1964 47.7601 63.7024 48.2172C64.1431 48.6252 64.3553 49.0986 64.3553 49.6373C64.3553 50.3228 64.1105 50.8125 63.6044 51.139C63.2127 51.4002 62.7719 51.4818 62.4944 51.4818C62.0864 51.4818 61.613 51.3022 61.2702 51.0084C60.9927 50.7635 60.65 50.3228 60.65 49.6373C60.65 48.6742 59.8991 47.8254 58.8871 47.4989H60.8621ZM60.2256 38.0805C60.6663 38.7008 61.4335 39.0273 62.4781 39.0273C63.5228 39.0273 63.833 39.5986 64.1594 40.072L64.2247 40.1862C64.3553 40.3821 64.5349 40.4964 64.7307 40.5127C65.0572 40.5127 65.3183 40.2352 65.351 40.2025V40.1536C65.4652 39.7618 66.1019 39.0599 67.0323 39.0599C67.9627 39.0599 68.8768 39.7618 68.8768 40.9044C68.8768 42.047 67.9137 42.7489 67.0323 42.7489C66.1508 42.7489 65.8733 42.3572 65.4163 41.8022V41.7532C65.2204 41.541 65.0082 41.4268 64.7797 41.4268C64.4043 41.4268 64.1431 41.7043 64.1267 41.7532C63.5065 42.8305 62.5761 42.7163 62.5271 42.7163H57.9566C57.2384 42.7163 56.6508 42.9775 56.2591 43.4998C55.9163 43.9568 55.7204 44.5771 55.7204 45.2627C55.7204 46.2747 56.2917 47.0582 57.1242 47.3847H53.4515C52.3089 47.3847 51.607 46.1604 51.607 45.2627V40.8391C51.607 40.1209 52.113 38.9783 53.4515 38.9783C54.9859 38.9783 56.1448 37.8847 56.1448 36.4156C56.1448 35.8443 56.3406 35.3872 56.6834 35.0445C57.0099 34.7343 57.467 34.5711 57.973 34.5711C58.9523 34.5711 59.8175 35.4525 59.8175 36.4482C59.8175 37.1338 59.948 37.6561 60.2582 38.0479L60.2256 38.0805ZM80.8089 19.9293C80.4988 20.0762 80.1886 20.1089 80.156 20.1252H73.6921C72.272 20.1252 71.766 20.5986 71.766 21.937C71.766 23.2755 72.272 23.7489 73.6921 23.7489C74.2144 23.7489 74.5898 23.9611 74.802 24.4018C74.9489 24.6793 74.9979 24.9895 74.9979 25.0548C74.9979 25.5118 74.8184 25.8219 74.4266 26.0994C74.2797 26.2137 74.1818 26.3606 74.1655 26.5401C74.1655 26.8176 74.4103 27.0625 74.4103 27.0625C74.4103 27.0625 74.8836 27.3726 74.9489 28.0092C74.9979 28.3847 74.8673 28.7601 74.6062 29.0376C74.3613 29.3151 73.9859 29.4783 73.6431 29.4783C72.9902 29.4783 72.4352 29.0212 72.3536 28.3847V28.1398C72.3536 27.3889 72.8596 27.1278 72.8759 27.1278C73.0555 26.8829 73.1371 26.6871 73.1208 26.4912C73.1044 26.23 72.8759 26.0831 72.8596 26.0831C72.3372 25.7077 72.3209 25.0711 72.3209 25.0548C72.3209 24.5161 71.9945 24.0101 71.3579 23.6346C70.9008 23.3735 70.4438 23.2429 70.4438 23.2429C70.4438 23.2429 69.1379 23.2429 69.1379 21.937C69.1379 20.6312 70.4112 20.6312 70.4438 20.6312C70.4438 20.6312 70.9171 20.5822 71.3905 20.37C72.0271 20.0436 72.3536 19.5212 72.3536 18.8193C72.3536 18.3786 72.4678 18.0522 72.6963 17.84C73.0228 17.5135 73.5288 17.5135 73.6431 17.5135H80.1397C80.1397 17.5135 80.4825 17.5135 80.8252 17.7094C81.266 17.9216 81.4782 18.3297 81.4782 18.852C81.4782 19.3743 81.266 19.7498 80.8252 19.9946V19.9456L80.8089 19.9293Z" fill="white"/>
<path d="M64.7473 19.4876V14.8682C64.633 13.6276 63.9964 13.0237 63.4741 12.7625C62.9028 12.485 62.3805 12.5013 62.3641 12.5013H62.3152C61.3521 12.5013 60.6829 12.1259 60.2748 11.4077C59.9647 10.8364 59.9483 10.2651 59.9483 10.2651C59.8667 9.04083 59.2301 8.46952 58.7078 8.19203C58.1691 7.91454 57.6304 7.91454 57.5978 7.91454C56.3083 7.91454 55.8513 8.63275 55.4922 9.20406C55.4758 9.25303 55.4268 9.31832 55.4105 9.35097C55.3452 9.46523 55.2799 9.49788 55.2146 9.49788C55.1657 9.49788 55.1004 9.44891 55.0677 9.41626C55.0188 9.36729 55.0025 9.35097 54.9861 9.28568C54.5291 8.20836 53.4355 7.91454 52.8478 7.91454C52.4724 7.91454 51.8848 8.06145 51.4114 8.42055C51.1502 8.61643 50.7911 8.94289 50.6279 9.46523C50.6115 9.53052 50.5626 9.59581 50.4973 9.64478C50.4483 9.66111 50.432 9.69375 50.3667 9.69375C50.3014 9.69375 50.2198 9.64478 50.1545 9.54685C50.0892 9.46523 50.0402 9.36729 50.0076 9.28568C49.828 8.95922 49.6158 8.60011 48.9303 8.60011H46.0248C45.3065 8.60011 44.7842 8.07777 44.7842 7.35956C44.7842 6.70664 45.1107 5.92313 46.0248 5.92313H48.9303C49.0119 5.92313 49.6811 5.9721 50.1055 5.27021C50.1055 5.27021 50.1218 5.22124 50.1545 5.20491C50.2035 5.15594 50.2851 5.09065 50.3994 5.09065C50.481 5.09065 50.5463 5.13962 50.6442 5.22124C50.9217 5.59667 51.1829 5.92313 51.8195 5.92313C52.4561 5.92313 53.1906 5.38447 53.1906 4.55199C53.1906 3.71952 52.4887 3.18086 51.8195 3.18086C51.1992 3.18086 50.7258 3.62158 50.5789 3.94804C50.5789 3.99701 50.5299 4.01333 50.5136 4.0623C50.4646 4.11127 50.3994 4.12759 50.3341 4.12759C50.2688 4.12759 50.2198 4.07862 50.1872 4.01333L50.1382 3.94804C49.926 3.62158 49.6322 3.18086 48.8976 3.18086C47.8693 3.18086 47.3633 2.72381 47.3633 1.76075C47.3633 0.993567 46.7267 0.356968 45.9921 0.356968C45.0944 0.356968 44.621 1.05886 44.621 1.7281C44.621 2.54426 43.9681 3.16453 43.0866 3.16453C42.0746 3.16453 41.7155 4.01333 41.7155 4.53567V7.35956C41.7155 7.99616 42.2378 8.91025 43.0866 8.91025H45.9921C46.5798 8.91025 47.2653 9.23671 47.2653 10.1834C47.2653 11.1302 48.3426 11.5546 48.8976 11.5546C48.8976 11.5546 49.8117 11.5546 50.1382 10.7711C50.1545 10.7058 50.2035 10.6568 50.2524 10.6242C50.3177 10.5589 50.3994 10.6078 50.4483 10.6731C50.53 10.918 50.5789 11.0812 50.7095 11.3914C51.1829 12.3381 52.2112 12.6645 52.8315 12.6645C53.664 12.6645 54.3985 12.2238 54.9045 11.4893C54.9698 11.375 55.0841 11.2444 55.2146 11.2444C55.3616 11.2444 55.5248 11.424 55.5574 11.4893C56.3899 12.7298 57.4019 12.6645 57.6141 12.6482H57.6631C58.5119 12.6482 59.1485 12.9094 59.5402 13.3501C60.0789 13.9867 59.9973 14.8518 59.9973 14.8518V19.4876C59.8504 20.5159 59.4097 21.2178 58.6915 21.528C58.1528 21.7728 57.6468 21.7075 57.6141 21.7075C57.6141 21.7075 56.1287 21.6259 55.4269 23.046C55.3779 23.1603 55.2473 23.2909 55.182 23.3072C55.133 23.3072 55.0514 23.2582 54.9372 23.046C54.4638 22.1482 53.713 21.6912 52.7989 21.6912C52.6193 21.6912 52.4234 21.7075 52.2602 21.7565C51.1012 21.9524 50.7095 22.8012 50.5626 23.3072C50.4973 23.552 50.4483 23.7805 50.4483 24.058V24.4008C50.4647 24.6457 50.4647 24.8579 50.4483 25.0537C50.2361 26.0331 49.3384 26.5391 47.7387 26.5391C47.7387 26.5391 46.3839 26.4738 45.633 27.8287C45.3229 28.3673 44.2619 28.5958 43.2009 28.351C40.475 27.6981 40.1321 24.9232 40.1158 24.058C40.1158 24.0417 39.871 21.7238 37.749 21.7238C37.0471 21.7238 36.5084 21.936 36.084 22.3768C35.4638 23.0134 35.3822 23.8785 35.3985 24.0744C35.3985 24.2539 35.5128 24.8252 35.8066 25.3476C36.2146 26.0494 36.9002 26.4412 37.749 26.4412C38.2877 26.4412 39.316 26.5881 40.0669 27.5512C40.7198 28.4326 41.3401 30.1955 40.377 33.6723C40.377 33.6723 39.6915 35.8106 37.749 36.1697H37.7C37.5531 36.1697 36.8512 36.2514 36.2309 36.6921C35.9045 36.9043 35.6923 37.1981 35.5291 37.5409C35.4474 37.7531 35.1536 37.7368 35.072 37.5409C34.9251 37.0675 34.2232 36.3003 33.0316 36.3003H28.5102C28.5102 36.3003 27.4981 36.284 26.8452 36.888C26.4371 37.2797 26.2086 37.8673 26.2086 38.5856C26.2086 39.4017 25.8332 40.0057 25.0987 40.3811C24.5763 40.6423 24.0213 40.7076 23.956 40.7076C23.8744 40.7076 23.3358 40.7239 22.8461 40.985C22.6992 41.0667 22.3727 41.2462 22.0952 41.6053C21.9809 41.7522 21.9157 41.8828 21.883 41.9971C21.8667 42.046 21.7034 42.2746 21.4423 42.2746C21.2627 42.2746 21.0505 42.095 21.0505 42.095C20.9036 41.9481 20.7077 41.3931 20.7077 41.3278C20.3323 40.3648 19.0265 39.4507 17.7533 39.467C17.7043 39.467 14.4234 39.5486 14.4234 42.8132C14.4234 45.833 13.5419 46.3064 10.7017 46.3064C7.8615 46.3064 7.35546 48.7711 7.35546 49.6526C7.35546 50.534 7.97576 52.9988 10.7017 52.9988C13.4277 52.9988 14.4234 53.9129 14.4234 56.4919C14.4234 59.071 13.444 59.9851 10.7017 59.9851H3.6338C3.6338 59.9851 0.287598 60.0667 0.287598 63.3313C0.287598 66.5959 3.58483 66.6775 3.6338 66.6775H10.7017C10.7017 66.6775 14.0316 66.4816 14.0316 63.3313C14.0316 60.1809 14.9784 59.8382 17.7533 59.8382C20.9036 59.8382 21.0995 56.5409 21.0995 56.4919C21.0995 55.79 20.5282 53.1457 17.7533 53.1457C14.9784 53.1457 14.0316 52.6234 14.0316 49.6526C14.0316 46.6818 15.3375 46.1758 17.7533 46.1594C18.5205 46.1758 19.1081 45.9146 19.255 45.833C19.5161 45.7024 20.2344 45.327 20.5445 44.6088C20.7241 44.2007 20.7404 43.76 21.0669 43.5967C21.1158 43.5967 21.2627 43.5151 21.4096 43.5478C21.6218 43.6131 21.6545 43.8742 21.9809 44.3639C22.0299 44.4292 22.0625 44.4945 22.1115 44.5108C22.438 44.8373 22.8624 44.9515 23.5316 45.1964C23.6622 45.2454 24.1193 45.3759 24.1846 45.3923C24.4621 45.4739 25.017 45.7024 25.474 46.0452C25.9964 46.4369 26.2576 46.9266 26.2576 47.449V51.8725C26.2576 51.8725 26.2576 52.9009 26.9105 53.5538C27.3022 53.9619 27.8735 54.1741 28.5428 54.1741C29.212 54.1741 29.7833 53.9782 30.1751 53.5538C30.828 52.8682 30.828 51.9215 30.828 51.8725V47.449C30.828 47.449 30.8117 46.8777 30.5016 46.3064C30.2241 45.784 29.6691 45.1474 28.5265 45.1474C27.6124 45.1474 27.0411 45.0005 26.7146 44.6904C26.4045 44.3802 26.2739 43.8742 26.2739 43.0254C26.2739 41.3931 26.7799 40.9034 28.5265 40.9034H33.0806C33.0806 40.9034 34.6313 40.7728 34.9577 39.9404C35.0067 39.8587 35.0394 39.7935 35.0883 39.7445C35.17 39.6792 35.2842 39.5976 35.3985 39.6139C35.4801 39.6139 35.5944 39.7282 35.7086 39.8751C36.2963 40.7239 37.0634 40.9034 37.5858 40.9034C37.798 40.9034 38.0918 40.8545 38.3366 40.7728C38.5978 40.7075 38.81 40.5933 39.0548 40.4627C39.7404 40.0546 40.0832 39.3854 40.0832 38.5529C40.0832 37.0675 40.5239 36.0881 42.7112 36.0881C44.4577 36.0881 45.078 34.4721 45.078 33.7213V33.607C45.078 33.1337 45.078 32.4318 45.5841 31.9094C45.9921 31.4687 46.7267 31.2565 47.7224 31.2565C47.7387 31.2565 50.0566 31.1259 50.0566 28.8897C50.0566 26.833 50.8238 26.4412 52.4398 26.3922H52.7662C53.7129 26.3922 54.4638 25.9352 54.8719 25.1027C54.8719 25.0537 54.9209 25.0374 54.9372 25.0211C55.0025 24.9558 55.084 24.9068 55.1493 24.9068C55.231 24.9068 55.3453 24.9885 55.3942 25.0864L55.4595 25.2006C55.8512 25.7393 56.292 26.3759 57.5162 26.4249H57.5815C58.8221 26.3433 59.3933 25.7067 59.6545 25.1843C59.932 24.613 59.9157 24.0744 59.9157 24.0417C59.9157 23.3561 60.0953 22.8175 60.487 22.4421C61.1726 21.7891 62.2499 21.8055 62.2988 21.8055C63.5394 21.7565 64.1107 21.1036 64.3719 20.5812C64.6494 20.0099 64.6494 19.4713 64.6494 19.4386H64.6983L64.7473 19.4876ZM39.1201 39.8424C38.7447 40.2342 38.2713 40.4301 37.749 40.4301C37.1287 40.4301 36.5411 40.1199 36.1983 39.6139C35.9371 39.3038 35.6923 39.1732 35.676 39.1569C35.627 39.1569 35.5617 39.1079 35.5291 39.1079C35.2516 39.0589 35.023 39.2222 34.8761 39.3527C34.7619 39.4344 34.6639 39.5649 34.5986 39.7445C34.4191 40.1526 33.5866 40.3811 33.1296 40.4301H28.6081C27.5634 40.4301 26.9105 40.6096 26.4861 41.0177C26.078 41.4094 25.8985 42.0297 25.8985 43.0091C25.8985 44.9189 26.6004 45.5881 28.6081 45.5881C30.273 45.5881 30.42 47.2531 30.4526 47.4326V51.8562C30.4526 51.8562 30.4526 52.6887 29.9303 53.211C29.6201 53.5211 29.1794 53.6844 28.6244 53.6844C28.0694 53.6844 27.6124 53.5375 27.3186 53.211C26.7962 52.6887 26.7962 51.8562 26.7962 51.8399V47.4163C26.7962 46.7308 26.4698 46.1431 25.8332 45.6698C25.3108 45.2617 24.7885 45.0495 24.4131 44.9189C24.2009 44.8536 24.2335 44.8699 23.956 44.7883C23.2052 44.5435 22.8461 44.4129 22.6012 44.168C22.2258 43.7763 22.2584 43.2213 22.2584 42.9928C22.2584 41.1809 24.005 41.1483 24.1029 41.1483C24.1192 41.1483 24.7885 41.0993 25.4414 40.7728C26.3392 40.3158 26.8126 39.5486 26.8126 38.5692C26.8126 37.9816 26.9921 37.4919 27.3186 37.1981C27.7756 36.7574 28.4285 36.741 28.6081 36.741H33.1949C33.7662 36.741 34.1416 36.9369 34.3538 37.1165C34.615 37.3287 34.7619 37.5735 34.7945 37.6878C34.8762 37.9326 35.1047 38.3244 35.4475 38.3244H35.5291C35.6596 38.2754 35.9371 38.1775 36.0351 37.9163C36.0351 37.8347 36.0841 37.7694 36.1167 37.7041C36.231 37.5082 36.3779 37.3287 36.4268 37.296C36.8186 36.888 37.3736 36.6594 37.9285 36.7084C38.8753 36.7737 39.6262 37.5409 39.6751 38.4713C39.7241 38.9936 39.5282 39.4996 39.1691 39.8914L39.1201 39.8424ZM64.3392 19.4876C64.3392 19.4876 64.3392 19.961 64.0944 20.4343C63.7842 21.0709 63.1966 21.3974 62.3968 21.4463C62.2662 21.4463 61.091 21.43 60.2748 22.1972C59.8014 22.6543 59.5566 23.3072 59.5729 24.1233C59.5729 24.1233 59.5729 24.5804 59.3607 25.0374C59.0506 25.6577 58.4629 26.0005 57.6305 26.0494C56.6021 26.0005 56.292 25.5761 55.8839 25.0048L55.8186 24.8905C55.639 24.6457 55.4432 24.5477 55.231 24.5477C54.8556 24.5477 54.6107 24.8905 54.6107 24.8905C54.2842 25.6414 53.664 26.0331 52.8641 26.0331C52.4071 26.0331 51.9174 25.8536 51.5746 25.5761C51.5583 25.5761 51.5257 25.5271 51.5093 25.5108C51.3624 25.3639 51.2318 25.2006 51.1339 25.0048C51.0033 24.7273 50.938 24.4171 50.938 24.058C50.938 23.2745 51.3134 22.8175 51.6399 22.5726C52.048 22.2462 52.554 22.1156 52.9131 22.1156C53.6803 22.1156 54.2843 22.5073 54.676 23.2582C54.8556 23.5847 55.0514 23.7316 55.2963 23.7316C55.6391 23.7316 55.8676 23.3235 55.9165 23.2582C56.4878 22.0829 57.6468 22.1482 57.6794 22.1482C57.6794 22.1482 58.316 22.2135 58.9526 21.936C60.0463 21.4627 60.389 20.369 60.5196 19.5039V14.8845C60.5196 14.7539 60.6012 13.8072 59.9483 13.0726C59.4749 12.534 58.7078 12.2238 57.6958 12.2238C57.6958 12.2238 56.7817 12.4034 56.0308 11.2608C56.0308 11.2608 55.7533 10.8527 55.3289 10.8527C55.0841 10.8527 54.8719 10.9833 54.676 11.2608C54.2679 11.8974 53.6313 12.2401 52.9458 12.2401C52.3092 12.2401 51.0033 11.7668 51.0033 10.2977C51.0033 9.48155 51.4114 9.02451 51.7705 8.76334C52.1786 8.48585 52.6683 8.35526 52.9458 8.35526C53.4518 8.35526 54.3822 8.60011 54.7413 9.53052V9.57949C54.7413 9.57949 54.9861 9.92228 55.3126 9.92228C55.5085 9.92228 55.7043 9.80801 55.8349 9.57949C55.8839 9.53052 55.9002 9.46523 55.9492 9.43258C56.292 8.89392 56.6511 8.33894 57.6958 8.33894C57.6958 8.33894 58.1691 8.33894 58.6425 8.58379C59.2628 8.91025 59.6055 9.48155 59.6545 10.2814C59.6545 10.3467 59.6709 10.9833 60.03 11.6199C60.3564 12.2401 61.042 12.9584 62.4621 12.9584H62.511C62.511 12.9584 64.2739 12.9094 64.4535 14.9008V19.5202H64.3719L64.3392 19.4876Z" fill="white"/>
</svg>
