<svg width="30" height="31" viewBox="0 0 30 31" fill="none" xmlns="http://www.w3.org/2000/svg">
<path d="M15.0062 30.007C6.73036 30.0135 0.00941556 23.3032 9.88081e-06 15.0244C-0.00939579 6.72741 6.69744 0.00647106 14.9932 4.66058e-06C23.2832 -0.00646174 30.0047 6.71683 30 15.0115C29.9953 23.2926 23.2879 30.0012 15.0062 30.0076V30.007ZM16.5093 15.0367C16.5487 11.3768 13.5877 8.36518 9.90654 8.32168C6.31181 8.27876 3.28671 11.2562 3.24203 14.8815C3.19618 18.6256 6.11487 21.6354 9.83952 21.6854C13.4654 21.7336 16.4693 18.739 16.5093 15.0367ZM17.156 15.2672C17.1466 15.9991 17.2647 16.9902 17.5398 17.956C17.8349 18.9936 18.2529 19.973 19.0806 20.7125C19.9553 21.4937 20.9847 21.4861 21.8606 20.7066C22.4073 20.2204 22.7829 19.6132 23.0463 18.9419C23.9633 16.6045 24.0092 14.2243 23.3208 11.8271C23.0421 10.8571 22.6101 9.95709 21.83 9.27459C20.9764 8.52801 19.9759 8.52625 19.1159 9.26165C18.5433 9.75075 18.17 10.3798 17.8837 11.064C17.3576 12.3209 17.1589 13.64 17.156 15.2672ZM26.7739 14.4524C26.7215 13.8628 26.6622 12.7171 26.504 11.5854C26.4147 10.9459 26.2077 10.3104 25.9703 9.70666C25.788 9.24343 25.4347 9.25166 25.2149 9.69843C25.0444 10.0459 24.9027 10.4203 24.8263 10.7989C24.2902 13.439 24.2966 16.0919 24.7316 18.7414C24.8233 19.3016 25.0338 19.8524 25.2595 20.3768C25.4147 20.7372 25.7298 20.7283 25.9262 20.3845C26.0796 20.1164 26.2019 19.8201 26.2818 19.5215C26.6774 18.0436 26.7398 16.5275 26.7739 14.4524Z" fill="#fff"/>
</svg>
