<svg width="30" height="30" viewBox="0 0 30 30" fill="none" xmlns="http://www.w3.org/2000/svg">
<path fill-rule="evenodd" clip-rule="evenodd" d="M30 15C30 23.2843 23.2843 30 15 30C6.71573 30 0 23.2843 0 15C0 6.71573 6.71573 0 15 0C23.2843 0 30 6.71573 30 15ZM23.3085 9.95244C23.3996 9.95021 23.4018 9.95466 23.4018 10.0413C23.4009 10.1227 23.4069 10.5097 23.4143 10.993C23.4253 11.7105 23.4396 12.6401 23.4396 13.0969C23.4396 13.2724 23.4151 13.2813 23.2396 13.2813C22.6796 13.2813 22.1307 13.2058 21.5862 13.0813C20.6507 12.868 19.7862 12.488 18.9862 11.9613C18.9754 11.9539 18.9643 11.9445 18.9532 11.9351C18.9211 11.9078 18.8881 11.8798 18.8551 11.8947C18.8134 11.9147 18.8193 11.961 18.8248 12.0045C18.8267 12.0189 18.8285 12.033 18.8285 12.0458C18.8277 12.8059 18.8286 13.5657 18.8294 14.3253C18.831 15.7177 18.8327 17.1095 18.824 18.5013C18.8151 20.0058 18.3374 21.3502 17.3529 22.4969C16.3085 23.7147 14.9796 24.4213 13.384 24.6169C12.1551 24.7658 10.9885 24.5435 9.88181 23.9969C9.70181 23.9102 9.5307 23.8058 9.3707 23.6858C9.34516 23.6636 9.32018 23.6414 9.29519 23.6192C9.27018 23.5969 9.24516 23.5747 9.21959 23.5524C9.11596 23.5083 9.02891 23.4377 8.94269 23.3677C8.92906 23.3566 8.91545 23.3456 8.90181 23.3347C7.91292 22.5502 7.21514 21.5635 6.83292 20.3591C6.69959 19.9391 6.61514 19.5102 6.57514 19.0724C6.54403 18.7547 6.54181 18.4369 6.56181 18.1213C6.6107 17.3924 6.78181 16.6924 7.08403 16.0258C7.39736 15.328 7.82625 14.7102 8.37292 14.1747C9.00847 13.5524 9.74403 13.0858 10.584 12.7835C11.1107 12.5947 11.6529 12.4791 12.2107 12.4391C12.6151 12.408 13.0174 12.4191 13.4196 12.4658C13.4729 12.4724 13.504 12.4835 13.504 12.548C13.4974 12.7702 13.4974 12.9947 13.4974 13.2169C13.5018 13.2213 13.5307 14.9147 13.5307 15.6902V15.7724C13.5263 15.8502 13.4862 15.8747 13.4129 15.8547C13.2018 15.7947 12.984 15.7658 12.764 15.7547C12.424 15.7347 12.0885 15.7835 11.7707 15.9013C10.704 16.2947 10.0574 17.0591 9.92181 18.1835C9.78847 19.2924 10.2263 20.1791 11.1485 20.8169C11.164 20.8275 11.1797 20.8381 11.1953 20.8487C11.2579 20.891 11.3205 20.9333 11.3774 20.9813C11.3929 20.9969 11.4107 21.0124 11.4285 21.028L11.4566 21.0391C11.6606 21.12 11.8652 21.2011 12.084 21.2435C12.8085 21.388 13.4907 21.2769 14.1174 20.8902C14.8418 20.4435 15.2685 19.788 15.4196 18.9524C15.4485 18.7947 15.4529 18.6347 15.4529 18.4724V5.51244C15.4529 5.41206 15.4462 5.36822 15.4648 5.34944C15.4832 5.33082 15.5266 5.33688 15.6263 5.33688H18.6151H18.6862C18.7885 5.33688 18.7885 5.3391 18.7885 5.44133C18.7885 5.67244 18.884 6.21466 18.8929 6.25688C19.324 8.44133 21.8707 9.77688 22.6551 9.89466C22.8707 9.92799 23.0885 9.95244 23.3085 9.95244Z" fill="#fff"/>
</svg>
