<svg width="43" height="42" viewBox="0 0 43 42" fill="none" xmlns="http://www.w3.org/2000/svg">
<path fill-rule="evenodd" clip-rule="evenodd" d="M31.0213 4.46909C24.6932 3.75509 18.3069 3.75509 11.9788 4.46909C8.52169 4.86195 5.7345 7.63235 5.32853 11.1644C4.57799 17.6965 4.57799 24.2955 5.32853 30.8277C5.7345 34.3578 8.52169 37.1282 11.9788 37.5229C18.3075 38.2371 24.6944 38.2371 31.0231 37.5229C34.4784 37.1282 37.2656 34.3578 37.6716 30.8258C38.422 24.2943 38.422 17.6959 37.6716 11.1644C37.2656 7.63235 34.4784 4.86195 31.0213 4.46909ZM18.9113 23.5876L20.131 27.481H22.7762L18.3888 13.742H15.2448L10.9193 27.481H13.4625L14.6222 23.5876H18.9113ZM31.7677 23.2207C31.8077 22.9964 31.8478 22.6295 31.8478 22.1607C31.8478 19.9796 30.8265 17.3296 27.6424 17.3296C24.5184 17.3296 22.8763 19.9184 22.8763 22.6703C22.8763 25.7075 24.7387 27.7052 27.9027 27.7052C29.3045 27.7052 30.466 27.4198 31.3071 27.0733L30.9466 25.3406C30.2057 25.626 29.3846 25.7891 28.2432 25.7891C26.6812 25.7891 25.2994 25.0145 25.2393 23.2207H31.7677ZM15.0247 21.6916L16.066 18.3079C16.2196 17.7946 16.3531 17.2252 16.4825 16.673C16.4881 16.649 16.4937 16.6251 16.4993 16.6011L16.7069 15.7394H16.7469C16.786 15.8957 16.8249 16.0519 16.8634 16.2083C17.0324 16.9133 17.2206 17.6134 17.4278 18.3079L18.4891 21.6916H15.0247ZM25.2395 21.4674C25.3397 20.4482 25.9805 19.0417 27.5024 19.0417C29.1427 19.0417 29.5432 20.5501 29.525 21.4674H25.2395Z" fill="white"/>
</svg>
