<svg width="43" height="43" viewBox="0 0 43 43" fill="none" xmlns="http://www.w3.org/2000/svg">
<g clip-path="url(#clip0_2_6594)">
<path d="M31.0411 12.4379C31.9336 11.5524 31.9336 10.1104 31.0411 9.22314L27.7633 5.94539L27.7686 5.94889L23.2991 1.48639C22.8174 1.01936 22.1716 0.760079 21.5007 0.764334C20.8297 0.768588 20.1873 1.03604 19.7116 1.50914L1.24906 19.9629C1.01291 20.1976 0.825506 20.4767 0.697624 20.784C0.569741 21.0914 0.503906 21.4211 0.503906 21.754C0.503906 22.0869 0.569741 22.4166 0.697624 22.724C0.825506 23.0314 1.01291 23.3104 1.24906 23.5451L19.7098 41.9901C20.1856 42.4657 20.8308 42.7328 21.5036 42.7328C22.1763 42.7328 22.8215 42.4657 23.2973 41.9901L31.0376 34.2551C31.2493 34.0443 31.4173 33.7936 31.532 33.5176C31.6466 33.2417 31.7057 32.9457 31.7057 32.6469C31.7057 32.348 31.6466 32.0521 31.532 31.7761C31.4173 31.5002 31.2493 31.2495 31.0376 31.0386C30.6097 30.6133 30.0309 30.3746 29.4276 30.3746C28.8242 30.3746 28.2454 30.6133 27.8176 31.0386L21.9551 36.9081C21.8987 36.9659 21.8313 37.0117 21.7569 37.0431C21.6825 37.0744 21.6026 37.0905 21.5219 37.0905C21.4412 37.0905 21.3613 37.0744 21.287 37.0431C21.2126 37.0117 21.1452 36.9659 21.0888 36.9081L6.34156 22.1749C6.28382 22.1185 6.23795 22.0511 6.20663 21.9767C6.17531 21.9024 6.15918 21.8225 6.15918 21.7418C6.15918 21.6611 6.17531 21.5812 6.20663 21.5068C6.23795 21.4324 6.28382 21.365 6.34156 21.3086L21.0836 6.57364L21.1448 6.52289C21.261 6.42893 21.4084 6.38216 21.5576 6.39189C21.7067 6.40161 21.8467 6.46712 21.9498 6.57539L27.8193 12.4379C28.0306 12.6498 28.2817 12.8179 28.5581 12.9327C28.8346 13.0474 29.1309 13.1064 29.4302 13.1064C29.7295 13.1064 30.0258 13.0474 30.3022 12.9327C30.5786 12.8179 30.8297 12.6498 31.0411 12.4379ZM16.6141 21.8459C16.6141 23.1668 17.1392 24.4336 18.0738 25.3676C19.0085 26.3017 20.2762 26.8264 21.5981 26.8264C22.9199 26.8264 24.1876 26.3017 25.1223 25.3676C26.057 24.4336 26.5821 23.1668 26.5821 21.8459C26.5821 20.525 26.057 19.2582 25.1223 18.3241C24.1876 17.3901 22.9199 16.8654 21.5981 16.8654C20.2762 16.8654 19.0085 17.3901 18.0738 18.3241C17.1392 19.2582 16.6141 20.525 16.6141 21.8459ZM41.7563 20.0364L35.9918 14.2981C35.5636 13.8721 34.9839 13.6334 34.3798 13.6344C33.7758 13.6354 33.1969 13.876 32.7701 14.3034C32.5583 14.5143 32.3903 14.7649 32.2756 15.0409C32.161 15.3169 32.102 15.6128 32.102 15.9116C32.102 16.2105 32.161 16.5064 32.2756 16.7824C32.3903 17.0584 32.5583 17.309 32.7701 17.5199L36.6621 21.4084C36.9071 21.6516 36.9071 22.0314 36.6621 22.2746L32.8261 26.1071C32.6146 26.318 32.4468 26.5685 32.3323 26.8443C32.2178 27.1202 32.1588 27.4159 32.1588 27.7145C32.1588 28.0132 32.2178 28.3089 32.3323 28.5847C32.4468 28.8605 32.6146 29.111 32.8261 29.3219C33.2539 29.7472 33.8327 29.9859 34.4361 29.9859C35.0394 29.9859 35.6182 29.7472 36.0461 29.3219L41.7581 23.6169C41.9935 23.3817 42.1803 23.1024 42.3076 22.7949C42.4349 22.4874 42.5003 22.1578 42.5 21.825C42.4997 21.4922 42.4337 21.1628 42.3057 20.8555C42.1778 20.5483 41.9905 20.2693 41.7546 20.0346" fill="white"/>
</g>
<defs>
<clipPath id="clip0_2_6594">
<rect width="42" height="42" fill="white" transform="translate(0.5 0.748047)"/>
</clipPath>
</defs>
</svg>
