<svg width="43" height="43" viewBox="0 0 43 43" fill="none" xmlns="http://www.w3.org/2000/svg">
<g clip-path="url(#clip0_2_4428)">
<path fill-rule="evenodd" clip-rule="evenodd" d="M9.22375 3.87402C6.82625 3.87402 5.0535 5.97227 5.134 8.24552C5.20925 10.433 5.11125 13.2628 4.399 15.571C3.6815 17.8845 2.474 19.351 0.5 19.54V21.6663C2.474 21.8535 3.68325 23.32 4.39725 25.6353C5.11125 27.9435 5.20925 30.7733 5.13225 32.959C5.0535 35.234 6.82625 37.3323 9.22375 37.3323H33.7798C36.1772 37.3323 37.95 35.234 37.8695 32.959C37.7943 30.7733 37.8923 27.9435 38.6045 25.6353C39.3203 23.32 40.526 21.8553 42.5 21.6663V19.54C40.526 19.351 39.3203 17.8845 38.6045 15.571C37.8923 13.261 37.7943 10.4313 37.8695 8.24552C37.95 5.97052 36.1755 3.87402 33.7798 3.87402H9.22375ZM28.9725 24.4698C28.9725 27.6023 26.6362 29.501 22.76 29.501H16.1608C15.9719 29.501 15.7907 29.426 15.6571 29.2924C15.5235 29.1588 15.4485 28.9777 15.4485 28.7888V12.4158C15.449 12.2272 15.5242 12.0465 15.6577 11.9133C15.7913 11.7801 15.9722 11.7053 16.1608 11.7053H22.7233C25.9555 11.7053 28.0782 13.4553 28.0782 16.145C28.0782 18.0315 26.6503 19.7203 24.832 20.0178V20.1158C27.3083 20.387 28.9725 22.102 28.9725 24.4698ZM22.0425 13.961H18.28V19.2775H21.4492C23.8993 19.2775 25.2502 18.2905 25.2502 16.5265C25.2502 14.8745 24.0883 13.961 22.0425 13.961ZM18.28 21.3863V27.2435H22.1825C24.7323 27.2435 26.085 26.2198 26.085 24.2965C26.085 22.3715 24.6955 21.3863 22.018 21.3863H18.28Z" fill="white"/>
</g>
<defs>
<clipPath id="clip0_2_4428">
<rect width="42" height="42" fill="white" transform="translate(0.5 0.374023)"/>
</clipPath>
</defs>
</svg>
