<svg width="43" height="42" viewBox="0 0 43 42" fill="none" xmlns="http://www.w3.org/2000/svg">
<g clip-path="url(#clip0_2_4804)">
<path d="M18.7486 14.4375C17.6628 14.4377 16.594 14.7073 15.638 15.2222C14.6821 15.7371 13.8688 16.4811 13.2711 17.3876C12.6734 18.294 12.3099 19.3347 12.2133 20.4161C12.1167 21.4976 12.29 22.5862 12.7176 23.5843C13.1451 24.5823 13.8137 25.4587 14.6632 26.1348C15.5128 26.811 16.5169 27.2658 17.5855 27.4584C18.654 27.651 19.7537 27.5755 20.7859 27.2387C21.8181 26.9018 22.7506 26.3141 23.4998 25.5281C23.6782 25.341 23.8917 25.1907 24.1282 25.0861C24.3646 24.9814 24.6194 24.9243 24.8779 24.9181C25.1364 24.9119 25.3936 24.9567 25.6348 25.0499C25.876 25.143 26.0964 25.2828 26.2836 25.4612C26.4708 25.6396 26.621 25.8531 26.7257 26.0896C26.8304 26.326 26.8874 26.5807 26.8936 26.8393C26.8999 27.0978 26.8551 27.3549 26.7619 27.5961C26.6687 27.8374 26.529 28.0578 26.3506 28.245C24.9041 29.7626 23.0364 30.8125 20.988 31.2593C18.9397 31.7062 16.8044 31.5296 14.8573 30.7524C12.9101 29.9751 11.2403 28.6327 10.0627 26.8981C8.88514 25.1635 8.25381 23.1161 8.25002 21.0196C8.24623 18.9231 8.87015 16.8734 10.0414 15.1345C11.2127 13.3957 12.8777 12.0473 14.822 11.263C16.7663 10.4787 18.9009 10.2944 20.9509 10.7339C23.0009 11.1733 24.8723 12.2164 26.3243 13.7288C26.6863 14.1054 26.8839 14.6104 26.8736 15.1327C26.8632 15.6551 26.6458 16.1519 26.2692 16.5139C25.8925 16.8759 25.3875 17.0735 24.8652 17.0631C24.3429 17.0528 23.8461 16.8354 23.4841 16.4588C22.8718 15.82 22.1366 15.3117 21.3228 14.9643C20.509 14.617 19.6334 14.4378 18.7486 14.4375Z" fill="white"/>
<path d="M17.6633 0.268333C17.9644 0.0926007 18.3068 0 18.6555 0C19.0042 0 19.3466 0.0926007 19.6478 0.268333L32.0246 7.48708C32.4758 7.75024 32.8039 8.18184 32.9368 8.68692C33.0697 9.192 32.9965 9.7292 32.7334 10.1803C32.4702 10.6315 32.0386 10.9596 31.5335 11.0925C31.0285 11.2254 30.4913 11.1522 30.0401 10.8891L18.6555 4.24783L4.3125 12.6163V29.3848L18.6555 37.7533L30.0401 31.1121C30.2637 30.9781 30.5116 30.8897 30.7695 30.8523C31.0274 30.8148 31.2902 30.8289 31.5427 30.8938C31.7951 30.9587 32.0321 31.073 32.24 31.2302C32.4479 31.3874 32.6225 31.5843 32.7537 31.8095C32.8849 32.0348 32.9701 32.2838 33.0043 32.5421C33.0385 32.8005 33.021 33.0631 32.953 33.3147C32.8849 33.5663 32.7676 33.8019 32.6078 34.0078C32.448 34.2136 32.2488 34.3857 32.022 34.5141L19.6478 41.7328C19.3466 41.9086 19.0042 42.0012 18.6555 42.0012C18.3068 42.0012 17.9644 41.9086 17.6633 41.7328L1.3515 32.2172C1.05426 32.0438 0.807683 31.7954 0.636345 31.497C0.465008 31.1985 0.374898 30.8604 0.375 30.5162V11.485C0.374898 11.1408 0.465008 10.8027 0.636345 10.5042C0.807683 10.2057 1.05426 9.95741 1.3515 9.78396L17.6633 0.268333Z" fill="white"/>
<path d="M32.3467 13.7812C32.6948 13.7812 33.0286 13.9195 33.2748 14.1657C33.5209 14.4118 33.6592 14.7457 33.6592 15.0938V26.9062C33.6592 27.2543 33.5209 27.5882 33.2748 27.8343C33.0286 28.0805 32.6948 28.2188 32.3467 28.2188C31.9986 28.2188 31.6647 28.0805 31.4186 27.8343C31.1725 27.5882 31.0342 27.2543 31.0342 26.9062V15.0938C31.0342 14.7457 31.1725 14.4118 31.4186 14.1657C31.6647 13.9195 31.9986 13.7812 32.3467 13.7812ZM37.9642 13.7812C38.3123 13.7812 38.6461 13.9195 38.8923 14.1657C39.1384 14.4118 39.2767 14.7457 39.2767 15.0938V26.9062C39.2767 27.2543 39.1384 27.5882 38.8923 27.8343C38.6461 28.0805 38.3123 28.2188 37.9642 28.2188C37.6161 28.2188 37.2822 28.0805 37.0361 27.8343C36.79 27.5882 36.6517 27.2543 36.6517 26.9062V15.0938C36.6517 14.7457 36.79 14.4118 37.0361 14.1657C37.2822 13.9195 37.6161 13.7812 37.9642 13.7812Z" fill="white"/>
<path d="M27.9375 18.1912C27.9375 17.8431 28.0758 17.5093 28.3219 17.2631C28.5681 17.017 28.9019 16.8787 29.25 16.8787H41.0625C41.4106 16.8787 41.7444 17.017 41.9906 17.2631C42.2367 17.5093 42.375 17.8431 42.375 18.1912C42.375 18.5393 42.2367 18.8732 41.9906 19.1193C41.7444 19.3654 41.4106 19.5037 41.0625 19.5037H29.25C28.9019 19.5037 28.5681 19.3654 28.3219 19.1193C28.0758 18.8732 27.9375 18.5393 27.9375 18.1912ZM27.9375 23.8087C27.9375 23.4606 28.0758 23.1268 28.3219 22.8806C28.5681 22.6345 28.9019 22.4962 29.25 22.4962H41.0625C41.4106 22.4962 41.7444 22.6345 41.9906 22.8806C42.2367 23.1268 42.375 23.4606 42.375 23.8087C42.375 24.1568 42.2367 24.4907 41.9906 24.7368C41.7444 24.9829 41.4106 25.1212 41.0625 25.1212H29.25C28.9019 25.1212 28.5681 24.9829 28.3219 24.7368C28.0758 24.4907 27.9375 24.1568 27.9375 23.8087Z" fill="white"/>
</g>
<defs>
<clipPath id="clip0_2_4804">
<rect width="42" height="42" fill="white" transform="translate(0.375)"/>
</clipPath>
</defs>
</svg>
