<svg width="43" height="43" viewBox="0 0 43 43" fill="none" xmlns="http://www.w3.org/2000/svg">
<g clip-path="url(#clip0_2_6555)">
<path d="M13.5039 0.748047H18.0154V2.63455H15.3904V4.52105H18.0154V6.40755H13.5039V0.748047ZM18.9167 0.748047H23.4299V2.38955H20.8049V2.7168H23.4299V6.4898H18.9167V4.7678H21.5417V4.4388H18.9167V0.748047ZM24.3329 0.748047H28.8427V2.38955H26.2177V2.7168H28.8427V6.4898H24.3329V4.7678H26.9579V4.4388H24.3329V0.748047Z" fill="white"/>
<path fill-rule="evenodd" clip-rule="evenodd" d="M21.3593 42.7481L9.20725 39.3741L5.625 9.00281H37.125L33.5445 39.3706L21.3593 42.7481ZM12.7072 22.7508L13.0415 26.4748H25.9513L25.519 31.3048L21.3645 32.4283H21.361L17.2135 31.3083L16.9475 28.3386H13.2078L13.7292 34.1871L21.3593 36.3046L29.0015 34.1871L29.9325 23.7501L30.0235 22.7508L30.6955 15.2101H12.037L12.3765 18.9358H26.6145L26.275 22.7508H12.7072Z" fill="white"/>
</g>
<defs>
<clipPath id="clip0_2_6555">
<rect width="42" height="42" fill="white" transform="translate(0.375 0.748047)"/>
</clipPath>
</defs>
</svg>
