<svg width="43" height="43" viewBox="0 0 43 43" fill="none" xmlns="http://www.w3.org/2000/svg">
<path d="M13.2058 2.74806C13.1748 2.74849 13.1438 2.75132 13.1131 2.75651C12.9918 2.77643 12.8798 2.8342 12.7934 2.92157C12.7069 3.00893 12.6502 3.12141 12.6316 3.24289L8.08514 32.3171L11.0774 26.6244L18.645 12.2249L13.7275 3.05824L13.7269 3.05763C13.6766 2.96344 13.6014 2.8848 13.5096 2.83023C13.4177 2.77567 13.3127 2.74725 13.2058 2.74806ZM21.7761 8.26781C21.5582 8.26781 21.3595 8.3873 21.2581 8.5801L19.0061 12.8655L19.0037 12.8613L8.70858 32.4498L11.9541 29.2012L22.3579 18.7856L25.8308 15.3086L22.2948 8.5801C22.245 8.48576 22.1704 8.40681 22.079 8.35177C21.9876 8.29673 21.8829 8.2677 21.7761 8.26781ZM31.4901 10.7724C31.4373 10.771 31.3845 10.7764 31.3331 10.7887C31.2287 10.8142 31.1333 10.8678 31.0574 10.9438L26.5828 15.4223L22.7918 19.2189L8 34.0269L20.5634 41.0683H20.564C20.9171 41.2653 21.3148 41.3687 21.7192 41.3687C22.1237 41.3687 22.5214 41.2653 22.8745 41.0683L35.7153 33.9334L32.0486 11.2579V11.2603C32.0306 11.1544 31.9838 11.0555 31.9133 10.9743C31.8428 10.8932 31.7513 10.8331 31.6489 10.8005C31.5974 10.7841 31.544 10.7746 31.4901 10.7724ZM36 34.1259L35.8189 34.1407L35.894 34.1847L36 34.1259Z" fill="white"/>
</svg>
