<svg width="43" height="43" viewBox="0 0 43 43" fill="none" xmlns="http://www.w3.org/2000/svg">
<g clip-path="url(#clip0_2_6544)">
<mask id="mask0_2_6544" style="mask-type:luminance" maskUnits="userSpaceOnUse" x="0" y="0" width="43" height="43">
<path d="M0.375 0.748047H42.375V42.748H0.375V0.748047Z" fill="white"/>
</mask>
<g mask="url(#mask0_2_6544)">
<path d="M9.26465 0.748047H11.1581V2.6188H12.8906V0.748047H14.7841V6.41105H12.8906V4.5158H11.1581V6.41105H9.2664L9.26465 0.748047ZM17.2726 2.6258H15.6066V0.748047H20.8339V2.6258H19.1661V6.41105H17.2726V2.6258ZM21.6634 0.748047H23.6374L24.8519 2.7378L26.0646 0.748047H28.0386V6.41105H26.1539V3.60405L24.8519 5.6183H24.8186L23.5149 3.6058V6.41105H21.6634V0.748047ZM28.9801 0.748047H30.8754V4.5403H33.5354V6.4128H28.9801V0.748047Z" fill="white"/>
<path fill-rule="evenodd" clip-rule="evenodd" d="M9.2055 39.3741L5.625 9.00281H37.125L33.5427 39.3706L21.3575 42.7481L9.2055 39.3741ZM16.4452 22.7491L16.1058 18.9341H30.3595L30.692 15.2101H12.037L13.0415 26.4748H25.9513L25.519 31.3048L21.3645 32.4283H21.361L17.2135 31.3083L16.9475 28.3386H13.206L13.7275 34.1871L21.3575 36.3046L28.9998 34.1871L29.9307 23.7501L30.0217 22.7508L16.4452 22.7491Z" fill="white"/>
</g>
</g>
<defs>
<clipPath id="clip0_2_6544">
<rect width="42" height="42" fill="white" transform="translate(0.375 0.748047)"/>
</clipPath>
</defs>
</svg>
