<svg width="43" height="43" viewBox="0 0 43 43" fill="none" xmlns="http://www.w3.org/2000/svg">
<path d="M35.375 7.74805L31.875 33.123L21.375 36.623L10.875 33.123L7.375 7.74805H35.375Z" stroke="white" stroke-width="3.5" stroke-linecap="round" stroke-linejoin="round"/>
<path d="M13.5 14.748H18.75V28.748L15.25 26.998M29.25 14.748H24.875C24.6429 14.748 24.4204 14.8402 24.2563 15.0043C24.0922 15.1684 24 15.391 24 15.623V20.873C24 21.1051 24.0922 21.3277 24.2563 21.4918C24.4204 21.6559 24.6429 21.748 24.875 21.748H27.3653C27.4905 21.7481 27.6143 21.775 27.7282 21.8269C27.8422 21.8789 27.9436 21.9548 28.0258 22.0493C28.1079 22.1439 28.1688 22.255 28.2043 22.3751C28.2397 22.4952 28.249 22.6215 28.2315 22.7455L27.5 27.873L24 28.748" stroke="white" stroke-width="3.5" stroke-linecap="round" stroke-linejoin="round"/>
</svg>
