<svg width="43" height="43" viewBox="0 0 43 43" fill="none" xmlns="http://www.w3.org/2000/svg">
<path d="M38.4734 12.1756C38.4909 12.2106 38.4909 12.2631 38.4909 12.3156V19.8231C38.4909 19.9981 38.3859 20.2081 38.2284 20.2956L31.9109 23.9356V31.1281C31.9109 31.3206 31.8234 31.4956 31.6484 31.6006L18.4884 39.1781C18.4534 39.1956 18.4184 39.2481 18.3834 39.2481H17.9984C17.9984 39.2481 17.9984 39.1956 17.9284 39.1781L4.76836 31.6006C4.68829 31.5504 4.62223 31.4807 4.57633 31.3981C4.53043 31.3155 4.50619 31.2226 4.50586 31.1281V8.62306C4.50586 8.53556 4.50586 8.48306 4.52336 8.44806C4.52336 8.43056 4.54086 8.41306 4.54086 8.39556C4.54086 8.36056 4.55836 8.34306 4.57586 8.30806C4.57586 8.29056 4.59336 8.27306 4.61086 8.25556L4.66336 8.20306L4.71586 8.15056C4.73336 8.13306 4.75086 8.11556 4.76836 8.11556L11.3484 4.31806C11.5234 4.24806 11.7334 4.24806 11.8734 4.31806L18.4884 8.11556C18.5059 8.13306 18.5234 8.13306 18.5409 8.15056L18.5934 8.20306L18.6459 8.25556C18.6634 8.27306 18.6809 8.29056 18.6809 8.30806C18.6984 8.34306 18.7159 8.36056 18.7159 8.39556C18.7159 8.41306 18.7334 8.43056 18.7334 8.44806C18.7509 8.50056 18.7509 8.53556 18.7509 8.62306V22.6231L24.2459 19.5081V12.3156C24.2459 12.2631 24.2459 12.2106 24.2634 12.1756L24.2809 12.1231C24.2809 12.1231 24.2984 12.0706 24.3159 12.0356C24.3159 12.0181 24.3334 12.0006 24.3509 11.9831L24.4034 11.9306L24.4559 11.8781C24.4734 11.8606 24.4909 11.8431 24.5084 11.8431L31.1234 8.04556C31.2634 7.94056 31.4734 7.94056 31.6484 8.04556L38.2284 11.8431C38.2459 11.8431 38.2634 11.8606 38.2809 11.8781L38.3334 11.9306L38.3859 11.9831C38.4034 12.0006 38.4034 12.0181 38.4209 12.0356C38.4384 12.0706 38.4384 12.1231 38.4559 12.1231C38.4734 12.1231 38.4734 12.1231 38.4734 12.1756ZM37.4059 19.5081V13.2606L31.9109 16.4106V22.6231L37.4059 19.5081ZM30.8259 30.8131V24.5481L18.7509 31.4431V37.7606L30.8259 30.8131ZM5.59086 9.49806V30.8131L17.6659 37.7606V31.4431L11.3659 27.8731H11.3484C11.3309 27.8731 11.3134 27.8731 11.2959 27.8206C11.2784 27.8206 11.2609 27.8031 11.2434 27.7856L11.1909 27.7331C11.1734 27.7156 11.1734 27.6981 11.1559 27.6806C11.1384 27.6456 11.1384 27.6281 11.1209 27.6106C11.1209 27.5756 11.1034 27.5581 11.1034 27.5406C11.0859 27.5231 11.0859 27.4881 11.0859 27.4706V12.6831L5.59086 9.49806ZM11.6284 5.43806L6.15086 8.62306L11.6284 11.7381L17.1234 8.62306L11.6284 5.43806ZM17.6659 23.2881V9.49806L12.1709 12.6831V26.4556L17.6659 23.2881ZM31.3684 9.14806L25.8734 12.3156L31.3684 15.4656L36.8459 12.3156L31.3684 9.14806ZM30.8259 16.4106L25.3309 13.2606V19.5081L30.8259 22.6231V16.4106ZM18.2084 30.4981L30.2484 23.6031L24.7884 20.4531L12.7484 27.4006L18.2084 30.4981Z" fill="white"/>
</svg>
