<svg width="43" height="42" viewBox="0 0 43 42" fill="none" xmlns="http://www.w3.org/2000/svg">
<g clip-path="url(#clip0_2_6598)">
<path d="M29.2088 9.62676C29.0075 9.62676 28.871 9.65126 28.7293 9.68451V9.70726H28.7537C28.8483 9.88926 29.0092 10.0223 29.1282 10.185C29.2227 10.3723 29.3033 10.5595 29.3978 10.745L29.4223 10.7188C29.5868 10.6033 29.6672 10.4178 29.6672 10.136C29.5972 10.0538 29.5868 9.97151 29.5273 9.89101C29.4573 9.77376 29.3067 9.71601 29.2122 9.62326L29.2088 9.62676ZM10.5975 32.7163H8.97525C8.92931 30.1381 8.77166 27.5632 8.50275 24.9988H8.48875L6.02125 32.7163H4.7875L2.3375 24.9988H2.32C2.12848 27.5672 2.01468 30.1409 1.97875 32.7163H0.5C0.596833 29.2746 0.836 26.0488 1.2175 23.0388H3.23L5.56625 30.1508H5.58025L7.9375 23.0388H9.85375C10.2772 26.5668 10.5269 29.7926 10.6027 32.7163H10.5975ZM17.6272 25.5763C16.9657 29.1568 16.0954 31.7584 15.0163 33.3813C14.1728 34.6343 13.2493 35.2602 12.246 35.259C11.98 35.259 11.6498 35.1785 11.2555 35.0175V34.153C11.4492 34.1833 11.6743 34.1985 11.931 34.1985C12.4 34.1985 12.7774 34.069 13.0632 33.81C13.4074 33.495 13.5795 33.1421 13.5795 32.7513C13.5795 32.4794 13.4453 31.9288 13.177 31.0993L11.4025 25.5763H12.995L14.2673 29.7063C14.5554 30.6443 14.675 31.2993 14.626 31.6715C15.326 29.8072 15.8131 27.7754 16.0872 25.5763H17.6272ZM39.196 32.7163H34.5935V23.0388H36.1423V31.5263H39.196V32.7163ZM33.386 32.9525L31.608 32.0775C31.7667 31.9457 31.9154 31.7998 32.0543 31.64C32.8114 30.7533 33.1894 29.4391 33.1883 27.6973C33.1883 24.4948 31.9312 22.8929 29.417 22.8918C28.185 22.8918 27.2225 23.2983 26.5295 24.1115C25.7758 25.0005 25.399 26.3101 25.399 28.0403C25.3978 29.7424 25.7327 30.9908 26.4035 31.7853C27.0148 32.5028 27.9382 32.8615 29.1737 32.8615C29.6357 32.8615 30.0587 32.8043 30.4425 32.69L32.7612 34.041L33.3913 32.9525H33.386ZM27.625 30.779C27.2318 30.1478 27.0352 29.1352 27.0352 27.741C27.0352 25.3027 27.7761 24.0835 29.2578 24.0835C30.0348 24.0835 30.6047 24.3752 30.9675 24.9585C31.3595 25.592 31.5555 26.5971 31.5555 27.9738C31.5555 30.4319 30.8147 31.6616 29.333 31.6628C28.5548 31.6628 27.9843 31.3711 27.6215 30.7878L27.625 30.779ZM24.7235 30.0353C24.7235 30.8589 24.4225 31.5333 23.8205 32.0583C23.2208 32.5833 22.4135 32.8458 21.3985 32.8458C20.4482 32.8458 19.5365 32.5448 18.6458 31.9445L19.0605 31.1115C19.8258 31.4953 20.52 31.6867 21.143 31.6855C21.724 31.6855 22.1807 31.5572 22.5133 31.3005C22.6799 31.1756 22.8144 31.0129 22.9056 30.8257C22.9969 30.6386 23.0424 30.4324 23.0382 30.2243C23.0382 29.6468 22.6357 29.1568 21.9042 28.7455C21.2253 28.3728 19.869 27.5958 19.869 27.5958C19.1305 27.0585 18.763 26.4828 18.763 25.536C18.763 24.7497 19.0372 24.1168 19.5855 23.6373C20.135 23.1519 20.8467 22.9098 21.7205 22.911C22.6177 22.911 23.4343 23.1502 24.1705 23.6285L23.7977 24.4615C23.2108 24.2023 22.5773 24.0654 21.9357 24.059C21.4399 24.059 21.0584 24.1792 20.7913 24.4195C20.6567 24.5317 20.5482 24.6719 20.4733 24.8302C20.3983 24.9886 20.3587 25.1613 20.3573 25.3365C20.3573 25.9105 20.7667 26.404 21.5227 26.824C22.2105 27.2003 23.6 27.9965 23.6 27.9965C24.3577 28.5303 24.734 29.099 24.734 30.0405L24.7235 30.0353ZM41.142 19.7943C40.2058 19.7698 39.4795 19.8643 38.8722 20.1233C38.6973 20.1933 38.4173 20.1933 38.3927 20.4155C38.489 20.5083 38.503 20.6605 38.5853 20.79C38.7253 21.0245 38.9667 21.3378 39.1908 21.5023C39.4334 21.6971 39.6825 21.8779 39.938 22.0448C40.393 22.3248 40.9093 22.491 41.3555 22.7728C41.6093 22.9373 41.8682 23.1455 42.1255 23.3205C42.2533 23.408 42.3355 23.5655 42.5 23.6215V23.5865C42.4195 23.4815 42.395 23.3293 42.3162 23.212C42.199 23.0948 42.0817 22.9898 41.9662 22.8743C41.6231 22.4211 41.213 22.0227 40.75 21.693C40.3755 21.4375 39.5565 21.0805 39.4025 20.6518L39.3797 20.6273C39.6353 20.6045 39.9398 20.5118 40.1847 20.4418C40.582 20.3368 40.946 20.3595 41.3573 20.2563C41.5439 20.2073 41.7306 20.1524 41.9173 20.0918V19.9868C41.7072 19.7768 41.5498 19.4915 41.3327 19.2955C40.7265 18.7668 40.0806 18.2853 39.4007 17.8553C39.0332 17.6208 38.5677 17.4703 38.181 17.2708C38.041 17.2008 37.8065 17.1658 37.726 17.0485C37.516 16.793 37.3935 16.4535 37.2448 16.149C36.9015 15.4822 36.5823 14.8034 36.2875 14.1138C36.0775 13.6553 35.9498 13.1985 35.6925 12.7785C34.485 10.7888 33.1777 9.58301 31.167 8.40351C30.7348 8.15851 30.2167 8.05351 29.669 7.92401C29.3767 7.91001 29.0845 7.88901 28.794 7.87676C28.6015 7.79451 28.416 7.57226 28.2515 7.46551C27.5865 7.04551 25.8645 6.13551 25.3745 7.33951C25.0595 8.09901 25.8417 8.84801 26.113 9.23301C26.3142 9.50076 26.568 9.80701 26.708 10.108C26.7902 10.311 26.813 10.5193 26.8953 10.731C27.0807 11.2455 27.2575 11.8195 27.5025 12.3008C27.6303 12.5458 27.7703 12.803 27.9347 13.0235C28.0292 13.1513 28.1903 13.2108 28.227 13.4208C28.0625 13.6588 28.052 14.0053 27.9575 14.2958C27.5375 15.6205 27.702 17.2585 28.297 18.2333C28.4842 18.5238 28.9305 19.1678 29.5273 18.921C30.0522 18.711 29.9367 18.046 30.0872 17.4598C30.1222 17.3198 30.0995 17.227 30.1712 17.1325V17.1588C30.3358 17.4878 30.5002 17.801 30.6507 18.13C31.0112 18.704 31.6413 19.299 32.168 19.6963C32.448 19.9063 32.6702 20.2703 33.0202 20.3998V20.3648H32.994C32.9188 20.2633 32.819 20.2143 32.7245 20.132C32.5029 19.9145 32.2981 19.6805 32.112 19.432C31.6204 18.7573 31.1833 18.0445 30.8047 17.3005C30.6122 16.933 30.4513 16.5375 30.2973 16.1753C30.2273 16.0353 30.2273 15.8253 30.11 15.7553C29.935 16.0108 29.6778 16.233 29.55 16.548C29.3278 17.052 29.305 17.6715 29.221 18.3155C29.1738 18.3278 29.1965 18.3155 29.1737 18.34C28.7992 18.249 28.6715 17.8605 28.5315 17.535C28.1815 16.7038 28.1238 15.3685 28.4265 14.4113C28.5088 14.1663 28.8587 13.3928 28.7188 13.1583C28.6453 12.936 28.4143 12.8083 28.2865 12.628C28.1224 12.3933 27.9817 12.143 27.8665 11.8808C27.5865 11.2263 27.4465 10.5018 27.142 9.84726C27.002 9.54451 26.757 9.22776 26.5575 8.94951C26.3353 8.63451 26.0903 8.41226 25.9135 8.03951C25.8558 7.91176 25.7735 7.70001 25.8662 7.56001C25.8907 7.46551 25.9397 7.42876 26.0308 7.40251C26.1847 7.27651 26.617 7.44101 26.7692 7.51101C27.2015 7.68601 27.5655 7.85051 27.9277 8.09551C28.0923 8.21101 28.269 8.43326 28.479 8.49101H28.724C29.0985 8.57326 29.5203 8.51551 29.8703 8.61876C30.4915 8.81826 31.0515 9.10876 31.5538 9.42376C33.1015 10.4122 34.3603 11.7923 35.2025 13.4243C35.3425 13.6938 35.4037 13.9405 35.5315 14.2205C35.7765 14.798 36.0793 15.3808 36.3278 15.939C36.5728 16.4903 36.809 17.052 37.1607 17.5088C37.3358 17.7538 38.0392 17.8815 38.3543 18.0093C38.587 18.1143 38.9492 18.2105 39.1592 18.3383C39.5617 18.5833 39.9538 18.8633 40.3317 19.1328C40.5243 19.2658 41.107 19.558 41.142 19.7943Z" fill="white"/>
</g>
<defs>
<clipPath id="clip0_2_6598">
<rect width="42" height="42" fill="white" transform="translate(0.5)"/>
</clipPath>
</defs>
</svg>
