<svg width="85" height="32" viewBox="0 0 85 32" fill="none" xmlns="http://www.w3.org/2000/svg">
<g clip-path="url(#clip0_2_6614)">
<path d="M29.0645 10.7348C27.8964 9.42441 26.4511 8.76471 24.7339 8.76471C23.6754 8.76471 22.7003 8.9711 21.8042 9.38848C20.9084 9.80585 20.1354 10.3714 19.4809 11.0939C18.8309 11.8209 18.3171 12.6646 17.9394 13.6429C17.5616 14.6168 17.3727 15.6714 17.3727 16.8113C17.3727 17.9288 17.5484 18.9474 17.8953 19.8675C18.2467 20.7831 18.7343 21.5685 19.3667 22.2236C19.9993 22.8788 20.7503 23.3905 21.6198 23.7585C22.4895 24.1265 23.4425 24.3105 24.4791 24.3105C24.9491 24.3105 25.3839 24.2745 25.7791 24.2073C26.1685 24.1409 26.5488 24.0295 26.9123 23.8752C27.2724 23.7182 27.6238 23.5208 27.9753 23.2829C28.3223 23.0404 28.6868 22.7353 29.0645 22.3717V26.2628H29.06V26.6396H24.264L20.6579 30.7865V31.5H34.19V9.1729H29.0645V10.7348ZM29.0514 17.8661C28.8712 18.2789 28.634 18.6424 28.3442 18.9522C28.0499 19.2616 27.7028 19.4996 27.2988 19.6745C26.8947 19.8496 26.4643 19.9349 26.0119 19.9349C25.5378 19.9349 25.0984 19.8496 24.6943 19.6745C24.2903 19.4995 23.9388 19.2616 23.6445 18.952C23.3502 18.6424 23.122 18.2789 22.9507 17.8659C22.7794 17.4531 22.6959 16.9998 22.6959 16.5196C22.6959 16.0575 22.7837 15.622 22.9638 15.2181C23.144 14.8142 23.381 14.4642 23.6886 14.1635C23.9915 13.8628 24.3385 13.6251 24.7339 13.441C25.1293 13.2569 25.5552 13.1672 26.0075 13.1672C26.4423 13.1672 26.8596 13.2525 27.268 13.4275C27.6672 13.5948 28.0287 13.8405 28.3311 14.1501C28.634 14.4598 28.8712 14.8142 29.0556 15.2181C29.2358 15.622 29.3237 16.0663 29.3237 16.5511C29.3193 17.0133 29.2313 17.4531 29.0514 17.8661ZM14.7638 10.9773C14.4915 10.6496 14.184 10.3669 13.8546 10.1156C13.5604 9.89576 13.2485 9.70266 12.9104 9.54565C12.748 9.46936 12.5765 9.40652 12.3964 9.34828C12.1373 9.26297 11.8563 9.20456 11.5662 9.15518H7.91255L5.49673 11.9692V9.21342H0.371094V24.0594H5.49673V14.0421H10.3105L10.7101 14.0333V24.0547H15.8356V14.7694C15.8356 13.9796 15.761 13.2751 15.6117 12.6558C15.4624 12.0409 15.181 11.4844 14.7638 10.9773ZM56.4623 8.62559C57.7096 8.62559 58.8648 8.82295 59.9322 9.21785C60.9996 9.61275 61.926 10.1604 62.7078 10.865C63.4897 11.5695 64.1002 12.4089 64.5394 13.3781C64.9699 14.352 65.1894 15.4291 65.1894 16.6049C65.1894 17.7852 64.9655 18.8578 64.5218 19.8315C64.0782 20.8053 63.4677 21.6448 62.6947 22.3493C61.9218 23.0583 60.9906 23.6014 59.9056 23.9874C58.8166 24.3733 57.6438 24.5662 56.3789 24.5662C55.1315 24.5662 53.9808 24.3733 52.9221 23.9874C51.8639 23.6014 50.9547 23.0495 50.1905 22.3358C49.4217 21.6223 48.8245 20.7697 48.3896 19.7777C47.9548 18.786 47.7397 17.682 47.7397 16.4658C47.7397 15.3663 47.9548 14.3386 48.3896 13.3827C48.8177 12.4373 49.4351 11.5896 50.2036 10.8919C50.9809 10.1919 51.8989 9.63523 52.9662 9.23147C54.029 8.82755 55.1975 8.62559 56.4624 8.62559M41.45 9.17306V11.7311L43.6726 9.17306H49.2639V9.37945L45.1923 14.0826H41.4632L41.4589 24.0187H36.3201V9.17306H41.45ZM56.4669 13.1672C56.0101 13.1672 55.5842 13.2525 55.1757 13.4275C54.7807 13.593 54.4247 13.8391 54.1303 14.1501C53.8361 14.4596 53.6033 14.8142 53.4232 15.2181C53.243 15.622 53.1553 16.0573 53.1553 16.5196C53.1553 17.0221 53.243 17.48 53.4232 17.8928C53.6033 18.3058 53.8361 18.6693 54.1303 18.9789C54.4202 19.2887 54.7714 19.5264 55.1755 19.7014C55.584 19.8765 56.0145 19.9618 56.4669 19.9618C56.9192 19.9618 57.3454 19.8765 57.7538 19.7014C58.1578 19.5264 58.5048 19.2887 58.799 18.9789C59.0889 18.6693 59.3261 18.3058 59.5061 17.8928C59.6862 17.48 59.774 17.0313 59.774 16.551C59.774 16.0888 59.6862 15.6489 59.5063 15.236C59.3261 14.8232 59.0933 14.4596 58.7992 14.1501C58.5091 13.8405 58.1577 13.598 57.7538 13.4275C57.3497 13.2525 56.9193 13.1672 56.4669 13.1672ZM76.9606 16.0305L83.9703 9.42457V9.17323H77.2153L71.8393 14.5272V0H66.7139V24.0143H71.8393V17.9693L77.4744 24.0143H84.3711V23.7316L76.9606 16.0305Z" fill="white"/>
</g>
<defs>
<clipPath id="clip0_2_6614">
<rect width="84" height="31.5" fill="white" transform="translate(0.375)"/>
</clipPath>
</defs>
</svg>
