<svg width="43" height="42" viewBox="0 0 43 42" fill="none" xmlns="http://www.w3.org/2000/svg">
<g clip-path="url(#clip0_53_13109)">
<path d="M21.5 41.9231C20.9015 41.9231 20.345 41.7674 19.8253 41.4979L14.5245 38.4564C13.7282 38.0329 14.1272 37.8789 14.367 37.8019C15.4415 37.4554 15.641 37.3784 16.7575 36.7606C16.8765 36.6836 17.0375 36.7221 17.1565 36.7991L21.2217 39.1494C21.3792 39.2264 21.5805 39.2264 21.6995 39.1494L37.6017 30.2524C37.7593 30.1754 37.8397 30.0214 37.8397 29.8289V12.0734C37.8397 11.8809 37.761 11.7269 37.6017 11.6499L21.6995 2.79315C21.5403 2.71615 21.3407 2.71615 21.2217 2.79315L5.3195 11.6499C5.16025 11.7269 5.07975 11.9194 5.07975 12.0734V29.8289C5.07975 29.9829 5.16025 30.1754 5.3195 30.2524L9.663 32.6796C12.015 33.8346 13.4885 32.4871 13.4885 31.1396V13.6151C13.4885 13.3841 13.688 13.1531 13.968 13.1531H15.9998C16.2395 13.1531 16.4775 13.3456 16.4775 13.6151V31.1379C16.4775 34.1811 14.7642 35.9521 11.7752 35.9521C10.8582 35.9521 10.1407 35.9521 8.109 34.9896L3.92475 32.6796C3.42091 32.402 3.00016 31.995 2.7058 31.5008C2.41144 31.0065 2.25411 30.4427 2.25 29.8674V12.1119C2.25 10.9569 2.887 9.8789 3.92475 9.3014L19.827 0.402647C20.3449 0.137838 20.9183 -0.000244141 21.5 -0.000244141C22.0817 -0.000244141 22.6551 0.137838 23.173 0.402647L39.077 9.29965C40.113 9.87715 40.75 10.9551 40.75 12.1101V29.8656C40.75 31.0206 40.113 32.0986 39.077 32.6779L23.1747 41.5731C22.6462 41.8023 22.0761 41.9202 21.5 41.9196M26.4017 29.7099C19.428 29.7099 17.993 26.6299 17.993 24.0101C17.993 23.7791 18.1925 23.5481 18.4708 23.5481H20.5427C20.7825 23.5481 20.9802 23.7021 20.9802 23.9331C21.3005 25.9736 22.2175 26.9746 26.442 26.9746C29.7898 26.9746 31.2247 26.2431 31.2247 24.5106C31.2247 23.5096 30.8258 22.7781 25.6055 22.2776C21.2603 21.8524 18.5512 20.9301 18.5512 17.5789C18.5512 14.4586 21.2603 12.6089 25.805 12.6089C30.9062 12.6089 33.4175 14.3046 33.736 18.0024C33.7321 18.1275 33.69 18.2484 33.6152 18.3489C33.5365 18.4259 33.4175 18.5029 33.2967 18.5029H31.2247C31.1241 18.5005 31.027 18.4653 30.948 18.4028C30.8691 18.3403 30.8127 18.2538 30.7872 18.1564C30.3077 16.0389 29.0723 15.3441 25.805 15.3441C22.137 15.3441 21.6995 16.5761 21.6995 17.5019C21.6995 18.6184 22.2175 18.9649 27.1595 19.5809C32.0613 20.1969 34.373 21.0824 34.373 24.3934C34.3328 27.7849 31.4645 29.7099 26.4017 29.7099Z" fill="white"/>
</g>
<defs>
<clipPath id="clip0_53_13109">
<rect width="42" height="42" fill="white" transform="translate(0.5)"/>
</clipPath>
</defs>
</svg>
