<svg width="43" height="43" viewBox="0 0 43 43" fill="none" xmlns="http://www.w3.org/2000/svg">
<path d="M4.13599 30.1131H6.88349C6.94284 30.1137 7.00039 30.0927 7.04545 30.0541C7.09051 30.0155 7.12002 29.9618 7.12849 29.9031L7.74099 26.7181H9.87599C10.7697 26.7398 11.6613 26.6218 12.5185 26.3681C13.2127 26.1378 13.8465 25.7551 14.3735 25.2481C14.8459 24.8224 15.2425 24.3194 15.546 23.7606C15.8464 23.2139 16.059 22.6233 16.176 22.0106C16.3619 21.3684 16.3938 20.6915 16.2692 20.0348C16.1445 19.378 15.8668 18.7599 15.4585 18.2306C14.9854 17.7499 14.4129 17.3786 13.781 17.1428C13.1491 16.9069 12.4733 16.8123 11.801 16.8656H6.55099C6.48802 16.8684 6.42784 16.8924 6.3802 16.9337C6.33256 16.975 6.30025 17.0311 6.28849 17.0931L3.87349 29.7981C3.84816 29.8718 3.84816 29.9518 3.87349 30.0256C3.90689 30.0603 3.94822 30.0864 3.99395 30.1017C4.03968 30.1169 4.08842 30.1208 4.13599 30.1131ZM9.12349 19.3331H10.8735C11.2064 19.2883 11.5449 19.3102 11.8694 19.3973C12.1938 19.4844 12.4977 19.6351 12.7635 19.8406C13.061 20.1556 13.1135 20.7506 12.956 21.5906C12.8698 22.3425 12.5157 23.0383 11.9585 23.5506C11.2654 23.9894 10.4488 24.192 9.63099 24.1281H8.23099L9.12349 19.3331ZM26.2735 17.6706C25.3261 16.974 24.153 16.6558 22.9835 16.7781H20.901L21.4785 13.6981C21.4956 13.6626 21.5044 13.6237 21.5044 13.5843C21.5044 13.5449 21.4956 13.506 21.4785 13.4706C21.4163 13.4478 21.3481 13.4478 21.286 13.4706H18.5385C18.4791 13.4699 18.4216 13.4909 18.3765 13.5295C18.3315 13.5681 18.302 13.6218 18.2935 13.6806L15.8785 26.4031C15.8616 26.4355 15.8528 26.4715 15.8528 26.5081C15.8528 26.5446 15.8616 26.5806 15.8785 26.6131C15.8991 26.6454 15.9276 26.6719 15.9613 26.6903C15.9949 26.7086 16.0327 26.7182 16.071 26.7181H18.766C18.828 26.7182 18.8879 26.6948 18.9333 26.6526C18.9788 26.6104 19.0066 26.5525 19.011 26.4906L20.3585 19.3681H22.301C23.0885 19.3681 23.3685 19.5431 23.456 19.6481C23.5282 19.8198 23.5654 20.0042 23.5654 20.1906C23.5654 20.3769 23.5282 20.5613 23.456 20.7331L22.3885 26.4031C22.3716 26.4355 22.3628 26.4715 22.3628 26.5081C22.3628 26.5446 22.3716 26.5806 22.3885 26.6131C22.4102 26.6443 22.4389 26.6701 22.4723 26.6883C22.5058 26.7065 22.543 26.7167 22.581 26.7181H25.311C25.374 26.7152 25.4341 26.6912 25.4818 26.6499C25.5294 26.6086 25.5617 26.5525 25.5735 26.4906L26.6935 20.5406C26.8742 20.0661 26.9305 19.5533 26.857 19.0509C26.7834 18.5485 26.5826 18.0733 26.2735 17.6706ZM34.1835 16.7781H28.706C28.6738 16.7757 28.6415 16.7797 28.6108 16.7898C28.5802 16.8 28.5518 16.8161 28.5275 16.8372C28.5031 16.8584 28.4831 16.8841 28.4687 16.913C28.4543 16.9419 28.4457 16.9734 28.4435 17.0056L25.8885 29.7981C25.8726 29.8339 25.8643 29.8726 25.8643 29.9118C25.8643 29.951 25.8726 29.9897 25.8885 30.0256C25.912 30.0536 25.9415 30.076 25.9748 30.0911C26.0081 30.1063 26.0444 30.1138 26.081 30.1131H28.9335C28.9958 30.1181 29.0576 30.0992 29.1064 30.0602C29.1552 30.0211 29.1873 29.9649 29.196 29.9031L29.8435 26.7181H32.066C32.9883 26.7378 33.9085 26.6198 34.796 26.3681C35.5601 26.1555 36.2661 25.7726 36.861 25.2481C37.3498 24.8243 37.7638 24.3215 38.086 23.7606C38.3899 23.2137 38.6083 22.6235 38.7335 22.0106C38.9242 21.3679 38.957 20.6886 38.8291 20.0305C38.7011 19.3724 38.4162 18.7549 37.9985 18.2306C37.5044 17.7284 36.9078 17.3388 36.2494 17.0881C35.5911 16.8374 34.8864 16.7317 34.1835 16.7781ZM35.2685 21.6256C35.1638 22.3833 34.7913 23.0786 34.2185 23.5856C33.5004 24.0264 32.6611 24.2285 31.821 24.1631H30.421L31.366 19.3331H33.116C33.8155 19.2473 34.5217 19.4285 35.0935 19.8406C35.3735 20.1556 35.3735 20.7506 35.2685 21.6256Z" fill="white"/>
</svg>
