<svg width="43" height="42" viewBox="0 0 43 42" fill="none" xmlns="http://www.w3.org/2000/svg">
<g clip-path="url(#clip0_2_6606)">
<path d="M9.93525 6.08301C12.0825 9.14376 13.4948 12.9483 13.815 17.1465C14.0632 20.2597 13.6628 23.3905 12.639 26.341C13.2838 25.573 14.0755 24.9415 14.9678 24.4838C15.8601 24.0261 16.8348 23.7514 17.8348 23.6758L18.0938 23.6618C18.2337 22.8025 18.9163 17.6243 16.384 11.9718C14.515 7.79626 11.134 6.44176 9.93525 6.08301ZM13.045 6.14776C13.045 6.14776 17.2555 8.01326 18.8655 15.855C19.9277 21.0263 18.9513 24.318 18.162 25.9578C20.3107 23.9219 23.0958 22.6894 26.0475 22.4683C27.5525 22.3545 29.0138 22.5033 30.391 22.876C30.216 21.5793 29.3533 16.9015 25.61 12.516C19.8997 5.82576 13.045 6.14776 13.045 6.14776ZM38.9747 23.1245L7.61475 28.4603C8.42779 28.7405 9.12854 29.2758 9.6126 29.9866C10.0967 30.6974 10.3381 31.5456 10.301 32.4048C10.2876 32.7673 10.2252 33.1264 10.1155 33.4723C10.2118 33.425 14.8212 31.241 21.214 29.9128C26.8805 28.735 31.2293 29.2828 32.2128 29.435C32.8313 27.9659 33.7535 26.6441 34.9189 25.5566C36.0842 24.469 37.4664 23.6402 38.9747 23.1245ZM28.102 30.261C24.0455 30.261 19.9802 31.1273 16.5275 32.3015C11.5085 34.0095 11.3632 34.6605 6.815 34.1268C3.602 33.7505 0.375 32.1755 0.375 32.1755C0.375 32.1755 4.5855 35.623 8.9745 35.8978C12.45 36.1165 15.1083 34.4593 18.2757 33.4233C22.9325 31.899 26.17 31.7258 29.2185 31.717C34.2568 31.703 42.375 33.8678 42.375 33.8678C42.375 33.8678 38.6825 32.0408 33.5672 30.8578C31.7736 30.455 29.9403 30.2537 28.102 30.261Z" fill="white"/>
</g>
<defs>
<clipPath id="clip0_2_6606">
<rect width="42" height="42" fill="white" transform="translate(0.375)"/>
</clipPath>
</defs>
</svg>
