<svg width="43" height="42" viewBox="0 0 43 42" fill="none" xmlns="http://www.w3.org/2000/svg">
<g clip-path="url(#clip0_2_6610)">
<path d="M23.797 0.172922C12.296 -1.30233 1.7732 6.82467 0.297953 18.3274C-1.1773 29.8284 6.94795 40.3494 18.4507 41.8264C29.9535 43.3017 40.478 35.1747 41.9497 23.6719C43.4267 12.1709 35.3015 1.64992 23.797 0.172922ZM28.1212 13.2717C27.7317 13.2777 27.3597 13.4345 27.0835 13.7092L19.2907 21.5019L18.7535 20.9647L17.6282 19.8394C25.309 12.1814 26.6932 12.1079 28.1212 13.2717ZM19.611 21.7784L27.381 14.0084C27.4828 13.9016 27.6054 13.8167 27.7411 13.7589C27.8769 13.7011 28.0231 13.6716 28.1707 13.6722C28.3182 13.6728 28.4641 13.7035 28.5994 13.7624C28.7347 13.8213 28.8566 13.9072 28.9576 14.0149C29.0585 14.1225 29.1365 14.2496 29.1866 14.3884C29.2368 14.5272 29.2581 14.6748 29.2493 14.8221C29.2404 14.9694 29.2016 15.1134 29.1353 15.2452C29.0689 15.377 28.9763 15.4939 28.8632 15.5887L20.64 22.8074L19.611 21.7784ZM20.1885 22.9929L18.2635 23.4094C18.2405 23.4146 18.2164 23.4119 18.1951 23.4017C18.1739 23.3916 18.1566 23.3746 18.1462 23.3534C18.1345 23.3332 18.1299 23.3097 18.133 23.2865C18.1362 23.2634 18.147 23.242 18.1637 23.2257L19.2925 22.0969L20.1885 22.9929ZM15.2832 22.1897L17.3342 20.1387L18.8725 21.6752L15.4092 22.4207C15.3803 22.4282 15.3498 22.4255 15.3227 22.413C15.2956 22.4006 15.2736 22.3792 15.2605 22.3524C15.2434 22.3273 15.2363 22.2967 15.2405 22.2667C15.2447 22.2366 15.2599 22.2092 15.2832 22.1897ZM8.9027 32.7912C8.88521 32.7896 8.86819 32.7847 8.85264 32.7765C8.83708 32.7684 8.82329 32.7572 8.81207 32.7437C8.80084 32.7302 8.7924 32.7146 8.78723 32.6978C8.78206 32.681 8.78027 32.6634 8.78195 32.6459C8.78761 32.6162 8.80088 32.5885 8.82045 32.5654H8.82395L10.4795 30.9099L12.618 33.0484L8.9027 32.7912ZM13.1465 30.5932C13.0675 30.6346 13.0046 30.7011 12.9675 30.7822C12.9305 30.8633 12.9214 30.9544 12.9417 31.0412L13.297 32.5549C13.3084 32.6016 13.3042 32.6507 13.285 32.6947C13.2658 32.7387 13.2326 32.7752 13.1906 32.7985C13.1486 32.8218 13.1001 32.8306 13.0526 32.8236C13.0051 32.8166 12.9612 32.7941 12.9277 32.7597H12.9225L11.288 31.1252L10.7735 30.6089L17.357 24.0324L20.542 23.3447L22.0715 24.8742C19.8752 26.8027 16.8722 28.7259 13.1465 30.5932ZM22.3847 24.5942H22.3812L20.913 23.1259L29.1362 15.9072C29.2119 15.8393 29.2816 15.7649 29.3445 15.6849C29.0855 18.0387 25.7937 21.3637 22.3847 24.5942ZM28.7845 13.2892L28.7792 13.2857C28.2006 12.7043 27.8683 11.9224 27.8514 11.1023C27.8344 10.2823 28.1341 9.48728 28.6882 8.88252C29.2422 8.27775 30.0081 7.90976 30.8264 7.85504C31.6448 7.80031 32.4528 8.06306 33.0825 8.58867L30.265 11.4114C30.2259 11.4508 30.2041 11.5039 30.2041 11.5593C30.2041 11.6147 30.2259 11.6678 30.265 11.7072L32.4472 13.8894C31.8505 14.1847 31.1763 14.2856 30.5194 14.178C29.8624 14.0703 29.2557 13.7595 28.7845 13.2892ZM33.296 13.2892C33.1513 13.4322 32.9924 13.5601 32.8217 13.6707L30.7077 11.5584L33.3905 8.87567C34.5472 10.1357 34.5052 12.0817 33.296 13.2892ZM33.121 10.5872C33.0783 10.6171 33.0462 10.6599 33.0296 10.7094C33.0129 10.7588 33.0124 10.8122 33.0282 10.8619C33.0897 10.9883 33.1136 11.1297 33.0971 11.2693C33.0807 11.4088 33.0246 11.5408 32.9355 11.6494C32.9154 11.6747 32.9005 11.7036 32.8917 11.7347C32.8829 11.7657 32.8803 11.7981 32.884 11.8302C32.8877 11.8622 32.8978 11.8932 32.9135 11.9213C32.9292 11.9495 32.9504 11.9742 32.9757 11.9942C33.0177 12.0272 33.0693 12.0457 33.1227 12.0467C33.1581 12.0464 33.193 12.0384 33.2251 12.0233C33.2571 12.0082 33.2854 11.9863 33.3082 11.9592C33.4587 11.7787 33.5533 11.5582 33.5803 11.3248C33.6074 11.0913 33.5657 10.855 33.4605 10.6449C33.4228 10.5926 33.3661 10.5571 33.3026 10.5463C33.239 10.5355 33.1738 10.5502 33.121 10.5872Z" fill="white"/>
</g>
<defs>
<clipPath id="clip0_2_6610">
<rect width="42" height="42" fill="white" transform="translate(0.125)"/>
</clipPath>
</defs>
</svg>
