<svg width="43" height="43" viewBox="0 0 43 43" fill="none" xmlns="http://www.w3.org/2000/svg">
<rect x="1" y="0.874023" width="41" height="41" stroke="black"/>
<path d="M4.26099 29.739H7.00849C7.06784 29.7396 7.12539 29.7187 7.17045 29.6801C7.21551 29.6414 7.24502 29.5878 7.25349 29.529L7.86599 26.344H10.001C10.8947 26.3658 11.7863 26.2477 12.6435 25.994C13.3377 25.7638 13.9715 25.3811 14.4985 24.874C14.9709 24.4484 15.3675 23.9453 15.671 23.3865C15.9714 22.8398 16.184 22.2493 16.301 21.6365C16.4869 20.9944 16.5188 20.3175 16.3942 19.6607C16.2695 19.004 15.9918 18.3859 15.5835 17.8565C15.1104 17.3758 14.5379 17.0045 13.906 16.7687C13.2741 16.5329 12.5983 16.4383 11.926 16.4915H6.67599C6.61302 16.4944 6.55284 16.5184 6.5052 16.5597C6.45756 16.6009 6.42525 16.6571 6.41349 16.719L3.99849 29.424C3.97316 29.4977 3.97316 29.5778 3.99849 29.6515C4.03189 29.6863 4.07322 29.7124 4.11895 29.7277C4.16468 29.7429 4.21342 29.7468 4.26099 29.739ZM9.24849 18.959H10.9985C11.3314 18.9143 11.6699 18.9361 11.9944 19.0233C12.3188 19.1104 12.6227 19.261 12.8885 19.4665C13.186 19.7815 13.2385 20.3765 13.081 21.2165C12.9948 21.9685 12.6407 22.6643 12.0835 23.1765C11.3904 23.6154 10.5738 23.818 9.75599 23.754H8.35599L9.24849 18.959ZM26.3985 17.2965C25.4511 16.6 24.278 16.2818 23.1085 16.404H21.026L21.6035 13.324C21.6206 13.2885 21.6294 13.2497 21.6294 13.2103C21.6294 13.1709 21.6206 13.132 21.6035 13.0965C21.5413 13.0738 21.4731 13.0738 21.411 13.0965H18.6635C18.6041 13.0959 18.5466 13.1169 18.5015 13.1555C18.4565 13.1941 18.427 13.2478 18.4185 13.3065L16.0035 26.029C15.9866 26.0615 15.9778 26.0975 15.9778 26.134C15.9778 26.1706 15.9866 26.2066 16.0035 26.239C16.0241 26.2713 16.0526 26.2979 16.0863 26.3163C16.1199 26.3346 16.1577 26.3442 16.196 26.344H18.891C18.953 26.3442 19.0129 26.3208 19.0583 26.2786C19.1038 26.2363 19.1316 26.1784 19.136 26.1165L20.4835 18.994H22.426C23.2135 18.994 23.4935 19.169 23.581 19.274C23.6532 19.4458 23.6904 19.6302 23.6904 19.8165C23.6904 20.0028 23.6532 20.1873 23.581 20.359L22.5135 26.029C22.4966 26.0615 22.4878 26.0975 22.4878 26.134C22.4878 26.1706 22.4966 26.2066 22.5135 26.239C22.5352 26.2703 22.5639 26.296 22.5973 26.3143C22.6308 26.3325 22.668 26.3427 22.706 26.344H25.436C25.499 26.3412 25.5591 26.3172 25.6068 26.2759C25.6544 26.2346 25.6867 26.1785 25.6985 26.1165L26.8185 20.1665C26.9992 19.6921 27.0555 19.1792 26.982 18.6769C26.9084 18.1745 26.7076 17.6993 26.3985 17.2965ZM34.3085 16.404H28.831C28.7988 16.4016 28.7665 16.4057 28.7358 16.4158C28.7052 16.426 28.6768 16.4421 28.6525 16.4632C28.6281 16.4844 28.6081 16.5101 28.5937 16.539C28.5793 16.5679 28.5707 16.5993 28.5685 16.6315L26.0135 29.424C25.9976 29.4598 25.9893 29.4986 25.9893 29.5378C25.9893 29.577 25.9976 29.6157 26.0135 29.6515C26.037 29.6796 26.0665 29.702 26.0998 29.7171C26.1331 29.7323 26.1694 29.7397 26.206 29.739H29.0585C29.1208 29.7441 29.1826 29.7252 29.2314 29.6862C29.2802 29.6471 29.3123 29.5909 29.321 29.529L29.9685 26.344H32.191C33.1133 26.3638 34.0335 26.2458 34.921 25.994C35.6851 25.7815 36.3911 25.3986 36.986 24.874C37.4748 24.4503 37.8888 23.9475 38.211 23.3865C38.5149 22.8397 38.7333 22.2495 38.8585 21.6365C39.0492 20.9938 39.082 20.3146 38.9541 19.6565C38.8261 18.9984 38.5412 18.3809 38.1235 17.8565C37.6294 17.3544 37.0328 16.9647 36.3744 16.7141C35.7161 16.4634 35.0114 16.3577 34.3085 16.404ZM35.3935 21.2515C35.2888 22.0093 34.9163 22.7046 34.3435 23.2115C33.6254 23.6524 32.7861 23.8545 31.946 23.789H30.546L31.491 18.959H33.241C33.9405 18.8733 34.6467 19.0545 35.2185 19.4665C35.4985 19.7815 35.4985 20.3765 35.3935 21.2515Z" fill="white"/>
</svg>
