<svg width="43" height="43" viewBox="0 0 43 43" fill="none" xmlns="http://www.w3.org/2000/svg">
<path d="M21.5 18.4405C23.3025 18.4405 24.7725 19.9105 24.7725 21.748C24.7725 23.498 23.3025 24.9855 21.5 24.9855C19.6975 24.9855 18.2275 23.498 18.2275 21.748C18.2275 19.9105 19.6975 18.4405 21.5 18.4405ZM13.3975 35.748C14.5 36.413 16.915 35.398 19.6975 32.773C18.7875 31.7405 17.895 30.6205 17.055 29.448C15.6449 29.3121 14.2429 29.1018 12.855 28.818C11.9625 32.563 12.295 35.1355 13.3975 35.748ZM14.64 25.703L14.1325 24.8105C13.94 25.318 13.7475 25.8255 13.625 26.3155C14.0975 26.4205 14.6225 26.508 15.165 26.5955L14.64 25.703ZM26.085 24.373L27.5025 21.748L26.085 19.123C25.56 18.1955 25 17.373 24.4925 16.5505C23.5475 16.498 22.55 16.498 21.5 16.498C20.45 16.498 19.4525 16.498 18.5075 16.5505C18 17.373 17.44 18.1955 16.915 19.123L15.4975 21.748L16.915 24.373C17.44 25.3005 18 26.123 18.5075 26.9455C19.4525 26.998 20.45 26.998 21.5 26.998C22.55 26.998 23.5475 26.998 24.4925 26.9455C25 26.123 25.56 25.3005 26.085 24.373ZM21.5 12.613C21.1675 12.998 20.8175 13.4005 20.4675 13.873H22.5325C22.1825 13.4005 21.8325 12.998 21.5 12.613ZM21.5 30.883C21.8325 30.498 22.1825 30.0955 22.5325 29.623H20.4675C20.8175 30.0955 21.1675 30.498 21.5 30.883ZM29.585 7.74802C28.5 7.08302 26.085 8.09802 23.3025 10.723C24.2125 11.7555 25.105 12.8755 25.945 14.048C27.38 14.188 28.7975 14.398 30.145 14.678C31.0375 10.933 30.705 8.36052 29.585 7.74802ZM28.36 17.793L28.8675 18.6855C29.06 18.178 29.2525 17.6705 29.375 17.1805C28.9025 17.0755 28.3775 16.988 27.835 16.9005L28.36 17.793ZM30.8975 5.45552C33.47 6.92552 33.75 10.793 32.665 15.308C37.11 16.6205 40.3125 18.7905 40.3125 21.748C40.3125 24.7055 37.11 26.8755 32.665 28.188C33.75 32.703 33.47 36.5705 30.8975 38.0405C28.3425 39.5105 24.86 37.8305 21.5 34.628C18.14 37.8305 14.6575 39.5105 12.085 38.0405C9.53 36.5705 9.25 32.703 10.335 28.188C5.89 26.8755 2.6875 24.7055 2.6875 21.748C2.6875 18.7905 5.89 16.6205 10.335 15.308C9.25 10.793 9.53 6.92552 12.085 5.45552C14.6575 3.98552 18.14 5.66552 21.5 8.86802C24.86 5.66552 28.3425 3.98552 30.8975 5.45552ZM30.39 21.748C30.985 23.0605 31.51 24.373 31.9475 25.703C35.6225 24.6005 37.6875 23.0255 37.6875 21.748C37.6875 20.4705 35.6225 18.8955 31.9475 17.793C31.51 19.123 30.985 20.4355 30.39 21.748ZM12.61 21.748C12.015 20.4355 11.49 19.123 11.0525 17.793C7.3775 18.8955 5.3125 20.4705 5.3125 21.748C5.3125 23.0255 7.3775 24.6005 11.0525 25.703C11.49 24.373 12.015 23.0605 12.61 21.748ZM28.36 25.703L27.835 26.5955C28.3775 26.508 28.9025 26.4205 29.375 26.3155C29.2525 25.8255 29.06 25.318 28.8675 24.8105L28.36 25.703ZM23.3025 32.773C26.085 35.398 28.5 36.413 29.585 35.748C30.705 35.1355 31.0375 32.563 30.145 28.818C28.7975 29.098 27.38 29.308 25.945 29.448C25.105 30.6205 24.2125 31.7405 23.3025 32.773ZM14.64 17.793L15.165 16.9005C14.6225 16.988 14.0975 17.0755 13.625 17.1805C13.7475 17.6705 13.94 18.178 14.1325 18.6855L14.64 17.793ZM19.6975 10.723C16.915 8.09802 14.5 7.08302 13.3975 7.74802C12.295 8.36052 11.9625 10.933 12.855 14.678C14.2429 14.3943 15.6449 14.184 17.055 14.048C17.895 12.8755 18.7875 11.7555 19.6975 10.723Z" fill="white"/>
</svg>
