<svg width="43" height="43" viewBox="0 0 43 43" fill="none" xmlns="http://www.w3.org/2000/svg">
<path d="M25.4333 5.74805C25.4333 5.74805 33.4354 10.4333 35.529 17.8881C37.4173 24.6129 35.9032 27.8211 35.9032 27.8211C35.9032 27.8211 37.0288 28.891 38.1465 31.4991C39.8167 35.398 38.5207 37.3843 38.5207 37.3843C38.5207 37.3843 38.3981 34.643 34.4082 34.0744C30.7526 33.5527 29.4216 37.1932 22.4432 37.0178C18.4247 36.9159 10.0516 35.94 3 25.982C6.42151 27.8978 10.8922 30.8459 16.46 30.3963C22.0277 29.9468 23.1899 28.1892 23.1899 28.1892C23.1899 28.1892 12.5258 19.6676 6.73835 10.532C11.104 14.2931 21.9465 21.7573 21.6933 21.5677C18.3849 19.0692 10.8509 8.69299 10.8509 8.69299C10.8509 8.69299 27.1162 22.3792 28.4233 22.304C28.9615 21.1683 31.7445 15.2909 25.4333 5.74805Z" fill="white"/>
</svg>
