<svg width="43" height="43" viewBox="0 0 43 43" fill="none" xmlns="http://www.w3.org/2000/svg">
<g clip-path="url(#clip0_2_4818)">
<path d="M19.7508 0.625977L2.78345 10.4221V30.0129L9.28853 26.2558V18.579C9.29148 18.4471 9.36235 18.326 9.47654 18.2617C9.53264 18.2288 9.59639 18.2113 9.66142 18.2108C9.72644 18.2104 9.79044 18.227 9.84699 18.2591L17.7505 22.82C17.8636 22.8858 17.9575 22.9802 18.0227 23.0936C18.0879 23.207 18.1223 23.3356 18.1223 23.4664V32.5883C18.1214 32.6533 18.1039 32.7169 18.0715 32.7732C18.039 32.8295 17.9927 32.8765 17.9369 32.9099C17.8811 32.9426 17.8177 32.9603 17.753 32.9609C17.6883 32.9616 17.6246 32.9454 17.5681 32.9138L10.917 29.0688L4.40963 32.8291L21.3724 42.626L38.3371 32.8295L31.8347 29.0692L25.1865 32.9092C25.1299 32.9404 25.0663 32.9565 25.0018 32.956C24.9372 32.9556 24.8738 32.9385 24.8177 32.9066C24.7617 32.8737 24.7151 32.827 24.6825 32.7709C24.6498 32.7148 24.6322 32.6512 24.6313 32.5863V23.4661C24.6313 23.197 24.7704 22.9542 25.0031 22.8204L32.9024 18.2584C32.9586 18.2263 33.0224 18.2097 33.0871 18.2101C33.1519 18.2106 33.2154 18.2282 33.2712 18.2611C33.3867 18.3254 33.4589 18.4464 33.4599 18.5784V26.2552L39.9666 30.0135V10.4221H39.9636L23.0028 0.625977V8.14004L29.6507 11.9778C29.7645 12.0447 29.8328 12.1671 29.8328 12.3007C29.8328 12.4329 29.7632 12.5543 29.6507 12.6209L21.7484 17.1858C21.6349 17.2502 21.5065 17.2841 21.376 17.2841C21.2454 17.2841 21.1171 17.2502 21.0036 17.1858L13.1036 12.6209C13.0475 12.5885 13.0009 12.5418 12.9686 12.4855C12.9363 12.4293 12.9195 12.3655 12.9199 12.3007C12.9194 12.2354 12.9361 12.1712 12.9684 12.1146C13.0007 12.0579 13.0473 12.0107 13.1036 11.9778L19.7505 8.14004L19.7508 0.625977Z" fill="white"/>
</g>
<defs>
<clipPath id="clip0_2_4818">
<rect width="42" height="42" fill="white" transform="translate(0.375 0.625977)"/>
</clipPath>
</defs>
</svg>
