<svg width="43" height="42" viewBox="0 0 43 42" fill="none" xmlns="http://www.w3.org/2000/svg">
<path d="M37.6326 7.17497L30.4226 3.67497C30.1551 3.56768 29.8707 3.50844 29.5826 3.49997H29.4426C28.9878 3.4974 28.5449 3.64504 28.1826 3.91997L27.9376 4.12997L14.1476 16.7125L8.14512 12.25C7.87472 12.0431 7.54026 11.9378 7.20012 11.9525C6.86691 11.9487 6.54146 12.0531 6.27262 12.25L4.34762 14C4.19669 14.1334 4.07635 14.2979 3.9948 14.4821C3.91325 14.6664 3.87243 14.866 3.87512 15.0675C3.8744 15.2712 3.91603 15.4728 3.99737 15.6596C4.07871 15.8464 4.19798 16.0142 4.34762 16.1525L9.59762 20.895L4.34762 25.655C4.19975 25.7925 4.08182 25.9591 4.00118 26.1443C3.92054 26.3295 3.87892 26.5293 3.87892 26.7312C3.87892 26.9332 3.92054 27.133 4.00118 27.3182C4.08182 27.5033 4.19975 27.6699 4.34762 27.8075L6.27262 29.5575C6.56374 29.8099 6.93731 29.9469 7.32262 29.9425C7.6188 29.9202 7.90324 29.8173 8.14512 29.645L14.1476 25.0775L27.9376 37.66C28.2905 38.0235 28.7628 38.2473 29.2676 38.29H29.5651C29.8642 38.2944 30.1594 38.2221 30.4226 38.08L37.6326 34.58C37.9974 34.4053 38.3067 34.133 38.5261 33.7932C38.7454 33.4533 38.8662 33.0593 38.8751 32.655V9.15247C38.8739 8.73958 38.7568 8.33532 38.5372 7.98572C38.3175 7.63611 38.0041 7.3552 37.6326 7.17497ZM30.1251 28.8225L19.6251 20.895L30.1251 12.9675V28.8225Z" fill="white"/>
</svg>
