<svg width="27" height="27" viewBox="0 0 27 27" fill="none" xmlns="http://www.w3.org/2000/svg">
<g clip-path="url(#clip0_2_6577)">
<path d="M5.13001 2.37305H1.25026C1.0963 2.373 0.945053 2.41358 0.811792 2.49068C0.678531 2.56779 0.567974 2.67869 0.491283 2.81219C0.414592 2.94569 0.374482 3.09706 0.375005 3.25102C0.375528 3.40498 0.416664 3.55607 0.494259 3.68905L12.7443 24.689C12.8213 24.8212 12.9316 24.9309 13.0643 25.0071C13.1969 25.0834 13.3473 25.1235 13.5003 25.1235C13.6533 25.1235 13.8036 25.0834 13.9362 25.0071C14.0689 24.9309 14.1792 24.8212 14.2563 24.689L26.5063 3.68905C26.5839 3.55607 26.625 3.40498 26.6255 3.25102C26.626 3.09706 26.5859 2.94569 26.5092 2.81219C26.4325 2.67869 26.322 2.56779 26.1887 2.49068C26.0555 2.41358 25.9042 2.373 25.7503 2.37305H21.8705L13.5003 16.324L5.13001 2.37305Z" fill="white"/>
<path d="M19.8294 2.37305H14.7072L13.4997 4.79155L12.2904 2.37305H7.16992L13.4997 12.922L19.8294 2.37305Z" fill="white"/>
</g>
<defs>
<clipPath id="clip0_2_6577">
<rect width="26.25" height="26.25" fill="white" transform="translate(0.375 0.623047)"/>
</clipPath>
</defs>
</svg>
