<svg width="43" height="42" viewBox="0 0 43 42" fill="none" xmlns="http://www.w3.org/2000/svg">
<g clip-path="url(#clip0_2533_51401)">
<g clip-path="url(#clip1_2533_51401)">
<path d="M33.3546 9.3328C34.1456 8.9933 34.7091 8.8813 35.2744 8.9933C36.1774 9.2208 36.6289 9.8963 36.9684 10.2358C37.3079 10.9131 38.5486 11.5903 39.1139 11.7041C39.5654 11.8161 40.3564 10.5753 40.9216 9.44655C41.4851 8.42805 41.8246 7.07355 41.7109 6.73405C41.5989 6.3963 40.0169 5.71905 39.6791 5.71905C39.4516 5.71905 39.0001 5.9448 38.2091 5.83105C37.4216 5.71905 36.6289 4.81605 36.1791 4.13705C35.3864 3.0083 34.2576 2.33105 33.2409 1.7658C32.1122 1.20055 30.8696 0.862803 29.6271 0.637053C27.8211 0.183803 26.0134 -0.153947 24.2074 0.070053C23.1924 0.182053 21.9499 0.295803 21.0451 0.635303C20.9314 0.635303 20.7057 0.973053 20.9314 0.973053C21.1572 0.973053 21.9481 1.0868 21.9481 1.0868C21.9481 1.0868 20.9331 1.31255 20.9331 1.5383C20.9331 1.7658 21.0451 1.7658 21.1589 1.7658C21.2709 1.7658 23.7559 1.65205 24.7726 1.7658C25.9014 1.9898 27.1439 2.5533 27.9349 3.90955C29.2894 6.39455 28.7241 8.7658 28.3864 9.5568C26.6924 13.2843 13.2524 36.2093 12.5752 37.7895C11.8979 39.3698 11.6722 40.3866 13.5919 41.4033C15.5117 42.42 16.5284 41.9668 17.0919 41.2895C17.7709 40.3865 29.4014 11.2508 33.3546 9.33105M27.0301 24.5753H29.7409C31.5469 24.5753 31.8864 25.4801 31.8864 25.8178C32.0002 26.7208 31.5469 27.8513 29.7409 27.8513H28.0469L29.4014 30.1088C30.1924 31.465 29.8529 32.1423 29.4014 32.5938C28.7241 33.271 27.2559 33.271 26.4666 31.8028L24.8846 29.0938C23.7559 31.5788 22.6271 34.2878 21.2709 37.45H28.2726C31.6606 37.45 34.4851 34.6273 34.4851 31.2376V11.4801C34.3714 11.2526 34.1456 11.3663 34.0319 11.4801C33.3546 12.2693 31.4349 14.9801 27.0319 24.5788M9.8679 38.5823H9.30265C8.33815 38.5844 7.38273 38.396 6.49123 38.0279C5.59972 37.6598 4.78968 37.1193 4.10759 36.4373C3.42551 35.7554 2.8848 34.9455 2.5165 34.0541C2.1482 33.1627 1.95956 32.2073 1.9614 31.2428V12.2676C1.95933 11.3029 2.1478 10.3473 2.51599 9.45572C2.88419 8.5641 3.42486 7.75399 4.10697 7.07188C4.78909 6.38976 5.5992 5.84909 6.49082 5.48089C7.38244 5.1127 8.338 4.92423 9.30265 4.9263H25.6774C25.3379 4.5868 23.9834 4.0233 22.6289 4.1353C22.0636 4.1353 20.9349 4.3628 20.2559 3.90955C19.5786 3.34605 19.6924 3.00655 18.6756 3.00655H8.62365C7.52529 3.00378 6.4372 3.21808 5.42191 3.63713C4.40662 4.05617 3.48414 4.67171 2.70748 5.44838C1.93081 6.22504 1.31527 7.14752 0.896224 8.16281C0.477177 9.1781 0.262881 10.2662 0.265652 11.3646V31.92C0.265652 36.5505 3.99315 40.2763 8.0584 40.1626C9.18715 40.1626 9.52665 39.2596 9.8644 38.5823M35.7241 12.1573V31.2428C35.726 32.2072 35.5374 33.1624 35.1692 34.0537C34.801 34.945 34.2605 35.7548 33.5786 36.4367C32.8967 37.1186 32.0868 37.6592 31.1955 38.0274C30.3042 38.3956 29.349 38.5841 28.3846 38.5823H20.8176C20.8176 38.5823 20.1404 40.39 22.2859 40.39H29.0619C30.1601 40.3926 31.248 40.1781 32.2631 39.759C33.2782 39.3398 34.2005 38.7242 34.9769 37.9476C35.7534 37.171 36.3688 36.2486 36.7877 35.2334C37.2067 34.2182 37.4209 33.1303 37.4181 32.0321V15.4298C37.5319 13.8496 36.1756 12.8346 35.7241 12.1573ZM3.20215 12.2676V31.2376C3.20215 34.6273 6.0249 37.45 9.41465 37.45H10.4297C10.4297 37.338 11.7842 34.965 14.7206 29.995C15.0601 29.3195 15.5116 28.6423 15.9631 27.8513H7.72065C6.7039 27.8513 6.13865 27.1741 6.0249 26.6088C5.79915 25.7058 6.3644 24.5753 7.6069 24.5753H11.7842L17.0936 15.3161C17.0936 15.3161 15.8512 13.0586 15.5117 12.4933C15.0602 11.7023 15.2859 10.9113 15.7392 10.4598C16.4146 9.78255 17.5451 9.4448 18.6739 11.2508L19.1254 11.9281L19.5769 11.2508C20.5919 9.7808 21.2709 9.89455 21.8344 10.0083C22.7391 10.2341 23.3044 11.2508 22.5134 12.8311L15.5117 24.5753H17.8829C18.6739 23.2208 19.4649 21.8663 20.2542 20.3981C20.1422 19.8328 20.0284 19.1556 20.1422 18.5903C20.2542 17.6873 20.7074 16.8963 21.2709 16.2191L21.9481 17.3478C24.0954 13.6203 25.6756 10.4598 26.1271 9.2173C26.3547 8.54005 26.6924 7.1838 26.3547 6.05505H9.41465C8.59817 6.05274 7.78928 6.21186 7.0345 6.52325C6.27972 6.83464 5.59394 7.29216 5.0166 7.8695C4.43926 8.44685 3.98173 9.13262 3.67035 9.8874C3.35896 10.6422 3.19984 11.4511 3.20215 12.2676ZM8.0584 31.1255C8.0584 31.0135 9.4129 28.6405 9.4129 28.6405C11.5602 28.077 12.5752 29.4315 12.6889 29.5453C12.6889 29.5453 11.2189 32.1423 10.7692 32.5938C10.3194 33.0453 9.7524 33.159 9.18715 33.0453C8.28415 32.8195 7.7189 31.9165 8.0584 31.1255Z" fill="white"/>
</g>
</g>
<defs>
<clipPath id="clip0_2533_51401">
<rect width="42.6885" height="42" fill="white" transform="translate(0.03125)"/>
</clipPath>
<clipPath id="clip1_2533_51401">
<rect width="42" height="42" fill="white"/>
</clipPath>
</defs>
</svg>
