<svg width="20" height="25" viewBox="0 0 20 25" fill="none" xmlns="http://www.w3.org/2000/svg">
<path d="M3.80614 19.0731C3.8037 19.2127 3.77142 19.3502 3.71146 19.4764C3.65151 19.6025 3.56526 19.7144 3.45851 19.8045C3.35175 19.8947 3.22695 19.961 3.09246 19.999C2.95797 20.037 2.8169 20.0459 2.67871 20.025H2.11499C2.07044 20.0317 2.02495 20.0285 1.98181 20.0155C1.93867 20.0025 1.89894 19.9801 1.8655 19.9499C1.83207 19.9198 1.80575 19.8826 1.78845 19.841C1.77116 19.7994 1.76332 19.7545 1.76549 19.7096V18.1156C1.76347 18.0704 1.77137 18.0254 1.78862 17.9836C1.80588 17.9418 1.83208 17.9043 1.86539 17.8737C1.89869 17.8431 1.93829 17.8202 1.98141 17.8065C2.02453 17.7928 2.07013 17.7888 2.11499 17.7946H2.67871C2.81722 17.7746 2.95841 17.7842 3.09289 17.8229C3.22738 17.8616 3.35208 17.9285 3.45871 18.0191C3.56535 18.1096 3.65147 18.2218 3.71138 18.3482C3.77128 18.4746 3.80358 18.6122 3.80614 18.7521V19.0731ZM2.49832 18.369V19.4505H2.7069C2.75738 19.4528 2.80781 19.4447 2.85501 19.4267C2.90221 19.4086 2.94516 19.381 2.98116 19.3456C3.01717 19.3101 3.04544 19.2676 3.06421 19.2207C3.08298 19.1739 3.09183 19.1236 3.09022 19.0731V18.7521C3.09179 18.7013 3.08294 18.6508 3.06423 18.6037C3.04552 18.5565 3.01734 18.5136 2.98142 18.4778C2.94551 18.4419 2.90263 18.4137 2.85542 18.395C2.8082 18.3763 2.75766 18.3675 2.7069 18.369H2.49832Z" fill="#414142"/>
<path d="M4.13232 19.1689V18.0818C4.14319 17.9961 4.18498 17.9173 4.24986 17.8602C4.31473 17.8031 4.39819 17.7716 4.48466 17.7716C4.57111 17.7716 4.6546 17.8031 4.71947 17.8602C4.78431 17.9173 4.82611 17.9961 4.83697 18.0818V19.1689C4.83091 19.2142 4.83463 19.2604 4.84787 19.3041C4.86111 19.3479 4.88357 19.3884 4.91373 19.4228C4.94389 19.4572 4.98104 19.4848 5.02274 19.5037C5.06444 19.5226 5.1097 19.5324 5.15547 19.5324C5.20127 19.5324 5.24652 19.5226 5.28822 19.5037C5.32992 19.4848 5.36707 19.4572 5.39723 19.4228C5.42739 19.3884 5.44982 19.3479 5.46306 19.3041C5.4763 19.2604 5.48002 19.2142 5.47399 19.1689V18.0818C5.48486 17.9961 5.52662 17.9173 5.59149 17.8602C5.65636 17.8031 5.73986 17.7716 5.8263 17.7716C5.91274 17.7716 5.99623 17.8031 6.06111 17.8602C6.12598 17.9173 6.16774 17.9961 6.17861 18.0818V19.1689C6.15944 19.4269 6.04332 19.6681 5.85354 19.8442C5.6638 20.0202 5.41444 20.118 5.15547 20.118C4.89652 20.118 4.64716 20.0202 4.45739 19.8442C4.26764 19.6681 4.15152 19.4269 4.13232 19.1689Z" fill="#414142"/>
<path d="M6.51758 18.6902C6.51851 18.5555 6.54751 18.4224 6.60283 18.2995C6.65812 18.1766 6.73848 18.0666 6.83873 17.9765C6.93902 17.8864 7.057 17.8181 7.18514 17.7762C7.31332 17.7342 7.4488 17.7194 7.58303 17.7327C8.14671 17.7327 8.46242 18.0481 8.46242 18.296C8.46242 18.5438 8.34966 18.5832 8.1129 18.5832C7.87614 18.5832 7.8254 18.3579 7.58303 18.3579C7.5362 18.3563 7.48957 18.3644 7.44604 18.3818C7.40251 18.3991 7.36309 18.4252 7.33024 18.4586C7.29739 18.492 7.27181 18.5318 7.25517 18.5755C7.23851 18.6193 7.23114 18.666 7.23351 18.7127V19.1408C7.23107 19.1873 7.23844 19.2338 7.25514 19.2773C7.27184 19.3208 7.29751 19.3602 7.33046 19.3932C7.36341 19.4261 7.40293 19.4517 7.44642 19.4684C7.48995 19.4851 7.53649 19.4925 7.58303 19.49C7.85924 19.49 7.88742 19.2704 8.14671 19.2704C8.40604 19.2704 8.49623 19.3774 8.49623 19.552C8.49623 19.7266 8.17492 20.1152 7.58303 20.1152C7.4488 20.1286 7.31332 20.1137 7.18514 20.0718C7.057 20.0298 6.93902 19.9616 6.83873 19.8715C6.73848 19.7814 6.65812 19.6713 6.60283 19.5485C6.54751 19.4255 6.51851 19.2925 6.51758 19.1577V18.6902Z" fill="#414142"/>
<path d="M9.43756 19.3716V19.7377C9.42666 19.8234 9.3849 19.9023 9.32003 19.9594C9.25515 20.0165 9.17169 20.048 9.08522 20.048C8.99878 20.048 8.91528 20.0165 8.85041 19.9594C8.78554 19.9023 8.74378 19.8234 8.73291 19.7377V18.0818C8.74378 17.9961 8.78554 17.9173 8.85041 17.8602C8.91528 17.8031 8.99878 17.7716 9.08522 17.7716C9.17169 17.7716 9.25515 17.8031 9.32003 17.8602C9.3849 17.9173 9.42666 17.9961 9.43756 18.0818V18.5268L10.1366 17.8565C10.2079 17.7977 10.2977 17.7658 10.3902 17.7664C10.4328 17.7631 10.4755 17.7689 10.5156 17.7836C10.5557 17.7982 10.5922 17.8212 10.6227 17.8511C10.6531 17.881 10.6768 17.917 10.6921 17.9568C10.7075 17.9966 10.7141 18.0392 10.7115 18.0818C10.7093 18.1309 10.6966 18.1789 10.6742 18.2226C10.6519 18.2663 10.6204 18.3048 10.5819 18.3353L10.1366 18.769L10.7003 19.4505C10.7678 19.5333 10.8125 19.6323 10.8299 19.7377C10.831 19.7826 10.8224 19.8273 10.8049 19.8686C10.7873 19.9099 10.7611 19.947 10.728 19.9774C10.6949 20.0078 10.6557 20.0308 10.613 20.0448C10.5703 20.0589 10.5251 20.0636 10.4804 20.0588C10.3621 20.0483 10.2528 19.9916 10.176 19.9011L9.6123 19.214L9.43756 19.3716Z" fill="#414142"/>
<path d="M13.3775 19.3886C13.4208 19.3855 13.4643 19.3913 13.5052 19.4058C13.5462 19.4203 13.5837 19.443 13.6154 19.4726C13.6472 19.5022 13.6725 19.538 13.6897 19.5778C13.707 19.6177 13.7158 19.6606 13.7157 19.704C13.7169 19.7487 13.7084 19.7931 13.6907 19.8342C13.6731 19.8753 13.6468 19.9121 13.6136 19.942C13.5804 19.972 13.5411 19.9945 13.4984 20.0078C13.4557 20.0212 13.4106 20.0251 13.3662 20.0194H12.2388C12.1944 20.0251 12.1493 20.0212 12.1066 20.0078C12.0639 19.9945 12.0246 19.972 11.9914 19.942C11.9582 19.9121 11.9319 19.8753 11.9142 19.8342C11.8966 19.7931 11.8881 19.7487 11.8893 19.704V18.0762C11.9002 17.9905 11.9419 17.9117 12.0068 17.8546C12.0717 17.7975 12.1551 17.766 12.2416 17.766C12.328 17.766 12.4115 17.7975 12.4764 17.8546C12.5413 17.9117 12.583 17.9905 12.5939 18.0762V19.3829L13.3775 19.3886Z" fill="#A6A8AC"/>
<path d="M14.5727 19.7378C14.549 19.8239 14.4996 19.9007 14.4311 19.958C14.3627 20.0154 14.2783 20.0505 14.1893 20.0588C14.145 20.0619 14.1005 20.0559 14.0586 20.0412C14.0167 20.0265 13.9782 20.0035 13.9455 19.9734C13.9128 19.9434 13.8865 19.907 13.8684 19.8664C13.8502 19.8259 13.8405 19.7822 13.8398 19.7378C13.8533 19.6389 13.8798 19.5423 13.9188 19.4505L14.4261 18.1156C14.4599 17.9957 14.535 17.8916 14.6381 17.8215C14.7413 17.7515 14.8658 17.72 14.9898 17.7326C15.114 17.7189 15.2391 17.7498 15.3425 17.8201C15.4458 17.8903 15.5207 17.9951 15.5535 18.1156L16.0665 19.4505C16.1054 19.5423 16.132 19.6389 16.1454 19.7378C16.144 19.7819 16.1338 19.8253 16.1153 19.8655C16.0969 19.9056 16.0706 19.9417 16.0381 19.9716C16.0056 20.0015 15.9674 20.0246 15.9258 20.0396C15.8842 20.0545 15.8401 20.0611 15.7959 20.0588C15.707 20.0505 15.6226 20.0154 15.5541 19.958C15.4856 19.9007 15.4363 19.8239 15.4126 19.7378L15.3337 19.5463H14.6516L14.5727 19.7378ZM15.1758 18.9774L15.0011 18.4986H14.9672L14.7925 18.9774H15.1758Z" fill="#A6A8AC"/>
<path d="M17.3291 17.7945C17.9999 17.7945 18.2536 18.048 18.2536 18.3578C18.2476 18.4567 18.2106 18.5512 18.1479 18.6281C18.0852 18.7049 17.9999 18.76 17.9041 18.7858V18.8196C17.9041 18.8196 18.3833 18.9154 18.3833 19.3434C18.3833 19.7715 18.0958 19.9968 17.4249 19.9968H16.6921C16.6476 20.0035 16.6021 20.0003 16.559 19.9873C16.5158 19.9743 16.4761 19.9519 16.4426 19.9218C16.4092 19.8916 16.3829 19.8544 16.3656 19.8128C16.3483 19.7712 16.3405 19.7264 16.3426 19.6814V18.0874C16.3406 18.0423 16.3485 17.9972 16.3658 17.9554C16.383 17.9136 16.4092 17.8761 16.4425 17.8455C16.4758 17.8149 16.5154 17.792 16.5585 17.7783C16.6017 17.7646 16.6473 17.7606 16.6921 17.7664L17.3291 17.7945ZM17.0416 18.6225H17.3291C17.4588 18.6225 17.5208 18.5605 17.5208 18.4817C17.5208 18.4028 17.4588 18.3352 17.3291 18.3352H17.0416V18.6225ZM17.0416 19.4842H17.4249C17.5715 19.4842 17.6505 19.4054 17.6505 19.3096C17.6505 19.2139 17.5715 19.135 17.4249 19.135H17.0416V19.4842Z" fill="#A6A8AC"/>
<path d="M15.3114 4.63159C15.6173 4.75621 15.9372 4.84319 16.2641 4.89069C16.6418 4.91884 17.2844 4.55275 17.4648 4.89069C17.6452 5.22861 16.9857 5.75243 16.2641 6.01717C15.863 6.1565 15.4467 6.24726 15.0239 6.28752" fill="#343433"/>
<path opacity="0.5" d="M7.54337 10.0106L7.93798 9.25028C7.93798 9.25028 5.96497 10.1289 5.26032 9.94867C4.21183 9.67268 3.92997 8.32656 3.61428 8.54621C3.2986 8.76588 3.85668 9.8304 3.85668 9.8304C3.85668 9.8304 4.03143 10.1176 4.29638 10.5063H4.02579C2.89836 10.4387 2.44175 9.2897 2.14298 9.58819C1.84422 9.88672 2.7067 10.8724 2.7067 10.8724C2.7067 10.8724 7.03603 16.3471 11.0948 15.6881L7.54337 10.0106Z" fill="#343433"/>
<path d="M13.4393 7.87584C14.1532 7.55222 14.7436 7.00709 15.1226 6.32142C15.5016 5.63575 15.649 4.84616 15.543 4.07004C15.4369 3.29395 15.083 2.57278 14.5339 2.01373C13.9848 1.45469 13.2698 1.08762 12.4951 0.967096C11.7205 0.84658 10.9276 0.979045 10.2344 1.3448C9.54116 1.71056 8.98456 2.29008 8.64735 2.99721C8.31014 3.70434 8.2103 4.50132 8.3627 5.26969C8.51514 6.03802 8.91164 6.73674 9.49328 7.2619C8.83482 7.47597 8.23741 7.84491 7.75139 8.3377C7.46559 8.5745 7.19799 8.83241 6.95091 9.10934C6.28963 9.89462 5.35075 10.3949 4.32963 10.5062C4.29017 10.5062 6.48866 14.1334 8.27565 15.0121C9.04357 15.5423 9.96459 15.8055 10.8969 15.7612C11.8217 15.7684 12.7247 15.4811 13.475 14.941C14.2253 14.4008 14.7839 13.6359 15.0698 12.7571C15.3556 11.8783 15.3538 10.9315 15.0647 10.0538C14.7756 9.17607 14.2141 8.41321 13.4618 7.87584H13.4393Z" fill="#343433"/>
<path d="M2.64418 21.5685V21.7488C2.57033 21.6809 2.47393 21.6428 2.3736 21.6417C2.32607 21.6401 2.27875 21.6488 2.23494 21.6673C2.19113 21.6857 2.15188 21.7136 2.11992 21.7488C2.0509 21.8196 2.01244 21.9146 2.01282 22.0135C2.01303 22.1122 2.05141 22.2071 2.11992 22.2782C2.15408 22.3117 2.19466 22.3379 2.23922 22.3554C2.28378 22.3728 2.33141 22.381 2.37924 22.3796C2.42193 22.3891 2.46619 22.3891 2.50889 22.3796L2.5709 22.3458L2.64418 22.2951V22.4697C2.56254 22.5188 2.46884 22.5441 2.3736 22.5429C2.30676 22.5437 2.24045 22.5311 2.17856 22.5059C2.11666 22.4807 2.06043 22.4434 2.01317 22.3961C1.96591 22.3489 1.92856 22.2927 1.90333 22.2309C1.8781 22.1691 1.8655 22.1028 1.86625 22.036C1.86462 21.9137 1.90885 21.7951 1.99027 21.7037C2.03721 21.6448 2.09742 21.5977 2.16598 21.5664C2.23455 21.5351 2.30955 21.5204 2.38487 21.5235C2.47366 21.5178 2.56251 21.5333 2.64418 21.5685Z" fill="#231F20"/>
<path d="M3.07889 22.0076C3.07812 21.9403 3.09124 21.8736 3.11743 21.8115C3.14362 21.7495 3.18231 21.6936 3.2311 21.6471C3.32915 21.552 3.46084 21.4994 3.59752 21.5007C3.66509 21.4999 3.73213 21.5127 3.79471 21.5382C3.85729 21.5637 3.91414 21.6014 3.96193 21.6491C4.00971 21.6969 4.04747 21.7537 4.07297 21.8162C4.09848 21.8788 4.11124 21.9457 4.1105 22.0132C4.11127 22.0805 4.09816 22.1473 4.07197 22.2093C4.04578 22.2713 4.00708 22.3273 3.95829 22.3737C3.90688 22.4233 3.84585 22.4619 3.77896 22.4871C3.71207 22.5123 3.64073 22.5235 3.56933 22.5202C3.44467 22.519 3.3246 22.473 3.2311 22.3906C3.17942 22.3417 3.13903 22.282 3.11274 22.2159C3.08646 22.1497 3.07491 22.0787 3.07889 22.0076ZM3.2311 22.0076C3.22878 22.0561 3.23644 22.1045 3.2536 22.1499C3.27076 22.1954 3.29706 22.2367 3.33088 22.2716C3.36469 22.3064 3.4053 22.334 3.4502 22.3525C3.49509 22.371 3.54331 22.3802 3.59188 22.3794C3.64025 22.3811 3.68842 22.3724 3.73316 22.354C3.77789 22.3355 3.81814 22.3077 3.85119 22.2723C3.88699 22.2385 3.91509 22.1973 3.93357 22.1516C3.95205 22.1059 3.96048 22.0568 3.95829 22.0076C3.96004 21.9593 3.95137 21.9112 3.93289 21.8664C3.91442 21.8218 3.88655 21.7815 3.85119 21.7485C3.81838 21.7129 3.77817 21.6848 3.73338 21.6663C3.68859 21.6479 3.64029 21.6394 3.59188 21.6415C3.5436 21.6405 3.49563 21.6495 3.451 21.6679C3.40637 21.6863 3.36605 21.7137 3.33257 21.7485C3.29906 21.7827 3.2728 21.8232 3.25536 21.8677C3.23792 21.9122 3.22967 21.9598 3.2311 22.0076Z" fill="#231F20"/>
<path d="M4.56641 22.5202L4.76935 21.4613L5.10759 22.2273L5.46272 21.4613L5.64875 22.5202H5.49657L5.40073 21.9232L5.10759 22.5653L4.82573 21.9232L4.69609 22.5202H4.56641Z" fill="#231F20"/>
<path d="M6.30846 22.1033V22.5201H6.15625V21.5344H6.32535C6.38904 21.5269 6.45337 21.5269 6.51702 21.5344C6.55859 21.5459 6.59583 21.5694 6.62413 21.602C6.65401 21.6276 6.67766 21.6597 6.6933 21.6958C6.70891 21.7319 6.71612 21.7711 6.71433 21.8104C6.71587 21.851 6.70805 21.8915 6.69141 21.9286C6.67481 21.9657 6.64984 21.9985 6.61849 22.0244C6.55026 22.0798 6.46388 22.1079 6.37609 22.1033H6.30846ZM6.30846 21.9625H6.38737C6.52266 21.9625 6.59032 21.9118 6.59032 21.8048C6.59032 21.6977 6.52266 21.6527 6.38173 21.6527H6.33099L6.30846 21.9625Z" fill="#231F20"/>
<path d="M7.67286 22.2667H7.25007L7.14295 22.5033H6.97949L7.46991 21.4556L7.94343 22.5033H7.77994L7.67286 22.2667ZM7.61648 22.1259L7.46991 21.7879L7.31206 22.1259H7.61648Z" fill="#231F20"/>
<path d="M8.36572 22.5202V21.4501L9.08729 22.2048V21.5177H9.23386V22.5653L8.51229 21.8106V22.5202H8.36572Z" fill="#231F20"/>
<path d="M9.97268 22.0751L9.65137 21.5119H9.82047L10.046 21.9062L10.2714 21.5119H10.4462L10.1193 22.0751V22.5201H9.97268V22.0751Z" fill="#231F20"/>
<path d="M11.7146 21.5176V22.3625H12.0246V22.5202H11.585V21.5345L11.7146 21.5176Z" fill="#231F20"/>
<path d="M12.5882 21.5176V22.5202H12.436V21.5345L12.5882 21.5176Z" fill="#231F20"/>
<path d="M13.1016 22.5202L13.3102 21.4613L13.6484 22.2273L13.9979 21.4613L14.1839 22.5202H14.0317L13.9415 21.9232L13.6484 22.5653L13.3609 21.9232L13.2594 22.5202H13.1016Z" fill="#231F20"/>
<path d="M14.8436 21.5176V22.5202H14.6914V21.5345L14.8436 21.5176Z" fill="#231F20"/>
<path d="M15.6604 21.6583V22.5201H15.5082V21.6753H15.2827V21.5344H15.8859V21.6753L15.6604 21.6583Z" fill="#231F20"/>
<path d="M16.8611 21.6583H16.4665V21.8949H16.8498V22.0357H16.4665V22.3624H16.8611V22.5201H16.2974V21.5344H16.8611V21.6583Z" fill="#231F20"/>
<path d="M17.3633 22.52V21.5343H17.5662C17.6461 21.5325 17.7258 21.542 17.803 21.5625C17.8663 21.5831 17.9241 21.6177 17.9721 21.6639C18.0223 21.7092 18.062 21.7649 18.0883 21.8273C18.1146 21.8895 18.1269 21.9568 18.1243 22.0244C18.1271 22.0941 18.1144 22.1636 18.0871 22.2279C18.0598 22.2922 18.0186 22.3496 17.9665 22.3961C17.9166 22.4384 17.8592 22.4709 17.7974 22.4919C17.7221 22.5124 17.6442 22.5219 17.5662 22.52H17.3633ZM17.5099 22.3792H17.5775C17.6334 22.389 17.6907 22.389 17.7466 22.3792C17.791 22.3667 17.8317 22.3435 17.865 22.3116C17.9011 22.278 17.9294 22.2368 17.9479 22.1911C17.9664 22.1454 17.9747 22.0962 17.9721 22.0469C17.9742 21.9985 17.9657 21.9503 17.9472 21.9055C17.9287 21.8607 17.9007 21.8206 17.865 21.7878C17.8255 21.7544 17.7797 21.7293 17.7303 21.7138C17.681 21.6983 17.629 21.6929 17.5775 21.6977H17.5099V22.3792Z" fill="#231F20"/>
</svg>
