<svg width="154" height="59" viewBox="0 0 154 59" fill="none" xmlns="http://www.w3.org/2000/svg">
<g opacity="0.95">
<path d="M115.359 56.979C113.18 56.979 110.886 54.8182 108.706 50.7241C103.323 40.5836 100.196 21.8569 104.252 15.8674C108.517 9.57457 128.949 2.14453 141.971 2.14453C147.183 2.14453 150.728 3.30073 152.509 5.55628C154.158 7.64124 153.704 11.47 151.164 16.9098C144.283 31.6752 121.936 56.7705 115.473 56.979H115.359ZM141.971 3.05432C129.442 3.05432 109.048 10.4085 105.01 16.3791C101.182 22.0275 104.366 40.5647 109.521 50.2881C111.493 54.0032 113.578 56.0502 115.378 56.0502V56.5051L115.454 56.0502C121.216 55.8607 143.051 32.1869 150.368 16.4928C152.718 11.47 153.211 7.86868 151.808 6.08699C150.235 4.07785 146.842 3.01642 141.99 3.01642L141.971 3.05432ZM115.454 52.7901C114.108 52.7901 112.763 51.5202 111.417 49.0372C107.171 41.2091 103.987 24.0745 106.887 19.6203C109.654 15.3366 122.751 10.655 131.887 10.655C135.11 10.655 137.498 11.2425 138.957 12.3987C141.099 14.0857 141.44 17.2131 139.981 21.6863C136 33.8549 119.681 52.6574 115.473 52.7901H115.454ZM131.887 11.5458C123.149 11.5458 110.242 16.1138 107.645 20.1131C104.953 24.2641 108.157 41.1522 112.213 48.6012C113.369 50.7241 114.487 51.8803 115.397 51.8803C118.961 51.7476 135.091 33.6843 139.109 21.383C140.436 17.3079 140.208 14.5027 138.389 13.0811C137.1 12.0765 134.863 11.5458 131.887 11.5458Z" fill="#2A71B8"/>
<path d="M112.177 55.3868C109.997 55.3868 107.703 53.226 105.524 49.1319C100.141 38.9914 97.0133 20.2647 101.069 14.2941C105.334 8.00133 125.786 0.571289 138.788 0.571289C144.001 0.571289 147.545 1.7275 149.327 3.98305C150.976 6.06801 150.521 9.89675 147.981 15.3366C141.101 30.1019 118.754 55.1972 112.29 55.4057H112.177V55.3868ZM138.807 1.46214C126.279 1.46214 105.884 8.81636 101.847 14.8059C98.0179 20.4542 101.202 38.9914 106.358 48.7149C108.329 52.4299 110.414 54.4959 112.215 54.4959V54.9508L112.29 54.4959C118.052 54.3064 139.888 30.6326 147.204 14.9575C149.554 9.93465 150.047 6.33336 148.663 4.55166C147.09 2.54252 143.697 1.48108 138.845 1.48108L138.807 1.46214ZM113.352 50.6672C112.044 50.6672 110.774 49.492 109.523 47.1796C105.391 39.579 102.377 22.0464 105.315 17.4974C108.064 13.2706 119.777 8.96799 128.553 8.96799C131.832 8.96799 134.277 9.57453 135.813 10.7876C138.03 12.5314 138.371 15.7915 136.836 20.4732C132.856 32.6039 117.465 50.5345 113.371 50.6672H113.352ZM128.534 9.87779C120.175 9.87779 108.613 14.0477 106.054 17.9902C103.325 22.198 106.339 39.4463 110.3 46.7437C111.362 48.696 112.423 49.7574 113.276 49.7574C116.726 49.6437 131.927 32.4522 135.945 20.1699C137.348 15.8863 137.101 12.9673 135.225 11.4889C133.879 10.4275 131.567 9.85884 128.534 9.85884V9.87779Z" fill="#BAD972"/>
<path d="M112.705 58.5528C110.525 58.5528 108.232 56.392 106.052 52.2979C100.669 42.1574 97.5416 23.4307 101.598 17.4601C105.863 11.1673 126.295 3.7373 139.317 3.7373C144.529 3.7373 148.074 4.89352 149.855 7.14906C151.504 9.23402 151.049 13.0628 148.509 18.5026C141.629 33.2679 119.282 58.3633 112.819 58.5718H112.705V58.5528ZM139.317 4.62815C126.788 4.62815 106.393 11.9824 102.356 17.9719C98.5273 23.6202 101.712 42.1574 106.867 51.8809C108.838 55.596 110.923 57.662 112.705 57.662V58.1169L112.781 57.662C118.543 57.4724 140.378 33.7986 147.694 18.1046C150.045 13.0817 150.538 9.48043 149.135 7.69874C147.562 5.68959 144.169 4.62815 139.317 4.62815ZM113.88 53.8332C112.572 53.8332 111.302 52.6581 110.051 50.3457C105.919 42.745 102.906 25.2124 105.844 20.6634C108.592 16.4366 120.306 12.134 129.081 12.134C132.36 12.134 134.806 12.7405 136.341 13.9536C138.559 15.6974 138.9 18.9575 137.364 23.6202C133.384 35.7509 117.993 53.6816 113.899 53.8332H113.88ZM129.062 13.0438C120.704 13.0438 109.142 17.2137 106.583 21.1562C103.853 25.364 106.867 42.6123 110.829 49.9097C111.89 51.862 112.932 52.9234 113.804 52.9234C117.254 52.8097 132.455 35.6182 136.474 23.3359C137.876 19.0523 137.63 16.1333 135.753 14.6549C134.408 13.5935 132.095 13.0249 129.062 13.0249V13.0438Z" fill="#E22665"/>
<path d="M23.9432 33.5521L3.41583 12.6645V32.8129H0.458984V5.57568L20.9863 26.4063V6.3149H23.9432V33.5521Z" fill="black"/>
<path d="M44.6024 32.8315H41.7971V30.1211C41.2474 31.1636 40.4514 31.9786 39.4278 32.5283C38.4233 33.0779 37.2291 33.3623 35.8455 33.3623C33.552 33.3623 31.6756 32.5283 30.1972 30.8793C28.7187 29.2113 27.9795 27.1074 27.9795 24.5106C27.9795 21.9139 28.7187 19.9237 30.1972 18.3316C31.6756 16.7394 33.571 15.9434 35.9023 15.9434C37.2102 15.9434 38.3854 16.2087 39.3899 16.7205C40.3945 17.2322 41.1906 17.9715 41.7781 18.9381V16.4551H44.5834V32.8505L44.6024 32.8315ZM41.7781 24.4348C41.7781 22.6342 41.2853 21.2126 40.2997 20.1701C39.3141 19.1277 37.9873 18.5969 36.3383 18.5969C34.6893 18.5969 33.3625 19.1466 32.339 20.227C31.3155 21.3074 30.8037 22.7479 30.8037 24.5296C30.8037 26.3113 31.3154 27.8087 32.32 28.9459C33.3246 30.0832 34.6135 30.6518 36.2056 30.6518C37.7978 30.6518 39.1435 30.0642 40.186 28.908C41.2474 27.7518 41.7781 26.2544 41.7781 24.4348Z" fill="black"/>
<path d="M66.0769 24.492C66.0769 27.0698 65.3377 29.1926 63.8592 30.8606C62.3808 32.5286 60.4854 33.3436 58.192 33.3436C56.8273 33.3436 55.6521 33.0593 54.6286 32.5096C53.605 31.96 52.8279 31.1449 52.2593 30.1024V32.8129H49.4541V3.81299H52.2593V18.9005C52.8469 17.9339 53.6619 17.1946 54.6665 16.6829C55.6711 16.1711 56.8273 15.9058 58.1351 15.9058C60.4665 15.9058 62.3808 16.7018 63.8592 18.294C65.3377 19.8861 66.0769 21.9521 66.0769 24.4731V24.492ZM63.2338 24.5299C63.2338 22.7482 62.722 21.3077 61.6985 20.2273C60.675 19.1469 59.3482 18.5973 57.7181 18.5973C56.088 18.5973 54.7423 19.128 53.7377 20.1704C52.7521 21.2129 52.2593 22.6345 52.2593 24.4351C52.2593 26.2358 52.79 27.7521 53.8514 28.9083C54.9129 30.0645 56.2397 30.6521 57.8508 30.6521C59.4619 30.6521 60.7129 30.0835 61.7175 28.9462C62.722 27.809 63.2338 26.3495 63.2338 24.5299Z" fill="black"/>
<path d="M72.6163 32.8319H69.8301V3.83203H72.6163V32.8319Z" fill="black"/>
<path d="M92.6507 32.8315H89.8455V30.1211C89.2958 31.1636 88.4997 31.9786 87.4952 32.5283C86.4906 33.0779 85.2965 33.3623 83.9128 33.3623C81.6194 33.3623 79.7429 32.5283 78.2645 30.8793C76.7861 29.2113 76.0469 27.1074 76.0469 24.5106C76.0469 21.9139 76.7861 19.9237 78.2645 18.3316C79.7429 16.7394 81.6383 15.9434 83.9697 15.9434C85.2775 15.9434 86.4527 16.2087 87.4573 16.7205C88.4618 17.2322 89.2579 17.9715 89.8455 18.9381V16.4551H92.6507V32.8505V32.8315ZM89.8455 24.4348C89.8455 22.6342 89.3527 21.2126 88.3671 20.1701C87.3815 19.1277 86.0547 18.5969 84.4057 18.5969C82.7567 18.5969 81.4488 19.1466 80.4253 20.227C79.4018 21.3074 78.89 22.7479 78.89 24.5296C78.89 26.3113 79.4017 27.8087 80.4063 28.9459C81.4109 30.0832 82.6998 30.6518 84.292 30.6518C85.8841 30.6518 87.2298 30.0642 88.2723 28.908C89.3337 27.7518 89.8644 26.2544 89.8644 24.4348H89.8455Z" fill="black"/>
<path d="M9.02582 44.6021C9.02582 46.5354 8.47614 48.0138 7.35784 49.0184C6.23954 50.023 4.60951 50.5158 2.46769 50.5158H0.155273V38.6694H2.50557C4.60949 38.6694 6.22059 39.1812 7.35784 40.2047C8.47614 41.2282 9.04479 42.7067 9.04479 44.6021H9.02582ZM7.54739 44.5831C7.54739 43.1047 7.13039 41.9864 6.29641 41.2093C5.46243 40.4322 4.24939 40.0341 2.65724 40.0341H1.61472V49.1132H2.54352C4.2494 49.1132 5.50035 48.7341 6.31538 47.9949C7.13041 47.2557 7.54739 46.0995 7.54739 44.5831Z" fill="black"/>
<path d="M12.837 40.1856C12.837 40.451 12.7422 40.6595 12.5716 40.849C12.401 41.0196 12.1736 41.1144 11.9083 41.1144C11.6429 41.1144 11.4344 41.0196 11.2449 40.849C11.0743 40.6595 10.9795 40.451 10.9795 40.1856C10.9795 39.9202 11.0743 39.7117 11.2449 39.5222C11.4344 39.3516 11.6429 39.2568 11.9083 39.2568C12.1736 39.2568 12.3821 39.3516 12.5716 39.5222C12.7422 39.7117 12.837 39.9202 12.837 40.1856ZM12.6096 50.5156H11.2069V43.1614H12.6096V50.5156Z" fill="black"/>
<path d="M21.8007 50.8947C21.8007 52.2404 21.5164 53.226 20.9478 53.8326C20.3791 54.4391 19.4693 54.7424 18.2373 54.7424C17.2328 54.7424 16.4177 54.5149 15.8112 54.079C15.2047 53.6241 14.8634 53.0175 14.7687 52.2214H16.2092C16.285 52.6195 16.4935 52.9038 16.8347 53.1123C17.1759 53.3208 17.6497 53.4156 18.2562 53.4156C19.0523 53.4156 19.602 53.226 19.9053 52.8659C20.2086 52.5058 20.3792 51.8803 20.3792 51.0273V49.3594C20.1328 49.8332 19.8105 50.1934 19.3935 50.4208C18.9765 50.6483 18.4837 50.762 17.9151 50.762C16.8916 50.762 16.0765 50.4019 15.4321 49.6626C14.8066 48.9234 14.4844 47.9757 14.4844 46.7816C14.4844 45.5875 14.8066 44.6966 15.4321 43.9764C16.0765 43.2561 16.9105 42.896 17.9341 42.896C18.4837 42.896 18.9576 43.0097 19.3556 43.2182C19.7537 43.4267 20.0948 43.7679 20.3602 44.2038V43.1424H21.7817V50.8947H21.8007ZM20.3792 46.7627C20.3792 45.9855 20.1896 45.36 19.7915 44.9241C19.3935 44.4881 18.8438 44.2607 18.1615 44.2607C17.4791 44.2607 16.9295 44.4881 16.5125 44.943C16.0955 45.3979 15.9059 46.0234 15.9059 46.8006C15.9059 47.5777 16.1144 48.2221 16.5125 48.696C16.9105 49.1698 17.4413 49.4162 18.1236 49.4162C18.806 49.4162 19.3366 49.1698 19.7536 48.677C20.1706 48.1842 20.3792 47.5398 20.3792 46.7627Z" fill="black"/>
<path d="M26.1612 40.1856C26.1612 40.451 26.0664 40.6595 25.8959 40.849C25.7063 41.0196 25.4979 41.1144 25.2325 41.1144C24.9671 41.1144 24.7586 41.0196 24.5691 40.849C24.3985 40.6595 24.3037 40.451 24.3037 40.1856C24.3037 39.9202 24.3985 39.7117 24.5691 39.5222C24.7397 39.3516 24.9671 39.2568 25.2325 39.2568C25.4979 39.2568 25.7063 39.3516 25.8959 39.5222C26.0664 39.7117 26.1612 39.9202 26.1612 40.1856ZM25.9338 50.5156H24.5312V43.1614H25.9338V50.5156Z" fill="black"/>
<path d="M31.3911 44.4125H30.1401V50.5158H28.7185V44.4125H27.9414V43.1615H28.7185V40.2236H30.1401V43.1615H31.3911V44.4125Z" fill="black"/>
<path d="M39.389 50.5162H37.9675V49.36C37.7211 49.8338 37.3988 50.175 36.9818 50.4214C36.5648 50.6488 36.0721 50.7815 35.4845 50.7815C34.4609 50.7815 33.6459 50.4214 33.0014 49.6822C32.3759 48.943 32.0537 47.9953 32.0537 46.8011C32.0537 45.607 32.3759 44.7162 33.0014 43.9959C33.6459 43.2757 34.4799 42.9155 35.5034 42.9155C36.0531 42.9155 36.5269 43.0293 36.9439 43.2378C37.3609 43.4463 37.6831 43.7874 37.9485 44.2234V43.1619H39.3701V50.5162H39.389ZM37.9675 46.7632C37.9675 45.9861 37.759 45.3606 37.3609 44.9247C36.9629 44.4887 36.4132 44.2613 35.7308 44.2613C35.0485 44.2613 34.4988 44.4887 34.0818 44.9436C33.6648 45.3985 33.4753 46.024 33.4753 46.8011C33.4753 47.5783 33.6838 48.2227 34.0818 48.6966C34.4799 49.1704 35.0295 49.4168 35.6929 49.4168C36.3563 49.4168 36.925 49.1704 37.3419 48.6776C37.7589 48.1848 37.9864 47.5404 37.9864 46.7632H37.9675Z" fill="black"/>
<path d="M43.2386 50.5159H41.8359V37.5513H43.2386V50.5159Z" fill="black"/>
<path d="M57.6061 49.776C57.1512 50.0603 56.6205 50.3067 55.995 50.4963C55.3695 50.6858 54.763 50.7806 54.2133 50.7806C52.4316 50.7806 50.9911 50.212 49.9107 49.0747C48.8114 47.9375 48.2617 46.4401 48.2617 44.6015C48.2617 42.763 48.8114 41.3414 49.9297 40.1852C51.048 39.029 52.4885 38.4414 54.2323 38.4414C54.9146 38.4414 55.5401 38.5172 56.0898 38.6878C56.6395 38.8584 57.1512 39.1048 57.6061 39.427V41.0761C57.0944 40.6591 56.5826 40.3368 56.0519 40.1283C55.5211 39.9198 54.9715 39.8061 54.4218 39.8061C53.0382 39.8061 51.9199 40.261 51.048 41.1519C50.1761 42.0427 49.7401 43.1989 49.7401 44.5826C49.7401 45.9662 50.1571 47.1414 50.9911 48.0512C51.8251 48.942 52.8865 49.3969 54.2133 49.3969C54.8388 49.3969 55.4453 49.2832 56.014 49.0747C56.5826 48.8662 57.1133 48.544 57.6251 48.1081V49.795L57.6061 49.776Z" fill="black"/>
<path d="M66.4586 46.8006C66.4586 47.8999 66.0795 48.8476 65.3213 49.6058C64.5632 50.3639 63.6344 50.762 62.5351 50.762C61.4357 50.762 60.5259 50.3829 59.7678 49.6058C59.0285 48.8476 58.6494 47.8999 58.6494 46.8006C58.6494 45.7012 59.0096 44.7725 59.7678 44.0143C60.507 43.2751 61.4357 42.896 62.5351 42.896C63.6344 42.896 64.5821 43.2751 65.3213 44.0143C66.0605 44.7725 66.4396 45.6823 66.4396 46.7816L66.4586 46.8006ZM65.037 46.8006C65.037 46.0613 64.8095 45.4548 64.3357 44.981C63.8618 44.5071 63.2743 44.2607 62.554 44.2607C61.8338 44.2607 61.2272 44.5071 60.7723 44.981C60.2985 45.4548 60.071 46.0613 60.071 46.8195C60.071 47.5777 60.2984 48.2032 60.7912 48.696C61.2651 49.1888 61.8527 49.4352 62.5729 49.4352C63.2932 49.4352 63.8808 49.1888 64.3546 48.696C64.8285 48.2032 65.0559 47.5777 65.0559 46.8195L65.037 46.8006Z" fill="black"/>
<path d="M68.5993 49.7767C68.5993 50.0421 68.5046 50.2695 68.315 50.4591C68.1255 50.6486 67.8981 50.7434 67.6327 50.7434C67.3673 50.7434 67.1209 50.6486 66.9503 50.4591C66.7608 50.2695 66.666 50.0421 66.666 49.7767C66.666 49.5114 66.7608 49.2839 66.9503 49.0944C67.1399 48.9048 67.3673 48.8101 67.6327 48.8101C67.8981 48.8101 68.1255 48.9048 68.315 49.0944C68.5046 49.2839 68.5993 49.5114 68.5993 49.7767Z" fill="black"/>
<path d="M72.3164 49.1696L70.2693 53.2258L69.3975 52.9036L70.8759 48.582L72.2974 49.1886L72.3164 49.1696Z" fill="black"/>
<path d="M79.8012 50.5158H75.1006V38.6694H76.579V49.1701H79.8012V50.5158Z" fill="black"/>
<path d="M84.5005 44.4125H83.2495V50.5158H81.8279V44.4125H81.0508V43.1615H81.8279V40.2236H83.2495V43.1615H84.5005V44.4125Z" fill="black"/>
<path d="M92.4808 50.5159H91.0592V49.3597C90.8128 49.8336 90.4906 50.1748 90.0736 50.4212C89.6566 50.6486 89.1638 50.7813 88.5762 50.7813C87.5527 50.7813 86.7377 50.4212 86.0932 49.6819C85.4677 48.9427 85.1455 47.995 85.1455 46.8009C85.1455 45.6068 85.4677 44.7159 86.0932 43.9957C86.7377 43.2754 87.5717 42.9153 88.5952 42.9153C89.1449 42.9153 89.6187 43.029 90.0357 43.2375C90.4527 43.446 90.7749 43.7872 91.0403 44.2231V37.5513H92.4619V50.5159H92.4808ZM91.0592 46.763C91.0592 45.9859 90.8508 45.3604 90.4527 44.9244C90.0547 44.4885 89.505 44.2611 88.8226 44.2611C88.1403 44.2611 87.5906 44.4885 87.1736 44.9434C86.7566 45.3983 86.5671 46.0238 86.5671 46.8009C86.5671 47.578 86.7756 48.2225 87.1736 48.6963C87.5717 49.1702 88.1213 49.4166 88.7658 49.4166C89.4102 49.4166 89.9978 49.1702 90.4148 48.6774C90.8318 48.1846 91.0592 47.5401 91.0592 46.763Z" fill="black"/>
<path d="M96.1212 49.7767C96.1212 50.0421 96.0265 50.2695 95.8369 50.4591C95.6474 50.6486 95.4199 50.7434 95.1545 50.7434C94.8892 50.7434 94.6428 50.6486 94.4532 50.4591C94.2637 50.2695 94.1689 50.0421 94.1689 49.7767C94.1689 49.5114 94.2637 49.2839 94.4532 49.0944C94.6428 48.9048 94.8702 48.8101 95.1545 48.8101C95.4389 48.8101 95.6474 48.9048 95.8369 49.0944C96.0265 49.2839 96.1212 49.5114 96.1212 49.7767Z" fill="black"/>
</g>
</svg>
