<svg width="109" height="122" viewBox="0 0 109 122" fill="none" xmlns="http://www.w3.org/2000/svg">
<circle cx="54.4992" cy="61.299" r="53.55" fill="url(#paint0_linear_2533_51350)" fill-opacity="0.2"/>
<path d="M69.8932 79.374H38.9172V71.566L52.9332 59.278C55.3226 57.1874 57.0719 55.31 58.1812 53.646C59.2906 51.9394 59.8452 50.1047 59.8452 48.142V47.31C59.8452 45.3474 59.2052 43.854 57.9252 42.83C56.6452 41.7634 55.0879 41.23 53.2532 41.23C50.9492 41.23 49.1999 41.8914 48.0052 43.214C46.8106 44.494 45.9572 46.0514 45.4452 47.886L38.1492 45.07C38.6186 43.5767 39.2799 42.1687 40.1332 40.846C40.9866 39.4807 42.0532 38.286 43.3332 37.262C44.6559 36.238 46.1919 35.4274 47.9412 34.83C49.6906 34.2327 51.6959 33.934 53.9572 33.934C56.3039 33.934 58.3946 34.2754 60.2292 34.958C62.0639 35.598 63.5999 36.5154 64.8372 37.71C66.1172 38.9047 67.0772 40.3127 67.7172 41.934C68.3999 43.5554 68.7412 45.326 68.7412 47.246C68.7412 49.1234 68.4426 50.83 67.8452 52.366C67.2479 53.902 66.4372 55.374 65.4132 56.782C64.3892 58.1474 63.1946 59.47 61.8292 60.75C60.4639 61.9874 59.0132 63.246 57.4772 64.526L48.0692 72.27H69.8932V79.374Z" fill="#05BA64"/>
<defs>
<linearGradient id="paint0_linear_2533_51350" x1="0.949217" y1="8.19669" x2="106.249" y2="11.4781" gradientUnits="userSpaceOnUse">
<stop stop-color="white"/>
<stop offset="0.659041"/>
</linearGradient>
</defs>
</svg>
