<svg width="109" height="122" viewBox="0 0 109 122" fill="none" xmlns="http://www.w3.org/2000/svg">
<circle cx="54.4992" cy="61.299" r="53.55" fill="url(#paint0_linear_2533_51359)" fill-opacity="0.2"/>
<path d="M51.7172 52.75C54.2772 52.75 56.1546 52.238 57.3492 51.214C58.5866 50.1474 59.2052 48.8034 59.2052 47.182V46.734C59.2052 44.8994 58.6079 43.47 57.4132 42.446C56.2612 41.3794 54.6612 40.846 52.6132 40.846C50.6506 40.846 48.9012 41.3154 47.3652 42.254C45.8719 43.1927 44.5706 44.5154 43.4612 46.222L38.0852 41.358C38.8532 40.334 39.6852 39.374 40.5812 38.478C41.5199 37.5394 42.5866 36.75 43.7812 36.11C44.9759 35.4274 46.3199 34.894 47.8132 34.51C49.3066 34.126 50.9919 33.934 52.8692 33.934C55.1306 33.934 57.1786 34.2114 59.0132 34.766C60.8906 35.278 62.4906 36.046 63.8132 37.07C65.1786 38.094 66.2239 39.3314 66.9492 40.782C67.6746 42.19 68.0372 43.79 68.0372 45.582C68.0372 47.0327 67.8026 48.334 67.3332 49.486C66.9066 50.638 66.2879 51.6407 65.4772 52.494C64.7092 53.3474 63.7919 54.0514 62.7252 54.606C61.7012 55.118 60.6132 55.502 59.4612 55.758V56.142C60.7412 56.398 61.9572 56.8034 63.1092 57.358C64.2612 57.9127 65.2426 58.6594 66.0532 59.598C66.9066 60.494 67.5679 61.5607 68.0372 62.798C68.5492 64.0354 68.8052 65.4434 68.8052 67.022C68.8052 68.9847 68.3999 70.7767 67.5892 72.398C66.8212 74.0194 65.7119 75.406 64.2612 76.558C62.8106 77.71 61.0826 78.606 59.0772 79.246C57.0719 79.8434 54.8319 80.142 52.3572 80.142C50.1812 80.142 48.2612 79.9074 46.5972 79.438C44.9332 79.0114 43.4612 78.414 42.1812 77.646C40.9439 76.878 39.8559 76.0034 38.9172 75.022C37.9786 73.998 37.1679 72.9314 36.4852 71.822L42.6932 67.086C43.2052 67.982 43.7599 68.814 44.3572 69.582C44.9546 70.3074 45.6372 70.9474 46.4052 71.502C47.1732 72.0567 48.0479 72.4834 49.0292 72.782C50.0106 73.0807 51.1199 73.23 52.3572 73.23C54.8319 73.23 56.7306 72.6327 58.0532 71.438C59.3759 70.2434 60.0372 68.6007 60.0372 66.51V66.062C60.0372 64.014 59.3119 62.4567 57.8612 61.39C56.4532 60.3234 54.4052 59.79 51.7172 59.79H47.3012V52.75H51.7172Z" fill="#05BA64"/>
<defs>
<linearGradient id="paint0_linear_2533_51359" x1="0.949217" y1="8.19669" x2="106.249" y2="11.4781" gradientUnits="userSpaceOnUse">
<stop stop-color="white"/>
<stop offset="0.659041"/>
</linearGradient>
</defs>
</svg>
