<svg width="205" height="205" viewBox="0 0 205 205" fill="none" xmlns="http://www.w3.org/2000/svg">
<rect x="3" y="3" width="199" height="199" rx="40" fill="white"/>
<rect x="2.5" y="2.5" width="200" height="200" rx="37.5" stroke="url(#paint0_linear_579_79)" stroke-width="5"/>
<path d="M103.308 76.9836C113.384 76.9836 121.552 68.8576 121.552 58.8337C121.552 48.8098 113.384 40.6838 103.308 40.6838C93.2315 40.6838 85.0632 48.8098 85.0632 58.8337C85.0632 68.8576 93.2315 76.9836 103.308 76.9836Z" fill="#AD8B50"/>
<path d="M134.634 45.2441C137.755 45.2441 140.285 42.727 140.285 39.622C140.285 36.5171 137.755 34 134.634 34C131.513 34 128.983 36.5171 128.983 39.622C128.983 42.727 131.513 45.2441 134.634 45.2441Z" fill="#AD8B50"/>
<path d="M137.348 147.724C134.812 149.583 130.273 151.133 121.641 148.787C126.713 163.351 132.498 167.6 137.215 168.53C158.708 172.647 179.266 111.292 179.889 104.297C179.978 103.589 180.111 101.597 178.954 100.092C178.02 98.8965 176.373 98.0997 172.146 97.9226C167.385 97.7455 163.647 97.5685 159.42 99.6048C150.653 103.81 148.073 113.284 147.272 116.338C147.183 116.604 146.96 118.419 146.293 122.004C142.599 142.412 140.063 145.732 137.348 147.724Z" fill="url(#paint1_linear_579_79)"/>
<path d="M134.1 142.723C139.885 150.115 143.845 151.576 145.892 152.019C153.59 153.701 160.576 148.61 162.757 146.884C162 148.433 160.799 150.691 159.197 153.347C154.08 161.758 151.098 166.672 145.625 168.531C144.068 169.062 141.442 169.018 136.147 169.018C132.187 169.018 129.917 168.841 127.737 167.468C126.624 166.76 125.779 165.875 125.067 164.857C118.036 155.162 111.984 120.279 98.101 105.316C96.677 103.767 92.5832 99.6498 93.7401 96.6839C94.7191 94.1606 99.0354 93.4523 100.237 93.231C100.949 93.0981 103.797 92.6112 106.956 93.895C110.338 95.223 112.385 97.8348 113.453 99.4285C120.573 109.92 123.109 128.601 134.1 142.723Z" fill="#AD8B50"/>
<path d="M66.5964 147.724C69.1328 149.583 73.6717 151.133 82.3043 148.787C77.2315 163.351 71.4467 167.6 66.7299 168.53C45.2373 172.647 24.6791 111.292 24.0561 104.297C23.9671 103.589 23.8336 101.597 24.9906 100.092C25.925 98.8965 27.5715 98.0997 31.7988 97.9226C36.5601 97.7455 40.298 97.5685 44.5253 99.6048C53.2915 103.81 55.8724 113.284 56.6733 116.338C56.7623 116.604 56.9848 118.419 57.6523 122.004C61.3456 142.412 63.882 145.732 66.5964 147.724Z" fill="url(#paint2_linear_579_79)"/>
<path d="M69.8449 142.723C64.0601 150.115 60.0997 151.576 58.0528 152.019C50.3546 153.701 43.3684 148.61 41.188 146.884C41.9445 148.433 43.1459 150.691 44.7478 153.347C49.8651 161.758 52.8465 166.672 58.3198 168.531C59.8773 169.062 62.5026 169.018 67.7979 169.018C71.7583 169.018 74.0277 168.841 76.2081 167.468C77.3206 166.76 78.166 165.875 78.878 164.857C85.9087 155.162 91.9605 120.279 105.844 105.316C107.268 103.767 111.362 99.6498 110.205 96.6839C109.226 94.1606 104.91 93.4523 103.708 93.231C102.996 93.0981 100.148 92.6112 96.9888 93.895C93.607 95.223 91.56 97.8348 90.492 99.4285C83.4168 109.92 80.8359 128.601 69.8449 142.723Z" fill="#AD8B50"/>
<defs>
<linearGradient id="paint0_linear_579_79" x1="210" y1="5.24448e-06" x2="-19.5" y2="205" gradientUnits="userSpaceOnUse">
<stop stop-color="#11D1B6"/>
<stop offset="1" stop-color="#77C56B"/>
</linearGradient>
<linearGradient id="paint1_linear_579_79" x1="172.389" y1="95.9977" x2="132.014" y2="166.284" gradientUnits="userSpaceOnUse">
<stop stop-color="#AD8B50"/>
<stop offset="1" stop-color="#DCCEB5"/>
</linearGradient>
<linearGradient id="paint2_linear_579_79" x1="31.5605" y1="95.9977" x2="71.9355" y2="166.284" gradientUnits="userSpaceOnUse">
<stop stop-color="#AD8B50"/>
<stop offset="1" stop-color="#DCCEB5"/>
</linearGradient>
</defs>
</svg>
