<svg width="140" height="140" viewBox="0 0 140 140" fill="none" xmlns="http://www.w3.org/2000/svg">
<g filter="url(#filter0_d_1785_8108)">
<rect x="14" y="14" width="104" height="104" rx="25" fill="#000E41"/>
<rect x="14" y="14" width="104" height="104" rx="25" fill="white"/>
<rect x="15" y="15" width="102" height="102" rx="24" stroke="#05BA64" stroke-width="2"/>
</g>
<g filter="url(#filter1_d_1785_8108)">
<circle cx="65.9824" cy="33.4781" r="8.26853" fill="#2779B5"/>
<circle cx="65.9824" cy="33.4781" r="8.26853" fill="black"/>
<path fill-rule="evenodd" clip-rule="evenodd" d="M94.9221 46.0772L65.9818 106.518L56.1896 86.067C56.1219 85.5796 55.7116 81.8627 58.5403 79.5055C61.5721 76.979 65.9138 77.025 65.9138 77.025C65.8793 77.0212 65.8449 77.0174 65.8106 77.0138C65.8671 77.0154 65.9242 77.0161 65.9818 77.0161C70.9549 77.0161 71.3793 71.1765 71.8629 64.5229C72.4113 56.9791 73.0356 48.3889 80.4517 46.0772C85.849 44.3947 94.9221 46.0772 94.9221 46.0772ZM65.0927 76.9475C60.9549 76.2751 60.5537 70.7562 60.1005 64.5228C59.552 56.979 58.9275 48.3889 51.5114 46.0772C46.1143 44.3949 37.0415 46.0772 37.0415 46.0772L54.682 82.9184C54.6983 82.4136 55.1025 76.1709 65.0927 76.9475Z" fill="black"/>
<path d="M94.9585 46.0755L65.9498 106.536L56.1792 86.1787C56.1792 86.1787 54.6511 76.6702 65.7463 77.0181C76.8415 77.366 66.0346 50.5861 80.5045 46.0755C85.9018 44.393 94.9585 46.0755 94.9585 46.0755Z" fill="url(#paint0_linear_1785_8108)"/>
</g>
<defs>
<filter id="filter0_d_1785_8108" x="0" y="0" width="140" height="140" filterUnits="userSpaceOnUse" color-interpolation-filters="sRGB">
<feFlood flood-opacity="0" result="BackgroundImageFix"/>
<feColorMatrix in="SourceAlpha" type="matrix" values="0 0 0 0 0 0 0 0 0 0 0 0 0 0 0 0 0 0 127 0" result="hardAlpha"/>
<feOffset dx="4" dy="4"/>
<feGaussianBlur stdDeviation="9"/>
<feComposite in2="hardAlpha" operator="out"/>
<feColorMatrix type="matrix" values="0 0 0 0 0 0 0 0 0 0 0 0 0 0 0 0 0 0 0.3 0"/>
<feBlend mode="normal" in2="BackgroundImageFix" result="effect1_dropShadow_1785_8108"/>
<feBlend mode="normal" in="SourceGraphic" in2="effect1_dropShadow_1785_8108" result="shape"/>
</filter>
<filter id="filter1_d_1785_8108" x="23.0415" y="11.2096" width="93.917" height="117.326" filterUnits="userSpaceOnUse" color-interpolation-filters="sRGB">
<feFlood flood-opacity="0" result="BackgroundImageFix"/>
<feColorMatrix in="SourceAlpha" type="matrix" values="0 0 0 0 0 0 0 0 0 0 0 0 0 0 0 0 0 0 127 0" result="hardAlpha"/>
<feOffset dx="4" dy="4"/>
<feGaussianBlur stdDeviation="9"/>
<feComposite in2="hardAlpha" operator="out"/>
<feColorMatrix type="matrix" values="0 0 0 0 0 0 0 0 0 0 0 0 0 0 0 0 0 0 0.2 0"/>
<feBlend mode="normal" in2="BackgroundImageFix" result="effect1_dropShadow_1785_8108"/>
<feBlend mode="normal" in="SourceGraphic" in2="effect1_dropShadow_1785_8108" result="shape"/>
</filter>
<linearGradient id="paint0_linear_1785_8108" x1="95.0597" y1="45.363" x2="66.051" y2="106.434" gradientUnits="userSpaceOnUse">
<stop offset="0.300622" stop-color="#7760D9"/>
<stop offset="1" stop-color="#D48BBE"/>
</linearGradient>
</defs>
</svg>
