<svg width="69" height="69" viewBox="0 0 69 69" fill="none" xmlns="http://www.w3.org/2000/svg">
<g clip-path="url(#clip0_1793_7055)">
<g filter="url(#filter0_d_1793_7055)">
<path d="M33.9905 21.67C36.5136 21.67 38.5591 19.6246 38.5591 17.1014C38.5591 14.5783 36.5136 12.5328 33.9905 12.5328C31.4673 12.5328 29.4219 14.5783 29.4219 17.1014C29.4219 19.6246 31.4673 21.67 33.9905 21.67Z" fill="#2779B5"/>
<path d="M33.9905 21.67C36.5136 21.67 38.5591 19.6246 38.5591 17.1014C38.5591 14.5783 36.5136 12.5328 33.9905 12.5328C31.4673 12.5328 29.4219 14.5783 29.4219 17.1014C29.4219 19.6246 31.4673 21.67 33.9905 21.67Z" fill="black"/>
<path fill-rule="evenodd" clip-rule="evenodd" d="M49.9802 24.0623L33.9901 57.4565L28.5791 46.1562C28.5412 45.8814 28.3177 43.8324 29.8781 42.5321C31.5533 41.1361 33.9522 41.1615 33.9522 41.1615C33.9332 41.1595 33.9144 41.1574 33.8955 41.1554C33.9267 41.1562 33.9582 41.1567 33.9901 41.1567C36.7379 41.1567 36.9724 37.9301 37.2395 34.2539C37.5425 30.0858 37.8875 25.3396 41.985 24.0623C44.9671 23.1327 49.9802 24.0623 49.9802 24.0623ZM33.4988 41.1188C31.2126 40.7472 30.991 37.6979 30.7406 34.2539C30.4375 30.0858 30.0925 25.3395 25.9949 24.0623C23.0129 23.1328 18 24.0623 18 24.0623L27.7463 44.4169C27.7558 44.1316 27.9845 40.69 33.4988 41.1188Z" fill="black"/>
<path d="M50.0004 24.0617L33.9725 57.4673L28.574 46.2195C28.574 46.2195 27.7298 40.9659 33.8601 41.1581C39.9904 41.3503 34.0194 26.5539 42.0143 24.0617C44.9964 23.1321 50.0004 24.0617 50.0004 24.0617Z" fill="url(#paint0_linear_1793_7055)"/>
</g>
</g>
<rect x="1.25" y="1.25" width="66.5" height="66.5" rx="10.75" stroke="url(#paint1_linear_1793_7055)" stroke-width="2.5"/>
<defs>
<filter id="filter0_d_1793_7055" x="-1.5698" y="-7.03696" width="82.3228" height="95.2568" filterUnits="userSpaceOnUse" color-interpolation-filters="sRGB">
<feFlood flood-opacity="0" result="BackgroundImageFix"/>
<feColorMatrix in="SourceAlpha" type="matrix" values="0 0 0 0 0 0 0 0 0 0 0 0 0 0 0 0 0 0 127 0" result="hardAlpha"/>
<feOffset dx="5.59137" dy="5.59137"/>
<feGaussianBlur stdDeviation="12.5806"/>
<feComposite in2="hardAlpha" operator="out"/>
<feColorMatrix type="matrix" values="0 0 0 0 0 0 0 0 0 0 0 0 0 0 0 0 0 0 0.2 0"/>
<feBlend mode="normal" in2="BackgroundImageFix" result="effect1_dropShadow_1793_7055"/>
<feBlend mode="normal" in="SourceGraphic" in2="effect1_dropShadow_1793_7055" result="shape"/>
</filter>
<linearGradient id="paint0_linear_1793_7055" x1="50.0563" y1="23.668" x2="34.0284" y2="57.4109" gradientUnits="userSpaceOnUse">
<stop offset="0.300622" stop-color="#7760D9"/>
<stop offset="1" stop-color="#D48BBE"/>
</linearGradient>
<linearGradient id="paint1_linear_1793_7055" x1="34.5" y1="0" x2="34.5" y2="69" gradientUnits="userSpaceOnUse">
<stop offset="0.38" stop-color="#06BA64"/>
<stop offset="1" stop-color="#434343"/>
</linearGradient>
<clipPath id="clip0_1793_7055">
<rect width="68" height="68" fill="white" transform="translate(0 1)"/>
</clipPath>
</defs>
</svg>
