<svg width="86" height="60" viewBox="0 0 86 60" fill="none" xmlns="http://www.w3.org/2000/svg">
<path d="M70.9931 29.2151H57.9382C56.6401 29.2151 55.5742 30.3336 55.5742 31.6528V33.7215H40.5353C40.2609 33.7215 39.9654 33.7425 39.7015 33.8481L28.5675 38.4707C28.5675 37.067 27.4488 35.9482 26.0452 35.9482H12.9903C12.5999 35.9482 12.2938 35.6422 12.3043 35.2306C12.3043 34.8718 12.642 34.5762 13.0219 34.5762H23.5017C24.1877 34.5762 24.7999 34.0909 24.8843 33.4049C25.0004 32.5711 24.3461 31.8747 23.5545 31.8747H12.1249C10.7212 31.8747 9.60254 32.9932 9.60254 34.3969V36.1067C9.60254 37.5103 10.7212 38.6289 12.1249 38.6289H25.127C25.5175 38.6289 25.8129 38.9348 25.8129 39.3148C25.8129 39.6947 25.5175 40.0009 25.127 40.0009H15.0483C14.3623 40.0009 13.7502 40.4862 13.6447 41.1722C13.5286 42.0059 14.1829 42.7027 14.9744 42.7027H25.6336C25.908 42.7027 26.2035 42.6815 26.4674 42.6076C26.6995 42.5549 27.1849 42.3649 27.1849 42.3649L32.2929 40.1063L16.589 59.1556L15.8292 60H17.6867C18.4676 60 19.1958 59.6939 19.7551 59.1556L40.3664 38.6289C40.7252 39.4626 41.559 40.0748 42.5511 40.0748H54.846C55.2576 40.0748 55.5637 40.4653 55.4687 40.8558C55.4054 41.1513 55.131 41.3307 54.8144 41.3307H45.4216C44.7673 41.3307 44.1552 41.8054 44.1236 42.4914C44.0602 43.2407 44.6406 43.8634 45.39 43.8634H55.6903C56.9884 43.8634 58.0543 42.8081 58.0543 41.4994V34.1753C58.0543 32.8772 59.1097 31.8113 60.4183 31.8113H68.4285C69.7266 31.8113 70.7926 32.8666 70.7926 34.1753V35.4628C70.7926 36.1171 71.2781 36.7292 71.9535 36.7609C72.7134 36.8242 73.3571 36.2438 73.3571 35.4945V31.6214C73.3571 30.3233 72.3017 29.2574 70.9931 29.2574L71.0142 29.2257L70.9931 29.2151ZM54.941 37.4996H43.4692C43.1104 37.4996 42.8359 37.2253 42.8359 36.8665C42.8359 36.5077 43.1315 36.2332 43.4692 36.2332H54.941C55.2999 36.2332 55.5742 36.5077 55.5742 36.8665C55.5742 37.2253 55.2788 37.4996 54.941 37.4996Z" fill="white"/>
<path d="M85.1362 13.2871C85.1362 11.8835 84.0175 10.7649 82.6139 10.7649H72.1341C71.5009 10.7649 70.8994 11.187 70.7622 11.8097C70.5617 12.6857 71.2371 13.4664 72.0814 13.4664H81.7169C82.0862 13.4664 82.4344 13.7621 82.4344 14.1315C82.4344 14.5008 82.1284 14.8173 81.7484 14.8173H68.7464C68.4403 14.8173 68.1132 14.8808 67.8177 14.9969L55.2694 20.2843L72.018 0H70.4244C69.6645 0 68.9258 0.306107 68.3771 0.844342L48.4307 20.4108V15.6722C48.4307 14.353 47.3753 13.2977 46.0561 13.2977H32.9696C31.6503 13.2977 30.595 14.353 30.595 15.6722V17.7196C30.595 18.7644 29.7296 19.6087 28.6743 19.6087H19.7354C18.68 19.6087 17.8145 18.7433 17.8145 17.7196V16.9175C17.8145 15.5983 16.7592 14.5429 15.44 14.5429H3.18722C2.92338 14.5429 2.67013 14.3953 2.56459 14.1315C2.40629 13.7093 2.71227 13.266 3.15553 13.266H13.9941C14.8068 13.266 15.4084 12.5695 15.2501 11.7569C15.134 11.1553 14.564 10.7438 13.9624 10.7438H2.37457C1.05536 10.7438 0 11.7991 0 13.1184V14.7014C0 16.0206 1.05536 17.076 2.37457 17.076H14.6273C14.965 17.076 15.2605 17.3502 15.2605 17.709C15.2605 18.0679 14.9546 18.3424 14.5958 18.3424H5.15018C4.33755 18.3424 3.73605 19.0388 3.89436 19.8514C4.01045 20.453 4.58031 20.8646 5.18187 20.8646H15.5034C15.8938 21.6139 16.6748 22.1206 17.6035 22.1206H29.8563C30.1201 22.1206 30.3734 22.2683 30.4789 22.5321C30.6372 22.9543 30.3312 23.3976 29.888 23.3976H19.0599C18.2473 23.3976 17.6457 24.094 17.804 24.9067C17.9201 25.5082 18.4899 25.9198 19.0915 25.9198H30.7005C32.0303 25.9198 33.0962 24.8644 33.0962 23.5558V17.9834C33.1912 16.7592 34.2149 15.799 35.4602 15.799H43.4494C44.7686 15.799 45.8239 16.8544 45.8239 18.1736V23.3976C45.845 23.9675 45.8029 24.474 46.1195 24.9595C46.6577 25.7721 47.6497 26.1204 48.5784 25.7722L66.2241 18.0679V19.0811C66.2241 20.453 67.3428 21.6035 68.7464 21.6035H80.577C81.2102 21.6035 81.8118 21.1811 81.949 20.5585C82.1495 19.6825 81.4741 18.9017 80.6298 18.9017H69.6434C69.2741 18.9017 68.9259 18.6061 68.9259 18.2367C68.9259 17.8673 69.2318 17.5508 69.6117 17.5508H82.6139C84.0175 17.5508 85.1574 16.4111 85.1574 15.0075V13.2977H85.1362V13.2449V13.2871Z" fill="white"/>
<path d="M44.4211 31.7022C45.6801 31.7022 46.7007 30.6817 46.7007 29.4227C46.7007 28.1637 45.6801 27.1432 44.4211 27.1432C43.1621 27.1432 42.1416 28.1637 42.1416 29.4227C42.1416 30.6817 43.1621 31.7022 44.4211 31.7022Z" fill="white"/>
</svg>
