<svg width="234" height="57" viewBox="0 0 234 57" fill="none" xmlns="http://www.w3.org/2000/svg">
<path d="M53.5099 38.0726L50.6927 35.2554L53.5099 32.4382C54.5895 31.3586 55.18 29.9078 55.18 28.3727C55.18 26.8375 54.5727 25.3868 53.5099 24.3071L43.5738 14.371V9.66444C43.5738 8.06185 42.3929 6.67855 40.841 6.47612C40.1662 6.39177 39.4914 6.52673 38.9009 6.86411C38.3105 7.2015 37.8382 7.70759 37.5514 8.33176L31.5459 2.3431C30.5 1.29719 29.083 0.723633 27.6153 0.723633C26.1477 0.723633 24.7306 1.31406 23.6847 2.3431L1.67008 24.324C0.59044 25.4036 0 26.8544 0 28.3895C0 29.9247 0.60731 31.3754 1.67008 32.4551L4.48728 35.2723L1.67008 38.0895C0.59044 39.1691 0 40.6199 0 42.155C0 43.6901 0.60731 45.1409 1.67008 46.2206L9.69993 54.2504C10.7121 55.2626 12.0448 55.9205 13.4956 56.0048C14.3053 56.0554 15.115 55.9374 15.891 55.6506C16.667 55.3638 17.3418 54.9083 17.9322 54.3348L25.8778 46.3892C26.0971 46.1699 26.4007 45.9844 26.6875 45.8494C26.9743 45.7145 27.3285 45.6639 27.6659 45.6639C28.0033 45.6639 28.3238 45.7313 28.6106 45.8663C28.8974 46.0012 29.201 46.1868 29.4203 46.4061L37.349 54.3348C37.9057 54.9252 38.6142 55.3469 39.3902 55.6506C40.1662 55.9374 40.9759 56.0554 41.7856 56.0048C43.2364 55.9205 44.5691 55.2626 45.5813 54.2504L53.6111 46.2206C54.6739 45.1409 55.2812 43.6901 55.2812 42.155C55.2812 40.6199 54.6739 39.1691 53.6111 38.0895H53.5436L53.5099 38.0726ZM4.06554 29.9584C3.86311 29.756 3.67756 29.486 3.57634 29.2161C3.47512 28.9462 3.39078 28.6594 3.39078 28.3389C3.39078 28.0184 3.45825 27.7485 3.57634 27.4617C3.69443 27.1918 3.86311 26.9388 4.06554 26.7195L25.7765 5.00847C26.7549 4.03005 28.3576 4.03005 29.3191 5.00847L51.0301 26.7195C51.9073 27.5967 51.9073 29.0474 51.0301 29.9584L48.2129 32.7756L31.529 16.0748C30.4831 15.0289 29.0661 14.4554 27.5984 14.4554C26.1308 14.4554 24.7137 15.0458 23.6678 16.0748L6.89962 32.7925L4.0824 29.9415H4.06554V29.9584ZM45.7837 35.2217L43.0002 38.0051C42.5954 38.41 42.0556 38.6799 41.482 38.7305C40.8241 38.7811 40.1999 38.5281 39.7276 38.0726L31.4953 29.8403C30.4494 28.7944 29.0323 28.2208 27.5647 28.2208C26.0971 28.2208 24.68 28.8113 23.6341 29.8403L15.4018 38.0726C15.1994 38.275 14.9463 38.4606 14.6596 38.5618C14.3896 38.6799 14.1029 38.7474 13.7823 38.7474C13.4956 38.7474 13.1919 38.6799 12.9051 38.5618C12.6352 38.4437 12.3822 38.275 12.1629 38.0726L9.34569 35.2554L25.8103 18.8077C26.0296 18.5884 26.3332 18.4028 26.62 18.2679C26.9068 18.1329 27.261 18.0823 27.5984 18.0823C27.9358 18.0823 28.2563 18.1498 28.5431 18.2847C28.8299 18.4197 29.1336 18.6053 29.3529 18.8246L45.75 35.2723V35.2217H45.7837ZM51.0638 43.7407L43.0171 51.7875C42.6122 52.1923 42.0724 52.4622 41.4989 52.5129C40.841 52.5635 40.2168 52.3104 39.7444 51.8549L31.5121 43.6564C30.4662 42.6105 29.0492 42.0369 27.5816 42.0369C26.1139 42.0369 24.6969 42.6274 23.651 43.6564L15.4187 51.8549C14.9632 52.3273 14.3053 52.5635 13.6643 52.5129C13.0738 52.4622 12.5509 52.2261 12.146 51.7875L4.09929 43.7407C3.89686 43.5383 3.71128 43.2684 3.61006 42.9985C3.49198 42.7286 3.4245 42.4418 3.4245 42.1213C3.4245 41.8008 3.49198 41.5308 3.61006 41.2441C3.72815 40.9741 3.89686 40.7211 4.09929 40.5018L6.91649 37.6846L9.64933 40.4175C10.6615 41.4296 11.9942 42.0875 13.445 42.1719C14.2547 42.2225 15.0644 42.1044 15.8404 41.8176C16.6164 41.5308 17.2912 41.0754 17.8816 40.5018L25.8271 32.5563C26.2995 32.0839 26.9405 31.8309 27.6153 31.8309C28.2901 31.8309 28.9311 32.1008 29.3697 32.5732L37.2984 40.5187C37.855 41.1091 38.5636 41.5308 39.3396 41.8345C40.1156 42.1213 40.9253 42.2394 41.735 42.1888C43.1858 42.1044 44.5185 41.4465 45.5307 40.4343L48.2635 37.7015L51.0807 40.5187C51.5024 40.9404 51.7386 41.5308 51.7386 42.1213C51.7386 42.7117 51.4856 43.3021 51.0807 43.7239H51.0301L51.0638 43.7407Z" fill="white"/>
<path d="M87.2483 41.7677H84.8697C84.8697 41.7677 84.8022 41.7677 84.7854 41.7846C84.7685 41.7846 84.7348 41.8352 84.7179 41.8689L83.3009 45.9344C83.0478 46.6598 82.6261 47.8576 82.3899 48.7348C82.3899 48.7854 82.373 48.8023 82.3224 48.8191C82.3056 48.836 82.255 48.8697 82.2044 48.8697C82.1537 48.8697 82.1369 48.8697 82.0863 48.8191C82.0694 48.8023 82.0357 48.7517 82.0188 48.7348C81.7657 47.8238 81.344 46.6261 81.0741 45.9176L79.5896 41.852C79.5896 41.852 79.539 41.7846 79.5221 41.7677C79.5052 41.7677 79.4546 41.7508 79.4378 41.7508H77.0592C77.0592 41.7508 76.9748 41.7508 76.9242 41.8014C76.9073 41.8183 76.8736 41.8689 76.8736 41.9364V42.0039L80.7873 51.8556L79.2522 55.7019V55.7693C79.2522 55.8537 79.3365 55.9549 79.4378 55.9549H81.7151C81.7151 55.9549 81.7826 55.9549 81.7995 55.938C81.8163 55.938 81.8501 55.8874 81.8669 55.8537L87.3495 42.0207V41.9533C87.3495 41.9533 87.3495 41.8689 87.2989 41.8183C87.282 41.8014 87.2314 41.7677 87.1639 41.7677H87.2314H87.2483ZM68.7256 43.4884C68.7256 43.4884 68.675 43.539 68.6582 43.5559C68.6413 43.5559 68.5907 43.5727 68.5738 43.5727C68.5232 43.5727 68.4895 43.5727 68.4389 43.5221C68.422 43.5052 68.3883 43.4546 68.3883 43.3872C68.3883 43.2016 68.5738 41.8689 68.5738 38.5456V37.4997C68.5738 37.4997 68.5738 37.4154 68.5232 37.3648C68.4726 37.3479 68.4557 37.3142 68.3883 37.3142H66.1277C66.1277 37.3142 66.0434 37.3142 65.9928 37.3648C65.9759 37.3816 65.9422 37.4322 65.9422 37.4997V51.6701C65.9422 51.6701 66.0265 51.8556 66.1277 51.8556H68.2027C68.2027 51.8556 68.2871 51.8556 68.3377 51.805C68.3545 51.7882 68.3883 51.7375 68.3883 51.6701V50.2193C68.3883 50.2193 68.3883 50.1518 68.4389 50.1012C68.4557 50.0843 68.5064 50.0506 68.5232 50.0337H68.6413C68.6413 50.0337 68.7088 50.0843 68.7256 50.1181C68.9281 50.5398 69.839 52.0243 72.032 52.0243C74.6299 52.0243 76.7724 49.7469 76.7724 46.7611C76.7724 43.7752 74.6468 41.4978 72.032 41.4978C70.2101 41.4978 69.1643 42.5606 68.7256 43.4209V43.4715V43.4884ZM74.1576 46.8285C74.1576 48.3805 72.9093 49.6457 71.4079 49.6457C69.9065 49.6457 68.6582 48.3805 68.6582 46.8285C68.6582 45.2765 69.9065 44.0113 71.4079 44.0113C72.9093 44.0113 74.1576 45.2765 74.1576 46.8285ZM179.592 46.1875C179.592 46.1875 179.507 46.1875 179.457 46.1369C179.44 46.12 179.406 46.0694 179.406 46.0019V43.8932C179.406 43.8932 179.406 43.8089 179.457 43.7583C179.474 43.7414 179.524 43.7077 179.592 43.7077H185.715C186.154 43.7077 186.424 44.0451 186.424 44.3825V45.091C186.306 49.2409 183.758 52.1424 179.676 52.1424C175.594 52.1424 172.507 48.8191 172.507 44.6692C172.507 40.5194 175.577 37.0949 179.744 37.0949C182.999 37.0949 184.72 39.1529 184.821 39.2204C184.821 39.2204 184.838 39.271 184.872 39.271V39.406C184.872 39.406 184.872 39.4566 184.821 39.4734L183.269 41.1267C183.269 41.1267 183.202 41.1773 183.151 41.1773C183.101 41.1773 183.067 41.1773 183.016 41.1267C182.932 41.0423 181.751 39.659 179.744 39.659C177.028 39.659 175.155 41.9364 175.155 44.6524C175.155 47.3684 177.028 49.5783 179.693 49.5783C181.802 49.5783 183.303 48.448 183.674 46.6261V46.4911C183.674 46.4911 183.674 46.4068 183.657 46.3562C183.64 46.3056 183.607 46.2718 183.59 46.2381C183.573 46.2212 183.522 46.1706 183.472 46.1706C183.421 46.1706 183.387 46.1538 183.337 46.1538H179.592V46.2044V46.1875ZM191.485 52.0581C189.494 52.0581 188.026 50.6073 188.026 48.0094V41.9533C188.026 41.9533 188.026 41.8689 188.077 41.8183C188.094 41.8014 188.145 41.7677 188.195 41.7677H190.456C190.456 41.7677 190.54 41.7677 190.591 41.8183C190.607 41.8352 190.641 41.8858 190.641 41.9533V47.3684C190.641 48.9541 191.35 49.7132 192.632 49.7132C193.914 49.7132 194.707 48.9035 194.707 47.3684V41.9533C194.707 41.9533 194.707 41.8689 194.757 41.8183C194.774 41.8014 194.825 41.7677 194.892 41.7677H197.153C197.153 41.7677 197.237 41.7677 197.288 41.8183C197.305 41.8352 197.338 41.8858 197.338 41.9533V51.7207C197.338 51.7207 197.338 51.805 197.288 51.8556C197.271 51.8725 197.22 51.9062 197.153 51.9062H195.078C195.078 51.9062 194.994 51.9062 194.943 51.8556C194.926 51.8388 194.892 51.7881 194.892 51.7207V49.9156C194.892 49.9156 194.892 49.8313 194.842 49.7807C194.825 49.7638 194.774 49.7301 194.707 49.7301C194.622 49.7301 194.555 49.7976 194.521 49.8819C194.268 50.7254 193.509 52.0581 191.468 52.0581H191.485ZM116.061 41.5315C115.353 41.5315 114.678 41.6665 114.02 41.9364C113.379 42.2063 112.806 42.5943 112.299 43.0835C111.81 43.5727 111.422 44.1632 111.152 44.8042C110.882 45.4452 110.747 46.1369 110.747 46.8454C110.747 48.2456 111.304 49.5951 112.299 50.5904C113.295 51.5857 114.644 52.1424 116.044 52.1424C117.445 52.1424 118.794 51.5857 119.789 50.5904C120.785 49.5951 121.341 48.2456 121.341 46.8454C121.341 46.1369 121.207 45.4621 120.937 44.8042C120.667 44.1632 120.279 43.5896 119.789 43.0835C119.3 42.5943 118.71 42.2063 118.069 41.9364C117.428 41.6665 116.736 41.5315 116.028 41.5315H116.061ZM116.061 49.6626C114.526 49.6626 113.312 48.3974 113.312 46.8454C113.312 45.2934 114.56 44.0282 116.061 44.0282C117.563 44.0282 118.811 45.2934 118.811 46.8454C118.811 48.3974 117.563 49.6626 116.061 49.6626ZM108.673 44.0282C108.031 44.0282 107.407 44.3487 107.053 45.091C106.8 45.6139 106.716 46.3393 106.716 47.284V51.6869C106.716 51.6869 106.716 51.7713 106.665 51.8219C106.648 51.8388 106.581 51.8725 106.53 51.8725H104.27C104.27 51.8725 104.185 51.8725 104.135 51.8219C104.084 51.805 104.084 51.7375 104.084 51.6869V41.9195C104.084 41.9195 104.084 41.8352 104.135 41.7846C104.152 41.7677 104.202 41.734 104.27 41.734H106.345C106.345 41.734 106.429 41.734 106.479 41.7846C106.496 41.8014 106.53 41.852 106.53 41.9195V43.7246C106.53 43.7246 106.614 43.9101 106.716 43.9101C106.817 43.9101 106.867 43.8426 106.901 43.7583C107.087 43.151 107.357 42.4087 107.947 41.9364C108.268 41.6833 108.656 41.5484 109.061 41.5484C109.398 41.5484 109.735 41.6327 110.123 41.8689C110.14 41.8689 110.174 41.9195 110.191 41.9364V44.2475C110.191 44.2475 110.191 44.3319 110.14 44.3825C110.123 44.3993 110.073 44.4331 110.022 44.4331C109.971 44.4331 109.955 44.4331 109.938 44.4162C109.583 44.1969 109.162 44.0788 108.74 44.0788H108.689L108.673 44.0282ZM151.673 44.0282C151.032 44.0282 150.408 44.3487 150.053 45.091C149.8 45.6139 149.716 46.3393 149.716 47.284V51.6869C149.716 51.6869 149.716 51.7713 149.665 51.8219C149.648 51.8388 149.598 51.8725 149.53 51.8725H147.27C147.27 51.8725 147.185 51.8725 147.135 51.8219C147.118 51.805 147.084 51.7375 147.084 51.6869V41.9195C147.084 41.9195 147.084 41.8352 147.135 41.7846C147.152 41.7677 147.202 41.734 147.27 41.734H149.345C149.345 41.734 149.429 41.734 149.48 41.7846C149.497 41.8014 149.53 41.852 149.53 41.9195V43.7246C149.53 43.7246 149.615 43.9101 149.716 43.9101C149.817 43.9101 149.868 43.8426 149.901 43.7583C150.087 43.151 150.357 42.4087 150.947 41.9364C151.268 41.6833 151.656 41.5484 152.061 41.5484C152.398 41.5484 152.736 41.6327 153.124 41.8689C153.174 41.8858 153.191 41.9533 153.191 42.0039V44.2138C153.191 44.2138 153.191 44.2981 153.14 44.3487C153.124 44.3656 153.073 44.3993 153.005 44.3993C152.955 44.3993 152.938 44.3993 152.921 44.3825C152.634 44.1969 152.213 44.0451 151.723 44.0451H151.706L151.673 44.0282ZM204.137 44.0282C203.496 44.0282 202.872 44.3487 202.517 45.091C202.264 45.6139 202.18 46.3393 202.18 47.284V51.6869C202.18 51.6869 202.18 51.7713 202.129 51.8219C202.112 51.8388 202.062 51.8725 201.994 51.8725H199.734C199.734 51.8725 199.649 51.8725 199.599 51.8219C199.582 51.805 199.548 51.7375 199.548 51.6869V41.9195C199.548 41.9195 199.548 41.8352 199.599 41.7846C199.616 41.7677 199.666 41.734 199.734 41.734H201.809C201.809 41.734 201.893 41.734 201.944 41.7846C201.961 41.8014 201.994 41.852 201.994 41.9195V43.7246C201.994 43.7246 202.079 43.9101 202.18 43.9101C202.281 43.9101 202.332 43.8426 202.365 43.7583C202.551 43.151 202.821 42.4087 203.411 41.9364C203.732 41.6833 204.12 41.5484 204.525 41.5484C204.862 41.5484 205.2 41.6327 205.588 41.8689C205.604 41.8689 205.638 41.9195 205.655 41.9364V44.2475C205.655 44.2475 205.655 44.3319 205.604 44.3825C205.587 44.3993 205.537 44.4331 205.469 44.4331C205.419 44.4331 205.402 44.4331 205.385 44.4162C205.031 44.1969 204.609 44.0788 204.187 44.0788H204.171L204.137 44.0282ZM210.48 52.0581C208.489 52.0581 207.021 50.6073 207.021 48.0094V41.9533C207.021 41.9533 207.021 41.8689 207.072 41.8183C207.089 41.8014 207.14 41.7677 207.207 41.7677H209.467C209.467 41.7677 209.552 41.7677 209.602 41.8183C209.619 41.8352 209.653 41.8858 209.653 41.9533V47.3684C209.653 48.9541 210.362 49.7132 211.644 49.7132C212.926 49.7132 213.719 48.9035 213.719 47.3684V41.9533C213.719 41.9533 213.719 41.8689 213.769 41.8183C213.82 41.7677 213.837 41.7677 213.904 41.7677H216.165C216.165 41.7677 216.249 41.7677 216.3 41.8183C216.317 41.8352 216.35 41.8858 216.35 41.9533V51.7207C216.35 51.7207 216.35 51.805 216.3 51.8556C216.283 51.8725 216.232 51.9062 216.165 51.9062H214.09C214.09 51.9062 214.005 51.9062 213.955 51.8556C213.904 51.805 213.904 51.7881 213.904 51.7207V49.9156C213.904 49.9156 213.904 49.8313 213.854 49.7807C213.837 49.7638 213.786 49.7301 213.719 49.7301C213.634 49.7301 213.567 49.7976 213.533 49.8819C213.28 50.7254 212.521 52.0581 210.48 52.0581ZM170.971 41.7677H168.593C168.593 41.7677 168.525 41.7677 168.508 41.7846C168.492 41.7846 168.458 41.8352 168.441 41.8689L167.024 45.9344C166.771 46.6598 166.349 47.8576 166.113 48.7348C166.113 48.7854 166.096 48.8023 166.046 48.8191C166.029 48.836 165.978 48.8697 165.927 48.8697C165.877 48.8697 165.86 48.8697 165.809 48.8191C165.792 48.8023 165.759 48.7517 165.742 48.7348C165.489 47.8238 165.067 46.6261 164.797 45.9176L163.313 41.852C163.313 41.852 163.262 41.7846 163.245 41.7677C163.228 41.7677 163.178 41.7508 163.161 41.7508H160.782C160.782 41.7508 160.698 41.7508 160.647 41.8014C160.63 41.8183 160.597 41.8689 160.597 41.9364V42.0039L164.51 51.8556L162.975 55.7019V55.7693C162.975 55.8537 163.06 55.9549 163.161 55.9549H165.472C165.472 55.9549 165.539 55.9549 165.556 55.938C165.573 55.938 165.607 55.8874 165.624 55.8537L171.106 42.0207V41.9533C171.106 41.9533 171.089 41.8689 171.056 41.8183C171.005 41.8014 170.971 41.7677 170.921 41.7677H170.971ZM97.3194 37.3479H92.7984C92.7984 37.3479 92.6128 37.3479 92.5284 37.3985C92.4441 37.4491 92.3766 37.4829 92.3091 37.5503C92.2417 37.6178 92.1911 37.6853 92.1573 37.7696C92.1067 37.854 92.1067 37.9552 92.1067 38.0395V51.6869C92.1067 51.6869 92.1911 51.8725 92.2923 51.8725H94.5528C94.5528 51.8725 94.6371 51.8725 94.6877 51.8219C94.7046 51.805 94.7383 51.7544 94.7383 51.6869V48.2962C94.7383 48.0937 94.8902 47.9419 95.0926 47.9419H97.3531C100.373 47.9419 102.751 45.5633 102.751 42.628C102.751 39.6928 100.373 37.3142 97.3531 37.3142H97.3362L97.3194 37.3479ZM97.1001 45.5971H95.0589C95.0589 45.5971 94.9745 45.5971 94.9239 45.5802C94.8733 45.5802 94.8395 45.5296 94.8058 45.5127C94.7889 45.4958 94.7383 45.4452 94.7383 45.3946C94.7383 45.344 94.7215 45.3103 94.7215 45.2597V40.1314C94.7215 39.9289 94.8733 39.7771 95.0757 39.7771H97.1169C98.8039 39.7771 100.12 41.0929 100.12 42.6955C100.12 44.2981 98.8039 45.6139 97.1169 45.6139H97.1001V45.5971ZM157.155 44.1969C157.155 44.1969 157.155 44.1125 157.206 44.0619C157.223 44.0451 157.273 44.0113 157.341 44.0113H159.45C159.45 44.0113 159.534 44.0113 159.584 43.9607C159.601 43.9439 159.635 43.8932 159.635 43.8258V41.9533C159.635 41.9533 159.635 41.8689 159.584 41.8183C159.568 41.8014 159.517 41.7677 159.45 41.7677H157.122C157.122 41.7677 157.037 41.7677 156.987 41.7171C156.97 41.7002 156.936 41.6327 156.936 41.5821V39.2373C156.936 39.2373 156.936 39.1529 156.885 39.1023C156.869 39.0855 156.818 39.0517 156.75 39.0517H154.743C154.743 39.0517 154.659 39.0517 154.608 39.1023C154.557 39.1529 154.557 39.1698 154.557 39.2373V48.8023C154.557 51.2652 155.755 52.1255 157.307 52.1255C158.302 52.1255 158.893 51.8388 159.129 51.7038C159.18 51.7038 159.196 51.6532 159.213 51.6363C159.213 51.6195 159.23 51.5688 159.23 51.5182V49.9831C159.23 49.865 159.112 49.7638 158.96 49.8313C158.64 49.9494 158.37 50.0337 158.049 50.0337C157.577 50.0337 157.122 49.8144 157.122 48.9541V44.2138L157.155 44.1969ZM129.034 52.0918C131.632 52.0918 133.774 49.8144 133.774 46.8285C133.774 43.8426 131.649 41.5653 129.034 41.5653C126.841 41.5653 125.93 43.0329 125.728 43.4715C125.728 43.4884 125.677 43.539 125.66 43.539C125.643 43.539 125.593 43.5559 125.576 43.5559C125.525 43.5559 125.491 43.5559 125.441 43.5052C125.424 43.4884 125.39 43.4378 125.39 43.3703V41.9195C125.39 41.9195 125.39 41.8352 125.34 41.7846C125.323 41.7677 125.272 41.734 125.205 41.734H123.13C123.13 41.734 123.045 41.734 122.995 41.7846C122.978 41.8014 122.944 41.852 122.944 41.9195V55.7525C122.944 55.7525 123.028 55.938 123.13 55.938H125.39C125.39 55.938 125.475 55.938 125.525 55.8874C125.542 55.8706 125.576 55.82 125.576 55.7525V55.0777C125.576 51.7375 125.39 50.4049 125.39 50.2362C125.39 50.1856 125.39 50.1518 125.441 50.1012C125.458 50.0843 125.508 50.0506 125.576 50.0506C125.66 50.0506 125.711 50.1181 125.728 50.1349C126.149 50.9953 127.195 52.0581 129.034 52.0581V52.0918ZM128.393 49.6626C126.858 49.6626 125.643 48.3974 125.643 46.8454C125.643 45.2934 126.892 44.0282 128.393 44.0282C129.894 44.0282 131.143 45.2934 131.143 46.8454C131.143 48.3974 129.894 49.6626 128.393 49.6626ZM140.303 41.5315C137.367 41.5315 135.225 43.9101 135.225 46.8454C135.225 49.7807 137.469 52.1593 140.505 52.1593C142.158 52.1593 143.424 51.5688 144.25 50.9109C144.301 50.8941 144.318 50.8435 144.318 50.7929C144.318 50.7422 144.318 50.7085 144.301 50.6579L143.373 49.3758C143.373 49.3758 143.356 49.3252 143.322 49.3252C143.322 49.3252 143.272 49.3252 143.255 49.3083H143.187C143.187 49.3083 143.137 49.3083 143.12 49.3252C142.715 49.5951 142.108 50.0675 140.724 50.0675C140.168 50.0675 139.594 49.9156 139.122 49.5951C138.65 49.2746 138.262 48.8529 138.042 48.3299C137.992 48.2456 137.924 48.0769 137.924 48.0094C137.924 47.9588 137.924 47.925 137.975 47.8744C137.992 47.8576 138.042 47.8238 138.11 47.8238H144.588C144.773 47.8238 144.942 47.7564 145.077 47.6214C145.212 47.4864 145.279 47.3009 145.296 47.1322C145.448 44.0113 143.71 41.5484 140.32 41.5484H140.269L140.303 41.5315ZM142.546 46.0188H137.975C137.975 46.0188 137.89 46.0188 137.84 45.9682C137.789 45.9176 137.789 45.8838 137.789 45.8332C137.789 45.7826 137.84 45.6477 137.874 45.5127C138.228 44.3656 139.189 43.6908 140.421 43.6908C141.484 43.6908 142.243 44.2138 142.664 45.0235C142.783 45.2428 142.867 45.5465 142.867 45.6645C142.867 45.867 142.715 46.0188 142.513 46.0188H142.53H142.546ZM94.0973 5.12724H87.7206C87.4339 5.12724 87.1302 5.24533 86.9278 5.46463C86.7253 5.66707 86.5904 5.95385 86.5904 6.2575V27.1419C86.5904 27.7829 87.0796 28.2721 87.7206 28.2721H94.0973C99.816 28.2721 104.421 23.0932 104.421 16.6997C104.421 10.3062 99.7823 5.12724 94.0973 5.12724ZM93.1695 24.4596H91.3138C91.3138 24.4596 91.162 24.4596 91.0945 24.409C91.0271 24.3922 90.9596 24.3416 90.909 24.2909C90.8584 24.2403 90.8246 24.1729 90.7909 24.1054C90.7572 24.0379 90.7403 23.9704 90.7403 23.8861V9.46269C90.7403 9.14217 90.9933 8.906 91.297 8.906H93.1526C96.9988 8.906 100.086 12.3811 100.086 16.6828C100.086 20.9845 96.9651 24.4596 93.1526 24.4596H93.1695ZM146.173 11.7738C145.043 11.7738 143.93 11.9594 142.901 12.3642C141.855 12.7691 140.91 13.4101 140.1 14.1861C139.307 14.979 138.65 15.9068 138.228 16.9359C137.806 17.9818 137.57 19.0783 137.57 20.2085C137.57 21.3388 137.789 22.4522 138.228 23.4812C138.65 24.5271 139.291 25.4549 140.1 26.2309C140.893 27.0238 141.838 27.6311 142.901 28.0528C143.947 28.4577 145.043 28.6601 146.173 28.6433C148.383 28.5927 150.492 27.6986 152.044 26.1128C153.596 24.5271 154.456 22.4016 154.456 20.1917C154.456 17.9818 153.596 15.8562 152.044 14.2705C150.492 12.6848 148.383 11.7907 146.173 11.7401V11.7738ZM146.173 24.7127C143.727 24.7127 141.77 22.7052 141.77 20.2085C141.77 17.7119 143.744 15.7044 146.173 15.7044C148.603 15.7044 150.576 17.7119 150.576 20.2085C150.576 22.7052 148.603 24.7127 146.173 24.7127ZM134.432 15.7719C133.42 15.7719 132.391 16.2611 131.834 17.4419C131.429 18.2517 131.294 19.4157 131.294 20.9508V27.9854C131.294 28.1372 131.176 28.2553 131.025 28.2553H127.431C127.431 28.2553 127.296 28.2384 127.229 28.1709C127.178 28.1203 127.145 28.0528 127.145 27.9685V12.4486C127.145 12.2968 127.263 12.1787 127.414 12.1787H130.721C130.873 12.1787 130.991 12.3136 130.991 12.4486V15.3164C130.991 15.4682 131.126 15.5863 131.261 15.5863C131.396 15.5863 131.514 15.4682 131.547 15.3333C131.817 14.3548 132.273 13.1908 133.201 12.4148C133.69 12.01 134.331 11.8075 134.955 11.8244C135.478 11.8244 136.069 11.9594 136.625 12.3136C136.676 12.3305 136.693 12.3811 136.71 12.4317C136.71 12.4823 136.726 12.5161 136.726 12.5667V16.0924C136.726 16.2442 136.608 16.3623 136.456 16.3623C136.406 16.3623 136.338 16.3623 136.305 16.3117C135.832 16.0418 135.191 15.7719 134.398 15.7719H134.415H134.432ZM202.888 15.7719C201.876 15.7719 200.847 16.2611 200.29 17.4419C199.886 18.2517 199.751 19.4157 199.751 20.9508V27.9854C199.751 27.9854 199.734 28.1203 199.683 28.1878C199.633 28.2384 199.565 28.2721 199.481 28.2721H195.888C195.888 28.2721 195.753 28.2553 195.685 28.1878C195.635 28.1372 195.601 28.0697 195.601 27.9854V12.4655C195.601 12.3136 195.736 12.1955 195.871 12.1955H199.177C199.329 12.1955 199.447 12.3305 199.447 12.4655V15.3333C199.447 15.4851 199.582 15.6032 199.717 15.6032C199.852 15.6032 199.97 15.4851 200.004 15.3501C200.291 14.3717 200.729 13.2077 201.657 12.4317C202.146 12.0269 202.787 11.8244 203.411 11.8413C203.934 11.8413 204.525 11.9762 205.081 12.3305C205.132 12.3474 205.149 12.398 205.166 12.4148C205.166 12.4655 205.183 12.4992 205.183 12.5498V16.0755C205.183 16.0755 205.166 16.2105 205.098 16.278C205.048 16.3286 204.98 16.3623 204.896 16.3623C204.845 16.3623 204.778 16.3623 204.744 16.3117C204.272 16.0418 203.631 15.7719 202.838 15.7719H202.888ZM233.574 12.1787H229.795C229.795 12.1787 229.677 12.1787 229.643 12.2293C229.593 12.2462 229.559 12.3136 229.525 12.3642C229.525 12.3642 228.007 16.6491 227.248 18.8252C226.843 19.9555 226.168 21.8786 225.797 23.2956C225.797 23.3631 225.747 23.4137 225.713 23.4475C225.662 23.4981 225.595 23.5149 225.527 23.5149C225.46 23.5149 225.409 23.5149 225.342 23.4475C225.291 23.3969 225.257 23.3631 225.224 23.2956C224.836 21.8786 224.144 19.9555 223.705 18.7915L221.36 12.3305C221.36 12.3305 221.31 12.2462 221.242 12.1955C221.192 12.1787 221.124 12.1449 221.091 12.1449H217.312C217.312 12.1449 217.227 12.1449 217.177 12.1618C217.126 12.1618 217.109 12.2124 217.093 12.2462C217.076 12.2968 217.042 12.3305 217.042 12.3811V12.5161L223.284 28.2215L220.838 34.3283C220.838 34.3283 220.821 34.4126 220.838 34.4632C220.838 34.5138 220.838 34.5476 220.888 34.5982C220.905 34.6488 220.956 34.6657 220.972 34.6825C221.023 34.6825 221.057 34.6994 221.107 34.6994H224.768C224.768 34.6994 224.886 34.6994 224.92 34.6488C224.971 34.5982 225.004 34.5813 225.038 34.5138L233.776 12.4992C233.776 12.4992 233.793 12.4148 233.776 12.3642C233.776 12.3136 233.776 12.2799 233.726 12.2293C233.709 12.1787 233.658 12.1618 233.641 12.1449C233.591 12.1449 233.557 12.1281 233.506 12.1281H233.557L233.574 12.1787ZM211.61 16.008C211.61 15.8562 211.745 15.7381 211.88 15.7381H215.203C215.203 15.7381 215.338 15.7213 215.406 15.6538C215.456 15.6032 215.49 15.5357 215.49 15.4513V12.4486C215.49 12.4486 215.473 12.3136 215.406 12.2462C215.355 12.1955 215.287 12.1618 215.203 12.1618H211.492C211.492 12.1618 211.357 12.1449 211.289 12.0775C211.239 12.0269 211.205 11.9594 211.205 11.875V8.13001C211.205 8.13001 211.188 7.99505 211.121 7.92757C211.07 7.87697 211.003 7.84323 210.918 7.84323H207.713C207.713 7.84323 207.578 7.8601 207.511 7.92757C207.46 7.97818 207.426 8.04566 207.426 8.13001V23.3631C207.426 27.2937 209.349 28.6433 211.829 28.6433C213.415 28.6433 214.36 28.1709 214.748 27.9685C214.815 27.9516 214.866 27.901 214.883 27.8504C214.899 27.7998 214.933 27.7323 214.933 27.6648V25.2188C214.933 25.0332 214.748 24.8814 214.528 24.9657C214.039 25.1513 213.601 25.2862 213.078 25.2862C212.335 25.2862 211.61 24.9489 211.61 23.5656V15.9912H211.627L211.61 16.008ZM166.838 28.5758C170.971 28.5758 174.379 24.9657 174.379 20.1917C174.379 15.4176 170.988 11.8075 166.838 11.8075C163.363 11.8075 161.929 14.1524 161.592 14.8272C161.575 14.8778 161.525 14.9115 161.474 14.9453C161.423 14.9621 161.39 14.9959 161.322 14.9959C161.255 14.9959 161.187 14.979 161.12 14.9115C161.069 14.8609 161.035 14.7934 161.035 14.7091V12.398C161.035 12.398 161.018 12.263 160.951 12.1955C160.9 12.1449 160.833 12.1112 160.748 12.1112H157.442C157.442 12.1112 157.307 12.1281 157.24 12.1955C157.189 12.2462 157.155 12.3136 157.155 12.398V34.4126C157.155 34.5644 157.29 34.6825 157.425 34.6825H161.018C161.17 34.6825 161.288 34.5476 161.288 34.4126V33.333C161.288 28.0022 161.002 25.8935 161.002 25.6236C161.002 25.5562 161.002 25.4887 161.069 25.4381C161.12 25.3875 161.153 25.3537 161.221 25.3537H161.406C161.406 25.3537 161.524 25.4212 161.541 25.4887C162.216 26.8382 163.886 28.542 166.805 28.542L166.855 28.5927L166.838 28.5758ZM165.809 24.7127C163.363 24.7127 161.406 22.7052 161.406 20.2085C161.406 17.7119 163.38 15.7044 165.809 15.7044C168.239 15.7044 170.212 17.7119 170.212 20.2085C170.212 22.7052 168.239 24.7127 165.809 24.7127ZM184.771 11.7738C180.115 11.7738 176.69 15.5526 176.69 20.2254C176.69 24.8982 180.266 28.677 185.091 28.677C187.706 28.677 189.73 27.7661 191.063 26.6864C191.13 26.6358 191.147 26.5683 191.181 26.5008C191.181 26.4334 191.181 26.3659 191.13 26.2984L189.646 24.2403C189.646 24.2403 189.528 24.156 189.46 24.1222C189.393 24.1222 189.309 24.1222 189.258 24.1729C188.6 24.5946 187.638 25.3706 185.445 25.3706C183.59 25.3706 181.937 24.2909 181.144 22.5871C181.076 22.4353 180.958 22.1823 180.958 22.0979C180.958 21.9461 181.093 21.828 181.228 21.828H191.552C192.008 21.828 192.666 21.5075 192.699 20.7146C192.952 15.7381 190.169 11.8075 184.771 11.8075V11.7569V11.7738ZM188.347 18.9096H181.093C181.093 18.9096 180.958 18.8927 180.891 18.8252C180.84 18.7746 180.806 18.7072 180.806 18.6228C180.806 18.5553 180.874 18.3023 180.941 18.1336C181.532 16.3117 183.016 15.2489 184.99 15.2489C186.66 15.2489 187.908 16.0924 188.566 17.3745C188.752 17.7287 188.904 18.2179 188.904 18.3698C188.904 18.5216 188.836 18.6565 188.752 18.7746C188.634 18.8927 188.499 18.9265 188.347 18.9265H188.364L188.347 18.9096ZM117.057 28.5758C121.19 28.5758 124.597 24.9657 124.597 20.1917C124.597 15.4176 121.207 11.8075 117.057 11.8075C113.582 11.8075 112.148 14.1524 111.81 14.8272C111.793 14.8778 111.743 14.9115 111.692 14.9453C111.642 14.9621 111.608 14.9959 111.54 14.9959C111.473 14.9959 111.405 14.979 111.338 14.9115C111.287 14.8609 111.254 14.7934 111.254 14.7091V12.398C111.254 12.398 111.237 12.263 111.169 12.1955C111.119 12.1449 111.051 12.1112 110.967 12.1112H107.66C107.66 12.1112 107.525 12.1281 107.458 12.1955C107.407 12.2462 107.374 12.3136 107.374 12.398V34.4126C107.374 34.5644 107.509 34.6825 107.643 34.6825H111.237C111.389 34.6825 111.507 34.5476 111.507 34.4126V33.333C111.507 28.0022 111.22 25.8935 111.22 25.6236C111.22 25.4718 111.338 25.3537 111.49 25.3537C111.642 25.3537 111.709 25.4718 111.743 25.5055C112.418 26.8551 114.088 28.5589 117.006 28.5589H117.074L117.057 28.5758ZM116.028 24.7127C113.582 24.7127 111.625 22.7052 111.625 20.2085C111.625 17.7119 113.598 15.7044 116.028 15.7044C118.457 15.7044 120.431 17.7119 120.431 20.2085C120.431 22.7052 118.457 24.7127 116.028 24.7127ZM73.466 5.12724H67.0893C66.9375 5.12724 66.8025 5.14411 66.6676 5.21159C66.5326 5.2622 66.3977 5.34655 66.3133 5.46463C66.1952 5.58272 66.1278 5.68394 66.0603 5.81889C65.9928 5.95385 65.9759 6.10567 65.9759 6.24063V27.125C65.9759 27.7661 66.4651 28.2553 67.1062 28.2553H73.4828C79.2016 28.2553 83.8069 23.0763 83.8069 16.6828C83.8069 10.2893 79.1678 5.11037 73.4828 5.11037L73.466 5.12724ZM72.5381 24.4596H70.6825C70.6825 24.4596 70.5475 24.4596 70.4632 24.409C70.3957 24.3922 70.3282 24.3416 70.2776 24.2909C70.227 24.2403 70.1933 24.1729 70.1596 24.1054C70.1258 24.0379 70.1089 23.9704 70.1089 23.8861V9.46269C70.1089 9.14217 70.362 8.906 70.6656 8.906H72.5213C76.3675 8.906 79.4546 12.3811 79.4546 16.6828C79.4546 20.9845 76.3338 24.4596 72.5213 24.4596H72.5381Z" fill="white"/>
</svg>
