<svg width="213" height="286" viewBox="0 0 213 286" fill="none" xmlns="http://www.w3.org/2000/svg">
<path d="M33.7384 217.815C33.7105 219.41 33.3419 220.98 32.6572 222.421C31.9725 223.861 30.9876 225.139 29.7684 226.168C28.5493 227.198 27.1241 227.955 25.5882 228.389C24.0524 228.823 22.4413 228.924 20.8631 228.686H14.4255C13.9167 228.763 13.3973 228.726 12.9046 228.577C12.4119 228.429 11.9582 228.174 11.5763 227.829C11.1945 227.484 10.894 227.059 10.6965 226.585C10.4989 226.11 10.4094 225.597 10.4342 225.084V206.88C10.4112 206.365 10.5013 205.85 10.6984 205.373C10.8955 204.896 11.1947 204.468 11.575 204.118C11.9554 203.769 12.4076 203.507 12.9 203.351C13.3925 203.195 13.9132 203.148 14.4255 203.214H20.8631C22.445 202.986 24.0574 203.097 25.5931 203.538C27.129 203.98 28.5531 204.744 29.7708 205.778C30.9886 206.812 31.9721 208.094 32.6562 209.537C33.3403 210.98 33.7092 212.552 33.7384 214.149V217.815ZM18.8031 209.775V222.125H21.1851C21.7616 222.152 22.3375 222.059 22.8765 221.853C23.4155 221.647 23.9061 221.332 24.3172 220.927C24.7283 220.522 25.0512 220.037 25.2656 219.501C25.4799 218.966 25.581 218.392 25.5627 217.815V214.149C25.5805 213.57 25.4795 212.993 25.2658 212.454C25.0521 211.916 24.7303 211.426 24.3202 211.017C23.9101 210.607 23.4203 210.285 22.8812 210.072C22.342 209.858 21.7648 209.757 21.1851 209.775H18.8031Z" fill="white"/>
<path d="M37.4673 218.909V206.495C37.5914 205.516 38.0687 204.616 38.8095 203.964C39.5503 203.312 40.5035 202.952 41.491 202.952C42.4782 202.952 43.4317 203.312 44.1725 203.964C44.913 204.616 45.3903 205.516 45.5144 206.495V218.909C45.4452 219.427 45.4876 219.954 45.6388 220.454C45.79 220.954 46.0466 221.416 46.391 221.809C46.7354 222.202 47.1596 222.517 47.6358 222.733C48.112 222.949 48.6289 223.06 49.1516 223.06C49.6746 223.06 50.1914 222.949 50.6676 222.733C51.1438 222.517 51.5681 222.202 51.9125 221.809C52.2569 221.416 52.5131 220.954 52.6643 220.454C52.8155 219.954 52.8579 219.427 52.7891 218.909V206.495C52.9132 205.516 53.3901 204.616 54.131 203.964C54.8718 203.312 55.8253 202.952 56.8125 202.952C57.7996 202.952 58.7531 203.312 59.494 203.964C60.2348 204.616 60.7117 205.516 60.8358 206.495V218.909C60.6169 221.856 59.2908 224.611 57.1236 226.621C54.9567 228.631 52.109 229.749 49.1516 229.749C46.1944 229.749 43.3468 228.631 41.1795 226.621C39.0126 224.611 37.6865 221.856 37.4673 218.909Z" fill="white"/>
<path d="M64.7051 213.443C64.7157 211.904 65.0469 210.384 65.6787 208.981C66.3101 207.577 67.2277 206.321 68.3727 205.292C69.518 204.263 70.8653 203.483 72.3287 203.004C73.7924 202.525 75.3396 202.356 76.8725 202.508C83.3098 202.508 86.9151 206.11 86.9151 208.94C86.9151 211.77 85.6275 212.22 82.9236 212.22C80.2198 212.22 79.6404 209.648 76.8725 209.648C76.3377 209.629 75.8052 209.722 75.3081 209.92C74.811 210.118 74.3608 210.417 73.9857 210.798C73.6105 211.179 73.3184 211.633 73.1284 212.133C72.9381 212.633 72.8539 213.166 72.881 213.7V218.588C72.8532 219.12 72.9374 219.65 73.1281 220.147C73.3188 220.643 73.6119 221.094 73.9882 221.47C74.3645 221.846 74.8158 222.139 75.3125 222.33C75.8096 222.52 76.341 222.604 76.8725 222.576C80.0269 222.576 80.3486 220.068 83.3098 220.068C86.2713 220.068 87.3013 221.29 87.3013 223.284C87.3013 225.278 83.6319 229.716 76.8725 229.716C75.3396 229.868 73.7924 229.699 72.3287 229.22C70.8653 228.741 69.518 227.962 68.3727 226.932C67.2277 225.903 66.3101 224.647 65.6787 223.244C65.0469 221.84 64.7157 220.32 64.7051 218.781V213.443Z" fill="white"/>
<path d="M98.0485 221.224V225.405C97.9241 226.384 97.4472 227.284 96.7063 227.936C95.9655 228.589 95.0124 228.948 94.0248 228.948C93.0377 228.948 92.0842 228.589 91.3433 227.936C90.6025 227.284 90.1255 226.384 90.0015 225.405V206.494C90.1255 205.516 90.6025 204.616 91.3433 203.964C92.0842 203.312 93.0377 202.952 94.0248 202.952C95.0124 202.952 95.9655 203.312 96.7063 203.964C97.4472 204.616 97.9241 205.516 98.0485 206.494V211.576L106.031 203.922C106.846 203.25 107.872 202.886 108.928 202.892C109.414 202.855 109.902 202.922 110.36 203.089C110.818 203.256 111.235 203.518 111.583 203.86C111.93 204.201 112.201 204.613 112.376 205.067C112.551 205.522 112.627 206.008 112.597 206.494C112.572 207.055 112.427 207.603 112.171 208.102C111.916 208.602 111.556 209.041 111.117 209.389L106.031 214.342L112.469 222.125C113.239 223.071 113.75 224.202 113.949 225.405C113.962 225.918 113.864 226.427 113.663 226.899C113.462 227.371 113.163 227.795 112.785 228.142C112.407 228.489 111.96 228.752 111.472 228.912C110.985 229.072 110.468 229.127 109.958 229.072C108.607 228.952 107.358 228.305 106.482 227.271L100.044 219.424L98.0485 221.224Z" fill="white"/>
<path d="M143.047 221.418C143.541 221.382 144.038 221.449 144.505 221.614C144.973 221.779 145.401 222.039 145.764 222.377C146.126 222.715 146.415 223.125 146.612 223.579C146.809 224.034 146.91 224.524 146.909 225.02C146.922 225.53 146.825 226.037 146.624 226.507C146.423 226.976 146.122 227.396 145.743 227.738C145.364 228.081 144.915 228.337 144.427 228.489C143.939 228.642 143.424 228.687 142.918 228.622H130.042C129.536 228.687 129.021 228.642 128.533 228.489C128.045 228.337 127.596 228.081 127.217 227.738C126.838 227.396 126.537 226.976 126.336 226.507C126.135 226.037 126.038 225.53 126.051 225.02V206.43C126.175 205.452 126.652 204.552 127.393 203.9C128.134 203.248 129.087 202.888 130.075 202.888C131.062 202.888 132.015 203.248 132.756 203.9C133.497 204.552 133.974 205.452 134.098 206.43V221.353L143.047 221.418Z" fill="white"/>
<path d="M156.692 225.405C156.421 226.388 155.857 227.266 155.075 227.921C154.293 228.576 153.33 228.977 152.314 229.072C151.808 229.107 151.3 229.039 150.821 228.871C150.342 228.703 149.903 228.44 149.529 228.096C149.155 227.753 148.856 227.338 148.649 226.875C148.441 226.412 148.33 225.912 148.323 225.405C148.476 224.277 148.78 223.174 149.224 222.125L155.018 206.88C155.404 205.511 156.262 204.322 157.439 203.522C158.617 202.722 160.039 202.363 161.455 202.507C162.874 202.349 164.302 202.703 165.483 203.506C166.663 204.308 167.518 205.505 167.893 206.88L173.751 222.125C174.196 223.174 174.499 224.277 174.652 225.405C174.636 225.909 174.519 226.405 174.309 226.864C174.098 227.322 173.799 227.734 173.427 228.075C173.055 228.417 172.619 228.681 172.144 228.852C171.67 229.023 171.165 229.098 170.661 229.072C169.645 228.977 168.682 228.576 167.9 227.921C167.118 227.266 166.554 226.388 166.284 225.405L165.382 223.218H157.593L156.692 225.405ZM163.58 216.722L161.584 211.254H161.198L159.202 216.722H163.58Z" fill="white"/>
<path d="M188.174 203.213C195.834 203.213 198.731 206.108 198.731 209.646C198.662 210.776 198.24 211.855 197.524 212.733C196.808 213.61 195.834 214.24 194.74 214.534V214.92C194.74 214.92 200.212 216.014 200.212 220.902C200.212 225.791 196.929 228.364 189.268 228.364H180.899C180.39 228.44 179.871 228.403 179.378 228.255C178.886 228.107 178.432 227.851 178.05 227.507C177.668 227.162 177.368 226.737 177.17 226.262C176.972 225.788 176.883 225.275 176.908 224.762V206.559C176.885 206.043 176.975 205.528 177.172 205.051C177.369 204.574 177.668 204.145 178.048 203.796C178.429 203.447 178.881 203.185 179.373 203.029C179.866 202.872 180.387 202.826 180.899 202.892L188.174 203.213ZM184.891 212.669H188.174C189.654 212.669 190.362 211.961 190.362 211.061C190.362 210.161 189.654 209.389 188.174 209.389H184.891V212.669ZM184.891 222.51H189.268C190.942 222.51 191.843 221.61 191.843 220.516C191.843 219.423 190.942 218.522 189.268 218.522H184.891V222.51Z" fill="white"/>
<path d="M165.128 52.8931C168.621 54.3162 172.274 55.3096 176.007 55.852C180.321 56.1734 187.66 51.9926 189.72 55.852C191.78 59.711 184.248 65.693 176.007 68.7164C171.427 70.3075 166.672 71.3441 161.845 71.8038" fill="white"/>
<path opacity="0.5" d="M76.4171 114.321L80.9236 105.638C80.9236 105.638 58.3918 115.672 50.3448 113.614C38.371 110.462 35.1521 95.0892 31.547 97.5976C27.9419 100.106 34.3152 112.263 34.3152 112.263C34.3152 112.263 36.3108 115.543 39.3366 119.982H36.2464C23.3712 119.21 18.1567 106.088 14.7448 109.497C11.3328 112.906 21.1824 124.163 21.1824 124.163C21.1824 124.163 70.6233 186.684 116.974 179.158L76.4171 114.321Z" fill="white"/>
<path d="M143.751 89.9425C151.904 86.2467 158.646 80.0214 162.974 72.191C167.302 64.3606 168.986 55.3436 167.775 46.4803C166.563 37.6173 162.522 29.3816 156.251 22.9972C149.98 16.6129 141.815 12.4209 132.969 11.0446C124.122 9.66833 115.068 11.1811 107.151 15.358C99.2341 19.535 92.8778 26.1531 89.0268 34.2285C85.1758 42.3039 84.0357 51.4055 85.7761 60.1802C87.5169 68.9546 92.045 76.934 98.6873 82.9313C91.1677 85.376 84.3453 89.5893 78.7949 95.2169C75.5311 97.9211 72.4751 100.867 69.6534 104.029C62.1016 112.997 51.3796 118.711 39.7184 119.981C39.2678 119.981 64.3746 161.404 84.782 171.439C93.5516 177.493 104.07 180.499 114.717 179.994C125.278 180.076 135.59 176.795 144.159 170.626C152.727 164.458 159.106 155.722 162.371 145.686C165.635 135.651 165.615 124.838 162.313 114.814C159.011 104.791 152.6 96.0793 144.008 89.9425H143.751Z" fill="white"/>
<path d="M20.4728 246.313V248.371C19.6294 247.596 18.5285 247.16 17.3827 247.149C16.84 247.13 16.2996 247.229 15.7992 247.44C15.2989 247.651 14.8507 247.969 14.4858 248.371C13.6976 249.18 13.2583 250.265 13.2626 251.394C13.2651 252.522 13.7033 253.605 14.4858 254.417C14.8759 254.8 15.3393 255.099 15.8482 255.298C16.3571 255.497 16.9009 255.591 17.4471 255.575C17.9347 255.683 18.4402 255.683 18.9278 255.575L19.636 255.189L20.4728 254.61V256.604C19.5405 257.164 18.4705 257.453 17.3827 257.44C16.6195 257.449 15.8622 257.305 15.1554 257.017C14.4485 256.729 13.8064 256.303 13.2666 255.764C12.7269 255.225 12.3004 254.583 12.0123 253.877C11.7242 253.171 11.5803 252.414 11.5889 251.651C11.5702 250.254 12.0754 248.9 13.0051 247.856C13.5412 247.183 14.2288 246.646 15.0118 246.288C15.7948 245.931 16.6513 245.763 17.5115 245.798C18.5254 245.734 19.5402 245.91 20.4728 246.313Z" fill="white"/>
<path d="M25.4336 251.327C25.4248 250.559 25.5746 249.796 25.8737 249.088C26.1727 248.38 26.6146 247.741 27.1718 247.211C28.2915 246.124 29.7954 245.523 31.3562 245.538C32.1279 245.53 32.8936 245.675 33.6082 245.966C34.3229 246.257 34.9721 246.688 35.5178 247.234C36.0636 247.779 36.4947 248.428 36.7859 249.142C37.0773 249.856 37.2229 250.621 37.2145 251.392C37.2233 252.16 37.0736 252.923 36.7746 253.631C36.4754 254.339 36.0335 254.978 35.4763 255.508C34.8891 256.075 34.1922 256.516 33.4283 256.803C32.6644 257.091 31.8498 257.219 31.0343 257.181C29.6107 257.167 28.2395 256.642 27.1718 255.701C26.5816 255.142 26.1203 254.461 25.8201 253.706C25.5199 252.95 25.3881 252.139 25.4336 251.327ZM27.1718 251.327C27.1453 251.881 27.2327 252.434 27.4287 252.953C27.6247 253.471 27.9251 253.944 28.3112 254.342C28.6974 254.74 29.1612 255.054 29.6739 255.266C30.1865 255.478 30.7372 255.582 31.2919 255.573C31.8442 255.592 32.3944 255.494 32.9053 255.283C33.4162 255.072 33.8758 254.754 34.2532 254.351C34.662 253.964 34.9829 253.494 35.194 252.972C35.405 252.45 35.5013 251.889 35.4763 251.327C35.4962 250.776 35.3973 250.226 35.1863 249.715C34.9753 249.205 34.6571 248.746 34.2532 248.369C33.8785 247.962 33.4193 247.641 32.9078 247.43C32.3963 247.219 31.8447 247.122 31.2919 247.146C30.7405 247.135 30.1928 247.237 29.6831 247.448C29.1734 247.658 28.7129 247.971 28.3305 248.369C27.9479 248.758 27.648 249.221 27.4488 249.73C27.2497 250.238 27.1554 250.781 27.1718 251.327Z" fill="white"/>
<path d="M42.4219 257.181L44.7395 245.088L48.6022 253.836L52.6578 245.088L54.7822 257.181H53.0443L51.9499 250.362L48.6022 257.695L45.3834 250.362L43.9028 257.181H42.4219Z" fill="white"/>
<path d="M62.3183 252.419V257.179H60.5801V245.923H62.5112C63.2385 245.838 63.9731 245.838 64.7001 245.923C65.1748 246.055 65.6001 246.323 65.9233 246.695C66.2645 246.987 66.5346 247.354 66.7132 247.766C66.8915 248.178 66.9738 248.626 66.9533 249.075C66.9709 249.539 66.8816 250 66.6916 250.424C66.502 250.848 66.2169 251.223 65.8589 251.519C65.0796 252.151 64.0932 252.472 63.0906 252.419H62.3183ZM62.3183 250.811H63.2195C64.7645 250.811 65.5372 250.232 65.5372 249.01C65.5372 247.788 64.7645 247.273 63.1551 247.273H62.5757L62.3183 250.811Z" fill="white"/>
<path d="M77.8958 254.286H73.0675L71.8443 256.987H69.9775L75.5781 245.023L80.9858 256.987H79.1187L77.8958 254.286ZM77.2519 252.678L75.5781 248.818L73.7754 252.678H77.2519Z" fill="white"/>
<path d="M85.812 257.181V244.96L94.0524 253.579V245.732H95.7262V257.696L87.4858 249.077V257.181H85.812Z" fill="white"/>
<path d="M104.162 252.098L100.493 245.666H102.424L104.999 250.168L107.574 245.666H109.57L105.836 252.098V257.18H104.162V252.098Z" fill="white"/>
<path d="M124.056 245.731V255.38H127.597V257.181H122.576V245.924L124.056 245.731Z" fill="white"/>
<path d="M134.032 245.731V257.181H132.294V245.924L134.032 245.731Z" fill="white"/>
<path d="M139.894 257.181L142.276 245.088L146.138 253.836L150.13 245.088L152.254 257.181H150.516L149.486 250.362L146.138 257.695L142.856 250.362L141.697 257.181H139.894Z" fill="white"/>
<path d="M159.787 245.731V257.181H158.048V245.924L159.787 245.731Z" fill="white"/>
<path d="M169.117 247.338V257.18H167.379V247.532H164.804V245.923H171.692V247.532L169.117 247.338Z" fill="white"/>
<path d="M182.831 247.338H178.324V250.04H182.702V251.648H178.324V255.379H182.831V257.18H176.393V245.923H182.831V247.338Z" fill="white"/>
<path d="M188.56 257.179V245.922H190.878C191.79 245.902 192.7 246.01 193.582 246.244C194.305 246.479 194.965 246.875 195.513 247.402C196.086 247.919 196.539 248.556 196.84 249.268C197.14 249.979 197.28 250.747 197.251 251.519C197.282 252.315 197.138 253.109 196.826 253.843C196.514 254.577 196.044 255.233 195.448 255.764C194.879 256.247 194.224 256.618 193.517 256.857C192.658 257.092 191.769 257.201 190.878 257.179H188.56ZM190.234 255.571H191.007C191.645 255.683 192.299 255.683 192.938 255.571C193.445 255.428 193.909 255.163 194.29 254.799C194.702 254.415 195.025 253.945 195.236 253.423C195.448 252.901 195.542 252.339 195.513 251.776C195.537 251.224 195.44 250.672 195.229 250.161C195.017 249.65 194.697 249.191 194.29 248.817C193.839 248.436 193.315 248.149 192.752 247.972C192.188 247.795 191.595 247.733 191.007 247.788H190.234V255.571Z" fill="white"/>
</svg>
