<svg width="213" height="56" viewBox="0 0 213 56" fill="none" xmlns="http://www.w3.org/2000/svg">
<path d="M46.3828 6.0073L46.2692 3.62079C46.2692 2.30578 46.675 1.72132 47.1946 1.31546L47.9251 0.795944H42.7137L40.5058 6.0073H40.5383L34.1418 21.1706L31.1708 13.6701L26.0731 0.795944H21.0728C21.0728 0.795944 21.0891 0.795945 21.1053 0.812179H21.0728L21.641 1.20181C22.193 1.64015 22.68 2.25707 22.745 3.32857C22.745 3.37727 22.745 3.40974 22.745 3.44221L22.3229 12.3551L21.7871 23.8331C21.7871 25.6189 20.9267 26.4306 20.0987 27.0638L19.7416 27.3235H26.1868H26.2355C25.3263 26.6741 24.271 26.2358 24.1736 24.1578L25.0341 7.64701L33.1027 28.7035L42.0968 7.40349L42.5351 15.0338L42.73 18.2645L43.0871 24.5149C43.0709 26.1384 42.1617 26.7716 41.4149 27.3073H49.0128L48.2498 26.7716C47.8115 26.4144 47.4381 25.8949 47.3407 24.8883L46.399 5.99107L46.3828 6.0073Z" fill="white"/>
<path d="M18.9135 21.6087C17.7121 24.2225 16.1373 25.018 13.832 25.018H13.7508H6.02308V14.8063H11.5591L13.0365 14.7901C15.2444 14.7901 15.5367 16.0402 15.9912 16.8357V10.4716C15.5367 11.2671 14.9522 12.4685 13.0203 12.4685H10.9098H6.00683V3.19846H13.832C14.0268 3.19846 14.2216 3.19846 14.4002 3.23093C14.4652 3.23093 14.5138 3.23093 14.5788 3.23093C16.0074 3.23093 17.2088 4.22125 17.5335 5.5525V0.893127H0C0.64939 1.20159 1.15264 1.73734 1.44487 2.40296C1.52604 2.54907 1.59101 2.74389 1.62348 2.98741C1.65595 3.18223 1.67218 3.37705 1.67218 3.57186C1.67218 3.62057 1.67218 3.68551 1.67218 3.73421V27.3395L17.7608 27.372L18.8972 21.6411L18.9135 21.6087Z" fill="white"/>
<path d="M160.221 27.3723C160.87 26.9177 161.633 26.5281 161.633 24.9695V3.21495C161.633 1.91617 160.87 1.29925 160.221 0.844673H166.617C165.968 1.29925 165.205 1.68888 165.205 3.21495V24.9695C165.205 26.4794 165.968 26.9177 166.617 27.3723H160.221Z" fill="white"/>
<path d="M85.2177 27.3723C85.867 26.9177 86.6301 26.5281 86.6301 24.9695V3.21495C86.6301 1.91617 85.867 1.29925 85.2177 0.844673H91.6142C90.9648 1.29925 90.2017 1.68888 90.2017 3.21495V24.9695C90.2017 26.4794 90.9648 26.9177 91.6142 27.3723H85.2177Z" fill="white"/>
<path d="M129.017 2.40321H123.675V24.9695C123.675 26.593 124.439 26.9177 125.12 27.356H118.708C119.357 26.9015 120.152 26.593 120.152 24.9695V2.40321H114.811C113.042 2.40321 111.938 3.11754 111.451 4.36762V0.844673H132.361V4.36762C131.858 3.11754 130.77 2.40321 129 2.40321H129.017Z" fill="white"/>
<path d="M209.28 2.40321H203.939V24.9695C203.939 26.593 204.702 26.9177 205.384 27.356H198.971C199.621 26.9015 200.416 26.593 200.416 24.9695V2.40321H195.075C193.305 2.40321 192.201 3.11754 191.714 4.36762V0.844673H212.625V4.36762C212.121 3.11754 211.034 2.40321 209.264 2.40321H209.28Z" fill="white"/>
<path d="M155.122 27.3723C153.223 27.3723 151.242 26.9177 148.904 23.7519L142.005 13.8H143.449C146.177 13.8 148.677 11.5271 148.677 7.90679C148.677 4.52996 146.258 2.40321 142.459 2.40321H139.164V24.9533C139.164 25.7975 139.164 26.5118 140.576 27.356H134.179C135.381 26.7716 135.592 25.7975 135.592 24.9533V3.24742C135.592 1.77006 134.959 1.20184 134.179 0.844673H143.401C149.326 0.844673 152.46 3.53964 152.46 7.87432C152.46 10.7966 150.138 13.6052 146.664 14.4494C146.664 14.4494 150.982 20.7647 152.119 22.4044C154.716 26.1547 159.619 27.356 159.619 27.356H155.106L155.122 27.3723Z" fill="white"/>
<path d="M69.5167 27.3722H61.4317V3.1337C61.4317 2.30573 60.9284 1.51023 60.2953 1.02319H69.5167C78.3159 1.02319 83.1863 6.52677 83.1863 14.2058C83.1863 21.8848 77.8289 27.3884 69.5167 27.3884V27.3722ZM68.7698 2.45184H64.9547V25.976H68.7698C74.9553 25.976 79.4523 21.0244 79.4523 14.2058C79.4523 7.38721 75.3449 2.46808 68.7698 2.46808V2.45184Z" fill="white"/>
<path d="M99.5341 28.2322C97.8619 28.2322 95.5728 27.4043 93.8194 26.901V23.1345C94.9234 25.31 97.0177 26.5438 99.6639 26.5438C103.236 26.5438 106.336 24.482 106.336 21.3325C106.336 18.8486 104.697 17.1764 100.248 14.936C95.8813 12.728 93.5435 10.4389 93.5435 7.25694C93.5435 1.98064 97.732 0 103.154 0C105.054 0 107.392 0.389635 108.707 1.00656V4.54573C107.83 2.84108 105.931 1.47736 103.057 1.47736C99.1282 1.47736 96.969 3.49047 96.969 6.13674C96.969 9.04276 100.232 10.6338 102.749 11.8838C108.837 14.871 110.022 17.7121 110.022 20.6506C110.022 25.8944 104.956 28.2647 99.5341 28.2647V28.2322Z" fill="white"/>
<path d="M182.072 27.6642C174.458 27.6642 168.176 21.9334 168.176 14.0108C168.176 6.08824 174.393 0.357376 182.072 0.357376C184.719 0.357376 187.186 0.81195 189.394 1.67239V5.53626C188.404 2.98741 185.677 1.81851 182.624 1.81851C176.585 1.81851 171.926 7.28962 171.926 14.0108C171.926 20.732 176.715 26.1219 182.624 26.1219C185.904 26.1219 188.469 25.0342 189.394 22.599V26.3492C187.186 27.2097 184.719 27.6642 182.072 27.6642Z" fill="white"/>
<path d="M16.2341 32.3884C16.2341 32.3884 15.9581 32.4696 15.7146 32.5508C15.2763 32.7131 14.0911 33.2002 12.7437 33.9307C11.2663 34.7262 9.83759 35.5704 8.44141 36.7556C7.04522 37.9407 6.07113 39.1746 6.41206 40.4409C6.72052 41.5935 8.11674 42.0968 9.74022 42.0156C9.74022 42.0156 9.13952 42.4053 8.26285 43.0709C7.4024 43.7203 6.49325 44.5645 5.61657 45.6522C3.76581 47.9088 2.49949 50.5064 3.83074 53.0066C4.52884 54.3053 5.82762 55.0034 7.43486 55.2145C9.20445 55.458 11.2663 55.1008 12.9872 54.3053C16.2666 52.7955 17.403 50.6363 17.4355 50.5714C17.4679 50.5064 17.4679 50.4415 17.4355 50.4415C17.403 50.4252 17.3543 50.4902 17.2731 50.5714C17.2082 50.6525 15.9257 52.276 13.9126 53.104C11.8995 53.9319 9.44798 54.1755 7.64592 53.0877C5.8601 52 6.02245 50.0194 6.33091 48.6232C6.78548 46.6101 8.29532 43.8339 10.9578 41.8695C10.9578 41.8695 12.6787 41.5286 14.0262 40.8954C15.26 40.311 15.601 39.8077 15.5847 39.5642C15.5523 39.3369 15.0652 39.1096 13.8638 39.6129C12.565 40.1486 11.0877 41.1065 10.5682 41.4149C10.5682 41.4149 10.1136 41.5124 9.65901 41.3987C9.23691 41.2851 8.86352 41.0416 8.60376 40.6194C8.2466 40.0188 8.21412 39.2882 8.44141 38.6226C8.66869 37.9245 9.12329 37.2589 9.57786 36.7556C10.6006 35.5867 11.8994 34.7749 13.1333 34.0281C14.4483 33.2326 15.5847 32.7131 15.8283 32.5832C16.088 32.4534 16.2503 32.3884 16.2179 32.3722L16.2341 32.3884Z" fill="white"/>
<path d="M57.3713 51.3177C57.5499 51.1878 57.7772 51.0417 57.7772 50.6358L57.4688 45.2134L54.7738 51.6099L52.3386 45.2459L52.0464 50.6358C52.0464 51.1066 52.2736 51.1878 52.4522 51.3177H51.1859C51.3645 51.1878 51.5918 51.0417 51.5918 50.6358L51.9164 44.4666C51.9164 43.9796 51.6729 43.8984 51.4781 43.801H52.6633L55.0822 49.9215L57.6636 43.801H58.8974C58.7188 43.9309 58.4915 44.012 58.4915 44.4666L58.8 50.6358C58.8 51.1066 59.0111 51.1878 59.2059 51.3177H57.3876H57.3713Z" fill="white"/>
<path d="M25.4713 48.2493H24.4485V50.6358C24.4485 51.0904 24.6595 51.1878 24.8543 51.3177H23.0522C23.2308 51.1878 23.4581 51.0417 23.4581 50.6358V44.4666C23.4581 44.077 23.2471 43.9309 23.0522 43.801H25.4875C27.0298 43.801 28.0526 44.7101 28.0526 46.0739C28.0526 47.3239 27.0785 48.2656 25.4875 48.2656L25.4713 48.2493ZM25.2115 44.1906H24.4322V47.811H25.3576C26.218 47.811 26.9486 47.1616 26.9486 46.0089C26.9486 44.9699 26.2343 44.1906 25.2115 44.1906Z" fill="white"/>
<path d="M28.5569 47.5516C28.5569 45.3923 29.7582 43.6552 31.8363 43.6552C33.9143 43.6552 35.1157 45.3923 35.1157 47.5516C35.1157 49.7108 33.9306 51.4479 31.8363 51.4479C29.742 51.4479 28.5569 49.7108 28.5569 47.5516ZM29.6771 47.7951C29.7096 49.6783 30.3752 51.0907 31.7389 51.0583C33.5409 51.0096 34.0118 48.9153 33.9793 47.3243C33.9468 45.4573 33.2812 44.0286 31.9175 44.0611C30.1154 44.1098 29.6446 46.2203 29.6771 47.7951Z" fill="white"/>
<path d="M42.4698 51.3177C42.6484 51.1878 42.8757 51.0742 42.8757 50.6358V44.4666C42.8757 44.0932 42.6647 43.9309 42.4698 43.801H44.2881C44.1095 43.9309 43.8823 44.0445 43.8823 44.4666V50.6358C43.8823 51.0579 44.0933 51.1878 44.2881 51.3177H42.4698Z" fill="white"/>
<path d="M41.4318 51.3177C40.896 51.3177 40.3278 51.1878 39.6622 50.2949L37.714 47.47H38.1199C38.8991 47.47 39.5972 46.8207 39.5972 45.7979C39.5972 44.84 38.9154 44.2393 37.8276 44.2393H36.886V50.6358C36.886 50.8793 36.886 51.0742 37.2919 51.3177H35.4736C35.8146 51.1553 35.8795 50.8793 35.8795 50.6358V44.4829C35.8795 44.0608 35.7009 43.8984 35.4736 43.801H38.0874C39.7596 43.801 40.6525 44.564 40.6525 45.7979C40.6525 46.6258 39.9869 47.4213 39.0128 47.6649C39.0128 47.6649 40.2304 49.4507 40.5551 49.9215C41.2856 50.9768 42.6818 51.3177 42.6818 51.3177H41.3993H41.4318Z" fill="white"/>
<path d="M14.2538 49.8241C13.9129 50.5709 13.4745 50.7819 12.8089 50.7819H10.3737V47.6649H12.5816C13.2148 47.6649 13.296 48.022 13.4258 48.2493V46.6096C13.296 46.8369 13.1336 47.1778 12.5816 47.1778H10.3737V44.3367H12.8089C13.1011 44.3367 13.231 44.3367 13.3934 44.4341C13.6369 44.5478 13.7992 44.7751 13.8642 45.0024V43.801H8.88013C8.97754 43.8497 9.13989 43.9471 9.23729 44.1257C9.35094 44.3205 9.3509 44.4666 9.3509 44.6127V51.3339H13.9291L14.2538 49.8403V49.8241Z" fill="white"/>
<path d="M21.7377 44.5965C21.7377 44.2231 21.8514 44.0608 21.9975 43.9471L22.2086 43.801H20.9098L18.3934 49.6617L16.0718 43.801H14.7731C14.7731 43.801 14.838 43.8497 14.9354 43.9146C15.0328 43.9958 15.1302 44.1095 15.1789 44.2231C15.2439 44.3854 15.2438 44.5316 15.2438 44.5478L14.9679 50.3274C14.9354 50.8469 14.7243 51.0579 14.4971 51.2365L14.3997 51.3015H16.153C15.8932 51.1229 15.5848 50.9605 15.5686 50.4085L15.8121 45.6518L18.1823 51.7073L20.7312 45.668L21.0072 50.5222C21.0072 50.9443 20.7474 51.1553 20.5364 51.3177H22.517L22.306 51.1716C22.1761 51.0742 22.0787 50.9281 22.0462 50.6358L21.754 44.5965H21.7377Z" fill="white"/>
<path d="M50.5535 44.4504V48.85C50.5048 50.4573 49.6119 51.4476 47.9397 51.4476C45.9104 51.4476 45.2285 50.1163 45.2285 48.915V44.4504C45.2285 44.0608 45.0174 43.9147 44.8226 43.7848H46.7059C46.5111 43.9147 46.3 44.077 46.3 44.4504V48.9312C46.3 49.9865 46.6896 50.9768 47.9559 50.9768C49.2222 50.9768 49.9853 50.1813 49.9853 48.8338V44.4666C49.9853 44.0932 49.7742 43.9309 49.5794 43.801H51.1055C50.9269 43.9309 50.521 44.0445 50.521 44.4666L50.5535 44.4504Z" fill="white"/>
<path fill-rule="evenodd" clip-rule="evenodd" d="M83.8975 51.2694C84.8391 52.4059 86.6737 52.6007 88.1835 52.1948C89.742 51.789 91.8525 50.4739 93.3624 48.5095C94.8722 46.5451 95.6515 44.321 95.6353 42.0968C95.619 39.8402 94.7586 38.1031 94.0118 37.1777C93.3786 36.3984 92.1935 35.3756 90.4564 35.3756C88.9628 35.3756 86.8198 35.9438 84.5794 37.9894C82.339 40.0512 80.8616 42.8436 80.7642 45.6847C80.6668 48.3472 81.6409 49.4511 82.3877 49.8733C82.6312 50.0031 82.9072 50.133 83.2968 50.1655C83.4429 50.5876 83.654 50.961 83.9138 51.2694H83.8975ZM83.4105 48.1848C83.6378 46.5127 84.4495 45.0191 85.2937 43.8015C86.1541 42.5514 87.5828 40.863 88.8653 40.1973C90.0829 39.5642 90.8947 39.5804 91.2681 40.035C91.609 40.4571 91.7714 41.3013 91.2519 42.8923C90.7161 44.4833 89.2874 46.4477 88.0861 47.5354C86.8847 48.6069 85.5047 49.4674 84.4495 49.7596C84.0923 49.857 83.7676 49.9057 83.4916 49.9057C83.378 49.4349 83.3455 48.8667 83.4267 48.2011L83.4105 48.1848ZM83.1832 49.8733C82.7773 49.8083 82.4526 49.6297 82.1442 49.3537C81.4948 48.7693 81.1701 47.6004 81.2188 46.2529C81.2675 44.8892 81.7708 43.3631 82.3714 42.1942C82.9721 41.0253 84.1735 39.1908 85.9593 37.7297C87.7451 36.2685 89.3848 35.7165 90.6349 35.7165C91.7714 35.7165 93.2975 36.2685 93.8657 38.4764C94.4339 40.7006 93.9955 43.2008 92.8916 45.4249C91.8039 47.6004 89.6122 49.9707 87.9725 50.8798C86.349 51.789 85.1313 51.7078 84.4982 51.3506C84.0761 51.1071 83.7514 50.7337 83.5566 50.1979C84.0599 50.1979 84.7255 50.0356 85.6346 49.6297C87.7939 48.6719 89.466 46.9348 90.4564 45.4249C91.4305 43.8989 91.9986 42.389 91.9986 41.0253C91.9986 39.6616 91.2194 38.8174 90.2778 38.7849C89.466 38.7687 88.0861 39.0609 86.4301 40.7168C84.7904 42.3241 83.8326 43.9963 83.2806 45.9769C82.8909 47.3731 82.8585 48.7693 83.1994 49.9057L83.1832 49.8733Z" fill="white"/>
<path fill-rule="evenodd" clip-rule="evenodd" d="M94.8544 53.7373C94.8544 53.7373 94.6596 53.8835 94.481 53.9646C94.3186 54.0296 94.0427 54.127 93.3933 54.1595C92.7601 54.1919 91.5912 54.0945 91.023 54.0296C90.471 53.9646 88.7014 53.7698 87.6949 53.7211C86.6883 53.6562 85.7629 53.7211 84.8375 53.8997C83.9284 54.0945 83.4089 54.4192 83.279 54.5004C83.1491 54.5816 83.068 54.679 83.0842 54.7114C83.0842 54.7277 83.1329 54.7439 83.2303 54.7114C83.2628 54.6952 83.3115 54.6627 83.3764 54.6465C83.5875 54.5491 83.9284 54.4192 84.4642 54.403C85.1947 54.3867 85.8279 54.5004 86.461 54.614C87.0779 54.7277 88.3443 54.9225 89.3346 55.0199C90.2762 55.1173 91.2827 55.166 92.0458 55.0848C92.7926 55.0037 93.442 54.8251 93.9777 54.5653C94.5135 54.2893 94.7732 54.062 94.8869 53.9159C94.968 53.8348 94.9843 53.7373 94.9681 53.7211C94.9518 53.6886 94.9031 53.7211 94.8544 53.7698V53.7373Z" fill="white"/>
<path d="M114.144 51.3021C113.608 51.3021 113.04 51.1723 112.375 50.2794L110.41 47.4545H110.816C111.595 47.4545 112.31 46.8051 112.31 45.7823C112.31 44.8245 111.628 44.2238 110.54 44.2238H109.598V50.6203C109.598 50.8638 109.598 51.0586 110.004 51.3021H108.186C108.527 51.1398 108.592 50.8638 108.592 50.6203V44.4673C108.592 44.0452 108.413 43.8829 108.186 43.7855H110.8C112.472 43.7855 113.365 44.5485 113.365 45.7823C113.365 46.6103 112.699 47.4058 111.725 47.6493C111.725 47.6493 112.943 49.4352 113.267 49.906C113.998 50.9612 115.394 51.3184 115.394 51.3184H114.112L114.144 51.3021Z" fill="white"/>
<path d="M107.338 51.3018C107.014 51.3018 106.657 51.0583 106.462 50.5713L105.894 49.1426H102.923L102.322 50.6687C102.095 51.2207 102.322 51.2044 102.419 51.3018H101.234C101.364 51.2044 101.591 51.172 101.737 50.8635L104.66 43.6228C104.66 43.6228 106.965 49.3699 107.127 49.7433C107.842 51.2694 108.507 51.3018 108.507 51.3018H107.355H107.338ZM104.416 45.4086L103.101 48.7205H105.731L104.416 45.4086Z" fill="white"/>
<path d="M101.655 44.4345V48.8342C101.606 50.4414 100.697 51.4317 99.0409 51.4317C97.0115 51.4317 96.3297 50.1005 96.3297 48.8991V44.4345C96.3297 44.0449 96.1186 43.8988 95.9238 43.7689H97.8071C97.6122 43.8988 97.4012 44.0611 97.4012 44.4345V48.9153C97.4012 49.9706 97.7908 50.9609 99.0571 50.9609C100.323 50.9609 101.086 50.1654 101.086 48.8179V44.4508C101.086 44.0774 100.875 43.915 100.681 43.7852H102.207C102.028 43.915 101.622 44.0287 101.622 44.4508L101.655 44.4345Z" fill="white"/>
<path d="M119.971 51.3022C120.15 51.1723 120.377 51.0586 120.377 50.6203V44.4511C120.377 44.0777 120.166 43.9153 119.971 43.7855H121.79C121.611 43.9153 121.384 44.029 121.384 44.4511V50.6203C121.384 51.0424 121.595 51.1723 121.79 51.3022H119.971Z" fill="white"/>
<path d="M118.545 44.2238H117.035V50.6203C117.035 51.0749 117.246 51.1723 117.441 51.3022H115.623C115.801 51.1723 116.029 51.0911 116.029 50.6203V44.2238H114.519C114.016 44.2238 113.707 44.4348 113.561 44.7758V43.7855H119.503V44.7758C119.357 44.4186 119.048 44.2238 118.545 44.2238Z" fill="white"/>
<path d="M133.073 51.3021C132.537 51.3021 131.969 51.1723 131.304 50.2794L129.339 47.4545H129.745C130.524 47.4545 131.222 46.8051 131.222 45.7823C131.222 44.8245 130.541 44.2238 129.453 44.2238H128.511V50.6203C128.511 50.8638 128.511 51.0586 128.917 51.3021H127.099C127.44 51.1398 127.505 50.8638 127.505 50.6203V44.4673C127.505 44.0452 127.326 43.8829 127.099 43.7855H129.713C131.385 43.7855 132.278 44.5485 132.278 45.7823C132.278 46.6103 131.628 47.4058 130.638 47.6493C130.638 47.6493 131.856 49.4352 132.18 49.906C132.911 50.9612 134.307 51.3184 134.307 51.3184H133.024L133.073 51.3021Z" fill="white"/>
<path d="M72.4822 49.8082C72.1413 50.555 71.7029 50.7823 71.0373 50.7823H68.6021V47.6652H70.81C71.4432 47.6652 71.5244 48.0224 71.6542 48.2497V46.61C71.5244 46.8373 71.362 47.1782 70.81 47.1782H68.6021V44.3209H71.0373C71.3295 44.3209 71.4594 44.3209 71.6218 44.4183C71.8653 44.5319 72.0277 44.7592 72.0926 44.9865V43.7851H67.1085C67.2059 43.8338 67.3683 43.9312 67.4657 44.1098C67.5793 44.3046 67.5793 44.4508 67.5793 44.5969V51.3181H72.1575L72.4822 49.8244V49.8082Z" fill="white"/>
<path d="M79.9657 44.5806C79.9657 44.2072 80.0793 44.0449 80.2254 43.9312L80.4365 43.7851H79.1377L76.6213 49.6459L74.2997 43.7851H73.001C73.001 43.7851 73.0659 43.8338 73.1633 43.8988C73.2607 43.9799 73.3581 44.0936 73.4068 44.2235C73.4718 44.3858 73.4718 44.5319 73.4718 44.5482L73.1958 50.3277C73.1633 50.8472 72.9523 51.0583 72.725 51.2369L72.6276 51.3018H74.3809C74.1212 51.1232 73.8127 50.9609 73.7965 50.4089L74.04 45.6359L76.4103 51.6914L78.9591 45.6521L79.2351 50.5063C79.2351 50.9284 78.9754 51.1557 78.7643 51.3018H80.7449L80.5339 51.1557C80.404 51.0583 80.3066 50.9122 80.2741 50.62L79.9657 44.5806Z" fill="white"/>
<path d="M122.555 51.3022V44.4673C122.555 43.9965 122.344 43.9316 122.149 43.7855H126.581V44.8082C126.451 44.4511 126.126 44.24 125.639 44.24H123.577V47.1948H125.591C125.948 47.1948 126.061 46.9675 126.159 46.8214V48.039C126.078 47.8929 126.013 47.6493 125.591 47.6493H123.577V50.8963H125.915C126.354 50.8963 126.662 50.7502 126.889 50.2469L126.678 51.3346H122.571L122.555 51.3022Z" fill="white"/>
<path fill-rule="evenodd" clip-rule="evenodd" d="M164.782 43.7363V45.2299H158.727V46.7722H164.766V51.253H157.266V49.7756H163.305V48.2495H157.25V43.7363H164.766H164.782Z" fill="white"/>
<path fill-rule="evenodd" clip-rule="evenodd" d="M182.169 43.7363V51.253H189.653V49.7594H183.647V48.2333H189.653V46.7722H183.647V45.2299H189.653V43.7363H182.185H182.169Z" fill="white"/>
<path fill-rule="evenodd" clip-rule="evenodd" d="M140.706 43.7366V51.2533H148.174V49.7922H142.184V48.2336H148.174V46.7725H142.184V45.214H148.191V43.7366H140.723H140.706Z" fill="white"/>
<path fill-rule="evenodd" clip-rule="evenodd" d="M156.469 51.253H154.991V45.2461H153.417V51.253H151.988V45.2461H150.413V51.253H148.968C148.968 51.253 148.968 51.188 148.968 51.1555C148.968 48.7041 148.968 46.2364 148.968 43.785C148.968 43.785 148.968 43.7525 148.968 43.7363H156.469V51.253Z" fill="white"/>
<path fill-rule="evenodd" clip-rule="evenodd" d="M206.132 43.7363V45.1974H200.19V46.7559H206.132V48.2333H200.19V49.7431H206.132V51.253H198.729V43.7363H206.148H206.132Z" fill="white"/>
<path fill-rule="evenodd" clip-rule="evenodd" d="M165.579 43.7363V51.253C165.579 51.253 166.554 51.253 167.057 51.253V48.2495H173.047V43.7525H165.579V43.7363ZM171.57 46.7722H167.041V45.2461H171.57V46.7722Z" fill="white"/>
<path fill-rule="evenodd" clip-rule="evenodd" d="M173.841 51.253H175.35V48.2495H179.864V51.253H181.357V43.7363H179.864V46.7722H175.35V43.7363H173.841V51.253Z" fill="white"/>
<path d="M195.092 48.2495H197.917V43.7363H190.417V51.253H191.927V48.2495H192.949L196.066 51.253H198.193L195.076 48.2495H195.092ZM191.894 46.7722V45.2461H196.44V46.7722H191.894Z" fill="white"/>
</svg>
