<svg width="140" height="53" viewBox="0 0 140 53" fill="none" xmlns="http://www.w3.org/2000/svg">
<g opacity="0.95">
<path d="M104.666 51.042C102.691 51.042 100.618 49.0996 98.6426 45.3943C93.7783 36.2207 90.9544 19.2937 94.6108 13.8744C98.463 8.1777 116.957 1.45261 128.726 1.45261C133.443 1.45261 136.643 2.49729 138.242 4.53767C139.728 6.43114 139.336 9.89163 137.034 14.8049C130.799 28.1734 110.575 50.8625 104.747 51.0584H104.649L104.666 51.042ZM128.759 2.25244C117.414 2.25244 98.9691 8.89592 95.3127 14.3152C91.8685 19.408 94.7414 36.2044 99.3935 45.0025C101.173 48.3651 103.05 50.2096 104.682 50.2096V50.634L104.747 50.2096C109.954 50.03 129.722 28.6142 136.316 14.4294C138.455 9.89163 138.895 6.62701 137.638 5.02735C136.218 3.21549 133.15 2.25244 128.742 2.25244H128.759ZM104.78 47.2551C103.556 47.2551 102.348 46.1125 101.124 43.8436C97.2715 36.7594 94.3986 21.2525 97.0266 17.237C99.524 13.3684 111.391 9.12444 119.65 9.12444C122.572 9.12444 124.727 9.6631 126.049 10.6915C127.991 12.2258 128.302 15.0497 126.979 19.0978C123.388 30.0996 108.616 47.1082 104.813 47.2388H104.796L104.78 47.2551ZM119.634 9.94059C111.734 9.94059 100.03 14.0703 97.6959 17.6777C95.2637 21.432 98.1529 36.6941 101.826 43.4518C102.87 45.3779 103.882 46.4226 104.698 46.4226C107.914 46.3083 122.507 29.969 126.147 18.8367C127.355 15.1476 127.143 12.6012 125.494 11.3281C124.335 10.4303 122.295 9.94059 119.618 9.94059H119.634Z" fill="white"/>
<path d="M101.793 49.6216C99.8184 49.6216 97.7454 47.6792 95.7703 43.9739C90.906 34.8003 88.0821 17.8733 91.7385 12.4541C95.5907 6.75732 114.085 0.0322266 125.854 0.0322266C130.571 0.0322266 133.77 1.0769 135.37 3.11728C136.855 5.01076 136.464 8.47124 134.162 13.3845C127.927 26.7531 107.702 49.4421 101.875 49.638H101.777L101.793 49.6216ZM125.886 0.815726C114.558 0.815726 96.0967 7.45922 92.4404 12.8785C88.9962 17.9713 91.8691 34.7677 96.5211 43.5658C98.3003 46.9283 100.177 48.7729 101.826 48.7729V49.1973L101.891 48.7729C107.098 48.5933 126.866 27.1775 133.46 12.9927C135.599 8.45492 136.039 5.1903 134.782 3.558C133.362 1.74614 130.294 0.783085 125.886 0.783085V0.815726ZM102.854 45.3287C101.679 45.3287 100.52 44.2677 99.3777 42.1783C95.656 35.3063 92.9137 19.424 95.5744 15.3269C98.0555 11.5073 108.665 7.60612 116.582 7.60612C119.553 7.60612 121.74 8.16111 123.144 9.25475C125.135 10.8218 125.462 13.7762 124.074 18.0039C120.483 28.9893 106.543 45.1981 102.838 45.3287H102.854ZM116.598 8.4386C109.025 8.4386 98.5778 12.2092 96.2599 15.784C93.7788 19.5872 96.5211 35.1921 100.112 41.8029C101.059 43.5658 102.038 44.5289 102.806 44.5289C105.94 44.4146 119.684 28.8751 123.324 17.7754C124.597 13.9068 124.368 11.2625 122.671 9.92399C121.446 8.94461 119.357 8.47124 116.631 8.47124H116.615L116.598 8.4386Z" fill="white"/>
<path d="M102.282 52.4779C100.307 52.4779 98.2343 50.5355 96.2592 46.8301C91.3949 37.6566 88.5711 20.7296 92.2274 15.3103C96.0797 9.61359 114.574 2.8885 126.343 2.8885C131.06 2.8885 134.259 3.93317 135.859 5.97355C137.344 7.86703 136.953 11.3275 134.651 16.2408C128.416 29.6093 108.191 52.2984 102.364 52.4942H102.266L102.282 52.4779ZM126.359 3.68832C115.014 3.68832 96.5694 10.3318 92.913 15.7511C89.4688 20.8438 92.3417 37.6403 96.9938 46.4384C98.773 49.8009 100.65 51.6455 102.282 51.6455V52.0698L102.348 51.6455C107.555 51.4659 127.322 30.05 133.916 15.8653C136.055 11.3275 136.496 8.06291 135.239 6.46325C133.819 4.65139 130.75 3.68832 126.359 3.68832ZM103.343 48.2176C102.168 48.2176 101.009 47.1566 99.8666 45.0673C96.145 38.1952 93.4027 22.3129 96.047 18.2158C98.5281 14.3962 109.138 10.495 117.055 10.495C120.026 10.495 122.213 11.05 123.617 12.1437C125.608 13.7107 125.935 16.6651 124.547 20.8928C120.956 31.8782 107.016 48.087 103.311 48.2176H103.36H103.343ZM117.071 11.3112C109.497 11.3112 99.0505 15.0818 96.7326 18.6566C94.2515 22.4598 96.9938 38.0647 100.585 44.6755C101.532 46.4384 102.511 47.4014 103.278 47.4014C106.412 47.2872 120.156 31.7477 123.796 20.6317C125.069 16.7631 124.841 14.1188 123.143 12.7803C121.919 11.8009 119.83 11.3275 117.104 11.3275H117.087L117.071 11.3112Z" fill="white"/>
<path d="M21.957 29.8541L3.39767 10.952V29.1849H0.73703V4.53706L19.3126 23.3902V5.2063H21.9733V29.8215H21.957V29.8541Z" fill="white"/>
<path d="M40.6634 29.1856H38.117V26.7372C37.611 27.6839 36.8928 28.4021 35.9787 28.9081C35.0809 29.4142 33.9873 29.6427 32.7304 29.6427C30.6737 29.6427 28.9598 28.9081 27.6376 27.3901C26.2991 25.8884 25.6462 23.9622 25.6462 21.6281C25.6462 19.2939 26.3154 17.482 27.6539 16.0293C28.9924 14.5928 30.7063 13.8583 32.812 13.8583C33.9873 13.8583 35.0646 14.0868 35.9624 14.5602C36.8601 15.0172 37.5783 15.7028 38.117 16.5516V14.299H40.6634V29.1856ZM38.117 21.5954C38.117 19.9794 37.6763 18.6736 36.7785 17.7268C35.8807 16.7801 34.6891 16.3067 33.1874 16.3067C31.6857 16.3067 30.4941 16.7964 29.58 17.7921C28.6496 18.7715 28.1926 20.0774 28.1926 21.677C28.1926 23.2767 28.6496 24.6478 29.5637 25.6598C30.4615 26.6719 31.6531 27.1942 33.0569 27.1942C34.4606 27.1942 35.7012 26.6556 36.6642 25.6272C37.611 24.5825 38.1007 23.2114 38.1007 21.5791H38.117V21.5954Z" fill="white"/>
<path d="M60.0877 21.6601C60.0877 23.9943 59.4184 25.9205 58.0962 27.4222C56.7578 28.9239 55.0602 29.6748 52.9708 29.6748C51.7466 29.6748 50.6529 29.4136 49.7552 28.9402C48.8248 28.4342 48.1392 27.716 47.6169 26.7693V29.2177H45.0704V2.97026H47.6169V16.6163C48.1555 15.7349 48.8901 15.082 49.7878 14.6249C50.6856 14.1679 51.7303 13.923 52.9218 13.923C55.0275 13.923 56.7741 14.6412 58.0799 16.094C59.4184 17.5304 60.0877 19.4076 60.0877 21.6928V21.6438V21.6601ZM57.5249 21.6765C57.5249 20.0605 57.0679 18.7546 56.1375 17.7916C55.2071 16.8122 53.9992 16.3062 52.5301 16.3062C51.061 16.3062 49.8368 16.7632 48.939 17.7263C48.0412 18.673 47.6005 19.9462 47.6005 21.5949C47.6005 23.2435 48.0902 24.582 49.0369 25.643C49.9837 26.6876 51.2079 27.21 52.677 27.21C54.1461 27.21 55.2723 26.704 56.1701 25.6756C57.0679 24.6636 57.5413 23.3088 57.5413 21.6928L57.5249 21.6765Z" fill="white"/>
<path d="M65.9966 29.1851H63.4666V2.93766H65.9966V29.1851Z" fill="white"/>
<path d="M84.1316 29.1856H81.5852V26.7372C81.0792 27.6839 80.361 28.4021 79.4469 28.9081C78.5165 29.4142 77.4555 29.6427 76.1986 29.6427C74.1419 29.6427 72.428 28.9081 71.0732 27.3901C69.7347 25.8884 69.0818 23.9622 69.0818 21.6281C69.0818 19.2939 69.751 17.482 71.0895 16.0293C72.428 14.5928 74.1419 13.8583 76.2476 13.8583C77.4229 13.8583 78.5002 14.0868 79.398 14.5602C80.2957 15.0172 81.0139 15.7028 81.5526 16.5516V14.299H84.099V29.1856H84.1316ZM81.5852 21.5954C81.5852 19.9794 81.1445 18.6736 80.2467 17.7268C79.349 16.7801 78.1574 16.3067 76.672 16.3067C75.1866 16.3067 73.9787 16.7964 73.0646 17.7921C72.1342 18.7715 71.6771 20.0774 71.6771 21.677C71.6771 23.2767 72.1342 24.6478 73.0483 25.6598C73.9461 26.6719 75.1376 27.1942 76.5741 27.1942C78.0105 27.1942 79.2184 26.6556 80.1815 25.6272C81.1282 24.5825 81.6179 23.2114 81.6179 21.5791H81.6016L81.5852 21.5954Z" fill="white"/>
<path d="M8.45826 39.8445C8.45826 41.6074 7.95225 42.9296 6.95654 43.8273C5.94451 44.7251 4.47543 45.1985 2.53298 45.1985H0.443634V34.4742H2.58195C4.47542 34.4742 5.94451 34.9313 6.95654 35.8617C7.96857 36.7921 8.49091 38.1143 8.49091 39.8445H8.47457H8.45826ZM7.13609 39.8282C7.13609 38.4897 6.76067 37.4613 5.99349 36.7758C5.2263 36.0739 4.13265 35.7148 2.69622 35.7148H1.7658V43.9416H2.59829C4.13266 43.9416 5.25894 43.5988 6.0098 42.9296C6.74434 42.2603 7.11976 41.2156 7.11976 39.8282H7.13609Z" fill="white"/>
<path d="M11.9017 35.8454C11.9017 36.0739 11.8037 36.2861 11.6732 36.4493C11.5099 36.6125 11.2977 36.6778 11.0692 36.6778C10.8407 36.6778 10.6285 36.6125 10.4652 36.4493C10.302 36.2861 10.2367 36.0739 10.2367 35.8454C10.2367 35.6168 10.302 35.421 10.4652 35.2414C10.6285 35.0782 10.8407 35.0129 11.0692 35.0129C11.2977 35.0129 11.5099 35.0782 11.6732 35.2414C11.8364 35.4046 11.9017 35.6168 11.9017 35.8454ZM11.7058 45.1985H10.4326V38.555H11.7058V45.1985Z" fill="white"/>
<path d="M20.0147 45.5408C20.0147 46.7651 19.7535 47.6465 19.2475 48.2015C18.7415 48.7565 17.9253 49.034 16.799 49.034C15.8686 49.034 15.1504 48.8218 14.5954 48.43C14.0404 48.0383 13.7303 47.4506 13.6487 46.7324H14.9382C15.0035 47.0752 15.1994 47.3527 15.4932 47.5486C15.8196 47.7281 16.2277 47.8261 16.7827 47.8261C17.5009 47.8261 17.9906 47.6628 18.2681 47.3364C18.5456 47.0099 18.6925 46.4549 18.6925 45.6714V44.1697C18.4803 44.5941 18.1865 44.9042 17.811 45.1164C17.4356 45.3286 16.9949 45.4429 16.4726 45.4429C15.5422 45.4429 14.8076 45.1164 14.22 44.4472C13.6487 43.7779 13.3549 42.9128 13.3549 41.8518C13.3549 40.7908 13.6323 39.9584 14.22 39.3054C14.7913 38.6525 15.5585 38.326 16.4889 38.326C16.9786 38.326 17.4193 38.424 17.7784 38.6199C18.1538 38.7994 18.4476 39.1096 18.6762 39.5013V38.5546H19.9494V45.5572H19.9984L20.0147 45.5408ZM18.7415 41.7865C18.7415 41.0683 18.5619 40.5297 18.2028 40.1216C17.86 39.7298 17.3377 39.5176 16.7174 39.5176C16.0971 39.5176 15.6074 39.7298 15.232 40.1379C14.8566 40.5623 14.677 41.1173 14.677 41.8355C14.677 42.5537 14.8566 43.1087 15.232 43.5494C15.6074 43.9901 16.0971 44.2023 16.6847 44.2023C17.2724 44.2023 17.7784 43.9902 18.1702 43.5331C18.5456 43.0924 18.7415 42.5211 18.7415 41.8029H18.7251L18.7415 41.7865Z" fill="white"/>
<path d="M23.9649 35.8454C23.9649 36.0739 23.8669 36.2861 23.7363 36.4493C23.5731 36.6125 23.3609 36.6778 23.1324 36.6778C22.9039 36.6778 22.6917 36.6125 22.5284 36.4493C22.3652 36.2861 22.2673 36.0739 22.2673 35.8454C22.2673 35.6168 22.3652 35.421 22.5284 35.2414C22.6917 35.0782 22.8712 35.0129 23.1324 35.0129C23.3936 35.0129 23.5731 35.0782 23.7363 35.2414C23.8996 35.4046 23.9649 35.6168 23.9649 35.8454ZM23.7853 45.1985H22.5121V38.555H23.7853V45.1985Z" fill="white"/>
<path d="M28.7145 39.6808H27.5719V45.198H26.2986V39.6808H25.5804V38.5382H26.2986V35.8775H27.5719V38.5382H28.7145V39.6808Z" fill="white"/>
<path d="M35.9461 45.1983H34.6729V44.1537C34.4607 44.5781 34.1669 44.8882 33.7914 45.1004C33.416 45.3126 32.9589 45.4269 32.4529 45.4269C31.5225 45.4269 30.788 45.1004 30.2004 44.4312C29.6291 43.7619 29.3516 42.8968 29.3516 41.8358C29.3516 40.7748 29.6291 39.9423 30.2004 39.2894C30.7717 38.6365 31.5389 38.31 32.4693 38.31C32.959 38.31 33.3997 38.408 33.7588 38.6038C34.1342 38.816 34.428 39.0935 34.6892 39.4853V38.5385H35.9624V45.182H35.9461V45.1983ZM34.6729 41.7868C34.6729 41.0686 34.4933 40.5299 34.1342 40.1219C33.7588 39.7301 33.2691 39.5179 32.6488 39.5179C32.0285 39.5179 31.5389 39.7301 31.1634 40.1382C30.788 40.5626 30.6084 41.1176 30.6084 41.8358C30.6084 42.554 30.788 43.109 31.1634 43.5497C31.5389 43.9904 32.0285 44.2026 32.6162 44.2026C33.2038 44.2026 33.7261 43.9741 34.1016 43.5334C34.4933 43.0927 34.6729 42.5214 34.6729 41.8031H34.6566L34.6729 41.7868Z" fill="white"/>
<path d="M39.4229 45.1978H38.1497V33.4616H39.4229V45.1978Z" fill="white"/>
<path d="M52.4158 44.5285C51.9914 44.7896 51.518 45.0181 50.963 45.1814C50.3917 45.3446 49.8531 45.4425 49.3634 45.4425C47.7637 45.4425 46.4415 44.9365 45.4785 43.8919C44.4828 42.8472 43.9931 41.5087 43.9931 39.8437C43.9931 38.1788 44.4991 36.9056 45.4948 35.8446C46.5068 34.7999 47.8127 34.2776 49.3797 34.2776C50 34.2776 50.555 34.3429 51.0446 34.4898C51.5343 34.6367 51.9914 34.8652 52.4158 35.159V36.6607C51.9587 36.2853 51.4854 35.9915 50.9957 35.7956C50.506 35.6161 50.0163 35.5181 49.5103 35.5181C48.2534 35.5181 47.2414 35.9425 46.4579 36.7423C45.6744 37.5585 45.2826 38.6032 45.2826 39.8437C45.2826 41.0843 45.658 42.1616 46.4252 42.9778C47.1924 43.7939 48.1392 44.202 49.3471 44.202C49.9184 44.202 50.457 44.104 50.963 43.9082C51.469 43.7286 51.9587 43.4185 52.4158 43.0267V44.5611V44.5285Z" fill="white"/>
<path d="M60.4135 41.835C60.4135 42.8307 60.0707 43.6958 59.4015 44.3814C58.6996 45.0833 57.8671 45.4261 56.8714 45.4261C55.8757 45.4261 55.0432 45.0833 54.374 44.3814C53.7047 43.6795 53.3619 42.847 53.3619 41.835C53.3619 40.823 53.6884 39.9742 54.3576 39.3049C55.0269 38.6357 55.8593 38.2929 56.855 38.2929C57.8507 38.2929 58.7159 38.6357 59.3851 39.3049C60.0544 39.9742 60.3972 40.8067 60.3972 41.8024H60.4135V41.835ZM59.1403 41.835C59.1403 41.1658 58.9281 40.6108 58.4873 40.1864C58.0629 39.7457 57.508 39.5335 56.8877 39.5335C56.2674 39.5335 55.7124 39.7457 55.2717 40.1864C54.8473 40.6271 54.6188 41.1658 54.6188 41.8513C54.6188 42.5369 54.831 43.1082 55.2717 43.5489C55.6961 43.9896 56.2511 44.2182 56.8714 44.2182C57.4917 44.2182 58.0466 43.9896 58.4873 43.5489C58.9117 43.1082 59.1076 42.5369 59.1076 41.8513H59.1239L59.1403 41.835Z" fill="white"/>
<path d="M62.3891 44.5454C62.3891 44.8066 62.2912 45.0025 62.128 45.1657C61.9648 45.3289 61.7526 45.4269 61.5077 45.4269C61.2629 45.4269 61.0507 45.3289 60.8874 45.1657C60.7242 45.0025 60.6263 44.7903 60.6263 44.5454C60.6263 44.3006 60.7242 44.0884 60.8874 43.9252C61.0507 43.7619 61.2629 43.664 61.5077 43.664C61.7526 43.664 61.9648 43.7619 62.128 43.9252C62.2912 44.0884 62.3891 44.3006 62.3891 44.5454Z" fill="white"/>
<path d="M65.7192 43.9903L63.8583 47.6466L63.0748 47.3528L64.4133 43.4353L65.7028 43.9739L65.7192 43.9903Z" fill="white"/>
<path d="M72.5093 45.1985H68.2653V34.4742H69.6038V43.9742H72.5256V45.1985H72.5093Z" fill="white"/>
<path d="M76.7367 39.6808H75.5941V45.198H74.3209V39.6808H73.6027V38.5382H74.3209V35.8775H75.5941V38.5382H76.7367V39.6808Z" fill="white"/>
<path d="M83.9681 45.1987H82.6949V44.154C82.4827 44.5784 82.1889 44.8885 81.8134 45.1007C81.438 45.3129 80.9809 45.4272 80.4749 45.4272C79.5445 45.4272 78.81 45.1007 78.2224 44.4315C77.6511 43.7622 77.3572 42.8971 77.3572 41.8361C77.3572 40.7751 77.6347 39.9426 78.2224 39.2897C78.7937 38.6368 79.5608 38.3103 80.4913 38.3103C80.981 38.3103 81.4217 38.4083 81.7808 38.6041C82.1562 38.8163 82.45 39.0938 82.7112 39.4856V33.4461H83.9844V45.1823H83.9681V45.1987ZM82.6949 41.7871C82.6949 41.0689 82.5153 40.5303 82.1562 40.1222C81.7808 39.7304 81.2911 39.5182 80.6708 39.5182C80.0505 39.5182 79.5608 39.7304 79.1854 40.1385C78.81 40.5629 78.6304 41.1179 78.6304 41.8361C78.6304 42.5543 78.81 43.1093 79.1854 43.55C79.5608 43.9907 80.0505 44.203 80.6382 44.203C81.2258 44.203 81.7481 43.9744 82.1236 43.5337C82.5153 43.093 82.6949 42.5217 82.6949 41.8035H82.6785L82.6949 41.7871Z" fill="white"/>
<path d="M87.2658 44.5454C87.2658 44.8066 87.1678 45.0025 87.0046 45.1657C86.8414 45.3289 86.6292 45.4269 86.3843 45.4269C86.1395 45.4269 85.9273 45.3289 85.764 45.1657C85.6008 45.0025 85.5029 44.7903 85.5029 44.5454C85.5029 44.3006 85.6008 44.0884 85.764 43.9252C85.9273 43.7619 86.1558 43.664 86.3843 43.664C86.6128 43.664 86.8414 43.7619 87.0046 43.9252C87.1678 44.0884 87.2658 44.3006 87.2658 44.5454Z" fill="white"/>
</g>
</svg>
