<svg width="79" height="101" viewBox="0 0 79 101" fill="none" xmlns="http://www.w3.org/2000/svg">
<path d="M38.1694 0C17.0981 0 0 17.0981 0 38.1694C0 56.9664 13.5908 72.6123 31.511 75.7634L35.1826 96.4236H41.3204L44.8552 75.7634C62.748 72.6123 76.3388 56.9938 76.3388 38.1694C76.3388 17.0981 59.2407 0 38.1694 0ZM38.1694 65.6251C22.9893 65.6251 10.7137 53.3221 10.7137 38.142C10.7137 22.9619 23.0167 10.6589 38.1694 10.6589C53.3221 10.6589 65.6524 22.9619 65.6524 38.142C65.6524 53.3221 53.3495 65.6251 38.1694 65.6251Z" fill="white"/>
<path d="M21.073 82.9701H25.2652V93.1906H31.8141V96.5335H21.1003V82.9701H21.073Z" fill="white"/>
<path d="M52.9122 86.6966H56.4468V96.3965C56.4468 96.9993 56.3372 97.6022 56.0632 98.1502C55.7892 98.6982 55.4603 99.164 55.0219 99.4928C54.5835 99.8216 54.0356 100.096 53.3779 100.233C52.7203 100.37 51.953 100.452 51.0762 100.452C49.1033 100.452 47.7607 100.15 47.0209 99.575C46.2811 98.9996 45.9248 98.1776 45.9248 97.1911C45.9248 97.0815 45.9248 96.8897 45.9248 96.6979L49.6515 96.7527C49.6515 97.1363 49.7337 97.6844 50.0077 97.8214C50.2817 98.0132 50.6378 98.0954 51.0488 98.0954C51.5968 98.0954 52.0078 97.9584 52.2544 97.657C52.501 97.3555 52.6655 96.8623 52.6655 96.1499V94.6703C52.3093 95.1087 51.9256 95.4375 51.5694 95.6293C50.994 95.9307 50.3637 96.0951 49.6787 96.0951C48.3635 96.0951 47.2949 95.5197 46.5003 94.3689C45.9249 93.5468 45.6509 92.4782 45.6509 91.1356C45.6509 89.6011 46.0072 88.4503 46.747 87.6283C47.4868 86.8062 48.4458 86.4226 49.6515 86.4226C50.4187 86.4226 51.0489 86.5596 51.5421 86.8062C52.0353 87.0528 52.501 87.4912 52.9394 88.0941V86.6418L52.9122 86.6966ZM48.9937 91.4644C48.9937 92.1768 49.1582 92.6974 49.4596 93.0536C49.761 93.4098 50.1721 93.5742 50.6653 93.5742C51.1585 93.5742 51.5147 93.4098 51.8435 93.0536C52.1723 92.6974 52.3093 92.1768 52.3093 91.437C52.3093 90.6971 52.1449 90.1765 51.8161 89.7929C51.4873 89.4093 51.0762 89.2175 50.583 89.2175C50.0898 89.2175 49.7062 89.3819 49.4322 89.7381C49.1582 90.0943 48.9937 90.6697 48.9937 91.4644Z" fill="white"/>
<path d="M58.6929 82.9701H62.4468V87.957C62.9674 87.4364 63.4606 87.0528 63.9812 86.8062C64.5018 86.5596 65.0773 86.4774 65.7623 86.4774C66.7762 86.4774 67.598 86.7788 68.1735 87.409C68.7489 88.0393 69.0503 88.9983 69.0503 90.2861V96.5335H65.269V91.1356C65.269 90.5327 65.1594 90.0943 64.9402 89.8203C64.721 89.5463 64.3922 89.4367 63.9812 89.4367C63.5154 89.4367 63.1591 89.6011 62.8851 89.9573C62.6111 90.3135 62.4468 90.9164 62.4468 91.8206V96.5335H58.6929V82.9701Z" fill="white"/>
<path d="M75.8744 82.9701V86.6966H77.9568V89.4641H75.8744V92.944C75.8744 93.355 75.9018 93.629 75.984 93.766C76.1484 94.1771 77.5733 94.2045 78.0939 94.1496V96.6431C75.6826 96.8623 74.0385 96.7527 73.3809 96.3965C72.9425 96.1499 72.6137 95.7937 72.3945 95.3005C72.1753 94.8073 72.0657 94.0127 72.0657 92.9166V89.4641H70.6682V86.6966H72.0657V82.9701H75.847H75.8744Z" fill="white"/>
</svg>
