<svg width="30" height="30" viewBox="0 0 30 30" fill="none" xmlns="http://www.w3.org/2000/svg">
<path fill-rule="evenodd" clip-rule="evenodd" d="M30 15C30 23.2843 23.2843 30 15 30C6.71573 30 0 23.2843 0 15C0 6.71573 6.71573 0 15 0C23.2843 0 30 6.71573 30 15ZM23.298 12.3069C23.298 17.571 19.2917 23.6396 11.9658 23.6402C9.7173 23.64 7.62435 22.98 5.86241 21.8513C6.17574 21.8891 6.49129 21.9069 6.81352 21.9069C8.68018 21.9069 10.3957 21.2713 11.7602 20.2024C10.018 20.1691 8.54685 19.018 8.04018 17.4358C8.28241 17.4824 8.53352 17.5069 8.78907 17.5069C9.1513 17.5069 9.50241 17.458 9.83796 17.3669C8.01574 17.0024 6.64241 15.3913 6.64241 13.4624V13.4113C7.18018 13.7091 7.79352 13.8891 8.44685 13.9091C7.37574 13.1958 6.67352 11.9758 6.67352 10.5935C6.67352 9.86465 6.87129 9.1802 7.21352 8.59132C9.17574 11.0024 12.1113 12.5869 15.4224 12.7535C15.3535 12.4602 15.318 12.158 15.318 11.8446C15.318 9.64687 17.1024 7.86243 19.3024 7.86243C20.4469 7.86243 21.4824 8.34687 22.2091 9.1202C23.1157 8.94243 23.9691 8.60909 24.738 8.15354C24.4402 9.08243 23.8091 9.86243 22.9869 10.3558C23.7913 10.2602 24.5602 10.0469 25.2735 9.72909C24.7402 10.5269 24.0646 11.2291 23.2869 11.7913C23.2935 11.9624 23.298 12.1335 23.298 12.3069ZM11.9658 23.6402C11.9654 23.6402 11.965 23.6402 11.9646 23.6402H11.9669C11.9665 23.6402 11.9661 23.6402 11.9658 23.6402Z" fill="#fff"/>
</svg>
