<svg width="104" height="25" viewBox="0 0 104 25" fill="none" xmlns="http://www.w3.org/2000/svg">
<g clip-path="url(#clip0_1255_29810)">
<path d="M23.9978 16.5091L22.7503 15.2597L23.9978 14.0127C24.472 13.5372 24.7383 12.8931 24.7383 12.2216C24.7383 11.5501 24.472 10.9059 23.9978 10.4304L19.6137 6.04628V3.97371C19.6137 3.26396 19.0929 2.65847 18.4027 2.56762C18.1052 2.52862 17.803 2.5865 17.541 2.73268C17.2789 2.87885 17.0709 3.10556 16.9478 3.3792L14.2923 0.735299C13.8311 0.276166 13.2066 0.0185094 12.5558 0.0187379C11.905 0.0189665 11.2807 0.277062 10.8198 0.736518L1.11124 10.4304C0.637053 10.9059 0.370767 11.5501 0.370767 12.2216C0.370767 12.8931 0.637053 13.5372 1.11124 14.0127L2.36185 15.2627L1.11185 16.5103C0.636918 16.9854 0.370117 17.6297 0.370117 18.3015C0.370117 18.9732 0.636918 19.6175 1.11185 20.0926L4.646 23.6268C5.09539 24.0768 5.68685 24.3676 6.321 24.4048C6.67958 24.4281 7.03897 24.3742 7.37501 24.247C7.71105 24.1197 8.01594 23.9219 8.26917 23.667L11.782 20.1633C11.8849 20.0607 12.007 19.9793 12.1413 19.9238C12.2757 19.8683 12.4196 19.8399 12.565 19.8401C12.7103 19.8402 12.8542 19.869 12.9884 19.9248C13.1227 19.9806 13.2446 20.0623 13.3472 20.1652L16.8429 23.667C17.0964 23.9216 17.4013 24.1192 17.7373 24.2464C18.0733 24.3736 18.4326 24.4277 18.7911 24.4048C19.4253 24.3664 20.0167 24.0755 20.4667 23.6268L24.0009 20.0926C24.4738 19.616 24.739 18.9717 24.7384 18.3002C24.7379 17.6288 24.4716 16.9849 23.9978 16.5091ZM2.19112 12.9329C2.09764 12.8394 2.02349 12.7285 1.9729 12.6064C1.92231 12.4843 1.89627 12.3534 1.89627 12.2213C1.89627 12.0891 1.92231 11.9582 1.9729 11.8362C2.02349 11.7141 2.09764 11.6031 2.19112 11.5097L11.7716 1.92798C12.2045 1.49505 12.9033 1.49505 13.3362 1.92798L22.9167 11.5097C23.3094 11.9024 23.3094 12.5402 22.9167 12.9329L21.6692 14.1804L14.3088 6.81091C13.848 6.35013 13.2233 6.09101 12.5716 6.09044C11.92 6.08987 11.2948 6.34789 10.8332 6.80786L3.44051 14.1853L2.19112 12.9329ZM20.5911 15.2585L19.3686 16.481C19.1908 16.6649 18.9521 16.7776 18.6972 16.7981C18.4045 16.8164 18.1259 16.7109 17.921 16.5054L14.2929 12.8823C13.8319 12.4219 13.207 12.1634 12.5554 12.1634C11.9039 12.1634 11.279 12.4219 10.8179 12.8823L7.1899 16.506C7.09659 16.5996 6.98566 16.6738 6.86352 16.7242C6.74139 16.7747 6.61046 16.8004 6.47831 16.7999C6.34617 16.8004 6.21524 16.7747 6.0931 16.7242C5.97097 16.6738 5.86004 16.5996 5.76673 16.506L4.521 15.2597L11.7844 7.99993C11.8872 7.89712 12.0093 7.8156 12.1437 7.76004C12.278 7.70448 12.422 7.67596 12.5674 7.67613C12.7128 7.6763 12.8567 7.70515 12.991 7.76103C13.1252 7.81691 13.2471 7.89871 13.3497 8.00176L20.5905 15.2579L20.5911 15.2585ZM22.9186 19.0115L19.3686 22.5609C19.1908 22.7447 18.9521 22.8574 18.6972 22.878C18.4045 22.8963 18.1259 22.7902 17.921 22.5853L14.2911 18.9634C13.8304 18.5031 13.2058 18.2446 12.5545 18.2446C11.9033 18.2446 11.2787 18.5031 10.8179 18.9634L7.18807 22.5853C6.9838 22.7902 6.70453 22.8963 6.41185 22.878C6.15718 22.8573 5.91876 22.7446 5.74112 22.5609L2.19112 19.0109C2.09764 18.9175 2.02349 18.8065 1.9729 18.6845C1.92231 18.5624 1.89627 18.4315 1.89627 18.2993C1.89627 18.1672 1.92231 18.0363 1.9729 17.9142C2.02349 17.7921 2.09764 17.6812 2.19112 17.5877L3.4399 16.339L4.646 17.5444C5.09539 17.9944 5.68685 18.2853 6.321 18.3225C6.67958 18.3457 7.03897 18.2919 7.37501 18.1647C7.71105 18.0374 8.01594 17.8396 8.26917 17.5847L11.7808 14.0786C11.9884 13.8714 12.2699 13.7551 12.5633 13.7553C12.8567 13.7555 13.138 13.8723 13.3454 14.0798L16.8411 17.5847C17.0946 17.8393 17.3995 18.0369 17.7355 18.1641C18.0715 18.2914 18.4307 18.3454 18.7893 18.3225C19.4234 18.2841 20.0149 17.9932 20.4649 17.5444L21.6722 16.3371L22.9198 17.5877C23.1072 17.7772 23.2122 18.0331 23.212 18.2996C23.2118 18.5661 23.1063 18.8218 22.9186 19.0109V19.0115Z" fill="#E03C31"/>
<path d="M38.8795 18.1505H37.8368C37.8209 18.1505 37.8054 18.1554 37.7924 18.1646C37.7794 18.1738 37.7696 18.1868 37.7643 18.2017L37.1344 19.9944C37.0234 20.3097 36.8374 20.8396 36.7356 21.2322C36.7313 21.249 36.7215 21.2638 36.7078 21.2744C36.6941 21.285 36.6773 21.2908 36.66 21.2908C36.6427 21.2909 36.6259 21.2851 36.6123 21.2745C36.5987 21.2639 36.5891 21.249 36.585 21.2322C36.4783 20.8383 36.2832 20.3085 36.1661 19.9896L35.513 18.1999C35.5074 18.1852 35.4975 18.1725 35.4845 18.1635C35.4716 18.1544 35.4563 18.1495 35.4405 18.1493H34.3966C34.3758 18.1493 34.3558 18.1575 34.341 18.1721C34.3261 18.1867 34.3176 18.2065 34.3173 18.2274C34.3173 18.2383 34.3191 18.2475 34.3234 18.2566L36.0521 22.606L35.3752 24.2969C35.3728 24.306 35.3691 24.3152 35.3691 24.3261C35.3691 24.3688 35.4051 24.4048 35.4484 24.4048H36.46C36.4756 24.4049 36.4909 24.4003 36.5038 24.3916C36.5168 24.3829 36.5268 24.3705 36.5325 24.356L38.9551 18.256C38.958 18.2472 38.9594 18.2379 38.9594 18.2286C38.9585 18.2078 38.9497 18.1881 38.9349 18.1736C38.9201 18.159 38.9003 18.1511 38.8795 18.1505ZM30.7094 18.9024C30.7028 18.9156 30.6928 18.9267 30.6803 18.9346C30.6678 18.9425 30.6534 18.9467 30.6386 18.9469C30.6178 18.9467 30.5979 18.9384 30.5832 18.9237C30.5685 18.9089 30.5601 18.889 30.56 18.8682C30.56 18.7896 30.6435 18.2048 30.6435 16.731V16.2761C30.6432 16.2553 30.6347 16.2355 30.6199 16.2209C30.6051 16.2063 30.5851 16.1981 30.5643 16.1981H29.5685C29.5477 16.1981 29.5277 16.2063 29.5129 16.2209C29.4981 16.2355 29.4896 16.2553 29.4893 16.2761V22.5304C29.4893 22.5731 29.5252 22.6091 29.5685 22.6091H30.4832C30.504 22.6089 30.5239 22.6006 30.5386 22.5859C30.5533 22.5711 30.5617 22.5512 30.5618 22.5304V21.8926C30.5623 21.8749 30.5687 21.8578 30.5801 21.8441C30.5914 21.8305 30.6071 21.821 30.6244 21.8173C30.6418 21.8135 30.6599 21.8158 30.6759 21.8236C30.6918 21.8314 30.7047 21.8443 30.7124 21.8603C30.8051 22.0487 31.199 22.6981 32.1661 22.6981C33.3155 22.6981 34.2563 21.6957 34.2563 20.3774C34.2563 19.0591 33.3155 18.0566 32.1661 18.0566C31.3582 18.0597 30.899 18.528 30.7094 18.9024ZM33.1027 20.3804C33.1027 21.0707 32.5575 21.6298 31.8844 21.6298C31.2118 21.6298 30.6661 21.0707 30.6661 20.3804C30.6661 19.6908 31.2118 19.1316 31.8844 19.1316C32.5575 19.1298 33.1027 19.6908 33.1027 20.3804ZM79.6197 20.0877C79.599 20.0876 79.5792 20.0793 79.5645 20.0647C79.5498 20.0501 79.5414 20.0304 79.5411 20.0097V19.0853C79.5412 19.0645 79.5496 19.0446 79.5643 19.0298C79.579 19.0151 79.5989 19.0068 79.6197 19.0066H82.3179C82.5027 19.0066 82.6228 19.1578 82.6289 19.3054C82.6289 19.3054 82.635 19.4597 82.6307 19.6182C82.5783 21.4475 81.4569 22.7292 79.6521 22.7292C77.8197 22.7292 76.4905 21.2627 76.4905 19.4316C76.4905 17.5993 77.8502 16.0963 79.6813 16.0963C81.1197 16.0963 81.8777 16.9999 81.9204 17.0371C81.9278 17.0441 81.9338 17.0525 81.9379 17.0618C81.9421 17.0711 81.9444 17.0812 81.9447 17.0914C81.945 17.1016 81.9432 17.1117 81.9396 17.1212C81.9359 17.1308 81.9304 17.1395 81.9234 17.1469L81.2386 17.8731C81.2244 17.888 81.2049 17.8966 81.1844 17.8972C81.1638 17.8977 81.1439 17.8902 81.1289 17.8761C81.0923 17.8377 80.5697 17.2298 79.6832 17.2298C78.488 17.2298 77.6636 18.2365 77.6636 19.4316C77.6636 20.6268 78.4941 21.6048 79.663 21.6048C80.5947 21.6048 81.26 21.1109 81.4204 20.2987C81.4246 20.2725 81.4277 20.256 81.4277 20.242C81.4277 20.2216 81.4238 20.2013 81.416 20.1824C81.4082 20.1635 81.3968 20.1463 81.3823 20.1319C81.3679 20.1174 81.3507 20.106 81.3318 20.0982C81.3129 20.0904 81.2926 20.0864 81.2722 20.0865H79.6197V20.0877ZM84.8606 22.6816C83.9874 22.6816 83.3332 22.0426 83.3332 20.8993V18.2286C83.3335 18.208 83.3418 18.1883 83.3564 18.1737C83.3709 18.1592 83.3906 18.1508 83.4112 18.1505H84.4076C84.4284 18.1507 84.4483 18.159 84.463 18.1737C84.4777 18.1885 84.486 18.2084 84.4862 18.2292V20.6194C84.4862 21.317 84.796 21.6524 85.3643 21.6524C85.9076 21.6524 86.2807 21.2908 86.2807 20.6194V18.2292C86.2809 18.2084 86.2892 18.1885 86.3039 18.1737C86.3186 18.159 86.3386 18.1507 86.3594 18.1505H87.3557C87.3764 18.1508 87.3962 18.1593 87.4108 18.174C87.4254 18.1887 87.4336 18.2085 87.4338 18.2292V22.5304C87.4336 22.5511 87.4254 22.5709 87.4108 22.5856C87.3962 22.6003 87.3764 22.6088 87.3557 22.6091H86.4405C86.4198 22.6088 86.4 22.6003 86.3854 22.5856C86.3708 22.5709 86.3626 22.5511 86.3624 22.5304V21.7377C86.3624 21.7168 86.3542 21.6967 86.3394 21.6819C86.3247 21.667 86.3047 21.6586 86.2838 21.6585C86.2405 21.6585 86.2143 21.6847 86.2033 21.7268C86.0941 22.0987 85.7569 22.6816 84.8606 22.6816ZM51.585 18.0396C51.2776 18.0396 50.9732 18.1001 50.6892 18.2178C50.4052 18.3355 50.1472 18.508 49.93 18.7255C49.7127 18.9429 49.5404 19.201 49.4229 19.4851C49.3055 19.7692 49.2451 20.0736 49.2454 20.381C49.2454 21.0014 49.4918 21.5965 49.9305 22.0352C50.3692 22.4739 50.9643 22.7204 51.5847 22.7204C52.2051 22.7204 52.8001 22.4739 53.2388 22.0352C53.6775 21.5965 53.924 21.0014 53.924 20.381C53.9243 20.0737 53.8639 19.7693 53.7465 19.4853C53.6291 19.2012 53.4568 18.9431 53.2396 18.7257C53.0224 18.5082 52.7645 18.3357 52.4806 18.218C52.1967 18.1003 51.8923 18.0396 51.585 18.0396ZM51.585 21.6292C50.9118 21.6292 50.3667 21.0707 50.3667 20.3804C50.3667 19.6908 50.9118 19.1316 51.585 19.1316C52.2582 19.1316 52.8033 19.6908 52.8033 20.3804C52.8033 21.0707 52.2582 21.6292 51.585 21.6292ZM48.3283 19.1469C48.0478 19.1469 47.7661 19.2853 47.6075 19.6121C47.4966 19.8402 47.4594 20.1572 47.4594 20.5822L47.4612 22.5286C47.4612 22.5496 47.4529 22.5698 47.438 22.5846C47.4231 22.5995 47.403 22.6078 47.3819 22.6078H46.3862C46.3652 22.6078 46.345 22.5995 46.3302 22.5846C46.3153 22.5698 46.3069 22.5496 46.3069 22.5286V18.2274C46.3073 18.2065 46.3158 18.1867 46.3306 18.1721C46.3454 18.1575 46.3654 18.1493 46.3862 18.1493H47.3008C47.3216 18.1495 47.3414 18.1577 47.3561 18.1723C47.3708 18.1869 47.3792 18.2067 47.3795 18.2274V19.0207C47.3795 19.0633 47.4149 19.0993 47.4582 19.0993C47.5008 19.0993 47.5252 19.07 47.5374 19.0286C47.6167 18.7591 47.7399 18.431 47.9923 18.2213C48.1307 18.1072 48.3051 18.0548 48.4789 18.0548C48.6252 18.0548 48.7826 18.0908 48.9441 18.1938C48.9549 18.2007 48.9636 18.2103 48.9695 18.2217C48.9754 18.233 48.9782 18.2457 48.9777 18.2585V19.2335C48.9774 19.2541 48.969 19.2737 48.9545 19.2883C48.9399 19.3029 48.9202 19.3112 48.8996 19.3115C48.8842 19.3111 48.8693 19.3064 48.8563 19.2981C48.6971 19.2011 48.5147 19.1488 48.3283 19.1469ZM67.2996 19.1469C67.0191 19.1469 66.7374 19.2853 66.5789 19.6121C66.4679 19.8402 66.4307 20.1572 66.4307 20.5822L66.4325 22.5286C66.4325 22.5495 66.4243 22.5696 66.4095 22.5844C66.3948 22.5993 66.3748 22.6077 66.3539 22.6078H65.3575C65.3366 22.6077 65.3166 22.5993 65.3019 22.5844C65.2872 22.5696 65.2789 22.5495 65.2789 22.5286V18.2274C65.2792 18.2067 65.2876 18.1869 65.3023 18.1723C65.317 18.1577 65.3368 18.1495 65.3575 18.1493H66.2722C66.2929 18.1495 66.3127 18.1577 66.3274 18.1723C66.3421 18.1869 66.3505 18.2067 66.3508 18.2274V19.0207C66.3508 19.0633 66.3862 19.0993 66.4295 19.0993C66.4728 19.0993 66.4972 19.07 66.5094 19.0286C66.588 18.7591 66.7112 18.431 66.9636 18.2213C67.1017 18.1111 67.2736 18.0522 67.4502 18.0548C67.5966 18.0548 67.7539 18.0908 67.9155 18.1938C67.9368 18.2072 67.9496 18.2304 67.9496 18.2585V19.2335C67.9493 19.2542 67.9409 19.2739 67.9262 19.2885C67.9115 19.3031 67.8917 19.3113 67.871 19.3115C67.8556 19.311 67.8406 19.3064 67.8277 19.2981C67.6935 19.2207 67.5228 19.1469 67.2996 19.1469ZM90.4417 19.1469C90.1612 19.1469 89.8795 19.2853 89.721 19.6121C89.61 19.8402 89.5728 20.1572 89.5728 20.5822L89.5746 22.5286C89.5746 22.5495 89.5664 22.5696 89.5516 22.5844C89.5369 22.5993 89.5169 22.6077 89.496 22.6078H88.4996C88.4787 22.6077 88.4587 22.5993 88.444 22.5844C88.4292 22.5696 88.421 22.5495 88.421 22.5286V18.2274C88.4213 18.2067 88.4297 18.1869 88.4444 18.1723C88.4591 18.1577 88.4789 18.1495 88.4996 18.1493H89.4143C89.435 18.1495 89.4548 18.1577 89.4695 18.1723C89.4842 18.1869 89.4926 18.2067 89.4929 18.2274V19.0207C89.4929 19.0633 89.5283 19.0993 89.5716 19.0993C89.6149 19.0993 89.6393 19.07 89.6514 19.0286C89.7301 18.7591 89.8533 18.431 90.1057 18.2213C90.2437 18.1111 90.4157 18.0522 90.5923 18.0548C90.7386 18.0548 90.896 18.0908 91.0575 18.1938C91.0684 18.2007 91.0773 18.2102 91.0833 18.2216C91.0893 18.2329 91.0922 18.2456 91.0917 18.2585V19.2335C91.0914 19.2542 91.083 19.2739 91.0683 19.2885C91.0536 19.3031 91.0337 19.3113 91.013 19.3115C90.9977 19.311 90.9827 19.3064 90.9697 19.2981C90.8107 19.2008 90.6282 19.1485 90.4417 19.1469ZM93.2368 22.6816C92.3636 22.6816 91.7094 22.0426 91.7094 20.8993V18.2286C91.7097 18.2079 91.7181 18.1881 91.7328 18.1735C91.7475 18.1589 91.7673 18.1507 91.788 18.1505H92.7844C92.8052 18.1507 92.8251 18.159 92.8398 18.1737C92.8545 18.1885 92.8629 18.2084 92.863 18.2292V20.6194C92.863 21.317 93.1722 21.6524 93.7405 21.6524C94.2844 21.6524 94.6569 21.2908 94.6569 20.6194V18.2292C94.6571 18.2084 94.6654 18.1885 94.6802 18.1737C94.6949 18.159 94.7148 18.1507 94.7356 18.1505H95.7319C95.7527 18.1507 95.7727 18.159 95.7874 18.1737C95.8021 18.1885 95.8104 18.2084 95.8106 18.2292V22.5304C95.8104 22.5512 95.8021 22.5711 95.7874 22.5859C95.7727 22.6006 95.7527 22.6089 95.7319 22.6091H94.8173C94.7965 22.6089 94.7766 22.6006 94.7619 22.5859C94.7471 22.5711 94.7388 22.5512 94.7386 22.5304V21.7377C94.7386 21.7168 94.7304 21.6967 94.7156 21.6819C94.7009 21.667 94.6809 21.6586 94.66 21.6585C94.6167 21.6585 94.5905 21.6847 94.5801 21.7268C94.4722 22.0987 94.1332 22.6816 93.2368 22.6816ZM75.8063 18.1505H74.7643C74.7484 18.1505 74.733 18.1553 74.72 18.1643C74.707 18.1734 74.6971 18.1863 74.6917 18.2011L74.0618 19.9938C73.9508 20.3097 73.7642 20.8396 73.663 21.2316C73.6586 21.2484 73.6489 21.2633 73.6352 21.274C73.6215 21.2846 73.6048 21.2905 73.5874 21.2908C73.5701 21.291 73.5531 21.2853 73.5394 21.2747C73.5257 21.2641 73.516 21.2491 73.5118 21.2322C73.4057 20.8377 73.21 20.3085 73.0929 19.9896L72.4399 18.1999C72.4344 18.1852 72.4246 18.1724 72.4118 18.1634C72.3989 18.1544 72.3836 18.1495 72.3679 18.1493H71.3234C71.3027 18.1495 71.2829 18.1577 71.2682 18.1723C71.2535 18.1869 71.2451 18.2067 71.2447 18.2274C71.2445 18.2374 71.2466 18.2475 71.2508 18.2566L72.9789 22.606L72.3027 24.2969C72.299 24.3062 72.297 24.3161 72.2966 24.3261C72.2966 24.3688 72.3319 24.4048 72.3752 24.4048H73.3874C73.403 24.4049 73.4183 24.4003 73.4312 24.3914C73.444 24.3826 73.4539 24.37 73.4594 24.3554L75.8819 18.2566C75.885 18.2478 75.8866 18.2385 75.8868 18.2292C75.8859 18.2083 75.8771 18.1886 75.8621 18.174C75.8472 18.1594 75.8272 18.151 75.8063 18.1505ZM43.324 16.1981H41.3344C41.2935 16.1981 41.2531 16.2061 41.2154 16.2218C41.1776 16.2374 41.1434 16.2603 41.1145 16.2892C41.0856 16.3181 41.0627 16.3523 41.0471 16.3901C41.0314 16.4278 41.0234 16.4682 41.0234 16.5091V22.5304C41.0234 22.5731 41.0588 22.6091 41.1021 22.6091H42.0966C42.1175 22.6091 42.1376 22.6008 42.1524 22.5861C42.1673 22.5713 42.1757 22.5513 42.1758 22.5304V21.0335C42.1758 20.9475 42.2447 20.878 42.3307 20.878H43.3246C44.6563 20.878 45.7033 19.831 45.7033 18.5371C45.7051 17.245 44.6563 16.1981 43.324 16.1981ZM43.224 19.828H42.3307C42.3103 19.8281 42.29 19.8241 42.2711 19.8163C42.2522 19.8085 42.235 19.7971 42.2206 19.7826C42.2061 19.7682 42.1947 19.751 42.1869 19.7321C42.1791 19.7132 42.1751 19.6929 42.1752 19.6725V17.4054C42.1752 17.3188 42.2447 17.2499 42.3307 17.2499H43.224C43.9758 17.2499 44.5533 17.8274 44.5533 18.5389C44.5533 19.2499 43.9758 19.828 43.224 19.828ZM69.7191 19.2164C69.7193 19.1957 69.7275 19.1759 69.7421 19.1612C69.7567 19.1465 69.7765 19.138 69.7972 19.1377H70.7197C70.7406 19.1376 70.7605 19.1292 70.7752 19.1145C70.7899 19.0998 70.7982 19.0799 70.7984 19.0591V18.2274C70.7981 18.2067 70.7897 18.1869 70.775 18.1723C70.7603 18.1577 70.7404 18.1495 70.7197 18.1493H69.6911C69.6702 18.1492 69.6502 18.1407 69.6354 18.1259C69.6207 18.111 69.6124 18.091 69.6124 18.07V17.0353C69.6121 17.0146 69.6037 16.9948 69.589 16.9802C69.5743 16.9656 69.5545 16.9574 69.5338 16.9572H68.6441C68.6233 16.9574 68.6034 16.9657 68.5887 16.9805C68.574 16.9952 68.5656 17.0151 68.5655 17.0359V21.2536C68.5655 22.3408 69.0935 22.717 69.7838 22.717C70.2222 22.717 70.4825 22.5829 70.5923 22.5304C70.6082 22.5237 70.6216 22.5123 70.6307 22.4976C70.6397 22.483 70.644 22.4659 70.6429 22.4487L70.6411 21.7743C70.6411 21.7219 70.5923 21.6786 70.5277 21.7018C70.3874 21.7542 70.2685 21.7883 70.1252 21.7883C69.9191 21.7883 69.7161 21.6908 69.7161 21.3109V19.2164H69.7191ZM57.3063 22.7011C58.4551 22.7011 59.396 21.6987 59.396 20.3804C59.396 19.0621 58.4551 18.0597 57.3063 18.0597C56.3393 18.0597 55.9447 18.7097 55.8527 18.8975C55.8466 18.9116 55.8364 18.9235 55.8235 18.9318C55.8106 18.94 55.7955 18.9442 55.7801 18.9438C55.7593 18.9437 55.7394 18.9353 55.7247 18.9206C55.7099 18.9059 55.7016 18.886 55.7015 18.8652V18.2274C55.7011 18.2067 55.6927 18.1869 55.678 18.1723C55.6633 18.1577 55.6435 18.1495 55.6228 18.1493H54.7082C54.6874 18.1495 54.6676 18.1577 54.6529 18.1723C54.6382 18.1869 54.6298 18.2067 54.6295 18.2274V24.3261C54.6295 24.3688 54.6649 24.4048 54.7088 24.4048H55.7045C55.7253 24.4046 55.7452 24.3963 55.7599 24.3816C55.7747 24.3669 55.783 24.347 55.7832 24.3261V24.0274C55.7832 22.5536 55.7002 21.9682 55.7002 21.8896C55.7005 21.8689 55.709 21.8491 55.7237 21.8345C55.7384 21.8199 55.7582 21.8117 55.7789 21.8115C55.8216 21.8115 55.8435 21.8438 55.8496 21.856C56.0386 22.2316 56.4996 22.7011 57.3063 22.7011ZM57.0246 21.6292C56.3515 21.6292 55.8063 21.0707 55.8063 20.3804C55.8063 19.6908 56.3515 19.1316 57.0246 19.1316C57.6972 19.1316 58.2429 19.6908 58.2429 20.3804C58.2429 21.0707 57.6972 21.6292 57.0246 21.6292ZM62.2777 18.0396C60.985 18.0396 60.0338 19.0871 60.0338 20.3792C60.0338 21.6713 61.021 22.7182 62.3636 22.7182C63.0905 22.7182 63.6466 22.4639 64.0179 22.167C64.0338 22.1544 64.0442 22.1361 64.047 22.1161C64.0499 22.096 64.0449 22.0756 64.0332 22.0591L63.6204 21.4877C63.6144 21.4793 63.6069 21.4721 63.5981 21.4667C63.5893 21.4613 63.5796 21.4576 63.5694 21.456C63.5592 21.4545 63.5488 21.4549 63.5388 21.4574C63.5288 21.4599 63.5194 21.4644 63.5112 21.4707C63.3277 21.5896 63.06 21.8018 62.4496 21.8018C62.1982 21.8013 61.9523 21.728 61.7416 21.5908C61.531 21.4536 61.3645 21.2583 61.2624 21.0286C61.2423 20.9841 61.2118 20.9182 61.2118 20.8883C61.2121 20.8676 61.2205 20.8479 61.2352 20.8333C61.2499 20.8187 61.2698 20.8104 61.2905 20.8103H64.1533C64.2355 20.811 64.3147 20.7794 64.3739 20.7225C64.4332 20.6655 64.4678 20.5876 64.4704 20.5054C64.5429 19.1298 63.7758 18.0396 62.2777 18.0396ZM63.2649 20.0188H61.2563C61.2354 20.0187 61.2154 20.0102 61.2007 19.9954C61.1859 19.9805 61.1777 19.9605 61.1777 19.9396C61.1777 19.9213 61.1966 19.8554 61.213 19.8018C61.3764 19.295 61.7874 18.9975 62.3362 18.9975C62.7996 18.9975 63.146 19.2286 63.3265 19.5828C63.3771 19.6847 63.4204 19.8152 63.4204 19.8603C63.4204 19.9493 63.349 20.0188 63.2649 20.0188ZM41.9027 1.97858H39.0905C38.959 1.97858 38.8329 2.03081 38.7399 2.12377C38.647 2.21674 38.5947 2.34283 38.5947 2.47431V11.6871C38.5947 11.9615 38.8161 12.1828 39.0905 12.1828H41.9027C44.421 12.1828 46.4612 9.8987 46.4612 7.08041C46.4612 4.26211 44.4204 1.97858 41.9027 1.97858ZM41.488 10.5091H40.6752C40.6426 10.5091 40.6103 10.5028 40.5802 10.4903C40.55 10.4779 40.5226 10.4596 40.4996 10.4366C40.4765 10.4135 40.4582 10.3861 40.4458 10.356C40.4333 10.3258 40.427 10.2935 40.4271 10.2609V3.90053C40.4271 3.76333 40.538 3.65236 40.6752 3.65236H41.488C43.1789 3.65236 44.5515 5.18772 44.5515 7.08041C44.5515 8.97309 43.1807 10.5091 41.488 10.5091ZM64.8764 4.91089C64.3816 4.90194 63.8899 4.99167 63.4302 5.17485C62.9704 5.35803 62.5517 5.63098 62.1986 5.97777C61.8455 6.32455 61.565 6.73822 61.3735 7.19461C61.1821 7.651 61.0834 8.14097 61.0834 8.6359C61.0834 9.13082 61.1821 9.62079 61.3735 10.0772C61.565 10.5336 61.8455 10.9472 62.1986 11.294C62.5517 11.6408 62.9704 11.9138 63.4302 12.0969C63.8899 12.2801 64.3816 12.3699 64.8764 12.3609C65.8527 12.3432 66.783 11.943 67.4672 11.2464C68.1513 10.5497 68.5347 9.61232 68.5347 8.6359C68.5347 7.65948 68.1513 6.72208 67.4672 6.02543C66.783 5.32878 65.8527 4.92856 64.8764 4.91089ZM64.8764 10.6243C63.8045 10.6243 62.9362 9.73407 62.9362 8.6365C62.9362 7.53833 63.8045 6.64809 64.8764 6.64809C65.9484 6.64809 66.8173 7.53833 66.8173 8.6359C66.8173 9.73407 65.9484 10.6243 64.8764 10.6243ZM59.6911 6.67431C59.2447 6.67431 58.7978 6.89382 58.5435 7.41333C58.3667 7.77553 58.3082 8.28224 58.3082 8.95968L58.3112 12.0585C58.3112 12.1255 58.2563 12.181 58.188 12.181H56.6021C56.5695 12.1809 56.5384 12.1679 56.5154 12.145C56.4923 12.122 56.4792 12.091 56.4789 12.0585V5.21272C56.4789 5.14504 56.5338 5.08955 56.6021 5.08955H58.0569C58.1252 5.08955 58.1801 5.14443 58.1801 5.21272V6.47492C58.1801 6.54321 58.2356 6.5987 58.3039 6.5987C58.371 6.5987 58.413 6.55114 58.4319 6.48468C58.5563 6.0548 58.7514 5.53346 59.1551 5.1987C59.3747 5.02346 59.6486 4.93031 59.9295 4.93528C60.1624 4.93528 60.4136 4.9926 60.6691 5.15541C60.6862 5.1667 60.7 5.18214 60.7094 5.20028C60.7188 5.21842 60.7234 5.23865 60.7228 5.25907V6.80968C60.7228 6.87736 60.6679 6.93285 60.5996 6.93285C60.5751 6.93228 60.5513 6.92489 60.5307 6.9115C60.3197 6.79138 60.0472 6.6737 59.6911 6.6737V6.67431ZM89.8911 6.67431C89.4447 6.67431 88.9984 6.89382 88.7441 7.41333C88.5667 7.77553 88.5082 8.28224 88.5082 8.95968L88.5112 12.0585C88.5109 12.091 88.4978 12.122 88.4747 12.145C88.4517 12.1679 88.4206 12.1809 88.388 12.181H86.8021C86.7695 12.1809 86.7384 12.1679 86.7154 12.145C86.6923 12.122 86.6792 12.091 86.6789 12.0585V5.21272C86.6789 5.14504 86.7344 5.08955 86.8021 5.08955H88.2575C88.3252 5.08955 88.3807 5.14443 88.3807 5.21272V6.47492C88.3807 6.54321 88.4362 6.5987 88.5039 6.5987C88.5716 6.5987 88.613 6.55114 88.6313 6.48468C88.7563 6.0548 88.9521 5.53346 89.3551 5.1987C89.575 5.02346 89.849 4.93032 90.1301 4.93528C90.3624 4.93528 90.6137 4.9926 90.8691 5.15541C90.8863 5.16663 90.9002 5.18204 90.9097 5.20018C90.9192 5.21832 90.9239 5.23859 90.9234 5.25907V6.80968C90.9232 6.84229 90.9102 6.87353 90.8871 6.89659C90.8641 6.91966 90.8328 6.93269 90.8002 6.93285C90.7755 6.93236 90.7514 6.92497 90.7307 6.9115C90.5197 6.79138 90.2472 6.6737 89.8911 6.6737V6.67431ZM103.431 5.08772H101.772C101.746 5.08776 101.721 5.09561 101.7 5.11022C101.679 5.12483 101.663 5.14549 101.654 5.16943C101.654 5.16943 100.99 7.06089 100.652 8.02187C100.476 8.5237 100.178 9.36577 100.015 9.9926C100.009 10.0192 99.993 10.0428 99.9713 10.0597C99.9496 10.0767 99.923 10.0859 99.8954 10.0861C99.8679 10.0863 99.8411 10.0775 99.8192 10.0609C99.7972 10.0443 99.7813 10.021 99.774 9.99443C99.6045 9.3676 99.2935 8.5237 99.1088 8.01577L98.0691 5.16821C98.0606 5.14454 98.0449 5.1241 98.0243 5.10969C98.0036 5.09528 97.979 5.08761 97.9539 5.08772H96.2917C96.2715 5.08791 96.2516 5.09304 96.2338 5.10268C96.216 5.11232 96.2009 5.12616 96.1897 5.14301C96.1785 5.15985 96.1716 5.17918 96.1696 5.19931C96.1676 5.21944 96.1706 5.23974 96.1783 5.25846L98.9283 12.181L97.8502 14.8731C97.8428 14.8918 97.84 14.912 97.8422 14.932C97.8443 14.952 97.8513 14.9712 97.8625 14.9879C97.8738 15.0046 97.8889 15.0183 97.9066 15.0278C97.9244 15.0374 97.9441 15.0424 97.9642 15.0426H99.574C99.5989 15.0425 99.6232 15.035 99.6437 15.021C99.6642 15.0069 99.6801 14.9871 99.6893 14.9639L103.545 5.25724C103.553 5.23856 103.556 5.2182 103.554 5.19801C103.553 5.17782 103.546 5.15843 103.534 5.1416C103.523 5.12477 103.508 5.11102 103.49 5.10162C103.472 5.09221 103.452 5.08744 103.431 5.08772ZM93.7429 6.78346C93.7429 6.71577 93.7984 6.66029 93.8667 6.66029H95.3356C95.3682 6.66012 95.3995 6.6471 95.4225 6.62403C95.4456 6.60097 95.4586 6.56973 95.4588 6.53711V5.21333C95.4586 5.18072 95.4456 5.14948 95.4225 5.12642C95.3995 5.10335 95.3682 5.09032 95.3356 5.09016H93.6972C93.6646 5.09 93.6333 5.07697 93.6103 5.05391C93.5872 5.03085 93.5742 4.99961 93.574 4.96699V3.31699C93.5738 3.28437 93.5608 3.25314 93.5378 3.23007C93.5147 3.20701 93.4835 3.19398 93.4508 3.19382H92.0338C92.0011 3.19398 91.9699 3.20701 91.9469 3.23007C91.9238 3.25314 91.9108 3.28437 91.9106 3.31699V10.0304C91.9106 11.7609 92.7533 12.3597 93.8508 12.3597C94.5484 12.3597 94.9643 12.1475 95.1368 12.0639C95.1619 12.0532 95.183 12.0351 95.1974 12.012C95.2118 11.9889 95.2188 11.9619 95.2173 11.9347L95.2143 10.8597C95.2143 10.7755 95.1356 10.7072 95.0338 10.7463C94.8106 10.8292 94.6228 10.8828 94.3947 10.8828C94.0667 10.8828 93.7429 10.7292 93.7429 10.1237V6.78346ZM73.9825 12.3292C75.8106 12.3292 77.3088 10.7335 77.3088 8.63407C77.3088 6.5365 75.8106 4.94016 73.9825 4.94016C72.4441 4.94016 71.8155 5.97492 71.6691 6.2737C71.6593 6.29597 71.6431 6.31484 71.6226 6.32796C71.6021 6.34109 71.5782 6.34787 71.5539 6.34748C71.5213 6.34732 71.49 6.33429 71.467 6.31123C71.4439 6.28816 71.4309 6.25693 71.4307 6.22431V5.20967C71.4306 5.17706 71.4175 5.14582 71.3945 5.12276C71.3714 5.09969 71.3402 5.08666 71.3075 5.0865H69.8521C69.8194 5.08666 69.7882 5.09969 69.7651 5.12276C69.7421 5.14582 69.729 5.17706 69.7289 5.20967V14.917C69.7289 14.9841 69.7844 15.0396 69.8521 15.0396H71.4386C71.5063 15.0396 71.5618 14.9847 71.5618 14.9164V14.4408C71.5618 12.0932 71.4289 11.1615 71.4289 11.0371C71.4289 11.0089 71.4384 10.9816 71.4561 10.9596C71.4737 10.9376 71.4983 10.9222 71.5258 10.9161C71.5533 10.91 71.5821 10.9135 71.6074 10.9259C71.6327 10.9384 71.653 10.9591 71.6649 10.9847C71.9667 11.5835 72.6984 12.3292 73.9825 12.3292ZM73.5344 10.6243C72.4624 10.6243 71.5941 9.73407 71.5941 8.6365C71.5941 7.53833 72.4624 6.64809 73.5344 6.64809C74.6063 6.64809 75.4746 7.53833 75.4746 8.6359C75.4746 9.73407 74.6063 10.6243 73.5344 10.6243ZM81.8984 4.91089C79.8405 4.91089 78.3271 6.57858 78.3271 8.6365C78.3271 10.6938 79.8978 12.3615 82.0368 12.3615C83.1947 12.3615 84.0789 11.9578 84.6704 11.4835C84.6954 11.4635 84.7119 11.4347 84.7165 11.4029C84.721 11.3712 84.7132 11.3389 84.6947 11.3127L84.0374 10.4042C84.0182 10.3776 83.9893 10.3597 83.9569 10.3545C83.9246 10.3492 83.8915 10.357 83.8649 10.3761C83.5722 10.5658 83.1454 10.903 82.1771 10.903C81.3594 10.903 80.6307 10.4255 80.2874 9.67248C80.2551 9.60053 80.2069 9.49687 80.2069 9.44931C80.2069 9.38163 80.2624 9.32614 80.3307 9.32614H84.8874C85.0862 9.32614 85.3758 9.19077 85.3923 8.84077C85.5021 6.64626 84.2807 4.91089 81.8984 4.91089ZM83.4673 8.06029H80.2704C80.2377 8.06012 80.2065 8.0471 80.1834 8.02403C80.1604 8.00097 80.1473 7.96973 80.1472 7.93711C80.1472 7.90663 80.1764 7.80114 80.2039 7.71699C80.4643 6.9115 81.1173 6.4365 81.9923 6.4365C82.7301 6.4365 83.2813 6.8048 83.5673 7.36882C83.649 7.53041 83.7167 7.73833 83.7167 7.8109C83.7165 7.87699 83.6902 7.94033 83.6435 7.98706C83.5967 8.0338 83.5334 8.06012 83.4673 8.06029ZM52.0246 12.3292C53.8527 12.3292 55.3514 10.7335 55.3514 8.63407C55.3514 6.5365 53.8527 4.94016 52.0246 4.94016C50.4862 4.94016 49.8582 5.97492 49.7118 6.2737C49.7019 6.29606 49.6857 6.315 49.6651 6.32813C49.6444 6.34126 49.6204 6.348 49.596 6.34748C49.5633 6.34732 49.5321 6.33429 49.509 6.31123C49.486 6.28816 49.473 6.25693 49.4728 6.22431V5.20967C49.4726 5.17706 49.4596 5.14582 49.4365 5.12276C49.4135 5.09969 49.3822 5.08666 49.3496 5.0865H47.8941C47.8615 5.08666 47.8303 5.09969 47.8072 5.12276C47.7842 5.14582 47.7711 5.17706 47.771 5.20967V14.917C47.771 14.9841 47.8265 15.0396 47.8941 15.0396H49.4807C49.5478 15.0396 49.6039 14.9847 49.6039 14.9164V14.4408C49.6039 12.0932 49.4716 11.1615 49.4716 11.0371C49.4716 10.9694 49.5264 10.9139 49.5947 10.9139C49.6618 10.9139 49.6978 10.9664 49.7069 10.9847C50.0088 11.5835 50.7405 12.3292 52.0246 12.3292ZM51.5764 10.6243C50.5045 10.6243 49.6362 9.73407 49.6362 8.6365C49.6362 7.53833 50.5045 6.64809 51.5764 6.64809C52.6484 6.64809 53.5173 7.53833 53.5173 8.6359C53.5155 9.73407 52.6466 10.6243 51.5764 10.6243ZM32.799 1.97858H29.9868C29.9217 1.97858 29.8573 1.9914 29.7971 2.01631C29.737 2.04122 29.6823 2.07774 29.6363 2.12377C29.5903 2.16981 29.5537 2.22446 29.5288 2.2846C29.5039 2.34475 29.4911 2.40921 29.4911 2.47431V11.6871C29.4911 11.9615 29.713 12.1828 29.9868 12.1828H32.799C35.3173 12.1828 37.3575 9.8987 37.3575 7.08041C37.3575 4.26211 35.3167 1.97858 32.799 1.97858ZM32.3862 10.5091H31.5728C31.5402 10.5091 31.508 10.5026 31.4779 10.4902C31.4478 10.4777 31.4205 10.4594 31.3975 10.4363C31.3745 10.4133 31.3563 10.3859 31.3439 10.3558C31.3315 10.3257 31.3252 10.2935 31.3252 10.2609V3.90053C31.3252 3.76333 31.4362 3.65236 31.5728 3.65236H32.3862C34.0771 3.65236 35.4496 5.18772 35.4496 7.08041C35.4478 8.97309 34.0777 10.5091 32.3862 10.5091Z" fill="#0E2638"/>
</g>
<defs>
<clipPath id="clip0_1255_29810">
<rect width="103.659" height="25" fill="white" transform="translate(0.0649414)"/>
</clipPath>
</defs>
</svg>
