<svg width="27" height="25" viewBox="0 0 27 25" fill="none" xmlns="http://www.w3.org/2000/svg">
<g clip-path="url(#clip0_1255_29815)">
<path d="M3.29999 20.9991C3.63677 21.172 3.89732 21.4178 4.08106 21.7375C4.26481 22.0566 4.3564 22.4276 4.3564 22.8491C4.3564 23.2706 4.26481 23.6393 4.08106 23.955C3.89732 24.2702 3.63734 24.5142 3.29999 24.6871C2.96321 24.8601 2.57239 24.946 2.12867 24.946H0.651855V20.7397H2.12867C2.57239 20.7397 2.96321 20.8262 3.29999 20.9985V20.9991ZM3.12762 23.8674C3.36996 23.6262 3.49057 23.2871 3.49057 22.8491C3.49057 22.4111 3.3694 22.0686 3.12762 21.8217C2.88528 21.5748 2.54224 21.4514 2.09852 21.4514H1.49949V24.2292H2.09852C2.54224 24.2292 2.88528 24.1086 3.12762 23.868V23.8674Z" fill="#001A41"/>
<path d="M8.11557 23.53H5.66427C5.68418 23.7712 5.76894 23.9601 5.91855 24.0966C6.0676 24.2332 6.25135 24.3014 6.46923 24.3014C6.78382 24.3014 7.00796 24.1672 7.14108 23.8975H8.05527C7.95856 24.219 7.77253 24.4829 7.49833 24.69C7.22413 24.8971 6.88679 25 6.48743 25C6.16431 25 5.87475 24.9289 5.61875 24.7861C5.36219 24.6433 5.16251 24.4414 5.01972 24.1803C4.87637 23.9192 4.80469 23.6176 4.80469 23.2763C4.80469 22.935 4.87523 22.6278 5.01631 22.3661C5.15739 22.105 5.35536 21.9042 5.60965 21.7637C5.86394 21.6232 6.15635 21.5526 6.48743 21.5526C6.81852 21.5526 7.09159 21.6209 7.34417 21.7574C7.59618 21.8939 7.79245 22.0879 7.93125 22.3388C8.07063 22.5897 8.14003 22.8781 8.14003 23.2035C8.14003 23.3241 8.13207 23.4328 8.11557 23.5289V23.53ZM7.26225 22.9634C7.25827 22.7467 7.17919 22.5726 7.02616 22.4423C6.87257 22.3121 6.68484 22.2466 6.46297 22.2466C6.25306 22.2466 6.0767 22.3098 5.93335 22.4367C5.78999 22.5629 5.70238 22.7387 5.66995 22.964H7.26225V22.9634Z" fill="#001A41"/>
<path d="M11.8812 23.53H9.42989C9.4498 23.7712 9.53456 23.9601 9.68418 24.0966C9.83323 24.2332 10.017 24.3014 10.2349 24.3014C10.5494 24.3014 10.7736 24.1672 10.9067 23.8975H11.8209C11.7242 24.219 11.5382 24.4829 11.264 24.69C10.9898 24.8971 10.6524 25 10.2531 25C9.92994 25 9.64038 24.9289 9.38438 24.7861C9.12781 24.6433 8.92814 24.4414 8.78535 24.1803C8.64199 23.9192 8.57031 23.6176 8.57031 23.2763C8.57031 22.935 8.64085 22.6278 8.78194 22.3661C8.92302 22.105 9.12099 21.9042 9.37528 21.7637C9.62957 21.6232 9.92197 21.5526 10.2531 21.5526C10.5841 21.5526 10.8572 21.6209 11.1098 21.7574C11.3618 21.8939 11.5581 22.0879 11.6969 22.3388C11.8363 22.5897 11.9057 22.8781 11.9057 23.2035C11.9057 23.3241 11.8977 23.4328 11.8812 23.5289V23.53ZM11.0273 22.9634C11.0233 22.7467 10.9442 22.5726 10.7912 22.4423C10.6376 22.3121 10.4499 22.2466 10.228 22.2466C10.0181 22.2466 9.84176 22.3098 9.6984 22.4367C9.55504 22.5629 9.46744 22.7387 9.43501 22.964H11.0273V22.9634Z" fill="#001A41"/>
<path d="M17.7131 21.936C17.9651 22.1869 18.0914 22.5379 18.0914 22.9873V24.946H17.2438V23.1022C17.2438 22.8411 17.1772 22.6414 17.0441 22.5026C16.911 22.3638 16.7295 22.295 16.4991 22.295C16.2687 22.295 16.0867 22.3644 15.9513 22.5026C15.8159 22.6414 15.7488 22.8411 15.7488 23.1022V24.946H14.9012V23.1022C14.9012 22.8411 14.8346 22.6414 14.7015 22.5026C14.5684 22.3638 14.3869 22.295 14.1565 22.295C13.9261 22.295 13.7378 22.3644 13.6024 22.5026C13.467 22.6414 13.3999 22.8411 13.3999 23.1022V24.946H12.5522V21.6078H13.3999V22.0117C13.5091 21.8712 13.649 21.7608 13.8203 21.68C13.9915 21.5998 14.1804 21.5594 14.3863 21.5594C14.6486 21.5594 14.8829 21.6146 15.0883 21.725C15.2942 21.8353 15.4535 21.9929 15.5667 22.1977C15.676 22.0048 15.8341 21.8501 16.0418 21.7335C16.2494 21.6169 16.4747 21.5588 16.7164 21.5588C17.1283 21.5588 17.46 21.6846 17.7126 21.9354L17.7131 21.936Z" fill="#001A41"/>
<path d="M24.0871 21.936C24.3392 22.1869 24.4655 22.5379 24.4655 22.9873V24.946H23.6178V23.1022C23.6178 22.8411 23.5513 22.6414 23.4181 22.5026C23.285 22.3638 23.1036 22.295 22.8732 22.295C22.6428 22.295 22.4607 22.3644 22.3253 22.5026C22.1899 22.6414 22.1228 22.8411 22.1228 23.1022V24.946H21.2752V23.1022C21.2752 22.8411 21.2086 22.6414 21.0755 22.5026C20.9424 22.3638 20.7609 22.295 20.5305 22.295C20.3001 22.295 20.1118 22.3644 19.9764 22.5026C19.841 22.6414 19.7739 22.8411 19.7739 23.1022V24.946H18.9263V21.6078H19.7739V22.0117C19.8831 21.8712 20.0231 21.7608 20.1943 21.68C20.3655 21.5998 20.5544 21.5594 20.7603 21.5594C21.0226 21.5594 21.257 21.6146 21.4623 21.725C21.6683 21.8353 21.8276 21.9929 21.9408 22.1977C22.05 22.0048 22.2081 21.8501 22.4158 21.7335C22.6234 21.6169 22.8487 21.5588 23.0905 21.5588C23.5023 21.5588 23.834 21.6846 24.0866 21.9354L24.0871 21.936Z" fill="#001A41"/>
<path d="M25.3589 21.0685C25.2599 20.9741 25.2104 20.8569 25.2104 20.7158C25.2104 20.5747 25.2599 20.4575 25.3589 20.3631C25.4579 20.2687 25.5819 20.2214 25.731 20.2214C25.88 20.2214 26.004 20.2687 26.103 20.3631C26.202 20.4575 26.2515 20.5753 26.2515 20.7158C26.2515 20.8563 26.202 20.9741 26.103 21.0685C26.004 21.1629 25.88 21.2101 25.731 21.2101C25.5819 21.2101 25.4573 21.1629 25.3589 21.0685ZM26.1485 21.6078V24.946H25.3009V21.6078H26.1485Z" fill="#001A41"/>
<path d="M16.5082 15.0293C16.5082 13.5524 17.7052 12.3555 19.182 12.3555C19.5694 12.3555 19.9369 12.4386 20.2691 12.5865C20.4699 12.1792 20.6497 11.7349 20.8016 11.2479C21.0149 10.5994 21.2686 9.5464 21.1594 8.25618C20.9353 5.60747 19.3447 3.88775 18.9083 3.44288C16.7904 1.28569 14.2048 0.925587 13.4767 0.858459H9.37334C9.34035 1.40629 9.41089 1.8466 9.48029 2.14128C9.75392 3.30806 10.5469 4.04134 10.8883 4.36049C11.0094 4.47369 11.1135 4.56016 11.1807 4.61421C11.4082 4.55789 13.839 3.99868 15.6799 5.65583C16.0116 5.95449 17.2398 7.14402 17.1943 8.965C17.1511 10.7063 15.9718 12.2241 14.6918 12.7316C13.7588 13.1013 12.3577 13.0996 11.3895 13.0985C11.2108 13.0985 11.0623 13.0951 10.9622 13.0917C10.5287 13.7618 10.0992 14.5616 9.7488 15.4963C9.66176 15.729 9.58383 15.9571 9.51442 16.1795C9.43478 16.4651 9.38358 16.7314 9.35059 16.9686H13.2599C13.2599 16.9686 14.9216 16.9976 16.7386 16.1147C16.5907 15.783 16.5082 15.4155 16.5082 15.0287V15.0293Z" fill="url(#paint0_linear_1255_29815)"/>
<path d="M19.1944 16.9827C20.2627 16.9827 21.1286 16.1167 21.1286 15.0485C21.1286 13.9803 20.2627 13.1143 19.1944 13.1143C18.1262 13.1143 17.2603 13.9803 17.2603 15.0485C17.2603 16.1167 18.1262 16.9827 19.1944 16.9827Z" fill="url(#paint1_linear_1255_29815)"/>
<g filter="url(#filter0_d_1255_29815)">
<path d="M9.38372 0.858418H6.69007C6.55582 0.934648 5.45788 1.58146 5.38392 2.67656C5.35264 3.13564 5.51135 3.53841 5.57222 3.68973C5.82082 4.30583 6.24009 4.66991 6.37605 4.79222C7.23449 5.56249 8.72154 6.89708 8.98778 8.25556C9.3695 10.2028 7.30503 12.5188 6.70885 13.1878C6.69918 13.1986 5.99149 13.9995 5.63196 14.7186C5.33785 15.1896 5.31907 15.7779 5.58702 16.2461C5.93403 16.853 6.59052 16.9566 6.6713 16.968H9.38429C9.74723 16.0504 10.3377 14.7032 11.2451 13.1713C12.8289 10.4964 13.7777 9.95708 13.7083 8.62761C13.6389 7.30042 12.6485 6.95966 11.1586 4.57776C10.2291 3.09127 9.69092 1.74701 9.38486 0.857849L9.38372 0.858418Z" fill="url(#paint2_linear_1255_29815)"/>
</g>
</g>
<defs>
<filter id="filter0_d_1255_29815" x="3.94914" y="-1.18607" width="12.4199" height="20.198" filterUnits="userSpaceOnUse" color-interpolation-filters="sRGB">
<feFlood flood-opacity="0" result="BackgroundImageFix"/>
<feColorMatrix in="SourceAlpha" type="matrix" values="0 0 0 0 0 0 0 0 0 0 0 0 0 0 0 0 0 0 127 0" result="hardAlpha"/>
<feOffset dx="0.613176"/>
<feGaussianBlur stdDeviation="1.02196"/>
<feColorMatrix type="matrix" values="0 0 0 0 0.156863 0 0 0 0 0.133333 0 0 0 0 0.137255 0 0 0 0.5 0"/>
<feBlend mode="normal" in2="BackgroundImageFix" result="effect1_dropShadow_1255_29815"/>
<feBlend mode="normal" in="SourceGraphic" in2="effect1_dropShadow_1255_29815" result="shape"/>
</filter>
<linearGradient id="paint0_linear_1255_29815" x1="9.35059" y1="8.9138" x2="21.1861" y2="8.9138" gradientUnits="userSpaceOnUse">
<stop stop-color="#A00007"/>
<stop offset="0.47" stop-color="#FF0000"/>
<stop offset="1" stop-color="#FF7900"/>
</linearGradient>
<linearGradient id="paint1_linear_1255_29815" x1="17.2603" y1="15.0485" x2="21.1286" y2="15.0485" gradientUnits="userSpaceOnUse">
<stop stop-color="#0DC5BF"/>
<stop offset="1" stop-color="#34E5D6"/>
</linearGradient>
<linearGradient id="paint2_linear_1255_29815" x1="5.37994" y1="8.91376" x2="13.7112" y2="8.91376" gradientUnits="userSpaceOnUse">
<stop stop-color="#F10000"/>
<stop offset="1" stop-color="#FF9000"/>
</linearGradient>
<clipPath id="clip0_1255_29815">
<rect width="25.5996" height="25" fill="white" transform="translate(0.651855)"/>
</clipPath>
</defs>
</svg>
