<svg width="24" height="25" viewBox="0 0 24 25" fill="none" xmlns="http://www.w3.org/2000/svg">
<g clip-path="url(#clip0_1255_29818)">
<path d="M3.19204 24.8462V24.872H3.17139L3.19204 24.8462ZM4.15472 24.949V24.8763H3.99189C3.9486 24.8763 3.9073 24.872 3.86759 24.8636C3.82787 24.8549 3.79411 24.8414 3.76671 24.8231C3.73891 24.8045 3.72342 24.7782 3.72024 24.7441C3.7131 24.7215 3.70992 24.6929 3.70992 24.6587V22.5356L3.75122 22.5268L4.76553 24.9026C4.93114 24.5145 5.09397 24.1269 5.25442 23.7405C5.41487 23.3537 5.57452 22.9665 5.73298 22.5781L5.77429 22.5868L5.76912 24.8728H5.47921V24.9498H6.67462V24.8771H6.39503V22.1674H6.67462V22.0947H5.82592L5.01852 24.0253L4.20595 22.0947H3.20713V22.1674H3.58482C3.59157 22.1734 3.59792 22.2139 3.60309 22.2893C3.60825 22.3648 3.61182 22.4629 3.61341 22.5824C3.615 22.7024 3.61699 22.8386 3.61857 22.9911C3.62016 23.1436 3.62135 23.2985 3.62135 23.4554V23.8855C3.62135 24.0268 3.62056 24.1551 3.61857 24.2707C3.61699 24.3863 3.61421 24.4848 3.61063 24.5662C3.60706 24.6476 3.60348 24.7012 3.60031 24.7266C3.58998 24.8037 3.55106 24.8481 3.48394 24.8593C3.41682 24.8708 3.33978 24.8752 3.2536 24.872H3.19164V24.949H4.15393H4.15472Z" fill="black"/>
<path d="M6.75195 24.8763C6.82781 24.8763 6.88976 24.872 6.93822 24.8636C6.98667 24.8549 7.02598 24.8394 7.05736 24.8164C7.08834 24.7937 7.11415 24.76 7.1348 24.7159C7.15545 24.6718 7.17968 24.6154 7.20708 24.5467C7.35522 24.1301 7.50534 23.7143 7.65745 23.2989C7.80916 22.8834 7.96087 22.4676 8.11298 22.051H8.28891L9.39099 24.8763H9.61856V24.949H8.38184V24.8763H8.72855L8.39733 24.0157H7.497L7.46086 24.1015C7.44339 24.1444 7.42273 24.1984 7.39891 24.2643C7.37468 24.3299 7.35164 24.3958 7.32901 24.4613C7.30637 24.5268 7.28691 24.5868 7.26944 24.6412C7.25196 24.6956 7.24362 24.7326 7.24362 24.7524C7.24362 24.7866 7.2599 24.8124 7.29287 24.8295C7.32543 24.8465 7.36435 24.8589 7.40923 24.866C7.45411 24.8732 7.49978 24.8767 7.54625 24.8767H7.66777V24.9494H6.75195V24.8767V24.8763ZM7.52321 23.943H8.37192L7.93744 22.8215L7.52361 23.943H7.52321Z" fill="black"/>
<path d="M9.66046 24.8763C9.76412 24.8763 9.84514 24.8743 9.90352 24.87C9.96229 24.8656 10.0044 24.8513 10.0302 24.8271C10.056 24.8028 10.0715 24.7659 10.0767 24.7159C10.0818 24.6658 10.0846 24.5939 10.0846 24.4998V22.2226L10.0175 22.167H9.66046V22.0943H10.7006L12.2014 24.1321V22.5224C12.2014 22.4311 12.1986 22.3612 12.1935 22.3127C12.1883 22.2643 12.1752 22.2293 12.1545 22.2079C12.1339 22.1864 12.1037 22.1745 12.064 22.1713C12.0243 22.1686 11.9699 22.167 11.9012 22.167H11.7872V22.0943H12.7237V22.167H12.6045C12.5354 22.167 12.4802 22.1686 12.4389 22.1713C12.3976 22.1741 12.3666 22.1864 12.3456 22.2079C12.3249 22.2293 12.3118 22.2643 12.3067 22.3127C12.3015 22.3612 12.2987 22.4311 12.2987 22.5224V24.9712H12.0402L10.1823 22.4283V24.4275C10.1823 24.5419 10.1839 24.6293 10.1875 24.6908C10.1911 24.7524 10.2057 24.7965 10.2316 24.8235C10.2574 24.8505 10.2995 24.8664 10.3582 24.8708C10.417 24.8751 10.5012 24.8771 10.6116 24.8771V24.9498H9.65967V24.8771L9.66046 24.8763Z" fill="black"/>
<path d="M15.3886 23.0098H15.2849C15.2675 22.9041 15.2393 22.8013 15.1995 22.7016C15.1598 22.6019 15.109 22.5134 15.047 22.4363C14.9851 22.3593 14.9088 22.2981 14.8195 22.252C14.7297 22.2064 14.6261 22.1837 14.5089 22.1837C14.3191 22.1837 14.169 22.2302 14.0585 22.3227C13.9481 22.4157 13.8643 22.5304 13.8075 22.6674C13.7508 22.8045 13.7134 22.9506 13.6963 23.1063C13.6789 23.262 13.6685 23.4026 13.6654 23.5281C13.6618 23.6079 13.6638 23.6965 13.6705 23.7934C13.6773 23.8903 13.6912 23.988 13.7118 24.0865C13.7325 24.1849 13.7611 24.2811 13.7972 24.3756C13.8334 24.4697 13.881 24.5531 13.9394 24.6262C13.9982 24.6989 14.0689 24.7576 14.1515 24.8017C14.2345 24.8458 14.331 24.868 14.4414 24.868C14.5967 24.868 14.7293 24.8295 14.8397 24.7525C14.9501 24.6754 15.0053 24.5511 15.0053 24.3799V23.6694H14.6999V23.5968H15.9108V23.6694H15.6106L15.6003 24.928C15.559 24.8537 15.5193 24.8053 15.4811 24.7823C15.443 24.7596 15.4025 24.7517 15.3596 24.7588C15.3163 24.766 15.2698 24.7811 15.2198 24.8037C15.1698 24.8267 15.1138 24.8466 15.0518 24.8637C14.9517 24.8978 14.8493 24.9272 14.744 24.9514C14.6388 24.9757 14.5292 24.988 14.4156 24.988C14.2015 24.988 14.0085 24.9538 13.8361 24.8851C13.6638 24.8168 13.5152 24.7195 13.3909 24.594C13.2666 24.4685 13.1709 24.3192 13.1038 24.1468C13.0367 23.9741 13.0029 23.7822 13.0029 23.571C13.0029 23.374 13.0367 23.1841 13.1038 23.0014C13.1709 22.8188 13.267 22.6583 13.3909 22.5197C13.5152 22.3815 13.6626 22.2707 13.8334 22.1881C14.0041 22.1055 14.1932 22.0638 14.4001 22.0638C14.4827 22.0638 14.5586 22.0753 14.6277 22.0979C14.6968 22.121 14.7623 22.1456 14.8242 22.173C14.8862 22.2 14.945 22.225 15.0002 22.2481C15.0554 22.2711 15.1122 22.2822 15.171 22.2822C15.2194 22.2822 15.2504 22.2687 15.2643 22.2417C15.2782 22.2147 15.2865 22.1809 15.2901 22.1412H15.3886V23.0102V23.0098Z" fill="black"/>
<path d="M17.4788 22.0379C17.6754 22.0379 17.8557 22.0816 18.0197 22.1686C18.1834 22.2556 18.3252 22.3699 18.4439 22.5109C18.563 22.6523 18.6552 22.812 18.7207 22.9903C18.7862 23.1686 18.8192 23.3477 18.8192 23.5276C18.8192 23.7075 18.7862 23.8894 18.7207 24.065C18.6552 24.2405 18.563 24.3974 18.4439 24.536C18.3248 24.6746 18.1834 24.7866 18.0197 24.872C17.8557 24.9578 17.6758 25.0003 17.4788 25.0003C17.2818 25.0003 17.096 24.9566 16.9304 24.8696C16.7648 24.7826 16.6234 24.6678 16.5062 24.5249C16.3891 24.3823 16.2973 24.2211 16.2318 24.0411C16.1663 23.8612 16.1333 23.6785 16.1333 23.4931C16.1333 23.3076 16.1686 23.1408 16.2393 22.9665C16.31 22.7925 16.4065 22.6368 16.5293 22.4998C16.6516 22.3628 16.7942 22.2516 16.9562 22.1658C17.1182 22.0804 17.2926 22.0375 17.4788 22.0375V22.0379ZM17.4892 22.1066C17.3788 22.1066 17.2838 22.1301 17.2044 22.1773C17.125 22.2246 17.0579 22.2873 17.0027 22.3656C16.9475 22.4442 16.9034 22.5324 16.8708 22.6309C16.8378 22.7294 16.812 22.8306 16.7934 22.9347C16.7743 23.0387 16.7616 23.1416 16.7544 23.2429C16.7473 23.3441 16.7441 23.4347 16.7441 23.5145C16.7441 23.5944 16.7465 23.6893 16.7521 23.7905C16.7572 23.8918 16.7683 23.9947 16.7858 24.0987C16.8029 24.2028 16.8271 24.3048 16.8581 24.4049C16.8891 24.505 16.9312 24.594 16.9848 24.6726C17.0384 24.7512 17.1047 24.814 17.1842 24.8609C17.2636 24.9081 17.3601 24.9315 17.4741 24.9315C17.5881 24.9315 17.6846 24.9073 17.764 24.8589C17.8434 24.8104 17.9089 24.7469 17.9606 24.6682C18.0122 24.5896 18.0519 24.4998 18.0797 24.3986C18.1071 24.2973 18.1282 24.1944 18.1417 24.0904C18.1556 23.9863 18.1639 23.8835 18.1675 23.7822C18.1711 23.6809 18.1727 23.5904 18.1727 23.5102C18.1727 23.4391 18.1699 23.3545 18.1647 23.2576C18.1595 23.1607 18.1484 23.0606 18.131 22.9577C18.1135 22.8549 18.0904 22.7524 18.0611 22.6495C18.0317 22.5467 17.9912 22.4553 17.9395 22.3755C17.8879 22.2957 17.8255 22.2305 17.7533 22.1809C17.681 22.1309 17.5928 22.1058 17.4892 22.1058V22.1066Z" fill="black"/>
<path d="M19.166 22.7786C19.1799 22.6872 19.191 22.5999 19.1998 22.5161C19.2085 22.4323 19.218 22.3453 19.2284 22.2547C19.2319 22.2265 19.2363 22.1991 19.2415 22.1721C19.2466 22.1451 19.251 22.1189 19.2546 22.0935H21.257L20.6879 23.2536H20.693C20.6724 23.2937 20.6458 23.3485 20.6128 23.4184C20.5799 23.4883 20.5437 23.5661 20.504 23.6515C20.4643 23.7373 20.4246 23.8263 20.3849 23.9192C20.3451 24.0121 20.309 24.1011 20.276 24.1869C20.2431 24.2727 20.2165 24.3501 20.1958 24.42C20.1752 24.4899 20.1648 24.5435 20.1648 24.5804C20.1648 24.609 20.1768 24.6233 20.2006 24.6233C20.2073 24.6233 20.2208 24.6206 20.2415 24.6146C20.2586 24.6031 20.2788 24.5975 20.3026 24.5975C20.3571 24.5975 20.4019 24.6162 20.4377 24.6531C20.4734 24.6901 20.4913 24.7345 20.4913 24.7858C20.4913 24.9113 20.4266 24.974 20.2971 24.974C20.2085 24.974 20.1454 24.941 20.108 24.8755C20.0703 24.8096 20.0517 24.7369 20.0517 24.6567C20.0517 24.5967 20.0663 24.5109 20.0957 24.3993C20.1251 24.2877 20.1636 24.1634 20.2121 24.0264C20.2606 23.889 20.313 23.7456 20.3698 23.5955C20.4266 23.4454 20.4837 23.3016 20.5405 23.1646C20.5973 23.0272 20.6494 22.9029 20.6958 22.7917C20.7423 22.6801 20.7796 22.5943 20.807 22.5343H19.3427C19.3149 22.5629 19.2943 22.5999 19.2808 22.6455C19.2669 22.6912 19.255 22.7325 19.2446 22.7698V22.7786H19.1672H19.166Z" fill="black"/>
<path d="M6.27628 22.2126V24.8298H5.88867L5.89383 22.5864V22.4891L5.79891 22.4692L5.90614 22.2126H6.27708M4.12732 22.2126L4.9089 24.0705L4.94822 24.1638C4.88746 24.3088 4.8263 24.4538 4.76514 24.5979L3.86083 22.4791L3.82271 22.3894L3.72938 22.4088C3.72779 22.3608 3.72541 22.3179 3.72302 22.2802C3.72144 22.2547 3.71945 22.2325 3.71746 22.2126H4.12772M6.67462 22.0935H5.82592L5.01852 24.024L4.20595 22.0935H3.20713V22.1662H3.58482C3.59157 22.1721 3.59792 22.2127 3.60309 22.2881C3.60825 22.3636 3.61182 22.4617 3.61341 22.5812C3.615 22.7011 3.61699 22.8374 3.61857 22.9899C3.62016 23.1424 3.62135 23.2973 3.62135 23.4541V23.8842C3.62135 24.0256 3.62056 24.1539 3.61857 24.2695C3.61699 24.385 3.61421 24.4835 3.61063 24.565C3.60706 24.6464 3.60348 24.7 3.60031 24.7254C3.58998 24.8024 3.55106 24.8469 3.48394 24.858C3.43033 24.8672 3.37036 24.8719 3.30443 24.8719C3.28775 24.8719 3.27107 24.8719 3.2536 24.8712H3.19164V24.9482H4.15393V24.8755H3.9911C3.94781 24.8755 3.90651 24.8712 3.86679 24.8628C3.82708 24.8541 3.79332 24.8406 3.76592 24.8223C3.73812 24.8036 3.72263 24.7774 3.71945 24.7433C3.7123 24.7206 3.70912 24.692 3.70912 24.6575V22.5343L3.75043 22.5256L4.76474 24.9013C4.93035 24.5133 5.09318 24.1257 5.25363 23.7393C5.41408 23.3525 5.57373 22.9652 5.73219 22.5768L5.77349 22.5856L5.76833 24.8715H5.47841V24.9486H6.67383V24.8759H6.39423V22.1662H6.67383V22.0935H6.67462ZM3.19204 24.8461L3.17139 24.8719H3.19204V24.8461Z" fill="black"/>
<path d="M8.2075 22.1701L9.24524 24.8298H8.83856L8.54309 24.0621H8.54547L8.48272 23.9001L8.04824 22.7786L8.01051 22.6809C8.07247 22.5109 8.13442 22.3405 8.19677 22.1705H8.20789M8.28891 22.051H8.11298C7.96126 22.4676 7.80956 22.8834 7.65745 23.2988C7.50574 23.7142 7.35562 24.1301 7.20708 24.5467C7.17928 24.615 7.15545 24.6714 7.1348 24.7159C7.11415 24.7599 7.08834 24.7937 7.05736 24.8163C7.02638 24.8394 6.98667 24.8549 6.93822 24.8636C6.88976 24.8723 6.82781 24.8763 6.75195 24.8763V24.949H7.66777V24.8763H7.54625C7.49978 24.8763 7.45411 24.8727 7.40923 24.8656C7.36435 24.8584 7.32543 24.8461 7.29287 24.829C7.2599 24.812 7.24362 24.7861 7.24362 24.752C7.24362 24.7321 7.25236 24.6948 7.26944 24.6408C7.28651 24.5868 7.30637 24.5268 7.32901 24.4609C7.35125 24.3954 7.37468 24.3294 7.39891 24.2639C7.42313 24.1984 7.44378 24.144 7.46086 24.1011L7.497 24.0153H8.39733L8.72855 24.8759H8.38184V24.9486H9.61856V24.8759H9.39099L8.28891 22.0506V22.051ZM7.52321 23.943L7.93704 22.8215L8.37152 23.943H7.52281H7.52321Z" fill="black"/>
<path d="M10.6399 22.2126L12.105 24.2019L12.1801 24.304V24.8513H12.101L10.2789 22.3572L10.2035 22.2539V22.2126H10.6399ZM12.7234 22.0935H11.7869V22.1662H11.9009C11.97 22.1662 12.0244 22.1677 12.0637 22.1705C12.1034 22.1733 12.1336 22.1856 12.1542 22.2071C12.1749 22.2285 12.188 22.2635 12.1932 22.3119C12.1983 22.3604 12.2011 22.4303 12.2011 22.5216V24.1312L10.7003 22.0935H9.66016V22.1662H10.0172L10.0843 22.2218V24.499C10.0843 24.5931 10.0815 24.6654 10.0764 24.715C10.0712 24.7651 10.0557 24.802 10.0299 24.8262C10.0041 24.8505 9.96159 24.8648 9.90321 24.8691C9.84443 24.8735 9.76341 24.8755 9.66016 24.8755V24.9482H10.6121V24.8755C10.5017 24.8755 10.4171 24.8735 10.3587 24.8691C10.3 24.8648 10.2579 24.8493 10.232 24.8219C10.2062 24.7949 10.1915 24.7508 10.188 24.6892C10.1844 24.6281 10.1828 24.5403 10.1828 24.4259V22.4267L12.0407 24.9696H12.2992V22.5212C12.2992 22.4299 12.302 22.36 12.3071 22.3115C12.3123 22.2631 12.3254 22.2281 12.3461 22.2067C12.3667 22.1852 12.3977 22.1733 12.4394 22.1701C12.4807 22.1673 12.5359 22.1658 12.605 22.1658H12.7241V22.0931L12.7234 22.0935Z" fill="black"/>
<path d="M13.9366 22.2718C13.8338 22.3691 13.7535 22.4867 13.6975 22.6213C13.6364 22.7683 13.5963 22.9267 13.578 23.0927C13.5605 23.2512 13.5498 23.3965 13.5462 23.5224C13.5427 23.607 13.5442 23.7008 13.5518 23.8012C13.5589 23.9033 13.5736 24.0074 13.5955 24.1106C13.6173 24.2147 13.6479 24.3179 13.6864 24.418C13.7269 24.5236 13.7809 24.6186 13.8473 24.7004C13.8747 24.7341 13.9045 24.7655 13.9362 24.7945C13.9172 24.7881 13.8989 24.7814 13.8806 24.7739C13.7241 24.7119 13.5883 24.6229 13.4763 24.5097C13.3643 24.3966 13.2766 24.2595 13.2154 24.1031C13.1538 23.945 13.1225 23.7659 13.1225 23.5705C13.1225 23.3886 13.1538 23.2111 13.2162 23.0423C13.2778 22.8747 13.3667 22.7258 13.4803 22.5991C13.5935 22.4728 13.7301 22.3707 13.8862 22.2949C13.9029 22.2865 13.9199 22.279 13.9374 22.2718M15.2694 22.3846V22.5653C15.2405 22.5065 15.2075 22.4517 15.1702 22.4013H15.171C15.2103 22.4013 15.2428 22.3949 15.269 22.3846M15.4915 23.7155L15.4839 24.6523C15.4537 24.642 15.4223 24.6368 15.3906 24.6368C15.3743 24.6368 15.3576 24.638 15.3409 24.6408C15.2877 24.6495 15.2305 24.6678 15.1714 24.6948C15.1273 24.7151 15.0768 24.7329 15.0212 24.7484L15.0177 24.7492L15.0141 24.7504C15.0141 24.7504 15.0141 24.7504 15.0137 24.7504C15.0879 24.6551 15.1253 24.5312 15.1253 24.3791V23.7147H15.4918M14.4001 22.0637C14.1932 22.0637 14.0041 22.105 13.8334 22.188C13.6626 22.271 13.5152 22.3814 13.3909 22.5196C13.2666 22.6583 13.1709 22.8187 13.1038 23.0014C13.0367 23.1841 13.0029 23.3739 13.0029 23.5709C13.0029 23.7822 13.0367 23.974 13.1038 24.1468C13.1709 24.3195 13.267 24.4684 13.3909 24.5939C13.5152 24.7194 13.6634 24.8167 13.8361 24.8851C14.0085 24.9538 14.2019 24.9879 14.4156 24.9879C14.5296 24.9879 14.6388 24.9756 14.744 24.9514C14.8493 24.9272 14.9517 24.8978 15.0518 24.8636C15.1138 24.8465 15.1698 24.8267 15.2198 24.8036C15.2698 24.781 15.3163 24.7659 15.3596 24.7588C15.3699 24.7572 15.3799 24.7564 15.3898 24.7564C15.4216 24.7564 15.4521 24.7651 15.4811 24.7826C15.5193 24.8056 15.5586 24.8541 15.6003 24.9283L15.6106 23.6698H15.9108V23.5971H14.6999V23.6698H15.0053V24.3803C15.0053 24.5514 14.9501 24.6758 14.8397 24.7528C14.7293 24.8298 14.5967 24.8684 14.4414 24.8684C14.331 24.8684 14.2345 24.8461 14.1515 24.802C14.0689 24.758 13.9978 24.6992 13.9394 24.6265C13.8806 24.5538 13.8334 24.4704 13.7972 24.3759C13.7611 24.2818 13.7325 24.1853 13.7118 24.0868C13.6912 23.9883 13.6773 23.8906 13.6705 23.7937C13.6634 23.6968 13.6618 23.6082 13.6654 23.5284C13.6689 23.4029 13.6793 23.2623 13.6963 23.1066C13.7134 22.9509 13.7508 22.8048 13.8075 22.6678C13.8643 22.5308 13.9481 22.416 14.0585 22.3231C14.169 22.2305 14.3191 22.1841 14.5089 22.1841C14.6261 22.1841 14.7297 22.2071 14.8195 22.2524C14.9092 22.298 14.9851 22.3592 15.047 22.4366C15.109 22.5137 15.1598 22.6023 15.1995 22.7019C15.2393 22.802 15.2675 22.9045 15.2849 23.0101H15.3886V22.1412H15.2901C15.2865 22.1813 15.2778 22.2146 15.2643 22.2416C15.2504 22.2687 15.2194 22.2822 15.171 22.2822C15.1122 22.2822 15.0554 22.2706 15.0002 22.248C14.945 22.225 14.8862 22.2003 14.8242 22.1729C14.7623 22.1459 14.6964 22.1209 14.6277 22.0979C14.5586 22.0752 14.4827 22.0637 14.4001 22.0637Z" fill="black"/>
<path d="M18.0456 22.3211C18.1615 22.3937 18.2644 22.4831 18.353 22.5876C18.4626 22.7174 18.5487 22.8667 18.6091 23.0312C18.6695 23.1956 18.7001 23.3624 18.7001 23.5272C18.7001 23.692 18.6695 23.8612 18.6091 24.0228C18.5487 24.1845 18.463 24.3306 18.3534 24.4577C18.2747 24.5495 18.1842 24.6289 18.0829 24.6956C18.1298 24.6162 18.1671 24.5268 18.1937 24.4295C18.2227 24.3239 18.2445 24.2147 18.2588 24.1054C18.2731 23.9978 18.2823 23.8902 18.2858 23.7857C18.2894 23.6821 18.291 23.5892 18.291 23.5097C18.291 23.4371 18.2882 23.3497 18.2831 23.2508C18.2775 23.1499 18.266 23.0447 18.2481 22.9378C18.2302 22.8314 18.2056 22.7234 18.1754 22.6165C18.1441 22.5069 18.1004 22.4072 18.0456 22.3203M16.8629 22.3628C16.8208 22.4335 16.7854 22.5109 16.758 22.5931C16.7235 22.6964 16.6961 22.804 16.6762 22.9132C16.6563 23.0212 16.6428 23.1297 16.6357 23.2345C16.6285 23.3374 16.625 23.4315 16.625 23.5145C16.625 23.5975 16.6277 23.6944 16.6329 23.7969C16.6385 23.9025 16.65 24.0109 16.6679 24.1186C16.6857 24.2274 16.7115 24.3358 16.7441 24.4406C16.7711 24.5276 16.8065 24.6082 16.8494 24.6813C16.7552 24.6158 16.671 24.5383 16.5984 24.4494C16.4903 24.3179 16.4046 24.167 16.3442 24.0006C16.2838 23.835 16.2532 23.6642 16.2532 23.4934C16.2532 23.3326 16.2858 23.1706 16.3505 23.0117C16.4157 22.8513 16.5058 22.7059 16.6186 22.5796C16.6921 22.4974 16.7739 22.4251 16.8633 22.3628M17.4788 22.0379C17.2926 22.0379 17.1182 22.0808 16.9562 22.1662C16.7942 22.252 16.6516 22.3632 16.5293 22.5002C16.4069 22.6372 16.31 22.7929 16.2393 22.9668C16.1686 23.1408 16.1333 23.3163 16.1333 23.4934C16.1333 23.6706 16.1659 23.8616 16.2318 24.0415C16.2973 24.2214 16.3887 24.3827 16.5062 24.5252C16.6234 24.6678 16.7648 24.783 16.9304 24.87C17.096 24.9569 17.2787 25.0006 17.4788 25.0006C17.679 25.0006 17.8557 24.9577 18.0197 24.8723C18.1834 24.7866 18.3252 24.6746 18.4439 24.5364C18.563 24.3981 18.6552 24.2409 18.7207 24.0653C18.7862 23.8898 18.8192 23.7107 18.8192 23.528C18.8192 23.3453 18.7862 23.169 18.7207 22.9907C18.6552 22.8123 18.563 22.6523 18.4439 22.5113C18.3248 22.3699 18.1834 22.2559 18.0197 22.169C17.8557 22.082 17.6758 22.0383 17.4788 22.0383V22.0379ZM17.4737 24.9319C17.3597 24.9319 17.2632 24.9085 17.1838 24.8612C17.1043 24.814 17.038 24.7512 16.9844 24.673C16.9308 24.5943 16.8887 24.5054 16.8577 24.4053C16.8267 24.3052 16.8025 24.2035 16.7854 24.0991C16.7679 23.995 16.7568 23.8922 16.7517 23.7909C16.7465 23.6896 16.7437 23.5975 16.7437 23.5149C16.7437 23.4323 16.7473 23.3445 16.754 23.2432C16.7608 23.142 16.7739 23.0391 16.793 22.9351C16.812 22.831 16.8378 22.7297 16.8704 22.6312C16.903 22.5327 16.9471 22.4442 17.0023 22.3659C17.0575 22.2873 17.1246 22.2246 17.204 22.1777C17.2834 22.1304 17.3784 22.107 17.4888 22.107C17.5924 22.107 17.6802 22.132 17.7529 22.1821C17.8251 22.2321 17.8875 22.2968 17.9391 22.3767C17.9908 22.4565 18.0313 22.5478 18.0607 22.6507C18.09 22.7536 18.1131 22.856 18.1306 22.9589C18.1476 23.0617 18.1591 23.1614 18.1643 23.2587C18.1695 23.3556 18.1723 23.4398 18.1723 23.5113C18.1723 23.5911 18.1707 23.6821 18.1671 23.7834C18.1635 23.8846 18.1548 23.9875 18.1413 24.0915C18.1274 24.1956 18.1067 24.2985 18.0793 24.3997C18.0515 24.501 18.0122 24.5912 17.9602 24.6694C17.9085 24.748 17.843 24.8116 17.7636 24.86C17.6842 24.9085 17.5877 24.9327 17.4737 24.9327V24.9319Z" fill="black"/>
<path d="M21.0655 22.2126L20.9662 22.4152H19.3303C19.3355 22.3691 19.3407 22.3203 19.3466 22.2686C19.349 22.25 19.3518 22.2313 19.355 22.2126H21.0655ZM20.303 24.7171C20.3296 24.7171 20.3419 24.7262 20.3514 24.7361C20.3657 24.7512 20.3717 24.7655 20.3717 24.7862C20.3717 24.8414 20.3641 24.8553 20.2966 24.8553C20.2331 24.8553 20.2188 24.8302 20.2108 24.8167C20.1973 24.7929 20.187 24.7679 20.1802 24.7413C20.187 24.7421 20.1937 24.7425 20.2005 24.7425C20.2196 24.7425 20.241 24.7385 20.2736 24.7294L20.2918 24.7242L20.303 24.7167M21.2565 22.0935H19.2541C19.2505 22.1189 19.2465 22.1451 19.241 22.1721C19.2358 22.1991 19.2315 22.2265 19.2279 22.2547C19.2176 22.3453 19.208 22.4323 19.1993 22.5161C19.1905 22.5999 19.1794 22.6872 19.1655 22.7786H19.243V22.7698C19.2533 22.7329 19.2652 22.6912 19.2791 22.6455C19.293 22.5999 19.3137 22.5629 19.3411 22.5343H20.8053C20.7775 22.5943 20.7406 22.6801 20.6941 22.7917C20.6477 22.9033 20.5957 23.0276 20.5389 23.1646C20.4821 23.302 20.4249 23.4454 20.3681 23.5955C20.3113 23.7456 20.2585 23.8894 20.2104 24.0264C20.162 24.1638 20.1234 24.2881 20.0941 24.3993C20.0647 24.5109 20.05 24.5967 20.05 24.6567C20.05 24.7369 20.0686 24.8096 20.1064 24.8755C20.1437 24.9414 20.2068 24.974 20.2954 24.974C20.4249 24.974 20.4896 24.9113 20.4896 24.7858C20.4896 24.7345 20.4717 24.6901 20.436 24.6531C20.4003 24.6162 20.3554 24.5975 20.301 24.5975C20.2771 24.5975 20.2569 24.6031 20.2398 24.6146C20.2196 24.6206 20.2057 24.6233 20.1989 24.6233C20.1751 24.6233 20.1632 24.609 20.1632 24.5804C20.1632 24.5435 20.1735 24.4899 20.1941 24.42C20.2148 24.3501 20.2414 24.2723 20.2744 24.1869C20.3069 24.1011 20.3435 24.0121 20.3832 23.9192C20.4229 23.8267 20.4626 23.7373 20.5023 23.6515C20.542 23.5657 20.5782 23.4883 20.6111 23.4184C20.6441 23.3485 20.6707 23.2937 20.6914 23.2536H20.6862L21.2553 22.0935H21.2565Z" fill="black"/>
<g style="mix-blend-mode:overlay">
<path d="M14.7003 23.5963V23.669H15.0057V24.3795C15.0057 24.4009 15.0049 24.4216 15.003 24.4414C14.9994 24.4812 14.9926 24.5181 14.9823 24.5522C14.9565 24.6372 14.9088 24.7036 14.8401 24.752C14.7297 24.8291 14.5971 24.8676 14.4418 24.8676C14.3314 24.8676 14.2349 24.8453 14.1519 24.8013C14.0693 24.7572 13.9982 24.6984 13.9398 24.6257C13.881 24.553 13.8338 24.4696 13.7976 24.3751C13.7615 24.281 13.7329 24.1845 13.7122 24.086C13.6916 23.9875 13.6777 23.8898 13.6709 23.7929C13.6658 23.7202 13.6634 23.6523 13.6642 23.5892C13.6642 23.5681 13.665 23.5475 13.6658 23.5276C13.6693 23.4021 13.6797 23.2615 13.6967 23.1058C13.7138 22.9502 13.7512 22.804 13.8079 22.667C13.8294 22.6158 13.8544 22.5673 13.8834 22.522C13.9219 22.4617 13.9672 22.4073 14.0188 22.358C14.0319 22.3457 14.045 22.3338 14.0589 22.3223C14.0728 22.3107 14.0871 22.2996 14.1022 22.2897C14.1324 22.2694 14.165 22.252 14.1999 22.2377C14.2174 22.2305 14.2357 22.2238 14.2543 22.2182C14.3294 22.1952 14.4144 22.1833 14.5093 22.1833C14.6265 22.1833 14.7301 22.2063 14.8199 22.2516C14.887 22.2857 14.9466 22.329 14.9986 22.3806C15.0157 22.3981 15.0324 22.4164 15.0478 22.4354C15.1098 22.5125 15.1606 22.6011 15.2003 22.7007C15.2301 22.7758 15.2536 22.8521 15.2706 22.9303C15.2762 22.9565 15.2814 22.9827 15.2857 23.0089H15.3894V22.14H15.2909C15.2881 22.1702 15.2829 22.1964 15.2742 22.219C15.2714 22.2266 15.2683 22.2337 15.2647 22.2405C15.2579 22.254 15.2464 22.2643 15.2309 22.271C15.2154 22.2778 15.1956 22.2814 15.1714 22.2814C15.1126 22.2814 15.0558 22.2698 15.0006 22.2472C14.9454 22.2242 14.8866 22.1995 14.8246 22.1721C14.7627 22.1451 14.6968 22.1201 14.6281 22.0971C14.559 22.0744 14.4831 22.0629 14.4005 22.0629C14.3747 22.0629 14.3489 22.0637 14.3238 22.0649C14.1721 22.0729 14.0303 22.1038 13.8989 22.1582C13.877 22.1674 13.8552 22.1769 13.8342 22.1872C13.7488 22.2285 13.6693 22.277 13.5955 22.3322C13.5585 22.36 13.5232 22.3894 13.489 22.4204C13.4549 22.4513 13.4227 22.4843 13.3913 22.5189C13.2984 22.6225 13.221 22.7389 13.1598 22.8675C13.1395 22.9104 13.1209 22.9545 13.1038 23.0002C13.045 23.1598 13.0117 23.3255 13.0045 23.4958C13.0033 23.5201 13.0029 23.5447 13.0029 23.5693C13.0029 23.5955 13.0033 23.6217 13.0045 23.6475C13.0077 23.725 13.0156 23.7996 13.0283 23.8715C13.045 23.9676 13.0704 24.0586 13.1042 24.1448C13.1463 24.2528 13.1995 24.3513 13.2639 24.441C13.2897 24.4768 13.3171 24.5113 13.3465 24.5439C13.3612 24.5602 13.3762 24.5765 13.3917 24.592C13.4072 24.6078 13.4231 24.6229 13.4394 24.6376C13.5045 24.6968 13.5756 24.7488 13.6527 24.7937C13.6721 24.8048 13.6916 24.8156 13.7118 24.8263C13.7519 24.8469 13.7936 24.866 13.8365 24.8831C13.9227 24.9172 14.0141 24.943 14.1106 24.9601C14.2071 24.9772 14.3087 24.9859 14.416 24.9859C14.4446 24.9859 14.4728 24.9851 14.5006 24.9835C14.5844 24.9792 14.6658 24.9677 14.7444 24.9494C14.8497 24.9252 14.9521 24.8958 15.0522 24.8616C15.1142 24.8445 15.1702 24.8247 15.2202 24.8017C15.2702 24.779 15.3167 24.7639 15.36 24.7568C15.3707 24.7552 15.381 24.7544 15.391 24.7544C15.3922 24.7544 15.3938 24.7544 15.3949 24.7544C15.4029 24.7544 15.4108 24.7556 15.4188 24.7568C15.4216 24.7572 15.4243 24.758 15.4275 24.7588C15.4343 24.7603 15.4406 24.7623 15.447 24.7643C15.4498 24.7651 15.4525 24.7663 15.4549 24.7671C15.4637 24.7707 15.4724 24.775 15.4811 24.7802C15.4954 24.7889 15.5097 24.8009 15.5244 24.8167C15.5343 24.8275 15.5443 24.8394 15.5542 24.8533C15.5693 24.8739 15.5844 24.8982 15.5999 24.926L15.6102 23.6674H15.9104V23.5947H14.6995L14.7003 23.5963Z" fill="black"/>
<path d="M18.7946 23.2587C18.7783 23.1693 18.7537 23.08 18.7207 22.9906C18.6552 22.8123 18.563 22.6523 18.4439 22.5113C18.3248 22.3699 18.1834 22.2559 18.0197 22.1689C17.8557 22.082 17.6758 22.0383 17.4788 22.0383C17.2926 22.0383 17.1182 22.0812 16.9562 22.1665C16.8752 22.2094 16.7989 22.2587 16.7278 22.3143C16.6567 22.3699 16.5904 22.4318 16.5293 22.5005C16.5138 22.5176 16.4991 22.5351 16.4844 22.553C16.4117 22.6415 16.3493 22.7372 16.2973 22.8401C16.287 22.8608 16.2767 22.8814 16.2671 22.9029C16.2576 22.9243 16.2481 22.9454 16.2393 22.9672C16.2215 23.0109 16.2064 23.0542 16.1929 23.0979C16.1599 23.2071 16.1404 23.3171 16.1349 23.4271C16.1337 23.4493 16.1333 23.4712 16.1333 23.4934C16.1333 23.6324 16.1516 23.7702 16.1885 23.9061C16.1945 23.9287 16.2012 23.9513 16.2084 23.974C16.2155 23.9966 16.2231 24.0192 16.2314 24.0415C16.2477 24.0864 16.2659 24.13 16.2854 24.1729C16.3442 24.3008 16.4177 24.4184 16.5058 24.5252C16.623 24.6678 16.7644 24.783 16.93 24.8699C17.0126 24.9136 17.1 24.9462 17.1913 24.968C17.2826 24.9899 17.3784 25.0006 17.4784 25.0006C17.675 25.0006 17.8553 24.9577 18.0194 24.8723C18.0809 24.8401 18.1389 24.8044 18.1941 24.7647C18.2858 24.6988 18.3692 24.6225 18.4435 24.5359C18.5626 24.3977 18.6548 24.2404 18.7203 24.0649C18.7366 24.0212 18.7509 23.9767 18.7632 23.9327C18.7755 23.8886 18.7858 23.8437 18.7938 23.7992C18.8021 23.7543 18.8081 23.7095 18.8121 23.6642C18.816 23.6189 18.818 23.5736 18.818 23.528C18.818 23.4382 18.8097 23.3485 18.7934 23.2587H18.7946ZM17.1842 24.8612C17.1047 24.8139 17.0384 24.7512 16.9848 24.6729C16.9312 24.5943 16.8891 24.5053 16.8581 24.4053C16.8502 24.3802 16.843 24.3552 16.8363 24.3298C16.8156 24.254 16.7989 24.1773 16.7858 24.0991C16.7771 24.047 16.7699 23.9954 16.7644 23.9438C16.7616 23.918 16.7592 23.8925 16.7572 23.8671C16.7552 23.8417 16.7536 23.8163 16.7521 23.7909C16.7469 23.6896 16.7441 23.5975 16.7441 23.5149C16.7441 23.4323 16.7477 23.3445 16.7544 23.2432C16.756 23.2178 16.7584 23.1924 16.7608 23.167C16.7683 23.0903 16.7791 23.0133 16.7934 22.935C16.8124 22.831 16.8382 22.7297 16.8708 22.6312C16.8791 22.6066 16.8879 22.5828 16.8974 22.5593C16.926 22.4894 16.9614 22.4247 17.0027 22.3659C17.0579 22.2873 17.125 22.2245 17.2044 22.1777C17.264 22.1423 17.3323 22.1201 17.4089 22.1113C17.4348 22.1086 17.4614 22.107 17.4888 22.107C17.5924 22.107 17.6802 22.132 17.7529 22.182C17.8251 22.2321 17.8875 22.2968 17.9391 22.3766C17.9908 22.4565 18.0313 22.5478 18.0607 22.6507C18.0678 22.6765 18.075 22.7019 18.0813 22.7277C18.1012 22.8048 18.1174 22.8818 18.1302 22.9589C18.1472 23.0617 18.1588 23.1614 18.1639 23.2587C18.1663 23.3072 18.1683 23.3524 18.1699 23.3945C18.1715 23.4366 18.1719 23.4755 18.1719 23.5113C18.1719 23.5311 18.1719 23.5518 18.1719 23.5732C18.1715 23.6157 18.1707 23.661 18.1691 23.7091C18.1683 23.7329 18.1679 23.7575 18.1667 23.7829C18.1631 23.8842 18.1544 23.9871 18.1409 24.0911C18.1306 24.1694 18.1163 24.2464 18.098 24.3231C18.092 24.3485 18.0857 24.3739 18.0785 24.3993C18.0507 24.5006 18.0114 24.5907 17.9594 24.669C17.9078 24.7476 17.8422 24.8112 17.7628 24.8596C17.6834 24.9081 17.5869 24.9323 17.4729 24.9323C17.3875 24.9323 17.3116 24.9192 17.2457 24.8926C17.2239 24.8838 17.2028 24.8735 17.183 24.8616L17.1842 24.8612Z" fill="black"/>
<path d="M5.01891 24.0244L4.20635 22.0938H3.20753V22.1665H3.58521C3.5876 22.1685 3.59038 22.1757 3.59276 22.1876C3.59673 22.2074 3.60031 22.2412 3.60348 22.2884C3.60745 22.3444 3.61023 22.4131 3.61222 22.4938C3.61301 22.5216 3.61341 22.551 3.61381 22.5815C3.6146 22.6415 3.6154 22.7054 3.61619 22.7738C3.61699 22.8421 3.61778 22.914 3.61897 22.9906C3.61977 23.0669 3.62056 23.1439 3.62096 23.2213C3.62135 23.2988 3.62175 23.3766 3.62175 23.4553V23.8854C3.62175 24.0268 3.62096 24.155 3.61897 24.2706C3.61857 24.2996 3.61818 24.3274 3.61738 24.354C3.61579 24.4342 3.61381 24.5049 3.61103 24.5661C3.60745 24.6475 3.60388 24.7011 3.6007 24.7265C3.59673 24.7555 3.58879 24.7797 3.57687 24.7992C3.55702 24.8322 3.52604 24.852 3.48394 24.8592C3.46845 24.862 3.45257 24.8639 3.43628 24.8659C3.43112 24.8663 3.42596 24.8671 3.42079 24.8675C3.40928 24.8687 3.39736 24.8695 3.38505 24.8703C3.37909 24.8703 3.37274 24.8711 3.36678 24.8715C3.35447 24.8723 3.34176 24.8723 3.32866 24.8727C3.3231 24.8727 3.31754 24.8727 3.31158 24.8727C3.29291 24.8727 3.27385 24.8727 3.25399 24.8719H3.19204V24.8461L3.17139 24.8719H3.19204V24.9489H4.15433V24.8763H3.9915C3.94821 24.8763 3.9069 24.8719 3.86719 24.8635C3.85726 24.8616 3.84773 24.8588 3.83859 24.856C3.82032 24.8504 3.80364 24.8437 3.78816 24.8357C3.78061 24.8318 3.77306 24.8274 3.76631 24.8226C3.75956 24.8179 3.75321 24.8127 3.74765 24.8072C3.7397 24.7992 3.73414 24.7897 3.72978 24.7793C3.72541 24.7698 3.72223 24.7595 3.72064 24.748C3.72064 24.7464 3.71985 24.7448 3.71985 24.7432C3.71945 24.7412 3.71905 24.7388 3.71866 24.7369C3.7127 24.715 3.70952 24.6892 3.70952 24.6578V22.5347L3.75082 22.5259L4.76514 24.9017C4.84774 24.7075 4.92995 24.5137 5.01177 24.3199C5.09318 24.126 5.1742 23.9326 5.25442 23.7392C5.41487 23.3524 5.57452 22.9652 5.73298 22.5768L5.77429 22.5855L5.76912 24.8715H5.47921V24.9485H6.67462V24.8759H6.39503V22.1661H6.67462V22.0934H5.82592L5.01852 24.024L5.01891 24.0244Z" fill="black"/>
<path d="M8.28931 22.051H8.11337C7.96166 22.4676 7.80995 22.8834 7.65785 23.2989C7.50614 23.7143 7.35601 24.1301 7.20748 24.5467C7.17968 24.615 7.15585 24.6714 7.1352 24.7159C7.11455 24.76 7.08873 24.7937 7.05776 24.8164C7.03433 24.8334 7.00613 24.8465 6.97316 24.8557C6.96204 24.8589 6.95053 24.8612 6.93861 24.8636C6.9267 24.8656 6.91359 24.8676 6.89969 24.8692C6.87189 24.8724 6.84091 24.8743 6.80636 24.8755C6.78929 24.8759 6.77102 24.8763 6.75195 24.8763V24.949H7.66777V24.8763H7.54625C7.49978 24.8763 7.45411 24.8728 7.40923 24.8656C7.38659 24.862 7.36594 24.8573 7.34648 24.8513C7.32702 24.8454 7.30915 24.8378 7.29287 24.8295C7.28453 24.8251 7.27738 24.8203 7.27142 24.8152C7.25911 24.8044 7.25077 24.7917 7.2468 24.7766C7.24481 24.7691 7.24362 24.7612 7.24362 24.7524C7.24362 24.7326 7.25236 24.6952 7.26944 24.6412C7.28651 24.5872 7.30637 24.5272 7.32901 24.4613C7.35125 24.3958 7.37468 24.3299 7.39891 24.2643C7.42313 24.1988 7.44378 24.1444 7.46086 24.1015L7.497 24.0157H8.39733L8.72855 24.8763H8.38184V24.949H9.61856V24.8763H9.39099L8.28891 22.051H8.28931ZM7.52361 23.943L7.93744 22.8215L8.37192 23.943H7.52321H7.52361Z" fill="black"/>
<path d="M11.7869 22.1666H11.9009C11.9179 22.1666 11.9346 22.1666 11.9497 22.1666C11.9958 22.1669 12.0339 22.1685 12.0637 22.1705C12.0835 22.1721 12.101 22.1757 12.1161 22.1816C12.1312 22.1876 12.1439 22.1959 12.1542 22.2067C12.1646 22.2174 12.1729 22.2313 12.1797 22.2492C12.186 22.2666 12.1908 22.2877 12.1932 22.3119C12.1983 22.3604 12.2011 22.4303 12.2011 22.5216V24.1312L10.7003 22.0935H9.66016V22.1662H10.0172L10.0843 22.2218V24.499C10.0843 24.5931 10.0815 24.6654 10.0764 24.715C10.0712 24.7651 10.0557 24.802 10.0299 24.8262C10.0041 24.8505 9.96159 24.8648 9.90321 24.8691C9.84443 24.8735 9.76341 24.8755 9.66016 24.8755V24.9482H10.6121V24.8755C10.5843 24.8755 10.5585 24.8755 10.5343 24.8751C10.5101 24.8751 10.487 24.8743 10.466 24.8739C10.4552 24.8739 10.4453 24.8735 10.4354 24.8731C10.406 24.8719 10.3806 24.8707 10.3583 24.8691C10.3436 24.8679 10.3301 24.8664 10.3174 24.864C10.292 24.8588 10.271 24.8513 10.2539 24.8405C10.2456 24.8354 10.238 24.829 10.2313 24.8223C10.2181 24.8088 10.2082 24.7909 10.2007 24.7687C10.1935 24.7464 10.1888 24.7202 10.1872 24.6896C10.1868 24.6821 10.1864 24.6737 10.186 24.6654C10.186 24.6571 10.1852 24.6479 10.1848 24.6388C10.1836 24.6015 10.1828 24.5574 10.1824 24.5069C10.1824 24.4819 10.1824 24.4549 10.1824 24.4263V22.4271L12.0403 24.97H12.2988V22.5216C12.2988 22.4303 12.3016 22.3604 12.3067 22.3119C12.3095 22.2877 12.3139 22.2666 12.3202 22.2492C12.3266 22.2317 12.3349 22.2174 12.3457 22.2067C12.3663 22.1852 12.3973 22.1733 12.439 22.1701C12.4803 22.1673 12.5355 22.1658 12.6046 22.1658H12.7237V22.0931H11.7873V22.1658L11.7869 22.1666Z" fill="black"/>
<path d="M21.2565 22.0934H19.2541C19.2505 22.1189 19.2465 22.1451 19.241 22.1721C19.2358 22.1991 19.2315 22.2265 19.2279 22.2547C19.2176 22.3452 19.208 22.4322 19.1993 22.516C19.1905 22.5998 19.1794 22.6872 19.1655 22.7785H19.243V22.7698C19.2533 22.7329 19.2652 22.6912 19.2791 22.6455C19.2827 22.634 19.2863 22.6232 19.2906 22.6129C19.3037 22.5819 19.3204 22.5557 19.3411 22.5343H20.8053C20.7986 22.5494 20.791 22.566 20.7827 22.5843C20.7585 22.6391 20.7287 22.7082 20.6941 22.7916C20.6477 22.9032 20.5957 23.0275 20.5389 23.1646C20.4821 23.302 20.4249 23.4453 20.3681 23.5955C20.3113 23.7456 20.2585 23.8893 20.2104 24.0264C20.1743 24.1292 20.1433 24.2249 20.1179 24.3135C20.1095 24.3429 20.1016 24.3715 20.0941 24.3997C20.0647 24.5113 20.05 24.5971 20.05 24.657C20.05 24.6971 20.0547 24.7353 20.0639 24.7718C20.0734 24.8083 20.0873 24.8429 20.106 24.8759C20.1199 24.9005 20.1377 24.9203 20.1588 24.9358C20.1941 24.9616 20.2398 24.9743 20.295 24.9743C20.4245 24.9743 20.4892 24.9116 20.4892 24.7861C20.4892 24.7349 20.4713 24.6904 20.4356 24.6535C20.3999 24.6165 20.355 24.5979 20.3006 24.5979C20.2887 24.5979 20.2775 24.5994 20.2676 24.6022C20.2573 24.605 20.2482 24.6094 20.2394 24.6149C20.2342 24.6165 20.2295 24.6177 20.2255 24.6185C20.2128 24.6217 20.2037 24.6233 20.1989 24.6233C20.1929 24.6233 20.1878 24.6225 20.1834 24.6205C20.1699 24.6153 20.1632 24.6018 20.1632 24.5804C20.1632 24.5526 20.1691 24.5156 20.1806 24.4692C20.1846 24.4537 20.189 24.4374 20.1941 24.4199C20.2148 24.35 20.2414 24.2722 20.2744 24.1868C20.3069 24.101 20.3435 24.0121 20.3832 23.9191C20.4229 23.8266 20.4626 23.7372 20.5023 23.6515C20.542 23.5657 20.5782 23.4882 20.6111 23.4183C20.6441 23.3484 20.6707 23.2936 20.6914 23.2535H20.6862L21.2553 22.0934H21.2565Z" fill="black"/>
</g>
<g style="mix-blend-mode:screen" opacity="0.5">
<path d="M14.7003 23.5963V23.669H15.0057V24.3795C15.0057 24.4009 15.0049 24.4216 15.003 24.4414C14.9994 24.4812 14.9926 24.5181 14.9823 24.5522C14.9565 24.6372 14.9088 24.7036 14.8401 24.752C14.7297 24.8291 14.5971 24.8676 14.4418 24.8676C14.3314 24.8676 14.2349 24.8453 14.1519 24.8013C14.0693 24.7572 13.9982 24.6984 13.9398 24.6257C13.881 24.553 13.8338 24.4696 13.7976 24.3751C13.7615 24.281 13.7329 24.1845 13.7122 24.086C13.6916 23.9875 13.6777 23.8898 13.6709 23.7929C13.6658 23.7202 13.6634 23.6523 13.6642 23.5892C13.6642 23.5681 13.665 23.5475 13.6658 23.5276C13.6693 23.4021 13.6797 23.2615 13.6967 23.1058C13.7138 22.9502 13.7512 22.804 13.8079 22.667C13.8294 22.6158 13.8544 22.5673 13.8834 22.522C13.9219 22.4617 13.9672 22.4073 14.0188 22.358C14.0319 22.3457 14.045 22.3338 14.0589 22.3223C14.0728 22.3107 14.0871 22.2996 14.1022 22.2897C14.1324 22.2694 14.165 22.252 14.1999 22.2377C14.2174 22.2305 14.2357 22.2238 14.2543 22.2182C14.3294 22.1952 14.4144 22.1833 14.5093 22.1833C14.6265 22.1833 14.7301 22.2063 14.8199 22.2516C14.887 22.2857 14.9466 22.329 14.9986 22.3806C15.0157 22.3981 15.0324 22.4164 15.0478 22.4354C15.1098 22.5125 15.1606 22.6011 15.2003 22.7007C15.2301 22.7758 15.2536 22.8521 15.2706 22.9303C15.2762 22.9565 15.2814 22.9827 15.2857 23.0089H15.3894V22.14H15.2909C15.2881 22.1702 15.2829 22.1964 15.2742 22.219C15.2714 22.2266 15.2683 22.2337 15.2647 22.2405C15.2579 22.254 15.2464 22.2643 15.2309 22.271C15.2154 22.2778 15.1956 22.2814 15.1714 22.2814C15.1126 22.2814 15.0558 22.2698 15.0006 22.2472C14.9454 22.2242 14.8866 22.1995 14.8246 22.1721C14.7627 22.1451 14.6968 22.1201 14.6281 22.0971C14.559 22.0744 14.4831 22.0629 14.4005 22.0629C14.3747 22.0629 14.3489 22.0637 14.3238 22.0649C14.1721 22.0729 14.0303 22.1038 13.8989 22.1582C13.877 22.1674 13.8552 22.1769 13.8342 22.1872C13.7488 22.2285 13.6693 22.277 13.5955 22.3322C13.5585 22.36 13.5232 22.3894 13.489 22.4204C13.4549 22.4513 13.4227 22.4843 13.3913 22.5189C13.2984 22.6225 13.221 22.7389 13.1598 22.8675C13.1395 22.9104 13.1209 22.9545 13.1038 23.0002C13.045 23.1598 13.0117 23.3255 13.0045 23.4958C13.0033 23.5201 13.0029 23.5447 13.0029 23.5693C13.0029 23.5955 13.0033 23.6217 13.0045 23.6475C13.0077 23.725 13.0156 23.7996 13.0283 23.8715C13.045 23.9676 13.0704 24.0586 13.1042 24.1448C13.1463 24.2528 13.1995 24.3513 13.2639 24.441C13.2897 24.4768 13.3171 24.5113 13.3465 24.5439C13.3612 24.5602 13.3762 24.5765 13.3917 24.592C13.4072 24.6078 13.4231 24.6229 13.4394 24.6376C13.5045 24.6968 13.5756 24.7488 13.6527 24.7937C13.6721 24.8048 13.6916 24.8156 13.7118 24.8263C13.7519 24.8469 13.7936 24.866 13.8365 24.8831C13.9227 24.9172 14.0141 24.943 14.1106 24.9601C14.2071 24.9772 14.3087 24.9859 14.416 24.9859C14.4446 24.9859 14.4728 24.9851 14.5006 24.9835C14.5844 24.9792 14.6658 24.9677 14.7444 24.9494C14.8497 24.9252 14.9521 24.8958 15.0522 24.8616C15.1142 24.8445 15.1702 24.8247 15.2202 24.8017C15.2702 24.779 15.3167 24.7639 15.36 24.7568C15.3707 24.7552 15.381 24.7544 15.391 24.7544C15.3922 24.7544 15.3938 24.7544 15.3949 24.7544C15.4029 24.7544 15.4108 24.7556 15.4188 24.7568C15.4216 24.7572 15.4243 24.758 15.4275 24.7588C15.4343 24.7603 15.4406 24.7623 15.447 24.7643C15.4498 24.7651 15.4525 24.7663 15.4549 24.7671C15.4637 24.7707 15.4724 24.775 15.4811 24.7802C15.4954 24.7889 15.5097 24.8009 15.5244 24.8167C15.5343 24.8275 15.5443 24.8394 15.5542 24.8533C15.5693 24.8739 15.5844 24.8982 15.5999 24.926L15.6102 23.6674H15.9104V23.5947H14.6995L14.7003 23.5963Z" fill="black"/>
<path d="M18.7946 23.2587C18.7783 23.1693 18.7537 23.08 18.7207 22.9906C18.6552 22.8123 18.563 22.6523 18.4439 22.5113C18.3248 22.3699 18.1834 22.2559 18.0197 22.1689C17.8557 22.082 17.6758 22.0383 17.4788 22.0383C17.2926 22.0383 17.1182 22.0812 16.9562 22.1665C16.8752 22.2094 16.7989 22.2587 16.7278 22.3143C16.6567 22.3699 16.5904 22.4318 16.5293 22.5005C16.5138 22.5176 16.4991 22.5351 16.4844 22.553C16.4117 22.6415 16.3493 22.7372 16.2973 22.8401C16.287 22.8608 16.2767 22.8814 16.2671 22.9029C16.2576 22.9243 16.2481 22.9454 16.2393 22.9672C16.2215 23.0109 16.2064 23.0542 16.1929 23.0979C16.1599 23.2071 16.1404 23.3171 16.1349 23.4271C16.1337 23.4493 16.1333 23.4712 16.1333 23.4934C16.1333 23.6324 16.1516 23.7702 16.1885 23.9061C16.1945 23.9287 16.2012 23.9513 16.2084 23.974C16.2155 23.9966 16.2231 24.0192 16.2314 24.0415C16.2477 24.0864 16.2659 24.13 16.2854 24.1729C16.3442 24.3008 16.4177 24.4184 16.5058 24.5252C16.623 24.6678 16.7644 24.783 16.93 24.8699C17.0126 24.9136 17.1 24.9462 17.1913 24.968C17.2826 24.9899 17.3784 25.0006 17.4784 25.0006C17.675 25.0006 17.8553 24.9577 18.0194 24.8723C18.0809 24.8401 18.1389 24.8044 18.1941 24.7647C18.2858 24.6988 18.3692 24.6225 18.4435 24.5359C18.5626 24.3977 18.6548 24.2404 18.7203 24.0649C18.7366 24.0212 18.7509 23.9767 18.7632 23.9327C18.7755 23.8886 18.7858 23.8437 18.7938 23.7992C18.8021 23.7543 18.8081 23.7095 18.8121 23.6642C18.816 23.6189 18.818 23.5736 18.818 23.528C18.818 23.4382 18.8097 23.3485 18.7934 23.2587H18.7946ZM17.1842 24.8612C17.1047 24.8139 17.0384 24.7512 16.9848 24.6729C16.9312 24.5943 16.8891 24.5053 16.8581 24.4053C16.8502 24.3802 16.843 24.3552 16.8363 24.3298C16.8156 24.254 16.7989 24.1773 16.7858 24.0991C16.7771 24.047 16.7699 23.9954 16.7644 23.9438C16.7616 23.918 16.7592 23.8925 16.7572 23.8671C16.7552 23.8417 16.7536 23.8163 16.7521 23.7909C16.7469 23.6896 16.7441 23.5975 16.7441 23.5149C16.7441 23.4323 16.7477 23.3445 16.7544 23.2432C16.756 23.2178 16.7584 23.1924 16.7608 23.167C16.7683 23.0903 16.7791 23.0133 16.7934 22.935C16.8124 22.831 16.8382 22.7297 16.8708 22.6312C16.8791 22.6066 16.8879 22.5828 16.8974 22.5593C16.926 22.4894 16.9614 22.4247 17.0027 22.3659C17.0579 22.2873 17.125 22.2245 17.2044 22.1777C17.264 22.1423 17.3323 22.1201 17.4089 22.1113C17.4348 22.1086 17.4614 22.107 17.4888 22.107C17.5924 22.107 17.6802 22.132 17.7529 22.182C17.8251 22.2321 17.8875 22.2968 17.9391 22.3766C17.9908 22.4565 18.0313 22.5478 18.0607 22.6507C18.0678 22.6765 18.075 22.7019 18.0813 22.7277C18.1012 22.8048 18.1174 22.8818 18.1302 22.9589C18.1472 23.0617 18.1588 23.1614 18.1639 23.2587C18.1663 23.3072 18.1683 23.3524 18.1699 23.3945C18.1715 23.4366 18.1719 23.4755 18.1719 23.5113C18.1719 23.5311 18.1719 23.5518 18.1719 23.5732C18.1715 23.6157 18.1707 23.661 18.1691 23.7091C18.1683 23.7329 18.1679 23.7575 18.1667 23.7829C18.1631 23.8842 18.1544 23.9871 18.1409 24.0911C18.1306 24.1694 18.1163 24.2464 18.098 24.3231C18.092 24.3485 18.0857 24.3739 18.0785 24.3993C18.0507 24.5006 18.0114 24.5907 17.9594 24.669C17.9078 24.7476 17.8422 24.8112 17.7628 24.8596C17.6834 24.9081 17.5869 24.9323 17.4729 24.9323C17.3875 24.9323 17.3116 24.9192 17.2457 24.8926C17.2239 24.8838 17.2028 24.8735 17.183 24.8616L17.1842 24.8612Z" fill="black"/>
<path d="M5.01891 24.0244L4.20635 22.0938H3.20753V22.1665H3.58521C3.5876 22.1685 3.59038 22.1757 3.59276 22.1876C3.59673 22.2074 3.60031 22.2412 3.60348 22.2884C3.60745 22.3444 3.61023 22.4131 3.61222 22.4938C3.61301 22.5216 3.61341 22.551 3.61381 22.5815C3.6146 22.6415 3.6154 22.7054 3.61619 22.7738C3.61699 22.8421 3.61778 22.914 3.61897 22.9906C3.61977 23.0669 3.62056 23.1439 3.62096 23.2213C3.62135 23.2988 3.62175 23.3766 3.62175 23.4553V23.8854C3.62175 24.0268 3.62096 24.155 3.61897 24.2706C3.61857 24.2996 3.61818 24.3274 3.61738 24.354C3.61579 24.4342 3.61381 24.5049 3.61103 24.5661C3.60745 24.6475 3.60388 24.7011 3.6007 24.7265C3.59673 24.7555 3.58879 24.7797 3.57687 24.7992C3.55702 24.8322 3.52604 24.852 3.48394 24.8592C3.46845 24.862 3.45257 24.8639 3.43628 24.8659C3.43112 24.8663 3.42596 24.8671 3.42079 24.8675C3.40928 24.8687 3.39736 24.8695 3.38505 24.8703C3.37909 24.8703 3.37274 24.8711 3.36678 24.8715C3.35447 24.8723 3.34176 24.8723 3.32866 24.8727C3.3231 24.8727 3.31754 24.8727 3.31158 24.8727C3.29291 24.8727 3.27385 24.8727 3.25399 24.8719H3.19204V24.8461L3.17139 24.8719H3.19204V24.9489H4.15433V24.8763H3.9915C3.94821 24.8763 3.9069 24.8719 3.86719 24.8635C3.85726 24.8616 3.84773 24.8588 3.83859 24.856C3.82032 24.8504 3.80364 24.8437 3.78816 24.8357C3.78061 24.8318 3.77306 24.8274 3.76631 24.8226C3.75956 24.8179 3.75321 24.8127 3.74765 24.8072C3.7397 24.7992 3.73414 24.7897 3.72978 24.7793C3.72541 24.7698 3.72223 24.7595 3.72064 24.748C3.72064 24.7464 3.71985 24.7448 3.71985 24.7432C3.71945 24.7412 3.71905 24.7388 3.71866 24.7369C3.7127 24.715 3.70952 24.6892 3.70952 24.6578V22.5347L3.75082 22.5259L4.76514 24.9017C4.84774 24.7075 4.92995 24.5137 5.01177 24.3199C5.09318 24.126 5.1742 23.9326 5.25442 23.7392C5.41487 23.3524 5.57452 22.9652 5.73298 22.5768L5.77429 22.5855L5.76912 24.8715H5.47921V24.9485H6.67462V24.8759H6.39503V22.1661H6.67462V22.0934H5.82592L5.01852 24.024L5.01891 24.0244Z" fill="black"/>
<path d="M8.28931 22.051H8.11337C7.96166 22.4676 7.80995 22.8834 7.65785 23.2989C7.50614 23.7143 7.35601 24.1301 7.20748 24.5467C7.17968 24.615 7.15585 24.6714 7.1352 24.7159C7.11455 24.76 7.08873 24.7937 7.05776 24.8164C7.03433 24.8334 7.00613 24.8465 6.97316 24.8557C6.96204 24.8589 6.95053 24.8612 6.93861 24.8636C6.9267 24.8656 6.91359 24.8676 6.89969 24.8692C6.87189 24.8724 6.84091 24.8743 6.80636 24.8755C6.78929 24.8759 6.77102 24.8763 6.75195 24.8763V24.949H7.66777V24.8763H7.54625C7.49978 24.8763 7.45411 24.8728 7.40923 24.8656C7.38659 24.862 7.36594 24.8573 7.34648 24.8513C7.32702 24.8454 7.30915 24.8378 7.29287 24.8295C7.28453 24.8251 7.27738 24.8203 7.27142 24.8152C7.25911 24.8044 7.25077 24.7917 7.2468 24.7766C7.24481 24.7691 7.24362 24.7612 7.24362 24.7524C7.24362 24.7326 7.25236 24.6952 7.26944 24.6412C7.28651 24.5872 7.30637 24.5272 7.32901 24.4613C7.35125 24.3958 7.37468 24.3299 7.39891 24.2643C7.42313 24.1988 7.44378 24.1444 7.46086 24.1015L7.497 24.0157H8.39733L8.72855 24.8763H8.38184V24.949H9.61856V24.8763H9.39099L8.28891 22.051H8.28931ZM7.52361 23.943L7.93744 22.8215L8.37192 23.943H7.52321H7.52361Z" fill="black"/>
<path d="M11.7869 22.1666H11.9009C11.9179 22.1666 11.9346 22.1666 11.9497 22.1666C11.9958 22.1669 12.0339 22.1685 12.0637 22.1705C12.0835 22.1721 12.101 22.1757 12.1161 22.1816C12.1312 22.1876 12.1439 22.1959 12.1542 22.2067C12.1646 22.2174 12.1729 22.2313 12.1797 22.2492C12.186 22.2666 12.1908 22.2877 12.1932 22.3119C12.1983 22.3604 12.2011 22.4303 12.2011 22.5216V24.1312L10.7003 22.0935H9.66016V22.1662H10.0172L10.0843 22.2218V24.499C10.0843 24.5931 10.0815 24.6654 10.0764 24.715C10.0712 24.7651 10.0557 24.802 10.0299 24.8262C10.0041 24.8505 9.96159 24.8648 9.90321 24.8691C9.84443 24.8735 9.76341 24.8755 9.66016 24.8755V24.9482H10.6121V24.8755C10.5843 24.8755 10.5585 24.8755 10.5343 24.8751C10.5101 24.8751 10.487 24.8743 10.466 24.8739C10.4552 24.8739 10.4453 24.8735 10.4354 24.8731C10.406 24.8719 10.3806 24.8707 10.3583 24.8691C10.3436 24.8679 10.3301 24.8664 10.3174 24.864C10.292 24.8588 10.271 24.8513 10.2539 24.8405C10.2456 24.8354 10.238 24.829 10.2313 24.8223C10.2181 24.8088 10.2082 24.7909 10.2007 24.7687C10.1935 24.7464 10.1888 24.7202 10.1872 24.6896C10.1868 24.6821 10.1864 24.6737 10.186 24.6654C10.186 24.6571 10.1852 24.6479 10.1848 24.6388C10.1836 24.6015 10.1828 24.5574 10.1824 24.5069C10.1824 24.4819 10.1824 24.4549 10.1824 24.4263V22.4271L12.0403 24.97H12.2988V22.5216C12.2988 22.4303 12.3016 22.3604 12.3067 22.3119C12.3095 22.2877 12.3139 22.2666 12.3202 22.2492C12.3266 22.2317 12.3349 22.2174 12.3457 22.2067C12.3663 22.1852 12.3973 22.1733 12.439 22.1701C12.4803 22.1673 12.5355 22.1658 12.6046 22.1658H12.7237V22.0931H11.7873V22.1658L11.7869 22.1666Z" fill="black"/>
<path d="M21.2565 22.0934H19.2541C19.2505 22.1189 19.2465 22.1451 19.241 22.1721C19.2358 22.1991 19.2315 22.2265 19.2279 22.2547C19.2176 22.3452 19.208 22.4322 19.1993 22.516C19.1905 22.5998 19.1794 22.6872 19.1655 22.7785H19.243V22.7698C19.2533 22.7329 19.2652 22.6912 19.2791 22.6455C19.2827 22.634 19.2863 22.6232 19.2906 22.6129C19.3037 22.5819 19.3204 22.5557 19.3411 22.5343H20.8053C20.7986 22.5494 20.791 22.566 20.7827 22.5843C20.7585 22.6391 20.7287 22.7082 20.6941 22.7916C20.6477 22.9032 20.5957 23.0275 20.5389 23.1646C20.4821 23.302 20.4249 23.4453 20.3681 23.5955C20.3113 23.7456 20.2585 23.8893 20.2104 24.0264C20.1743 24.1292 20.1433 24.2249 20.1179 24.3135C20.1095 24.3429 20.1016 24.3715 20.0941 24.3997C20.0647 24.5113 20.05 24.5971 20.05 24.657C20.05 24.6971 20.0547 24.7353 20.0639 24.7718C20.0734 24.8083 20.0873 24.8429 20.106 24.8759C20.1199 24.9005 20.1377 24.9203 20.1588 24.9358C20.1941 24.9616 20.2398 24.9743 20.295 24.9743C20.4245 24.9743 20.4892 24.9116 20.4892 24.7861C20.4892 24.7349 20.4713 24.6904 20.4356 24.6535C20.3999 24.6165 20.355 24.5979 20.3006 24.5979C20.2887 24.5979 20.2775 24.5994 20.2676 24.6022C20.2573 24.605 20.2482 24.6094 20.2394 24.6149C20.2342 24.6165 20.2295 24.6177 20.2255 24.6185C20.2128 24.6217 20.2037 24.6233 20.1989 24.6233C20.1929 24.6233 20.1878 24.6225 20.1834 24.6205C20.1699 24.6153 20.1632 24.6018 20.1632 24.5804C20.1632 24.5526 20.1691 24.5156 20.1806 24.4692C20.1846 24.4537 20.189 24.4374 20.1941 24.4199C20.2148 24.35 20.2414 24.2722 20.2744 24.1868C20.3069 24.101 20.3435 24.0121 20.3832 23.9191C20.4229 23.8266 20.4626 23.7372 20.5023 23.6515C20.542 23.5657 20.5782 23.4882 20.6111 23.4183C20.6441 23.3484 20.6707 23.2936 20.6914 23.2535H20.6862L21.2553 22.0934H21.2565Z" fill="black"/>
</g>
<path d="M12.214 5.12556V9.19274C12.214 9.19274 12.156 6.60691 10.7318 5.18235L8.33626 2.78715L6.12534 4.04134C5.52525 4.41228 5.14598 5.0636 5.14399 5.76893V14.7341C5.14399 15.8338 5.64043 16.8744 6.49509 17.5662L9.08409 19.6607L3.9458 16.4681V5.24629C3.9458 5.06995 3.96804 4.8968 4.01133 4.73039C4.01173 4.7292 4.01173 4.72761 4.01212 4.72642C4.15073 4.18988 4.50141 3.72323 4.99625 3.44324L8.52888 1.44043L12.214 5.12556Z" fill="black"/>
<path d="M9.08431 19.6607L2.81773 16.8751L0.953125 16.0463H1.74623C2.33798 16.0463 2.81773 15.5665 2.81773 14.9748V5.0489C2.81773 4.6172 2.46784 4.26731 2.03614 4.26731H0.953125L2.95832 3.6847C3.03497 3.66246 3.1144 3.65094 3.19423 3.65094C3.66206 3.65094 4.04174 4.02982 4.04174 4.48654C4.04174 4.51513 4.04055 4.54412 4.03737 4.57312C4.03181 4.62316 4.02386 4.67399 4.01235 4.72641C4.01195 4.72761 4.01195 4.72919 4.01155 4.73039C3.96826 4.89679 3.94602 5.06995 3.94602 5.24628V16.4681L9.08431 19.6607Z" fill="black"/>
<path d="M4.99648 3.44342C4.50163 3.7234 4.15095 4.19005 4.01235 4.7266C4.02386 4.67417 4.03181 4.62334 4.03737 4.5733C4.04055 4.54431 4.04174 4.51532 4.04174 4.48672C4.04174 4.03 3.66206 3.65112 3.19423 3.65112C3.1144 3.65112 3.03497 3.66264 2.95832 3.68488L0.953125 4.2675L8.71814 0.000549316L12.2142 3.49663V5.12573L8.5291 1.4406L4.99648 3.44342Z" fill="black"/>
<path d="M12.2144 5.12556V9.19274C12.2144 9.19274 12.2723 6.60691 13.6965 5.18235L16.0921 2.78715L18.303 4.04134C18.9031 4.41228 19.2824 5.0636 19.2844 5.76893V5.78164V8.76302V11.5113V12.1765V12.9613V14.7341C19.2844 15.8338 18.7879 16.8744 17.9333 17.5662L15.3443 19.6607L20.4826 16.4681V5.24629C20.4826 5.06995 20.4603 4.8968 20.417 4.73039C20.417 4.7292 20.417 4.72761 20.4162 4.72642C20.2776 4.18988 19.9269 3.72323 19.4321 3.44324L15.8995 1.44043L12.2144 5.12556Z" fill="black"/>
<path d="M15.3442 19.6608L21.6108 16.8752L23.4754 16.0464H22.6823C22.0906 16.0464 21.6108 15.5666 21.6108 14.9749V5.04896C21.6108 4.61726 21.9607 4.26737 22.3924 4.26737H23.4754L21.4702 3.68476C21.3936 3.66252 21.3142 3.651 21.2343 3.651C20.7665 3.651 20.3868 4.02988 20.3868 4.4866C20.3868 4.51519 20.388 4.54418 20.3912 4.57318C20.3967 4.62322 20.4047 4.67405 20.4162 4.72648C20.4162 4.72767 20.4162 4.72925 20.417 4.73045C20.4603 4.89685 20.4825 5.07001 20.4825 5.24634V16.4681L15.3442 19.6608Z" fill="black"/>
<path d="M19.4321 3.44323C19.9269 3.72322 20.2776 4.18987 20.4162 4.72641C20.4047 4.67399 20.3968 4.62316 20.3912 4.57312C20.388 4.54412 20.3868 4.51513 20.3868 4.48654C20.3868 4.02982 20.7665 3.65094 21.2344 3.65094C21.3142 3.65094 21.3936 3.66246 21.4703 3.6847L23.4755 4.26731L15.7104 0.000366211L12.2144 3.49645V5.12555L15.8995 1.44042L19.4321 3.44323Z" fill="black"/>
<path d="M17.8451 5.68954L16.2192 7.04938L14.0178 9.25076C13.6778 9.59072 13.2271 10.2702 12.8609 10.8652C12.5011 11.4502 12.2239 11.9529 12.2144 11.9696V11.2762L13.1409 9.10818C13.1818 9.01247 13.2263 8.91835 13.2739 8.82581L13.291 8.79245C13.6346 8.12842 14.096 7.5327 14.6528 7.03428L16.3487 5.51678L17.8451 5.68954Z" fill="black"/>
<path d="M12.2145 10.7147V11.2762L11.2879 9.10821C11.247 9.0125 11.2025 8.91838 11.1549 8.82584L11.1378 8.79248C10.7943 8.12845 10.3328 7.53273 9.77599 7.03431L8.08057 5.51682L8.27437 4.03864L8.85222 4.61648L10.4245 6.09864C11.1068 6.74162 11.5743 7.58039 11.7617 8.49939L12.2145 10.7147Z" fill="black"/>
<path d="M12.2142 11.2762V11.9696C12.2142 11.9696 11.0903 9.93028 10.4108 9.25076L8.20942 7.04938L6.5835 5.68954L8.08034 5.51678L9.77576 7.03428C10.3326 7.5327 10.794 8.12842 11.1376 8.79245L11.1547 8.82581C11.2023 8.91835 11.2468 9.01247 11.2877 9.10818L12.2142 11.2762Z" fill="black"/>
<path d="M16.1545 4.03864L16.3487 5.51682L14.6528 7.03431C14.096 7.53273 13.6346 8.12845 13.291 8.79248L13.2739 8.82584C13.2263 8.91838 13.1818 9.0125 13.1409 9.10821L12.2144 11.2762V10.7147L12.6671 8.49939C12.8546 7.58039 13.3216 6.74162 14.0043 6.09864L15.5766 4.61648L16.1545 4.03864Z" fill="black"/>
<path d="M18.3233 11.5114V14.7163C18.3233 16.011 15.7335 18.6008 12.2144 19.5397C16.1223 18.2307 17.3308 15.677 17.3308 14.5213V7.03789L17.8451 5.68958L16.3487 5.51682L16.1545 4.03864L17.5194 4.85358C18.0179 5.15144 18.3233 5.68918 18.3233 6.26941V11.5114Z" fill="black"/>
<path d="M17.8451 5.68951L17.3308 7.03783V14.5213C17.3308 15.677 16.1223 18.2306 12.2144 19.5396C15.6366 18.2124 16.3808 15.8978 16.3808 14.1011V7.46992L17.8451 5.68951Z" fill="black"/>
<path d="M8.04778 9.67687C8.04778 11.4736 8.79203 13.7881 12.2142 15.1154C8.92984 14.0332 7.10296 11.6559 7.10296 10.4787V7.1256L6.5835 5.68951L8.04778 7.46992V9.67687Z" fill="black"/>
<path d="M7.1031 10.4787C7.1031 11.6559 8.92998 14.0332 12.2144 15.1154C8.69526 14.1765 6.10547 11.5867 6.10547 10.2921V6.26935C6.10547 5.68912 6.41087 5.15138 6.90929 4.85352L8.27429 4.03857L8.08048 5.51675L6.58363 5.68951L7.1031 7.1256V10.4787Z" fill="black"/>
<path d="M17.3304 7.76764L17.3399 8.58894L17.3455 9.41064L17.3503 11.0532L17.3455 12.6958L17.3399 13.5171L17.3304 14.3384L17.3209 13.5171L17.3153 12.6958L17.3105 11.0532L17.3153 9.41064L17.3209 8.58894L17.3304 7.76764Z" fill="black"/>
<path d="M7.10433 7.77283C7.11267 7.99205 7.11624 8.21088 7.11942 8.4301C7.1226 8.64933 7.1222 8.86816 7.12419 9.08738C7.1226 9.30661 7.1226 9.52544 7.11982 9.74466L7.11426 10.0735C7.11108 10.1831 7.1091 10.2927 7.10433 10.4023C7.09996 10.2927 7.09798 10.1831 7.0944 10.0735L7.08884 9.74466C7.08566 9.52544 7.08566 9.30661 7.08447 9.08738C7.08606 8.86816 7.08566 8.64933 7.08924 8.4301C7.09242 8.21088 7.09639 7.99205 7.10433 7.77283Z" fill="black"/>
<path d="M20.4823 5.82086L20.4918 7.07187L20.4954 8.32289L20.5021 10.8249L20.4954 13.3269L20.4918 14.578L20.4823 15.829L20.4727 14.578L20.4692 13.3269L20.4624 10.8249L20.4692 8.32289L20.4727 7.07187L20.4823 5.82086Z" fill="black"/>
<path d="M3.94564 5.82086L3.95517 7.07187L3.95874 8.32289L3.9655 10.8249L3.95874 13.3269L3.95517 14.578L3.94564 15.829L3.93611 14.578L3.93253 13.3269L3.92578 10.8249L3.93253 8.32289L3.93611 7.07187L3.94564 5.82086Z" fill="black"/>
<path d="M8.76221 1.67383C9.02313 1.92324 9.28128 2.17582 9.53863 2.4288L10.3075 3.19093L11.07 3.95981L11.4489 4.34663L11.8246 4.73623L11.435 4.36053L11.0482 3.98165L10.2793 3.21913L9.51718 2.45025C9.2642 2.1929 9.01162 1.93475 8.76221 1.67383Z" fill="black"/>
<path d="M16.3105 1.67383C16.5746 1.81402 16.8368 1.95819 17.0985 2.10314L17.8809 2.54159L18.6589 2.98799L19.0461 3.21396L19.4313 3.44351L19.0366 3.23064L18.6438 3.0142L17.8614 2.57575L17.0834 2.12936C16.8249 1.97923 16.5667 1.82832 16.3105 1.67383Z" fill="black"/>
<g opacity="0.5">
<path d="M23.4753 4.2675H22.3923C21.9606 4.2675 21.6107 4.61738 21.6107 5.04908V6.12892C20.9205 6.59914 20.1468 7.07254 19.2842 7.53323V5.76911C19.2822 5.06378 18.903 4.41245 18.3029 4.04152L16.092 2.78733L13.6964 5.18252C12.2722 6.60709 12.2142 9.19291 12.2142 9.19291C12.2142 9.19291 12.1562 6.60709 10.7321 5.18252L8.33648 2.78733L6.12557 4.04152C5.52548 4.41245 5.1462 5.06378 5.14422 5.76911V11.2986C4.39281 11.3518 3.61758 11.3883 2.81773 11.407V5.04908C2.81773 4.61738 2.46784 4.2675 2.03614 4.2675H0.953125L8.71814 0.000549316L12.2142 3.49663L15.7103 0.000549316L23.4753 4.2675Z" fill="black"/>
<path d="M18.323 6.26935V8.02156C17.7154 8.31545 17.0684 8.60139 16.3806 8.87423V7.46992L17.8449 5.68951L16.2189 7.04934L14.0176 9.25073C13.8702 9.39807 13.7014 9.60975 13.5283 9.85042C13.1371 9.9644 12.736 10.074 12.3237 10.1777L12.6669 8.49933C12.8543 7.58033 13.3214 6.74156 14.0041 6.09858L15.5764 4.61642L16.1542 4.03857L17.5192 4.85352C18.0176 5.15138 18.323 5.68912 18.323 6.26935Z" fill="black"/>
<path d="M11.7616 8.49933L12.1155 10.2297C11.8446 10.2968 11.569 10.3616 11.289 10.4235C10.9896 9.96083 10.6683 9.50848 10.4109 9.25073L8.20955 7.04934L6.58363 5.68951L8.04791 7.46992V9.67687C8.04791 10.0903 8.08723 10.5311 8.19009 10.9811C7.60986 11.0621 7.01295 11.1332 6.39896 11.1936C6.20754 10.8572 6.10547 10.549 6.10547 10.292V6.26935C6.10547 5.68912 6.41087 5.15138 6.90929 4.85352L8.27429 4.03857L8.85214 4.61642L10.4244 6.09858C11.1067 6.74156 11.5742 7.58033 11.7616 8.49933Z" fill="black"/>
</g>
<g style="mix-blend-mode:overlay">
<path d="M21.6107 14.9747V5.04884C21.6107 4.61714 21.9606 4.26725 22.3923 4.26725H23.4753L15.7103 0.000305176L12.2142 3.49639L8.71814 0.000305176L0.953125 4.26725H2.03614C2.46784 4.26725 2.81773 4.61714 2.81773 5.04884V14.9747C2.81773 15.5665 2.33798 16.0462 1.74623 16.0462H0.953125L2.81773 16.8751L9.08431 19.6607L6.49531 17.5661C5.64065 16.8743 5.14422 15.8338 5.14422 14.7341V5.76886C5.1462 5.06353 5.52548 4.41221 6.12557 4.04128L8.33648 2.78708L10.7321 5.18228C12.1562 6.60684 12.2142 9.19267 12.2142 9.19267C12.2142 9.19267 12.2722 6.60684 13.6964 5.18228L16.092 2.78708L18.3029 4.04128C18.903 4.41221 19.2822 5.06353 19.2842 5.76886V14.7341C19.2842 15.8338 18.7878 16.8743 17.9331 17.5661L15.3441 19.6607L21.6107 16.8751L23.4753 16.0462H22.6822C22.0905 16.0462 21.6107 15.5665 21.6107 14.9747Z" fill="black"/>
<path d="M16.3808 8.87417V14.101C16.3808 15.8977 15.6365 18.2123 12.2143 19.5396C15.7334 18.6007 18.3232 16.0109 18.3232 14.7162V6.26929C18.3232 5.68906 18.0178 5.15132 17.5194 4.85346L16.1544 4.03851L15.5765 4.61636L14.0042 6.09851C13.3215 6.7415 12.8545 7.58027 12.667 8.49927L12.3239 10.1776L12.2143 10.7146L12.115 10.2296L11.7611 8.49927C11.5737 7.58027 11.1063 6.7415 10.424 6.09851L8.85165 4.61636L8.2738 4.03851L6.90881 4.85346C6.41039 5.15132 6.10498 5.68906 6.10498 6.26929V10.292C6.10498 10.3103 6.10577 10.3293 6.10657 10.3484C6.10657 10.3543 6.10736 10.3603 6.10776 10.3663C6.10855 10.3798 6.10975 10.3933 6.11133 10.4068C6.11213 10.4135 6.11292 10.4203 6.11372 10.4274C6.11531 10.4413 6.11769 10.4552 6.11967 10.4695C6.12047 10.4755 6.12166 10.4818 6.12246 10.4878C6.12603 10.5076 6.1296 10.5279 6.13437 10.5481C6.13516 10.5509 6.13596 10.5541 6.13635 10.5573C6.14033 10.5748 6.14469 10.5926 6.14946 10.6105C6.15145 10.618 6.15343 10.6252 6.15542 10.6327C6.15939 10.6466 6.16336 10.6609 6.16773 10.6748C6.17011 10.6828 6.1725 10.6911 6.17528 10.6991C6.18004 10.7138 6.18481 10.7285 6.18997 10.7431C6.19235 10.7503 6.19474 10.7578 6.19752 10.765C6.20506 10.7864 6.213 10.8079 6.22174 10.8293C6.22412 10.8353 6.2269 10.8416 6.22929 10.848C6.23564 10.8643 6.24239 10.8806 6.24954 10.8968C6.25351 10.906 6.25748 10.9151 6.26146 10.9242C6.26741 10.9381 6.27377 10.952 6.28012 10.9659C6.28449 10.9755 6.28926 10.9854 6.29363 10.9949C6.30038 11.0092 6.30753 11.0239 6.31507 11.0382C6.31944 11.0474 6.32381 11.0561 6.32857 11.0652C6.33969 11.0875 6.35161 11.1097 6.36352 11.132C6.36869 11.1415 6.37425 11.151 6.37941 11.1606C6.38537 11.1713 6.39132 11.1824 6.39768 11.1931C7.16933 12.5498 9.39256 14.3623 12.2131 15.1149C9.57843 14.0931 8.53115 12.4862 8.18841 10.9806C8.15029 10.8138 8.1209 10.6482 8.09905 10.485C8.09905 10.4822 8.09826 10.479 8.09786 10.4763C8.09111 10.4262 8.08555 10.3762 8.07999 10.3265C8.0792 10.3198 8.0784 10.313 8.07801 10.3063C8.07324 10.2586 8.06887 10.2114 8.0653 10.1641C8.0645 10.1562 8.06411 10.1482 8.06331 10.1399C8.05974 10.093 8.05696 10.0466 8.05457 10.0005C8.05457 9.99294 8.05378 9.98539 8.05338 9.97785C8.051 9.93058 8.04941 9.88412 8.04822 9.83765C8.04822 9.83249 8.04822 9.82772 8.04822 9.82256C8.04703 9.77371 8.04663 9.72486 8.04663 9.67681V7.46986L6.58235 5.68945L8.20827 7.04928L10.4097 9.25067C10.4247 9.26576 10.4398 9.28165 10.4553 9.29793C10.4573 9.30031 10.4593 9.3023 10.4617 9.30468C10.7095 9.56878 11.0082 9.99175 11.2877 10.4234C11.779 11.1824 12.2123 11.9687 12.2131 11.9695C12.2226 11.9529 12.4998 11.4501 12.8597 10.8651C13.1107 10.4572 13.4014 10.0096 13.669 9.65894C13.6718 9.65536 13.6746 9.65179 13.677 9.64821C13.6968 9.622 13.7167 9.59658 13.7366 9.57156C13.7425 9.56402 13.7481 9.55687 13.754 9.54932C13.7703 9.52867 13.7866 9.50842 13.8029 9.48896C13.81 9.48022 13.8172 9.47148 13.8243 9.46275C13.839 9.44487 13.8541 9.4278 13.8684 9.41072C13.876 9.40198 13.8835 9.39324 13.891 9.38451C13.9057 9.36743 13.9204 9.35154 13.9351 9.33526C13.9419 9.32811 13.9482 9.32057 13.955 9.31342C13.9756 9.29118 13.9963 9.26973 14.0161 9.24988L16.2175 7.04849L17.8435 5.68866L16.3792 7.46907V8.87338L16.3808 8.87417Z" fill="black"/>
</g>
<g style="mix-blend-mode:overlay">
<path d="M21.6107 14.9747V5.04884C21.6107 4.61714 21.9606 4.26725 22.3923 4.26725H23.4753L15.7103 0.000305176L12.2142 3.49639L8.71814 0.000305176L0.953125 4.26725H2.03614C2.46784 4.26725 2.81773 4.61714 2.81773 5.04884V14.9747C2.81773 15.5665 2.33798 16.0462 1.74623 16.0462H0.953125L2.81773 16.8751L9.08431 19.6607L6.49531 17.5661C5.64065 16.8743 5.14422 15.8338 5.14422 14.7341V5.76886C5.1462 5.06353 5.52548 4.41221 6.12557 4.04128L8.33648 2.78708L10.7321 5.18228C12.1562 6.60684 12.2142 9.19267 12.2142 9.19267C12.2142 9.19267 12.2722 6.60684 13.6964 5.18228L16.092 2.78708L18.3029 4.04128C18.903 4.41221 19.2822 5.06353 19.2842 5.76886V14.7341C19.2842 15.8338 18.7878 16.8743 17.9331 17.5661L15.3441 19.6607L21.6107 16.8751L23.4753 16.0462H22.6822C22.0905 16.0462 21.6107 15.5665 21.6107 14.9747Z" fill="black"/>
<path d="M16.3808 8.87417V14.101C16.3808 15.8977 15.6365 18.2123 12.2143 19.5396C15.7334 18.6007 18.3232 16.0109 18.3232 14.7162V6.26929C18.3232 5.68906 18.0178 5.15132 17.5194 4.85346L16.1544 4.03851L15.5765 4.61636L14.0042 6.09851C13.3215 6.7415 12.8545 7.58027 12.667 8.49927L12.3239 10.1776L12.2143 10.7146L12.115 10.2296L11.7611 8.49927C11.5737 7.58027 11.1063 6.7415 10.424 6.09851L8.85165 4.61636L8.2738 4.03851L6.90881 4.85346C6.41039 5.15132 6.10498 5.68906 6.10498 6.26929V10.292C6.10498 10.3103 6.10577 10.3293 6.10657 10.3484C6.10657 10.3543 6.10736 10.3603 6.10776 10.3663C6.10855 10.3798 6.10975 10.3933 6.11133 10.4068C6.11213 10.4135 6.11292 10.4203 6.11372 10.4274C6.11531 10.4413 6.11769 10.4552 6.11967 10.4695C6.12047 10.4755 6.12166 10.4818 6.12246 10.4878C6.12603 10.5076 6.1296 10.5279 6.13437 10.5481C6.13516 10.5509 6.13596 10.5541 6.13635 10.5573C6.14033 10.5748 6.14469 10.5926 6.14946 10.6105C6.15145 10.618 6.15343 10.6252 6.15542 10.6327C6.15939 10.6466 6.16336 10.6609 6.16773 10.6748C6.17011 10.6828 6.1725 10.6911 6.17528 10.6991C6.18004 10.7138 6.18481 10.7285 6.18997 10.7431C6.19235 10.7503 6.19474 10.7578 6.19752 10.765C6.20506 10.7864 6.213 10.8079 6.22174 10.8293C6.22412 10.8353 6.2269 10.8416 6.22929 10.848C6.23564 10.8643 6.24239 10.8806 6.24954 10.8968C6.25351 10.906 6.25748 10.9151 6.26146 10.9242C6.26741 10.9381 6.27377 10.952 6.28012 10.9659C6.28449 10.9755 6.28926 10.9854 6.29363 10.9949C6.30038 11.0092 6.30753 11.0239 6.31507 11.0382C6.31944 11.0474 6.32381 11.0561 6.32857 11.0652C6.33969 11.0875 6.35161 11.1097 6.36352 11.132C6.36869 11.1415 6.37425 11.151 6.37941 11.1606C6.38537 11.1713 6.39132 11.1824 6.39768 11.1931C7.16933 12.5498 9.39256 14.3623 12.2131 15.1149C9.57843 14.0931 8.53115 12.4862 8.18841 10.9806C8.15029 10.8138 8.1209 10.6482 8.09905 10.485C8.09905 10.4822 8.09826 10.479 8.09786 10.4763C8.09111 10.4262 8.08555 10.3762 8.07999 10.3265C8.0792 10.3198 8.0784 10.313 8.07801 10.3063C8.07324 10.2586 8.06887 10.2114 8.0653 10.1641C8.0645 10.1562 8.06411 10.1482 8.06331 10.1399C8.05974 10.093 8.05696 10.0466 8.05457 10.0005C8.05457 9.99294 8.05378 9.98539 8.05338 9.97785C8.051 9.93058 8.04941 9.88412 8.04822 9.83765C8.04822 9.83249 8.04822 9.82772 8.04822 9.82256C8.04703 9.77371 8.04663 9.72486 8.04663 9.67681V7.46986L6.58235 5.68945L8.20827 7.04928L10.4097 9.25067C10.4247 9.26576 10.4398 9.28165 10.4553 9.29793C10.4573 9.30031 10.4593 9.3023 10.4617 9.30468C10.7095 9.56878 11.0082 9.99175 11.2877 10.4234C11.779 11.1824 12.2123 11.9687 12.2131 11.9695C12.2226 11.9529 12.4998 11.4501 12.8597 10.8651C13.1107 10.4572 13.4014 10.0096 13.669 9.65894C13.6718 9.65536 13.6746 9.65179 13.677 9.64821C13.6968 9.622 13.7167 9.59658 13.7366 9.57156C13.7425 9.56402 13.7481 9.55687 13.754 9.54932C13.7703 9.52867 13.7866 9.50842 13.8029 9.48896C13.81 9.48022 13.8172 9.47148 13.8243 9.46275C13.839 9.44487 13.8541 9.4278 13.8684 9.41072C13.876 9.40198 13.8835 9.39324 13.891 9.38451C13.9057 9.36743 13.9204 9.35154 13.9351 9.33526C13.9419 9.32811 13.9482 9.32057 13.955 9.31342C13.9756 9.29118 13.9963 9.26973 14.0161 9.24988L16.2175 7.04849L17.8435 5.68866L16.3792 7.46907V8.87338L16.3808 8.87417Z" fill="black"/>
</g>
</g>
<defs>
<clipPath id="clip0_1255_29818">
<rect width="22.5222" height="25" fill="white" transform="translate(0.952637)"/>
</clipPath>
</defs>
</svg>
