<svg width="86" height="25" viewBox="0 0 86 25" fill="none" xmlns="http://www.w3.org/2000/svg">
<g clip-path="url(#clip0_1255_29813)">
<path d="M20.7186 0.694397C18.6353 0.819397 16.8853 1.5694 15.5242 2.93051C15.4964 2.95829 15.4825 2.97217 15.4686 2.99995C15.4409 2.97217 15.427 2.95829 15.3992 2.93051C14.0381 1.55551 12.2881 0.819397 10.1492 0.694397H9.91309C7.82975 0.819397 6.12142 1.5694 4.76031 2.93051C3.31586 4.36106 2.66309 6.13884 2.66309 8.18051V13.4166C2.66309 14.1527 2.74642 14.7361 3.16309 15.1527C3.57975 15.5694 3.96864 15.7777 4.55198 15.7777C5.13531 15.7777 5.59364 15.5555 6.01031 15.1527C6.42697 14.7222 6.62142 14.1527 6.62142 13.4444V8.20829C6.62142 8.12495 6.6492 8.02773 6.63531 7.9444C6.69086 7.18051 7.13531 6.51384 7.70475 5.9444C8.34364 5.30551 9.10753 4.98606 10.0659 4.98606C10.9686 4.98606 11.7464 5.29162 12.3853 5.9444C12.9548 6.51384 13.3159 7.16662 13.3714 7.93051C13.3714 8.01384 13.3992 8.16662 13.3992 8.24995V13.5C13.3992 14.2083 13.5381 14.7222 13.9686 15.1388C14.3992 15.5555 14.7881 15.7638 15.3853 15.7638C15.9686 15.7638 16.427 15.5416 16.8436 15.1388C17.2603 14.7083 17.4548 14.1388 17.4548 13.4305V8.20829C17.4548 8.12495 17.4825 8.02773 17.4686 7.9444C17.5242 7.18051 17.9825 6.51384 18.5659 5.9444C19.2048 5.30551 19.9686 4.98606 20.927 4.98606C21.8298 4.98606 22.6075 5.29162 23.2464 5.9444C23.8159 6.51384 24.1492 7.16662 24.2186 7.93051C24.2048 8.01384 24.2325 8.11106 24.2325 8.1944V13.4305C24.2325 14.1388 24.427 14.7083 24.8298 15.1388C25.2464 15.5555 25.7186 15.7638 26.2881 15.7638C26.8714 15.7638 27.2325 15.5416 27.6492 15.1388C28.0659 14.7083 28.1214 14.1388 28.1214 13.4027V8.18051C28.1214 6.13884 27.5103 4.36106 26.0798 2.93051C24.7048 1.5694 23.1214 0.819397 20.9825 0.694397H20.7186Z" fill="url(#paint0_linear_1255_29813)"/>
<mask id="mask0_1255_29813" style="mask-type:luminance" maskUnits="userSpaceOnUse" x="2" y="0" width="27" height="16">
<path d="M20.7182 0.69458C18.6348 0.81958 16.8848 1.56958 15.5237 2.93069C15.4959 2.95847 15.482 2.97236 15.4682 3.00014C15.4404 2.97236 15.4265 2.95847 15.3987 2.93069C14.0376 1.55569 12.2876 0.81958 10.1487 0.69458H9.9126C7.82926 0.81958 6.12093 1.56958 4.75982 2.93069C3.31538 4.36125 2.6626 6.13902 2.6626 8.18069V13.4168C2.6626 14.1529 2.74593 14.7362 3.1626 15.1529C3.57926 15.5696 3.96815 15.7779 4.55149 15.7779C5.13482 15.7779 5.59315 15.5557 6.00982 15.1529C6.42649 14.7224 6.62093 14.1529 6.62093 13.4446V8.20847C6.62093 8.12513 6.64871 8.02791 6.63482 7.94458C6.69038 7.18069 7.13482 6.51402 7.70426 5.94458C8.34315 5.30569 9.10704 4.98625 10.0654 4.98625C10.9682 4.98625 11.7459 5.2918 12.3848 5.94458C12.9543 6.51402 13.3154 7.1668 13.3709 7.93069C13.3709 8.01402 13.3987 8.1668 13.3987 8.25014V13.5001C13.3987 14.2085 13.5376 14.7224 13.9682 15.139C14.3987 15.5557 14.7876 15.764 15.3848 15.764C15.9682 15.764 16.4265 15.5418 16.8432 15.139C17.2598 14.7085 17.4543 14.139 17.4543 13.4307V8.20847C17.4543 8.12513 17.482 8.02791 17.4682 7.94458C17.5237 7.18069 17.982 6.51402 18.5654 5.94458C19.2043 5.30569 19.9682 4.98625 20.9265 4.98625C21.8293 4.98625 22.607 5.2918 23.2459 5.94458C23.8154 6.51402 24.1487 7.1668 24.2182 7.93069C24.2043 8.01402 24.232 8.11125 24.232 8.19458V13.4307C24.232 14.139 24.4265 14.7085 24.8293 15.139C25.2459 15.5557 25.7182 15.764 26.2876 15.764C26.8709 15.764 27.232 15.5418 27.6487 15.139C28.0654 14.7085 28.1209 14.139 28.1209 13.4029V8.18069C28.1209 6.13902 27.5098 4.36125 26.0793 2.93069C24.7043 1.56958 23.1209 0.81958 20.982 0.69458H20.7182Z" fill="white"/>
</mask>
<g mask="url(#mask0_1255_29813)">
<path d="M28.1214 0.694519H2.66309V15.7917H28.1214V0.694519Z" fill="url(#paint1_linear_1255_29813)"/>
</g>
<path d="M31.8162 2.91656C30.3579 4.38878 29.6079 6.16656 29.6079 8.24989C29.6079 10.3332 30.344 12.1249 31.8162 13.5832C33.2885 15.0554 35.0801 15.7916 37.1496 15.7916C39.2329 15.7916 41.0246 15.0554 42.4968 13.5693C42.9135 13.1527 43.1357 12.6249 43.1357 12.0416C43.1357 11.4582 42.9135 10.9304 42.4968 10.5277C42.094 10.111 41.5662 9.90267 40.9829 9.90267C40.3996 9.90267 39.8857 10.111 39.4551 10.5554C38.8024 11.1804 38.0524 11.4999 37.1635 11.4999C36.2607 11.4999 35.5107 11.1804 34.8579 10.5416C34.219 9.88878 33.8996 9.15267 33.8996 8.24989C33.8996 7.34711 34.219 6.59711 34.8579 5.94433C35.5107 5.30545 36.2607 4.99989 37.1635 4.99989C37.2051 4.99989 37.2468 4.99989 37.2885 4.99989L35.5524 6.74989C35.1496 7.15267 34.9412 7.68045 34.9412 8.26378C34.9412 8.84711 35.1635 9.37489 35.5662 9.80545C35.9829 10.2082 36.5107 10.4166 37.094 10.4166C37.6635 10.4166 38.1912 10.2082 38.6079 9.79156L42.4829 5.93045C42.8996 5.52767 43.1079 5.01378 43.1079 4.44434C43.1079 4.13878 43.0524 3.83322 42.9274 3.55545L42.8024 3.31934L42.4968 2.91656C41.0524 1.45822 39.2607 0.722113 37.1774 0.722113C35.0801 0.708224 33.2885 1.45822 31.8162 2.91656Z" fill="url(#paint2_linear_1255_29813)"/>
<mask id="mask1_1255_29813" style="mask-type:luminance" maskUnits="userSpaceOnUse" x="29" y="0" width="15" height="16">
<path d="M31.8162 2.91656C30.3579 4.38878 29.6079 6.16656 29.6079 8.24989C29.6079 10.3332 30.344 12.1249 31.8162 13.5832C33.2885 15.0554 35.0801 15.7916 37.1496 15.7916C39.2329 15.7916 41.0246 15.0554 42.4968 13.5693C42.9135 13.1527 43.1357 12.6249 43.1357 12.0416C43.1357 11.4582 42.9135 10.9304 42.4968 10.5277C42.094 10.111 41.5662 9.90267 40.9829 9.90267C40.3996 9.90267 39.8857 10.111 39.4551 10.5554C38.8024 11.1804 38.0524 11.4999 37.1635 11.4999C36.2607 11.4999 35.5107 11.1804 34.8579 10.5416C34.219 9.88878 33.8996 9.15267 33.8996 8.24989C33.8996 7.34711 34.219 6.59711 34.8579 5.94433C35.5107 5.30545 36.2607 4.99989 37.1635 4.99989C37.2051 4.99989 37.2468 4.99989 37.2885 4.99989L35.5524 6.74989C35.1496 7.15267 34.9412 7.68045 34.9412 8.26378C34.9412 8.84711 35.1635 9.37489 35.5662 9.80545C35.9829 10.2082 36.5107 10.4166 37.094 10.4166C37.6635 10.4166 38.1912 10.2082 38.6079 9.79156L42.4829 5.93045C42.8996 5.52767 43.1079 5.01378 43.1079 4.44434C43.1079 4.13878 43.0524 3.83322 42.9274 3.55545L42.8024 3.31934L42.4968 2.91656C41.0524 1.45822 39.2607 0.722113 37.1774 0.722113C35.0801 0.708224 33.2885 1.45822 31.8162 2.91656Z" fill="white"/>
</mask>
<g mask="url(#mask1_1255_29813)">
<path d="M43.1355 0.708313H29.6216V15.7778H43.1355V0.708313Z" fill="url(#paint3_linear_1255_29813)"/>
</g>
<path d="M52.0104 0.638794C49.8715 0.638794 47.9965 1.51379 46.6215 2.88879C45.1631 4.33324 44.3159 6.12491 44.3159 8.18046V13.4166C44.3159 14.1527 44.6215 14.736 45.0381 15.1527C45.4409 15.5693 46.0659 15.7777 46.6493 15.7777C47.2326 15.7777 47.8298 15.5555 48.2465 15.1527C48.677 14.7221 48.9409 14.1527 48.9409 13.4443V8.20824C48.9409 8.1249 48.9409 8.02768 48.9409 7.94435C48.9965 7.18046 49.1493 6.51379 49.7326 5.94435C50.3715 5.30546 51.1215 4.98602 52.052 4.98602C52.6354 4.98602 53.1631 4.76379 53.5659 4.36102C53.9826 3.95824 54.2048 3.40268 54.2048 2.83324C54.2048 2.2499 53.9826 1.70824 53.5659 1.30546C53.1493 0.888794 52.6354 0.638794 52.0104 0.638794Z" fill="url(#paint4_linear_1255_29813)"/>
<mask id="mask2_1255_29813" style="mask-type:luminance" maskUnits="userSpaceOnUse" x="44" y="0" width="11" height="16">
<path d="M52.0099 0.638733C49.871 0.638733 47.996 1.51373 46.621 2.88873C45.1627 4.33318 44.3154 6.12484 44.3154 8.1804V13.4165C44.3154 14.1526 44.621 14.736 45.0377 15.1526C45.4404 15.5693 46.0654 15.7776 46.6488 15.7776C47.2321 15.7776 47.8293 15.5554 48.246 15.1526C48.6765 14.7221 48.9404 14.1526 48.9404 13.4443V8.20818C48.9404 8.12484 48.9404 8.02762 48.9404 7.94429C48.996 7.1804 49.1488 6.51373 49.7321 5.94429C50.371 5.3054 51.121 4.98596 52.0515 4.98596C52.6349 4.98596 53.1627 4.76373 53.5654 4.36095C53.9821 3.95818 54.2043 3.40262 54.2043 2.83318C54.2043 2.24984 53.9821 1.70818 53.5654 1.3054C53.1488 0.888733 52.6349 0.638733 52.0099 0.638733Z" fill="white"/>
</mask>
<g mask="url(#mask2_1255_29813)">
<path d="M54.2048 0.638794H44.3159V15.7916H54.2048V0.638794Z" fill="url(#paint5_linear_1255_29813)"/>
</g>
<path d="M59.1912 10.5417C58.5384 9.8889 58.2329 9.15279 58.2329 8.25001C58.2329 7.34724 58.5384 6.59724 59.1773 5.94446C59.8162 5.30557 60.5801 5.00001 61.4829 5.00001C62.3995 5.00001 63.1495 5.30557 63.7884 5.94446C64.4273 6.59724 64.7329 7.33335 64.7329 8.25001C64.7329 9.15279 64.4134 9.90279 63.7884 10.5556C63.1495 11.1945 62.3995 11.5 61.4829 11.5C60.594 11.4861 59.8301 11.1806 59.1912 10.5417ZM56.1634 2.91668C54.6912 4.3889 53.9551 6.16668 53.9551 8.25001C53.9551 10.3333 54.6912 12.125 56.1634 13.5833C57.6217 15.0556 59.4134 15.7917 61.4967 15.7917C62.5106 15.7917 63.469 15.625 64.344 15.2639C64.2051 15.5139 64.0106 15.75 63.8023 15.9722C63.2051 16.5695 62.4829 16.8889 61.6634 16.9306C61.594 16.9167 61.5106 16.9306 61.4412 16.9306C60.8717 16.9306 60.344 17.1667 59.9273 17.5833C59.5106 17.9861 59.2884 18.5556 59.2884 19.1389C59.2884 19.7222 59.5106 20.3195 59.9273 20.7361C60.344 21.1389 60.8717 21.5 61.4412 21.5H61.4967C63.5801 21.5 65.3579 20.625 66.8162 19.1528C68.2329 17.75 68.969 15.8889 69.0106 13.9583C69.0245 13.8611 69.0106 13.75 69.0106 13.6528V8.25001V7.84724V7.59724C68.844 6.05557 68.1079 4.2639 66.8301 2.98612C65.3579 1.52779 63.5801 0.722235 61.4967 0.722235C59.4134 0.708346 57.6217 1.45835 56.1634 2.91668Z" fill="url(#paint6_linear_1255_29813)"/>
<mask id="mask3_1255_29813" style="mask-type:luminance" maskUnits="userSpaceOnUse" x="53" y="0" width="17" height="22">
<path d="M59.1907 10.5419C58.5379 9.88909 58.2324 9.15298 58.2324 8.2502C58.2324 7.34742 58.5379 6.59742 59.1768 5.94464C59.8157 5.30575 60.5796 5.0002 61.4824 5.0002C62.399 5.0002 63.149 5.30575 63.7879 5.94464C64.4268 6.59742 64.7324 7.33353 64.7324 8.2502C64.7324 9.15298 64.4129 9.90297 63.7879 10.5558C63.149 11.1946 62.399 11.5002 61.4824 11.5002C60.5935 11.4863 59.8296 11.1808 59.1907 10.5419ZM56.1629 2.91686C54.6907 4.38909 53.9546 6.16686 53.9546 8.2502C53.9546 10.3335 54.6907 12.1252 56.1629 13.5835C57.6213 15.0558 59.4129 15.7919 61.4963 15.7919C62.5101 15.7919 63.4685 15.6252 64.3435 15.2641C64.2046 15.5141 64.0101 15.7502 63.8018 15.9724C63.2046 16.5696 62.4824 16.8891 61.6629 16.9308C61.5935 16.9169 61.5101 16.9308 61.4407 16.9308C60.8713 16.9308 60.3435 17.1669 59.9268 17.5835C59.5101 17.9863 59.2879 18.5558 59.2879 19.1391C59.2879 19.7224 59.5101 20.3196 59.9268 20.7363C60.3435 21.1391 60.8713 21.5002 61.4407 21.5002H61.4963C63.5796 21.5002 65.3574 20.6252 66.8157 19.153C68.2324 17.7502 68.9685 15.8891 69.0101 13.9585C69.024 13.8613 69.0101 13.7502 69.0101 13.653V8.2502V7.84742V7.59742C68.8435 6.05575 68.1074 4.26409 66.8296 2.98631C65.3574 1.52797 63.5796 0.722418 61.4963 0.722418C59.4129 0.70853 57.6213 1.45853 56.1629 2.91686Z" fill="white"/>
</mask>
<g mask="url(#mask3_1255_29813)">
<path d="M69.0101 0.708374H53.9546V21.4723H69.0101V0.708374Z" fill="url(#paint7_linear_1255_29813)"/>
</g>
<path d="M72.4549 2.91652C70.9966 4.38875 70.2466 6.16652 70.2466 8.24986C70.2466 10.3332 70.9827 12.1249 72.4549 13.5832C73.9132 15.0554 75.7049 15.7915 77.7883 15.7915C79.8716 15.7915 81.6633 15.0554 83.1355 13.5693C83.5521 13.1526 83.7744 12.6249 83.7744 12.0415C83.7744 11.4582 83.5521 10.9304 83.1355 10.5276C82.7327 10.111 82.2049 9.90264 81.6216 9.90264C81.0521 9.90264 80.5244 10.111 80.0938 10.5554C79.441 11.1804 78.7049 11.4999 77.8021 11.4999C76.8855 11.4999 76.1494 11.1804 75.4966 10.5415C74.8577 9.88875 74.5521 9.15264 74.5521 8.24986C74.5521 7.34708 74.8577 6.59708 75.4966 5.9443C76.1355 5.30541 76.8855 4.99986 77.8021 4.99986C77.8438 4.99986 77.8855 4.99986 77.9271 4.99986L76.191 6.74986C75.7883 7.15264 75.5799 7.68041 75.5799 8.26375C75.5799 8.84708 75.7882 9.37486 76.2049 9.80541C76.6216 10.2082 77.1494 10.4165 77.7327 10.4165C78.316 10.4165 78.8438 10.2082 79.2605 9.79152L83.1355 5.93041C83.5383 5.52764 83.7605 5.01375 83.7605 4.4443C83.7605 4.13875 83.691 3.83319 83.5799 3.55541L83.3438 3.16652L83.1355 2.90264C81.691 1.4443 79.8994 0.708191 77.816 0.708191C75.7188 0.708191 73.9271 1.45819 72.4549 2.91652Z" fill="url(#paint8_linear_1255_29813)"/>
<mask id="mask4_1255_29813" style="mask-type:luminance" maskUnits="userSpaceOnUse" x="70" y="0" width="14" height="16">
<path d="M72.4549 2.91671C70.9966 4.38893 70.2466 6.16671 70.2466 8.25004C70.2466 10.3334 70.9827 12.125 72.4549 13.5834C73.9132 15.0556 75.7049 15.7917 77.7883 15.7917C79.8716 15.7917 81.6633 15.0556 83.1355 13.5695C83.5521 13.1528 83.7744 12.625 83.7744 12.0417C83.7744 11.4584 83.5521 10.9306 83.1355 10.5278C82.7327 10.1112 82.2049 9.90282 81.6216 9.90282C81.0521 9.90282 80.5244 10.1112 80.0938 10.5556C79.441 11.1806 78.7049 11.5 77.8021 11.5C76.8855 11.5 76.1494 11.1806 75.4966 10.5417C74.8577 9.88893 74.5521 9.15282 74.5521 8.25004C74.5521 7.34726 74.8577 6.59726 75.4966 5.94448C76.1355 5.3056 76.8855 5.00004 77.8021 5.00004C77.8438 5.00004 77.8855 5.00004 77.9271 5.00004L76.191 6.75004C75.7883 7.15282 75.5799 7.6806 75.5799 8.26393C75.5799 8.84726 75.7882 9.37504 76.2049 9.8056C76.6216 10.2084 77.1494 10.4167 77.7327 10.4167C78.316 10.4167 78.8438 10.2084 79.2605 9.79171L83.1355 5.9306C83.5383 5.52782 83.7605 5.01393 83.7605 4.44448C83.7605 4.13893 83.691 3.83337 83.5799 3.5556L83.3438 3.16671L83.1355 2.90282C81.691 1.44449 79.8994 0.708374 77.816 0.708374C75.7188 0.708374 73.9271 1.45837 72.4549 2.91671Z" fill="white"/>
</mask>
<g mask="url(#mask4_1255_29813)">
<path d="M83.7746 0.708374H70.2607V15.7778H83.7746V0.708374Z" fill="url(#paint9_linear_1255_29813)"/>
</g>
<path d="M6.6499 20.4444C6.6499 20.9861 6.45546 21.4583 6.06657 21.8333C5.67768 22.2222 5.20546 22.4166 4.6499 22.4166C4.09435 22.4166 3.62212 22.2222 3.23324 21.8333C2.84435 21.4444 2.6499 20.9722 2.6499 20.4166C2.6499 19.8611 2.84435 19.3888 3.23324 18.9999C3.62212 18.6111 4.09435 18.4166 4.6499 18.4166C5.09435 18.4166 5.48324 18.5416 5.83046 18.8055V17.6388C5.83046 17.5277 5.87212 17.4305 5.95546 17.3472C6.03879 17.2638 6.13601 17.2222 6.24712 17.2222C6.35824 17.2222 6.45546 17.2638 6.53879 17.3472C6.62212 17.4305 6.66379 17.5277 6.66379 17.6388V20.4444H6.6499ZM5.84435 20.5138C5.84435 20.4861 5.84435 20.4722 5.84435 20.4444V20.2777C5.81657 20.0138 5.70546 19.7777 5.49712 19.5833C5.26101 19.3472 4.98324 19.2361 4.6499 19.2361C4.31657 19.2361 4.03879 19.3472 3.81657 19.5833C3.58046 19.8194 3.46935 20.0972 3.46935 20.4305C3.46935 20.7638 3.58046 21.0416 3.81657 21.2638C4.05268 21.4999 4.33046 21.6111 4.6499 21.6111C4.96935 21.6111 5.26101 21.4999 5.49712 21.2638C5.70546 21.0555 5.83046 20.8055 5.84435 20.5138Z" fill="#838383"/>
<path d="M7.8859 18.2221C7.77479 18.2221 7.67757 18.1804 7.59424 18.111C7.51091 18.0277 7.46924 17.9443 7.46924 17.8332C7.46924 17.7221 7.51091 17.6388 7.59424 17.5554C7.67757 17.4721 7.77479 17.4443 7.8859 17.4443C7.99702 17.4443 8.09424 17.486 8.17757 17.5554C8.26091 17.6249 8.30257 17.7221 8.30257 17.8332C8.30257 17.9443 8.26091 18.0277 8.17757 18.111C8.08035 18.1943 7.99702 18.2221 7.8859 18.2221ZM7.8859 22.4166C7.77479 22.4166 7.67757 22.3749 7.59424 22.3054C7.51091 22.2221 7.46924 22.1388 7.46924 22.0277V18.9721C7.46924 18.861 7.51091 18.7777 7.59424 18.6943C7.67757 18.611 7.77479 18.5832 7.8859 18.5832C7.99702 18.5832 8.09424 18.6249 8.17757 18.6943C8.26091 18.7638 8.30257 18.861 8.30257 18.9721V22.0277C8.30257 22.1388 8.26091 22.2221 8.17757 22.3054C8.08035 22.3888 7.99702 22.4166 7.8859 22.4166Z" fill="#838383"/>
<path d="M12.2611 22.0415C11.9139 22.2915 11.525 22.4304 11.0806 22.4304C10.525 22.4304 10.0528 22.236 9.6639 21.8471C9.27501 21.4582 9.08057 20.986 9.08057 20.4304C9.08057 19.8749 9.27501 19.4026 9.6639 19.0138C10.0528 18.6249 10.525 18.4304 11.0806 18.4304C11.6361 18.4304 12.1083 18.6249 12.4972 19.0138C12.8861 19.4026 13.0806 19.8749 13.0806 20.4165V22.0138C13.0806 22.0415 13.0806 22.0554 13.0806 22.0832C13.0667 22.611 12.8722 23.0693 12.4972 23.4443C12.1083 23.8332 11.6361 24.0276 11.0806 24.0276H11.0667C10.9556 24.0276 10.8583 23.986 10.775 23.9026C10.6917 23.8193 10.65 23.7221 10.65 23.611C10.65 23.4999 10.6917 23.4026 10.775 23.3193C10.8583 23.236 10.9556 23.1943 11.0667 23.1943C11.0806 23.1943 11.1083 23.1943 11.1222 23.1943C11.4278 23.1804 11.7056 23.0693 11.9278 22.8471C12.1361 22.6388 12.2611 22.361 12.2611 22.0415ZM11.0806 19.236C10.7472 19.236 10.4695 19.3471 10.2333 19.5832C9.99723 19.8193 9.88612 20.0971 9.88612 20.4165C9.88612 20.7499 9.99723 21.0276 10.2333 21.2638C10.4695 21.4999 10.7472 21.611 11.0806 21.611C11.4139 21.611 11.6917 21.4999 11.9139 21.2638C12.15 21.0276 12.2611 20.7499 12.2611 20.4165C12.2611 20.0832 12.15 19.8054 11.9139 19.5832C11.6778 19.3471 11.4 19.236 11.0806 19.236Z" fill="#838383"/>
<path d="M14.3029 18.0277C14.1918 18.0277 14.0946 17.986 14.0112 17.9027C13.9279 17.8193 13.8862 17.7221 13.8862 17.611C13.8862 17.4999 13.9279 17.4027 14.0112 17.3193C14.0946 17.236 14.1918 17.1943 14.3029 17.1943C14.414 17.1943 14.5112 17.236 14.5946 17.3193C14.6779 17.4027 14.7196 17.4999 14.7196 17.611C14.7196 17.7221 14.6779 17.8193 14.5946 17.9027C14.5112 17.986 14.414 18.0277 14.3029 18.0277ZM14.3029 22.4166C14.1918 22.4166 14.0946 22.3749 14.0112 22.2916C13.9279 22.2082 13.8862 22.111 13.8862 21.9999V18.7916C13.8862 18.6804 13.9279 18.5832 14.0112 18.4999C14.0946 18.4166 14.1918 18.3749 14.3029 18.3749C14.414 18.3749 14.5112 18.4166 14.5946 18.4999C14.6779 18.5832 14.7196 18.6804 14.7196 18.7916V21.9999C14.7196 22.111 14.6779 22.2082 14.5946 22.2916C14.5112 22.3888 14.414 22.4166 14.3029 22.4166Z" fill="#838383"/>
<path d="M16.4414 18.4166V17.6527C16.4414 17.5416 16.4831 17.4444 16.5664 17.361C16.6497 17.2777 16.747 17.236 16.8581 17.236C16.9692 17.236 17.0664 17.2777 17.1497 17.361C17.2331 17.4444 17.2747 17.5416 17.2747 17.6527V18.4166H17.7192C17.8303 18.4166 17.9275 18.4582 18.0109 18.5416C18.0942 18.6249 18.1359 18.7221 18.1359 18.8332C18.1359 18.9444 18.0942 19.0416 18.0109 19.1249C17.9275 19.2082 17.8303 19.2499 17.7192 19.2499H17.2747V22.0416C17.2747 22.1527 17.2331 22.2499 17.1497 22.3332C17.0664 22.4166 16.9692 22.4582 16.8581 22.4582C16.747 22.4582 16.6497 22.4166 16.5664 22.3332C16.4831 22.2499 16.4414 22.1527 16.4414 22.0416V19.2499H15.9831C15.872 19.2499 15.7747 19.2082 15.6914 19.1249C15.6081 19.0416 15.5664 18.9444 15.5664 18.8332C15.5664 18.7221 15.6081 18.6249 15.6914 18.5416C15.7747 18.4582 15.872 18.4166 15.9831 18.4166H16.4414Z" fill="#838383"/>
<path d="M22.261 22.0277C22.261 22.1805 22.2193 22.2916 22.136 22.3332C22.0526 22.3888 21.9554 22.4166 21.8443 22.4166C21.7332 22.4166 21.636 22.3888 21.5526 22.3332C21.4693 22.2777 21.4276 22.1805 21.4276 22.0277C21.0804 22.2777 20.6915 22.4166 20.2471 22.4166C19.6915 22.4166 19.2193 22.2221 18.8304 21.8332C18.4415 21.4443 18.2471 20.9721 18.2471 20.4166C18.2471 19.861 18.4415 19.3888 18.8304 18.9999C19.2193 18.611 19.6915 18.4166 20.2471 18.4166C20.8026 18.4166 21.2748 18.611 21.6637 18.9999C22.0526 19.3888 22.2471 19.8471 22.2471 20.3888V22.0277H22.261ZM21.1082 19.5832C20.8721 19.3471 20.5943 19.236 20.261 19.236C19.9276 19.236 19.6498 19.3471 19.4276 19.5832C19.1915 19.8193 19.0804 20.0971 19.0804 20.4166C19.0804 20.7499 19.1915 21.0277 19.4276 21.2638C19.6637 21.4999 19.9415 21.611 20.261 21.611C20.5804 21.611 20.8721 21.4999 21.1082 21.2638C21.3026 21.0693 21.4137 20.8332 21.4554 20.5693V20.4166C21.4554 20.3888 21.4554 20.3749 21.4554 20.3471C21.4415 20.0416 21.3304 19.7916 21.1082 19.5832Z" fill="#838383"/>
<path d="M23.7747 17.361C23.8581 17.4444 23.8997 17.5416 23.8997 17.6527V22.0138C23.8997 22.1249 23.8581 22.2221 23.7747 22.3055C23.6914 22.3888 23.5942 22.4305 23.4831 22.4305C23.372 22.4305 23.2747 22.3888 23.1914 22.3055C23.1081 22.2221 23.0664 22.1249 23.0664 22.0138V17.6527C23.0664 17.5416 23.1081 17.4444 23.1914 17.361C23.2747 17.2777 23.372 17.236 23.4831 17.236C23.6081 17.236 23.7053 17.2777 23.7747 17.361Z" fill="#838383"/>
<path d="M31.0803 22.0277C31.0803 22.1805 31.0386 22.2916 30.9553 22.3332C30.872 22.3749 30.7747 22.4166 30.6636 22.4166C30.5525 22.4166 30.4553 22.3888 30.372 22.3332C30.2886 22.2777 30.247 22.1805 30.247 22.0277C29.8997 22.2777 29.5109 22.4166 29.0664 22.4166C28.5109 22.4166 28.0386 22.2221 27.6497 21.8332C27.2609 21.4443 27.0664 20.9721 27.0664 20.4166C27.0664 19.861 27.2609 19.3888 27.6497 18.9999C28.0386 18.611 28.5109 18.4166 29.0664 18.4166C29.622 18.4166 30.0942 18.611 30.4831 18.9999C30.872 19.3888 31.0664 19.8471 31.0664 20.3888V22.0277H31.0803ZM29.9275 19.5832C29.6914 19.3471 29.4136 19.236 29.0803 19.236C28.747 19.236 28.4692 19.3471 28.247 19.5832C28.0247 19.8193 27.8997 20.0971 27.8997 20.4166C27.8997 20.7499 28.0109 21.0277 28.247 21.2638C28.4831 21.4999 28.7609 21.611 29.0803 21.611C29.4136 21.611 29.6914 21.4999 29.9275 21.2638C30.122 21.0693 30.2331 20.8332 30.2747 20.5693V20.4166C30.2747 20.3888 30.2747 20.3749 30.2747 20.3471C30.247 20.0416 30.1359 19.7916 29.9275 19.5832Z" fill="#838383"/>
<path d="M35.0805 22.0415C34.7332 22.2915 34.3443 22.4304 33.8999 22.4304C33.3443 22.4304 32.8721 22.236 32.4832 21.8471C32.0943 21.4582 31.8999 20.986 31.8999 20.4304C31.8999 19.8749 32.0943 19.4026 32.4832 19.0138C32.8721 18.6249 33.3443 18.4304 33.8999 18.4304C34.4555 18.4304 34.9277 18.6249 35.3166 19.0138C35.7055 19.4026 35.8999 19.8749 35.8999 20.4165V22.0138C35.8999 22.0415 35.8999 22.0554 35.8999 22.0832C35.886 22.611 35.6916 23.0693 35.3166 23.4443C34.9277 23.8332 34.4555 24.0276 33.8999 24.0276H33.886C33.7749 24.0276 33.6777 23.986 33.5943 23.9026C33.511 23.8193 33.4693 23.7221 33.4693 23.611C33.4693 23.4999 33.511 23.4026 33.5943 23.3193C33.6777 23.236 33.7749 23.1943 33.886 23.1943C33.8999 23.1943 33.9277 23.1943 33.9416 23.1943C34.2471 23.1804 34.5249 23.0693 34.7471 22.8471C34.9555 22.6388 35.0805 22.361 35.0805 22.0415ZM33.8999 19.236C33.5666 19.236 33.2888 19.3471 33.0527 19.5832C32.8166 19.8193 32.7055 20.0971 32.7055 20.4165C32.7055 20.7499 32.8166 21.0276 33.0527 21.2638C33.2888 21.4999 33.5666 21.611 33.8999 21.611C34.2332 21.611 34.511 21.4999 34.7332 21.2638C34.9693 21.0276 35.0805 20.7499 35.0805 20.4165C35.0805 20.0832 34.9693 19.8054 34.7332 19.5832C34.4971 19.3471 34.2193 19.236 33.8999 19.236Z" fill="#838383"/>
<path d="M39.1917 19.3332C39.0389 19.2638 38.8861 19.236 38.7056 19.236C38.3722 19.236 38.0945 19.3471 37.8583 19.5832C37.6222 19.8193 37.5111 20.0971 37.5111 20.4166C37.5111 20.7499 37.6222 21.0277 37.8583 21.2638C38.0945 21.4999 38.3722 21.611 38.7056 21.611C39.025 21.611 39.3167 21.4999 39.5389 21.2638C39.5389 21.2638 39.5389 21.2638 39.5528 21.2499C39.6361 21.1666 39.7195 21.1388 39.8306 21.1388C39.9417 21.1388 40.0389 21.1804 40.1222 21.2638C40.2056 21.3471 40.2472 21.4443 40.2472 21.5554C40.2472 21.6666 40.2056 21.7638 40.1222 21.8471C40.1222 21.8471 40.1222 21.8471 40.1083 21.861C39.7195 22.2499 39.2472 22.4443 38.7056 22.4443C38.1639 22.4443 37.6778 22.2499 37.2889 21.861C36.9 21.4721 36.7056 20.9999 36.7056 20.4443C36.7056 19.8888 36.9 19.4166 37.2889 19.0277C37.6778 18.6388 38.15 18.4443 38.7056 18.4443C39.2611 18.4443 39.7333 18.6388 40.1083 19.0277C40.1917 19.111 40.2195 19.1943 40.2195 19.3054C40.2195 19.4166 40.1778 19.5138 40.1083 19.5832L38.9695 20.7221C38.8861 20.8054 38.7889 20.8332 38.6778 20.8332C38.5667 20.8332 38.4695 20.7916 38.3861 20.7221C38.3028 20.6388 38.275 20.5416 38.275 20.4304C38.275 20.3193 38.3167 20.2221 38.3861 20.1388L39.1917 19.3332Z" fill="#838383"/>
<path d="M43.1363 18.4166C43.7057 18.4443 44.1641 18.6527 44.5252 19.0138C44.9141 19.4027 45.1085 19.861 45.1085 20.4027V21.9443C45.1085 22.0971 45.0668 22.2221 44.9835 22.2916C44.9002 22.3749 44.803 22.4166 44.6918 22.4166C44.5807 22.4166 44.4835 22.3749 44.4002 22.2916C44.3168 22.2082 44.2752 22.0971 44.2752 21.9443V20.4166C44.2752 20.3888 44.2752 20.3749 44.2752 20.3471C44.2613 20.0555 44.1502 19.8055 43.928 19.5832C43.6918 19.3471 43.4141 19.236 43.0807 19.236H43.0668C42.7335 19.236 42.4557 19.3471 42.2196 19.5832C42.0113 19.7916 41.8863 20.0416 41.8724 20.3471C41.8724 20.3749 41.8724 20.3888 41.8724 20.4166V21.9582C41.8724 22.111 41.8307 22.2221 41.7474 22.3055C41.6641 22.3888 41.5668 22.4305 41.4557 22.4305C41.3446 22.4305 41.2474 22.3888 41.1641 22.3055C41.0807 22.2221 41.0391 22.111 41.0391 21.9582V20.4166C41.0391 19.8749 41.2335 19.4027 41.6224 19.0277C41.9835 18.6666 42.4418 18.4721 43.0113 18.4305H43.1363V18.4166Z" fill="#838383"/>
<path d="M49.3166 19.0138C49.4 19.0971 49.4416 19.1943 49.4416 19.3054C49.4416 19.4166 49.4 19.5138 49.3166 19.5832C49.2333 19.6666 49.15 19.7082 49.0388 19.7082C48.9277 19.7082 48.8305 19.6666 48.7611 19.5832C48.525 19.3471 48.2472 19.236 47.9277 19.236C47.5944 19.236 47.3166 19.3471 47.0805 19.5832C46.8444 19.8193 46.7333 20.0971 46.7333 20.4166C46.7333 20.7499 46.8444 21.0277 47.0805 21.2638C47.3166 21.4999 47.5944 21.611 47.9277 21.611C48.2472 21.611 48.5388 21.4999 48.7611 21.2638C48.7611 21.2638 48.7611 21.2638 48.775 21.2499C48.8583 21.1666 48.9416 21.1388 49.0527 21.1388C49.1638 21.1388 49.2611 21.1804 49.3444 21.2638C49.4277 21.3471 49.4694 21.4443 49.4694 21.5554C49.4694 21.6666 49.4277 21.7638 49.3444 21.8471C49.3444 21.8471 49.3444 21.8471 49.3305 21.861C48.9416 22.2499 48.4694 22.4443 47.9277 22.4443C47.3861 22.4443 46.9 22.2499 46.5111 21.861C46.1222 21.4721 45.9277 20.9999 45.9277 20.4443C45.9277 19.8888 46.1222 19.4166 46.5111 19.0277C46.9 18.6388 47.3722 18.4443 47.9277 18.4443C48.4833 18.4443 48.9416 18.6249 49.3166 19.0138Z" fill="#838383"/>
<path d="M50.1774 19.0138C50.1496 18.9582 50.1357 18.8888 50.1357 18.8193C50.1357 18.7082 50.1774 18.611 50.2469 18.5415C50.3302 18.4582 50.4135 18.4304 50.5246 18.4304C50.6357 18.4304 50.733 18.4721 50.8024 18.5415C50.8441 18.5832 50.8719 18.6388 50.8996 18.6943L52.1219 21.1388L53.3441 18.6943C53.358 18.6388 53.3996 18.5971 53.4413 18.5415C53.5246 18.4582 53.608 18.4304 53.7191 18.4304C53.8302 18.4304 53.9274 18.4721 53.9969 18.5415C54.0802 18.6249 54.1219 18.7082 54.1219 18.8193C54.1219 18.8888 54.108 18.9443 54.0802 18.9999L51.7191 23.7499C51.6913 23.8054 51.6496 23.8471 51.608 23.9026C51.5246 23.986 51.4274 24.0276 51.3302 24.0276C51.2191 24.0276 51.1219 23.986 51.0524 23.9026C50.9691 23.8193 50.9413 23.736 50.9413 23.6249C50.9413 23.5415 50.9552 23.4582 50.9969 23.3888L51.6913 22.0138L50.1774 19.0138Z" fill="#838383"/>
</g>
<defs>
<linearGradient id="paint0_linear_1255_29813" x1="15.3857" y1="0.688355" x2="15.3857" y2="15.7886" gradientUnits="userSpaceOnUse">
<stop offset="0.00537634" stop-color="#70B2E2"/>
<stop offset="0.1941" stop-color="#6EAFE0"/>
<stop offset="0.4028" stop-color="#68A5DA"/>
<stop offset="0.6211" stop-color="#5E96CF"/>
<stop offset="0.8444" stop-color="#5282C2"/>
<stop offset="1" stop-color="#4772B8"/>
</linearGradient>
<linearGradient id="paint1_linear_1255_29813" x1="15.3857" y1="0.688477" x2="15.3857" y2="15.7888" gradientUnits="userSpaceOnUse">
<stop offset="0.00537634" stop-color="#70B2E2"/>
<stop offset="0.1941" stop-color="#6EAFE0"/>
<stop offset="0.4028" stop-color="#68A5DA"/>
<stop offset="0.6211" stop-color="#5E96CF"/>
<stop offset="0.8444" stop-color="#5282C2"/>
<stop offset="1" stop-color="#4772B8"/>
</linearGradient>
<linearGradient id="paint2_linear_1255_29813" x1="36.3755" y1="0.714988" x2="36.3755" y2="15.7886" gradientUnits="userSpaceOnUse">
<stop offset="0.00537634" stop-color="#70B2E2"/>
<stop offset="0.1793" stop-color="#6DAEDF"/>
<stop offset="0.4028" stop-color="#66A3D8"/>
<stop offset="0.6533" stop-color="#5B90CC"/>
<stop offset="0.9217" stop-color="#4C79BD"/>
<stop offset="1" stop-color="#4772B8"/>
</linearGradient>
<linearGradient id="paint3_linear_1255_29813" x1="36.3753" y1="0.715077" x2="36.3753" y2="15.7887" gradientUnits="userSpaceOnUse">
<stop offset="0.00537634" stop-color="#70B2E2"/>
<stop offset="0.1793" stop-color="#6DAEDF"/>
<stop offset="0.4028" stop-color="#66A3D8"/>
<stop offset="0.6533" stop-color="#5B90CC"/>
<stop offset="0.9217" stop-color="#4C79BD"/>
<stop offset="1" stop-color="#4772B8"/>
</linearGradient>
<linearGradient id="paint4_linear_1255_29813" x1="49.2576" y1="0.639822" x2="49.2576" y2="15.7886" gradientUnits="userSpaceOnUse">
<stop offset="0.00537634" stop-color="#70B2E2"/>
<stop offset="0.1793" stop-color="#6DAEDF"/>
<stop offset="0.4028" stop-color="#66A3D8"/>
<stop offset="0.6533" stop-color="#5B90CC"/>
<stop offset="0.9217" stop-color="#4C79BD"/>
<stop offset="1" stop-color="#4772B8"/>
</linearGradient>
<linearGradient id="paint5_linear_1255_29813" x1="49.2576" y1="0.639822" x2="49.2576" y2="15.7886" gradientUnits="userSpaceOnUse">
<stop offset="0.00537634" stop-color="#70B2E2"/>
<stop offset="0.1793" stop-color="#6DAEDF"/>
<stop offset="0.4028" stop-color="#66A3D8"/>
<stop offset="0.6533" stop-color="#5B90CC"/>
<stop offset="0.9217" stop-color="#4C79BD"/>
<stop offset="1" stop-color="#4772B8"/>
</linearGradient>
<linearGradient id="paint6_linear_1255_29813" x1="61.4809" y1="0.71511" x2="61.4809" y2="21.4732" gradientUnits="userSpaceOnUse">
<stop offset="0.00537634" stop-color="#70B2E2"/>
<stop offset="0.1793" stop-color="#6DAEDF"/>
<stop offset="0.4028" stop-color="#66A3D8"/>
<stop offset="0.6533" stop-color="#5B90CC"/>
<stop offset="0.9217" stop-color="#4C79BD"/>
<stop offset="1" stop-color="#4772B8"/>
</linearGradient>
<linearGradient id="paint7_linear_1255_29813" x1="61.4831" y1="0.715138" x2="61.4831" y2="21.4733" gradientUnits="userSpaceOnUse">
<stop offset="0.00537634" stop-color="#70B2E2"/>
<stop offset="0.1793" stop-color="#6DAEDF"/>
<stop offset="0.4028" stop-color="#66A3D8"/>
<stop offset="0.6533" stop-color="#5B90CC"/>
<stop offset="0.9217" stop-color="#4C79BD"/>
<stop offset="1" stop-color="#4772B8"/>
</linearGradient>
<linearGradient id="paint8_linear_1255_29813" x1="77.0116" y1="0.714955" x2="77.0116" y2="15.7885" gradientUnits="userSpaceOnUse">
<stop offset="0.00537634" stop-color="#70B2E2"/>
<stop offset="0.1793" stop-color="#6DAEDF"/>
<stop offset="0.4028" stop-color="#66A3D8"/>
<stop offset="0.6533" stop-color="#5B90CC"/>
<stop offset="0.9217" stop-color="#4C79BD"/>
<stop offset="1" stop-color="#4772B8"/>
</linearGradient>
<linearGradient id="paint9_linear_1255_29813" x1="77.0119" y1="0.715138" x2="77.0119" y2="15.7887" gradientUnits="userSpaceOnUse">
<stop offset="0.00537634" stop-color="#70B2E2"/>
<stop offset="0.1793" stop-color="#6DAEDF"/>
<stop offset="0.4028" stop-color="#66A3D8"/>
<stop offset="0.6533" stop-color="#5B90CC"/>
<stop offset="0.9217" stop-color="#4C79BD"/>
<stop offset="1" stop-color="#4772B8"/>
</linearGradient>
<clipPath id="clip0_1255_29813">
<rect width="85.1389" height="25" fill="white" transform="translate(0.441406)"/>
</clipPath>
</defs>
</svg>
