<svg width="95" height="25" viewBox="0 0 95 25" fill="none" xmlns="http://www.w3.org/2000/svg">
<path d="M20.9562 0.0522461C18.674 0.130046 16.5216 0.972883 14.9007 2.43811C13.241 0.94695 11.0367 0.104113 8.70267 0.0522461H8.52114C6.23901 0.104113 4.07358 0.972883 2.45275 2.43811C1.64882 3.15128 1.01345 4.02004 0.598521 4.97958C0.170621 5.93911 -0.0238795 6.9505 0.0150204 7.97487V13.5376C-0.0238795 13.8488 0.01502 14.1859 0.105787 14.4971C0.196553 14.8083 0.365121 15.1065 0.598521 15.3399C0.805987 15.5474 1.03939 15.69 1.29872 15.7938C1.57102 15.9105 1.85628 15.9623 2.14155 15.9623C2.45275 15.9623 2.78988 15.9105 3.07515 15.7938C3.37338 15.6771 3.63271 15.4955 3.85315 15.301C4.11248 15.0676 4.29401 14.8083 4.43665 14.4971C4.56631 14.1989 4.64411 13.8747 4.61818 13.5635V7.75444C4.74785 6.95051 5.17574 6.2114 5.85001 5.65384C6.20011 5.3167 6.62801 5.08331 7.08184 4.90178C7.53568 4.73321 8.04138 4.64244 8.53411 4.64244C9.02684 4.64244 9.54551 4.72025 10.0123 4.90178C10.4661 5.08331 10.894 5.34264 11.2441 5.67978C11.9443 6.21141 12.3722 6.96347 12.463 7.79334V13.5765C12.4241 13.8877 12.463 14.1989 12.5927 14.4971C12.7094 14.7953 12.8909 15.0676 13.1243 15.2881C13.3318 15.5085 13.5781 15.6771 13.8634 15.7808C14.1357 15.8975 14.4469 15.9623 14.7711 15.9494C15.0823 15.9494 15.4194 15.8975 15.7047 15.7808C16.0029 15.6641 16.2622 15.4826 16.4827 15.2881C16.9624 14.8342 17.2218 14.1989 17.1958 13.5765V7.76741C17.3255 6.96347 17.7664 6.19844 18.4536 5.66681C19.1668 5.01847 20.1652 4.65541 21.1766 4.65541C22.188 4.65541 23.1864 5.01847 23.8996 5.66681C24.5609 6.22437 24.9628 6.98941 25.0277 7.80631V13.5894C25.0147 13.9266 25.0406 14.2378 25.1703 14.549C25.3 14.8602 25.4815 15.1325 25.7279 15.3788C25.9483 15.5993 26.2076 15.7678 26.5059 15.8716C26.8041 15.9883 27.1153 16.0531 27.4395 16.0401C27.7377 16.0401 28.023 15.9623 28.3082 15.8586C28.5805 15.7419 28.8269 15.5863 29.0084 15.3659C29.2289 15.1065 29.3974 14.8342 29.4882 14.523C29.579 14.2118 29.6179 13.9006 29.566 13.5894V8.02674C29.6049 7.01534 29.4234 6.00394 29.0084 5.04441C28.6065 4.08488 27.9841 3.22907 27.2061 2.50294C25.663 1.05068 23.5624 0.20785 21.3322 0.117083H20.9821L20.9562 0.0522461Z" fill="url(#paint0_linear_3177_59333)"/>
<path d="M33.8316 2.45071C33.0017 3.1898 32.3534 4.04559 31.9125 5.00513C31.4717 5.96466 31.2512 6.98903 31.2642 8.03933C31.2642 9.06369 31.4717 10.101 31.9125 11.0735C32.3534 12.033 33.0017 12.8888 33.8316 13.6279C34.6355 14.367 35.621 14.9505 36.6713 15.3525C37.7346 15.7545 38.8756 15.9619 40.0167 15.9619C41.1578 15.9619 42.3118 15.7545 43.3621 15.3525C44.4254 14.9505 45.3849 14.3541 46.2018 13.6279C46.4352 13.4205 46.6297 13.1741 46.7594 12.8888C46.889 12.6165 46.9668 12.3183 46.9668 12.0201C46.9668 11.7219 46.915 11.4366 46.7853 11.1513C46.6556 10.8661 46.4741 10.6327 46.2277 10.4122C46.0073 10.2048 45.735 10.0492 45.4368 9.93246C45.1385 9.81576 44.8144 9.76389 44.5032 9.76389C44.166 9.76389 43.8419 9.81576 43.5307 9.93246C43.2195 10.0492 42.9472 10.2307 42.7008 10.4252C42.3507 10.7623 41.9487 11.0087 41.4819 11.1773C41.0281 11.3458 40.5224 11.4366 40.0297 11.4366C39.5369 11.4366 39.0312 11.3458 38.5904 11.1773C38.1365 11.0087 37.7216 10.7494 37.3715 10.4252C37.0084 10.114 36.7102 9.73796 36.5027 9.33599C36.2953 8.90809 36.1915 8.46722 36.1915 8.02636C36.1915 7.58549 36.2693 7.1187 36.4638 6.70376C36.6454 6.27586 36.9436 5.91279 37.2937 5.60159C37.6438 5.26446 38.0458 5.0181 38.5126 4.84953C38.9664 4.68097 39.4721 4.59019 39.9648 4.59019H40.1075L38.0847 6.52223C37.8513 6.7297 37.6568 6.97606 37.553 7.23539C37.4234 7.50769 37.3715 7.80592 37.3715 8.10415C37.3715 8.71359 37.6308 9.28412 38.1106 9.69906C38.5904 10.127 39.2128 10.3604 39.9 10.3604C40.2371 10.3604 40.5872 10.3085 40.8984 10.1788C41.2096 10.0492 41.4819 9.88059 41.7283 9.64719L46.2407 5.60159C46.4611 5.38116 46.6297 5.14776 46.7334 4.86249C46.8501 4.59019 46.902 4.29196 46.8761 3.99373C46.8761 3.68253 46.7983 3.37133 46.6556 3.0731L46.513 2.81377L46.1499 2.38587C45.3719 1.6338 44.4254 1.03734 43.3751 0.622403C42.3248 0.220437 41.2096 0 40.0686 0C38.9275 0 37.7735 0.181539 36.6972 0.583505C35.634 0.985471 34.6744 1.58194 33.8575 2.30807" fill="url(#paint1_linear_3177_59333)"/>
<path d="M57.2878 0.0649414C54.9668 0.0779081 52.7365 0.933709 51.1027 2.43784C50.2599 3.13804 49.5597 4.0068 49.0929 4.95336C48.6131 5.9129 48.3538 6.93727 48.3408 7.98756V13.5503C48.3408 13.8874 48.4186 14.2375 48.5613 14.5228C48.7039 14.834 48.9243 15.1063 49.1837 15.3526C49.6764 15.7935 50.3377 16.0399 51.0379 16.0399C51.388 16.0399 51.7251 15.988 52.0363 15.8713C52.3475 15.7546 52.6457 15.573 52.8791 15.3785C53.1385 15.1452 53.3589 14.8599 53.4886 14.5487C53.6312 14.2375 53.696 13.9004 53.696 13.5762V7.79306C53.696 7.01506 54.0332 6.263 54.6167 5.69247C54.9668 5.35534 55.3947 5.10897 55.8485 4.9404C56.3023 4.77184 56.808 4.68107 57.3267 4.707C57.6638 4.707 57.988 4.6292 58.2862 4.49953C58.5845 4.36987 58.8568 4.18834 59.0772 3.96791C59.3106 3.76044 59.5051 3.51407 59.6348 3.22881C59.7644 2.94354 59.8163 2.65827 59.8163 2.34707C59.8163 2.04884 59.7644 1.76358 59.6348 1.47831C59.5051 1.19304 59.3236 0.959636 59.0772 0.739203C58.8438 0.51877 58.5585 0.350207 58.2473 0.246474C57.9361 0.142741 57.599 0.0779065 57.2748 0.10384V0.0649414H57.2878Z" fill="url(#paint2_linear_3177_59333)"/>
<path d="M65.6003 10.4514C65.2502 10.1402 64.952 9.76416 64.7704 9.34922C64.5889 8.94726 64.4722 8.48046 64.4981 8.03959C64.4981 7.58576 64.5759 7.13192 64.7704 6.71699C64.952 6.28909 65.2502 5.92602 65.6003 5.61482C65.9504 5.30362 66.3783 5.04429 66.8321 4.87572C67.286 4.70716 67.7917 4.6164 68.2844 4.6164C68.7771 4.6164 69.2828 4.70716 69.7367 4.87572C70.1905 5.04429 70.6184 5.30362 70.9685 5.61482C71.3186 5.92602 71.5909 6.31502 71.7724 6.71699C71.954 7.14489 72.0447 7.58575 72.0447 8.02662C72.0447 8.46749 71.954 8.90835 71.7724 9.33625C71.5909 9.73822 71.3186 10.1272 70.9685 10.4384C70.2553 11.0608 69.2958 11.4109 68.2974 11.4109C67.2989 11.4109 66.3524 11.0608 65.6262 10.4384H65.5873L65.6003 10.4514ZM62.0863 2.45097C61.2824 3.19007 60.647 4.0718 60.2321 5.03133C59.8042 5.99086 59.6097 7.01522 59.6227 8.06552C59.6097 9.08988 59.8301 10.1402 60.271 11.0997C60.7119 12.0593 61.3602 12.9151 62.1901 13.6542C62.994 14.4062 63.9535 15.0027 65.0298 15.4046C66.093 15.8066 67.2341 16.0141 68.4011 15.9881C69.5033 15.9881 70.5925 15.8455 71.6168 15.4954C71.4353 15.7677 71.2278 16.0141 70.9685 16.2345C70.3202 16.8439 69.4384 17.207 68.5048 17.2459H68.1547C67.8176 17.2459 67.5064 17.2978 67.1952 17.4274C66.897 17.5441 66.6247 17.7257 66.4042 17.9461C66.1708 18.1536 65.9763 18.3999 65.8467 18.6852C65.717 18.9705 65.6651 19.2557 65.6651 19.5669C65.704 20.1764 65.9634 20.7469 66.4172 21.1878C66.871 21.6286 67.4805 21.9009 68.1418 21.9658C69.3347 21.9787 70.5147 21.7842 71.6168 21.3563C72.719 20.9284 73.7174 20.306 74.5214 19.5151C76.1163 18.0628 77.0239 16.1048 77.0758 14.0691V7.39126C76.8424 5.57593 75.9347 3.87729 74.5214 2.55469C73.7174 1.81559 72.7579 1.2321 71.6817 0.830137C70.6184 0.428171 69.4773 0.220703 68.3363 0.220703C67.1952 0.220703 66.0541 0.428171 64.9909 0.830137C63.9276 1.2321 62.9681 1.82856 62.1512 2.55469" fill="url(#paint3_linear_3177_59333)"/>
<path d="M80.9134 2.45091C80.0835 3.19001 79.4352 4.0458 78.9943 5.00533C78.5535 5.96486 78.333 6.98923 78.346 8.03953C78.333 9.06389 78.5535 10.1142 78.9943 11.0737C79.4352 12.0332 80.0835 12.8891 80.9134 13.6281C81.7173 14.3672 82.7028 14.9507 83.7531 15.3527C84.8164 15.7547 85.9574 15.9621 87.0985 15.9621C88.2396 15.9621 89.3936 15.7547 90.4439 15.3527C91.5071 14.9507 92.4667 14.3543 93.2836 13.6281C93.517 13.4207 93.7115 13.1743 93.8411 12.8891C93.9708 12.6168 94.0486 12.3185 94.0486 12.0203C94.0486 11.7221 93.9967 11.4368 93.8671 11.1515C93.7374 10.8663 93.5559 10.6329 93.3095 10.4124C92.8557 9.98453 92.2203 9.76409 91.559 9.75112C91.2219 9.75112 90.8977 9.80299 90.5995 9.93266C90.3012 10.0494 90.0289 10.205 89.7956 10.4254C89.1343 11.0348 88.2525 11.3979 87.306 11.4238C86.8132 11.4238 86.3075 11.346 85.8537 11.1645C85.3999 10.9959 84.972 10.7366 84.6219 10.4124C84.2718 10.1012 83.9995 9.72519 83.8179 9.31025C83.6364 8.90829 83.5456 8.44149 83.5456 8.00063C83.5456 7.55976 83.6364 7.09296 83.8179 6.691C83.9995 6.2631 84.2718 5.90003 84.6219 5.56289C84.972 5.22576 85.3999 4.99236 85.8537 4.8238C86.3075 4.65523 86.8132 4.56447 87.306 4.56447L85.2832 6.49649C84.8293 6.92439 84.583 7.49493 84.583 8.07843C84.583 8.51929 84.7256 8.96016 85.0109 9.32322C85.2832 9.68629 85.6722 9.98452 86.139 10.1531C86.5928 10.3217 87.0985 10.3735 87.5783 10.2957C88.058 10.2179 88.4989 9.99749 88.8619 9.68629L93.3354 5.6407C93.5688 5.43323 93.7633 5.19983 93.893 4.92753C94.0227 4.65523 94.1005 4.357 94.0745 4.05877C94.0745 3.74757 93.9967 3.43637 93.8541 3.13814L93.7115 2.65837L93.4521 2.38607C92.6612 1.634 91.7276 1.02457 90.6514 0.622605C89.6011 0.220639 88.46 0.000204063 87.306 0.0131707C86.113 -0.0257292 84.9331 0.181743 83.8309 0.596676C82.7287 1.02457 81.7303 1.62104 80.9264 2.39904H80.9393L80.9134 2.45091Z" fill="url(#paint4_linear_3177_59333)"/>
<path d="M3.99524 18.1797V23.3663H3.34691V22.7569C3.21725 22.9773 3.00978 23.1459 2.77638 23.2756C2.54298 23.4052 2.28365 23.4571 1.99838 23.4571C1.76498 23.4571 1.51862 23.3793 1.29818 23.2885C1.07775 23.1978 0.870282 23.0551 0.727649 22.8866C0.585016 22.718 0.455349 22.5235 0.377549 22.3161C0.299749 22.0956 0.286786 21.8752 0.325686 21.6547C0.286786 21.4213 0.325682 21.2009 0.377549 20.9545C0.455349 20.7341 0.585018 20.5137 0.740618 20.3451C0.909185 20.1636 1.10368 20.008 1.35005 19.9043C1.58345 19.7876 1.82981 19.7357 2.08915 19.7227C2.32255 19.7227 2.54298 19.7616 2.77638 19.8524C2.98385 19.9432 3.16538 20.0858 3.26911 20.2803V18.1797H3.98228H3.99524ZM3.29504 21.2398V20.9675C3.24318 20.7471 3.07461 20.5396 2.86715 20.41C2.64671 20.2803 2.38738 20.2284 2.15398 20.2673C1.44082 20.2673 0.974018 20.8378 0.974018 21.6288C0.974018 22.4198 1.36301 22.9384 2.11508 22.9384C2.34848 22.9384 2.59485 22.8606 2.80231 22.718C2.98385 22.5754 3.11351 22.3809 3.16538 22.1604V21.8881L3.29504 21.2009V21.2398Z" fill="#838383"/>
<path d="M6.75673 18.8402C6.75673 18.9569 6.70487 19.0477 6.62707 19.1384C6.5363 19.2162 6.41959 19.2551 6.31586 19.2551C6.21213 19.2551 6.08246 19.2162 6.00466 19.1384C5.9139 19.0606 5.875 18.9569 5.875 18.8402C5.875 18.7883 5.875 18.7105 5.9139 18.6587C5.92687 18.6068 5.9917 18.542 6.0306 18.516C6.08247 18.4771 6.1473 18.4382 6.21214 18.4382H6.4196C6.5363 18.4382 6.62706 18.4901 6.6919 18.5809C6.7697 18.6587 6.78266 18.7494 6.78266 18.8402H6.7697H6.75673ZM5.97874 23.3915V19.8257H6.67894V23.3915H5.97874Z" fill="#838383"/>
<path d="M12.0091 19.813V22.8472C12.048 23.1454 12.0091 23.4307 11.9313 23.7159C11.8405 23.9882 11.6719 24.2476 11.4515 24.468C11.0495 24.7662 10.5438 24.9089 10.0122 24.8959C9.55838 24.8959 9.10454 24.8051 8.70258 24.5977L8.87114 24.105C9.22124 24.3124 9.61025 24.4032 10.0122 24.4032C10.7254 24.4032 11.27 24.0531 11.27 23.1714V22.7694C11.1403 22.9509 10.9588 23.1195 10.7383 23.2102C10.5179 23.3269 10.2845 23.3529 10.0252 23.3529C9.79177 23.3529 9.54541 23.301 9.33794 23.2102C9.11751 23.1195 8.93597 22.9898 8.78037 22.8213C8.63774 22.6527 8.50808 22.4712 8.43028 22.2637C8.35248 22.0562 8.33951 21.8358 8.35247 21.6413C8.31357 21.4079 8.35247 21.1615 8.40434 20.9411C8.48214 20.7207 8.61181 20.5002 8.7674 20.3187C8.93597 20.1372 9.13047 19.9816 9.37684 19.8778C9.61024 19.7611 9.85661 19.7093 10.1289 19.6963C10.3623 19.6963 10.6216 19.7352 10.8291 19.8389C11.0495 19.9556 11.2181 20.1112 11.3478 20.2928V19.7611L11.9961 19.8L12.0091 19.813ZM11.2959 21.2393C11.3089 21.1486 11.3089 21.0319 11.2959 20.9411C11.244 20.7336 11.1144 20.578 10.9328 20.4484C10.7513 20.3187 10.5309 20.2668 10.3104 20.2668C9.62321 20.2668 9.16938 20.7855 9.16938 21.5894C9.16938 22.3934 9.55837 22.8731 10.3104 22.8731C10.5309 22.8731 10.7513 22.7953 10.9199 22.6657C11.1014 22.536 11.2311 22.3674 11.2829 22.1859C11.2959 22.0692 11.2959 21.9525 11.2829 21.8358V21.1875V21.2264L11.2959 21.2393Z" fill="#838383"/>
<path d="M14.7577 18.8402C14.7577 18.9569 14.7058 19.0477 14.628 19.1384C14.5373 19.2162 14.4206 19.2551 14.3168 19.2551C14.2131 19.2551 14.0834 19.2162 14.0056 19.1384C13.9149 19.0606 13.876 18.9569 13.876 18.8402C13.876 18.7883 13.876 18.7235 13.9149 18.6976C13.9278 18.6457 13.9667 18.6068 14.0056 18.5679C14.0445 18.529 14.0964 18.4901 14.1483 18.4771C14.2001 18.4642 14.265 18.4382 14.3168 18.4382C14.3687 18.4382 14.4335 18.4382 14.4854 18.4512C14.5373 18.4642 14.6021 18.5031 14.628 18.542C14.6669 18.5809 14.7058 18.6327 14.7188 18.6716C14.7318 18.7235 14.7577 18.7883 14.7577 18.8402ZM13.9667 23.3915V19.8257H14.6799V23.3915H13.9667Z" fill="#838383"/>
<path d="M17.5071 18.8274V19.8258H18.5315V20.3186H17.5071V22.2506C17.5071 22.6915 17.6497 22.9508 18.0387 22.9508H18.4666V23.4305C18.2592 23.4824 18.0647 23.5213 17.8442 23.5213C17.6757 23.5213 17.533 23.5083 17.3904 23.4305C17.2478 23.3787 17.1311 23.262 17.0403 23.1582C16.8328 22.8989 16.7421 22.5748 16.781 22.2506V20.3186H16.2104V19.8258H16.8328V18.983L17.5201 18.8404L17.5071 18.8274Z" fill="#838383"/>
<path d="M22.2917 23.392V22.9512C22.149 23.1197 21.9545 23.2494 21.76 23.3402C21.5526 23.4309 21.3192 23.4698 21.0728 23.4698C20.9302 23.4698 20.7616 23.4698 20.619 23.418C20.4763 23.3661 20.3467 23.2883 20.23 23.1975C20.1133 23.1068 20.0225 22.9771 19.9706 22.8474C19.9188 22.7178 19.8799 22.5751 19.8799 22.4455C19.8799 21.5767 20.7227 21.1229 22.2398 21.1358C22.2398 21.0191 22.2398 20.9154 22.2009 20.7987C22.162 20.682 22.0842 20.5912 22.0194 20.5264C21.9286 20.4486 21.8378 20.3838 21.7082 20.3449C21.5785 20.306 21.4748 20.293 21.3451 20.306C20.982 20.306 20.6319 20.3967 20.3207 20.5783L20.1781 20.1504C20.5671 19.9299 21.008 19.8132 21.4488 19.8132C22.6418 19.8132 22.94 20.5653 22.94 21.2914V22.614C22.927 22.8863 22.927 23.1846 22.94 23.4569L22.2787 23.3791H22.3176L22.2917 23.392ZM22.1879 21.5637C21.397 21.5637 20.5282 21.6545 20.5282 22.3547C20.5282 22.4325 20.5282 22.5233 20.5671 22.5881C20.606 22.6659 20.6449 22.7307 20.7097 22.7956C20.7616 22.8474 20.8524 22.9123 20.9302 22.9252C21.0209 22.9641 21.1117 22.9641 21.1895 22.9641C21.397 22.9641 21.6174 22.9123 21.773 22.8215C21.9416 22.7048 22.0712 22.5622 22.1361 22.3806V22.1991L22.175 21.5897L22.1879 21.5637Z" fill="#838383"/>
<path d="M24.8201 18.1797H25.5592V23.3663H24.846V18.1797H24.833H24.8201Z" fill="#838383"/>
<path d="M32.1981 23.392V22.9512C32.0555 23.1197 31.8869 23.2494 31.6665 23.3402C31.459 23.4309 31.2256 23.4698 31.0052 23.4698C30.8626 23.4698 30.694 23.4698 30.5514 23.418C30.4087 23.3661 30.2791 23.2883 30.1624 23.1975C30.0457 23.1068 29.9549 22.9771 29.903 22.8474C29.8512 22.7178 29.8123 22.5751 29.8123 22.4455C29.8123 21.5767 30.6421 21.1229 32.1722 21.1358C32.1722 21.0191 32.1722 20.9154 32.1333 20.7987C32.0944 20.682 32.0166 20.5912 31.9518 20.5264C31.861 20.4486 31.7702 20.3838 31.6535 20.3449C31.5368 20.306 31.4201 20.293 31.2905 20.306C30.9274 20.306 30.5773 20.3967 30.2661 20.5783L30.0975 20.1504C30.4865 19.9299 30.9404 19.8132 31.4072 19.8132C32.6001 19.8132 32.8983 20.5653 32.8983 21.2914V22.614C32.8594 22.8863 32.8594 23.1846 32.8983 23.4569L32.2111 23.3791L32.1981 23.392ZM32.1981 21.5637C31.4201 21.5637 30.5384 21.6545 30.5384 22.3547C30.5384 22.4325 30.5384 22.5233 30.5773 22.5881C30.6162 22.6659 30.6551 22.7307 30.7199 22.7956C30.7977 22.8474 30.8626 22.9123 30.9404 22.9252C31.0311 22.9641 31.1219 22.9641 31.2127 22.9641C31.4201 22.9641 31.6146 22.9252 31.7962 22.8215C31.9647 22.7048 32.0944 22.5622 32.1463 22.3806C32.1592 22.3288 32.1592 22.251 32.1463 22.1991L32.1852 21.5897L32.1981 21.5637Z" fill="#838383"/>
<path d="M38.0852 19.813V22.8472C38.1241 23.1454 38.0852 23.4307 38.0074 23.7159C37.9166 23.9882 37.7481 24.2476 37.5276 24.468C37.1257 24.7662 36.62 24.9089 36.0884 24.8959C35.6345 24.8959 35.1807 24.8051 34.7787 24.5977L34.9473 24.105C35.2974 24.3124 35.6864 24.4032 36.0884 24.4032C36.8275 24.4032 37.3591 24.0531 37.3591 23.1714V22.7694C37.2294 22.9509 37.0479 23.1195 36.8275 23.2232C36.607 23.3399 36.3736 23.3659 36.1143 23.3659C35.8809 23.3659 35.6605 23.2881 35.4271 23.1973C35.2066 23.1065 35.0251 22.9769 34.8695 22.8083C34.7269 22.6397 34.5972 22.4582 34.5194 22.2507C34.4416 22.0433 34.4286 21.8228 34.4416 21.6283C34.4027 21.3949 34.4416 21.1745 34.4935 20.9281C34.5713 20.7077 34.7009 20.4873 34.8565 20.3187C35.0251 20.1372 35.2196 19.9816 35.466 19.8778C35.6993 19.7611 35.9457 19.7093 36.205 19.6963C36.4384 19.6963 36.6978 19.7352 36.9052 19.8389C37.1257 19.9556 37.2942 20.1112 37.398 20.3187V19.7871L38.0204 19.826H38.0593L38.0852 19.813ZM37.3461 21.2393C37.3591 21.1486 37.3591 21.0319 37.3461 20.9411C37.2942 20.7336 37.1646 20.578 36.983 20.4613C36.8015 20.3317 36.594 20.2798 36.3736 20.2798C35.6864 20.2798 35.1937 20.7985 35.1937 21.6024C35.1937 22.4063 35.5826 22.8861 36.3347 22.8861C36.5551 22.8861 36.7756 22.8083 36.9571 22.7046C37.1386 22.5749 37.2683 22.4063 37.3461 22.2248C37.3591 22.1081 37.3591 21.9914 37.3461 21.8747V21.2264V21.2393Z" fill="#838383"/>
<path d="M40.4576 21.732C40.4576 21.9005 40.4576 22.0691 40.5354 22.2117C40.5873 22.3544 40.704 22.51 40.8336 22.6137C40.9633 22.7304 41.1059 22.8212 41.2875 22.873C41.456 22.9249 41.6376 22.9508 41.8191 22.9508C42.1822 22.9508 42.5712 22.899 42.9083 22.7693L43.0379 23.2231C42.636 23.3917 42.1951 23.4565 41.7283 23.4565C41.469 23.4565 41.1967 23.4436 40.9503 23.3398C40.7169 23.2491 40.4965 23.1194 40.302 22.9508C40.1205 22.7823 39.9649 22.5878 39.9 22.3673C39.8093 22.1469 39.7704 21.9135 39.7833 21.6671C39.7444 21.4337 39.7833 21.1874 39.8611 20.954C39.9389 20.7206 40.0686 20.5131 40.2501 20.3316C40.4187 20.15 40.6391 19.9944 40.8725 19.9037C41.1059 19.787 41.3653 19.7351 41.6505 19.7351C41.8839 19.7351 42.1044 19.787 42.3118 19.8777C42.5193 19.9685 42.7138 20.0982 42.8694 20.2408C43.012 20.4094 43.1287 20.5909 43.2065 20.7724C43.2843 20.9799 43.2973 21.1744 43.2584 21.3948V21.706H40.4576V21.732ZM42.5971 21.2392C42.5971 21.1096 42.5971 20.9799 42.5582 20.8502C42.5193 20.7206 42.4415 20.6168 42.3507 20.5001C42.26 20.4094 42.1433 20.3186 42.0006 20.2667C41.871 20.2149 41.7283 20.176 41.5727 20.176C41.2745 20.176 40.9892 20.3056 40.7688 20.5131C40.5613 20.7206 40.4317 20.9669 40.4317 21.2522H42.5841L42.5971 21.2392Z" fill="#838383"/>
<path d="M44.8667 20.7983C44.8797 20.4871 44.8797 20.15 44.8667 19.8388H45.515V20.4223C45.6447 20.2018 45.8262 20.0333 46.0467 19.9036C46.2671 19.7869 46.5394 19.7221 46.7987 19.735C47.3304 19.735 48.1732 20.0462 48.1732 21.2651V23.3787H47.473V21.3299C47.473 20.7594 47.2396 20.2667 46.5653 20.2667C46.3449 20.2667 46.1374 20.3445 45.9818 20.4482C45.8133 20.5649 45.6836 20.7205 45.6188 20.902C45.6058 21.0187 45.6058 21.1095 45.6188 21.2132V23.3527H44.9056L44.8667 20.7594V20.7983Z" fill="#838383"/>
<path d="M52.9578 23.2488C52.6077 23.3914 52.2187 23.4693 51.8297 23.4693C51.5703 23.4693 51.298 23.4563 51.0517 23.3525C50.8183 23.2618 50.5978 23.1321 50.4033 22.9636C50.2218 22.795 50.0662 22.6005 50.0014 22.3541C49.9236 22.1207 49.8717 21.9003 49.8847 21.6539C49.8717 21.3946 49.8847 21.1353 50.0014 20.9019C50.0921 20.6685 50.2607 20.448 50.4552 20.2535C50.6627 20.072 50.8961 19.9164 51.1684 19.8516C51.4407 19.7608 51.7259 19.7219 52.0112 19.7349C52.3613 19.7349 52.6984 19.7867 53.0096 19.9034L52.8411 20.3962C52.5817 20.2665 52.3094 20.2146 52.0112 20.2276C51.8297 20.2276 51.6222 20.2665 51.4536 20.3443C51.2851 20.4221 51.1165 20.5129 50.9998 20.6425C50.8701 20.7722 50.7794 20.9148 50.7016 21.0834C50.6497 21.252 50.6238 21.4205 50.6238 21.6021C50.6238 21.7706 50.6238 21.9521 50.7016 22.0948C50.7534 22.2633 50.8701 22.406 50.9998 22.5357C51.1295 22.6653 51.2721 22.7561 51.4536 22.8339C51.6222 22.9117 51.8167 22.9246 52.0112 22.9246C52.3094 22.9246 52.6206 22.8728 52.88 22.7561L52.9318 23.2748V23.2359L52.9578 23.2488Z" fill="#838383"/>
<path d="M54.8251 19.8264L55.6939 21.927L55.9273 22.6661C55.9273 22.4457 56.0699 22.1863 56.1866 21.927L56.9646 19.8264H57.7426L56.6794 22.3679C56.4589 23.1718 56.018 23.9498 55.4086 24.5722C55.1752 24.7797 54.8511 24.9223 54.5399 25.0001L54.3713 24.4685C54.5917 24.3907 54.8121 24.2869 54.9937 24.1313C55.253 23.9498 55.4735 23.6905 55.6161 23.4182V23.107L54.1638 19.8264H54.864H54.8251Z" fill="#838383"/>
<defs>
<linearGradient id="paint0_linear_3177_59333" x1="14.787" y1="0.0458473" x2="14.787" y2="16.0386" gradientUnits="userSpaceOnUse">
<stop offset="0.00537634" stop-color="#70B2E2"/>
<stop offset="0.1941" stop-color="#6EAFE0"/>
<stop offset="0.4028" stop-color="#68A5DA"/>
<stop offset="0.6211" stop-color="#5E96CF"/>
<stop offset="0.8444" stop-color="#5282C2"/>
<stop offset="1" stop-color="#4772B8"/>
</linearGradient>
<linearGradient id="paint1_linear_3177_59333" x1="39.1112" y1="-0.00638772" x2="39.1112" y2="15.9588" gradientUnits="userSpaceOnUse">
<stop offset="0.00537634" stop-color="#70B2E2"/>
<stop offset="0.1941" stop-color="#6EAFE0"/>
<stop offset="0.4028" stop-color="#68A5DA"/>
<stop offset="0.6211" stop-color="#5E96CF"/>
<stop offset="0.8444" stop-color="#5282C2"/>
<stop offset="1" stop-color="#4772B8"/>
</linearGradient>
<linearGradient id="paint2_linear_3177_59333" x1="54.0756" y1="0.0585485" x2="54.0756" y2="16.0367" gradientUnits="userSpaceOnUse">
<stop offset="0.00537634" stop-color="#70B2E2"/>
<stop offset="0.1941" stop-color="#6EAFE0"/>
<stop offset="0.4028" stop-color="#68A5DA"/>
<stop offset="0.6211" stop-color="#5E96CF"/>
<stop offset="0.8444" stop-color="#5282C2"/>
<stop offset="1" stop-color="#4772B8"/>
</linearGradient>
<linearGradient id="paint3_linear_3177_59333" x1="68.3444" y1="0.212001" x2="68.3444" y2="21.9621" gradientUnits="userSpaceOnUse">
<stop offset="0.00537634" stop-color="#70B2E2"/>
<stop offset="0.1941" stop-color="#6EAFE0"/>
<stop offset="0.4028" stop-color="#68A5DA"/>
<stop offset="0.6211" stop-color="#5E96CF"/>
<stop offset="0.8444" stop-color="#5282C2"/>
<stop offset="1" stop-color="#4772B8"/>
</linearGradient>
<linearGradient id="paint4_linear_3177_59333" x1="86.2084" y1="0.00216054" x2="86.2084" y2="15.959" gradientUnits="userSpaceOnUse">
<stop offset="0.00537634" stop-color="#70B2E2"/>
<stop offset="0.1941" stop-color="#6EAFE0"/>
<stop offset="0.4028" stop-color="#68A5DA"/>
<stop offset="0.6211" stop-color="#5E96CF"/>
<stop offset="0.8444" stop-color="#5282C2"/>
<stop offset="1" stop-color="#4772B8"/>
</linearGradient>
</defs>
</svg>
