<svg width="482" height="166" viewBox="0 0 482 166" fill="none" xmlns="http://www.w3.org/2000/svg">
<path d="M321.006 60.1409V74.4858C321.006 78.4415 324.212 81.6582 328.178 81.6582C332.145 81.6582 335.351 78.4524 335.351 74.4858V45.796C335.351 37.8629 328.917 31.4512 321.006 31.4512H249.282C241.349 31.4512 234.937 37.8846 234.937 45.796H234.948V74.4858C234.948 78.4415 238.153 81.6582 242.12 81.6582C246.087 81.6582 249.293 78.4524 249.293 74.4858V60.1409C249.293 52.2078 255.726 45.796 263.637 45.796H306.672C314.605 45.796 321.017 52.2295 321.017 60.1409H321.006Z" stroke="white" stroke-width="5" stroke-miterlimit="10"/>
<path d="M132.305 63.7492H200.444C202.421 63.7492 204.03 65.3467 204.03 67.3354C204.03 69.3241 202.432 70.9216 200.444 70.9216H139.478C135.522 70.9216 132.305 74.1275 132.305 78.094C132.305 82.0606 135.511 85.2665 139.478 85.2665H204.03C211.963 85.2665 218.375 78.833 218.375 70.9216V35.0377C218.375 31.082 215.169 27.8652 211.202 27.8652C207.236 27.8652 204.03 31.0711 204.03 35.0377H204.019V38.6348C204.019 44.5792 199.205 49.4043 193.249 49.4043H143.042C137.098 49.4043 132.273 44.5901 132.273 38.6348V35.0485C132.273 31.0928 129.067 27.8761 125.1 27.8761C121.134 27.8761 117.928 31.082 117.928 35.0485V49.3934C117.928 57.3266 124.361 63.7383 132.273 63.7383L132.305 63.7492Z" stroke="white" stroke-width="5" stroke-miterlimit="10"/>
<path d="M103.18 70.9101V63.7377C103.18 55.8045 96.7469 49.3928 88.8355 49.3928H20.6865C18.7086 49.3928 17.1002 47.7953 17.1002 45.8066C17.1002 43.8287 18.6977 42.2204 20.6865 42.2204H81.6522C85.6079 42.2204 88.8246 39.0145 88.8246 35.0479C88.8246 31.0814 85.6188 27.8755 81.6522 27.8755H17.1002C9.16709 27.8755 2.75537 34.3089 2.75537 42.2204V49.3928C2.75537 57.326 9.18883 63.7377 17.1002 63.7377H85.2384C87.2163 63.7377 88.8246 65.3352 88.8246 67.3239C88.8246 69.3126 87.2271 70.9101 85.2384 70.9101H24.2727C20.317 70.9101 17.1002 74.116 17.1002 78.0826C17.1002 82.0491 20.3061 85.255 24.2727 85.255H88.8246C96.7578 85.255 103.169 78.8215 103.169 70.9101H103.18Z" stroke="white" stroke-width="5" stroke-miterlimit="10"/>
<path d="M417.41 105.914H345.685C337.752 105.914 331.34 112.347 331.34 120.258H331.351V148.948C331.351 152.904 334.557 156.121 338.524 156.121C342.49 156.121 345.696 152.915 345.696 148.948V134.603C345.696 126.67 352.13 120.258 360.041 120.258H403.076C411.009 120.258 417.42 126.692 417.42 134.603V148.948C417.42 152.904 420.626 156.121 424.593 156.121C428.559 156.121 431.765 152.915 431.765 148.948V120.258C431.765 112.325 425.332 105.914 417.42 105.914H417.41Z" stroke="white" stroke-width="5" stroke-miterlimit="10"/>
<path d="M296.086 103.35H224.361C216.428 103.35 210.017 109.783 210.017 117.694V124.878C210.017 132.811 216.45 139.223 224.361 139.223H292.5C294.477 139.223 296.086 140.82 296.086 142.809C296.086 144.798 294.488 146.395 292.5 146.395H231.534C227.578 146.395 224.361 149.601 224.361 153.568C224.361 157.534 227.567 160.74 231.534 160.74H296.086C304.019 160.74 310.431 154.307 310.431 146.395V117.705C310.431 109.772 303.997 103.36 296.086 103.36V103.35ZM292.5 124.867H227.948C225.97 124.867 224.361 123.269 224.361 121.281C224.361 119.292 225.959 117.694 227.948 117.694H292.5C294.477 117.694 296.086 119.292 296.086 121.281C296.086 123.269 294.488 124.867 292.5 124.867Z" stroke="white" stroke-width="5" stroke-miterlimit="10"/>
<path d="M151.952 146.621V139.449C151.952 131.515 145.519 125.104 137.608 125.104H69.4694C67.4916 125.104 65.8832 123.506 65.8832 121.518C65.8832 119.529 67.4807 117.931 69.4694 117.931H130.435C134.391 117.931 137.608 114.725 137.608 110.759C137.608 106.792 134.402 103.586 130.435 103.586H65.8832C57.9501 103.586 51.5383 110.02 51.5383 117.931V125.104C51.5383 133.037 57.9718 139.449 65.8832 139.449H134.021C135.999 139.449 137.608 141.046 137.608 143.035C137.608 145.024 136.01 146.621 134.021 146.621H73.0556C69.0999 146.621 65.8832 149.827 65.8832 153.793C65.8832 157.76 69.0891 160.966 73.0556 160.966H137.608C145.541 160.966 151.952 154.532 151.952 146.621Z" stroke="white" stroke-width="5" stroke-miterlimit="10"/>
<path d="M432.277 69.2258H373.582C368.616 69.2258 364.28 65.4766 363.965 60.5211C363.617 55.0874 367.91 50.5775 373.267 50.5775H380.179C383.602 50.5775 386.384 47.7954 386.384 44.3722C386.384 40.949 383.602 38.167 380.179 38.167H363.943C357.075 38.167 351.511 43.7311 351.511 50.5992V69.2367C351.511 76.1048 357.075 81.6689 363.943 81.6689H432.277C435.7 81.6689 438.482 78.8869 438.482 75.4637C438.482 72.0187 435.7 69.2476 432.277 69.2476V69.2258Z" stroke="white" stroke-width="5" stroke-miterlimit="10"/>
<path d="M412.28 32.1244H467.595C474.028 32.1244 479.245 26.9081 479.245 20.4747V14.6498C479.245 8.21632 474.028 3 467.595 3H403.793C400.75 3 398.033 5.2278 397.751 8.24892C397.425 11.7265 400.141 14.6389 403.543 14.6389H464.574C465.987 14.6389 467.269 15.5952 467.541 16.9754C467.899 18.8337 466.476 20.4638 464.682 20.4638H409.368C402.934 20.4638 397.718 25.6801 397.718 32.1136V37.9385C397.718 44.3719 402.934 49.5882 409.368 49.5882H432.656C435.873 49.5882 438.481 46.9801 438.481 43.7633C438.481 40.5466 435.873 37.9385 432.656 37.9385H412.389C410.976 37.9385 409.694 36.9821 409.422 35.602C409.063 33.7437 410.487 32.1136 412.28 32.1136V32.1244Z" stroke="white" stroke-width="5" stroke-miterlimit="10"/>
<path d="M182.338 108.827C186.522 108.827 189.945 112.25 189.945 116.434V116.662C189.945 120.846 186.522 124.269 182.338 124.269H182.109C177.926 124.269 174.502 120.846 174.502 116.662V116.434C174.502 112.25 177.926 108.827 182.109 108.827H182.338ZM182.338 131.996C186.522 131.996 189.945 135.419 189.945 139.603V155.274C189.945 159.534 186.489 163 182.218 163C177.958 163 174.491 159.544 174.491 155.274V139.603C174.491 135.419 177.915 131.996 182.099 131.996H182.327H182.338Z" stroke="white" stroke-width="5" stroke-miterlimit="10"/>
</svg>
