<svg width="117" height="117" viewBox="0 0 117 117" fill="none" xmlns="http://www.w3.org/2000/svg">
<circle cx="58.5" cy="58.5" r="58" stroke="white"/>
<g clip-path="url(#clip0_1320_30845)">
<path d="M33.5341 41.2625C33.5247 41.1875 33.5153 41.1031 33.5153 41.0281C33.5153 41.0188 33.5153 41.0187 33.5153 41.0094C33.5153 40.1844 34.1925 39.5094 35.0203 39.5094C35.105 39.5094 35.1991 39.5187 35.2837 39.5281C35.9892 39.6406 36.5254 40.2594 36.5254 41C36.5254 41.825 35.8481 42.5 35.0203 42.5C34.2772 42.5 33.6564 41.9656 33.5341 41.2625ZM29 41C29 43.5219 30.5521 45.6781 32.7627 46.5594V56.4406C30.5521 57.3219 29 59.4781 29 62C29 65.3094 31.6997 68 35.0203 68C37.5508 68 39.7143 66.4531 40.5986 64.25H59.5438C60.4375 66.4531 62.601 68 65.122 68C68.4426 68 71.1424 65.3094 71.1424 62C71.1424 59.4781 69.5903 57.3219 67.3797 56.4406V46.5594C69.5903 45.6688 71.1424 43.5125 71.1424 41C71.1424 37.6906 68.4426 35 65.122 35C62.5916 35 60.4281 36.5469 59.5438 38.75H40.5986C39.7143 36.5469 37.5508 35 35.0203 35C31.6997 35 29 37.6906 29 41ZM63.6169 41C63.6169 40.6022 63.7755 40.2206 64.0578 39.9393C64.34 39.658 64.7229 39.5 65.122 39.5C65.5212 39.5 65.904 39.658 66.1863 39.9393C66.4685 40.2206 66.6271 40.6022 66.6271 41C66.6271 41.3978 66.4685 41.7794 66.1863 42.0607C65.904 42.342 65.5212 42.5 65.122 42.5C64.7229 42.5 64.34 42.342 64.0578 42.0607C63.7755 41.7794 63.6169 41.3978 63.6169 41ZM59.5438 43.25C60.1553 44.75 61.3593 45.9594 62.8644 46.5594V56.4406C61.3593 57.05 60.1458 58.25 59.5438 59.75H40.5986C39.9871 58.25 38.7831 57.0406 37.278 56.4406V46.5594C38.7831 45.95 39.9965 44.75 40.5986 43.25H59.5438ZM65.122 60.5C65.5212 60.5 65.904 60.658 66.1863 60.9393C66.4685 61.2206 66.6271 61.6022 66.6271 62C66.6271 62.3978 66.4685 62.7794 66.1863 63.0607C65.904 63.342 65.5212 63.5 65.122 63.5C64.7229 63.5 64.34 63.342 64.0578 63.0607C63.7755 62.7794 63.6169 62.3978 63.6169 62C63.6169 61.6022 63.7755 61.2206 64.0578 60.9393C64.34 60.658 64.7229 60.5 65.122 60.5ZM36.5254 62C36.5254 62.7406 35.9892 63.3594 35.2837 63.4812C35.2085 63.4906 35.1238 63.5 35.0486 63.5H35.0297C34.2019 63.5 33.5247 62.825 33.5247 62C33.5247 61.9156 33.5341 61.8219 33.5435 61.7375C33.6564 61.0344 34.2772 60.5 35.0203 60.5C35.8481 60.5 36.5254 61.175 36.5254 62ZM73.3342 58.25H77.6048C78.2163 59.75 79.4203 60.9594 80.9254 61.5594V71.4406C79.4203 72.05 78.2069 73.25 77.6048 74.75H58.6596C58.0481 73.25 56.8441 72.0406 55.339 71.4406V68H50.8237V71.4406C48.6131 72.3313 47.061 74.4875 47.061 77C47.061 80.3094 49.7608 83 53.0814 83C55.6118 83 57.7753 81.4531 58.6596 79.25H77.6048C78.4985 81.4531 80.662 83 83.1831 83C86.5036 83 89.2034 80.3094 89.2034 77C89.2034 74.4781 87.6513 72.3219 85.4407 71.4406V61.5594C87.6513 60.6687 89.2034 58.5125 89.2034 56C89.2034 52.6906 86.5036 50 83.1831 50C80.6526 50 78.4891 51.5469 77.6048 53.75H71.1424V55.2875C72.0642 56.1125 72.8168 57.1156 73.3342 58.25ZM81.6968 55.7469C81.724 55.5469 81.7913 55.3544 81.8949 55.181C81.9985 55.0076 82.1361 54.8568 82.2995 54.7376C82.4629 54.6184 82.6488 54.5333 82.846 54.4874C83.0432 54.4415 83.2477 54.4358 83.4471 54.4705C83.6466 54.5052 83.837 54.5797 84.0069 54.6895C84.1769 54.7992 84.3228 54.942 84.436 55.1094C84.5493 55.2767 84.6275 55.465 84.6659 55.6632C84.7044 55.8613 84.7024 56.0652 84.6599 56.2625C84.6327 56.4625 84.5654 56.655 84.4618 56.8284C84.3582 57.0018 84.2206 57.1526 84.0572 57.2718C83.8938 57.391 83.7079 57.476 83.5107 57.5219C83.3135 57.5678 83.109 57.5736 82.9096 57.5389C82.7101 57.5042 82.5197 57.4297 82.3498 57.3199C82.1798 57.2101 82.0339 57.0673 81.9207 56.9C81.8074 56.7327 81.7292 56.5443 81.6908 56.3462C81.6523 56.148 81.6543 55.9442 81.6968 55.7469ZM54.5676 77.2531C54.5405 77.4531 54.4731 77.6456 54.3695 77.819C54.2659 77.9924 54.1283 78.1433 53.9649 78.2624C53.8015 78.3816 53.6156 78.4667 53.4184 78.5126C53.2212 78.5585 53.0168 78.5642 52.8173 78.5295C52.6178 78.4948 52.4274 78.4203 52.2575 78.3105C52.0875 78.2008 51.9416 78.058 51.8284 77.8906C51.7151 77.7233 51.6369 77.535 51.5985 77.3368C51.56 77.1387 51.5621 76.9348 51.6045 76.7375C51.6317 76.5375 51.699 76.345 51.8026 76.1716C51.9062 75.9982 52.0438 75.8474 52.2072 75.7282C52.3706 75.609 52.5565 75.5239 52.7537 75.4781C52.9509 75.4322 53.1554 75.4264 53.3548 75.4611C53.5543 75.4958 53.7447 75.5703 53.9146 75.6801C54.0846 75.7899 54.2305 75.9327 54.3438 76.1C54.457 76.2673 54.5352 76.4557 54.5736 76.6538C54.6121 76.852 54.6101 77.0558 54.5676 77.2531ZM82.9291 78.4719C82.2236 78.35 81.6874 77.7312 81.6874 76.9906C81.6874 76.1656 82.3647 75.4906 83.1925 75.4906C83.9356 75.4906 84.5564 76.025 84.6787 76.7281V76.7375C84.6881 76.8219 84.6975 76.9062 84.6975 76.9906C84.6975 77.8156 84.0203 78.4906 83.1925 78.4906C83.1078 78.4906 83.0137 78.4813 82.9291 78.4719Z" fill="white"/>
</g>
<defs>
<clipPath id="clip0_1320_30845">
<rect width="60.2034" height="48" fill="white" transform="translate(29 35)"/>
</clipPath>
</defs>
</svg>
