<svg width="117" height="117" viewBox="0 0 117 117" fill="none" xmlns="http://www.w3.org/2000/svg">
<circle cx="58.5" cy="58.5" r="58" stroke="#8E8E8E"/>
<path fill-rule="evenodd" clip-rule="evenodd" d="M31.9562 42.0073C31.9562 38.1373 35.0935 35 38.9635 35H84.511C88.381 35 91.5182 38.1373 91.5182 42.0073V70.0365C91.5182 73.9065 88.381 77.0438 84.511 77.0438H38.9635C35.0935 77.0438 31.9562 73.9065 31.9562 70.0365V42.0073ZM50.8759 42.0073C50.8759 40.4593 52.1308 39.2044 53.6788 39.2044H83.8102C85.3582 39.2044 86.6131 40.4593 86.6131 42.0073C86.6131 43.5553 85.3582 44.8102 83.8102 44.8102H53.6788C52.1308 44.8102 50.8759 43.5553 50.8759 42.0073ZM39.6642 44.8102C41.2122 44.8102 42.4672 43.5553 42.4672 42.0073C42.4672 40.4593 41.2122 39.2044 39.6642 39.2044C38.1162 39.2044 36.8613 40.4593 36.8613 42.0073C36.8613 43.5553 38.1162 44.8102 39.6642 44.8102ZM49.4745 42.0073C49.4745 43.5553 48.2195 44.8102 46.6715 44.8102C45.1235 44.8102 43.8686 43.5553 43.8686 42.0073C43.8686 40.4593 45.1235 39.2044 46.6715 39.2044C48.2195 39.2044 49.4745 40.4593 49.4745 42.0073ZM29.5036 52.5182C29.5036 51.5507 28.7193 50.7664 27.7518 50.7664C26.7843 50.7664 26 51.5507 26 52.5182V70.7372C26 77.5098 31.4902 83 38.2628 83H61.0365C62.004 83 62.7883 82.2157 62.7883 81.2482C62.7883 80.2807 62.004 79.4963 61.0365 79.4963H38.2628C33.4252 79.4963 29.5036 75.5748 29.5036 70.7372V52.5182Z" fill="white"/>
</svg>
