<svg width="67" height="76" viewBox="0 0 67 76" fill="none" xmlns="http://www.w3.org/2000/svg">
<path fill-rule="evenodd" clip-rule="evenodd" d="M3.51699 18.0363C-1.17232 22.7256 -1.17233 30.3284 3.51698 35.0178L44.4992 76L62.5355 57.9637C67.2248 53.2744 67.2248 45.6716 62.5355 40.9822L21.5533 0L3.51699 18.0363ZM8.54957 27.8665C8.54957 27.8665 7.05841 26.7138 6.8346 24.7687C6.61079 22.8235 8.16096 21.0945 10.4881 21.1666C12.8152 21.2386 14.0175 22.9693 13.9368 24.7687C13.8432 26.8579 11.2546 28.1161 11.2546 28.1161L13.9368 30.8202L17.3474 25.5802H19.3681L15.1107 31.9009L19.435 36.0073H17.1983L14.216 33.1256C13.6878 33.9038 13.3243 34.3014 12.5757 34.9266L11.2888 33.7558C11.9559 33.2555 12.3728 32.8386 12.7898 32.1778L9.62107 29.0861C8.74508 29.6312 8.43565 29.9213 7.95333 30.5037L6.76018 29.3073C7.28624 28.7526 7.86995 28.2523 8.54957 27.8665ZM8.5947 24.7967C8.5947 23.3268 9.45432 22.6653 10.3437 22.6653C11.2331 22.6653 12.1706 23.2533 12.0924 24.7967C12.0141 26.34 10.0521 27.0015 10.0521 27.0015C10.0521 27.0015 8.5947 26.2665 8.5947 24.7967ZM24.8339 36.0073H23.9054V23.0249H19.1004L20.3308 21.1644H30.2743V23.0249H26.0042V36.0073H24.8339ZM18.2665 37.3415H20.6014L26.7818 43.2619L29.9407 40.5936V42.8784L26.7818 45.6802L18.2665 37.3415ZM34.2768 24.2497C34.2768 24.8484 33.7915 25.3337 33.1928 25.3337C32.5941 25.3337 32.1088 24.8484 32.1088 24.2497C32.1088 23.651 32.5941 23.1657 33.1928 23.1657C33.7915 23.1657 34.2768 23.651 34.2768 24.2497ZM32.1088 35.8405V31.6712V27.5018H33.1928H34.2768V31.6712V35.8405H33.1928H32.1088ZM34.2768 39.0926C34.2768 39.6913 33.7915 40.1766 33.1928 40.1766C32.5941 40.1766 32.1088 39.6913 32.1088 39.0926C32.1088 38.4939 32.5941 38.0086 33.1928 38.0086C33.7915 38.0086 34.2768 38.4939 34.2768 39.0926ZM38.6478 34.6972C42.5698 34.4052 44.45 36.8142 44.45 39.2234C44.45 41.1335 43.5195 42.9432 41.6297 43.6764L43.6546 48.3485H41.485L40.449 45.8803C39.9813 44.7663 38.891 44.0415 37.6828 44.0415H36.2781V42.2894H38.6478C41.4722 42.2894 42.5698 41.2674 42.5698 39.2234C42.5698 37.4713 41.4722 36.3763 38.6478 36.3763H36.2781L38.6478 34.6972ZM51.8135 54.1857C53.6954 54.1856 55.0708 53.6808 55.0708 52.0136C55.0708 50.4435 53.9296 49.7478 52.0477 49.0919L50.9465 48.7143C48.504 47.8994 47.0825 46.6076 47.0825 44.6797C47.0825 42.4139 49.0646 40.8438 51.6873 40.8438C53.2976 40.8438 54.5946 41.3448 55.4808 42.3582L54.0728 43.3679C53.502 42.7531 52.7154 42.4735 51.6873 42.4735C49.9855 42.4735 48.8043 43.348 48.8043 44.6399C48.8043 45.7927 49.7653 46.6274 51.8074 47.2833L52.7885 47.6013C55.5113 48.4957 56.7926 49.6882 56.7926 52.0136C56.7926 53.8367 55.5827 55.2434 53.6898 55.7723V56.0607C53.6898 60.5321 50.6393 62.1908 47.6183 62.1908C44.5973 62.1908 41.7829 60.1572 41.7829 56.9271V50.5076H43.6591V56.9262C43.6591 59.1753 45.8107 60.5321 47.6183 60.5321C49.4062 60.5321 51.8135 59.1763 51.8135 56.9271V54.1857Z" fill="white"/>
</svg>
