<svg width="53" height="52" viewBox="0 0 53 52" fill="none" xmlns="http://www.w3.org/2000/svg">
<g filter="url(#filter0_d_1723_7042)">
<path d="M10.2471 23.9827C10.1215 24.0769 9.98027 24.1711 9.82328 24.281L9.65053 24.4066C9.38365 24.595 9.14823 24.7363 8.92845 24.8619C8.92845 24.8619 8.94408 24.8933 8.95978 24.8933C8.95978 24.8933 8.99123 24.909 9.00692 24.9247C9.06972 24.9561 9.14819 25.0031 9.17959 25.0973C9.21098 25.1915 9.211 25.2857 9.1953 25.3956C9.1796 25.5055 9.13248 25.5997 9.06968 25.6625C9.06968 25.6625 9.06968 25.6625 9.06968 25.6782C9.03829 25.7253 8.99123 25.8195 8.81855 25.8195C8.74006 25.8195 8.67725 25.7724 8.61446 25.741C8.59876 25.741 8.5674 25.7096 8.5517 25.7096C8.42611 25.6625 8.37901 25.6311 8.34761 25.5997C8.30051 25.5683 8.26912 25.5055 8.25342 25.4584C8.22203 25.3485 8.22203 25.2386 8.25342 25.1444C8.01794 25.2072 7.82947 25.2229 7.67249 25.1915C7.71958 25.2386 7.75099 25.3014 7.78239 25.3642C7.81379 25.4584 7.8138 25.5526 7.7981 25.6625C7.7824 25.7724 7.73528 25.8666 7.67249 25.9294C7.59399 25.9922 7.49981 26.0393 7.38992 26.0393C7.29573 26.0393 7.20158 26.0079 7.13879 25.9922C7.09169 25.9765 7.04455 25.9608 6.99746 25.9137C6.95036 25.8823 6.91897 25.8195 6.90327 25.7724C6.85617 25.6154 6.80914 25.427 6.96613 25.1915C7.04462 25.0973 7.18586 25.0189 7.31145 25.0346C7.31145 25.0346 7.31146 25.0346 7.32716 25.0346C6.919 24.6892 6.68352 24.0298 6.63642 23.135C6.44804 23.2135 6.24396 23.2763 6.05558 23.3391C5.28635 23.5746 4.67406 23.763 4.73686 24.752C4.76825 25.2386 4.98809 25.6625 5.38055 25.9922C6.07129 26.573 7.2173 26.7928 7.93943 26.6986C9.16392 26.5416 10.6396 26.0864 10.7494 24.7363C10.7808 24.3752 10.7495 24.0141 10.6867 23.6845L10.2785 23.9827H10.2471ZM6.51081 24.8933C6.49511 25.0032 6.44808 25.0973 6.38529 25.1601C6.30679 25.2229 6.21252 25.27 6.10263 25.27C6.00844 25.27 5.91429 25.2386 5.85149 25.223C5.8044 25.2073 5.75726 25.1915 5.71016 25.1444C5.66307 25.113 5.63167 25.0502 5.61597 25.0031C5.56888 24.8462 5.52184 24.6578 5.67883 24.4223C5.75732 24.3281 5.89856 24.2496 6.02415 24.2653C6.13404 24.2653 6.22824 24.3124 6.32243 24.3909C6.40092 24.4537 6.46369 24.5322 6.49509 24.6107C6.52649 24.7049 6.5265 24.7991 6.51081 24.909V24.8933Z" fill="white"/>
<path d="M6.16349 24.5638C6.16349 24.5638 6.05307 24.5007 6.00577 24.5007C5.95847 24.5007 5.91124 24.5323 5.87971 24.548C5.78511 24.6742 5.80084 24.7688 5.84814 24.8949C5.84814 24.9107 5.86394 24.9264 5.87971 24.9422C5.87971 24.9422 5.91121 24.9579 5.94274 24.9737C6.0058 25.0052 6.06883 25.0052 6.10036 25.0052C6.14766 25.0052 6.17921 25.0052 6.21074 24.9737C6.24227 24.9422 6.25808 24.9106 6.25808 24.8475C6.25808 24.8475 6.25808 24.7214 6.25808 24.6741C6.25808 24.6268 6.21079 24.5953 6.16349 24.5638Z" fill="white"/>
<path d="M7.29483 25.27C7.24753 25.27 7.2003 25.3016 7.16877 25.3173C7.07417 25.4434 7.08991 25.538 7.13721 25.6642C7.13721 25.6957 7.153 25.7115 7.16877 25.7115C7.16877 25.7115 7.20027 25.7272 7.2318 25.743C7.29487 25.7745 7.35789 25.7746 7.38942 25.7746C7.43672 25.7746 7.46827 25.7745 7.4998 25.743C7.53133 25.7115 7.54715 25.6799 7.54715 25.6169C7.54715 25.5538 7.54715 25.4907 7.54715 25.4434C7.54715 25.3961 7.49985 25.3646 7.45255 25.3331C7.40525 25.3016 7.34213 25.27 7.29483 25.27Z" fill="white"/>
<path d="M11.8001 22.8995C11.8001 22.8995 11.6432 22.9938 11.5804 23.0252C11.5804 23.0252 11.5489 23.0565 11.5332 23.0565L10.9054 23.5118C10.9996 23.8886 11.0309 24.3124 10.9996 24.7363C10.874 26.2434 9.28832 26.7614 7.96964 26.9184C7.85975 26.9184 7.73419 26.9341 7.6086 26.9341C6.85507 26.9341 5.86602 26.6829 5.22238 26.1492C4.76712 25.7724 4.51599 25.2857 4.48459 24.7206C4.4061 23.5275 5.20675 23.292 5.97598 23.0565C6.19576 22.9937 6.41551 22.9152 6.63529 22.8367C6.63529 22.7896 6.63529 22.7583 6.63529 22.7112C6.63529 22.1303 6.71383 21.5495 6.87081 20.9686C7.0278 20.4035 7.23185 19.8697 7.53013 19.336C7.8127 18.8179 8.17376 18.3313 8.59762 17.8603C9.05288 17.3579 9.53951 16.9655 10.0419 16.7143C10.5442 16.4474 10.8582 16.4003 10.9838 16.4003C11.2664 16.4003 11.5332 16.4317 11.8158 16.5416C12.0199 16.6201 12.1926 16.6829 12.3496 16.7457C12.4752 16.7928 12.6792 16.8713 12.6792 16.8713L13.8723 14.7206C13.8723 14.7206 13.1659 13.7315 12.7264 13.4647C12.2554 13.1664 11.7374 13.0094 11.1879 13.0408C10.717 13.0565 10.2459 13.1821 9.74359 13.4176C8.73888 13.8885 7.84409 14.6107 7.02776 15.3328C6.79228 15.5212 6.30564 16.0706 6.16436 16.2747C5.96027 16.573 4.5631 18.7394 4.20203 20.5762C4.15493 20.7803 4.0607 21.4239 4.0607 21.4239C4.0607 21.4239 3.62116 25.2386 3.98223 26.5416C4.45318 28.2842 5.3637 29.0848 6.4312 29.2261C6.5254 29.2261 6.61958 29.2418 6.71377 29.2418C7.76557 29.2418 9.27271 28.6766 10.1204 27.8446C10.6228 27.3579 11.9414 25.6311 12.4908 25.3171C13.4799 24.752 13.5583 24.9718 13.5583 24.9718L12.7891 22.5071C12.7891 22.5071 12.3653 22.5699 11.8315 22.8524L11.8001 22.8995Z" fill="white"/>
<path d="M8.73994 25.019L8.72416 25.0032C8.69263 25.0032 8.61377 25.0347 8.598 25.0663C8.47187 25.2397 8.47186 25.3185 8.48763 25.3816C8.48763 25.4131 8.50342 25.4289 8.51919 25.4289C8.51919 25.4289 8.55075 25.4289 8.64535 25.4762C8.67688 25.4762 8.72409 25.5077 8.75563 25.5235C8.78716 25.5235 8.81877 25.5708 8.83454 25.5708H8.85022C8.85022 25.5708 8.85022 25.5708 8.85022 25.555C8.85022 25.5392 8.88182 25.5077 8.91335 25.4762C8.94488 25.4447 8.9606 25.4131 8.9606 25.35C8.9606 25.287 8.9606 25.2239 8.9606 25.1766C8.9606 25.1766 8.91333 25.1608 8.89757 25.1451C8.86603 25.1293 8.83451 25.1136 8.80297 25.082C8.77144 25.0505 8.75571 25.0347 8.73994 25.019Z" fill="white"/>
<path d="M39.2543 21.4402C39.3644 21.4402 39.4586 21.3458 39.4586 21.2357C39.4586 21.1256 39.38 21.047 39.2699 21.0312C39.2699 21.1413 39.2385 21.2829 39.207 21.4402C39.207 21.4402 39.2385 21.4402 39.2543 21.4402Z" fill="white"/>
<path d="M41.9414 23.7957C41.9414 23.9533 42.0675 24.0795 42.2094 24.0952C42.1936 23.8903 42.1779 23.7011 42.1622 23.4961C42.036 23.5276 41.9414 23.6538 41.9414 23.7957Z" fill="white"/>
<path d="M42.0041 21.8321C42.0041 21.6752 41.9726 21.5339 41.9569 21.3926H39.6963C39.6335 21.5653 39.4609 21.7065 39.2568 21.7065C39.2254 21.7065 39.2097 21.7065 39.1783 21.7065C39.1626 21.8635 39.1312 22.0205 39.1155 22.1461C39.0998 22.2717 39.0684 22.413 39.0527 22.5543C39.0841 22.5543 39.0998 22.5543 39.1312 22.5543C39.194 22.5543 39.2725 22.57 39.3196 22.6014L39.822 21.8635H41.9884L42.0041 21.8321Z" fill="white"/>
<path d="M39.3827 22.9947C39.3827 22.8528 39.2723 22.7424 39.1304 22.7424C39.0989 22.7424 39.0516 22.7424 39.0201 22.7582C39.0043 22.9001 38.9728 23.042 38.957 23.1839C39.0043 23.2312 39.0674 23.247 39.1304 23.247C39.2723 23.247 39.3827 23.1366 39.3827 22.9947Z" fill="white"/>
<path d="M40.4805 23.9682C40.4805 24.1101 40.6066 24.2362 40.7485 24.2362C40.8904 24.2362 41.0166 24.1101 41.0166 23.9682C41.0166 23.8263 40.8904 23.7002 40.7485 23.7002C40.6066 23.7002 40.4805 23.8263 40.4805 23.9682Z" fill="white"/>
<path d="M39.7124 21.1412H41.9416C41.8474 20.0894 41.7689 19.3516 41.7532 19.2888C41.7532 19.2888 39.8537 20.5133 39.3984 20.7959C39.5554 20.843 39.681 20.9686 39.7124 21.1412Z" fill="white"/>
<path d="M39.2559 24.7052C39.2559 24.8153 39.3501 24.9096 39.4602 24.9096C39.5703 24.9096 39.6647 24.8153 39.6647 24.7052C39.6647 24.5951 39.5703 24.5007 39.4602 24.5007C39.3501 24.5007 39.2559 24.5951 39.2559 24.7052Z" fill="white"/>
<path d="M41.4861 25.0502L40.8739 24.4065C40.8739 24.4065 40.7954 24.4222 40.7483 24.4222C40.4971 24.4222 40.293 24.2182 40.293 23.9513C40.293 23.6844 40.4971 23.4803 40.7483 23.4803C40.9994 23.4803 41.2193 23.6844 41.2193 23.9513C41.2193 24.0926 41.1564 24.2182 41.0622 24.2967L41.5803 24.8304H42.2868C42.2711 24.642 42.2553 24.4536 42.2396 24.2652C41.9728 24.2652 41.753 24.0298 41.753 23.7629C41.753 23.5274 41.9257 23.3233 42.1455 23.2762C42.1455 23.1349 42.114 23.0094 42.114 22.8681H40.2459L39.9948 23.1977V24.0926L39.8221 24.3751C39.8849 24.4536 39.932 24.5635 39.932 24.6734C39.932 24.9246 39.7278 25.1444 39.461 25.1444C39.1941 25.1444 38.99 24.9403 38.99 24.6734C38.99 24.4065 39.1941 24.2025 39.461 24.2025C39.5081 24.2025 39.5552 24.2024 39.5866 24.2181L39.7122 24.0141V23.1036L40.0889 22.6012H42.067C42.0513 22.3971 42.0355 22.2087 42.0198 22.0046H39.932L39.4767 22.664C39.5395 22.7425 39.5866 22.8367 39.5866 22.9466C39.5866 23.1977 39.3825 23.4018 39.1314 23.4018C39.0529 23.4018 38.9901 23.3861 38.9273 23.3547C38.6918 24.8147 38.4406 26.4002 38.1266 27.9858L36.0858 24.2652L34.5944 25.3955C34.5944 25.3955 34.1391 27.091 33.574 27.9387C32.946 28.8806 32.7734 29.0847 32.7734 29.0847L34.202 33.9827C34.202 33.9827 35.4736 30.6075 35.6776 29.6342C36.3841 30.4819 37.8598 32.5384 37.8598 32.5384L39.3512 32.3814C39.3512 32.3814 40.5285 28.6452 40.8111 26.8398C40.9681 28.7865 40.9367 29.7911 40.7326 32.2558C40.6698 32.9623 40.5599 34.5479 40.5599 34.5479L42.6793 29.1475C42.6793 29.1475 42.5065 27.1852 42.3181 25.0188H41.5019L41.4861 25.0502ZM39.4767 26.4003L39.4453 26.4317C39.4453 26.4317 39.4767 26.3375 39.5081 26.1962C39.5081 26.259 39.4767 26.3375 39.4767 26.4003Z" fill="white"/>
<path d="M25.1761 36.8085H23.8418V36.8398C23.8889 36.9811 23.9359 37.1067 23.9673 37.2166H25.7884C25.6785 36.934 25.5529 36.6514 25.4901 36.4788L25.1761 36.7928V36.8085Z" fill="white"/>
<path d="M24.1723 37.8288H26.0562C26.0562 37.8288 25.9934 37.6875 25.9149 37.4834H24.0781C24.1409 37.7032 24.188 37.8288 24.188 37.8288H24.1723Z" fill="white"/>
<path d="M25.3975 36.2431C25.319 36.0704 25.2562 35.8978 25.1777 35.7251L24.7853 36.1176H23.5137C23.5922 36.2745 23.6707 36.4315 23.7335 36.5571H25.0678L25.3818 36.2431H25.3975Z" fill="white"/>
<path d="M19.0857 33.6059C19.0857 33.6059 19.2898 33.3861 19.4154 33.2448C19.6038 33.0408 19.6822 32.9466 19.8549 32.7111C20.42 33.0722 20.8283 33.2448 21.205 33.4489L21.5504 33.653C21.8486 33.8414 22.1469 34.1083 22.5079 34.5635C22.7277 34.8461 23.0731 35.3642 23.3714 35.8665H24.6901L25.0825 35.4741C24.486 34.0455 23.9051 32.6169 23.3714 31.1569L23.1359 30.5133C22.8848 29.854 22.6492 29.1789 22.4138 28.5196L22.1469 27.7974L20.6085 27.2637C20.6085 27.2637 20.3573 28.4568 20.1689 28.8963C19.4467 30.4348 18.8031 31.2354 17.7356 32.5384C17.6571 32.6326 17.4844 32.8053 17.4844 32.8053C17.4844 32.8053 17.8141 33.0565 18.0496 33.1977C18.3636 33.3861 18.7246 33.5431 18.7246 33.5431L19.1014 33.5902L19.0857 33.6059ZM21.409 29.3045V29.3673C21.6759 30.1365 21.9114 30.9215 22.1626 31.6907L22.4452 32.5698C22.508 32.7739 22.5708 32.978 22.6493 33.1821C22.4452 33.0722 22.2725 32.9623 22.0998 32.8681L21.5033 32.4913C21.1736 32.2716 20.8439 32.0517 20.4044 31.8163C20.8282 31.0627 21.1421 30.215 21.409 29.3045Z" fill="white"/>
<path d="M34.388 15.2867C34.388 15.2867 34.4981 15.2553 34.5296 15.2081C34.5767 15.1295 34.5767 15.0194 34.5296 14.9565C34.4824 14.8778 34.388 14.8464 34.2936 14.8621C34.2307 14.8621 34.1992 14.9879 34.1992 15.1924C34.2307 15.2238 34.3408 15.2867 34.388 15.2867Z" fill="white"/>
<path d="M33.3402 16.3381C33.2931 16.228 33.1986 16.1651 33.1043 16.1494C33.0728 16.1494 33.0257 16.1651 32.9785 16.291C32.9785 16.3224 32.9785 16.3539 32.9785 16.3696C32.9942 16.4168 33.0414 16.4482 33.0729 16.464C33.1673 16.4797 33.2773 16.4325 33.3402 16.3539V16.3381Z" fill="white"/>
<path d="M39.6799 15.3644C39.6799 15.3644 39.0362 15.2859 38.2199 15.5214C37.0739 15.851 35.6297 17.8604 35.6297 17.8761L35.4727 18.2843C35.5511 19.132 35.6611 20.3722 35.6925 21.1728C36.5245 20.6077 36.9484 20.121 37.3722 19.5716C37.9688 18.818 38.0158 18.0331 38.9107 17.4209C39.3816 17.1069 40.7003 17.2168 40.7003 17.2168L39.6642 15.3644H39.6799Z" fill="white"/>
<path d="M34.6117 17.6091C34.3605 17.5934 33.7483 17.5149 33.4343 17.4678L33.6384 18.0957V18.1271C33.6384 18.1271 33.45 18.8963 33.2773 19.744L34.2192 21.8006C34.2192 21.8006 34.9571 21.5808 35.428 21.3296C35.3966 20.6389 35.3024 19.3987 35.1925 18.2684V18.237L35.4123 17.6404C35.2239 17.6404 34.91 17.6405 34.6274 17.6091H34.6117Z" fill="white"/>
<path d="M33.3541 18.1115L33.0401 17.1382L33.2599 17.1696C33.2599 17.1696 34.3117 17.3109 34.6414 17.3423C34.9083 17.358 35.1908 17.3737 35.3792 17.3737L35.0181 16.6202C35.0652 16.4318 35.1123 16.2277 35.1594 16.0236C35.3635 15.1288 36.0072 13.8886 36.6979 13.402C37.2788 12.9938 38.2206 12.8682 38.2206 12.8682L36.6822 10.6704C36.6822 10.6704 35.7089 10.6704 35.0339 11.2826C34.5001 11.785 33.7937 13.0409 33.6367 13.9828L32.8674 12.5228C32.8988 12.3188 33.0401 10.8431 33.7779 9.79126C33.8407 9.69707 34.0135 9.47732 34.2489 9.33603C34.61 9.13195 35.4419 8.86505 35.4419 8.86505L33.6367 7.54637C33.307 7.51497 32.7575 7.68768 32.3964 8.01736C31.9255 8.45692 31.7214 8.78657 31.6586 9.6186C31.5487 11.3611 29.9004 12.3501 29.9004 12.3501C29.9004 12.3501 29.9789 12.5385 30.1359 12.9153L33.0872 19.336C33.2127 18.7395 33.3227 18.2528 33.3541 18.1115ZM34.2332 14.5794C34.4216 14.548 34.6257 14.6265 34.7356 14.7834C34.8455 14.9404 34.8455 15.1602 34.7356 15.3329C34.6571 15.4584 34.5157 15.5527 34.3745 15.5527C34.2175 15.5527 33.9349 15.3957 33.9192 15.2073C33.9035 14.8305 33.9977 14.6108 34.2332 14.5794ZM32.7261 16.4789C32.679 16.369 32.679 16.2591 32.7261 16.1649C32.836 15.9451 32.9773 15.8353 33.15 15.8667C33.3384 15.8981 33.4953 16.0236 33.5895 16.212C33.6052 16.2434 33.6366 16.3062 33.621 16.3847C33.621 16.4475 33.5896 16.4789 33.5582 16.5103C33.4483 16.6515 33.2913 16.7458 33.1186 16.7458C33.0715 16.7458 33.0401 16.7458 33.0087 16.7458C32.8831 16.7144 32.7889 16.6201 32.7261 16.5103V16.4789Z" fill="white"/>
<path d="M29.788 28.0485C29.8665 28.0171 29.9607 28.0015 30.0548 28.0329C30.1647 27.8602 30.2747 27.6718 30.4003 27.4677C30.1648 27.3264 29.945 27.1851 29.7409 27.0124C29.5997 26.9025 29.4741 26.777 29.3328 26.6514C28.9403 27.7817 28.956 28.598 29.2229 28.7235C29.3642 28.7863 29.5368 28.6608 29.6781 28.5352C29.5996 28.2369 29.7095 28.1113 29.8037 28.0642L29.788 28.0485Z" fill="white"/>
<path d="M28.8329 25.6781C28.9585 25.8508 29.0841 26.0234 29.2254 26.1961C29.2568 26.1176 29.2882 26.0391 29.3353 25.9606C29.4609 25.6624 29.6178 25.3955 29.7748 25.1286C29.712 25.0187 29.6492 24.9088 29.5864 24.7989C29.4452 24.7047 29.3196 24.6262 29.2097 24.5634C28.8172 24.328 28.5504 24.2652 28.4562 24.3908C28.3777 24.5007 28.3934 24.7518 28.519 25.0501C28.6131 25.0501 28.723 25.0815 28.8015 25.1443C28.9114 25.2542 28.9585 25.4112 28.9271 25.5682C28.9271 25.6153 28.8957 25.6467 28.8643 25.6781H28.8329Z" fill="white"/>
<path d="M30.7618 27.2637C30.7618 27.2637 30.7305 27.3264 30.7148 27.3578C30.7462 27.3735 30.7776 27.3891 30.809 27.4048C30.7933 27.3578 30.7775 27.3107 30.7461 27.2637H30.7618Z" fill="white"/>
<path d="M30.9363 27.7189C30.8264 27.6718 30.7165 27.6247 30.6066 27.5619C30.4968 27.7816 30.3711 27.97 30.2612 28.1427C30.3554 28.2526 30.3868 28.3939 30.3397 28.5195C30.3083 28.6451 30.2142 28.7236 30.1043 28.755C30.0258 28.7707 29.9002 28.755 29.806 28.7079C29.6647 28.8335 29.5234 28.9119 29.3821 28.9433C29.2879 28.9433 29.2094 28.9434 29.1153 28.912C28.6443 28.7079 28.66 27.7189 29.131 26.4473C28.9426 26.2432 28.7699 26.0391 28.6286 25.8193C28.4716 25.8507 28.2989 25.8193 28.189 25.6781C28.1262 25.5839 28.1106 25.4426 28.1419 25.3327C28.1576 25.2542 28.2048 25.1914 28.2519 25.1443C28.0949 24.7518 28.0949 24.4379 28.2361 24.2495C28.4088 24.0297 28.7385 24.0611 29.2409 24.328C28.8013 23.7 28.3931 23.2761 28.3931 23.2761L24.5313 30.7644L23.6992 30.576L25.1121 32.8052C25.1121 32.8052 25.5203 32.3028 25.9755 31.6749C26.3837 31.4551 28.5658 30.0736 29.1937 29.6655L30.1985 31.1569C31.3916 32.7895 32.5061 34.218 32.5061 34.218C32.5061 34.218 31.8311 31.1883 31.4543 29.4457C31.2973 28.7236 31.1403 28.1898 30.952 27.7189H30.9363ZM26.9646 30.0579C27.4826 29.1474 28.0948 28.2526 28.0948 28.2526C28.0948 28.2526 28.5187 28.755 28.864 29.2102L26.9488 30.0579H26.9646Z" fill="white"/>
<path d="M30.6364 26.9812C30.5893 26.8556 30.5265 26.7457 30.4794 26.6201C30.4794 26.6201 30.4794 26.6201 30.4637 26.6201C30.291 26.6515 30.0085 26.5887 29.8986 26.3847C29.8201 26.2591 29.773 26.0236 29.8358 25.8509C29.8672 25.741 29.9456 25.6625 30.0555 25.6154C30.0241 25.5369 29.9771 25.4428 29.93 25.3643C29.8044 25.584 29.6945 25.8038 29.5846 26.0393C29.5375 26.1492 29.4905 26.2591 29.4434 26.3689C29.6003 26.5259 29.7573 26.6672 29.9143 26.7928C30.1184 26.9498 30.3224 27.0911 30.5422 27.2167C30.5893 27.1382 30.6207 27.044 30.6678 26.9498L30.6364 26.9812Z" fill="white"/>
<path d="M15.3965 22.1164C15.7582 21.849 15.7425 21.8333 15.8054 21.7704C15.8684 21.6917 15.9627 21.5187 16.0256 21.4558C15.9941 21.3929 15.8841 21.2041 15.8683 21.1255C15.774 21.3457 15.4909 21.9119 15.3965 22.1321V22.1164Z" fill="white"/>
<path d="M18.8187 15.5211C18.6303 15.9763 18.4419 16.4159 18.0652 16.9025C18.0181 16.9653 17.9709 17.0124 17.9238 17.0752C18.0965 17.0752 18.2535 17.1066 18.3948 17.1694C18.6302 17.2793 18.8187 17.452 18.9443 17.6718C18.9443 17.6718 18.9443 17.6875 18.9443 17.7032C18.9757 17.5933 19.0227 17.4991 19.0541 17.3892C19.1797 17.0595 19.3053 16.7142 19.4309 16.3845C19.478 16.2589 19.5408 16.149 19.5879 16.0234C19.3838 15.835 19.1483 15.6781 18.9286 15.5682C18.8815 15.5525 18.8343 15.5211 18.7872 15.5054L18.8187 15.5211Z" fill="white"/>
<path d="M19.5232 17.5621C19.3976 17.9231 19.272 18.2842 19.115 18.6295C19.115 18.7551 19.0679 18.8807 19.0208 19.022C18.958 19.2261 18.8481 19.4459 18.6911 19.697C18.5341 19.9482 18.3457 20.2151 18.1103 20.5134C17.8434 20.8431 17.5765 21.1257 17.3096 21.3611C16.6974 21.9106 16.4306 21.8792 16.2893 21.8007C16.2579 21.8478 16.2265 21.8792 16.1951 21.9263C15.834 22.3815 15.4729 22.8525 15.0333 22.9624L14.531 23.0879L14.7507 22.617C15.1432 21.7536 15.4886 20.9844 15.7869 20.1837C15.7869 20.1209 15.7869 20.0581 15.7869 20.011C15.7869 19.493 15.8497 19.022 15.991 18.6139C16.1166 18.2214 16.3207 17.8917 16.5875 17.6249C16.7445 17.4679 16.9329 17.3423 17.137 17.2481C17.1998 17.1853 17.2468 17.1068 17.3096 17.044C17.4352 16.9027 17.5608 16.7457 17.6864 16.6044C18.016 16.1962 18.1888 15.7881 18.3615 15.3643C18.0789 15.3015 17.7806 15.27 17.4509 15.2857C16.9486 15.3171 16.4619 15.4113 15.991 15.584C15.5043 15.7724 15.1276 15.9765 14.8136 16.2591C14.4525 16.5888 14.2013 16.9812 14.0287 17.4992C13.856 18.0173 13.7774 18.661 13.7617 19.493C13.7617 20.5605 13.9188 21.6751 14.217 22.5699C14.5624 23.6217 15.0333 24.1868 15.6299 24.2653C15.677 24.2653 15.7241 24.2653 15.7869 24.2653C16.305 24.2653 16.8858 23.8886 17.6236 23.0566C17.9533 22.6955 18.2673 22.3187 18.5499 21.9576C18.7069 21.7693 18.8638 21.5652 19.0208 21.3925C19.4133 20.9216 19.79 20.5448 20.104 20.2622C20.2453 20.1366 20.3709 20.0267 20.4965 19.9482C20.6221 19.8383 20.7319 19.7599 20.8418 19.6657C21.0616 19.4459 21.1558 19.2261 21.1558 18.9121C21.1558 18.6295 21.0616 18.2685 20.8889 17.829C20.6849 17.3737 20.4336 16.9184 20.1353 16.5573C20.0883 16.4945 20.0412 16.4318 19.9784 16.3847C19.947 16.4475 19.9156 16.5102 19.8999 16.573C19.7743 16.8713 19.6488 17.201 19.5232 17.5463V17.5621Z" fill="white"/>
<path d="M17.9375 6.11769L19.5074 6.05493L19.3817 7.82883L20.1196 7.4678L19.68 11.2983L19.2718 8.84928L18.3927 9.24175L17.9375 6.11769Z" fill="white"/>
<path d="M35.4755 40.9057L34.2824 41.4865L33.78 40.0894L33.3248 40.6074L32.3672 37.5305L33.4974 39.273L34.0469 38.6608L35.4755 40.9057Z" fill="white"/>
<path d="M0.419922 34.5164L1.14209 35.9293L2.61776 34.9559L2.66491 35.7879L5.80463 33.543L3.46545 34.3751L3.38698 33.4175L0.419922 34.5164Z" fill="white"/>
<path d="M30.2019 1L29.7309 6.14914L28.5849 5.37987L27.1406 8.6295L27.8157 3.11927L28.8047 3.85711L30.2019 1Z" fill="white"/>
<path d="M48.7871 43.1193L41.5344 40.8116L43.01 39.4145L38.7715 36.3062L46.4952 39.022L45.1137 40.1994L48.7871 43.1193Z" fill="white"/>
<path d="M51.4249 22.9936L47.2491 23.2291L47.72 22.2244L44.9414 21.4552L49.4469 21.3296L48.9602 22.2087L51.4249 22.9936Z" fill="white"/>
<path d="M11.3789 47.2637L13.3255 44.0298L13.8279 44.8932L15.8059 43.1978L13.6238 46.6201L13.1999 45.8194L11.3789 47.2637Z" fill="white"/>
<path d="M2.85156 4.21802L5.97557 10.1207L6.94887 8.64503L10.2927 11.8161L6.74478 5.55241L5.94414 6.93389L2.85156 4.21802Z" fill="white"/>
<path d="M24.8783 41.6279L23.7637 47.4364L25.2551 46.9498L25.8046 51L26.8249 44.7206L25.5063 45.2229L24.8783 41.6279Z" fill="white"/>
<path d="M21.0469 24.5484L21.3615 24.5955V24.218C21.2671 24.3281 21.157 24.4383 21.0469 24.5484Z" fill="white"/>
<path d="M31.5953 20.7487C31.0302 18.6922 29.162 13.4802 29.162 13.4802L28.3143 13.7628C28.4399 14.0454 28.5498 14.328 28.6283 14.5321C28.7068 14.7518 28.801 15.0187 28.8481 15.1129C28.8481 15.1286 28.8794 15.1443 28.8951 15.1443C29.1149 15.1443 29.3661 15.3327 29.5074 15.6466C29.633 15.9292 29.5545 16.4473 29.5074 16.6985C29.5074 16.7456 29.4446 16.7456 29.4289 16.6985C29.3818 16.6043 29.2875 16.4787 29.162 16.4002C28.9736 16.2746 28.7695 16.2275 28.6125 15.9606C28.4399 15.6781 28.5026 15.3797 28.6753 15.2385C28.6753 15.2385 28.691 15.2071 28.6753 15.1914C28.6282 15.1129 28.5184 14.8774 28.4399 14.7518C28.33 14.532 28.1573 14.2024 28.0003 13.8727L27.5293 14.0297C27.5293 14.0297 27.5293 14.2966 27.4979 14.5321C27.3252 15.7408 27.1055 16.9025 26.8543 18.0642C26.5403 17.2322 25.9124 14.846 25.9124 14.846L24.3111 15.5054C24.3111 15.5054 24.1855 16.3845 24.0913 16.6985C23.8088 17.8445 23.2436 19.1631 22.5215 20.3719C21.8621 21.4708 21.2813 22.2244 20.5749 23.1192C20.2766 23.496 19.6016 24.3593 19.6016 24.3593L20.8104 24.5163C20.8104 24.5163 20.8103 24.4379 20.8417 24.3908C20.9359 24.2966 21.0302 24.2024 21.1087 24.0925L20.7005 24.2181C20.7005 24.2181 20.6376 24.2181 20.6219 24.171C20.6219 24.1396 20.622 24.1082 20.6691 24.0925L21.2499 23.9198C21.7209 23.2918 22.0505 22.554 22.443 21.8633C22.2075 22.0046 21.972 22.1302 21.7365 22.2715C21.5953 22.3499 21.4853 22.1616 21.6109 22.0674C21.7836 21.9418 21.9563 21.8319 22.1447 21.7063C22.3331 21.5807 22.5843 21.3923 22.8198 21.361C23.118 21.3139 23.0238 21.6121 22.9767 21.8005C22.8825 22.1302 22.8041 22.4755 22.7413 22.8052C22.7099 22.9622 22.4744 22.8994 22.5058 22.7424C22.5529 22.4912 22.6157 22.2557 22.6785 22.0203C22.6785 22.0203 22.6784 21.9732 22.6941 21.9418C22.286 22.6482 21.9564 23.4017 21.4697 24.0611V24.5949H21.5482C21.5482 24.5949 22.6628 23.0407 23.1337 22.2872C23.8873 21.047 24.8763 19.2259 25.0804 18.2997C25.2059 18.7707 25.3943 19.9795 25.5827 20.9685C25.7083 21.7063 26.1321 23.7314 26.1321 23.7314C26.1321 23.7314 26.9956 22.2558 27.2311 21.6906C27.2939 21.5493 27.702 20.4661 27.7491 20.2934L27.9375 19.6027C28.2201 18.6608 28.5341 17.656 28.644 16.9025C28.9265 17.8915 29.319 19.1631 29.633 20.5603C29.8371 21.5022 29.9156 21.9261 29.9156 21.9261L32.3174 24.1396C32.3174 24.1396 31.8308 21.565 31.5953 20.733V20.7487Z" fill="white"/>
<path d="M8.69607 36.9968L8.64903 37.0596C8.64903 37.0596 8.64903 37.0596 8.64903 37.0753C8.53914 37.2165 8.33501 37.452 8.11523 37.7503C8.19373 37.8445 8.27226 37.9387 8.35075 38.0329C8.55483 37.6404 8.68042 37.3107 8.74322 37.1381C8.75892 37.091 8.77455 37.0596 8.77455 37.0596C8.77455 37.0596 8.80601 36.9811 8.8374 36.9183C8.8688 36.8712 8.96292 36.7299 9.44958 36.8555C9.59086 36.6514 9.71651 36.4473 9.70081 36.3845C9.65371 36.2903 9.13567 35.9607 8.93159 35.9136C8.8688 35.945 8.72748 36.1177 8.60189 36.3218C8.72748 36.463 8.88444 36.6828 8.77455 36.8712C8.74315 36.9183 8.72747 36.9497 8.69607 36.9968Z" fill="white"/>
<path d="M10.5498 35.474C10.487 35.3013 9.87478 34.9245 9.29393 34.6262L9.08984 35.4582C9.19973 35.4896 9.3724 35.5524 9.56078 35.6937C9.78056 35.835 9.92191 35.9763 10.0161 36.0705C10.3144 35.835 10.5655 35.5682 10.5655 35.474H10.5498Z" fill="white"/>
<path d="M18.1776 39.8225C18.1776 39.8225 18.1777 39.8225 18.162 39.7911C18.1306 39.7283 18.1148 39.6812 18.0991 39.6341C18.0206 39.4771 17.9108 39.2416 17.848 39.1003C17.7381 38.8963 17.6282 38.6765 17.5183 38.4724C16.6706 36.9026 15.7444 35.4112 14.2059 34.4221C14.6769 34.1082 15.1164 33.8413 15.4932 33.6216C15.87 33.4018 16.1997 33.2134 16.4822 32.9936C16.7491 32.7738 16.9375 32.5226 17.0474 32.1459C17.1573 31.7691 17.1573 31.251 17.0631 30.5917C16.8747 29.116 16.545 27.2636 15.5245 26.2275C14.8495 25.5367 13.8763 26.1333 12.7617 27.7031C12.1337 28.5509 11.49 29.587 10.5638 30.1836C10.5324 30.1993 10.344 30.3091 10.1399 30.4033C10.1242 30.4033 10.0929 30.419 10.0615 30.4347C9.93588 30.4818 9.82605 30.5132 9.73186 30.5603C9.73186 30.5603 9.71613 30.5603 9.70043 30.5603C9.59054 30.5917 9.48063 30.6231 9.38644 30.6545C9.19805 30.6859 8.97826 30.7173 8.97826 30.7173C8.97826 30.7173 8.97831 31.1097 8.93121 31.3766C8.72713 32.5854 8.55439 33.4959 8.3817 34.5321L8.14628 35.8036C8.00499 36.3845 7.76953 37.2322 7.76953 37.2636C7.81663 37.3421 7.87938 37.4049 7.92648 37.4834C8.13056 37.2165 8.31896 36.981 8.42885 36.8555L8.49161 36.7769C8.49161 36.7769 8.52305 36.7299 8.53875 36.7142C8.53875 36.6671 8.44456 36.5258 8.35037 36.4473L8.2718 36.3688L8.31894 36.2589C8.42883 36.0391 8.58585 35.8037 8.74284 35.6781L8.77417 35.5368L9.10387 34.1867L9.27654 34.2652C9.51201 34.375 10.7208 34.9402 10.8778 35.3641C10.9249 35.5054 10.8778 35.8193 10.1086 36.3845L10.03 36.4316C9.98294 36.6513 9.79457 36.9339 9.65329 37.0909L9.59053 37.1694L9.49634 37.138C9.33935 37.0909 9.16667 37.0752 9.10387 37.0752C9.10387 37.0909 9.08814 37.1066 9.07245 37.1223C9.07245 37.1223 9.07251 37.1694 9.04111 37.2008C8.96262 37.3892 8.80556 37.766 8.57008 38.2212C9.29221 39.0533 10.1556 39.901 10.8307 40.5289C10.8778 40.5289 11.129 37.3578 11.1604 36.0077C11.1604 36.0077 11.1761 36.0077 11.1918 36.0077C12.8716 37.1851 14.3943 38.1427 15.7758 39.6969C16.2938 40.2778 17.3456 41.5964 17.3456 41.5964L19.3707 42.0831C19.3707 42.0831 18.523 40.4661 18.1933 39.7597L18.1776 39.8225ZM12.9501 33.2918C12.2436 33.8256 11.8982 34.1239 11.1761 34.4221C11.2075 33.3389 11.2075 32.7895 11.2389 31.7063C11.8825 31.2354 12.1965 30.8586 12.8401 30.1678C13.264 29.6969 13.6251 29.4771 13.9076 29.5242C14.1902 29.5713 14.3786 29.9167 14.41 30.4818C14.4571 31.0156 14.3472 31.5336 14.0803 32.0203C13.8134 32.5226 13.4367 32.9308 12.9501 33.2918Z" fill="white"/>
</g>
<defs>
<filter id="filter0_d_1723_7042" x="0.308808" y="0.888886" width="51.7631" height="50.7572" filterUnits="userSpaceOnUse" color-interpolation-filters="sRGB">
<feFlood flood-opacity="0" result="BackgroundImageFix"/>
<feColorMatrix in="SourceAlpha" type="matrix" values="0 0 0 0 0 0 0 0 0 0 0 0 0 0 0 0 0 0 127 0" result="hardAlpha"/>
<feOffset dx="0.267497" dy="0.267497"/>
<feGaussianBlur stdDeviation="0.189306"/>
<feColorMatrix type="matrix" values="0 0 0 0 0.00392157 0 0 0 0 0.00392157 0 0 0 0 0.00392157 0 0 0 0.2 0"/>
<feBlend mode="normal" in2="BackgroundImageFix" result="effect1_dropShadow_1723_7042"/>
<feBlend mode="normal" in="SourceGraphic" in2="effect1_dropShadow_1723_7042" result="shape"/>
</filter>
</defs>
</svg>
