<svg width="77" height="76" viewBox="0 0 77 76" fill="none" xmlns="http://www.w3.org/2000/svg">
<g opacity="0.8">
<path d="M11.125 66.7042C17.8146 50.7695 23.5255 40.2328 31.5502 24.6416C32.0605 23.6181 33.4236 21.7884 33.9688 21.3187C34.8636 20.5546 36.1358 19.4048 38.5544 18.8931C38.5264 18.4234 38.778 17.9186 39.3862 17.7364C41.2805 17.1966 43.1539 16.7759 45.0063 16.4745C42.8114 16.131 40.5815 15.9557 38.3377 15.9417C38.0161 15.9417 37.7016 15.7594 37.5268 15.472C37.38 15.2266 37.366 14.9462 37.4709 14.7079C39.9174 9.60428 42.343 4.70399 44.7337 0C41.3784 3.96089 37.9462 8.31436 34.5001 13.0604C34.1086 13.5932 33.2488 13.474 33.0042 12.8501C32.0186 10.9643 31.026 9.11355 30.0404 7.29084C30.4178 9.26778 30.7883 11.2517 31.1658 13.2427C31.3615 14.3714 30.5227 15.1846 29.4811 14.7219C24.0498 12.5627 18.6674 11.3779 13.5995 11.1676C18.3179 12.3243 23.3088 14.3223 28.3627 17.1615C29.0897 17.5891 29.1456 18.2972 28.0971 19.0403C25.8113 20.7368 23.5395 22.6086 21.3027 24.6486C23.7213 23.3026 26.1818 22.1599 28.6563 21.2205C29.1456 21.0383 29.5441 21.4869 29.3553 21.9566C23.6583 36.0125 16.8639 50.4891 11.132 66.7042H11.125Z" fill="white"/>
<path d="M74.9885 24.4665C70.1513 16.1031 59.8828 11.1607 42.8268 14.5888L37.1578 15.8998L35.7388 19.391C39.835 18.739 44.5045 17.8557 48.398 21.8797C50.0826 23.8145 50.7187 26.9903 50.2364 29.5911C49.0341 35.3607 43.3231 41.9295 35.1307 46.6755C28.9863 50.2368 22.6323 51.9964 17.5015 51.9334L16.0755 51.8703C12.2519 51.5478 9.2601 50.0966 7.76421 47.5098C5.2827 43.1984 7.61742 36.8539 13.1257 31.1404C14.4748 29.7383 16.0196 28.3713 17.7322 27.0884C18.1376 26.78 18.7597 26.1841 18.7597 26.1841C16.8165 27.3408 15.2017 28.3433 12.154 31.0914C8.14168 34.7087 5.33863 38.242 3.12275 42.287C-0.519123 49.3745 -1.14125 56.5883 2.13713 62.2527C8.19061 72.7193 23.6039 73.0557 40.6109 65.842C50.7956 61.5166 61.7282 55.8732 68.5296 42.0907C63.287 55.4035 54.3536 61.6638 52.6899 62.8135L60.1834 60.6613C69.2216 55.2002 81.3985 36.7628 74.9815 24.4735L74.9885 24.4665ZM42.0509 57.9273C31.4678 64.0544 20.2626 66.0103 12.3288 63.8441L14.2231 59.3504C20.9756 60.1776 29.6434 58.2007 37.9057 53.4196C52.1097 45.1963 59.743 31.7784 54.9477 23.45C52.3544 18.9423 46.6504 16.8532 39.7162 17.1897C49.3137 15.7315 57.5201 18.0309 60.9802 24.0389C66.4465 33.538 57.9745 48.7086 42.0509 57.9273ZM59.757 58.6563C69.9696 47.019 70.6686 38.908 70.6756 32.0237C69.7459 39.3567 64.671 46.7807 62.3853 48.8347C67.4601 40.5695 69.8507 30.9932 64.5173 23.0574C60.0925 17.0355 52.7808 15.1777 43.8963 15.395C59.0929 12.009 68.8861 17.7716 72.7517 24.4525C78.1201 33.7273 72.4581 48.0776 59.75 58.6493L59.757 58.6563Z" fill="white"/>
<path d="M7.94506 75.2148C7.86817 75.3971 7.67244 75.5373 7.49769 75.5373C6.97343 75.5373 6.54004 75.7336 5.93189 75.9649C5.89694 75.986 5.855 75.986 5.82704 75.986C5.69423 75.986 5.63132 75.8598 5.69423 75.7056L5.70821 75.6705C5.72918 75.6144 5.72219 75.5934 5.70821 75.5934C5.66627 75.5934 5.61035 75.6355 5.59637 75.6495C5.32375 75.8107 4.8624 76 4.3661 76C2.46478 76 2.47876 74.5559 3.24069 72.8032C4.00261 71.0577 5.27482 69.6205 7.34391 69.6205C7.66545 69.6205 7.99399 69.7187 8.16874 69.8238H8.18971C8.23166 69.8238 8.2736 69.7888 8.28758 69.7467L9.18232 67.6856C9.28018 67.4613 9.23125 67.3421 9.1194 67.279C9.07746 67.258 9.05649 67.2159 9.05649 67.1599C9.05649 67.1038 9.05649 67.0407 9.08445 66.9776C9.16134 66.8093 9.35008 66.6551 9.51784 66.6551H9.60871C9.98618 66.6551 10.4965 66.4869 10.9928 66.2275C11.0557 66.1924 11.1256 66.1714 11.1815 66.1714C11.3353 66.1714 11.4192 66.3116 11.3353 66.5149L7.86118 74.4857C7.78429 74.668 7.81225 74.8293 7.92409 74.8924C7.95904 74.9274 7.98001 74.9695 7.987 75.0115C7.987 75.0676 7.987 75.1307 7.95904 75.1938L7.94506 75.2148ZM6.12063 74.633C6.19053 74.5348 6.24645 74.4297 6.29538 74.3245L7.70739 71.0857C7.75633 70.9805 7.7773 70.8824 7.7773 70.7983C7.7773 70.4758 7.57458 70.2164 7.12721 70.2164C6.14859 70.2164 5.49152 71.3871 4.86939 72.8103C4.25426 74.2264 3.88378 75.4041 4.86939 75.4041C5.32375 75.4041 5.82005 75.0536 6.12762 74.633H6.12063Z" fill="white"/>
<path d="M16.1122 72.7611C15.3502 74.5207 14.0221 75.9579 11.96 75.9579C9.89793 75.9579 9.82803 74.5207 10.59 72.7611C11.3519 71.0155 12.666 69.5784 14.7351 69.5784C16.8042 69.5784 16.8671 71.0155 16.1052 72.7611H16.1122ZM14.4835 72.7611C15.0986 71.345 15.4621 70.1813 14.4835 70.1813C13.5048 70.1813 12.8478 71.352 12.2326 72.7611C11.6105 74.1842 11.24 75.355 12.2326 75.355C13.2252 75.355 13.8683 74.1842 14.4905 72.7611H14.4835Z" fill="white"/>
<path d="M19.7696 75.0816C19.7416 75.1447 19.6927 75.2078 19.6368 75.2499C19.3083 75.5373 18.6652 75.9439 17.9801 75.9439C16.7499 75.9439 17.0784 74.8152 17.337 74.2263L19.0007 70.4127C19.0496 70.2935 19.0147 70.2094 18.9028 70.2094H18.3017C18.1549 70.2094 18.092 70.0692 18.1619 69.9079V69.8869C18.2388 69.7397 18.3995 69.6065 18.5393 69.5994C19.9723 69.4382 21.0418 67.98 21.4123 67.4052C21.4962 67.279 21.643 67.1809 21.7758 67.1809C21.8457 67.1809 21.8946 67.2159 21.9226 67.265C21.9505 67.3211 21.9435 67.3912 21.9086 67.4823L21.0698 69.4102C21.0208 69.5153 21.0698 69.6135 21.1746 69.6135H22.0204C22.0903 69.6135 22.1393 69.6485 22.1672 69.6976C22.1952 69.7537 22.1952 69.8168 22.1672 69.8939V69.9149C22.0903 70.0762 21.8946 70.2164 21.7478 70.2164H20.923C20.8181 70.2164 20.6923 70.3005 20.6434 70.4197L18.9867 74.2263C18.6861 74.9134 18.9308 74.9975 19.1055 74.9975C19.2384 74.9975 19.3712 74.9414 19.49 74.8713C19.5459 74.8362 19.6088 74.8152 19.6578 74.8152C19.7137 74.8152 19.7696 74.8503 19.7836 74.8993H19.7906C19.8185 74.9554 19.8046 75.0185 19.7766 75.0816H19.7696Z" fill="white"/>
<path d="M31.6316 68.6671C31.5198 68.6741 31.4289 68.7302 31.345 68.8143L26.5568 74.4366C26.4519 74.5558 26.3331 74.647 26.2212 74.696C26.1024 74.7451 26.0045 74.7661 25.9137 74.7661C25.8717 74.7661 25.8368 74.7661 25.8018 74.7591C25.662 74.71 25.5851 74.5979 25.5991 74.4296L25.7739 71.7727C25.7739 71.7727 25.7599 71.7236 25.7319 71.7236C25.704 71.7236 25.662 71.7446 25.6341 71.7727L23.3623 74.4437C23.2574 74.5628 23.1386 74.654 23.0267 74.703C22.9149 74.7521 22.817 74.7731 22.7331 74.7731C22.6842 74.7731 22.6493 74.7731 22.6143 74.7661C22.4745 74.7171 22.3976 74.6049 22.4116 74.4366L22.7331 69.5854C22.7331 69.4663 22.6702 69.4032 22.5584 69.4032C22.4885 69.4032 22.4396 69.3751 22.4116 69.326C22.3836 69.263 22.3836 69.1928 22.4116 69.1227C22.4465 69.0456 22.5095 68.9755 22.5933 68.9194C22.6353 68.8914 22.6632 68.8704 22.6982 68.8563C22.7331 68.8493 22.7541 68.8493 22.7751 68.8353H22.817C23.1456 68.8423 23.4881 68.8563 23.8446 68.8563C24.2011 68.8563 24.5506 68.8493 24.8931 68.8353C24.963 68.8353 25.0119 68.8634 25.0469 68.9124C25.0748 68.9615 25.0679 69.0316 25.0329 69.1017C25.0119 69.1438 24.984 69.1928 24.935 69.2419C24.8442 69.3331 24.7323 69.3821 24.6205 69.3891C24.5925 69.3891 24.5576 69.3961 24.5366 69.4172C24.5226 69.4242 24.5017 69.4452 24.4947 69.4663C24.4947 69.4733 24.4807 69.4943 24.4877 69.5083L24.2919 72.4387C24.2919 72.4387 24.3059 72.4877 24.3339 72.4877H24.3549C24.3968 72.4877 24.4318 72.4667 24.4667 72.4247L25.704 70.9805C25.7459 70.9314 25.7809 70.8824 25.8018 70.8333C25.8228 70.7842 25.8368 70.7351 25.8438 70.6861L25.9137 69.5714C25.9137 69.4522 25.8508 69.3891 25.7319 69.3891C25.655 69.3891 25.5991 69.3611 25.5781 69.312C25.5572 69.2489 25.5642 69.1788 25.5921 69.1087C25.6271 69.0316 25.69 68.9615 25.7599 68.9054C25.8298 68.8634 25.8787 68.8423 25.9207 68.8353C25.9626 68.8283 25.9836 68.8283 25.9906 68.8283C26.3191 68.8353 26.6546 68.8493 27.0111 68.8493H27.0391C27.2907 68.8493 27.5354 68.8493 27.78 68.8423H27.808C27.8849 68.8423 27.9618 68.8423 28.0457 68.8353H28.1156C28.1575 68.8423 28.1925 68.8774 28.2134 68.9124C28.2414 68.9615 28.2344 69.0316 28.1994 69.1157C28.1645 69.1858 28.1226 69.2489 28.0457 69.298C27.9688 69.3471 27.8989 69.3891 27.822 69.3961H27.801C27.801 69.3961 27.7381 69.4032 27.7171 69.4242C27.7031 69.4312 27.6822 69.4522 27.6752 69.4733C27.6752 69.4803 27.6612 69.5013 27.6682 69.5153L27.4655 72.4457C27.4655 72.4457 27.4795 72.4948 27.5074 72.4948H27.5284C27.5703 72.4948 27.6053 72.4737 27.6472 72.4317L30.7508 68.8073C30.7508 68.8073 30.7718 68.7792 30.7858 68.7582C30.7928 68.7372 30.7928 68.7161 30.7928 68.6951C30.7788 68.6671 30.7508 68.653 30.7159 68.653C30.646 68.653 30.5971 68.625 30.5621 68.5759C30.5411 68.5128 30.5481 68.4427 30.5761 68.3726C30.611 68.2955 30.674 68.2254 30.7439 68.1693C30.8138 68.1273 30.8627 68.1062 30.9046 68.0992C30.9466 68.0922 30.9675 68.0922 30.9745 68.0922C31.1143 68.0992 31.2681 68.0992 31.4359 68.0992C31.5897 68.0992 31.7365 68.0992 31.8763 68.0922C31.9532 68.0922 32.0091 68.1203 32.03 68.1693C32.051 68.2184 32.058 68.2815 32.03 68.3516C32.0091 68.3937 31.9881 68.4217 31.9601 68.4638C31.8553 68.5829 31.7504 68.646 31.6176 68.653L31.6316 68.6671Z" fill="white"/>
<path d="M31.7536 74.5628C31.6767 74.7241 31.488 74.8643 31.3202 74.8643H31.2992C31.0057 74.8573 30.6981 74.8433 30.3975 74.8433C30.0969 74.8433 29.7824 74.8503 29.4748 74.8643H29.4538C29.2861 74.8643 29.2232 74.7311 29.3001 74.5698C29.321 74.5208 29.349 74.4787 29.3979 74.4296C29.4608 74.3595 29.5307 74.3105 29.6146 74.2824C29.7754 74.2193 29.9432 74.0721 30.027 73.9039L31.6767 70.3496C31.7746 70.1393 31.7256 70.0271 31.6138 69.957C31.5719 69.936 31.5509 69.8939 31.5509 69.8448C31.5509 69.7957 31.5509 69.7467 31.5789 69.6836C31.6557 69.5223 31.8445 69.3821 32.0122 69.3821H32.0682C32.4596 69.3821 32.9769 69.2209 33.4802 68.9825C33.5431 68.9545 33.613 68.9335 33.6689 68.9335C33.8227 68.9335 33.9066 69.0667 33.8227 69.2419L31.6557 73.8968C31.5789 74.0651 31.6068 74.2193 31.7187 74.2894C31.7606 74.3105 31.7746 74.3525 31.7816 74.4016C31.7816 74.4507 31.7816 74.4997 31.7536 74.5628ZM32.886 67.3141C33.1586 66.7322 33.7388 66.2695 34.3819 66.2695C35.025 66.2695 35.1788 66.7322 34.9062 67.3141C34.6405 67.8889 34.0394 68.3586 33.4103 68.3586C32.7812 68.3586 32.6204 67.8889 32.886 67.3141Z" fill="white"/>
<path d="M37.7742 73.0066C37.173 74.3036 35.768 74.7733 34.5797 74.7733C33.5591 74.7733 32.8182 74.4438 32.7832 73.7918C32.7832 73.6726 32.8112 73.5394 32.8741 73.4132C33.0348 73.0697 33.3913 72.7402 33.7898 72.7122H33.8667C34.2372 72.7122 34.37 72.9856 34.2511 73.3431C34.0554 73.932 34.2581 74.2264 34.8523 74.2264C34.9502 74.2264 35.5932 74.2054 35.9148 73.5044C36.5928 72.0392 33.2655 72.6 34.2441 70.4899C34.8103 69.2771 36.0546 68.8144 37.152 68.8144C38.2495 68.8144 38.7877 69.1579 38.9625 69.5855C39.0394 69.7748 39.0114 69.9781 38.9275 70.1604C38.7668 70.5039 38.3823 70.7703 38.0048 70.7703C37.7252 70.7703 37.4876 70.6301 37.5854 70.1674C37.6903 69.7187 37.5505 69.3612 36.9843 69.3612C36.7816 69.3612 36.3132 69.4804 36.0686 70.0132C35.4884 71.261 38.7738 70.8334 37.7672 73.0066H37.7742Z" fill="white"/>
<path d="M43.7471 74.5279C43.6703 74.6891 43.4815 74.8293 43.3138 74.8293H43.2928C42.9992 74.8223 42.6986 74.8083 42.3911 74.8083C42.0835 74.8083 41.7829 74.8153 41.4684 74.8293H41.4474C41.2936 74.8293 41.2167 74.6961 41.2936 74.5279C41.3146 74.4858 41.3425 74.4367 41.3845 74.3947C41.4474 74.3246 41.5173 74.2755 41.6012 74.2475C41.7619 74.1844 41.9297 74.0371 42.0136 73.8689L43.4536 70.7703C43.7402 70.1464 43.7052 69.6696 43.0831 69.6696C42.6567 69.6696 42.2582 69.8589 41.9017 70.1884C41.7899 70.2866 41.699 70.4128 41.6431 70.5389L40.0913 73.8689C40.0144 74.0371 40.0424 74.1914 40.1542 74.2615C40.1961 74.2825 40.2101 74.3246 40.2171 74.3736C40.2171 74.4227 40.2171 74.4718 40.1892 74.5349C40.1123 74.6961 39.9235 74.8363 39.7558 74.8363H39.7348C39.4412 74.8293 39.1336 74.8153 38.8331 74.8153C38.5325 74.8153 38.2179 74.8223 37.9104 74.8363H37.8894C37.7216 74.8363 37.6587 74.7031 37.7356 74.5419C37.7566 74.4928 37.7845 74.4508 37.8335 74.4017C37.8964 74.3316 37.9663 74.2825 38.0502 74.2545C38.2109 74.1914 38.3787 74.0441 38.4626 73.8759L42.8035 64.4749C42.9013 64.2646 42.8524 64.1524 42.7406 64.0823C42.6986 64.0613 42.6776 64.0192 42.6776 63.9702C42.6776 63.9211 42.6776 63.872 42.7056 63.8089C42.7825 63.6407 42.9852 63.5005 43.16 63.5005H43.2299C43.6073 63.5005 44.1176 63.3532 44.6069 63.1079C44.6698 63.0798 44.7397 63.0588 44.7957 63.0588C44.9494 63.0588 45.0333 63.192 44.9494 63.3673L42.2093 69.3261C42.1883 69.3752 42.2093 69.4032 42.2512 69.4032C42.2722 69.4032 42.2792 69.4032 42.3072 69.3822C42.7266 69.1228 43.3277 68.8775 43.9778 68.8775C45.3758 68.8775 45.5925 69.6907 45.0194 70.9245L43.6493 73.8689C43.5724 74.0371 43.6003 74.1914 43.7122 74.2615C43.7541 74.2825 43.7751 74.3246 43.7751 74.3736C43.7751 74.4227 43.7751 74.4718 43.7471 74.5349V74.5279Z" fill="white"/>
<path d="M47.0778 74.4717C47.0009 74.6329 46.8122 74.7731 46.6444 74.7731H46.6235C46.3299 74.7661 46.0223 74.7521 45.7217 74.7521C45.4212 74.7521 45.1066 74.7591 44.799 74.7731H44.7781C44.6103 74.7731 44.5474 74.6399 44.6243 74.4787C44.6453 74.4296 44.6732 74.3876 44.7221 74.3385C44.7851 74.2684 44.855 74.2193 44.9388 74.1913C45.0996 74.1282 45.2674 73.981 45.3513 73.8127L47.0009 70.2584C47.0988 70.0481 47.0499 69.9359 46.938 69.8658C46.8961 69.8448 46.8751 69.8027 46.8751 69.7537C46.8751 69.7046 46.8751 69.6555 46.9031 69.5924C46.98 69.4312 47.1687 69.291 47.3365 69.291H47.3924C47.7838 69.291 48.3011 69.1297 48.8044 68.8914C48.8673 68.8633 48.9372 68.8423 48.9931 68.8423C49.1469 68.8423 49.2308 68.9755 49.1469 69.1508L46.98 73.8057C46.9031 73.9739 46.931 74.1282 47.0429 74.1983C47.0848 74.2193 47.1058 74.2614 47.1058 74.3104C47.1058 74.3595 47.1058 74.4086 47.0778 74.4717ZM48.2102 67.2229C48.4828 66.641 49.063 66.1784 49.7061 66.1784C50.3492 66.1784 50.503 66.641 50.2304 67.2229C49.9648 67.7978 49.3636 68.2675 48.7345 68.2675C48.1054 68.2675 47.9446 67.7978 48.2102 67.2229Z" fill="white"/>
<path d="M54.5946 71.7867C53.8327 73.4342 52.5045 74.7802 50.4425 74.7802C48.3804 74.7802 48.3104 73.4342 49.0724 71.7867C49.8343 70.1533 51.1485 68.8073 53.2175 68.8073C55.2866 68.8073 55.3495 70.1533 54.5876 71.7867H54.5946ZM52.9659 71.7867C53.581 70.4618 53.9445 69.3681 52.9659 69.3681C51.9873 69.3681 51.3302 70.4618 50.7151 71.7867C50.0929 73.1187 49.7225 74.2194 50.7151 74.2194C51.7077 74.2194 52.3508 73.1257 52.9729 71.7867H52.9659Z" fill="white"/>
<path d="M60.1441 74.4578C60.0672 74.626 59.8645 74.7662 59.7107 74.7662H59.6898C59.3962 74.7452 59.0886 74.7452 58.788 74.7452C58.4874 74.7452 58.1729 74.7452 57.8583 74.7662H57.8513C57.6836 74.7662 57.6277 74.626 57.6976 74.4648C57.7185 74.4157 57.7465 74.3737 57.7954 74.3246C57.8444 74.2615 57.9212 74.2124 57.9981 74.1844C58.1799 74.1143 58.3407 73.96 58.4245 73.7918L59.8645 70.6932C60.1511 70.0693 60.1161 69.5926 59.487 69.5926C59.0606 69.5926 58.6552 69.7959 58.3057 70.1113C58.1939 70.2235 58.103 70.3427 58.0471 70.4618L56.4953 73.7918C56.4114 73.9741 56.4533 74.1143 56.5582 74.1844C56.6071 74.2054 56.6281 74.2475 56.6351 74.2965C56.6351 74.3456 56.6351 74.4087 56.6071 74.4578C56.5302 74.626 56.3275 74.7662 56.1737 74.7662H56.1527C55.8591 74.7452 55.5516 74.7452 55.251 74.7452C54.9504 74.7452 54.6359 74.7452 54.3213 74.7662H54.3143C54.1466 74.7662 54.0767 74.626 54.1605 74.4578C54.1815 74.4157 54.2095 74.3666 54.2514 74.3246C54.3073 74.2615 54.3912 74.2124 54.4611 74.1844C54.6429 74.1143 54.8036 73.96 54.8875 73.7918L56.5372 70.2375C56.6351 70.0272 56.5861 69.915 56.4743 69.859C56.4393 69.8309 56.4044 69.7959 56.3974 69.7468C56.3974 69.6977 56.4114 69.6346 56.4393 69.5785C56.5162 69.4173 56.705 69.2771 56.8587 69.2771H56.9426C57.3341 69.2771 57.8304 69.1158 58.3267 68.8775C58.3896 68.8494 58.4595 68.8284 58.5154 68.8284C58.6692 68.8284 58.7531 68.9616 58.6692 69.1509L58.6203 69.249C58.5993 69.2981 58.6203 69.3262 58.6692 69.3262C58.6902 69.3262 58.6972 69.3262 58.7251 69.3051C59.1445 69.0528 59.7387 68.8144 60.3888 68.8144C61.7868 68.8144 61.9965 69.6206 61.4233 70.8544L60.0532 73.7988C59.9694 73.9811 60.0113 74.1213 60.1161 74.1914C60.1651 74.2124 60.1861 74.2545 60.193 74.3036C60.193 74.3526 60.193 74.4157 60.1651 74.4648L60.1441 74.4578Z" fill="white"/>
</g>
</svg>
