<svg width="36" height="50" viewBox="0 0 36 50" fill="none" xmlns="http://www.w3.org/2000/svg">
<path d="M20.3844 9.86247C21.0709 10.2643 21.6234 11.2187 21.6234 11.9722C21.6234 12.7257 21.0709 13.0773 20.3844 12.6754C19.6979 12.2736 19.1621 11.3359 19.1621 10.549C19.1621 9.76201 19.7146 9.4606 20.3844 9.84571V9.86247Z" fill="white"/>
<path d="M9.4344 24.5637C8.8986 24.5637 8.346 24.4465 7.91066 24.1953L7.60929 24.0279C6.57117 23.4251 6.00195 22.6381 6.00195 21.7842C6.00195 20.8968 6.58798 20.0596 7.67633 19.4233L13.9552 15.723C14.2399 15.5555 14.357 15.1704 14.2063 14.869L13.6203 13.7305L12.5152 14.6347C12.1468 14.936 11.6278 14.9193 11.1088 14.6347C10.7237 14.417 10.372 14.0654 10.1208 13.63C9.4511 12.5249 9.40089 11.3863 10.0371 10.9008L11.4603 9.77898C11.4603 9.77898 11.5441 9.64502 11.5106 9.5613L9.95345 6.51393C9.60183 5.81069 9.50133 5.07396 9.70225 4.57165C9.81946 4.27026 10.0204 4.06936 10.2883 3.9689C10.6232 3.83495 11.0251 3.90194 11.4269 4.13635C11.879 4.40425 12.3143 4.87307 12.599 5.44236L13.8045 7.81994C13.8045 7.81994 13.8045 7.8367 13.838 7.8367C13.838 7.8367 13.8547 7.8367 13.8714 7.8367L14.9598 6.96599C15.3282 6.66461 15.8305 6.68135 16.3496 6.96599C16.7179 7.18366 17.0527 7.51856 17.3374 7.93716C18.0071 8.97527 18.0406 10.1641 17.4378 10.6664L15.9477 11.8552C15.9477 11.8552 15.8975 11.9389 15.9142 11.9724L17.4881 15.0532C18.0072 16.0579 17.7728 16.8448 17.6053 17.2132C17.4881 17.4644 17.2871 17.6653 17.0025 17.8327L16.1319 18.3518L16.9188 18.8038C17.3541 19.055 17.5886 19.4066 17.5886 19.775C17.5886 20.1434 17.3709 20.4949 16.9523 20.7293C16.2156 21.1647 15.0268 21.1647 14.2566 20.7293L13.1515 20.0931L10.7404 21.5163C10.5394 21.6335 10.4893 21.734 10.4893 21.7507C10.4893 21.7507 10.5227 21.801 10.6231 21.868L10.8911 22.0186C11.3599 22.2865 11.6278 22.6716 11.6278 23.0902C11.6278 23.5088 11.3767 23.8772 10.9246 24.1451C10.4893 24.3962 9.93666 24.5302 9.38412 24.5302L9.4344 24.5637ZM13.6537 13.0607C13.6537 13.0607 13.7375 13.0607 13.771 13.0607C13.9384 13.0942 14.0892 13.2114 14.1561 13.3621L14.7589 14.5509C15.0603 15.1369 14.8426 15.9072 14.2734 16.242L8.01112 19.9424C7.1237 20.4614 6.63822 21.1145 6.63822 21.7675C6.63822 22.387 7.10698 22.9898 7.92742 23.4586L8.21204 23.626C8.88178 24.0111 9.98689 23.9944 10.6399 23.626C10.8911 23.4753 11.0417 23.2912 11.0417 23.107C11.0417 22.9228 10.891 22.7219 10.6231 22.5712L10.3553 22.4205C9.98692 22.2028 9.90317 21.9349 9.90317 21.7507C9.90317 21.4661 10.1041 21.1814 10.4725 20.9638L13.2017 19.3564L13.3691 19.4401L14.6249 20.1601C15.1942 20.4782 16.1486 20.4782 16.7011 20.1601C16.9188 20.0429 17.036 19.8754 17.036 19.7415C17.036 19.5908 16.9021 19.4401 16.6845 19.3062L15.7467 18.7704C15.5793 18.6699 15.4789 18.5024 15.4789 18.3182C15.4789 18.1341 15.5793 17.9499 15.7467 17.8494L16.7514 17.2467C16.9188 17.1462 17.0361 17.029 17.1031 16.8951C17.237 16.6272 17.3876 16.0578 17.0025 15.2876L15.4287 12.2068C15.278 11.9054 15.345 11.5203 15.6296 11.3027L17.1031 10.1306C17.4044 9.87943 17.3877 9.04223 16.8686 8.23853C16.651 7.90366 16.3663 7.61903 16.0984 7.46834C15.9644 7.38462 15.6296 7.23391 15.4119 7.40135L14.3235 8.272C14.1728 8.38921 13.9551 8.43947 13.771 8.40598C13.57 8.35575 13.4027 8.23856 13.319 8.05438L12.1134 5.67674C11.8789 5.22466 11.5441 4.83957 11.1757 4.63864C10.9413 4.50469 10.7237 4.45445 10.573 4.52142C10.4725 4.55491 10.3888 4.63862 10.3385 4.77257C10.2046 5.10744 10.2883 5.67676 10.5562 6.21256L12.1134 9.25993C12.2808 9.5948 12.1971 10.0134 11.8957 10.2478L10.4725 11.3696C10.1711 11.604 10.1711 12.391 10.7069 13.2617C10.9079 13.6133 11.1924 13.8812 11.4771 14.0486C11.611 14.1323 11.946 14.283 12.1804 14.1156L13.3524 13.178C13.4528 13.0942 13.5868 13.044 13.704 13.044L13.6537 13.0607Z" fill="white"/>
<path d="M20.3195 13.7137C20.8386 14.0151 21.2404 14.8188 21.1232 15.3378L20.8218 16.6439C20.7381 17.0624 20.3697 17.096 20.0014 16.8951C19.8339 16.7946 19.6664 16.6439 19.5157 16.4429C19.2646 16.0913 19.1307 15.6225 19.2144 15.3044L19.4991 13.9984C19.5828 13.63 19.9009 13.5128 20.2525 13.697C20.2692 13.697 20.286 13.7137 20.3028 13.7305L20.3195 13.7137Z" fill="white"/>
<path d="M23.3144 31.9809C23.1302 31.9809 22.9293 31.9308 22.7284 31.8135C22.0921 31.4452 21.5898 30.5745 21.5898 29.821C21.5898 29.4192 21.7405 29.101 22.0084 28.9503C22.2763 28.7996 22.6279 28.8164 22.9795 29.0173C23.6325 29.3857 24.1348 30.2563 24.1181 30.9931C24.1181 31.3949 23.9675 31.7131 23.6828 31.8638C23.5656 31.9308 23.4316 31.9642 23.2976 31.9642L23.3144 31.9809ZM22.4103 29.3522C22.4103 29.3522 22.3098 29.3522 22.2763 29.3857C22.1591 29.4527 22.1089 29.6034 22.1089 29.821C22.1089 30.3736 22.5107 31.0935 22.9963 31.3614C23.1804 31.4786 23.3647 31.4954 23.4651 31.4284C23.5823 31.3614 23.6325 31.2107 23.6325 30.9931C23.6325 30.4405 23.2307 29.7206 22.7452 29.4527C22.628 29.3857 22.5107 29.3522 22.4103 29.3522Z" fill="white"/>
<path d="M25.306 33.9066C26.3609 34.5261 27.3655 35.4805 28.2027 36.7195C28.8557 37.6739 28.9729 38.8124 28.4706 39.2478C28.1692 39.5157 27.7339 39.4989 27.2818 39.2478C26.9637 39.0636 26.6456 38.779 26.3944 38.3771C26.0763 37.9083 25.7079 37.5567 25.2893 37.3222C24.3014 36.753 23.481 37.2218 23.481 38.3604C23.481 39.4989 24.3014 40.9054 25.2725 41.4747C25.6744 41.7091 26.0595 41.7761 26.3777 41.6756C26.6456 41.5919 26.9637 41.6756 27.2818 41.8431C27.7339 42.0942 28.1692 42.5965 28.4706 43.1993C28.9562 44.2207 28.839 45.2253 28.186 45.4095C27.3488 45.6774 26.3441 45.4765 25.2893 44.8737C22.6773 43.3668 20.5341 39.6664 20.5509 36.6693C20.5676 33.6721 22.7108 32.4331 25.3228 33.9568L25.306 33.9066Z" fill="white"/>
<path d="M23.2812 23.1572C24.0179 23.5925 23.9509 24.3125 23.1807 24.7311C22.3938 25.1497 21.2218 25.0827 20.4348 24.6641C19.8153 24.3292 18.8609 24.2958 18.2916 24.6474L14.8256 26.6901C14.0721 27.1254 12.8833 27.1421 12.1131 26.6901C11.3429 26.2547 11.343 25.5683 12.0797 25.1162L17.94 21.6502C18.6433 21.2484 19.7818 21.2316 20.5185 21.6502C20.8534 21.8512 21.0209 22.0856 21.0711 22.3367C22.1427 22.5377 22.9296 22.9562 23.2812 23.1572Z" fill="white"/>
<path d="M8.74855 7.53531C8.84901 8.77435 8.16251 8.97525 7.17463 8.40597L2.60363 5.76043C3.07245 6.86552 3.80916 7.68596 4.57938 8.1213C5.03146 8.37246 5.48359 8.50641 5.88544 8.48967C6.06962 8.45618 6.2705 8.52315 6.47143 8.64035C6.87327 8.87477 7.25844 9.34359 7.47611 9.89613C7.79424 10.7333 7.61006 11.4533 7.05752 11.5203C6.32079 11.5873 5.46681 11.3528 4.59614 10.8505C2.62038 9.71196 1.07994 7.53531 0.393443 5.49257C-0.142356 3.91866 -0.1088 2.36149 0.360025 1.35687C0.962799 0.0341161 2.46971 -0.518447 4.41198 0.603383C6.6389 1.87591 8.48065 4.85631 8.74855 7.53531ZM2.62039 3.51678L6.13653 5.5428C5.98584 4.70562 5.26588 3.56702 4.37846 3.06471C3.49104 2.5624 2.77108 2.84703 2.62039 3.51678Z" fill="white"/>
<path d="M17.9086 30.8592C18.6119 31.2611 19.198 32.2824 19.198 33.0861V40.0013C19.1812 40.805 18.5951 41.1399 17.8919 40.738C17.5068 40.5204 17.1719 40.1185 16.9375 39.6999C16.2845 39.7167 15.5813 39.5492 14.7776 39.0971C12.3497 37.6907 10.374 34.275 10.3907 31.4955C10.3907 28.7161 12.3832 27.5775 14.811 28.984C15.5645 29.4193 16.2677 30.0723 16.9207 30.8425C17.1551 30.6248 17.5068 30.6248 17.9254 30.8592H17.9086ZM14.7776 35.9661C15.7152 36.5019 16.452 36.0833 16.452 35.0117C16.452 33.9401 15.7152 32.6675 14.7943 32.1317C13.8734 31.5959 13.12 32.0145 13.12 33.0861C13.12 34.1577 13.8567 35.4303 14.7776 35.9661Z" fill="white"/>
<path d="M31.5362 35.4304C32.2897 35.8657 32.9091 36.9373 32.9091 37.808V39.3652L34.1649 40.0851C34.8347 40.4702 35.3705 41.3912 35.3705 42.1614C35.3705 42.9316 34.8347 43.2162 34.1649 42.8311L32.9091 42.1112V45.1083C32.9091 45.6106 33.1269 46.2134 33.6124 46.498L33.8635 46.6487C34.617 47.084 35.2365 48.1557 35.2365 49.0263C35.2365 49.897 34.617 50.2486 33.8635 49.8133L33.6124 49.6626C31.5865 48.4905 30.1465 45.8115 30.1465 43.5344V36.2173C30.1632 35.3467 30.7827 34.995 31.5529 35.4304H31.5362Z" fill="white"/>
<path d="M17.9086 30.8592C18.6119 31.2611 19.198 32.2824 19.198 33.0861V40.0013C19.1812 40.805 18.5951 41.1399 17.8919 40.738C17.5068 40.5204 17.1719 40.1185 16.9375 39.6999C16.2845 39.7167 15.5813 39.5492 14.7776 39.0971C12.3497 37.6907 10.374 34.275 10.3907 31.4955C10.4075 28.7161 12.3832 27.5775 14.811 28.984C15.5645 29.4193 16.2677 30.0723 16.9207 30.8425C17.1551 30.6248 17.5068 30.6248 17.9254 30.8592H17.9086ZM14.7776 35.9661C15.7152 36.5019 16.452 36.0833 16.452 35.0117C16.452 33.9401 15.7152 32.6675 14.7943 32.1317C13.8734 31.5959 13.12 32.0145 13.12 33.0861C13.12 34.1577 13.8567 35.4303 14.7776 35.9661Z" fill="white"/>
</svg>
