<svg width="24" height="25" viewBox="0 0 24 25" fill="none" xmlns="http://www.w3.org/2000/svg">
<g clip-path="url(#clip0_1778_2555)">
<path d="M16.5 12.3828C16.5 13.4234 16.4438 14.4266 16.3453 15.3828H7.65469C7.55625 14.4266 7.45781 13.4234 7.45781 12.3828C7.45781 11.3422 7.55625 10.3391 7.65469 9.38281H16.3453C16.4438 10.3391 16.5 11.3422 16.5 12.3828ZM23.6203 9.38281C23.8687 10.3438 24 11.3469 24 12.3828C24 13.4187 23.8687 14.4219 23.6203 15.3828H17.85C17.9484 14.4172 18 13.3719 18 12.3828C18 11.3516 17.9484 10.3484 17.85 9.38281H23.6203ZM23.1281 7.88281H17.6578C17.1891 4.88937 16.2609 2.38063 15.0656 0.778531C18.7406 1.74641 21.7219 4.41125 23.1281 7.88281ZM16.1391 7.88281H7.86094C8.14687 6.17656 8.5875 4.66625 9.12656 3.44609C9.61875 2.33937 10.1672 1.53641 10.6969 1.03016C11.2219 0.531781 11.6578 0.382812 12 0.382812C12.3422 0.382812 12.7781 0.531781 13.3031 1.03016C13.8328 1.53641 14.3812 2.33937 14.8734 3.44609C15.4125 4.66625 15.8531 6.17656 16.1391 7.88281ZM0.872344 7.88281C2.27766 4.41125 5.25938 1.74641 8.93438 0.778531C7.73906 2.38063 6.81094 4.88937 6.34219 7.88281H0.872344ZM6.15 9.38281C6.05156 10.3484 5.95781 11.3516 5.95781 12.3828C5.95781 13.3719 6.05156 14.4172 6.15 15.3828H0.378047C0.13125 14.4219 0 13.4187 0 12.3828C0 11.3469 0.13125 10.3438 0.378047 9.38281H6.15ZM9.12656 21.3172C8.5875 20.0984 8.14687 18.5891 7.86094 16.8828H16.1391C15.8531 18.5891 15.4125 20.0984 14.8734 21.3172C14.3812 22.4281 13.8328 23.2297 13.3031 23.7359C12.7781 24.2328 12.3422 24.3828 11.9578 24.3828C11.6578 24.3828 11.2219 24.2328 10.6969 23.7359C10.1672 23.2297 9.61875 22.4281 9.12656 21.3172ZM8.93438 23.9891C5.25938 23.0188 2.27766 20.3563 0.872344 16.8828H6.34219C6.81094 19.8781 7.73906 22.3859 8.93438 23.9891ZM15.0656 23.9891C16.2609 22.3859 17.1891 19.8781 17.6578 16.8828H23.1281C21.7219 20.3563 18.7406 23.0188 15.0656 23.9891Z" fill="white"/>
</g>
<defs>
<clipPath id="clip0_1778_2555">
<rect width="24" height="24" fill="white" transform="translate(0 0.382812)"/>
</clipPath>
</defs>
</svg>
