<svg width="94" height="76" viewBox="0 0 94 76" fill="none" xmlns="http://www.w3.org/2000/svg">
<path d="M62.0788 4.5978C62.0788 4.5978 61.1281 5.64962 62.0788 6.6003C62.4024 6.92393 62.7261 7.02507 63.0295 7.02507C63.6161 7.02507 64.0814 6.6003 64.0814 6.58007C64.0814 6.58007 65.0321 5.52825 64.0814 4.57757C63.07 3.56621 64.0206 2.53462 64.142 2.41325C64.3038 2.25144 64.5061 1.9278 64.5466 1.54348C64.587 1.24007 64.5465 0.8153 64.1218 0.410755C63.3733 -0.337654 62.4227 0.107346 62.1193 0.410755C61.9575 0.572573 61.7551 0.875982 61.6945 1.24007C61.654 1.54348 61.6945 1.98848 62.1193 2.41325C62.7665 3.06053 62.7464 3.86962 62.0587 4.57757L62.0788 4.5978Z" fill="white"/>
<path d="M92.0536 19.8691C91.6086 19.6466 91.1636 19.6263 91.1434 19.6263H83.7402C83.7402 19.6263 82.9312 19.6061 82.4053 20.1118C82.0614 20.4354 81.8996 20.9006 81.8996 21.4872C81.8996 22.1547 81.5962 22.6402 80.9894 22.9436C80.5646 23.1661 80.1195 23.2066 80.0589 23.2066C79.9779 23.2066 79.5734 23.2268 79.1486 23.4291C78.7238 23.6516 78.2182 24.0966 78.2182 25.0472C78.2182 25.9979 78.7238 26.4631 79.1486 26.6654C79.5127 26.8475 79.897 26.8879 80.0184 26.8879C80.0184 26.8879 80.0589 26.8879 80.0791 26.8879C80.2207 26.9284 80.6051 27.0497 81.0096 27.2925C81.6164 27.6566 81.94 28.1016 81.94 28.6275C81.94 28.6679 81.9804 29.5579 82.7086 30.0838C82.7086 30.0838 82.8502 30.185 82.8502 30.3266C82.8502 30.4277 82.8098 30.5491 82.7086 30.6704C82.7086 30.6704 82.6682 30.7109 82.648 30.7109C82.5266 30.7918 82.2029 31.0143 82.0411 31.4795C82.0209 31.5604 81.9603 31.6211 81.8794 31.6413C81.8794 31.6413 81.8388 31.6413 81.8186 31.6413C81.7377 31.6413 81.6568 31.5604 81.5961 31.4593L81.5354 31.3581C81.2118 30.8525 80.7669 30.185 79.6139 30.185C78.016 30.185 77.2472 29.4568 77.2472 27.9802C77.2472 26.807 76.2763 25.8159 75.1234 25.8159C73.7277 25.8159 72.9996 26.8879 72.9996 27.96C72.9996 29.2343 71.9882 30.185 70.633 30.185C69.0755 30.185 68.5092 31.4997 68.5092 32.3291V36.6981C68.5092 38.7006 67.3562 39.0041 65.8189 39.0041H65.7784C65.1109 39.0041 64.5041 39.267 64.0389 39.6918C63.5332 40.1772 63.25 40.8245 63.25 41.6134C63.25 43.0091 62.1376 44.0406 60.661 44.0406C59.6294 44.0406 59.0225 44.5261 58.6786 44.9306C58.2943 45.3959 58.0718 46.0431 58.0718 46.6297V51.6663C58.0718 51.8079 58.0719 51.9495 58.1123 52.0911C58.1325 52.2731 58.1528 52.4552 58.1123 52.6372C57.9707 53.7902 56.9392 54.3768 55.0985 54.3768C54.5726 54.3363 53.3791 54.5993 52.6914 55.8331C52.3476 56.4602 51.1339 56.7231 49.9203 56.4197C47.8167 55.9141 46.4817 54.0936 46.3805 51.545C46.3805 51.5247 46.3198 50.8775 45.9557 50.21C45.6118 49.6031 44.9646 48.875 43.6903 48.875C42.9014 48.875 42.2541 49.1177 41.7889 49.6234C41.1012 50.3516 41 51.3629 41 51.5652C41 51.5854 41.2023 54.2352 43.6903 54.2352C44.3173 54.2352 45.4905 54.397 46.34 55.5297C47.1087 56.5209 47.7762 58.5436 46.7041 62.5284C46.7041 62.5486 45.9153 64.9759 43.6903 65.3804C43.6094 65.3804 42.9822 65.4209 42.3552 65.7445C41.7484 66.0681 41 66.7154 41 68.0706C41 70.6395 43.6498 70.7609 43.6903 70.7609C43.7105 70.7609 44.3577 70.7002 45.0252 70.3563C45.632 70.0327 46.3805 69.3652 46.3805 68.0909C46.3805 66.3918 46.8862 65.2793 49.3944 65.2793C51.3969 65.2793 52.0845 63.4386 52.0845 62.5891C52.0845 62.5486 52.0845 62.5081 52.0845 62.4677C52.0845 61.9216 52.0846 61.1125 52.6509 60.5259C53.1364 60.0404 53.9455 59.7775 55.0782 59.7775C55.0985 59.7775 55.7457 59.737 56.4132 59.3931C57.02 59.0695 57.7684 58.402 57.7684 57.0872C57.7684 56.1163 57.8696 55.5904 58.0921 55.2061C58.1528 55.105 58.2337 54.9836 58.355 54.8622C58.4359 54.7813 58.6988 54.5386 59.0629 54.4981C59.2652 54.4577 59.3663 54.4981 59.6697 54.5588C59.8922 54.5993 60.2159 54.6195 60.6205 54.5993H65.7987C67.2146 54.5993 68.4079 55.5904 68.4079 56.7434C68.4079 57.7143 68.8731 58.3413 69.2777 58.6852C69.7631 59.11 70.3902 59.3527 70.9768 59.3527C71.705 59.3527 73.566 58.8875 73.566 56.7434C73.566 55.995 73.2626 55.3275 72.676 54.7813C72.0085 54.1543 71.1386 53.8104 70.1879 53.8104H69.0957C68.0843 53.8104 66.8707 53.8104 65.7784 53.8104C64.5648 53.8104 63.6748 52.9204 63.6748 51.7068C63.6748 50.5741 64.2209 49.2593 65.7784 49.2593H70.9768C71.1589 49.2593 72.413 49.3604 73.2423 47.985C73.2827 47.9445 73.4445 47.7827 73.6266 47.8029C73.7277 47.8029 73.849 47.8636 73.9502 48.0052L73.9907 48.0456C74.4964 48.6727 75.0223 49.2997 76.1955 49.2997C77.4496 49.2997 78.7845 48.2681 78.7845 46.7106C78.7845 45.1531 77.4698 44.1216 76.1955 44.1216C74.9212 44.1216 74.0715 45.0116 73.8288 45.6386C73.7479 45.7195 73.6469 45.7802 73.566 45.7802C73.4851 45.7802 73.4243 45.6993 73.3839 45.6386L73.303 45.5172C72.9187 44.9104 72.3725 44.1013 70.9768 44.1013C69.925 44.1013 69.1968 43.8181 68.7922 43.2316C68.5293 42.8472 68.3877 42.3416 68.3877 41.6741C68.3877 41.5527 68.3878 41.4313 68.3676 41.31C68.3069 40.9661 68.3675 40.6222 68.4889 40.3391C69.0148 39.1861 69.7228 39.1456 70.6532 39.1456C70.7139 39.1456 70.7746 39.1456 70.8555 39.1456H75.1031C76.3977 39.1456 77.49 40.0559 77.49 41.1279C77.49 42.5843 78.7644 43.272 79.6139 43.272C79.9173 43.272 80.4432 43.1709 80.8882 42.8675C81.2928 42.6045 81.758 42.0786 81.758 41.1077C81.758 40.5009 81.5152 39.9547 81.0297 39.4895C80.4836 38.9636 79.7555 38.6804 78.9666 38.6804H78.1575C77.2473 38.6804 76.1348 38.6804 75.1436 38.6804C74.0311 38.6804 73.2018 37.8713 73.2018 36.7386C73.2018 35.707 73.7075 34.5136 75.1436 34.5136H79.6543C80.0588 34.5743 80.9489 34.4125 81.5153 33.4416C81.6164 33.2797 81.6771 33.1381 81.7175 33.037C81.7782 32.8752 81.8995 32.4909 82.1827 33.0977C82.5266 33.8461 83.3964 34.19 84.2459 34.0079C84.9741 33.8461 85.5404 33.2393 85.6214 32.4706C85.7629 31.3784 85.055 30.8322 84.873 30.7109C84.873 30.7109 84.8527 30.6906 84.8325 30.6704C84.792 30.6097 84.691 30.4884 84.691 30.367C84.691 30.2861 84.7516 30.2052 84.8527 30.1243C85.3786 29.7197 85.6214 29.2747 85.6214 28.6477C85.6214 28.6477 85.6011 28.1825 85.3584 27.7375C85.1359 27.3127 84.6707 26.807 83.7807 26.807C82.3446 26.807 81.9197 26.4227 81.9197 25.0675C81.9197 23.7122 82.3446 23.3279 83.7807 23.3279H91.1839C91.1839 23.3279 91.6491 23.3279 92.0941 23.0852C92.5189 22.8627 93.0246 22.4177 93.0246 21.4872C93.0246 20.5568 92.5189 20.1118 92.0941 19.8893L92.0536 19.8691ZM69.116 54.2352H70.2284C71.0375 54.2352 71.8062 54.5386 72.3725 55.0645C72.858 55.5297 73.1209 56.0759 73.1209 56.6827C73.1209 57.4513 72.8378 58.0379 72.2714 58.4222C71.8264 58.7256 71.3207 58.8268 70.9971 58.8268C70.5116 58.8268 70.0059 58.6245 69.6014 58.2806C69.2778 57.9975 68.8934 57.4918 68.8934 56.7029C68.8934 55.5904 68.0438 54.6195 66.8706 54.2352C67.6393 54.2352 68.4282 54.2352 69.116 54.2352ZM68.4079 43.4541C68.9136 44.162 69.7834 44.5261 70.9971 44.5261C72.1298 44.5261 72.5546 45.1734 72.9187 45.7195L72.9996 45.8409C73.1614 46.0634 73.3435 46.1847 73.566 46.205C73.9503 46.2252 74.2536 45.8813 74.2536 45.8611C74.2536 45.8611 74.2536 45.8206 74.2536 45.8004C74.3952 45.3554 75.1032 44.5463 76.1753 44.5463C77.2473 44.5463 78.2788 45.3352 78.2788 46.65C78.2788 47.9647 77.1866 48.7536 76.1753 48.7536C75.2246 48.7536 74.8604 48.3086 74.3345 47.6816L74.2941 47.6411C74.0919 47.3984 73.8693 47.277 73.5861 47.2568C73.1613 47.2568 72.8782 47.5804 72.8377 47.6411C72.1297 48.875 71.0578 48.7536 71.0173 48.7334H65.7987C64.9896 48.7334 64.3018 49.0368 63.8365 49.6234C63.432 50.1291 63.2095 50.8572 63.2095 51.6461C63.2095 52.7991 63.8569 53.6891 64.8278 54.0531H60.6205C59.3259 54.0531 58.5169 52.6575 58.5169 51.6461V46.6095C58.5169 45.7802 59.0832 44.4856 60.6205 44.4856C62.3802 44.4856 63.6951 43.2316 63.6951 41.5729C63.6951 40.9256 63.9176 40.3997 64.3221 40.0154C64.7064 39.6513 65.2323 39.4693 65.7987 39.4693C66.9112 39.4693 67.9022 40.4806 67.9022 41.6134C67.9022 42.382 68.064 42.9686 68.3877 43.4541H68.4079ZM91.912 22.7413C91.5681 22.9234 91.2243 22.9436 91.1636 22.9638H83.7605C82.1423 22.9638 81.5557 23.51 81.5557 25.027C81.5557 26.5441 82.1221 27.0902 83.7605 27.0902C84.3471 27.0902 84.7719 27.3329 85.0348 27.8386C85.2169 28.1825 85.2573 28.5061 85.2573 28.587C85.2573 28.587 85.2573 28.587 85.2573 28.6072C85.2573 29.0927 85.055 29.4568 84.61 29.8006C84.4279 29.9422 84.3268 30.1041 84.3268 30.2861C84.3268 30.6097 84.5898 30.8727 84.61 30.8929C84.61 30.8929 85.1561 31.2368 85.237 31.965C85.2775 32.3897 85.1359 32.8145 84.8527 33.1381C84.5695 33.4618 84.165 33.6438 83.7402 33.6438C82.9918 33.6438 82.3648 33.1179 82.2637 32.3897C82.2637 32.3897 82.2637 32.3897 82.2637 32.3695V32.1268C82.2637 32.1268 82.2637 32.1268 82.2637 32.1066C82.2637 31.2772 82.83 30.9941 82.8502 30.9738C82.8502 30.9738 82.8502 30.9738 82.8705 30.9536C83.0727 30.7109 83.1739 30.4884 83.1334 30.2659C83.093 29.9625 82.8502 29.7804 82.83 29.7804C82.2434 29.3759 82.2029 28.6275 82.2029 28.6072C82.2029 27.9802 81.8187 27.4138 81.1107 26.9891C80.5848 26.6856 80.0791 26.5441 80.0589 26.5441C80.0589 26.5441 78.5621 26.5238 78.5621 25.0472C78.5621 23.5706 79.9982 23.5504 80.0791 23.5504C80.0993 23.5504 80.6253 23.51 81.1512 23.247C81.8794 22.8829 82.2637 22.2761 82.2637 21.4872C82.2637 21.0018 82.4053 20.6175 82.6683 20.3747C83.0526 20.0106 83.5986 19.9904 83.7402 19.9904H83.7605H91.1636C91.1636 19.9904 91.5682 20.0106 91.9323 20.2129C92.4177 20.4759 92.6806 20.9007 92.6806 21.5075C92.6806 22.1143 92.4379 22.5391 91.9323 22.802L91.912 22.7413Z" fill="white"/>
<path d="M23.2832 47.2369C23.2832 47.2369 23.2832 47.2781 23.3038 47.2988C23.3038 47.2575 23.2832 47.2369 23.2832 47.2369Z" fill="white"/>
<path d="M73.5868 22.2361V16.977C73.4655 15.5409 72.7374 14.8936 72.1508 14.5902C71.5237 14.2666 70.9169 14.2868 70.8764 14.2868H70.8359C69.7437 14.2868 68.9549 13.862 68.5099 13.0327C68.166 12.3854 68.1457 11.7382 68.1457 11.7179C68.0445 10.3223 67.3165 9.65476 66.7299 9.35136C66.1028 9.02772 65.5162 9.02772 65.4555 9.02772C63.979 9.02772 63.453 9.83681 63.0485 10.5043C63.008 10.565 62.9676 10.6257 62.9474 10.6864C62.8665 10.8077 62.8057 10.8684 62.7248 10.8684C62.6641 10.8684 62.6035 10.8279 62.5428 10.7673C62.5024 10.7268 62.4619 10.6864 62.4417 10.6257C61.9158 9.39181 60.6616 9.06817 59.9739 9.06817C59.5491 9.06817 58.8816 9.25022 58.3355 9.63454C58.0321 9.85704 57.6478 10.2414 57.4253 10.8279C57.405 10.9089 57.3443 10.9695 57.2836 11.01C57.2432 11.0302 57.2027 11.0504 57.142 11.0504C57.0611 11.0504 56.9802 10.9898 56.8993 10.8886C56.8386 10.8077 56.778 10.7066 56.7173 10.5852C56.5151 10.2211 56.2724 9.79635 55.4835 9.79635C55.261 9.79635 54.8766 9.79635 54.4114 9.79635C53.7439 9.79635 52.8944 9.79635 52.1662 9.79635C51.3369 9.79635 50.73 9.18954 50.73 8.38045C50.73 7.63204 51.0942 6.74204 52.1662 6.74204H55.4835C55.5846 6.74204 56.333 6.78249 56.8387 5.99363C56.8387 5.9734 56.8791 5.95317 56.8993 5.93295C56.96 5.89249 57.0611 5.81158 57.1623 5.81158C57.2634 5.81158 57.3443 5.87226 57.4253 5.9734H57.4455C57.7691 6.39817 58.0725 6.76226 58.8007 6.76226C59.5491 6.76226 60.3785 6.13522 60.3785 5.18454C60.3785 4.23386 59.5896 3.60681 58.8007 3.60681C58.113 3.60681 57.5467 4.09227 57.3849 4.47658C57.3849 4.51704 57.3443 4.55749 57.3039 4.59795C57.2634 4.6384 57.1826 4.67886 57.1219 4.67886C57.0612 4.67886 57.0005 4.6384 56.9398 4.53726L56.8993 4.45636C56.6566 4.09227 56.3331 3.58658 55.4835 3.58658C54.3103 3.58658 53.7439 3.06067 53.7439 1.94817C53.7439 1.0784 53.036 0.35022 52.1865 0.35022C51.1549 0.35022 50.6087 1.13908 50.6087 1.92795C50.6087 2.8584 49.8603 3.56636 48.8692 3.56636C47.7162 3.56636 47.2914 4.53727 47.2914 5.14408V8.36022C47.2914 9.0884 47.878 10.12 48.8489 10.12H52.1662C52.8337 10.12 53.6023 10.5043 53.6023 11.5764C53.6023 12.6484 54.8362 13.1541 55.4835 13.1541C55.4835 13.1541 56.5352 13.1541 56.9196 12.2439C56.96 12.1629 57.0005 12.1225 57.0409 12.0618C57.1016 12.0011 57.2229 12.0416 57.2634 12.1225C57.3443 12.3854 57.4253 12.6079 57.5669 12.9518C58.113 14.0239 59.2862 14.4082 59.9942 14.4082C60.9246 14.4082 61.7943 13.9227 62.3607 13.0732C62.4416 12.9518 62.5629 12.8102 62.7045 12.8102C62.8664 12.8102 63.0484 12.9923 63.0889 13.0732C64.0193 14.5093 65.1926 14.4284 65.4353 14.4082C65.4555 14.4082 65.4757 14.4082 65.4959 14.4082C66.4668 14.4082 67.195 14.6914 67.6602 15.2173C68.2873 15.9454 68.1862 16.9366 68.1862 16.9568V22.1754C68.1862 22.1754 68.1862 22.2159 68.1862 22.2361C68.0244 23.4093 67.5187 24.1982 66.6894 24.5623C66.0623 24.8454 65.4758 24.7645 65.4758 24.7645C65.4758 24.7645 63.7766 24.6634 62.9675 26.3018C62.9068 26.4232 62.7653 26.585 62.6844 26.585C62.644 26.585 62.5428 26.5243 62.4214 26.2816C61.8753 25.2702 61.0257 24.7241 59.9739 24.7241C59.7716 24.7241 59.5491 24.7443 59.3469 24.805C58.0321 25.0275 57.5668 26.0186 57.405 26.585C57.3241 26.8479 57.2836 27.1311 57.2836 27.4345C57.2836 27.5761 57.2837 27.6975 57.3039 27.8189C57.3443 28.102 57.3241 28.3448 57.3039 28.5673C57.0612 29.7 56.0296 30.2664 54.2092 30.2664C54.2092 30.2664 52.6719 30.1854 51.8021 31.7227C51.4583 32.3498 50.2446 32.6127 49.031 32.3093C45.916 31.5609 45.5317 28.3852 45.4912 27.4345C45.4912 27.4143 45.208 24.7645 42.801 24.7645C42.0121 24.7645 41.3648 25.0275 40.8996 25.5129C40.2119 26.2411 40.1107 27.2525 40.1107 27.4548C40.1107 27.657 40.232 28.3043 40.5759 28.8909C41.0614 29.7 41.8301 30.1248 42.801 30.1248C43.428 30.1248 44.6012 30.2866 45.4507 31.4193C46.2194 32.4104 46.8869 34.4332 45.8148 38.4179C45.8148 38.4382 45.0462 40.8452 42.8212 41.2498C42.8212 41.2498 42.7807 41.2498 42.7605 41.2498C42.5784 41.2498 41.7693 41.3307 41.1018 41.8363C40.7377 42.0791 40.4749 42.4229 40.2928 42.8073C40.1917 43.05 39.8478 43.0298 39.7669 42.8073C39.5848 42.2611 38.7757 41.3914 37.4407 41.3914H32.2625C32.1412 41.3914 31.1096 41.3711 30.3814 42.0589C29.8959 42.5241 29.6532 43.1714 29.6532 44.0209C29.6532 44.9514 29.2285 45.6391 28.3789 46.0639C27.7721 46.3673 27.1652 46.4279 27.0641 46.4482C26.963 46.4482 26.3764 46.4684 25.7898 46.7718C25.6077 46.8527 25.2437 47.055 24.9403 47.4798C24.8189 47.6416 24.738 47.8034 24.6773 47.9248C24.6368 47.9854 24.475 48.2484 24.1716 48.2686C23.9693 48.2686 23.7064 48.0663 23.7064 48.0663C23.5244 47.8843 23.3221 47.2573 23.3019 47.1763C22.8771 46.0841 21.3803 45.012 19.9239 45.0323C19.8835 45.0323 16.1212 45.1334 16.1212 48.835C16.1212 52.2736 15.1099 52.8198 11.8735 52.8198C8.63716 52.8198 8.07078 55.6516 8.07078 56.6225C8.07078 57.5934 8.77875 60.4252 11.8735 60.4252C14.9683 60.4252 16.1212 61.477 16.1212 64.41C16.1212 67.3429 15.0087 68.3948 11.8735 68.3948H3.80274C3.80274 68.3948 0 68.4757 0 72.1975C0 75.9193 3.76228 76.0002 3.80274 76.0002H11.8735C11.8735 76.0002 15.6761 75.7777 15.6761 72.1975C15.6761 68.6173 16.7483 68.2127 19.9239 68.2127C23.5042 68.2127 23.7267 64.4302 23.7267 64.41C23.7267 63.6009 23.0794 60.6073 19.9239 60.6073C16.7685 60.6073 15.6761 60.0004 15.6761 56.6225C15.6761 53.2445 17.173 52.6377 19.9037 52.6377C20.7735 52.6782 21.4409 52.3545 21.6432 52.2534C21.9466 52.0916 22.7558 51.687 23.1199 50.8577C23.3222 50.3723 23.3424 49.8868 23.7267 49.7048C23.7874 49.6845 23.9492 49.6036 24.1312 49.6643C24.374 49.7452 24.3941 50.0486 24.7784 50.5745C24.8391 50.6554 24.8796 50.7161 24.92 50.7566C25.3043 51.1207 25.7697 51.2623 26.5383 51.5252C26.7001 51.5859 27.226 51.7073 27.2867 51.7477C27.6103 51.8489 28.2373 52.0916 28.743 52.4961C29.3296 52.9613 29.633 53.4873 29.633 54.0738V59.1307C29.633 59.1307 29.633 60.2836 30.3612 61.0725C30.8264 61.5377 31.4534 61.7804 32.2423 61.7804C33.0311 61.7804 33.6583 61.5377 34.1235 61.0725C34.8719 60.3039 34.8719 59.1914 34.8517 59.1509V54.0941C34.8517 54.0739 34.8112 53.4468 34.4876 52.7995C34.164 52.1927 33.5166 51.4848 32.2423 51.4848C31.1905 51.4848 30.5433 51.3229 30.1792 50.9589C29.8353 50.615 29.6735 50.0284 29.6735 49.0575C29.6735 47.1763 30.26 46.6302 32.2423 46.6302H37.4407C37.5216 46.6302 39.2005 46.4684 39.5848 45.5177C39.6252 45.4166 39.686 45.3357 39.7466 45.2952C39.8478 45.2143 39.9893 45.1334 40.0905 45.1334C40.1916 45.1334 40.313 45.2548 40.4545 45.4368C41.1423 46.4077 42.0121 46.61 42.6189 46.61C42.8818 46.61 43.1853 46.5493 43.4685 46.4684C43.7517 46.3875 44.0348 46.2661 44.2775 46.1245C45.0462 45.6391 45.4507 44.8907 45.4507 43.94C45.4507 42.2409 45.9564 41.1284 48.4646 41.1284C50.4671 41.1284 51.1548 39.2877 51.1548 38.4382C51.1548 38.3977 51.1548 38.3573 51.1548 38.3168C51.1548 37.7707 51.1548 36.9616 51.7211 36.375C52.2066 35.8895 53.0157 35.6266 54.1484 35.6266C54.1687 35.6266 56.8387 35.485 56.8387 32.9364C56.8387 30.59 57.7084 30.145 59.5491 30.1045C59.5693 30.1045 59.5896 30.1045 59.6098 30.1045C59.7312 30.1045 59.8323 30.1248 59.9334 30.1248C61.0257 30.1248 61.8955 29.5989 62.3405 28.6684C62.3405 28.6279 62.381 28.5875 62.4214 28.5673C62.5024 28.4864 62.5833 28.4257 62.6844 28.4257C62.7855 28.4257 62.9068 28.547 62.9675 28.6279L63.0485 28.7493C63.4935 29.3764 63.9991 30.0843 65.3948 30.145C65.415 30.145 65.4353 30.145 65.4555 30.145C66.8715 30.0641 67.5389 29.3157 67.8221 28.7291C68.1457 28.0818 68.1256 27.475 68.1256 27.4345C68.1256 26.6457 68.3277 26.0389 68.7727 25.5939C69.5616 24.8252 70.7955 24.8657 70.8562 24.8657C72.2721 24.805 72.9396 24.0768 73.243 23.47C73.5666 22.8227 73.5667 22.1957 73.5667 22.1754L73.5868 22.2361ZM44.2978 45.4975C43.8932 45.9425 43.3269 46.1852 42.7201 46.1852C42.0122 46.1852 41.3648 45.8414 40.9602 45.275C40.6568 44.9109 40.3737 44.7693 40.3534 44.7693C40.2927 44.7491 40.2321 44.7289 40.1715 44.7289C39.8478 44.6884 39.6051 44.8502 39.4231 44.9918C39.2815 45.0929 39.1803 45.2548 39.0993 45.4368C38.9173 45.902 37.9666 46.165 37.4204 46.2054H32.2423C31.0489 46.2054 30.3006 46.4077 29.8151 46.8932C29.3499 47.3382 29.1476 48.0461 29.1476 49.1586C29.1476 51.3432 29.9566 52.1118 32.2423 52.1118C34.1436 52.1118 34.3257 54.0132 34.3257 54.2154V59.2723C34.3257 59.2723 34.3258 60.2229 33.7392 60.8298C33.3953 61.1938 32.8895 61.3759 32.2423 61.3759C31.595 61.3759 31.0893 61.1938 30.7455 60.8298C30.1387 60.2229 30.1589 59.2723 30.1589 59.2723V54.2154C30.1589 53.4468 29.7949 52.7793 29.0667 52.2129C28.4599 51.7477 27.8732 51.5252 27.4484 51.3836C27.2057 51.3027 27.2461 51.3229 26.9225 51.2218C26.0729 50.9386 25.6483 50.8173 25.3853 50.5139C24.9808 50.0689 24.9808 49.4418 24.9808 49.1789C24.9808 47.0954 26.9832 47.0752 27.0641 47.0752C27.1046 47.0752 27.8327 47.0145 28.5811 46.6504C29.6127 46.1245 30.1387 45.2548 30.1387 44.1423C30.1387 43.4545 30.3208 42.9286 30.7051 42.5645C31.231 42.0589 31.9794 42.0386 32.1614 42.0386C32.1816 42.0386 32.2019 42.0386 32.2019 42.0386H37.4003C38.0476 42.0386 38.4723 42.2813 38.715 42.4634C39.0184 42.7061 39.1803 42.9893 39.2207 43.1107C39.3016 43.3736 39.5646 43.8186 39.9691 43.8389C39.9691 43.8389 40.0298 43.8389 40.0702 43.8389C40.232 43.7984 40.5355 43.6568 40.6366 43.3736C40.6366 43.3736 40.6366 43.3534 40.6366 43.3332C40.6366 43.2725 40.6973 43.1916 40.7378 43.0904C40.8591 42.8679 41.0209 42.6657 41.0816 42.605C41.5266 42.1398 42.1537 41.897 42.801 41.9375C43.873 42.0184 44.7428 42.8679 44.8035 43.9602C44.8439 44.567 44.6417 45.1334 44.2169 45.5784L44.2978 45.4975ZM73.1014 22.2361C73.1014 22.2361 73.1014 22.7823 72.8384 23.3082C72.4743 24.0161 71.8271 24.4004 70.8764 24.4409C70.7348 24.4409 69.3594 24.4004 68.4491 25.2904C67.903 25.8164 67.64 26.5445 67.6602 27.475C67.6602 27.475 67.6603 28.0009 67.4175 28.5268C67.0737 29.2348 66.4062 29.6191 65.4353 29.6798C64.2621 29.6393 63.8981 29.1336 63.4531 28.4864L63.3721 28.365C63.1698 28.102 62.9473 27.9604 62.7045 27.9604C62.3 27.9604 62.0169 28.3448 61.9966 28.365V28.3852C61.6325 29.2145 60.9246 29.6595 59.9942 29.6595C59.448 29.6595 58.9221 29.4775 58.5176 29.1539C58.4974 29.1336 58.4568 29.1134 58.4366 29.0932C58.2546 28.9314 58.1131 28.7291 58.0119 28.5268C57.8501 28.2234 57.7691 27.8593 57.7691 27.4548C57.7691 26.5648 58.1939 26.0389 58.558 25.7557C59.0434 25.3714 59.6098 25.2298 59.9942 25.2298C60.8639 25.2298 61.5719 25.6748 62.0169 26.5243C62.2192 26.8884 62.4416 27.0704 62.7248 27.0704C63.1293 27.0704 63.3924 26.6052 63.4328 26.5243C64.1003 25.1893 65.4151 25.25 65.4758 25.25C65.4758 25.25 66.2039 25.3309 66.9321 25.0073C68.1862 24.4611 68.5907 23.207 68.7121 22.2361V16.977C68.7121 16.8354 68.8132 15.7432 68.0648 14.8936C67.4985 14.2666 66.6489 13.9227 65.4959 13.9227C65.4959 13.9227 65.496 13.9227 65.4758 13.9227C65.4758 13.9227 64.4442 14.125 63.5744 12.8102C63.5744 12.8102 63.2508 12.3248 62.7855 12.3248C62.5023 12.3248 62.2596 12.4866 62.0371 12.8102C61.5517 13.5182 60.8436 13.9429 60.0548 13.9429C59.3266 13.9429 57.8298 13.3968 57.8298 11.7179C57.8298 10.8077 58.295 10.2616 58.6996 9.9784C59.1648 9.63454 59.7109 9.49295 60.0548 9.49295C60.6211 9.49295 61.6932 9.77613 62.0977 10.8482V10.8886C62.0977 10.8886 62.3607 11.2932 62.7653 11.2932C63.008 11.2932 63.2103 11.1516 63.3721 10.8886C63.4125 10.8279 63.453 10.7673 63.4934 10.7066C63.8778 10.0998 64.2823 9.45249 65.4959 9.45249C65.5161 9.45249 66.0421 9.45249 66.568 9.73567C67.276 10.0998 67.6603 10.7673 67.721 11.6977C67.721 11.7786 67.7411 12.4866 68.1457 13.2148C68.5098 13.9025 69.2987 14.7318 70.8967 14.7318H70.937C70.937 14.7318 72.9599 14.6711 73.1621 16.9568V22.2159L73.1014 22.2361Z" fill="white"/>
</svg>
