<svg width="51" height="50" viewBox="0 0 51 50" fill="none" xmlns="http://www.w3.org/2000/svg">
<g clip-path="url(#clip0_1723_7068)">
<path d="M2.95148 48.6666C2.95148 48.863 2.91023 49.041 2.82852 49.2025C2.74648 49.3639 2.63914 49.5039 2.50695 49.6227C2.37461 49.7421 2.22148 49.8343 2.04695 49.9007C1.87258 49.9663 1.69523 49.9997 1.5157 49.9997C0.865078 49.9997 0.389297 49.6005 0.0878906 48.8019L0.777891 48.4844C0.904766 48.7913 1.02773 48.9974 1.14664 49.1033C1.26586 49.2089 1.39367 49.2621 1.53133 49.2621C1.61602 49.2621 1.69664 49.2447 1.77352 49.2108C1.84977 49.1758 1.91727 49.1308 1.97586 49.0755C2.03383 49.02 2.07992 48.9552 2.11461 48.8814C2.14883 48.8071 2.16602 48.7283 2.16602 48.6433C2.16602 48.5796 2.14492 48.5218 2.10242 48.4686C2.06023 48.4163 2.00742 48.3694 1.94398 48.33C1.88039 48.2905 1.8143 48.2533 1.74539 48.2189C1.67695 48.1844 1.61852 48.1543 1.57117 48.1277C1.43352 48.0593 1.29461 47.99 1.15445 47.9218C1.01445 47.853 0.886015 47.7735 0.769765 47.6836C0.653515 47.5938 0.558204 47.485 0.484141 47.3583C0.410079 47.2316 0.373359 47.0757 0.373359 46.8904C0.373359 46.7161 0.403671 46.5558 0.464453 46.4105C0.52539 46.265 0.609921 46.1382 0.718359 46.0297C0.82664 45.9214 0.954922 45.8372 1.1032 45.7761C1.25102 45.715 1.41508 45.6846 1.59492 45.6846C1.83273 45.6846 2.05758 45.7508 2.26898 45.883C2.48039 46.0152 2.67586 46.2269 2.85586 46.5179L2.26898 46.9936C2.18961 46.8775 2.11836 46.7821 2.05477 46.7079C1.99148 46.6343 1.93305 46.5757 1.88023 46.5335C1.82727 46.4911 1.77727 46.4633 1.72977 46.45C1.68195 46.4371 1.6318 46.4307 1.57883 46.4307C1.45727 46.4307 1.35523 46.473 1.27352 46.5574C1.19164 46.6419 1.15055 46.75 1.15055 46.8822C1.15055 46.941 1.16914 46.9924 1.20602 47.0372C1.24289 47.0822 1.28914 47.1236 1.34477 47.1602C1.40023 47.1969 1.45867 47.2289 1.5193 47.2552C1.58023 47.2818 1.6318 47.3055 1.67414 47.3263L2.38773 47.6997C2.56227 47.8108 2.69977 47.9439 2.80055 48.1002C2.90102 48.2558 2.95148 48.4449 2.95148 48.6666Z" fill="white"/>
<path d="M7.51203 48.3014C7.51203 48.3488 7.51203 48.3964 7.51203 48.4441C7.51203 48.4914 7.50922 48.5364 7.50406 48.5785C7.49344 48.7957 7.44719 48.9927 7.36516 49.1694C7.28328 49.3471 7.17359 49.4961 7.03609 49.6182C6.89859 49.7397 6.73719 49.8333 6.55219 49.8999C6.36703 49.9655 6.16609 49.9989 5.94937 49.9989C5.775 49.9989 5.60297 49.9733 5.43359 49.9233C5.26437 49.8735 5.10984 49.7989 4.96953 49.7013C4.82953 49.6036 4.71062 49.4843 4.61281 49.3444C4.51484 49.2044 4.45016 49.0471 4.41859 48.8724C4.4025 48.7824 4.39328 48.6902 4.39047 48.5949C4.38766 48.4999 4.38672 48.4022 4.38672 48.3016V45.7471H5.18V48.23C5.18 48.4099 5.18656 48.5622 5.19969 48.6861C5.21297 48.8105 5.25391 48.9118 5.32266 48.9916C5.39141 49.0707 5.48531 49.1358 5.60437 49.1857C5.72328 49.2361 5.83828 49.2613 5.94937 49.2613C6.12391 49.2613 6.26281 49.2333 6.36578 49.1779C6.46891 49.1224 6.54547 49.0485 6.59594 48.9558C6.64609 48.8632 6.67906 48.7549 6.695 48.6305C6.71109 48.5061 6.71875 48.3727 6.71875 48.23V45.7471H7.51203V48.3014Z" fill="white"/>
<path d="M11.0576 49.9346L9.94711 48.3404V49.9346H9.17773V45.7463H10.0979C10.304 45.7463 10.4971 45.7665 10.6768 45.8059C10.8566 45.8456 11.014 45.9134 11.1488 46.0082C11.2837 46.1034 11.3909 46.2288 11.4701 46.3849C11.5495 46.5409 11.5891 46.7382 11.5891 46.9759C11.5891 47.2823 11.5098 47.5337 11.3513 47.7292C11.1926 47.9256 10.9835 48.0599 10.7246 48.1338L11.9859 49.9345L11.0576 49.9346ZM10.812 46.9679C10.812 46.862 10.793 46.7776 10.7562 46.7143C10.7193 46.6506 10.669 46.6018 10.6057 46.5674C10.5423 46.5326 10.4707 46.5107 10.3915 46.4999C10.3121 46.4895 10.2301 46.4838 10.1455 46.4838H9.95523V47.4598H10.1773C10.336 47.4598 10.4812 47.4252 10.6135 47.3565C10.7455 47.2877 10.812 47.1584 10.812 46.9679Z" fill="white"/>
<path d="M16.1823 49.9346L15.7145 48.8006H14.3501L13.8821 49.9346H13.0332L14.7943 45.7463H15.2862L17.0152 49.9346H16.1823ZM15.0321 47.174L14.6513 48.0862H15.4129L15.0321 47.174Z" fill="white"/>
<path d="M20.2666 49.9346L19.1561 48.3404V49.9346H18.3867V45.7463H19.3069C19.513 45.7463 19.7061 45.7665 19.8858 45.8059C20.0656 45.8456 20.223 45.9134 20.358 46.0082C20.4925 46.1034 20.6 46.2288 20.6791 46.3849C20.7584 46.5409 20.7983 46.7382 20.7983 46.9759C20.7983 47.2823 20.7187 47.5337 20.5605 47.7292C20.4016 47.9256 20.1927 48.0599 19.9336 48.1338L21.1948 49.9345L20.2666 49.9346ZM20.0206 46.9679C20.0206 46.862 20.0022 46.7776 19.9653 46.7143C19.9284 46.6506 19.878 46.6018 19.8147 46.5674C19.7512 46.5326 19.6797 46.5107 19.6003 46.4999C19.5211 46.4895 19.4391 46.4838 19.3547 46.4838H19.1642V47.4598H19.3862C19.545 47.4598 19.6902 47.4252 19.8227 47.3565C19.9547 47.2877 20.0206 47.1584 20.0206 46.9679Z" fill="white"/>
<path d="M26.6541 47.8408C26.6541 48.1373 26.5959 48.4163 26.4798 48.6777C26.3637 48.9398 26.2059 49.1687 26.0077 49.3641C25.8095 49.5601 25.5765 49.7146 25.3096 49.8285C25.0427 49.9424 24.761 49.999 24.4646 49.999C24.1632 49.999 23.8804 49.9423 23.616 49.8284C23.3516 49.7144 23.1188 49.5599 22.9179 49.364C22.7171 49.1685 22.5582 48.9396 22.442 48.6776C22.3257 48.416 22.2676 48.1371 22.2676 47.8407C22.2676 47.5504 22.3257 47.2737 22.442 47.0121C22.5582 46.7505 22.7155 46.5204 22.914 46.3221C23.1123 46.124 23.3448 45.968 23.6118 45.8543C23.8788 45.7405 24.163 45.6833 24.4645 45.6833C24.7609 45.6833 25.0424 45.7404 25.3093 45.8543C25.5762 45.9682 25.8091 46.1226 26.0074 46.318C26.2057 46.514 26.3634 46.7424 26.4795 47.0044C26.5955 47.2665 26.6541 47.5449 26.6541 47.8408ZM25.8768 47.8408C25.8768 47.651 25.8384 47.4698 25.7616 47.2976C25.6851 47.126 25.5832 46.9765 25.4562 46.8499C25.3295 46.7229 25.1799 46.6208 25.0082 46.5443C24.8365 46.4677 24.6554 46.4296 24.4646 46.4296C24.269 46.4296 24.0852 46.4663 23.9137 46.5402C23.7416 46.6146 23.591 46.7165 23.4615 46.8459C23.3316 46.9755 23.2301 47.1262 23.156 47.2977C23.0818 47.4699 23.0449 47.6512 23.0449 47.841C23.0449 48.0319 23.0832 48.2132 23.1601 48.3846C23.2363 48.5568 23.3396 48.7071 23.4693 48.8366C23.5987 48.9669 23.7496 49.0698 23.9215 49.1463C24.0934 49.2229 24.2746 49.2613 24.4648 49.2613C24.6555 49.2613 24.8365 49.2229 25.0084 49.1463C25.1802 49.0698 25.3298 48.9669 25.4563 48.8366C25.5834 48.7073 25.6852 48.5568 25.7618 48.3846C25.8384 48.2129 25.8768 48.0316 25.8768 47.8408Z" fill="white"/>
<path d="M31.2309 48.3014C31.2309 48.3488 31.2309 48.3964 31.2309 48.4441C31.2309 48.4914 31.2281 48.5364 31.2231 48.5785C31.212 48.7957 31.1663 48.9927 31.0839 49.1694C31.0019 49.3471 30.8927 49.4961 30.7552 49.6182C30.6175 49.7397 30.4559 49.8333 30.2709 49.8999C30.0861 49.9655 29.8852 49.9989 29.6681 49.9989C29.4939 49.9989 29.3217 49.9733 29.1525 49.9233C28.9831 49.8735 28.8286 49.7989 28.6886 49.7013C28.5483 49.6036 28.4294 49.4843 28.3317 49.3444C28.2334 49.2044 28.1692 49.0471 28.1372 48.8724C28.1214 48.7824 28.1123 48.6902 28.1095 48.5949C28.1067 48.4999 28.1055 48.4022 28.1055 48.3016V45.7471H28.8988V48.23C28.8988 48.4099 28.9052 48.5622 28.9184 48.6861C28.9319 48.8105 28.9727 48.9118 29.0414 48.9916C29.1102 49.0707 29.2044 49.1358 29.3231 49.1857C29.442 49.2361 29.5572 49.2613 29.6681 49.2613C29.843 49.2613 29.9816 49.2333 30.0844 49.1779C30.188 49.1224 30.2641 49.0485 30.3147 48.9558C30.3653 48.8632 30.3981 48.7549 30.4139 48.6305C30.43 48.5061 30.4377 48.3727 30.4377 48.23V45.7471H31.2309V48.3014Z" fill="white"/>
<path d="M36.8624 49.9346H36.3468L33.6815 47.119V49.9346H32.8965V45.7463H33.4123L36.0771 48.5468V45.7463H36.8624V49.9346Z" fill="white"/>
<path d="M41.7639 47.8489C41.7639 48.1719 41.7056 48.4611 41.5891 48.718C41.4731 48.9741 41.312 49.1924 41.1055 49.3724C40.8989 49.5524 40.6573 49.6908 40.3797 49.7889C40.1016 49.8863 39.8016 49.9354 39.4794 49.9354H38.5273V45.7471H39.4794C39.807 45.7471 40.1112 45.7947 40.3916 45.8902C40.6714 45.985 40.9136 46.1243 41.1173 46.3063C41.3211 46.4883 41.4794 46.7096 41.5938 46.9686C41.7069 47.2279 41.7639 47.5216 41.7639 47.8489ZM40.9705 47.8489C40.9705 47.6425 40.9347 47.4554 40.8631 47.2857C40.792 47.1169 40.6902 46.9736 40.558 46.8577C40.4253 46.7416 40.2672 46.6513 40.0822 46.5879C39.8967 46.5241 39.6931 46.4924 39.4711 46.4924H39.3123V49.198H39.4711C39.6931 49.198 39.8969 49.1658 40.0822 49.1025C40.2672 49.0393 40.4244 48.9494 40.5539 48.8327C40.6834 48.716 40.7852 48.5749 40.8595 48.4083C40.9334 48.2418 40.9705 48.0557 40.9705 47.8489Z" fill="white"/>
<path d="M46.1184 47.2622C46.1184 47.4472 46.089 47.615 46.0307 47.7655C45.973 47.9164 45.8985 48.0583 45.8085 48.1905L44.6429 49.9352H43.707L44.492 48.785C44.291 48.775 44.1046 48.7253 43.933 48.6383C43.761 48.5511 43.6115 48.4373 43.4845 48.2973C43.3577 48.1573 43.2573 47.9959 43.1834 47.8133C43.109 47.6306 43.0723 47.4389 43.0723 47.2378C43.0723 47.0212 43.1127 46.8194 43.1952 46.6312C43.277 46.4437 43.3866 46.28 43.5241 46.1397C43.6613 45.9994 43.8243 45.89 44.0118 45.8108C44.1999 45.7314 44.3968 45.6914 44.6027 45.6914C44.8143 45.6914 45.0129 45.7323 45.1979 45.8144C45.3829 45.8964 45.5443 46.0075 45.6818 46.1473C45.8195 46.2877 45.926 46.453 46.0032 46.6434C46.0799 46.8336 46.1184 47.0397 46.1184 47.2622ZM45.3251 47.2378C45.3251 47.1223 45.3049 47.0158 45.2654 46.9214C45.2259 46.8259 45.1718 46.7423 45.103 46.6708C45.0343 46.5997 44.957 46.5441 44.8726 46.5047C44.7882 46.4647 44.6984 46.445 44.6027 46.445C44.4073 46.445 44.2357 46.5175 44.0876 46.663C43.9393 46.8084 43.8649 47.0002 43.8649 47.2378C43.8649 47.3544 43.8862 47.4619 43.9287 47.5595C43.971 47.6573 44.0251 47.7417 44.0912 47.8133C44.1573 47.8848 44.2357 47.9403 44.3255 47.9797C44.4154 48.0197 44.5077 48.0394 44.6026 48.0394C44.6926 48.0394 44.7816 48.0197 44.8687 47.9797C44.9559 47.9403 45.0321 47.8848 45.0987 47.8133C45.1648 47.7417 45.2188 47.6573 45.2615 47.5595C45.3041 47.4619 45.3251 47.3544 45.3251 47.2378Z" fill="white"/>
<path d="M47.5139 49.5313C47.5139 49.6639 47.4691 49.775 47.3791 49.8649C47.2892 49.9549 47.1781 49.9997 47.0459 49.9997C46.9139 49.9997 46.8028 49.9549 46.713 49.8649C46.623 49.775 46.5781 49.6666 46.5781 49.5397C46.5781 49.4075 46.623 49.296 46.713 49.2061C46.8028 49.1161 46.9139 49.0713 47.0459 49.0713C47.1781 49.0713 47.2892 49.1161 47.3791 49.2061C47.4691 49.296 47.5139 49.4043 47.5139 49.5313Z" fill="white"/>
<path d="M49.1734 49.9426V46.4918H48.4355V45.7463H49.9588V49.9424H49.1734V49.9426Z" fill="white"/>
<path d="M33.9125 16.7538C34.375 15.9351 35.055 14.3162 35.2124 11.6966C35.3981 8.6035 34.5167 5.97147 32.5939 3.87381C30.2266 1.29147 26.6542 0.0683462 24.1636 0.00131493C24.1599 0.00131493 24.1558 0.00115757 24.152 0.00115757C19.9036 -0.101342 13.0085 2.78756 12.5097 11.0158C12.3953 12.9066 12.863 14.8837 13.7983 16.6533C13.326 17.4805 12.6219 19.1187 12.4985 21.6832C12.3478 24.8124 13.2594 27.4682 15.2077 29.5765C17.5553 32.1174 21.0652 33.3299 23.5022 33.4048C23.5052 33.4052 23.5083 33.4052 23.5111 33.4057C23.5989 33.4076 23.687 33.4093 23.7766 33.4093C25.0275 33.4093 26.4836 33.1551 27.9303 32.5963L23.8778 38.5377C23.0502 38.5533 22.3838 39.2277 22.3838 40.0591C22.3838 40.8996 23.0652 41.5813 23.9063 41.5813C24.747 41.5813 25.4283 40.8996 25.4283 40.0591C25.4283 39.944 25.4147 39.8324 25.3906 39.7251L32.1611 29.7974C33.7931 28.076 34.99 25.6715 35.1989 22.436C35.3219 20.5319 34.8549 18.5373 33.9125 16.7538ZM25.0517 10.7593C24.7727 10.4399 24.3636 10.2374 23.9064 10.2374C23.0653 10.2374 22.3839 10.919 22.3839 11.7598C22.3839 12.6007 23.0653 13.2824 23.9064 13.2824C24.3053 13.2824 24.667 13.1277 24.9386 12.8765C27.7413 13.1874 29.5928 14.6037 30.6778 15.7969C32.3302 17.6146 33.2299 20.0457 33.0849 22.2996C32.5967 29.8599 25.8742 31.3585 23.5627 31.2869C23.5603 31.2869 23.558 31.2869 23.5556 31.2869C21.6253 31.2241 18.681 30.2133 16.7639 28.1387C15.2158 26.463 14.4927 24.3255 14.6149 21.7851C14.6789 20.4552 14.9292 19.4396 15.1886 18.7176C15.2888 18.8363 15.3899 18.9543 15.4947 19.069C17.3916 21.1393 19.9478 22.3949 22.7586 22.6602C22.7695 22.6724 22.7805 22.6782 22.7913 22.6808C23.0692 22.9807 23.4652 23.1691 23.9064 23.1691C24.7472 23.1691 25.4285 22.4876 25.4285 21.6468C25.4285 20.8058 24.7472 20.1243 23.9064 20.1243C23.5008 20.1243 23.1333 20.2838 22.8606 20.5423C20.0266 20.2551 18.1536 18.8343 17.057 17.6376C15.3974 15.8262 14.4881 13.3988 14.6249 11.1441C15.0833 3.58147 21.7989 2.05506 24.1116 2.11975C24.1145 2.11975 24.1175 2.11991 24.1205 2.11991C26.0974 2.17725 29.0989 3.19725 31.0324 5.30585C32.5527 6.96397 33.2475 9.07178 33.0974 11.5699C33.0153 12.9385 32.768 13.9626 32.5156 14.684C32.427 14.5787 32.338 14.4737 32.2455 14.3716C30.3697 12.3079 27.8394 11.0468 25.0517 10.7593Z" fill="white"/>
<path d="M29.9598 38.5369C29.1187 38.5369 28.4375 39.2181 28.4375 40.0592C28.4375 40.8997 29.1187 41.5814 29.9598 41.5814C29.9759 41.5814 29.9914 41.5795 30.0075 41.5786C30.8261 41.5534 31.4822 40.8836 31.4822 40.0591C31.482 39.2181 30.8003 38.5369 29.9598 38.5369Z" fill="white"/>
<path d="M37.0445 38.8777V33.233C37.3877 32.9537 37.607 32.5283 37.607 32.0516C37.607 31.2105 36.9258 30.5288 36.0848 30.5288C36.073 30.5288 36.0609 30.5302 36.0481 30.5312C35.2245 30.5505 34.5625 31.2232 34.5625 32.0516C34.5625 32.5283 34.7822 32.9535 35.1255 33.2326V38.8777C34.7823 39.1571 34.5625 39.5826 34.5625 40.0596C34.5625 40.9001 35.2442 41.5818 36.0848 41.5818C36.9258 41.5818 37.607 40.9001 37.607 40.0596C37.607 39.5826 37.3878 39.1566 37.0445 38.8777Z" fill="white"/>
</g>
<defs>
<clipPath id="clip0_1723_7068">
<rect width="50" height="50" fill="white" transform="translate(0.0234375)"/>
</clipPath>
</defs>
</svg>
