<svg width="108" height="76" viewBox="0 0 108 76" fill="none" xmlns="http://www.w3.org/2000/svg">
<path d="M89.9235 37.0058H73.3873C71.7431 37.0058 70.3929 38.4226 70.3929 40.0936V42.714H51.3436C50.996 42.714 50.6217 42.7405 50.2875 42.8742L36.1844 48.7295C36.1844 46.9516 34.7674 45.5344 32.9895 45.5344H16.4533C15.9587 45.5344 15.571 45.1468 15.5844 44.6255C15.5844 44.171 16.0121 43.7965 16.4933 43.7965H29.7677C30.6367 43.7965 31.4121 43.1818 31.519 42.3129C31.6661 41.2568 30.8372 40.3746 29.8346 40.3746H15.3571C13.5791 40.3746 12.1621 41.7914 12.1621 43.5694V45.7351C12.1621 47.5131 13.5791 48.9299 15.3571 48.9299H31.8265C32.3211 48.9299 32.6952 49.3175 32.6952 49.7987C32.6952 50.28 32.3211 50.6678 31.8265 50.6678H19.06C18.1911 50.6678 17.4158 51.2826 17.2821 52.1515C17.1351 53.2075 17.9639 54.0901 18.9665 54.0901H32.4681C32.8157 54.0901 33.19 54.0632 33.5242 53.9697C33.8183 53.9028 34.4331 53.6622 34.4331 53.6622L40.9032 50.8013L21.0117 74.9305L20.0492 76H22.402C23.3912 76 24.3136 75.6123 25.0221 74.9305L51.1297 48.9299C51.5842 49.986 52.6403 50.7615 53.8969 50.7615H69.4705C69.9918 50.7615 70.3796 51.2561 70.2593 51.7507C70.1791 52.125 69.8315 52.3522 69.4305 52.3522H57.533C56.7042 52.3522 55.9288 52.9536 55.8887 53.8225C55.8085 54.7716 56.5437 55.5604 57.4928 55.5604H70.54C72.1842 55.5604 73.5344 54.2236 73.5344 52.566V43.2887C73.5344 41.6444 74.8711 40.2943 76.5288 40.2943H86.675C88.3192 40.2943 89.6695 41.6311 89.6695 43.2887V44.9195C89.6695 45.7484 90.2844 46.5237 91.14 46.5638C92.1025 46.644 92.9179 45.9088 92.9179 44.9597V40.0538C92.9179 38.4095 91.5811 37.0594 89.9235 37.0594L89.9502 37.0192L89.9235 37.0058ZM69.5909 47.4995H55.0599C54.6054 47.4995 54.2577 47.1521 54.2577 46.6976C54.2577 46.2431 54.6322 45.8954 55.0599 45.8954H69.5909C70.0454 45.8954 70.3929 46.2431 70.3929 46.6976C70.3929 47.1521 70.0187 47.4995 69.5909 47.4995Z" fill="white"/>
<path d="M107.839 16.8303C107.839 15.0524 106.422 13.6356 104.644 13.6356H91.3698C90.5678 13.6356 89.8059 14.1703 89.6321 14.959C89.3781 16.0685 90.2337 17.0575 91.3031 17.0575H103.508C103.976 17.0575 104.417 17.432 104.417 17.8998C104.417 18.3677 104.029 18.7686 103.548 18.7686H87.0788C86.6911 18.7686 86.2767 18.8491 85.9024 18.9961L70.0079 25.6935L91.2228 0H89.2042C88.2417 0 87.3061 0.387735 86.6109 1.0695L61.3455 25.8537V19.8515C61.3455 18.1805 60.0087 16.8437 58.3377 16.8437H41.7614C40.0904 16.8437 38.7536 18.1805 38.7536 19.8515V22.4448C38.7536 23.7682 37.6575 24.8377 36.3207 24.8377H24.9981C23.6613 24.8377 22.5651 23.7415 22.5651 22.4448V21.4288C22.5651 19.7578 21.2283 18.4211 19.5573 18.4211H4.03714C3.70295 18.4211 3.38216 18.234 3.24848 17.8998C3.04796 17.3651 3.43555 16.8036 3.997 16.8036H17.7259C18.7552 16.8036 19.5173 15.9214 19.3168 14.8921C19.1697 14.1301 18.4477 13.6088 17.6858 13.6088H3.00779C1.33679 13.6088 0 14.9456 0 16.6166V18.6218C0 20.2928 1.33679 21.6296 3.00779 21.6296H18.5279C18.9557 21.6296 19.33 21.9769 19.33 22.4314C19.33 22.8859 18.9425 23.2336 18.488 23.2336H6.52356C5.49423 23.2336 4.73234 24.1158 4.93285 25.1452C5.0799 25.9071 5.80173 26.4284 6.5637 26.4284H19.6376C20.1322 27.3776 21.1214 28.0195 22.2978 28.0195H37.818C38.1522 28.0195 38.4729 28.2065 38.6066 28.5407C38.8071 29.0754 38.4195 29.6369 37.8581 29.6369H24.1426C23.1132 29.6369 22.3512 30.5191 22.5517 31.5485C22.6988 32.3104 23.4206 32.8317 24.1826 32.8317H38.8873C40.5716 32.8317 41.9218 31.495 41.9218 29.8373V22.779C42.0421 21.2283 43.3388 20.0121 44.9162 20.0121H55.0359C56.7069 20.0121 58.0436 21.3489 58.0436 23.0199V29.6369C58.0704 30.3588 58.017 31.0004 58.418 31.6154C59.0998 32.6447 60.3563 33.0859 61.5327 32.6447L83.8838 22.8861V24.1693C83.8838 25.9072 85.3008 27.3645 87.0788 27.3645H102.064C102.866 27.3645 103.628 26.8294 103.802 26.0407C104.056 24.9312 103.201 23.9422 102.131 23.9422H88.215C87.7471 23.9422 87.3061 23.5677 87.3061 23.0998C87.3061 22.632 87.6936 22.231 88.1749 22.231H104.644C106.422 22.231 107.866 20.7874 107.866 19.0095V16.8437H107.839V16.7768V16.8303Z" fill="white"/>
<path d="M56.2663 40.1561C57.861 40.1561 59.1538 38.8635 59.1538 37.2688C59.1538 35.6741 57.861 34.3814 56.2663 34.3814C54.6716 34.3814 53.3789 35.6741 53.3789 37.2688C53.3789 38.8635 54.6716 40.1561 56.2663 40.1561Z" fill="white"/>
</svg>
