<svg width="47" height="50" viewBox="0 0 47 50" fill="none" xmlns="http://www.w3.org/2000/svg">
<path fill-rule="evenodd" clip-rule="evenodd" d="M45.2912 0H44.8176L44.5669 0.0557103L44.1491 0.222841L43.9263 0.362117L43.3413 0.696379L42.8121 1.00279L42.4221 1.22563L41.9764 1.47632L41.3914 1.81059L40.9458 2.06128L40.4722 2.33983L40.1658 2.50696L39.6923 2.78552L39.1909 3.06407L38.8009 3.28691L38.4388 3.5376L38.2438 3.73259L37.9653 4.09471L37.7424 4.48468L37.5196 5.04178L37.5021 5.10285C37.4767 5.1917 37.4639 5.28365 37.4639 5.37604V14.1957C37.4639 14.2765 37.4751 14.357 37.4974 14.4348C37.5121 14.4865 37.5317 14.5368 37.5558 14.5849L37.5602 14.5937C37.6071 14.6875 37.6688 14.7732 37.743 14.8474L37.7822 14.8866C37.8663 14.9707 37.966 15.0375 38.0758 15.0832C38.1867 15.1294 38.3057 15.1532 38.4259 15.1532H38.4632C38.5395 15.1532 38.6155 15.1439 38.6895 15.1253L38.7842 15.0875C38.9055 15.0389 39.0157 14.9663 39.1081 14.8739C39.1814 14.8006 39.2424 14.716 39.2888 14.6232L39.2979 14.6048C39.3378 14.525 39.3678 14.4406 39.3872 14.3535L39.3879 14.3501C39.4051 14.2729 39.414 14.1941 39.4146 14.115L39.4416 10.195L39.8316 9.97215L40.3608 9.66574L40.9736 9.30362L41.6143 8.9415L41.9486 8.74652L42.255 8.57939L42.4778 8.44011L42.7564 8.27298L43.202 8.02228L43.5084 7.8273L43.7165 7.72326C43.7632 7.69992 43.8058 7.66921 43.8427 7.63231C43.8796 7.59541 43.9103 7.55281 43.9336 7.50613L44.0171 7.33918C44.0493 7.27482 44.0743 7.20712 44.0918 7.1373C44.1114 7.05906 44.1213 6.97872 44.1213 6.89807V6.83581C44.1213 6.79125 44.1169 6.74679 44.1081 6.70309C44.0983 6.6542 44.0832 6.60653 44.0629 6.56097L44.0356 6.49959C44.0001 6.41951 43.953 6.34503 43.896 6.2785L43.8916 6.27342C43.8407 6.21399 43.7818 6.16182 43.7167 6.1184C43.6708 6.08782 43.6221 6.06175 43.5712 6.04055L43.4885 6.0061C43.373 5.95794 43.249 5.93315 43.1238 5.93315H43.094C43.0363 5.93315 42.9787 5.94023 42.9226 5.95425L42.8828 5.96422C42.8177 5.98048 42.7566 6.00958 42.7029 6.04981C42.6829 6.06487 42.6617 6.0784 42.6396 6.09029L42.3107 6.26741L41.8371 6.54596L41.5586 6.71309L41.2522 6.88022L40.8901 7.10307L40.4444 7.35376L40.0823 7.5766L39.7758 7.74373L39.4137 7.96657L39.4416 5.45961L39.553 5.23677L39.7201 5.04178L39.8873 4.93036L40.3051 4.67967L40.7508 4.42897L41.3357 4.09471L41.6421 3.92758L42.06 3.67688L42.8121 3.25905L43.4806 2.86908L44.1213 2.50696L44.5112 2.28412L44.5386 10.4625C44.5389 10.5623 44.5524 10.6616 44.5786 10.7578L44.5837 10.7763C44.6095 10.8711 44.6491 10.9616 44.7012 11.0449L44.7064 11.0532C44.7433 11.1122 44.7868 11.1669 44.8361 11.2162L44.8664 11.2465C44.9262 11.3064 44.9966 11.3547 45.0739 11.389C45.1621 11.4282 45.2575 11.4485 45.3539 11.4485H45.6567C45.7646 11.4485 45.8713 11.4254 45.9695 11.3807L45.9955 11.3689C46.0819 11.3296 46.1584 11.2713 46.2192 11.1983C46.2504 11.1609 46.2771 11.1201 46.2989 11.0765L46.3389 10.9965C46.4014 10.8714 46.4449 10.7377 46.4679 10.5998L46.4692 10.5922C46.4823 10.5132 46.4889 10.4333 46.4889 10.3532V1.50418L46.4611 1.28134L46.3775 0.91922L46.1268 0.445682L45.9597 0.306407L45.6533 0.111421L45.2912 0ZM27.8818 3.06405L27.5754 3.03619L27.4362 3.06405L27.1019 3.20333L26.8512 3.42617L26.6284 3.81614L26.6005 6.79664V27.7716L26.6284 31.2535L26.3777 31.1142L25.9041 30.8356L25.3749 30.5292L24.9849 30.3064L24.9292 30.2852V31.9498C24.9622 32.4323 25.1172 32.6487 25.3749 32.8691C25.6326 33.0895 25.6534 33.1198 25.6534 33.1198L26.2662 33.4819L26.5448 33.649L26.8415 33.7825C27.0132 33.8598 27.1992 33.8997 27.3874 33.8997H27.4808C27.5619 33.8997 27.6425 33.8866 27.7195 33.861C27.7534 33.8497 27.7865 33.836 27.8184 33.82L27.9513 33.7536C28.1262 33.6661 28.2823 33.5455 28.4111 33.3983L28.5441 33.2083C28.5852 33.1495 28.6183 33.0856 28.6425 33.0181L28.665 32.9553C28.6813 32.9097 28.6896 32.8617 28.6896 32.8134V3.8997L28.6618 3.78828L28.4947 3.45402L28.2161 3.20333L27.8818 3.06405ZM20.918 27.9387H20.6673L20.333 28.0223L20.0823 28.1616L19.8874 28.3287L19.6924 28.6072L19.5531 29.0251L19.5252 29.3872V37.0195H19.4695L19.3024 37.1309L18.8289 37.4095L18.3832 37.6602L18.1046 37.8273L17.5754 38.1337L17.1018 38.4123L16.4055 38.8022L15.8205 39.1644H15.7369V32.3398L15.7648 31.7549L16.1269 31.5599L16.5726 31.3092L16.879 31.1421L17.1854 30.9471L17.4083 30.7521L17.6032 30.3621V29.8329L17.5475 29.6379L17.3804 29.3593L17.1297 29.1644L16.8512 29.0529H16.3498L16.1826 29.1086L15.9041 29.2758L15.4027 29.5543L15.1241 29.7215L14.4835 30.0836L13.6478 30.585L13.3414 30.7521L12.8122 31.0585L12.3943 31.3092L11.6144 31.7549L11.1408 32.0334L10.6395 32.312L10.4166 32.4513L9.88736 32.7577L9.44168 33.0084L9.02385 33.2591L8.63388 33.4819L8.24391 33.7326L8.04892 33.9833L7.9375 34.3176V34.6518L7.99321 34.8747L8.16034 35.1532L8.43889 35.4039L8.63388 35.4875L8.85672 35.5432L9.24669 35.5153L9.49739 35.4039L9.97093 35.1254L10.3609 34.9025L12.2272 33.8162L12.5336 33.649L12.9793 33.3705L13.6478 33.0084L13.62 40.4178L13.4528 40.5293L13.0071 40.78L12.7843 40.9192L12.5336 41.0585L12.292 41.2072C12.2119 41.2565 12.1379 41.3149 12.0714 41.3814L12.0377 41.4151C11.9786 41.4742 11.9283 41.5414 11.8883 41.6148C11.8182 41.7433 11.7815 41.8873 11.7815 42.0336V42.2135C11.7815 42.3337 11.8053 42.4527 11.8515 42.5636C11.8973 42.6733 11.964 42.7731 12.0481 42.8571L12.0666 42.8756C12.0993 42.9083 12.1352 42.9377 12.1737 42.9634C12.2459 43.0115 12.3264 43.0459 12.4111 43.0647L12.5336 43.0919C12.7181 43.1104 12.9043 43.0985 13.0849 43.0568L13.1743 43.0362C13.3782 42.9621 13.5754 42.8707 13.7638 42.763L13.8706 42.702L14.1492 42.5348L14.5392 42.312L14.8456 42.1449L15.2634 41.8942L15.6534 41.6713L16.0712 41.4206L16.3776 41.2535L16.9347 40.9192L17.6032 40.5293L18.2439 40.1671L18.6617 39.9164L19.2467 39.5822L19.4974 39.4429L19.5252 39.5265V42.6462L19.5453 42.9064C19.5505 42.9741 19.564 43.0409 19.5854 43.1054C19.601 43.152 19.6207 43.1972 19.6442 43.2404L19.6883 43.3213C19.7463 43.4275 19.8226 43.5227 19.9136 43.6024C19.9702 43.6519 20.0321 43.6951 20.0981 43.7311L20.1351 43.7513C20.248 43.8128 20.3687 43.8586 20.494 43.8875L20.586 43.9086L20.6266 43.9121C20.7455 43.9223 20.8652 43.9095 20.9793 43.8745L21.0389 43.8561C21.1245 43.8298 21.2035 43.7857 21.2709 43.7267C21.3501 43.6574 21.4109 43.5696 21.4478 43.4711L21.4887 43.3621C21.535 43.2387 21.5587 43.108 21.5587 42.9762V42.6462V30.6128L21.9765 30.8635L22.5057 31.1699L22.9236 31.3928L23.23 31.5878V29.7215L23.2021 29.61C23.1296 29.2859 23.029 29.112 22.645 28.8301L22.3386 28.6351L22.0601 28.468L21.8372 28.3566L21.6144 28.2173L21.2244 28.0223L20.918 27.9387ZM9.16202 15.961H8.66063L8.4935 16.0167L8.18709 16.1838L8.07567 16.3231L7.9364 16.5738L7.88069 16.7967L7.85283 29.5543L7.74141 29.6379L7.10074 30L6.54364 30.3343L6.09796 30.585L5.45729 30.9471L4.90018 31.2813L4.42665 31.532L4.31523 31.5599L2.5325 30.4457L2.50464 25.5989L2.39322 25.2646L2.22609 24.9861L2.00325 24.8189L1.64113 24.6797H1.27901L1.00046 24.7632L0.694056 24.9861L0.526925 25.2089L0.443359 25.4596V30.8635L0.49907 31.0863L0.638345 31.3928L0.805476 31.6713L1.08403 31.9499L1.30687 32.1448L1.66899 32.3677L2.17038 32.6741L3.28459 33.3426L3.59099 33.5097C3.81165 33.6017 4.04833 33.649 4.28737 33.649H4.55366C4.7465 33.649 4.93831 33.6209 5.12303 33.5655L5.37372 33.4262L6.01439 33.0641L6.29294 32.8969L6.76648 32.6184L7.54642 32.1727L7.96425 31.922L8.40993 31.6713L8.68849 31.5042L8.85562 31.4206L9.16202 31.2256L9.57985 30.8078L9.74698 30.5292L9.88626 30.195V16.6017L9.69127 16.2674L9.44057 16.0724L9.16202 15.961ZM31.8975 18.2173C31.7662 18.2173 31.6368 18.2478 31.5194 18.3066C31.453 18.3397 31.3912 18.3815 31.3358 18.4309L31.2865 18.4747C31.2084 18.5441 31.1413 18.625 31.0875 18.7146L31.0803 18.7266C31.0281 18.8136 30.9903 18.9085 30.9683 19.0075C30.9533 19.0747 30.9458 19.1434 30.9458 19.2123V31.7549L31.0015 32.0334L31.1408 32.3399L31.3358 32.5905L31.5865 32.7855L31.865 32.897H32.4221L32.7285 32.8134L33.0628 32.6463L33.4249 32.4234L33.6478 32.312L34.5113 31.7827L34.9291 31.5321L35.3191 31.3092L35.6255 31.1421L35.9319 30.9471L36.5168 30.6128L37.1575 30.2229L37.6868 29.9165L38.1881 29.61L38.6895 29.3315L38.9681 29.1644L39.4695 28.858L39.6923 28.7187L39.918 28.5956C39.9717 28.5663 40.0221 28.5315 40.0685 28.4917C40.1513 28.4208 40.22 28.3351 40.2713 28.239L40.2894 28.2049C40.3729 28.0484 40.4166 27.8738 40.4166 27.6965V27.4888C40.4166 27.4547 40.4111 27.4209 40.4003 27.3885C40.3926 27.3654 40.3823 27.3433 40.3695 27.3226L40.2372 27.1075C40.1899 27.0308 40.1306 26.9622 40.0613 26.9046C40.0197 26.8699 39.9748 26.8393 39.9272 26.8134L39.9137 26.806C39.7684 26.7268 39.6056 26.6853 39.4402 26.6853H39.2295C39.1304 26.6853 39.0322 26.7042 38.9402 26.741L38.5503 26.9638L38.1881 27.1866L37.7982 27.4095L37.1854 27.7716L36.5168 28.1616L35.5419 28.7465L35.2355 28.9137L34.4556 29.3872L34.2327 29.4986L34.0656 29.61L33.3692 30.0279L33.0071 30.2507V19.2299C33.0071 19.1128 32.9866 18.9967 32.9466 18.8867C32.9128 18.7937 32.8655 18.7063 32.8062 18.6273L32.7922 18.6086C32.7499 18.5522 32.7018 18.5003 32.6486 18.4538L32.6321 18.4393C32.5485 18.3662 32.4522 18.3092 32.3479 18.2713C32.2496 18.2356 32.1458 18.2173 32.0412 18.2173H31.8975ZM24.4545 11.2535L25.0395 11.2813L25.318 11.4206L25.5409 11.6435L25.6523 11.8663L25.6802 11.9777V12.5905L25.513 12.9248L25.318 13.1198L24.9559 13.3426L24.5102 13.5655L23.7303 14.0111L23.2846 14.2618L22.7832 14.5404L22.6997 14.5961L22.6728 25.1693C22.6722 25.4313 22.5943 25.6873 22.449 25.9053L22.2261 26.1003L22.059 26.1838L21.864 26.2396H21.3905L20.9448 26.0167L20.7776 25.7939L20.6662 25.5432L20.6105 25.2368V15.7939L20.1648 16.0724L19.7749 16.2953L19.357 16.546L18.8278 16.8524L18.4657 17.0752L17.9086 17.4095L17.3793 17.7159L17.0172 17.883L16.6551 17.9387L16.5715 17.883L16.3208 17.8273L15.9587 17.5766L15.7637 17.1866L15.708 16.9638L15.7359 16.6574L15.8194 16.4067L16.0144 16.1281L16.2094 15.961L16.6551 15.7103L17.24 15.376L17.6857 15.1253L18.1871 14.8189L18.9671 14.3733L19.6356 13.9833L22.5604 12.2841L23.2568 11.8941L23.8417 11.532L24.0088 11.4485L24.3153 11.2813L24.4545 11.2535ZM3.64675 35.961H3.31248L3.1175 36.0167L2.83895 36.156L2.58825 36.4345L2.44897 36.7967V48.8301L2.50469 49.1643L2.69967 49.4986L2.8668 49.7214L3.14535 49.8886L3.45176 50H3.98101L4.31527 49.8886L4.76095 49.6379L5.17878 49.3872L5.81945 49.0251L6.40441 48.6908L6.82223 48.4401L7.01722 48.3287L7.49076 48.0501L7.93644 47.7994L8.32641 47.5766L8.99494 47.1866L9.63561 46.8245L9.91416 46.6574L10.1649 46.5181L10.4156 46.3231L10.5548 46.1838L10.722 45.8774V45.3203L10.6105 45.0696L10.4434 44.8468L10.3598 44.8189V44.7632L10.137 44.624L9.85845 44.5404H9.49633L9.13421 44.6797L8.71638 44.9304L8.2707 45.1811L7.65789 45.5432L7.01722 45.9053L6.6551 46.1281L6.01443 46.4902L5.20664 46.9638L4.67739 47.2702L4.4824 47.3538L4.51026 47.298V36.7688L4.4824 36.6295L4.39884 36.4624L4.2317 36.2674L4.00886 36.0724L3.64675 35.961ZM34.2874 5.68243H34.928L35.2623 5.82171L35.5408 6.04455L35.7358 6.35096L35.8194 6.54594L35.8472 6.79664V9.58216L35.8194 9.86071L35.6801 10.2507L35.4294 10.6407L35.1787 10.8913L34.733 11.1699L33.786 11.727L33.1174 12.117L32.4768 12.4791L32.5882 12.5627L32.9782 12.7855L33.7303 13.2312L34.2874 13.5376L34.5938 13.7326L35.1509 14.039L35.384 14.1944C35.4512 14.2392 35.5139 14.2906 35.5711 14.3478C35.6979 14.4746 35.7954 14.6277 35.8568 14.7963L35.8751 14.8468C35.8935 14.9021 35.903 14.9601 35.903 15.0184V15.1375C35.903 15.24 35.885 15.3418 35.85 15.4381C35.8114 15.5443 35.7527 15.642 35.6771 15.726L35.5408 15.8774L35.5315 15.8867C35.4462 15.972 35.3411 16.0348 35.2255 16.0695C35.1575 16.0899 35.087 16.1003 35.016 16.1003H34.8693C34.6159 16.1003 34.367 16.033 34.1481 15.9053L33.7303 15.6546L33.3403 15.4317L32.6718 15.0418L32.2818 14.8189L31.9197 14.5961L31.279 14.234L31.0283 14.0947L30.6105 13.844L30.2205 13.6212L29.8862 13.3147L29.747 13.1476L29.6355 12.8969L29.5798 12.7019V12.312L29.6634 12.0056L29.8027 11.7549L29.942 11.5877L30.2205 11.3649L30.9169 10.9471L31.1397 10.8356L31.4183 10.6685L31.864 10.4178L32.1425 10.2507L32.9503 9.77714L33.396 9.52645L33.8138 9.27575L33.8417 8.30082L33.5353 8.46795L33.0896 8.71865L32.6996 8.96934L32.3654 9.13647L32.0868 9.30361L31.6133 9.58216L31.1676 9.83285C31.021 9.90613 30.8594 9.94427 30.6956 9.94427H30.5686C30.4313 9.94427 30.2958 9.91231 30.173 9.8509C30.112 9.8204 30.0548 9.78295 30.0024 9.73928L29.9842 9.72416C29.9376 9.68527 29.8942 9.64254 29.8547 9.59641L29.8198 9.55571C29.7715 9.49936 29.7317 9.43629 29.7015 9.36846C29.658 9.2706 29.6355 9.16471 29.6355 9.05762V8.87184C29.6355 8.75216 29.6576 8.63351 29.7005 8.52181L29.7041 8.51251C29.7507 8.3913 29.8223 8.28123 29.9141 8.1894L30.1648 7.99441L30.5826 7.74372L31.0283 7.49302L32.1704 6.8245L32.616 6.5738L33.0339 6.3231L33.6745 5.96099L33.9531 5.79386L34.2874 5.68243ZM12.6729 18.0501H12.9793L13.3135 18.1615L13.5642 18.3565L13.7314 18.6072L13.8428 18.9136V26.0724L14.2885 25.8496L15.0127 25.4317L15.4584 25.181L16.1826 24.7632L16.684 24.4847L17.1575 24.2061L17.4361 24.0668L17.7146 23.9833H17.9932L18.3553 24.0947L18.6339 24.3454L18.7453 24.4847L18.8567 24.7353V25.3203L18.6896 25.6546L18.5782 25.7103L18.5224 25.8217L18.2717 25.9888L17.8261 26.2395L17.5197 26.4345L17.2411 26.5738L16.8511 26.7966L16.7119 26.8802L16.2105 27.1587L14.6506 28.0501L14.3442 28.2172L14.1492 28.3287L13.7035 28.5794L13.4807 28.6908C12.4434 29 11.7815 28.6908 11.7815 27.7437V18.8022L11.9765 18.4401L12.1158 18.3008L12.255 18.1894L12.5336 18.078L12.6729 18.0501ZM39.8594 17.1588H40.3051L40.6115 17.2702L40.89 17.5209L41.0293 17.7159L41.1129 17.9944V18.4122L41.0015 18.7186L40.7508 18.9972L40.5001 19.1643L40.0265 19.4429L39.5251 19.7214L39.2466 19.8886L38.9123 20.0835L38.773 20.1671L38.1881 20.5014L37.8817 20.6685L37.6031 20.8356L37.1574 21.0863L36.4332 21.5042L36.0711 21.727L35.7647 21.8941L35.367 22.093C35.335 22.109 35.302 22.1226 35.2681 22.1339C35.1911 22.1596 35.1105 22.1727 35.0294 22.1727H34.92C34.8154 22.1727 34.7116 22.1544 34.6133 22.1187C34.509 22.0807 34.4126 22.0238 34.3291 21.9507L34.2944 21.9203C34.2533 21.8843 34.2148 21.8454 34.1792 21.8039L34.1211 21.7361C34.0842 21.6931 34.0527 21.6456 34.0273 21.5949C33.9792 21.4986 33.9541 21.3924 33.9541 21.2847V21.0327C33.9541 20.8855 33.9941 20.7411 34.0698 20.6149C34.104 20.558 34.145 20.5055 34.1919 20.4585L34.2515 20.3989C34.3499 20.3006 34.4615 20.2164 34.5831 20.1489L34.9012 19.9721L35.319 19.7214L35.7647 19.4707L36.2939 19.1643L36.7953 18.8858L37.1017 18.6908L37.6031 18.4122L38.0767 18.1337L38.7173 17.7716L39.6923 17.2145L39.8594 17.1588ZM37.5706 22.8691C37.4997 22.8691 37.4291 22.8778 37.3603 22.895L37.3533 22.8967C37.2787 22.9154 37.2068 22.9432 37.1391 22.9797L36.8789 23.1198L36.3496 23.4262L35.7368 23.7883L35.4583 23.9554L34.9847 24.234L34.5147 24.5118C34.4199 24.5678 34.3325 24.6355 34.2547 24.7133L34.2103 24.7577C34.1512 24.8168 34.1009 24.884 34.0609 24.9574C33.9908 25.0859 33.9541 25.2299 33.9541 25.3763V25.6046C33.9541 25.7108 33.9788 25.8154 34.0263 25.9104C34.0523 25.9625 34.0849 26.011 34.1233 26.0549L34.2605 26.2117L34.3501 26.2901C34.438 26.367 34.5405 26.4257 34.6514 26.4627C34.7611 26.4993 34.877 26.5139 34.9924 26.5056L35.0619 26.5007C35.1585 26.4938 35.2536 26.473 35.3444 26.439C35.4016 26.4175 35.4568 26.3909 35.5092 26.3594L35.8483 26.156L36.2382 25.9331L37.0739 25.4318L37.6588 25.0975L38.1425 24.8073C38.1914 24.778 38.2377 24.7446 38.2809 24.7075L38.2981 24.6928C38.3728 24.6288 38.4362 24.5527 38.4858 24.4677C38.5645 24.3329 38.6059 24.1796 38.6059 24.0235V23.7103C38.6059 23.6697 38.5994 23.6294 38.5865 23.5909C38.5809 23.574 38.574 23.5574 38.5661 23.5415L38.5262 23.4617C38.4866 23.3826 38.4372 23.3089 38.379 23.2424C38.3079 23.1612 38.2245 23.0915 38.1319 23.0359L38.1234 23.0308C38.0369 22.9789 37.9438 22.9392 37.8465 22.9127L37.7987 22.8996C37.7244 22.8794 37.6476 22.8691 37.5706 22.8691ZM45.9474 22.0326C46.0097 21.997 46.082 21.9825 46.1532 21.9915L46.2486 22.0034C46.26 22.0048 46.2707 22.01 46.2789 22.0182C46.2887 22.028 46.2941 22.0412 46.2941 22.055V22.2464C46.2941 22.3262 46.2756 22.4049 46.2399 22.4762L46.0713 22.8134L45.8485 23.1755L45.737 23.3705H46.0851C46.1654 23.3705 46.2425 23.4024 46.2993 23.4592C46.3325 23.4924 46.3576 23.533 46.3725 23.5776L46.3862 23.6188C46.399 23.6574 46.407 23.6974 46.4099 23.738L46.4195 23.8716C46.4287 24.0013 46.4216 24.1316 46.3984 24.2595L46.3978 24.2629C46.3844 24.3364 46.3658 24.4088 46.3422 24.4797L46.2663 24.7075L46.0713 25.0139L45.6813 25.4039L45.5916 25.461C45.4482 25.5522 45.2901 25.6177 45.1242 25.6546L45.08 25.662C45.0001 25.6753 44.9181 25.663 44.8457 25.6268L44.7482 25.5878C44.7206 25.5767 44.6956 25.5602 44.6745 25.5392C44.641 25.5056 44.6192 25.4621 44.6125 25.4151L44.6053 25.3647C44.5985 25.317 44.601 25.2685 44.6127 25.2218L44.6267 25.1657C44.6425 25.1025 44.6727 25.0439 44.7151 24.9945L44.7443 24.9604C44.7917 24.9051 44.8575 24.869 44.9296 24.8587C44.984 24.8509 45.0395 24.8583 45.0901 24.8799L45.1035 24.8857C45.1713 24.9147 45.2465 24.9218 45.3185 24.9058L45.3665 24.8951C45.4273 24.8816 45.4851 24.8569 45.5369 24.8224L45.6256 24.7632L45.7615 24.5367C45.7823 24.5021 45.7992 24.4654 45.8119 24.4272L45.8323 24.3659C45.843 24.334 45.8469 24.3003 45.8438 24.2668L45.8384 24.2073C45.8287 24.1006 45.7316 24.0239 45.6256 24.039L45.2914 24.234L45.1299 24.3349C45.0905 24.3595 45.0431 24.3682 44.9975 24.3591C44.9535 24.3503 44.9144 24.3256 44.8874 24.2897L44.8846 24.2859C44.8593 24.2522 44.8457 24.2112 44.8457 24.1691V24.092C44.8457 24.0207 44.8636 23.9505 44.8977 23.8879L45.0128 23.6769L45.1799 23.3983L45.4028 23.0084L45.2635 23.1198L44.9041 23.2875C44.8663 23.3051 44.8236 23.3092 44.7831 23.2991L44.7649 23.2946C44.7448 23.2896 44.7265 23.2792 44.7119 23.2646C44.6905 23.2432 44.6785 23.2142 44.6785 23.184V23.0306C44.6785 22.9257 44.7125 22.8238 44.7754 22.7399L44.7812 22.7322C44.8237 22.6755 44.8775 22.6282 44.9392 22.5934L45.4863 22.2841L45.8485 22.0891L45.9474 22.0326ZM43.4249 23.7326V26.3999C43.4249 26.5123 43.3855 26.6211 43.3136 26.7074C43.295 26.7297 43.2744 26.7503 43.2521 26.7689L43.1841 26.8255C43.1417 26.8609 43.0883 26.8802 43.0331 26.8802H42.9809C42.9618 26.8802 42.9432 26.8738 42.9282 26.8619C42.9076 26.8458 42.8956 26.8211 42.8956 26.795V24.7003L42.7943 24.7675C42.644 24.867 42.4434 24.7593 42.4434 24.579C42.4434 24.5278 42.4607 24.4782 42.4925 24.4382L43.081 23.6988C43.12 23.6497 43.1793 23.6212 43.242 23.6212H43.2446C43.321 23.6212 43.3908 23.6643 43.4249 23.7326ZM42.0321 24.429L41.9763 24.3733C41.8899 24.356 41.8008 24.3852 41.7414 24.4504L41.0185 25.2432C40.9886 25.2759 40.9612 25.3119 40.9509 25.355C40.9258 25.4597 40.9397 25.6086 41.0371 25.6267C41.1242 25.643 41.1658 25.6355 41.1951 25.6303C41.2059 25.6284 41.2151 25.6267 41.2243 25.6267L41.3357 25.5989L41.4471 25.4875L41.5028 25.4404V25.6824L41.5301 27.5403C41.5305 27.5636 41.5399 27.5858 41.5564 27.6023C41.5754 27.6213 41.6019 27.6308 41.6286 27.6281L41.7309 27.6179C41.8163 27.6093 41.8942 27.5654 41.9457 27.4967L41.9599 27.4778C42.0067 27.4154 42.0321 27.3394 42.0321 27.2614V24.429ZM44.1885 25.5012C44.1274 25.4925 44.0656 25.5109 44.0192 25.5515L43.9433 25.6179C43.8947 25.6604 43.8563 25.7133 43.8308 25.7726L43.8255 25.7849C43.7994 25.846 43.7859 25.9117 43.7859 25.9781V26.0977L43.7993 26.193C43.808 26.2543 43.8544 26.3034 43.9151 26.3156C43.9399 26.3205 43.9657 26.3189 43.9897 26.3109L44.0668 26.2852C44.1558 26.2556 44.2331 26.1985 44.2876 26.1221C44.3241 26.071 44.3494 26.0128 44.3617 25.9512L44.3621 25.9493C44.3679 25.92 44.3708 25.8903 44.3708 25.8605V25.7123C44.3708 25.6731 44.3599 25.6344 44.3395 25.601C44.3066 25.547 44.251 25.5102 44.1885 25.5012Z" fill="white"/>
</svg>
