<svg width="40" height="40" viewBox="0 0 40 40" fill="none" xmlns="http://www.w3.org/2000/svg">
<path fill-rule="evenodd" clip-rule="evenodd" d="M20 40C31.0457 40 40 31.0457 40 20C40 8.9543 31.0457 0 20 0C8.9543 0 0 8.9543 0 20C0 31.0457 8.9543 40 20 40ZM10.9688 14.6667C10.9688 14.3 11.2641 14 11.625 14H27.375C27.7359 14 28.0312 14.3 28.0312 14.6667V15.5875L20.9602 21.4875C20.1111 22.1958 18.893 22.1958 18.0439 21.4875L10.9688 15.5875V14.6667ZM10.9688 25.3333V18.175L16.793 23.0333C18.3639 24.3458 20.632 24.3458 22.207 23.0333L28.0312 18.175V25.3333C28.0312 25.7 27.7359 26 27.375 26H11.625C11.2641 26 10.9688 25.7 10.9688 25.3333ZM11.625 12C10.1771 12 9 13.1958 9 14.6667V25.3333C9 26.8042 10.1771 28 11.625 28H27.375C28.8229 28 30 26.8042 30 25.3333V14.6667C30 13.1958 28.8229 12 27.375 12H11.625Z" fill="white"/>
</svg>
