<svg width="40" height="40" viewBox="0 0 40 40" fill="none" xmlns="http://www.w3.org/2000/svg">
<path fill-rule="evenodd" clip-rule="evenodd" d="M20 40C31.0457 40 40 31.0457 40 20C40 8.9543 31.0457 0 20 0C8.9543 0 0 8.9543 0 20C0 31.0457 8.9543 40 20 40ZM10.3304 30H14.4777V16.6473H10.3304V30ZM10 12.4018C10 13.7277 11.0759 14.8259 12.4018 14.8259C13.7277 14.8259 14.8036 13.7277 14.8036 12.4018C14.8036 11.7648 14.5505 11.1539 14.1001 10.7035C13.6497 10.253 13.0388 10 12.4018 10C11.7648 10 11.1539 10.253 10.7035 10.7035C10.253 11.1539 10 11.7648 10 12.4018ZM25.8571 30H29.9955H30V22.6652C30 19.0759 29.2277 16.3125 25.0312 16.3125C23.0134 16.3125 21.6607 17.4196 21.1071 18.4688H21.0491V16.6473H17.0714V30H21.2143V23.3884C21.2143 21.6473 21.5446 19.9643 23.7009 19.9643C25.8259 19.9643 25.8571 21.9509 25.8571 23.5V30Z" fill="white"/>
</svg>
